<svg id="Group_89" data-name="Group 89" xmlns="http://www.w3.org/2000/svg" xmlns:xlink="http://www.w3.org/1999/xlink" width="126.378" height="77.265" viewBox="0 0 126.378 77.265">
  <defs>
    <style>
      .cls-1 {
        fill: none;
      }

      .cls-2 {
        clip-path: url(#clip-path);
      }

      .cls-3 {
        fill: #121212;
        fill-rule: evenodd;
      }
    </style>
    <clipPath id="clip-path">
      <rect id="Rectangle_51" data-name="Rectangle 51" class="cls-1" width="126.378" height="77.265"/>
    </clipPath>
  </defs>
  <g id="Group_88" data-name="Group 88" class="cls-2" transform="translate(0 0)">
    <path id="Path_105" data-name="Path 105" class="cls-3" d="M9.487,80.026a7.1,7.1,0,0,1-2.271.2c-.974-.188-1.942-.516-2.9-.771C2.83,78.879,1.1,78.046.371,76.54-.412,74.933.193,72.471.826,70.9a10.26,10.26,0,0,1,1.29-2.3,8.9,8.9,0,0,1,1.17-1.525c.525-.452,1.229-.694,1.656-1.284.342-.472.247-.531-.066-1.1a16.033,16.033,0,0,0-1.523-1.9c-1.621-2.14-3.848-5.037-2.24-7.659a12.759,12.759,0,0,1,2.082-2.055c.361-.352.73-.7,1.114-1.023.224-.192,1.082-.66,1.157-.923.151-.532-.969-1.341-1.336-1.606C2.957,48.669,1.514,48.133.75,46.825c-1-1.717-.095-3.253,1-4.655,1-1.281,1.81-2.717,2.934-3.9a8.365,8.365,0,0,1,.922-.842c.852-.665-.5-1.685-.957-2.227a15.871,15.871,0,0,1-1.918-2.689A4.208,4.208,0,0,1,6.363,26.3c3.028-.2,6.31,1.645,8.829,3.311,2.141,1.155,4.227,2.41,6.276,3.719a29.282,29.282,0,0,1,5.116,3.745c.639.637,1.356,1.764,2.405,1.343.83-.333,7.456-3.967,6.938-4.76a8.1,8.1,0,0,1-.23-1.187,9.831,9.831,0,0,0-.525-1.173A7.958,7.958,0,0,1,34.238,29a3.013,3.013,0,0,1,1.209-2.6c.482-.374,1.819-.226,1.83-.969.01-.673-.7-.879-.544-1.663a1.8,1.8,0,0,1,.829-1.2,6.638,6.638,0,0,1,3.149-.826c1.742.071,1.081-.616,1.171-1.873.064-1.936,1.876-2.25,3.478-2.575.722.252,1.4.155,2.04.4.224.087.165-.415.149-.491a8.407,8.407,0,0,1-.281-1.172,1.727,1.727,0,0,1,.6-1.748,8.6,8.6,0,0,1,6.423-1.071c-.278-.067-.069-1.22.027-1.4a1.6,1.6,0,0,1,.928-.7,7.749,7.749,0,0,1,3.795.089,8.783,8.783,0,0,1,2.492.923c.656.309,1.347.557,2.017.833a12.554,12.554,0,0,1,3.544-1.8c.832-.34,1.626-.888,2.482-1.155a34.844,34.844,0,0,1,9.264-1.84,18.932,18.932,0,0,1,3.587.5c1.122.182,2.25.383,3.351.662a23.234,23.234,0,0,1,6.473,2.388A28.336,28.336,0,0,1,97.5,14.858a30.076,30.076,0,0,1,7.34,5.988c.518.531,1.038,1.01,1.556,1.537,1.359,1.383,2.541,2.606,3.779,4.08a26.913,26.913,0,0,0,2.7,3.767c.94,1.248,1.884,2.493,2.857,3.716a26.818,26.818,0,0,1,1.72,2.774c.3.5.436,1.087.735,1.591s.725.979.39,1.6a5.076,5.076,0,0,1-1.046.768c-.025-.036-.021-.031-.033-.1-.006-.034-5.942,2.1-6.463,2.3-1.133.433-2.3.771-3.465,1.1-.778.22-2.665.209-3.057,1.011,1.325.9,3.166.98,4.624,1.612,1.914.83,3.921,1.766,5.987,2.442-.011.022-.023.044-.034.067a8.331,8.331,0,0,1,2.274,1.07c.821.525,1.5.394,1.261,1.576-.079.4-.018.988-.124,1.334-.18.587-.355,1.479-.535,2.174a38.5,38.5,0,0,1-6.859,11.021c-.549.64-.971,1.41-1.463,2.093a6.589,6.589,0,0,1-1.96,1.654c-1.716,1.131-3.436,2.263-5.236,3.258a34.621,34.621,0,0,1-8.753,3.052c-1.353.319-2.736.725-4.086,1-1.527.305-3.348-.058-4.906-.058a23.81,23.81,0,0,1-4.516-.2c-2.958-.658-5.975-1.259-8.974-1.752-1.523-.431-3.2-.907-4.816-1.438-1.679-.346-3.767-.619-5.719-1.17-.934-.244-1.862-.512-2.784-.795-.971-.3-1.659-.793-2.685-.42-.9.327-1.652.958-2.559,1.266a7.829,7.829,0,0,1-2.893.1,2.427,2.427,0,0,1-2.024-1.542C47.2,70.4,46.5,70.361,45.46,70.2a3.688,3.688,0,0,1-1.488-.5c-.39-.254-.57-.871-.854-1.066-.432-.3-.274-.961-.937-1-.25-.509-.77-.017-1.011-.06-1.287-.231-1.413-1.467-2.333-2.147-.551-.408-.339-1.183-.3-1.739a.535.535,0,0,1,.033-.6c-.254-.89.584-1.932-.011-2.655-.41-.5-1.2-.636-1.758-.91a13.327,13.327,0,0,0-2.235-.93c-1-.285-.915.08-1.337.913a21.09,21.09,0,0,1-2.27,3.381c-1.376,1.75-2.584,3.606-4.048,5.3a44.6,44.6,0,0,1-7.566,6.9c-1.57,1.13-3.573,1.953-4.987,3.256a18.034,18.034,0,0,1-4.869,1.692M6.1,78.936c1.568.724,3.119.053,4.582-.1A22.768,22.768,0,0,0,17,75.357c1.394-1.052,2.875-1.828,4.2-3.011l2.014-1.8a55.575,55.575,0,0,0,5.89-6.907c1.234-1.539,3.1-3.379,3.517-5.371a4.148,4.148,0,0,0-1.238-.1c-.336-.185-.536-1.088-.034-.9l-.034-.067c.841-.424,2.16.216,3.111.134-.288-.524.3-.746.367-1.137-.649-.328-1.736-.055-2.073-.77-.844-.172-.4-1.7-.8-1.739a3.718,3.718,0,0,1-2.006-2.006c.017-.246.109-.594-.134-.669.116-.71.746-.85.937-1.539,2.036-.787.044-1.039.335-2.541-1.314-.189-2.684-.243-2.509-1.939a4.686,4.686,0,0,1,.957-1.74c.34-.5.379-.221.07-.828a2.161,2.161,0,0,1-.4-1.138c.047-.637.548-1.184.562-1.853a8.756,8.756,0,0,0-1.351.609c-.8.307-2.567-2.276-3.139-2.789a24.425,24.425,0,0,0-3.436-2.533c-2.111-1.31-4.21-2.644-6.367-3.879C13.195,29.561,11.018,27.984,8.4,27.6a3.748,3.748,0,0,0-3.143-.133c-1.086.563-2.612,1.707-2.217,3.131.544,1.958,2.237,3.623,3.574,5.069.1.1,1.022.988.883,1.2-.467.709-1.178.955-1.791,1.485a7.9,7.9,0,0,0-1.5,2.082,28.488,28.488,0,0,1-1.963,2.545C-.549,46.587,4,47.926,6.2,49.907c.892.8.868,1.238-.068,1.808a18.874,18.874,0,0,0-3.307,2.926C1.267,56,1.59,58.19,2.462,59.814a12.329,12.329,0,0,0,1.782,2.436,15.1,15.1,0,0,1,1.822,2.494,1.4,1.4,0,0,1,.266.7c0,.874-1.644,1.7-2.232,2.178a10.974,10.974,0,0,0-2.727,4.294C.8,73.44,1.313,74.53,1.748,75.96c.587,1.931,2.459,2.388,4.347,2.977m81.4-2.854c-.226.028-1.231-1.341-1.415-1.543a23.571,23.571,0,0,1-1.6-1.891c-.388-.529-.918-1.377-1.645-1.447-.4-.039-1.324.645-1.773.76a1.661,1.661,0,0,0-.675.187c-.035.027-.4.459-.317.467a8.29,8.29,0,0,0-2.742.937,13.813,13.813,0,0,1-3,.654,3.633,3.633,0,0,0-1.189.307,23.6,23.6,0,0,0,4.764,1,36.382,36.382,0,0,0,5.482.7,24.841,24.841,0,0,0,4.113-.133m-4.244-5.975c.438.424.835.88,1.263,1.316a10.532,10.532,0,0,1,1.308,1.292,8.408,8.408,0,0,0,1.344,1.417,4.219,4.219,0,0,1,.633.656,3.7,3.7,0,0,0,.429.651,2.9,2.9,0,0,0,2.745.42,13.692,13.692,0,0,1,2.872-.658,26.4,26.4,0,0,0,2.97-.794c.743-.221,1.448-.59,2.18-.794a11.441,11.441,0,0,0,2.134-.867c1.41-.722,2.716-1.624,4.092-2.406a9.977,9.977,0,0,1,1.068-.605q.561-.36,1.084-.775a13.709,13.709,0,0,0,1.916-1.847c.495-.58.852-1.3,1.359-1.855a11.488,11.488,0,0,0,1.429-1.941,8.974,8.974,0,0,1,.8-.918q.392-.487.75-1c.451-.645.862-1.317,1.249-2a42.124,42.124,0,0,0,2.2-4.346c.4-.95,1.059-2.72.235-3.639a3.664,3.664,0,0,0-1.308-.788,22.831,22.831,0,0,0-2.222-.954c-2.634-.821-5.423-2.567-8.193-3.011a4.638,4.638,0,0,1-.646-.285c-.292-.1-.59-.188-.886-.281a3.709,3.709,0,0,1-1.492-.65c-.415-.413-.025-.77.327-1.06a3.291,3.291,0,0,1,1.435-.512q.889-.212,1.779-.415a7.692,7.692,0,0,0,1.307-.434,4.163,4.163,0,0,1,1.286-.374c1.958-1.157,3.962-1.3,5.785-2.307,2.913-.662,3.815-.374,1.974-3.245a90.7,90.7,0,0,0-6.621-9.1c-1.919-3.107-4.728-5.526-7.258-8.094-2.9-2.966-6.612-4.876-10.334-7.157-1.2-.283-2.562.935-3.612,1.3a13.558,13.558,0,0,0-3.714,2.065,15.818,15.818,0,0,0-1.567,1.393c-.187.19-.415.336-.613.514-.168.152-.213.393-.376.548a6.694,6.694,0,0,1-.613.36,5.956,5.956,0,0,0-.443.441c-.351.331-.71.65-1.045,1a7.226,7.226,0,0,0-.72.857,9.551,9.551,0,0,1-.474.85,14.342,14.342,0,0,0-2.282,3.794,25.585,25.585,0,0,0-1.616,4.338,6.079,6.079,0,0,1-.4,1.336c-.223.458-.425.928-.611,1.4a31.234,31.234,0,0,0-.988,3.01,16.994,16.994,0,0,0-.757,2.942c-.171,2.046-.509,4.122-.5,6.169a16.909,16.909,0,0,0,.419,3.675c.24,1.055.369,2.143.608,3.208a35.3,35.3,0,0,0,1.16,4.117c.238.668.636,1.334.821,2.012.094.343.1.692.2,1.041s.219.71.347,1.058a16.949,16.949,0,0,0,3.317,5.526c.517.575,1.074,1.113,1.63,1.65L82.1,68.988l1.158,1.119M65.963,72.581a6.776,6.776,0,0,0,2.151.7c.781.235,1.561.472,2.361.639-3.931-1.85-1.278-4.668-4.248-1.539-.1-.023-.23.127-.264.2m3.759-.294c.433.374,1.968,1.2,2.559.93.505-.232,1.528.247,2.074-.167,2.824-.273,5.215-1.915,7.892-2.509a46.651,46.651,0,0,0-4.08-3.745,8.151,8.151,0,0,0-1.606-2.006c-.2-.3-.543-1.232-.836-.869-.27.176-.553.028-.8,0a4.781,4.781,0,0,0-.8.267A24.343,24.343,0,0,1,70,64.7c-.78.076-.687.185-1.043.817a2.748,2.748,0,0,0-.557,1.118c-.085,1.059-.659,1.774-.31,2.9A7.327,7.327,0,0,0,69.178,71.7a3.87,3.87,0,0,0,.544.588M57.974,67.518a4.144,4.144,0,0,0,.325,2.713c.241.4.78,1.316,1.34.947a5.8,5.8,0,0,0,3.346.828,12.537,12.537,0,0,1,1.361-.216c.4-.016.61.143.978-.144.612-.189,2.553-1.788,1.806-2.576.034-1.078.075-3.308,1.17-4.28a14.255,14.255,0,0,1-4.046-.869c.3.094-1.489,1.091-1.545,1.117-.844.4-1.692.79-2.522,1.219-.442.229-1.83.476-2.082.813l-.02.029a.97.97,0,0,0-.112.42m-9.1,3.592c-.046.382.147.141.133.469-.028.675,2.514.52,2.864.438a4.813,4.813,0,0,0,2.349-1.068c.477-.587-.361-.369-.831-.6-1.128-.568-2.219-1.2-3.366-1.748a11.883,11.883,0,0,1-1.725-.9,5.61,5.61,0,0,0-1.6-.93,7.894,7.894,0,0,0-2.441-1.973c-.179-.3-.555-.262-.669-.7a9.2,9.2,0,0,1-1.372-1.137c-.367-.371-1.109-.747-1.552-1.1-.572-.461-.807-.685-1.011.042-.181.646-.564,2.424-.013,2.97.468.462.734,1.036,1.322,1.372a14.585,14.585,0,0,0,1.619.608c.985.419,1.22,1.3,1.875,2.066a5.563,5.563,0,0,0,2.81.569c.522.214.757.9,1.238,1-.049.083.008.039-.1.066.061.467.319.352.469.568m-39.8-1.137c-.084.28-.317.19-.6.267a1.107,1.107,0,0,1-.735.368,4.588,4.588,0,0,1-.97.469c-.347.073-.493.689-.836.6-.892,1.172-1.389-.811-.168-.97.733-.992,2.275-1.091,3.21-1.84a31.741,31.741,0,0,0,6.656-3.444c1.7-.9,2.59-2.344,4.147-3.311,3.343-2.049,6.94-3.852,10-5.585.649-.624.788.352.7.836-.834.593-2.123.9-2.843,1.539-2.123,1.086-4.452,2.531-6.722,3.611C19.035,63.742,17.52,65.421,16,66.461c-1,.765-2.261.968-3.111,1.84a30.792,30.792,0,0,1-3.511,1.572c.048.159-.2.156-.3.1m47.122.335a6.813,6.813,0,0,0,1.313.4,6.184,6.184,0,0,1-.453-2.843c0-.206.107-.623-.064-.789-.139-.135-.635-.071-.809-.095a4.791,4.791,0,0,1-2.194-.683c-.535-.519-1.251-.79-1.839-1.271-.493.572-1.482-.015-2.04.4-.433.323-1.266-.04-1.291.858-.02.726.7.825,1.212,1.018.969.365,1.965.786,2.942,1.251a31.916,31.916,0,0,1,3.224,1.755M44.256,61.077c-.005.274-.355.622-.235.97-.639.873.257,1.222.869,1.672.2.45.861.608,1.037,1.037a3.017,3.017,0,0,1,1.438.937c.727,1,.716-1.316,2.141-1.1,1.172-.419,2.269-.071.836-1.17a2.881,2.881,0,0,1,.1-3.78,3.768,3.768,0,0,0-2.074-.736c-.212-.192-.666-.109-1.071-.133.015.362-.371.258-.4.5-.5-.06-1.96.163-2.073.9-.4.156-.3.611-.568.9m7.859-1.17c-1-.211-1.193,1.146-1.639,1.606a2.07,2.07,0,0,0,1.4,1.907,4.026,4.026,0,0,0,2.174,1.6c2.963,2.134,6.532.133,9.264-1.539a9.665,9.665,0,0,1-3.009-2.24c-.332-.678-1.063-1.206-1.238-2.074-.434-.6-.048-1.475-.568-2.041-1.4-.527-4,.6-5.116,1.439-.847.206-1,.659-1.271,1.337m23.277,2.81a65.68,65.68,0,0,1-3.31-10,9.366,9.366,0,0,1-6.454-2.208c-4.43.679-7.514,4.74-5.318,9.164,3.318,4.776,9.84,4.558,15.083,3.044M45.125,58.435c-.9-.244-2.015.064-2.877-.3-1-.1-2.021-.188-2.509.9-.455,1.194,2.368,2.273,3.144,3.177.6-1.353.7-3.02,2.241-3.779m-5.887-.3c1.134-1.1-.384-.825-.869-1.705-1.021-.992-3.107-.142-2.943,1.3.706.269,1.368.62,2.107.836,2.109,1.393.593.293,1.705-.435m8.562-.4c1.007.054,1.793.612,2.576.535.982,1.176,2.335-.96,3.511-1.238.364-.223,2.085-.58,1.539-.836a10.126,10.126,0,0,1-5.552-4.548c-.295-.957-.962-1.5-1.705-.569a5.176,5.176,0,0,0-2.074,1.572c-2.228.608-2.814,4.571.134,4.882.009.877.988.085,1.571.2m-38.26-.5a13.345,13.345,0,0,0-2.96.695c-.381.116-2.608.741-1.767-.287.439-.536,1.523-.5,2.12-.71,1.807-.621,3.7-.921,5.549-1.406,1.71-.45,3.3-1.152,5.068-1.446,1.625-.271,3.148-.964,4.8-1.127a8.676,8.676,0,0,1,2.642-.769c.343-.129.99-.611,1.333-.6.54.02.622.577.362.943-.305.429-.821.288-1.227.458-1.28.539-3.36.775-4.681,1.4-3.061.312-6.2,1.62-9.331,2.408-.426.424-1.3.393-1.907.435M38.3,53.786c-.876.9-.431,1.343.334,1.873A15.378,15.378,0,0,1,41.179,57.1c.891.034,1.768.133,2.608.234.42.034-.005-.361-.1-.435.052-.246-.09-.179-.167-.4-.23.083-.431-.912-.469-1.138.2-.615.3-1.814.869-2.04.72-1.04-.6-.491-1.036-1.036-1.338-.943-2.129-1.06-3.278.233-.55.074-1.114,1.029-1.3,1.271m11.772-4.147a9.073,9.073,0,0,0,3.89,4.763,22.31,22.31,0,0,0,2.3,1.023c4.6,1.947.029-.318,5.518-4.716,4.208-1.669,3.1-.2-1.4-4.347.069-.252-.529-.7-.568-1.037-.4-.284-.324-.66-.468-1.137a21.373,21.373,0,0,0-7.96,1.974,3.5,3.5,0,0,0-1.3,3.478m-16.9,4.582c-.081.754,1.4,1.22,2.025,1.285.544.056.883-.477,1.33-.482.517-.006.07-.377.2-.7.129-.608.992-1-.134-1.137.171.02-.467-.376-.489-.391l-.038-.025a1.946,1.946,0,0,0-2.895,1.453m1.081-2.877a4.46,4.46,0,0,0-.869-1.371c.4-.29-.623-.5-.836-.368-.367.008-.293.223-.5.335-.121.049-.309-.011-.267.167-1.262,1.091-1.1,2.125.3,2.576.621.354,1.217-.405,1.472-.77.147-.154,1.051-.553.7-.568M36.129,48.2c-.493-.041-.618.737-1.1.869-.184.285.015.639-.367.769a4.41,4.41,0,0,0,1,1.405c.255.047.328.08.368.334a1.9,1.9,0,0,1,.9.636c.219-.063.505.33.836.4a16.246,16.246,0,0,1,3.044-2.241c-.534-.382-.358-1.1-.736-1.571-.19-.692.168-.919-.434-1.137-2.234-.671-1.531-.9-3.511.535m34.815,3.611c1.682.733.5-1.336.468-2.274-.04-1.052-.4-2.15-.507-3.208a13.584,13.584,0,0,1,.082-3.48c.117-.763.473-1.884-.259-2.451-.461-.356-1.092-.391-1.521-.82-.458-.459-.851-.98-1.291-1.457-.775-.842-1.771-1.7-2.959-1.093a5.341,5.341,0,0,0-3.278,1.907c-.088.208-.587,1.031-.77,1.4a4.78,4.78,0,0,0,1.338,6.221c1.344,1.573,3.323,2.509,4.783,3.947a9.826,9.826,0,0,0,3.913,1.3m-27.123-.234c2.265.545,3.291-1.716,5.25-2.106-.243-2.473,1.505-3.008-1.438-3.679-.72-.364-1.368-1.179-2.207-1.274a4.9,4.9,0,0,0-2.381.875,5.172,5.172,0,0,0-1.432,1.269c-1.573,1.676.284,4.545,2.208,4.916m-9.9-2.809c.74-.557,1.158-1.388,2.04-1.639,1.286-.876-.419-.852-.434-2.107-.675-.309-1.561.358-2.241.569-1.372,1.209-1.928,2.949.636,3.177m10.7-6.622c-.546-.424-1.771-.231-2.173-.937-.36,0-.431-.333-.7-.568-.55.305-1.239.1-1.806.4-.426.228-.718.258-.918.685-.053.113.071.693-.224.617-.529-.135-1.137.336-1.466.637-.341.943-1.417,2.33.067,2.943a14,14,0,0,0,2.742.937c.746-1.784,2.841-2.926,4.783-3.311a3.047,3.047,0,0,1-.3-1.4M31.112,45.96c.809,0,1.011-1.2,1.705-1.27.286-.369,1.115-.169,1.037-.669-.294-.348-.282-.84-.5-1.17-1.371.355-2.925.455-3.444,1.84-1.023.873.4,1.409,1.2,1.27m-11.07-2.207c1.6.276,3.291.65,5.017.836.4.044.855.058.914.582.077.692-.541.482-.987.643l-.05-.17c-1.523-.274-3.075-.667-4.613-.811-1.509-.141-3.047.008-4.561-.044-3.837-.133-7.672-.474-11.513-.556-.432-.009-2.287.072-1.217-.895.362-.327,1.285-.092,1.745-.09.786,0,1.572.023,2.356.07a1.84,1.84,0,0,0,.97.067c.047.113.2.047.267-.034a14.091,14.091,0,0,0,2.576.167,82.556,82.556,0,0,0,9.1.335Zm26.421.267a5.429,5.429,0,0,0,1.691.9c.291.121,1.673.875,1.924.743a26.533,26.533,0,0,1,7.555-2.376c-1-.631-1.441-1.793-2.215-2.637A15.981,15.981,0,0,1,53.452,37.7c-.869-1.475-4.1.3-5.05.971-2.317.633-3.949,3.461-1.939,5.35M34.55,43.328a.749.749,0,0,0,.481.532c.4.11.768-.228,1.044-.536a11.391,11.391,0,0,0,1.594-1.84,4.914,4.914,0,0,1-.762-.345,2.57,2.57,0,0,0-.764-.468,1.186,1.186,0,0,0-1.222.55,2.941,2.941,0,0,0-.4,1.36,2.3,2.3,0,0,0,0,.628,1.092,1.092,0,0,0,.027.118m24.588-.879a5.783,5.783,0,0,0,.368-1.438,7.221,7.221,0,0,1,5.886-5.017,22.621,22.621,0,0,0-1.806-1.773c-.25-.874-1.234-1.413-1.371-2.274-.534-1.026-.125-1.96-1.84-1.3-5.836.871-8.709,2.69-5.217,8.361A6.735,6.735,0,0,1,56.9,41.178c.581.744,1.256,1.135,1.806,1.74.622.391.406.156.434-.469m-28.661-.435c.8.615,1.774-.1,2.676-.166.371.166,1.043-1.754,1.672-2.108a2.519,2.519,0,0,1-.3-3.311c-.215.1-2.553,1.572-2.575,1.506.183.562-.435,1.266-1,1.963-.632.784-1.2,1.56-.473,2.116m12.675-1.538c1.76,1.741,1.615-.925,2.876-1.505.621-.286,1.132-.919,1.739-1.254.711-.39,1.523-.658,2.266-.981-1.526-.1-3.5-.052-4.473-1.477-.017-.532-2.02.106-1.84.636-.644.08-.954.728-1.371.9-1.049,1.172-.288,2.914.636,3.679Zm-21.5-2.342c1.046.431,2.185.6,3.241,1.038.28.116,1.11.337,1.222.649a.58.58,0,0,1-.391.7,1.1,1.1,0,0,1-.525-.1,57.671,57.671,0,0,1-9-3.921c-1.4-.809-3.32-1.357-4.582-2.541a13.5,13.5,0,0,0-1.458-.855c-1.129-.788-2.113-1.754-3.289-2.476-.307-.189-1.955-.776-1.975-1.152-.09-1.647,2.512.646,2.85.9a40.551,40.551,0,0,0,4.688,3.145c.317.171,2.844,1.28,2.844,1.536,1.286.695,2.878,1.088,4.033,1.981.94.3,1.5.756,2.341,1.1m17.189,2.108c1.811-.335,2.674.065,1.94-2.107-.1-2.067,2.529-2.421.769-3.111-.731-.318-1.637-1.556-1.27-2.475-1.408.087-3.543,2.442-5.184,3.345,1.714.254-.975,2.068.435,3.278.72.732,2.3,1.587,3.31,1.071M69.51,38.426c.257.259,1.691,1.886,1.868.847.078-1.771,1.131-4.162,1.439-6.088a7.454,7.454,0,0,0,1.439-3.733c-.57.051-1.055-.932-1.271-1.35a9.374,9.374,0,0,0-1.734-2.044c-.357-.371-.707-1.017-1.165-1.122-.71-.162-1.877.373-2.6.484a6.261,6.261,0,0,0-2.373.747,4.463,4.463,0,0,0-1.855,2.275,11.856,11.856,0,0,0-.2,1.735c-.4,1.843,1.142,3.248,2.264,4.451,1.086,1.164,2.384,2.119,3.562,3.2.216.2.427.4.632.6M47.232,30.978a2.07,2.07,0,0,0-.9,1.07c-.888.881-.252,2.23.235,2.909,1.018.961,2.235.441,3.611.77,4.585.832,1.683.071,2.643-2.375-.2-.839,2.276-1.67.8-1.974a24.182,24.182,0,0,1-3.311-2.608,3.083,3.083,0,0,0-2.04,1.17c-.467.164-.739.721-1.037,1.037m46.22,3.846a9.573,9.573,0,0,1-3.21-1.338c-1.528-1.007-2.143-2.767-3.135-4.224a4.66,4.66,0,0,0-.4-.541.782.782,0,0,1-.271-.679c.145-.63.675-.328,1.109-.436a1.53,1.53,0,0,0,.277-.1c.171-.079.947-.519.854-.744,0-.03.531-.376.592-.432.18-.165.341-.351.506-.531a9.122,9.122,0,0,1,1.219-1.051,6.286,6.286,0,0,1,1.538-1.035,7.549,7.549,0,0,1,1.663-.7,6.579,6.579,0,0,1,3.742.344,20.3,20.3,0,0,1,2.33,1.434c.421.338.929,1.258,1.353,1.466a2.226,2.226,0,0,1,1.3,1.607c.063.891-.773.89-1.243,1.422a27.361,27.361,0,0,1-2.343,2.6,18.1,18.1,0,0,1-2.289,1.758,6.781,6.781,0,0,1-3.586,1.177m-48.494-.9a3.009,3.009,0,0,1,.468-2.575.353.353,0,0,0-.468-.267,2.642,2.642,0,0,1-1.2-1.84c-.959.828-1.924,1.84-2.842,2.541.495.08.381.423.368.8a.726.726,0,0,1-.067.7c.06.051.273.095.133.167-.03.085.372.4.335.536,1.115.806,2.242.3,3.278-.067m-8.44-2.141c.225.508.5,1.188,1.184.9a11.421,11.421,0,0,0,2.3-1.35,41.826,41.826,0,0,0,3.839-3.378c2.065-1.959,4.013-4.041,6.15-5.924a53.754,53.754,0,0,1,12.551-8.256,11.484,11.484,0,0,0-6.105-1.855,1.708,1.708,0,0,0-1.007.214.652.652,0,0,0-.2.906c.285.328.937.2,1.118.6a.544.544,0,0,1-.3.663,1.588,1.588,0,0,1-.792.092L51.864,14.2a5.379,5.379,0,0,0-2.529.269A1.842,1.842,0,0,0,48.2,16.531c.2.632.863,1.178.677,1.814a1.015,1.015,0,0,1-.871.65,2.848,2.848,0,0,1-1.131-.163,6.633,6.633,0,0,0-2.094-.391,2.03,2.03,0,0,0-1.774,1c-.458.94.127,2.221-.527,3.037a2.034,2.034,0,0,1-1.692.578,7.209,7.209,0,0,0-1.848-.011,1.331,1.331,0,0,0-1.129,1.266c.063.647.795,1.151.672,1.789a1.141,1.141,0,0,1-.829.771,10.167,10.167,0,0,0-1.141.324A2.313,2.313,0,0,0,35.5,29.889c.005.019.011.037.016.056a18.3,18.3,0,0,0,1,1.835m54.569.955a6.561,6.561,0,0,1,.827.3,12,12,0,0,0-.637-2.16,9.282,9.282,0,0,1-.121-1.017c-.059-.338-.13-.674-.185-1.012a7.883,7.883,0,0,1,.049-2.294c.063-.486.172-.962-.345-.358-.271.316-.651.526-.913.857a1.7,1.7,0,0,1-.673.646c-.465.242-1.236.641-1.009,1.29A10.54,10.54,0,0,0,89.094,30.6a7.412,7.412,0,0,0,1.573,1.8,2.5,2.5,0,0,0,.42.34M99.48,30.35c.5-.565,1.059-1.037,1.539-1.608.209-.249.541-.471.636-.8.087-.3-.118-.442-.3-.657-.211-.245-.429-.484-.66-.711a20.029,20.029,0,0,0-1.9-1.633c-.2-.149-.551-.211-.662-.453-.976-.258-.355.67-.261,1.219a15.556,15.556,0,0,1,.228,3.338,9.433,9.433,0,0,1,0,1.421,6.047,6.047,0,0,0-.279,1.324A5.634,5.634,0,0,0,99.48,30.35m-45.735-.1a3.628,3.628,0,0,0,1.85.362A14.193,14.193,0,0,0,60.3,29.539c-.328-.764-1.811-1.293-2.475-1.8a3.082,3.082,0,0,1-1.43-2.516c.094-4.54,3.188-4.871,1.3-5.551a3.248,3.248,0,0,0-1.869.215c-.459.175-.669.473-1.171.475-.386,0-.62-.209-1.068-.064A9.192,9.192,0,0,0,51.6,21.711c-1.16.766-1.908,3.162-1.634,4.557a3.128,3.128,0,0,0,1.476,2.168c.835.451,1.394,1.375,2.3,1.809m-8.687-2.11c.12.206.425.405.167.669-.766.543-.126,1.454.669,1.3,1.507-.066,2.14-1.99,3.678-2.307-.395-.931-.973-2.469-.434-3.646a21.4,21.4,0,0,0-2.977,3.01c-.365.054-.8.766-1.1.969m18.361-9.421a8.686,8.686,0,0,0-3.6,1.561A6.146,6.146,0,0,0,57.5,24.757c-.376,1.1.42,1.731,1.2,2.331a7.691,7.691,0,0,0,2.778,1.7c.532.125.747-.015.671-.623,1.679-3.252,4.164-3.711,7.692-3.947a26.718,26.718,0,0,1-2.474-4.716c-.078-.362.244-1.424-.5-1.037-.047.024-.678-.185-.792-.194a4.507,4.507,0,0,0-1.09.092l-.131.023c-.481.088-.958.21-1.432.324m11.738,8.117a14.929,14.929,0,0,1,1.243-2.5,22.744,22.744,0,0,1,1.534-2.59c.674-.983,1.606-1.766,2.24-2.768.36-.35.853-.463,1-.969a29.781,29.781,0,0,0,3.11-2.709c1.86-1.169,4.065-2.13,6.321-3.278-.267.136-2.014-.773-2.361-.892q-1.218-.417-2.462-.75a29.922,29.922,0,0,0-5.109-.916,22.221,22.221,0,0,0-5.292.144c-.486.075-2.154.162-2.461.56-.164.212.106.39.012.6-.136.3-.566.455-.84.617-1.246.735-2.7,1.308-2.891,2.918-.073.629-.831,1.444-.636,1.905a2.269,2.269,0,0,0-.2,1.4c.07.392-.209.9.1,1.2a6.339,6.339,0,0,0,1.338,3.444c1.03,1.532,1.776,3.345,3.244,4.381,1.262,1.437,1.352,3.078,2.107.2m-14.6-8.314a5.358,5.358,0,0,1,2.256-.73c.815-.164,1.661-.223,2.488-.32.374-.044,1.341.034,1.627-.267-.123.129.247.307.369.266a5.572,5.572,0,0,1,.869-3.076,2.9,2.9,0,0,1,1.539-2.509,1.613,1.613,0,0,1,1.036-.735,1.012,1.012,0,0,0,.334-.383c-1.045-.245-3.033,1.137-3.942,1.588-1.753.87-3.5,2.1-5.254,2.842-1.415.6-2.055,1.887-3.679,2.275-.575.319-1.644.67-1.962,1.263a2.021,2.021,0,0,0,.868-.058,1.975,1.975,0,0,1,1.468.464.9.9,0,0,0,.575.149c.493-.049.911-.527,1.41-.767" transform="translate(0 -3.002)"/>
    <path id="Path_106" data-name="Path 106" class="cls-3" d="M178.595,20.375a.67.67,0,0,1-.4-.038c-.462-.233-.479-1.176.144-1.179.192.209.787.388.8.713.013.275-.265.455-.544.5m-.015-11.229a1.848,1.848,0,0,1,1.857,1.163,2.408,2.408,0,0,1-.428,2.261c-1.316.34-.252,3.247-.669,4.248-1.273.6-1.043-1.234-.836-2.006-.835-3.73,1-1.688,1.138-4.415-.326-.476-.877-.337-1.3-.4-.534.008-.784.385-1.238.5-.8.657-.293,1.139-.268,1.906-1.043.41-1.014-1.664-.535-2.207a3.281,3.281,0,0,1,2.283-1.05m-9.866,7.29a.779.779,0,0,1-.691-.127c-.21-.154-.521-.679-.3-.93.145-.163.636-.114.84-.151.085-.015.47.664.465.757a.471.471,0,0,1-.317.45m-.176-4.3c-.995-.915-.082-3.694-.971-5.084.312-.477,1.593-.707,1.472-1.505,1.193-.618-.037-2.376-.985-2.442-.4-.028-1.635.388-1.724.9-.086.5-.8,1.938-1.279.906-.236-.509.473-1.265.768-1.633a2.465,2.465,0,0,1,4.127.194,3.285,3.285,0,0,1-1.209,4.111,10.172,10.172,0,0,1,.235,3.311c-.027.6.532,1.052-.034,1.4-.281.022-.211.61-.4-.167m17.257-1.907c-.724,0-1.2-1.121-.2-1.1a.578.578,0,0,1,.2,1.1m-2.81-8.8A2.083,2.083,0,0,1,187,2.536c-.378,1.129-1.391,1.523-.769,2.909-.071.6.242,1.209,0,1.706-.32.658-.842-.541-.873-.684-.129-.59-.219-1.194-.305-1.791a1.641,1.641,0,0,1,.11-1.229c.285-.464.712-.6.859-1.19.269-1.078-.445-1.81-1.5-1.294a9.128,9.128,0,0,0-1,1.036c-.131.2.058.692-.267.7-.484-.144-.869-1-.267-1.271" transform="translate(-60.662 0)"/>
  </g>
</svg>
