<svg id="Group_251" data-name="Group 251" xmlns="http://www.w3.org/2000/svg" xmlns:xlink="http://www.w3.org/1999/xlink" width="129.722" height="79.31" viewBox="0 0 129.722 79.31">
  <defs>
    <style>
      .cls-1 {
        fill: none;
      }

      .cls-2 {
        clip-path: url(#clip-path);
      }

      .cls-3 {
        fill: #fff;
        fill-rule: evenodd;
      }
    </style>
    <clipPath id="clip-path">
      <rect id="Rectangle_147" data-name="Rectangle 147" class="cls-1" width="129.722" height="79.31"/>
    </clipPath>
  </defs>
  <g id="Group_250" data-name="Group 250" class="cls-2" transform="translate(0 0)">
    <path id="Path_173" data-name="Path 173" class="cls-3" d="M9.738,81.928a7.291,7.291,0,0,1-2.331.2c-1-.193-1.993-.53-2.978-.791C2.905,80.751,1.133,79.9.38,78.35c-.8-1.65-.182-4.176.468-5.794A10.531,10.531,0,0,1,2.173,70.19a9.137,9.137,0,0,1,1.2-1.566c.539-.463,1.262-.712,1.7-1.318.351-.485.254-.545-.068-1.126a16.456,16.456,0,0,0-1.563-1.952c-1.664-2.2-3.95-5.17-2.3-7.861a13.1,13.1,0,0,1,2.137-2.11c.371-.362.75-.714,1.143-1.05.23-.2,1.111-.677,1.187-.947.154-.546-1-1.377-1.372-1.649-1.2-.87-2.684-1.421-3.468-2.763-1.029-1.763-.1-3.34,1.029-4.778,1.03-1.315,1.858-2.789,3.011-4.008a8.587,8.587,0,0,1,.946-.865c.874-.683-.517-1.729-.982-2.286a16.291,16.291,0,0,1-1.969-2.761,4.319,4.319,0,0,1,3.726-6.376c3.109-.208,6.477,1.688,9.063,3.4,2.2,1.186,4.339,2.474,6.442,3.817a30.058,30.058,0,0,1,5.251,3.844c.656.654,1.392,1.811,2.469,1.379.852-.341,7.653-4.072,7.122-4.886a8.312,8.312,0,0,1-.236-1.218,10.091,10.091,0,0,0-.539-1.2,8.168,8.168,0,0,1-.96-2.349,3.093,3.093,0,0,1,1.241-2.668c.5-.384,1.867-.232,1.878-1,.01-.691-.722-.9-.558-1.707a1.843,1.843,0,0,1,.851-1.231,6.814,6.814,0,0,1,3.232-.848c1.788.073,1.11-.632,1.2-1.923.066-1.987,1.925-2.309,3.57-2.643.741.258,1.442.159,2.094.412.23.089.169-.426.153-.5a8.629,8.629,0,0,1-.288-1.2,1.773,1.773,0,0,1,.615-1.794,8.832,8.832,0,0,1,6.593-1.1c-.285-.069-.071-1.253.027-1.436A1.637,1.637,0,0,1,56.7,11.2a7.955,7.955,0,0,1,3.9.092,9.015,9.015,0,0,1,2.558.947c.673.317,1.383.572,2.07.855a12.886,12.886,0,0,1,3.638-1.853c.854-.349,1.669-.912,2.548-1.185a35.766,35.766,0,0,1,9.509-1.888,19.434,19.434,0,0,1,3.682.508c1.152.187,2.309.393,3.44.68a23.849,23.849,0,0,1,6.644,2.451,29.086,29.086,0,0,1,5.39,3.227,30.872,30.872,0,0,1,7.535,6.147c.532.545,1.066,1.037,1.6,1.577,1.395,1.42,2.609,2.675,3.879,4.188a27.626,27.626,0,0,0,2.774,3.867c.965,1.281,1.934,2.559,2.933,3.814a27.528,27.528,0,0,1,1.766,2.848c.312.511.447,1.116.754,1.633s.745,1,.4,1.64a5.211,5.211,0,0,1-1.074.788c-.026-.037-.021-.032-.034-.1-.006-.034-6.1,2.153-6.634,2.358-1.163.444-2.36.791-3.557,1.129-.8.226-2.736.214-3.138,1.038,1.36.921,3.249,1.006,4.747,1.655,1.965.852,4.024,1.812,6.145,2.506-.012.023-.023.045-.034.069a8.551,8.551,0,0,1,2.334,1.1c.843.539,1.538.4,1.294,1.618-.081.406-.019,1.014-.127,1.369-.184.6-.364,1.518-.549,2.232a39.519,39.519,0,0,1-7.041,11.313c-.563.657-1,1.447-1.5,2.149a6.764,6.764,0,0,1-2.012,1.7c-1.762,1.161-3.527,2.323-5.375,3.344a35.537,35.537,0,0,1-8.985,3.133c-1.388.327-2.809.745-4.194,1.022-1.568.314-3.436-.059-5.036-.059a24.439,24.439,0,0,1-4.635-.2c-3.036-.676-6.133-1.292-9.212-1.8-1.563-.443-3.288-.931-4.944-1.476-1.723-.355-3.867-.635-5.87-1.2-.959-.251-1.911-.525-2.858-.816-1-.306-1.7-.814-2.756-.431-.922.336-1.7.983-2.627,1.3a8.036,8.036,0,0,1-2.97.1A2.492,2.492,0,0,1,48.994,73c-.541-.955-1.268-.991-2.332-1.153a3.785,3.785,0,0,1-1.527-.514c-.4-.261-.585-.894-.876-1.094-.443-.306-.282-.987-.961-1.03-.256-.523-.79-.018-1.038-.062-1.322-.237-1.451-1.506-2.395-2.2-.565-.419-.348-1.214-.309-1.785a.549.549,0,0,1,.034-.618c-.26-.914.6-1.983-.012-2.725-.421-.511-1.236-.653-1.8-.934a13.679,13.679,0,0,0-2.295-.954c-1.028-.292-.939.082-1.373.937a21.649,21.649,0,0,1-2.33,3.471c-1.412,1.8-2.653,3.7-4.156,5.436a45.781,45.781,0,0,1-7.766,7.08c-1.611,1.16-3.667,2.005-5.119,3.342a18.511,18.511,0,0,1-5,1.737M6.257,80.809c1.609.743,3.2.055,4.7-.1a23.371,23.371,0,0,0,6.488-3.571c1.431-1.08,2.951-1.877,4.309-3.09L23.824,72.2a57.047,57.047,0,0,0,6.046-7.089c1.266-1.579,3.187-3.468,3.61-5.513a4.257,4.257,0,0,0-1.27-.1c-.345-.19-.55-1.116-.034-.927l-.034-.069c.863-.435,2.217.222,3.193.138-.3-.538.311-.765.377-1.167-.666-.337-1.782-.056-2.128-.79-.867-.177-.408-1.741-.824-1.785a3.816,3.816,0,0,1-2.06-2.06c.018-.252.112-.609-.138-.687.119-.729.766-.872.961-1.579,2.09-.807.045-1.066.343-2.609-1.349-.194-2.755-.249-2.575-1.991a4.81,4.81,0,0,1,.983-1.786c.349-.517.389-.227.072-.85a2.218,2.218,0,0,1-.415-1.168c.048-.654.563-1.216.577-1.9a8.988,8.988,0,0,0-1.387.625c-.82.315-2.635-2.337-3.222-2.863a25.071,25.071,0,0,0-3.527-2.6c-2.167-1.345-4.321-2.714-6.535-3.982-2.293-1.313-4.527-2.933-7.211-3.327A3.848,3.848,0,0,0,5.4,27.977c-1.115.578-2.681,1.752-2.276,3.214.558,2.01,2.3,3.719,3.669,5.2.1.106,1.049,1.014.907,1.23-.48.728-1.209.98-1.838,1.525a8.112,8.112,0,0,0-1.54,2.137A29.243,29.243,0,0,1,2.306,43.9C-.563,47.6,4.1,48.978,6.36,51.012c.916.825.891,1.271-.07,1.856a19.374,19.374,0,0,0-3.394,3c-1.6,1.4-1.264,3.643-.369,5.31a12.655,12.655,0,0,0,1.829,2.5,15.5,15.5,0,0,1,1.87,2.56,1.44,1.44,0,0,1,.273.717c0,.9-1.687,1.743-2.291,2.235a11.265,11.265,0,0,0-2.8,4.408c-.59,1.565-.061,2.683.386,4.151.6,1.982,2.524,2.451,4.463,3.055M89.814,77.88c-.232.029-1.264-1.376-1.453-1.584a24.2,24.2,0,0,1-1.642-1.941c-.4-.543-.942-1.413-1.688-1.486-.414-.04-1.359.662-1.82.78a1.7,1.7,0,0,0-.693.191c-.036.027-.407.471-.326.48a8.51,8.51,0,0,0-2.814.961,14.179,14.179,0,0,1-3.083.672,3.728,3.728,0,0,0-1.22.315,24.231,24.231,0,0,0,4.89,1.029,37.344,37.344,0,0,0,5.627.718,25.5,25.5,0,0,0,4.222-.136m-4.356-6.133c.449.435.857.9,1.3,1.351A10.809,10.809,0,0,1,88.1,74.424a8.631,8.631,0,0,0,1.379,1.455,4.33,4.33,0,0,1,.65.673,3.8,3.8,0,0,0,.44.669,2.979,2.979,0,0,0,2.818.431,14.055,14.055,0,0,1,2.948-.676,27.1,27.1,0,0,0,3.048-.815c.763-.227,1.486-.606,2.237-.815a11.744,11.744,0,0,0,2.191-.89c1.447-.741,2.788-1.667,4.2-2.47a10.241,10.241,0,0,1,1.1-.621q.575-.37,1.113-.8a14.07,14.07,0,0,0,1.967-1.9c.508-.6.874-1.333,1.395-1.9a11.792,11.792,0,0,0,1.467-1.992,9.212,9.212,0,0,1,.819-.942q.4-.5.77-1.026c.463-.662.885-1.351,1.282-2.054a43.241,43.241,0,0,0,2.262-4.461c.411-.975,1.087-2.792.241-3.735a3.761,3.761,0,0,0-1.342-.809,23.436,23.436,0,0,0-2.281-.979c-2.7-.843-5.567-2.635-8.41-3.09a4.76,4.76,0,0,1-.663-.292c-.3-.106-.606-.193-.909-.288a3.807,3.807,0,0,1-1.531-.667c-.426-.424-.026-.79.336-1.089a3.378,3.378,0,0,1,1.473-.526q.912-.217,1.826-.426a7.9,7.9,0,0,0,1.342-.446,4.274,4.274,0,0,1,1.32-.384c2.01-1.187,4.067-1.337,5.939-2.369,2.99-.68,3.916-.384,2.026-3.331a93.1,93.1,0,0,0-6.8-9.337c-1.969-3.19-4.853-5.672-7.45-8.308-2.981-3.044-6.787-5.005-10.608-7.346-1.228-.291-2.629.959-3.708,1.339a13.917,13.917,0,0,0-3.812,2.119,16.237,16.237,0,0,0-1.608,1.43c-.192.2-.426.345-.629.528-.172.156-.219.4-.386.562a6.87,6.87,0,0,1-.63.37,6.113,6.113,0,0,0-.455.453c-.36.339-.729.667-1.072,1.024a7.417,7.417,0,0,0-.739.88,9.8,9.8,0,0,1-.487.872,14.722,14.722,0,0,0-2.342,3.894A26.262,26.262,0,0,0,77.162,30.8a6.24,6.24,0,0,1-.412,1.372c-.229.471-.436.952-.628,1.44a32.059,32.059,0,0,0-1.014,3.09,17.442,17.442,0,0,0-.777,3.02c-.175,2.1-.523,4.231-.515,6.332a17.356,17.356,0,0,0,.43,3.772c.247,1.083.378,2.2.624,3.293a36.233,36.233,0,0,0,1.19,4.226c.244.685.652,1.37.843,2.065.1.352.1.71.205,1.069s.225.728.356,1.086a17.4,17.4,0,0,0,3.4,5.672c.531.59,1.1,1.142,1.673,1.694L84.269,70.6l1.188,1.149M67.709,74.286A6.955,6.955,0,0,0,69.917,75c.8.241,1.6.485,2.423.656-4.035-1.9-1.312-4.792-4.36-1.579-.1-.024-.236.13-.271.205m3.858-.3c.444.384,2.02,1.233,2.627.955.519-.238,1.568.254,2.128-.171,2.9-.28,5.353-1.965,8.1-2.575a47.885,47.885,0,0,0-4.188-3.845,8.366,8.366,0,0,0-1.648-2.06c-.208-.3-.557-1.265-.858-.893-.277.181-.567.029-.824,0a4.908,4.908,0,0,0-.824.275,24.988,24.988,0,0,1-4.228.522c-.8.078-.7.19-1.071.839a2.821,2.821,0,0,0-.572,1.148c-.087,1.087-.676,1.821-.319,2.977a7.521,7.521,0,0,0,1.116,2.224,3.972,3.972,0,0,0,.558.6M59.508,69.089a4.254,4.254,0,0,0,.334,2.785c.247.407.8,1.351,1.375.972a5.955,5.955,0,0,0,3.435.85,12.865,12.865,0,0,1,1.4-.222c.407-.016.626.147,1-.148.628-.194,2.62-1.835,1.854-2.644.034-1.107.077-3.4,1.2-4.394a14.632,14.632,0,0,1-4.154-.893c.308.1-1.529,1.12-1.586,1.147-.866.412-1.737.811-2.589,1.251-.454.235-1.878.489-2.137.835l-.021.03a1,1,0,0,0-.115.431m-9.344,3.687c-.047.392.151.145.137.481-.029.693,2.58.534,2.94.45a4.94,4.94,0,0,0,2.411-1.1c.49-.6-.371-.378-.853-.62-1.158-.583-2.278-1.23-3.455-1.795a12.2,12.2,0,0,1-1.771-.928,5.759,5.759,0,0,0-1.64-.954,8.1,8.1,0,0,0-2.506-2.025c-.184-.306-.57-.269-.687-.721A9.445,9.445,0,0,1,43.332,64.4c-.377-.381-1.139-.767-1.593-1.134-.587-.473-.828-.7-1.037.043-.186.663-.579,2.489-.013,3.048.48.474.754,1.064,1.357,1.409a14.97,14.97,0,0,0,1.662.624c1.011.43,1.253,1.336,1.925,2.121a5.711,5.711,0,0,0,2.884.584c.536.22.777.924,1.27,1.03-.051.085.008.04-.1.068.063.48.327.361.481.584M9.313,71.609c-.086.287-.325.2-.618.275a1.136,1.136,0,0,1-.755.378,4.71,4.71,0,0,1-1,.481c-.356.075-.506.708-.858.618-.916,1.2-1.425-.832-.172-1,.752-1.018,2.335-1.12,3.3-1.888a32.582,32.582,0,0,0,6.832-3.536c1.747-.927,2.659-2.406,4.257-3.4,3.432-2.1,7.123-3.954,10.264-5.733.666-.641.809.361.721.858-.856.608-2.179.926-2.918,1.579-2.18,1.114-4.57,2.6-6.9,3.707-1.927,1.26-3.481,2.983-5.046,4.051-1.023.785-2.321.993-3.193,1.888a31.608,31.608,0,0,1-3.6,1.614c.049.164-.208.16-.309.1m48.369.343a6.993,6.993,0,0,0,1.348.407,6.348,6.348,0,0,1-.465-2.918c0-.211.11-.639-.066-.809-.143-.138-.652-.073-.831-.1a4.918,4.918,0,0,1-2.252-.7c-.549-.533-1.284-.811-1.888-1.3-.506.587-1.521-.016-2.094.412-.445.332-1.3-.042-1.325.881-.02.745.718.847,1.244,1.045.994.375,2.017.807,3.02,1.284a32.761,32.761,0,0,1,3.309,1.8M45.427,62.477c-.005.281-.364.639-.241,1-.656.9.264,1.254.893,1.716.205.462.883.624,1.065,1.065a3.1,3.1,0,0,1,1.476.961c.746,1.026.735-1.351,2.2-1.133,1.2-.43,2.329-.073.858-1.2a2.957,2.957,0,0,1,.1-3.88,3.867,3.867,0,0,0-2.128-.756c-.218-.2-.683-.112-1.1-.137.016.372-.381.265-.412.515-.513-.062-2.012.167-2.128.927-.41.16-.312.628-.584.927m8.067-1.2c-1.022-.216-1.225,1.176-1.682,1.648a2.125,2.125,0,0,0,1.442,1.957,4.132,4.132,0,0,0,2.232,1.647c3.041,2.191,6.705.137,9.509-1.579a9.921,9.921,0,0,1-3.089-2.3c-.341-.7-1.091-1.238-1.271-2.128-.446-.621-.049-1.514-.584-2.095-1.436-.541-4.109.613-5.252,1.477-.869.211-1.028.676-1.3,1.373M77.386,64.16a67.419,67.419,0,0,1-3.4-10.264,9.614,9.614,0,0,1-6.625-2.266c-4.548.7-7.713,4.866-5.459,9.406,3.406,4.9,10.1,4.679,15.482,3.124M46.319,59.765c-.923-.251-2.069.066-2.953-.308-1.026-.106-2.075-.193-2.575.926-.467,1.225,2.431,2.333,3.227,3.261.616-1.389.717-3.1,2.3-3.879m-6.042-.309c1.164-1.131-.394-.847-.893-1.751-1.048-1.018-3.19-.146-3.021,1.339.724.276,1.4.637,2.163.858,2.165,1.43.608.3,1.751-.447m8.788-.412c1.033.055,1.84.628,2.644.549,1.008,1.207,2.4-.985,3.6-1.27.374-.228,2.14-.6,1.579-.858a10.394,10.394,0,0,1-5.7-4.668c-.3-.983-.987-1.543-1.751-.584a5.313,5.313,0,0,0-2.128,1.614c-2.287.624-2.888,4.692.138,5.012.009.9,1.015.087,1.613.206M9.793,58.53a13.7,13.7,0,0,0-3.038.713c-.391.119-2.678.761-1.814-.295.451-.55,1.563-.518,2.176-.728,1.854-.637,3.8-.946,5.7-1.444,1.755-.462,3.388-1.183,5.2-1.484,1.668-.278,3.231-.989,4.925-1.157a8.9,8.9,0,0,1,2.712-.789c.352-.132,1.016-.627,1.368-.614.554.02.639.592.371.968-.314.44-.843.3-1.259.471-1.314.553-3.449.8-4.805,1.442-3.142.321-6.367,1.663-9.578,2.472-.437.435-1.336.4-1.957.447m29.523-3.536c-.9.923-.443,1.379.343,1.923a15.786,15.786,0,0,1,2.609,1.476c.915.034,1.815.137,2.678.24.431.034-.005-.371-.1-.447.053-.252-.092-.184-.171-.412-.236.086-.442-.936-.481-1.168.2-.632.306-1.862.893-2.094.739-1.067-.617-.5-1.064-1.063-1.373-.968-2.185-1.088-3.364.24-.564.076-1.143,1.057-1.338,1.3M51.4,50.737a9.314,9.314,0,0,0,3.993,4.889,22.9,22.9,0,0,0,2.358,1.05c4.722,2,.03-.326,5.664-4.84,4.32-1.714,3.184-.206-1.442-4.463.071-.258-.543-.719-.584-1.065-.408-.291-.333-.678-.48-1.167a21.939,21.939,0,0,0-8.171,2.026,3.6,3.6,0,0,0-1.338,3.57m-17.347,4.7c-.083.774,1.435,1.253,2.078,1.319.559.058.907-.49,1.366-.5.531-.006.071-.387.206-.721.132-.624,1.018-1.029-.138-1.167.175.021-.479-.386-.5-.4l-.039-.025a2,2,0,0,0-2.972,1.491m1.109-2.953a4.578,4.578,0,0,0-.893-1.407c.406-.3-.639-.515-.858-.378-.377.008-.3.228-.515.343-.125.05-.317-.012-.275.171-1.295,1.12-1.133,2.181.308,2.644.637.363,1.25-.416,1.511-.79.151-.158,1.079-.567.72-.584m1.923-3.227c-.506-.042-.635.757-1.133.893-.189.292.015.656-.377.789A4.527,4.527,0,0,0,36.6,52.385c.262.049.337.082.378.343a1.945,1.945,0,0,1,.927.652c.225-.064.519.339.858.412a16.675,16.675,0,0,1,3.124-2.3c-.548-.392-.367-1.129-.756-1.613-.2-.71.172-.943-.446-1.167-2.293-.689-1.571-.923-3.6.549m35.737,3.707c1.727.752.517-1.371.48-2.334-.041-1.08-.406-2.207-.52-3.293a13.943,13.943,0,0,1,.084-3.572c.12-.783.486-1.934-.266-2.516-.473-.365-1.121-.4-1.561-.841-.471-.471-.874-1.006-1.325-1.5-.8-.864-1.817-1.747-3.037-1.122a5.482,5.482,0,0,0-3.364,1.957c-.09.214-.6,1.059-.79,1.442A4.907,4.907,0,0,0,63.9,47.579c1.38,1.615,3.411,2.575,4.909,4.051a10.086,10.086,0,0,0,4.017,1.338m-27.841-.24c2.325.56,3.379-1.762,5.389-2.162-.249-2.538,1.545-3.088-1.476-3.776-.739-.373-1.4-1.211-2.265-1.308a5.025,5.025,0,0,0-2.444.9,5.309,5.309,0,0,0-1.47,1.3c-1.615,1.721.291,4.666,2.266,5.046M34.819,49.845c.759-.572,1.188-1.425,2.094-1.682,1.32-.9-.43-.874-.446-2.163-.693-.317-1.6.367-2.3.584-1.409,1.241-1.979,3.027.652,3.261m10.985-6.8c-.56-.435-1.818-.237-2.231-.961-.37,0-.443-.341-.721-.584-.565.314-1.272.1-1.854.412-.437.234-.737.265-.942.7-.055.116.073.711-.23.634-.543-.138-1.167.345-1.505.654-.351.968-1.455,2.391.069,3.021a14.372,14.372,0,0,0,2.814.961c.766-1.831,2.916-3,4.909-3.4a3.128,3.128,0,0,1-.309-1.442M31.935,46.961c.83,0,1.038-1.228,1.751-1.3.293-.379,1.144-.173,1.065-.687-.3-.357-.289-.863-.515-1.2-1.407.364-3,.467-3.536,1.888-1.05.9.411,1.446,1.236,1.3M20.572,44.7c1.642.283,3.379.667,5.149.858.415.045.878.06.938.6.079.711-.555.5-1.013.66l-.051-.175c-1.563-.281-3.157-.685-4.735-.832-1.549-.145-3.127.008-4.681-.045-3.939-.136-7.875-.486-11.817-.571-.443-.009-2.348.074-1.25-.918.371-.336,1.319-.095,1.791-.092.807,0,1.614.024,2.419.071a1.888,1.888,0,0,0,1,.069c.048.116.2.048.275-.034a14.464,14.464,0,0,0,2.644.171,84.741,84.741,0,0,0,9.337.343Zm27.12.274a5.572,5.572,0,0,0,1.736.921c.3.125,1.718.9,1.975.763a27.236,27.236,0,0,1,7.755-2.439c-1.026-.648-1.479-1.84-2.274-2.707a16.4,16.4,0,0,1-2.017-3.027c-.893-1.514-4.209.306-5.184,1-2.378.65-4.054,3.553-1.991,5.492m-12.228-.711a.768.768,0,0,0,.494.547c.409.113.789-.234,1.072-.55a11.692,11.692,0,0,0,1.636-1.888,5.045,5.045,0,0,1-.782-.354,2.638,2.638,0,0,0-.784-.48,1.217,1.217,0,0,0-1.255.565,3.018,3.018,0,0,0-.408,1.4,2.356,2.356,0,0,0,0,.645,1.119,1.119,0,0,0,.028.121m25.239-.9a5.936,5.936,0,0,0,.378-1.476,7.413,7.413,0,0,1,6.042-5.149,23.218,23.218,0,0,0-1.854-1.819c-.257-.9-1.267-1.45-1.407-2.334-.548-1.053-.129-2.012-1.888-1.339-5.991.894-8.939,2.761-5.355,8.582A6.913,6.913,0,0,1,58.4,42.052c.6.764,1.29,1.165,1.854,1.786.639.4.417.16.446-.481m-29.42-.447c.819.631,1.821-.106,2.746-.171.381.171,1.071-1.8,1.716-2.163a2.585,2.585,0,0,1-.309-3.4c-.221.1-2.62,1.614-2.643,1.545.188.576-.447,1.3-1.025,2.015-.649.8-1.227,1.6-.486,2.172m13.01-1.579c1.807,1.787,1.658-.949,2.952-1.545.637-.294,1.162-.944,1.785-1.287.73-.4,1.563-.675,2.326-1.007-1.566-.106-3.595-.054-4.592-1.516-.018-.546-2.074.109-1.888.653-.661.082-.979.747-1.407.926-1.077,1.2-.3,2.991.652,3.776Zm-22.073-2.4c1.074.443,2.243.615,3.327,1.066.288.119,1.139.346,1.255.666a.6.6,0,0,1-.4.715,1.133,1.133,0,0,1-.539-.1,59.2,59.2,0,0,1-9.237-4.024c-1.434-.83-3.408-1.393-4.7-2.609a13.854,13.854,0,0,0-1.5-.878c-1.159-.809-2.169-1.8-3.376-2.542-.315-.194-2.006-.8-2.027-1.182-.092-1.691,2.578.663,2.925.92a41.625,41.625,0,0,0,4.812,3.229c.326.176,2.919,1.314,2.919,1.577,1.32.713,2.954,1.116,4.14,2.034.965.311,1.536.776,2.4,1.133m17.644,2.163c1.859-.344,2.744.066,1.991-2.163-.106-2.122,2.6-2.485.789-3.193-.75-.326-1.68-1.6-1.3-2.541C39.9,33.284,37.7,35.7,36.02,36.628c1.759.26-1,2.123.447,3.364.739.751,2.358,1.629,3.4,1.1m31.484-1.864c.264.266,1.736,1.936,1.917.87.08-1.817,1.161-4.272,1.477-6.249a7.651,7.651,0,0,0,1.477-3.832c-.585.052-1.083-.957-1.3-1.386a9.622,9.622,0,0,0-1.78-2.1c-.367-.38-.726-1.044-1.2-1.152-.728-.166-1.927.383-2.674.5a6.427,6.427,0,0,0-2.436.767,4.581,4.581,0,0,0-1.9,2.335,12.169,12.169,0,0,0-.206,1.78c-.413,1.891,1.172,3.334,2.324,4.569,1.114,1.194,2.447,2.175,3.656,3.28.221.2.438.408.649.621M48.482,31.582a2.124,2.124,0,0,0-.927,1.1c-.912.9-.258,2.289.241,2.986,1.045.986,2.294.452,3.707.79,4.706.854,1.728.073,2.713-2.437-.2-.861,2.336-1.714.824-2.026a24.822,24.822,0,0,1-3.4-2.678,3.164,3.164,0,0,0-2.094,1.2c-.48.169-.758.74-1.065,1.065m47.443,3.948a9.826,9.826,0,0,1-3.3-1.373c-1.568-1.033-2.2-2.84-3.218-4.336A4.784,4.784,0,0,0,89,29.264a.8.8,0,0,1-.278-.7c.149-.647.693-.336,1.138-.448a1.57,1.57,0,0,0,.284-.1c.175-.081.972-.532.876-.764,0-.031.545-.386.608-.443.185-.169.35-.36.519-.545a9.363,9.363,0,0,1,1.251-1.079,6.452,6.452,0,0,1,1.579-1.063,7.748,7.748,0,0,1,1.707-.716,6.753,6.753,0,0,1,3.841.353,20.837,20.837,0,0,1,2.392,1.472c.432.347.954,1.291,1.388,1.5a2.285,2.285,0,0,1,1.335,1.65c.065.915-.794.913-1.275,1.459a28.087,28.087,0,0,1-2.4,2.666,18.582,18.582,0,0,1-2.349,1.8,6.96,6.96,0,0,1-3.681,1.209M46.147,34.6a3.088,3.088,0,0,1,.48-2.643.363.363,0,0,0-.48-.275A2.711,2.711,0,0,1,44.912,29.8c-.984.85-1.975,1.888-2.918,2.609.508.082.391.434.378.824a.745.745,0,0,1-.069.721c.062.053.28.1.137.171-.031.087.382.406.343.55,1.145.827,2.3.307,3.364-.069m-8.663-2.2c.231.522.51,1.22,1.215.923a11.723,11.723,0,0,0,2.356-1.386A42.933,42.933,0,0,0,45,28.475c2.119-2.011,4.119-4.148,6.312-6.081A55.176,55.176,0,0,1,64.192,13.92a11.788,11.788,0,0,0-6.267-1.9,1.754,1.754,0,0,0-1.033.22.67.67,0,0,0-.2.93c.293.337.961.206,1.148.612a.559.559,0,0,1-.312.681,1.63,1.63,0,0,1-.813.095l-3.473-.19a5.521,5.521,0,0,0-2.6.276,1.891,1.891,0,0,0-1.166,2.113c.2.649.885,1.209.695,1.862a1.042,1.042,0,0,1-.894.667,2.924,2.924,0,0,1-1.161-.167,6.808,6.808,0,0,0-2.15-.4,2.084,2.084,0,0,0-1.821,1.029c-.471.965.13,2.28-.541,3.118a2.087,2.087,0,0,1-1.736.593,7.4,7.4,0,0,0-1.9-.011,1.366,1.366,0,0,0-1.159,1.3c.064.664.816,1.181.69,1.836a1.172,1.172,0,0,1-.851.791,10.436,10.436,0,0,0-1.172.333,2.374,2.374,0,0,0-1.033,2.763c.005.019.011.038.017.058a18.783,18.783,0,0,0,1.026,1.884m56.014.981a6.736,6.736,0,0,1,.849.309,12.319,12.319,0,0,0-.654-2.217,9.527,9.527,0,0,1-.124-1.044c-.06-.347-.133-.692-.19-1.039a8.092,8.092,0,0,1,.05-2.355c.064-.5.177-.987-.354-.367-.278.325-.669.54-.937.88a1.741,1.741,0,0,1-.691.663c-.477.249-1.269.658-1.036,1.324a10.819,10.819,0,0,0,1.042,1.65,7.609,7.609,0,0,0,1.614,1.849,2.571,2.571,0,0,0,.431.349m8.615-2.449c.51-.58,1.087-1.065,1.58-1.651.215-.256.555-.484.653-.819.089-.307-.121-.454-.311-.674-.216-.251-.44-.5-.677-.73a20.56,20.56,0,0,0-1.948-1.676c-.2-.153-.565-.217-.68-.465-1-.265-.365.687-.268,1.251A15.968,15.968,0,0,1,100.7,29.6a9.682,9.682,0,0,1,0,1.459,6.207,6.207,0,0,0-.286,1.359,5.783,5.783,0,0,0,1.7-1.48m-46.946-.108a3.724,3.724,0,0,0,1.9.372,14.569,14.569,0,0,0,4.831-1.1c-.336-.784-1.859-1.327-2.541-1.846a3.164,3.164,0,0,1-1.468-2.582c.1-4.661,3.273-5,1.338-5.7a3.334,3.334,0,0,0-1.918.221c-.471.179-.687.486-1.2.487-.4,0-.637-.214-1.1-.066a9.435,9.435,0,0,0-2.041,1.449c-1.19.786-1.959,3.246-1.677,4.677a3.21,3.21,0,0,0,1.515,2.225c.857.463,1.431,1.411,2.36,1.857m-8.917-2.166c.123.212.436.416.171.687-.787.557-.129,1.493.687,1.339,1.547-.068,2.2-2.043,3.776-2.369-.405-.956-1-2.535-.446-3.742a21.966,21.966,0,0,0-3.055,3.09c-.375.056-.819.786-1.133,1M65.1,18.993a8.916,8.916,0,0,0-3.7,1.6,6.309,6.309,0,0,0-2.378,4.6c-.386,1.127.431,1.777,1.231,2.393A7.894,7.894,0,0,0,63.1,29.338c.546.128.767-.016.689-.639,1.723-3.338,4.274-3.809,7.9-4.051a27.425,27.425,0,0,1-2.54-4.84c-.08-.371.251-1.462-.515-1.065-.048.025-.7-.19-.813-.2a4.626,4.626,0,0,0-1.118.094l-.134.023c-.493.09-.983.215-1.47.332m12.049,8.332a15.324,15.324,0,0,1,1.275-2.568A23.347,23.347,0,0,1,80,22.1c.692-1.009,1.648-1.812,2.3-2.841.37-.359.876-.475,1.03-1a30.569,30.569,0,0,0,3.192-2.781c1.909-1.2,4.173-2.186,6.488-3.364-.275.14-2.067-.794-2.424-.916q-1.25-.428-2.528-.77a30.715,30.715,0,0,0-5.244-.941,22.809,22.809,0,0,0-5.432.147c-.5.077-2.211.166-2.526.574-.168.217.109.4.012.611-.14.3-.581.467-.862.634-1.279.755-2.776,1.343-2.967,3-.075.646-.853,1.482-.652,1.956a2.329,2.329,0,0,0-.206,1.442c.071.4-.215.922.1,1.236a6.507,6.507,0,0,0,1.373,3.536c1.057,1.573,1.823,3.433,3.33,4.5,1.295,1.475,1.388,3.159,2.163.206M62.162,18.791a5.5,5.5,0,0,1,2.315-.749c.837-.168,1.7-.228,2.554-.328.384-.045,1.377.034,1.67-.274-.126.132.254.315.378.273a5.719,5.719,0,0,1,.893-3.158,2.981,2.981,0,0,1,1.579-2.575,1.656,1.656,0,0,1,1.064-.755,1.039,1.039,0,0,0,.343-.393c-1.072-.251-3.114,1.167-4.046,1.63-1.8.893-3.588,2.155-5.393,2.917-1.452.613-2.11,1.937-3.776,2.335-.591.328-1.688.687-2.014,1.3a2.075,2.075,0,0,0,.891-.06,2.027,2.027,0,0,1,1.507.476.92.92,0,0,0,.59.153c.506-.051.935-.541,1.447-.787" transform="translate(0 -2.865)"/>
    <path id="Path_174" data-name="Path 174" class="cls-3" d="M178.954,20.914a.687.687,0,0,1-.413-.039c-.474-.239-.491-1.207.148-1.21.2.215.808.4.823.732.013.282-.272.467-.558.517m-.016-11.527a1.9,1.9,0,0,1,1.906,1.194,2.471,2.471,0,0,1-.439,2.321c-1.351.349-.259,3.333-.687,4.36-1.307.62-1.071-1.267-.858-2.06-.857-3.829,1.024-1.733,1.168-4.531-.334-.489-.9-.346-1.339-.412-.548.008-.8.4-1.27.515-.821.674-.3,1.169-.275,1.956-1.071.421-1.041-1.708-.549-2.265a3.368,3.368,0,0,1,2.343-1.077m-10.127,7.483a.8.8,0,0,1-.709-.13c-.215-.158-.535-.7-.305-.954.149-.167.652-.117.863-.154.087-.015.482.682.477.777a.483.483,0,0,1-.325.462m-.18-4.415c-1.021-.939-.084-3.791-1-5.218.321-.489,1.635-.726,1.511-1.545,1.225-.634-.038-2.439-1.011-2.506-.413-.029-1.678.4-1.769.927-.088.513-.82,1.989-1.312.93-.243-.523.486-1.3.789-1.676a2.53,2.53,0,0,1,4.236.2,3.372,3.372,0,0,1-1.241,4.22,10.441,10.441,0,0,1,.241,3.4c-.027.62.546,1.079-.034,1.442-.289.023-.217.626-.412-.171M186.345,10.5c-.743,0-1.228-1.15-.206-1.133a.593.593,0,0,1,.206,1.133M183.461,1.47A2.138,2.138,0,0,1,187.58,2.6c-.388,1.159-1.427,1.563-.789,2.986-.073.618.249,1.241,0,1.751-.328.675-.864-.555-.9-.7-.132-.606-.225-1.225-.314-1.838a1.685,1.685,0,0,1,.113-1.261c.293-.476.731-.619.881-1.222.277-1.106-.457-1.858-1.535-1.328a9.369,9.369,0,0,0-1.03,1.064c-.134.205.06.711-.275.721-.5-.147-.892-1.029-.275-1.3" transform="translate(-57.901 0)"/>
  </g>
</svg>
