<svg xmlns="http://www.w3.org/2000/svg" xmlns:xlink="http://www.w3.org/1999/xlink" width="135" height="79" viewBox="0 0 135 79">
  <defs>
    <style>
      .cls-1 {
        fill: none;
      }

      .cls-2 {
        clip-path: url(#clip-path);
      }

      .cls-3 {
        fill: #fff;
        fill-rule: evenodd;
      }
    </style>
    <clipPath id="clip-path">
      <rect id="Rectangle_148" data-name="Rectangle 148" class="cls-1" width="118.235" height="31.36"/>
    </clipPath>
  </defs>
  <g id="Group_294" data-name="Group 294" transform="translate(-120 -1132)">
    <g id="Group_253" data-name="Group 253" transform="translate(125 1172)">
      <g id="Group_252" data-name="Group 252" class="cls-2" transform="translate(0 0)">
        <path id="Path_175" data-name="Path 175" class="cls-3" d="M172.889,23.279a1.2,1.2,0,0,1,1.677.481c1.143,2.275-3.237.607-1.677-.481m-.433-3.389c-.109-1.112-.111-2.232-.181-3.347a17.95,17.95,0,0,0-.576-3.266c-.284-1.155,1.258-1.226,1.244-2.332,1-1.269,1.819-4.923-.162-5.666a3.418,3.418,0,0,0-2.464.319,2.954,2.954,0,0,0-1.408,2.065,1.776,1.776,0,0,0,.182,1.21c.247.408.995.587.828,1.173-.091.32-.669.419-.934.4-.364-.026-.77-1.067-.867-1.348a4.029,4.029,0,0,1-.175-1.863A3.347,3.347,0,0,1,169.207,4.8c1.8-1.2,4.882-1.283,5.829,1.068a7.179,7.179,0,0,1-.018,4.477,4.373,4.373,0,0,1-.787,1.8c-1.252,1.525-.381,4.3-.227,6.11.043.511.241,1.572-.124,2.017-.418.507-1.059-.064-1.424-.383" transform="translate(-57.155 -1.29)"/>
        <path id="Path_176" data-name="Path 176" class="cls-3" d="M7.188,5.547a1.381,1.381,0,0,1-.3-.337.713.713,0,0,1-.111-.578c.1-.337.672-.476.915-.764.314-.371.563-.8.856-1.187C8.973,2.116,9.723,1.137,10.5,1.7c.942.677-.1,1.781-.757,2.127.685.2,2.149-.882,2.766-.721,1.259.171,2.4,6.128,1.031,6.332-1.4.514-.871-.792-.759-1.833-.34-1.911-.182-3.826-2.549-2.111.179-.13.609.341.68.473a1.926,1.926,0,0,1,.1.9c.008,1.992.117,3.97.2,5.959,1.195.03,2.526.966,3.5,1.584.513.323,3.516,2.126,2.075,2.768-1.04.465-2.013-1.228-2.753-1.69-.274-.17-2.874-1.557-2.824-1.773-.54,2.342,1.1,6.973-.648,8.611-.369.345-1.114-1.038-1.052-1.359.028-.143.181-.235.223-.38a3.39,3.39,0,0,0,.035-.724c.088-1.855,0-3.681.022-5.536.018-1.471.062-2.928-.011-4.4-.04-.818-.082-1.63-.144-2.445a2.578,2.578,0,0,1,.384-1.99c-.034-.03-.065-.061-.055-.11-.046.2-.935.331-1.1.371a1.921,1.921,0,0,1-1.677-.205M3.565,18.713c-1.051-.595-.969-2.005-.888-3.057.064-.831.6-3.2-.113-3.826-.485-.427-1.091.3-1.6.327s-1.146-.706-.914-1.182c.106-.216.5-.439.658-.693.175-.283.315-.731.689-.792.566-.206,1.091-.082,1.355-.833.138-.392.47-.809.575-1.2.091-.339.018-.837.222-1.154a1.35,1.35,0,0,1,1.16-.478c.784.308.517.995.207,1.566-.1.19-.14.507-.264.714-.106.177-.378.306-.436.5a6.487,6.487,0,0,1-.976,2A9.376,9.376,0,0,1,4,15.1a1.916,1.916,0,0,1,0,1.389c.08.568.451,2.032-.433,2.222m4.121-2.167c-1.695-.288-.437-1.9.054-2.888.8-.271,1.91.611,1.247,1.444-.682.034-.77,1.177-1.3,1.444" transform="translate(0 -0.496)"/>
        <path id="Path_177" data-name="Path 177" class="cls-3" d="M109.962,6.545c.751-.5,2.712,0,3.8-.556.664-.337-.165-3.51-.208-4.107-.035-.471-.172-1.472.3-1.794a.744.744,0,0,1,.724.018c.517.2.573.461.575.982,0,1.208-.743,5.755,1.7,4.568.843-.408,1.568,1.116.677,1.593-.256.137-2.238.125-2.248.407a49.651,49.651,0,0,0,1.247,14.055c-3.116,2.73-2.739-11.243-2.766-13.055.319-2.5-4.016.83-3.795-2.111" transform="translate(-37.428 0)"/>
        <path id="Path_178" data-name="Path 178" class="cls-3" d="M101.211,10.384c-.236.76-1.925.579-1.993-.187-.037-.418.621-.355.866-.474.538-.264.681-.82,1.078-1.216s1.083-.493,1.4-1.012c.539-.349.764-1.068,1.133-1.571.218-.3.584-.449.771-.774.29-.5.261-1.176,1-.989.3.076,1.183.568.841,1-.934,1.183-1.894,2.169-2.928,3.5.261-.335,1.1,1.184,1.147,1.3a8.284,8.284,0,0,1,.5,2.577c.059.979.191,3.661-1,4.128-1.374.539-.98-1.256-.856-1.924a14.886,14.886,0,0,0,.281-2.757c-.007-1.648-.655-2.934-2.245-1.6" transform="translate(-33.774 -1.338)"/>
        <path id="Path_179" data-name="Path 179" class="cls-3" d="M50.552,32.806c-.483-.053-.2-.672.271-.389-.08.238.192.218.325.222a2.154,2.154,0,0,0,1.844.333c2.592-1.894-3.169-23.632.379-19.222.861,6.2,1.95,12.647,1.735,19.111-.035,1.043-1.288,1.429-2.124,1.46a1.981,1.981,0,0,1-1.332-.414,4.757,4.757,0,0,1-.764-.464c-.036-.035-.445-.649-.334-.637m-7.1-8.833c-.439-3.46.211-6.989-1.627-9.611-1.792.3-7.988-.137-7.049,2.555.14,2.542.013,2.763,1.735,2.945,2.411,1.083,4.434-1.335,5.8.222.65,2.449-3.311-1.261-1.951,4.834,1.226.132,1.045-.137.813-1.167.588-.68,1.392.043,1.923.441.361.271-.289,1.756-.565,1.956a3.539,3.539,0,0,1-2.062.27c-4.676,2.081-3.992-1.809-4.012-5.056-1.751-.918-1.242.535-1.193,2.223-.221,1.6.432,4.469-.379,5.778-2.318-.059-.642-3.82-1.031-5.444a28.47,28.47,0,0,0-.379-6.778,9.576,9.576,0,0,1-.333-1.868c.045-1.033,1.16-.91,1.863-1.1.529-.143,1.026-.452,1.549-.628a7.984,7.984,0,0,1,1.376-.164c1.523-.227,3.066-.731,4.5.127a4.359,4.359,0,0,1,1.834,3.522c.259,3.581.651,7.174.977,10.61a7.177,7.177,0,0,1,.216,3.055c-.045.508-1.074.093-1.235-.057-.407-.376-.359-.85-.337-1.381a22.545,22.545,0,0,0-.433-5.284m-4.772-2.5c-2.812-.293-.619-.144-.651,2,.441,4.221.857-.153.651-2m8.4-1.5c-.807-5.28,4.279,3.887,1.193,4.389-1.929-.231.055-3.079-1.193-4.389m-9.759-1.5c-.369-.6-1.894-1.139-1.084-1.944,1.333-.305,2.843,2.726,3.145.389.6-.378.124-1.6,1.247-1.5,1.188.7.456,1.7-.109,2.667-.588,2.507-1.491,1.189-3.2.389" transform="translate(-11.28 -4.222)"/>
        <path id="Path_180" data-name="Path 180" class="cls-3" d="M81.183,37.033c-1.839-1.424-1.623-4.139-1.464-6.444-2.6,4.95-4.518,3.962-1.572-.667-.672.831-2.387.571-1.952-.666-.388-1.241-1.83-2.727-1.3-3.889,1.222.558,1.033-.516,2.223-.5,2.41-1.162,6.649-.582,4.066,2.611-.99.709.212.545.434,1.222a10.577,10.577,0,0,0-.27,2.555c-.252,1.908-.576,5.561,2.331,4.777,1.9.3,4.388-.173,3.361-2.778.946-.245,1.791.952,1.518,1.889.607,3.278-5.68,2.457-7.374,1.889M69.417,30.978c1.145-.143,1.349,1.011,2.386.611.434-.159,1.695.737,2.115,1.056,1.228,1.715-.9,4.414-2.711,3.111C70.47,37.285,69.549,35.4,69.2,34.7c.338-1.255-.323-2.6.216-3.722M71.8,34.811c.995-.132,1.327-2.209.054-1.834-1.264-.423-1.275,1.962-.054,1.834m-2.6-5.722c-.531-1.925,3.276-.733,4.338-.222-.032.934-.937,1.1-1.572.722a2.7,2.7,0,0,1-2.765-.5m10.736-2.555c2.038-1.812-2.855-.011-3.416,0,.534,1.412.41,2.625,2.169,1.444.662.035.688-.431.921-.944.2-.23.52-.128.325-.5m-11.224.333c-1.21-1.1,4.161-.837,4.066.112.19,1.113-1.217.433-1.9.556-.756.372-2.1.189-2.169-.667M71.423,23.7c.007.654,2.225.344,2.169,1.445-.569,1.084-1.9.009-2.873.278-1.293.56-6.027.106-3.8-1.334.315.1.837.42,1.3.111.345-.228,1.082.3,1.526-.109.521-.487-.264-1.622-.483-2.156-.034-.083.095-.3.086-.408-.013-.149-.175-.313-.223-.458s-.19-.4-.09-.567c.215-.35,1.028,0,1.3.087A14.215,14.215,0,0,0,71.423,23.7m4.229-4.389c1.935-.3,1.716,2.771,2.982,2.667.628,1.339,1.886-1.7,1.952-2.334.338-.886,1.9-.535,1.844.334-.315.756-4.175,6.242-3.417,3-1.732.744-3.291-2-3.361-3.666" transform="translate(-22.58 -6.201)"/>
        <path id="Path_181" data-name="Path 181" class="cls-3" d="M141.348,18.863c1.578.417.253,1.435.271,2.444,1.048.013,1.39-.93,2.223-1.167,2.632.939-1.566,4.962-2.06,6.778,1.112-.846,4.735-.549,4.175-2.111-.123-.344.069-.824.423-.854.394-.034.886.566,1.118.816a10.279,10.279,0,0,1,2.2,3.56c.192.576.181,1.254-.561,1.173-.929-.1-.924-.953-1.247-1.634a2.3,2.3,0,0,0-.586-.886c-.815-.609-1.6.281-2.34.481a9.654,9.654,0,0,0-1.9.583,8.909,8.909,0,0,1-1.868.816c-.716.162-.939-.076-1.484-.443a1.038,1.038,0,0,1,.055-1.667c1.121-1.148,1.665-2.678,2.548-4.111-5.187,2.225-1.4-5.208-.976-3.778M139.66,8.78a7.417,7.417,0,0,1,.654.8c.188.4.09.193-.026.548a3.572,3.572,0,0,0-.3,1.117c-.011.6.282,1.633,1.086,1.337.952-.349,1.84.824,1.627-.889-.867.458-1.791.408-2.114-.667-.206-.908,1.47-.512,1.789-1.166-.24-1.408.338-2.121,1.465-.833.138.159.077.439.159.624.113.256.4.422.469.689.083.324-.132.639-.157.956a14.175,14.175,0,0,0,.125,2.12,8.826,8.826,0,0,1,1.737.86c.366.239,1.311,1.141,1.014,1.606-.759,1.188-1.635-1.218-2.643-.69-.387.809.716,4.085-1.193,3.778a3.014,3.014,0,0,1-.325-2.666,1.639,1.639,0,0,1-.163-1.223c-.433.383-.541,1.482-1.41,1.611-.077-.5-.429-.6-.271-1-.466-.114.441-1.305.379-1.667-1.115-.226-1.221.594-1.03,1.611.862,2.942-1.324,5.325-1.518.833.112-.02.1-.013.162-.055-.466-.243-.036-.563-.162-1.111-.637.255-1.01,1.969-1.789.556a5.972,5.972,0,0,1,1.247-3.222c.164-.112.178.028.271-.167-.231-1.99-.324-1.3-1.844-1.166.4,2.536-.256,5.558-.271,8.166-.353,1.118.79,2.608-.379,3-2.206-.4-1.049-5.336-.706-6.944-.236-2.451.182-6.191-.921-8.167-1.31-2.542,3.217-1.227,4.989-1.667,1.285.232,2.746-.194,4.012-.222.9.072,1.625,1.22.379,1.667a5.045,5.045,0,0,1-1.426-.039c-1.7-.033-3.389.022-5.085.066a1.4,1.4,0,0,0-1.045.321,1.263,1.263,0,0,0-.012,1.352,1.608,1.608,0,0,0,.67.785.745.745,0,0,0,.936-.18c.181-.263.137-.646.342-.889a.689.689,0,0,1,.69-.18.852.852,0,0,1,.585.4m.225-3.472c-1.353-.31-.43-1.911-.759-3.389C141.32.9,140.98,4.3,139.885,5.308" transform="translate(-45.747 -0.561)"/>
      </g>
    </g>
    <rect id="Rectangle_174" data-name="Rectangle 174" class="cls-1" width="135" height="79" transform="translate(120 1132)"/>
  </g>
</svg>
