<svg xmlns="http://www.w3.org/2000/svg" xmlns:xlink="http://www.w3.org/1999/xlink" width="111.135" height="28.861" viewBox="0 0 111.135 28.861">
  <defs>
    <style>
      .cls-1, .cls-4 {
        fill: none;
      }

      .cls-2 {
        clip-path: url(#clip-path);
      }

      .cls-3 {
        fill: #121212;
        fill-rule: evenodd;
      }

      .cls-4 {
        stroke: #121212;
        stroke-linecap: round;
        stroke-linejoin: round;
        stroke-width: 0.2px;
      }
    </style>
    <clipPath id="clip-path">
      <rect id="Rectangle_52" data-name="Rectangle 52" class="cls-1" width="111.135" height="28.861"/>
    </clipPath>
  </defs>
  <g id="Group_91" data-name="Group 91" transform="translate(0 0)">
    <g id="Group_90" data-name="Group 90" class="cls-2" transform="translate(0 0)">
      <path id="Path_107" data-name="Path 107" class="cls-3" d="M172.684,21.765a1.14,1.14,0,0,1,1.574.44c1.074,2.085-3.039.556-1.574-.44m-.408-3.105c-.1-1.019-.1-2.046-.169-3.067a16.094,16.094,0,0,0-.541-2.992c-.266-1.058,1.182-1.123,1.168-2.137.935-1.162,1.709-4.512-.152-5.192a3.277,3.277,0,0,0-2.312.292,2.7,2.7,0,0,0-1.322,1.893,1.593,1.593,0,0,0,.171,1.109c.232.373.933.538.777,1.075-.085.293-.628.384-.877.365-.341-.024-.723-.978-.813-1.236a3.616,3.616,0,0,1-.165-1.707,3.048,3.048,0,0,1,1.187-2.228c1.685-1.1,4.583-1.175,5.473.979a6.433,6.433,0,0,1-.017,4.1,3.96,3.96,0,0,1-.739,1.647c-1.176,1.4-.357,3.939-.213,5.6.04.468.226,1.44-.117,1.848-.391.464-.994-.059-1.337-.351" transform="translate(-63.959 -1.554)"/>
      <path id="Path_108" data-name="Path 108" class="cls-4" d="M172.684,21.765a1.14,1.14,0,0,1,1.574.44C175.332,24.291,171.22,22.762,172.684,21.765Zm-.408-3.105c-.1-1.019-.1-2.046-.169-3.067a16.094,16.094,0,0,0-.541-2.992c-.266-1.058,1.182-1.123,1.168-2.137.935-1.162,1.709-4.512-.152-5.192a3.277,3.277,0,0,0-2.312.292,2.7,2.7,0,0,0-1.322,1.893,1.593,1.593,0,0,0,.171,1.109c.232.373.933.538.777,1.075-.085.293-.628.384-.877.365-.341-.024-.723-.978-.813-1.236a3.616,3.616,0,0,1-.165-1.707,3.048,3.048,0,0,1,1.187-2.228c1.685-1.1,4.583-1.175,5.473.979a6.433,6.433,0,0,1-.017,4.1,3.96,3.96,0,0,1-.739,1.647c-1.176,1.4-.357,3.939-.213,5.6.04.468.226,1.44-.117,1.848C173.222,19.475,172.62,18.952,172.277,18.66Z" transform="translate(-63.959 -1.554)"/>
      <path id="Path_109" data-name="Path 109" class="cls-3" d="M6.849,5.311A1.278,1.278,0,0,1,6.566,5a.641.641,0,0,1-.1-.53c.094-.309.63-.437.859-.7.295-.339.529-.732.8-1.087.4-.518,1.1-1.414,1.834-.9.884.62-.094,1.632-.71,1.95.642.183,2.018-.808,2.6-.661,1.182.157,2.255,5.616.968,5.8-1.31.471-.818-.726-.713-1.68-.319-1.751-.17-3.506-2.393-1.935.169-.12.572.312.638.434a1.71,1.71,0,0,1,.092.826c.008,1.825.11,3.638.186,5.461a7.593,7.593,0,0,1,3.288,1.452c.48.3,3.3,1.948,1.948,2.537-.978.425-1.891-1.125-2.586-1.549a16.52,16.52,0,0,1-2.651-1.625c-.508,2.146,1.034,6.39-.609,7.89-.347.316-1.046-.951-.988-1.245.026-.131.17-.216.21-.348a3.072,3.072,0,0,0,.032-.664c.082-1.7,0-3.373.022-5.073.017-1.348.058-2.683-.011-4.031-.038-.75-.077-1.494-.135-2.241A2.316,2.316,0,0,1,9.5,5.26c-.032-.027-.061-.056-.051-.1-.043.18-.879.3-1.029.34a1.84,1.84,0,0,1-1.574-.188m-3.4,12.065c-.987-.545-.91-1.837-.834-2.8.06-.761.564-2.929-.106-3.506-.455-.391-1.024.275-1.5.3s-1.076-.647-.858-1.083c.1-.2.472-.4.617-.635.164-.259.3-.669.647-.726.531-.189,1.024-.076,1.272-.763.129-.359.441-.741.54-1.1.085-.31.017-.767.208-1.057a1.283,1.283,0,0,1,1.089-.438c.737.282.486.912.194,1.435-.1.174-.131.464-.248.655-.1.162-.355.281-.409.456a5.887,5.887,0,0,1-.916,1.833,8.409,8.409,0,0,1,.713,4.123,1.717,1.717,0,0,1,0,1.273c.075.521.424,1.862-.407,2.036m3.869-1.985c-1.591-.264-.411-1.741.051-2.647.748-.248,1.793.56,1.171,1.323-.64.032-.724,1.078-1.222,1.323" transform="translate(-0.038 -0.62)"/>
      <path id="Path_110" data-name="Path 110" class="cls-4" d="M6.849,5.311A1.278,1.278,0,0,1,6.566,5a.641.641,0,0,1-.1-.53c.094-.309.63-.437.859-.7.295-.339.529-.732.8-1.087.4-.518,1.1-1.414,1.834-.9.884.62-.094,1.632-.71,1.95.642.183,2.018-.808,2.6-.661,1.182.157,2.255,5.616.968,5.8-1.31.471-.818-.726-.713-1.68-.319-1.751-.17-3.506-2.393-1.935.169-.12.572.312.638.434a1.71,1.71,0,0,1,.092.826c.008,1.825.11,3.638.186,5.461a7.593,7.593,0,0,1,3.288,1.452c.48.3,3.3,1.948,1.948,2.537-.978.425-1.891-1.125-2.586-1.549a16.52,16.52,0,0,1-2.651-1.625c-.508,2.146,1.034,6.39-.609,7.89-.347.316-1.046-.951-.988-1.245.026-.131.17-.216.21-.348a3.072,3.072,0,0,0,.032-.664c.082-1.7,0-3.373.022-5.073.017-1.348.058-2.683-.011-4.031-.038-.75-.077-1.494-.135-2.241A2.316,2.316,0,0,1,9.5,5.26c-.032-.027-.061-.056-.051-.1-.043.18-.879.3-1.029.34A1.84,1.84,0,0,1,6.849,5.311Zm-3.4,12.065c-.987-.545-.91-1.837-.834-2.8.06-.761.564-2.929-.106-3.506-.455-.391-1.024.275-1.5.3s-1.076-.647-.858-1.083c.1-.2.472-.4.617-.635.164-.259.3-.669.647-.726.531-.189,1.024-.076,1.272-.763.129-.359.441-.741.54-1.1.085-.31.017-.767.208-1.057a1.283,1.283,0,0,1,1.089-.438c.737.282.486.912.194,1.435-.1.174-.131.464-.248.655-.1.162-.355.281-.409.456a5.887,5.887,0,0,1-.916,1.833,8.409,8.409,0,0,1,.713,4.123,1.717,1.717,0,0,1,0,1.273C3.928,15.861,4.277,17.2,3.446,17.376Zm3.869-1.985c-1.591-.264-.411-1.741.051-2.647.748-.248,1.793.56,1.171,1.323C7.9,14.1,7.813,15.145,7.315,15.391Z" transform="translate(-0.038 -0.62)"/>
      <path id="Path_111" data-name="Path 111" class="cls-3" d="M110.061,6.1c.705-.461,2.546,0,3.563-.509.623-.309-.155-3.217-.2-3.763-.033-.432-.162-1.349.279-1.644a.714.714,0,0,1,.679.016c.486.184.538.422.539.9,0,1.107-.7,5.274,1.6,4.186.791-.374,1.472,1.022.636,1.46-.24.126-2.1.115-2.111.373A44.442,44.442,0,0,0,116.221,20c-2.926,2.5-2.571-10.3-2.6-11.963.3-2.291-3.771.76-3.563-1.935" transform="translate(-41.898 -0.038)"/>
      <path id="Path_112" data-name="Path 112" class="cls-4" d="M110.061,6.1c.705-.461,2.546,0,3.563-.509.623-.309-.155-3.217-.2-3.763-.033-.432-.162-1.349.279-1.644a.714.714,0,0,1,.679.016c.486.184.538.422.539.9,0,1.107-.7,5.274,1.6,4.186.791-.374,1.472,1.022.636,1.46-.24.126-2.1.115-2.111.373A44.442,44.442,0,0,0,116.221,20c-2.926,2.5-2.571-10.3-2.6-11.963C113.923,5.742,109.854,8.793,110.061,6.1Z" transform="translate(-41.898 -0.038)"/>
      <path id="Path_113" data-name="Path 113" class="cls-3" d="M101.189,9.96c-.222.7-1.807.531-1.871-.172-.035-.383.583-.325.813-.435.5-.242.64-.751,1.012-1.114s1.017-.451,1.318-.927c.506-.32.717-.978,1.064-1.44.2-.272.549-.411.724-.709.272-.462.245-1.078.935-.906.282.07,1.11.52.79.917-.877,1.084-1.779,1.988-2.749,3.207.244-.307,1.034,1.085,1.077,1.192a7.448,7.448,0,0,1,.472,2.361c.055.9.18,3.355-.937,3.783-1.29.494-.92-1.151-.8-1.763a13.324,13.324,0,0,0,.264-2.527c-.007-1.51-.615-2.689-2.107-1.468" transform="translate(-37.81 -1.61)"/>
      <path id="Path_114" data-name="Path 114" class="cls-4" d="M101.189,9.96c-.222.7-1.807.531-1.871-.172-.035-.383.583-.325.813-.435.5-.242.64-.751,1.012-1.114s1.017-.451,1.318-.927c.506-.32.717-.978,1.064-1.44.2-.272.549-.411.724-.709.272-.462.245-1.078.935-.906.282.07,1.11.52.79.917-.877,1.084-1.779,1.988-2.749,3.207.244-.307,1.034,1.085,1.077,1.192a7.448,7.448,0,0,1,.472,2.361c.055.9.18,3.355-.937,3.783-1.29.494-.92-1.151-.8-1.763a13.324,13.324,0,0,0,.264-2.527C103.289,9.918,102.682,8.739,101.189,9.96Z" transform="translate(-37.81 -1.61)"/>
      <path id="Path_115" data-name="Path 115" class="cls-3" d="M49.588,31.251c-.454-.048-.191-.616.255-.356-.075.218.18.2.305.2a2.063,2.063,0,0,0,1.731.305c2.433-1.736-2.975-21.655.356-17.614.809,5.681,1.831,11.589,1.629,17.513-.033.956-1.209,1.309-1.994,1.338a1.888,1.888,0,0,1-1.25-.38,4.44,4.44,0,0,1-.718-.425c-.034-.032-.418-.595-.314-.583M42.92,23.157c-.412-3.171.2-6.4-1.527-8.807-1.683.278-7.5-.126-6.618,2.342.131,2.329.012,2.532,1.629,2.7,2.264.993,4.164-1.223,5.447.2.611,2.244-3.109-1.156-1.832,4.43,1.151.121.981-.125.763-1.07.552-.623,1.307.04,1.805.4.339.248-.271,1.609-.531,1.792a3.4,3.4,0,0,1-1.936.248c-4.39,1.907-3.748-1.658-3.767-4.633-1.644-.841-1.166.49-1.12,2.037-.207,1.468.406,4.1-.355,5.294-2.177-.054-.6-3.5-.968-4.989a25.473,25.473,0,0,0-.356-6.211,8.585,8.585,0,0,1-.313-1.712c.042-.947,1.089-.834,1.749-1.008.5-.131.964-.414,1.454-.575a7.672,7.672,0,0,1,1.292-.15c1.43-.208,2.879-.669,4.225.116a3.968,3.968,0,0,1,1.722,3.227c.243,3.281.611,6.574.917,9.723a6.425,6.425,0,0,1,.2,2.8c-.042.466-1.009.085-1.16-.052-.382-.345-.337-.778-.316-1.265a20.176,20.176,0,0,0-.407-4.842m-4.48-2.291c-2.64-.269-.582-.132-.611,1.833.414,3.868.8-.141.611-1.833m7.89-1.375c-.758-4.839,4.018,3.562,1.12,4.022-1.811-.212.051-2.822-1.12-4.022m-9.163-1.374c-.346-.547-1.778-1.044-1.018-1.782,1.252-.28,2.669,2.5,2.953.356.567-.347.116-1.466,1.171-1.374,1.115.646.428,1.554-.1,2.444-.552,2.3-1.4,1.09-3,.356" transform="translate(-12.654 -4.997)"/>
      <path id="Path_116" data-name="Path 116" class="cls-4" d="M49.588,31.251c-.454-.048-.191-.616.255-.356-.075.218.18.2.305.2a2.063,2.063,0,0,0,1.731.305c2.433-1.736-2.975-21.655.356-17.614.809,5.681,1.831,11.589,1.629,17.513-.033.956-1.209,1.309-1.994,1.338a1.888,1.888,0,0,1-1.25-.38,4.44,4.44,0,0,1-.718-.425C49.868,31.8,49.484,31.24,49.588,31.251ZM42.92,23.157c-.412-3.171.2-6.4-1.527-8.807-1.683.278-7.5-.126-6.618,2.342.131,2.329.012,2.532,1.629,2.7,2.264.993,4.164-1.223,5.447.2.611,2.244-3.109-1.156-1.832,4.43,1.151.121.981-.125.763-1.07.552-.623,1.307.04,1.805.4.339.248-.271,1.609-.531,1.792a3.4,3.4,0,0,1-1.936.248c-4.39,1.907-3.748-1.658-3.767-4.633-1.644-.841-1.166.49-1.12,2.037-.207,1.468.406,4.1-.355,5.294-2.177-.054-.6-3.5-.968-4.989a25.473,25.473,0,0,0-.356-6.211,8.585,8.585,0,0,1-.313-1.712c.042-.947,1.089-.834,1.749-1.008.5-.131.964-.414,1.454-.575a7.672,7.672,0,0,1,1.292-.15c1.43-.208,2.879-.669,4.225.116a3.968,3.968,0,0,1,1.722,3.227c.243,3.281.611,6.574.917,9.723a6.425,6.425,0,0,1,.2,2.8c-.042.466-1.009.085-1.16-.052-.382-.345-.337-.778-.316-1.265A20.176,20.176,0,0,0,42.92,23.157Zm-4.48-2.291c-2.64-.269-.582-.132-.611,1.833C38.243,26.567,38.633,22.558,38.44,20.866Zm7.89-1.375c-.758-4.839,4.018,3.562,1.12,4.022C45.64,23.3,47.5,20.692,46.33,19.492Zm-9.163-1.374c-.346-.547-1.778-1.044-1.018-1.782,1.252-.28,2.669,2.5,2.953.356.567-.347.116-1.466,1.171-1.374,1.115.646.428,1.554-.1,2.444C39.618,20.058,38.771,18.851,37.167,18.117Z" transform="translate(-12.654 -4.997)"/>
      <path id="Path_117" data-name="Path 117" class="cls-3" d="M80.375,35.635c-1.727-1.3-1.523-3.793-1.375-5.905-2.443,4.536-4.242,3.631-1.476-.611-.631.761-2.241.523-1.833-.611-.365-1.137-1.719-2.5-1.222-3.563,1.148.512.97-.473,2.087-.458,2.263-1.066,6.243-.533,3.818,2.393-.93.65.2.5.408,1.12a9.47,9.47,0,0,0-.254,2.342c-.237,1.748-.541,5.1,2.189,4.378,1.788.275,4.12-.159,3.156-2.545.888-.225,1.682.872,1.426,1.731.57,3-5.333,2.252-6.923,1.731M69.328,30.087c1.075-.131,1.266.926,2.24.56.408-.146,1.591.675,1.985.967,1.153,1.571-.841,4.045-2.545,2.851-.691,1.4-1.556-.329-1.883-.967.317-1.15-.3-2.379.2-3.411m2.24,3.513c.934-.121,1.246-2.024.051-1.68-1.187-.388-1.2,1.8-.051,1.68m-2.444-5.244c-.5-1.764,3.075-.672,4.073-.2-.03.856-.88,1.006-1.476.662a2.58,2.58,0,0,1-2.6-.458M79.2,26.014c1.914-1.66-2.681-.01-3.207,0,.5,1.294.385,2.405,2.036,1.323.622.032.647-.394.866-.865.19-.211.489-.118.305-.458m-10.538.305c-1.136-1.008,3.907-.767,3.818.1.178,1.02-1.143.4-1.782.509-.71.341-1.971.173-2.036-.611m2.545-2.9c.006.6,2.088.315,2.036,1.324-.534.993-1.779.008-2.7.255-1.214.513-5.659.1-3.564-1.222.3.094.786.385,1.222.1.324-.209,1.016.279,1.433-.1.489-.446-.248-1.486-.453-1.976-.032-.076.089-.271.081-.373-.012-.136-.164-.287-.209-.419s-.178-.371-.085-.52c.2-.321.965,0,1.219.08a12.819,12.819,0,0,0,1.018,2.851M75.183,19.4c1.816-.272,1.611,2.539,2.8,2.444.59,1.227,1.771-1.556,1.833-2.138.318-.812,1.782-.49,1.732.306-.3.693-3.92,5.72-3.208,2.748-1.626.682-3.09-1.829-3.156-3.36" transform="translate(-25.291 -7.32)"/>
      <path id="Path_118" data-name="Path 118" class="cls-4" d="M80.375,35.635c-1.727-1.3-1.523-3.793-1.375-5.905-2.443,4.536-4.242,3.631-1.476-.611-.631.761-2.241.523-1.833-.611-.365-1.137-1.719-2.5-1.222-3.563,1.148.512.97-.473,2.087-.458,2.263-1.066,6.243-.533,3.818,2.393-.93.65.2.5.408,1.12a9.47,9.47,0,0,0-.254,2.342c-.237,1.748-.541,5.1,2.189,4.378,1.788.275,4.12-.159,3.156-2.545.888-.225,1.682.872,1.426,1.731C87.869,36.909,81.966,36.156,80.375,35.635ZM69.328,30.087c1.075-.131,1.266.926,2.24.56.408-.146,1.591.675,1.985.967,1.153,1.571-.841,4.045-2.545,2.851-.691,1.4-1.556-.329-1.883-.967C69.442,32.348,68.822,31.119,69.328,30.087Zm2.24,3.513c.934-.121,1.246-2.024.051-1.68C70.432,31.531,70.422,33.717,71.568,33.6Zm-2.444-5.244c-.5-1.764,3.075-.672,4.073-.2-.03.856-.88,1.006-1.476.662A2.58,2.58,0,0,1,69.125,28.356ZM79.2,26.014c1.914-1.66-2.681-.01-3.207,0,.5,1.294.385,2.405,2.036,1.323.622.032.647-.394.866-.865C79.089,26.261,79.388,26.355,79.2,26.014Zm-10.538.305c-1.136-1.008,3.907-.767,3.818.1.178,1.02-1.143.4-1.782.509C69.993,27.272,68.731,27.1,68.666,26.319Zm2.545-2.9c.006.6,2.088.315,2.036,1.324-.534.993-1.779.008-2.7.255-1.214.513-5.659.1-3.564-1.222.3.094.786.385,1.222.1.324-.209,1.016.279,1.433-.1.489-.446-.248-1.486-.453-1.976-.032-.076.089-.271.081-.373-.012-.136-.164-.287-.209-.419s-.178-.371-.085-.52c.2-.321.965,0,1.219.08A12.819,12.819,0,0,0,71.212,23.418ZM75.183,19.4c1.816-.272,1.611,2.539,2.8,2.444.59,1.227,1.771-1.556,1.833-2.138.318-.812,1.782-.49,1.732.306-.3.693-3.92,5.72-3.208,2.748C76.712,23.438,75.248,20.927,75.183,19.4Z" transform="translate(-25.291 -7.32)"/>
      <path id="Path_119" data-name="Path 119" class="cls-3" d="M141.023,17.53c1.481.382.237,1.315.255,2.24.984.012,1.305-.852,2.087-1.07,2.471.86-1.47,4.547-1.934,6.211,1.044-.775,4.445-.5,3.92-1.934a.584.584,0,0,1,.4-.783c.37-.031.832.518,1.05.747a9.386,9.386,0,0,1,2.069,3.262c.18.528.17,1.149-.526,1.075-.873-.094-.868-.873-1.17-1.5a2.1,2.1,0,0,0-.55-.812c-.765-.558-1.5.258-2.2.44a9.229,9.229,0,0,0-1.779.534,8.472,8.472,0,0,1-1.754.747c-.672.148-.881-.069-1.393-.406-.65-.428-.347-1.163.051-1.527a20.213,20.213,0,0,0,2.392-3.767c-4.87,2.039-1.319-4.772-.917-3.462m-1.585-9.24c.17.246.489.473.615.736.176.368.084.177-.025.5a3.21,3.21,0,0,0-.278,1.024c-.011.548.265,1.5,1.019,1.226.894-.32,1.727.755,1.527-.814-.814.42-1.681.373-1.985-.611-.194-.832,1.38-.469,1.68-1.069-.225-1.29.317-1.943,1.375-.763.129.146.072.4.15.572.106.235.375.386.44.631.078.3-.124.585-.147.876a12.677,12.677,0,0,0,.118,1.943,8.371,8.371,0,0,1,1.631.788c.344.219,1.231,1.047.952,1.472-.712,1.089-1.535-1.116-2.482-.632-.364.741.672,3.744-1.12,3.462a2.706,2.706,0,0,1-.305-2.443,1.47,1.47,0,0,1-.153-1.12c-.407.351-.508,1.358-1.323,1.476-.072-.455-.4-.552-.255-.916-.437-.1.414-1.2.356-1.527-1.047-.207-1.146.544-.967,1.476.809,2.7-1.243,4.879-1.426.763.105-.019.1-.012.152-.051-.438-.223-.033-.516-.152-1.018-.6.234-.949,1.8-1.68.509a5.4,5.4,0,0,1,1.171-2.952c.154-.1.167.026.255-.153-.217-1.823-.3-1.187-1.731-1.069.377,2.324-.24,5.093-.255,7.483-.331,1.025.742,2.39-.356,2.749-2.071-.365-.985-4.89-.663-6.363-.222-2.246.171-5.673-.865-7.484-1.23-2.33,3.02-1.124,4.684-1.527a19.894,19.894,0,0,0,3.767-.2c.848.066,1.526,1.118.356,1.527a4.852,4.852,0,0,1-1.339-.036c-1.593-.03-3.182.02-4.775.061a1.335,1.335,0,0,0-.982.294,1.134,1.134,0,0,0-.011,1.239,1.484,1.484,0,0,0,.629.719.712.712,0,0,0,.879-.165c.17-.241.129-.592.321-.814a.658.658,0,0,1,.648-.165.8.8,0,0,1,.549.37m.211-3.181c-1.271-.284-.4-1.751-.713-3.105,2.06-.939,1.741,2.182.713,3.105" transform="translate(-51.201 -0.697)"/>
      <path id="Path_120" data-name="Path 120" class="cls-4" d="M141.023,17.53c1.481.382.237,1.315.255,2.24.984.012,1.305-.852,2.087-1.07,2.471.86-1.47,4.547-1.934,6.211,1.044-.775,4.445-.5,3.92-1.934a.584.584,0,0,1,.4-.783c.37-.031.832.518,1.05.747a9.386,9.386,0,0,1,2.069,3.262c.18.528.17,1.149-.526,1.075-.873-.094-.868-.873-1.17-1.5a2.1,2.1,0,0,0-.55-.812c-.765-.558-1.5.258-2.2.44a9.229,9.229,0,0,0-1.779.534,8.472,8.472,0,0,1-1.754.747c-.672.148-.881-.069-1.393-.406-.65-.428-.347-1.163.051-1.527a20.213,20.213,0,0,0,2.392-3.767C137.07,23.031,140.621,16.22,141.023,17.53Zm-1.585-9.24c.17.246.489.473.615.736.176.368.084.177-.025.5a3.21,3.21,0,0,0-.278,1.024c-.011.548.265,1.5,1.019,1.226.894-.32,1.727.755,1.527-.814-.814.42-1.681.373-1.985-.611-.194-.832,1.38-.469,1.68-1.069-.225-1.29.317-1.943,1.375-.763.129.146.072.4.15.572.106.235.375.386.44.631.078.3-.124.585-.147.876a12.677,12.677,0,0,0,.118,1.943,8.371,8.371,0,0,1,1.631.788c.344.219,1.231,1.047.952,1.472-.712,1.089-1.535-1.116-2.482-.632-.364.741.672,3.744-1.12,3.462a2.706,2.706,0,0,1-.305-2.443,1.47,1.47,0,0,1-.153-1.12c-.407.351-.508,1.358-1.323,1.476-.072-.455-.4-.552-.255-.916-.437-.1.414-1.2.356-1.527-1.047-.207-1.146.544-.967,1.476.809,2.7-1.243,4.879-1.426.763.105-.019.1-.012.152-.051-.438-.223-.033-.516-.152-1.018-.6.234-.949,1.8-1.68.509a5.4,5.4,0,0,1,1.171-2.952c.154-.1.167.026.255-.153-.217-1.823-.3-1.187-1.731-1.069.377,2.324-.24,5.093-.255,7.483-.331,1.025.742,2.39-.356,2.749-2.071-.365-.985-4.89-.663-6.363-.222-2.246.171-5.673-.865-7.484-1.23-2.33,3.02-1.124,4.684-1.527a19.894,19.894,0,0,0,3.767-.2c.848.066,1.526,1.118.356,1.527a4.852,4.852,0,0,1-1.339-.036c-1.593-.03-3.182.02-4.775.061a1.335,1.335,0,0,0-.982.294,1.134,1.134,0,0,0-.011,1.239,1.484,1.484,0,0,0,.629.719.712.712,0,0,0,.879-.165c.17-.241.129-.592.321-.814a.658.658,0,0,1,.648-.165A.8.8,0,0,1,139.438,8.29Zm.211-3.181c-1.271-.284-.4-1.751-.713-3.105C141,1.065,140.677,4.186,139.649,5.109Z" transform="translate(-51.201 -0.697)"/>
    </g>
  </g>
</svg>
