<svg xmlns="http://www.w3.org/2000/svg" xmlns:xlink="http://www.w3.org/1999/xlink" width="150" height="32" viewBox="0 0 150 32">
  <defs>
    <style>
      .cls-1, .cls-4 {
        fill: none;
      }

      .cls-2 {
        clip-path: url(#clip-path);
      }

      .cls-3 {
        fill: #121212;
        fill-rule: evenodd;
      }

      .cls-4 {
        stroke: #121212;
        stroke-miterlimit: 10;
        stroke-width: 0.8px;
      }
    </style>
    <clipPath id="clip-path">
      <rect id="Rectangle_49" data-name="Rectangle 49" class="cls-1" width="31.67" height="25.57"/>
    </clipPath>
  </defs>
  <g id="Group_266" data-name="Group 266" transform="translate(-285 -164)">
    <g id="Group_85" data-name="Group 85" transform="translate(288 170)">
      <g id="Group_84" data-name="Group 84" class="cls-2" transform="translate(0 0)">
        <path id="Path_99" data-name="Path 99" class="cls-3" d="M5.623,18.149A32.731,32.731,0,0,0,2.2,18.46c-.014-.092.026-.046-.07-.07-.348.231-.693-.072-1.085-.07-1.942-1.412,1.064-.672,1.925-.7,1.27-.305,3.848-.036,5.216-.56.054-.836-.095-1.619,0-2.486,1.289-.5.782,1.633.945,2.486,1.459.005,2.485.233,3.5-.14-.034.012.707.262.733.295.348.433-.395.74-.742.75l-1.2.037a7.846,7.846,0,0,1-2.221-.143l-.13.194a5.49,5.49,0,0,0,.057.93c.01,2.075.2,4.144.333,6.212.018.271.148,2.932-.256,2.786.061.022.034.007.07.035-.079.032-.488.014-.455.175-.616-.507-.179-1.918-.246-2.731-.2-2.472-.173-4.954-.362-7.424l-1.728.1c-.28,0-.565.005-.855.015m5.406-6.474a.335.335,0,0,0-.045.263c.04.151,1.309-.023.685.68-.256.288-1.175.273-1.54.337l-1.869.329c-.19.022-2.488.358-2.493.067.007.424-.4.25-.539.039A3.532,3.532,0,0,1,5.1,11.954c-.051-1.5.312-3.009.112-4.486-.08-.591-.508-1.435.349-1.4.152.006.693.661.824.044,0-.028,1.96-.136,2.116-.15a3.794,3.794,0,0,1,1.984.268c.78.375.945,1.007,1.294,1.722.178.356-.148,1.482-.184,1.894a7.591,7.591,0,0,1-.377,1.684.33.33,0,0,0-.186.145M6.187,13.454h-.07v-.035c.061.022.034.007.07.035m4.656-3.29c-.565.438-4.9,1.026-4.271-.56a15.554,15.554,0,0,0,3.991-.07v.105c.529.3.315-.848.385-.98a1.459,1.459,0,0,0-.744-1.75,5.4,5.4,0,0,0-3.328-.047,1.153,1.153,0,0,0-.882.487c-.224.413-.014,1.432-.037,1.894q-.07,1.384-.14,2.768c-.325,1.437,3.865-.141,4.239.092.06-.138.726-1.939.787-1.939" transform="translate(-0.21 -3.111)"/>
        <path id="Path_100" data-name="Path 100" class="cls-4" d="M5.623,18.149A32.731,32.731,0,0,0,2.2,18.46c-.014-.092.026-.046-.07-.07-.348.231-.693-.072-1.085-.07-1.942-1.412,1.064-.672,1.925-.7,1.27-.305,3.848-.036,5.216-.56.054-.836-.095-1.619,0-2.486,1.289-.5.782,1.633.945,2.486,1.459.005,2.485.233,3.5-.14-.034.012.707.262.733.295.348.433-.395.74-.742.75l-1.2.037a7.846,7.846,0,0,1-2.221-.143l-.13.194a5.49,5.49,0,0,0,.057.93c.01,2.075.2,4.144.333,6.212.018.271.148,2.932-.256,2.786.061.022.034.007.07.035-.079.032-.488.014-.455.175-.616-.507-.179-1.918-.246-2.731-.2-2.472-.173-4.954-.362-7.424l-1.728.1C6.2,18.134,5.912,18.139,5.623,18.149Zm5.406-6.474a.335.335,0,0,0-.045.263c.04.151,1.309-.023.685.68-.256.288-1.175.273-1.54.337l-1.869.329c-.19.022-2.488.358-2.493.067.007.424-.4.25-.539.039A3.532,3.532,0,0,1,5.1,11.954c-.051-1.5.312-3.009.112-4.486-.08-.591-.508-1.435.349-1.4.152.006.693.661.824.044,0-.028,1.96-.136,2.116-.15a3.794,3.794,0,0,1,1.984.268c.78.375.945,1.007,1.294,1.722.178.356-.148,1.482-.184,1.894a7.591,7.591,0,0,1-.377,1.684A.33.33,0,0,0,11.029,11.675ZM6.187,13.454h-.07v-.035C6.179,13.441,6.151,13.426,6.187,13.454Zm4.656-3.29c-.565.438-4.9,1.026-4.271-.56a15.554,15.554,0,0,0,3.991-.07v.105c.529.3.315-.848.385-.98a1.459,1.459,0,0,0-.744-1.75,5.4,5.4,0,0,0-3.328-.047,1.153,1.153,0,0,0-.882.487c-.224.413-.014,1.432-.037,1.894q-.07,1.384-.14,2.768c-.325,1.437,3.865-.141,4.239.092C10.116,11.965,10.782,10.164,10.843,10.164Z" transform="translate(-0.21 -3.111)"/>
        <path id="Path_101" data-name="Path 101" class="cls-3" d="M46.265,9a6.562,6.562,0,0,1,.735.14c.006.3.119.565-.035.735.266.757-.257,1.727-.07,2.485a4.91,4.91,0,0,0,1.89-.035c.172-.741.145-3.008,1.225-2.03-.479,2.069-.493,2.324,1.786,2,.9.01,2.044.706.63,1.26-.734-.355-1.379-.012-2.205-.14-1.056-.4-.989,1-1.26,1.716-.226.366-.774,1.445-.545,1.857.142.257.886.418,1.148.528l1.3.545c.283.118.738.5.227.716a.878.878,0,0,1-.435.032,6.168,6.168,0,0,1-2.672-1.018c-.3.562-.286,1.238-.575,1.8-.184.356-1.135,1.092-1.1.2a1.3,1.3,0,0,1,.119-.435c.169-.42.881-1.693.467-2.072a1.364,1.364,0,0,0-.454-.247,3.71,3.71,0,0,1-1.251-.622c-.954-.875.36-1.663.348-2.646.347-.711-1.209-.6-1.668-.657a1.724,1.724,0,0,1-.7-.191c-.671-.412-.123-.8.439-.743l1.5.152c.164.017,1.2.218.81-.241.367-.711.093-2.066.35-3.08m.392,4.453a.981.981,0,0,0-.291.444,3,3,0,0,0-.339,1.892c.105.247,1.058.98,1.3.784a.538.538,0,0,0,.143-.239l.585-1.54c.091-.239.592-1.1.484-1.348-.232,0-.687.106-.875-.175a5.266,5.266,0,0,1-.826.092.726.726,0,0,0-.183.09M42.835,6.511c.145.45,4.4-.489,4.968-.614l2.424-.539a3.306,3.306,0,0,1,1.98-.029,2.238,2.238,0,0,1,1.206,2.061,6.58,6.58,0,0,1-.6,2.438,1.154,1.154,0,0,1-.257.446.393.393,0,0,1-.475.068c-.172-.123-.156-.38-.121-.589.157-.943,1.23-3.923-.691-3.725a20.225,20.225,0,0,0-2.011.429c-1.492.321-2.962.48-4.464.651a2.467,2.467,0,0,1-1.96-.315c.425,1.1.391,2.874.7,4.166-1.35,1.255-1.117-2.241-1.261-3.011-.068-.595-.846-2.637-.1-2.556.605-.683.528.721.665,1.12m4.029-2.24c0,.711.118,1.263-.386,1.786-.964-.859-.4-2.617-.6-3.747-.109-.617-1.17-2.319.246-1.82.05.054.147.133.07.211a7.358,7.358,0,0,1,.668,3.57" transform="translate(-21.935 -0.21)"/>
        <path id="Path_102" data-name="Path 102" class="cls-4" d="M46.265,9a6.562,6.562,0,0,1,.735.14c.006.3.119.565-.035.735.266.757-.257,1.727-.07,2.485a4.91,4.91,0,0,0,1.89-.035c.172-.741.145-3.008,1.225-2.03-.479,2.069-.493,2.324,1.786,2,.9.01,2.044.706.63,1.26-.734-.355-1.379-.012-2.205-.14-1.056-.4-.989,1-1.26,1.716-.226.366-.774,1.445-.545,1.857.142.257.886.418,1.148.528l1.3.545c.283.118.738.5.227.716a.878.878,0,0,1-.435.032,6.168,6.168,0,0,1-2.672-1.018c-.3.562-.286,1.238-.575,1.8-.184.356-1.135,1.092-1.1.2a1.3,1.3,0,0,1,.119-.435c.169-.42.881-1.693.467-2.072a1.364,1.364,0,0,0-.454-.247,3.71,3.71,0,0,1-1.251-.622c-.954-.875.36-1.663.348-2.646.347-.711-1.209-.6-1.668-.657a1.724,1.724,0,0,1-.7-.191c-.671-.412-.123-.8.439-.743l1.5.152c.164.017,1.2.218.81-.241C46.282,11.366,46.008,10.011,46.265,9Zm.392,4.453a.981.981,0,0,0-.291.444,3,3,0,0,0-.339,1.892c.105.247,1.058.98,1.3.784a.538.538,0,0,0,.143-.239l.585-1.54c.091-.239.592-1.1.484-1.348-.232,0-.687.106-.875-.175a5.266,5.266,0,0,1-.826.092A.726.726,0,0,0,46.657,13.449ZM42.835,6.511c.145.45,4.4-.489,4.968-.614l2.424-.539a3.306,3.306,0,0,1,1.98-.029,2.238,2.238,0,0,1,1.206,2.061,6.58,6.58,0,0,1-.6,2.438,1.154,1.154,0,0,1-.257.446.393.393,0,0,1-.475.068c-.172-.123-.156-.38-.121-.589.157-.943,1.23-3.923-.691-3.725a20.225,20.225,0,0,0-2.011.429c-1.492.321-2.962.48-4.464.651a2.467,2.467,0,0,1-1.96-.315c.425,1.1.391,2.874.7,4.166-1.35,1.255-1.117-2.241-1.261-3.011-.068-.595-.846-2.637-.1-2.556C42.775,4.707,42.7,6.111,42.835,6.511Zm4.029-2.24c0,.711.118,1.263-.386,1.786-.964-.859-.4-2.617-.6-3.747-.109-.617-1.17-2.319.246-1.82.05.054.147.133.07.211A7.358,7.358,0,0,1,46.864,4.271Z" transform="translate(-21.935 -0.21)"/>
      </g>
    </g>
    <rect id="Rectangle_158" data-name="Rectangle 158" class="cls-1" width="150" height="32" transform="translate(285 164)"/>
  </g>
</svg>
