<svg xmlns="http://www.w3.org/2000/svg" xmlns:xlink="http://www.w3.org/1999/xlink" width="150" height="69" viewBox="0 0 150 69">
  <defs>
    <style>
      .cls-1, .cls-4 {
        fill: none;
      }

      .cls-2 {
        clip-path: url(#clip-path);
      }

      .cls-3 {
        fill: #121212;
        fill-rule: evenodd;
      }

      .cls-4 {
        stroke: #121212;
        stroke-linecap: round;
        stroke-linejoin: round;
      }
    </style>
    <clipPath id="clip-path">
      <rect id="Rectangle_46" data-name="Rectangle 46" class="cls-1" width="98.019" height="63.367"/>
    </clipPath>
  </defs>
  <g id="Group_265" data-name="Group 265" transform="translate(-285 -194)">
    <g id="Group_79" data-name="Group 79" transform="translate(288 196)">
      <g id="Group_78" data-name="Group 78" class="cls-2" transform="translate(0 0)">
        <path id="Path_94" data-name="Path 94" class="cls-3" d="M49.026,59.589h-.082c-.384.487-.547,1.313-1.039,1.721.231.25-.4.556-.355.82-.23.112-.606.555-1.038.519v.109c0,.166-.986-.016-1.084-.087a1.863,1.863,0,0,1-.484-.6,7.269,7.269,0,0,1-.919-3.932,3.663,3.663,0,0,0,.11-1.148c-.192-.018.041-.225-.055-.328.156.166-.573,1.833-.694,2.06a10.886,10.886,0,0,1-1.725,2.583,2.979,2.979,0,0,1-2.632,1.047,2.468,2.468,0,0,1-1.343-1.042c-.132-.21-.271-1.421-.381-1.451.159-.681.1-1.356.273-1.967-.151-.047-.041-.117.027-.218a1.36,1.36,0,0,1,.055-.656,8.185,8.185,0,0,0-.956,2.35c-.066.019-.131.24-.246.3,0,.152-.321.076-.219.273-.873.906-2.182,1.868-3.388.984-.152.017-.166.036-.218-.109a.565.565,0,0,1-.383-.273,2.153,2.153,0,0,1-1.2-1.147c-.037-.147-.262-.331-.322-.506a2.427,2.427,0,0,1-.049-.842,16.279,16.279,0,0,1,.139-1.693,29.917,29.917,0,0,1,.721-3.768,42.759,42.759,0,0,1,4.238-9.639,8.534,8.534,0,0,1-2.055.595,22.662,22.662,0,0,1-2.843.113c-1.124.04-2.248.085-3.372.128l-1.748.067a4.092,4.092,0,0,0-1.429.081v-.082c0,.147-6.272-.18-6.843-.206a8.821,8.821,0,0,1-2.178-.283,3.308,3.308,0,0,1-1.4-.819c-.315-.319-1.025-.671-1.216-1.042-.085-.165-.528-.355-.687-.459-.256-.168-.514-.334-.778-.49a8.661,8.661,0,0,0-1.651-.783,9.642,9.642,0,0,0-1.987-.43q-.519-.058-1.041-.068-.259-.005-.518,0c-.062,0-.328-.051-.361-.039a1.51,1.51,0,0,1-.682.082c-.483-.121-.819.543-1.093.847-.9.575.495,3.384-1.312,4.426-1.721,1.829.676,2.135-.71,3.252-.925.072-1.914-1.658-1.011-2.186.3-.177.1-.665.132-.917a1.18,1.18,0,0,1-.022-.267,1.106,1.106,0,0,1,.751-1.218,1.147,1.147,0,0,0,.7-1.232c.352-.5-.183-1.3-.218-1.83a11.282,11.282,0,0,0,.956-1.8c-.082.293-1.634-.267-1.846-.322a.667.667,0,0,1-.418-.229c-.357-.55,1.143-1.129,1.545-1.1.093-.245.34-.268.582-.233,0-.13-.05-.214.082-.3.077-.174-.034-.311.055-.492.325-.24.349-.715.765-.847.281.087.951-.1.765.382,0,.959.769.061,1.2-.082a.611.611,0,0,1,.6-.273c.05-.18.216-.159.355-.219.019-.175.177-.163.273-.273-1.434-.218-3.183-.227-4.781-.41C1.781,33.726.518,33.976.883,33c.114-.3,1.292-.8,1.589-.969.473-.27.958-.549,1.441-.789A30.572,30.572,0,0,1,7.2,29.971a6.938,6.938,0,0,0,1.3-.533c.332-.2.607-.672.9-.833.35-.188.19-1.057.273-1.339-.3-.284.11-.581-.137-.847.363-1.089.343-2.54,1.2-3.5.037-.494.792-.989,1.084-1.364A17.206,17.206,0,0,1,16.1,17.669a6.763,6.763,0,0,1,3.256-1.414,6.994,6.994,0,0,1,1.986-.081,10.217,10.217,0,0,1,2.686,1.5,18.981,18.981,0,0,1,4.131,3.892c.379.473.8.485,1.233.9.387.374.677.836,1.056,1.214a6.406,6.406,0,0,0,2.029,1.48,7.139,7.139,0,0,0,2.7.339c1.5.033,3.06-.085,4.55.026a17.3,17.3,0,0,1,1.141-5.085c.06-.154.463-.982.45-1.046-.085-.42.619-1.369.8-1.756q.644-1.409,1.349-2.791.883-1.732,1.857-3.415c.323-.559.694-1.1,1-1.67.079-.149.692-.96.686-1.023a.541.541,0,0,1,.218-.546c-.039-.169.011-.18.136-.273a.932.932,0,0,1,.246-.355c.1-.06.453-.851.562-1.011.266-.392.5-.77.779-1.155a17.905,17.905,0,0,1,2.321-2.6,3.118,3.118,0,0,1,.8-.583,1.852,1.852,0,0,1,1.983.43c1.227.518-.288,3.207-.461,4.049l.939-1.4a25.358,25.358,0,0,1,1.435-2.2,2.686,2.686,0,0,1,1.175-.966,1.342,1.342,0,0,1,1.139.048c.893.488.9,1.683.742,2.547L61.935,1.7a4.255,4.255,0,0,1,.819-.719c1.1-.671,1.973.3,1.792,1.424A10.964,10.964,0,0,1,66.431.9c.007.038-.034.056-.055.082A2.645,2.645,0,0,1,68.585.627a2.929,2.929,0,0,1,1.507,2.459c.166,3.906-1.151,8.093-1.229,11.995,0,1.612-.075,3.2-.082,4.782-.074,1.4-.895,4.391,1.093,4.563.066.006.42.349.565.392a6.148,6.148,0,0,0,1.347.076q1.41.071,2.814.23a42.957,42.957,0,0,1,5.445.921c1.55.381,3.695.812,4.938,1.878.481.233.9-.03,1.394-.109.194-.324.712-.233,1.011-.246a1.018,1.018,0,0,1,.9-.219c.262-.374.986-.194,1.475-.355v-.082c1.1.262,2.125-.32,3.278-.136.319.66.857.994.847,1.885.193-.02.2-.211.438-.055a.628.628,0,0,1,.464-.246v-.082c1.05-.158,1.4-1.2,2.432-1.448.479.518-.446.805-.765,1.12-.366.471-1.038.6-1.476.929a25.7,25.7,0,0,0,2.814-.164c.521.349,0,.83-.519.6a12.65,12.65,0,0,1-2.267.136c.187.423.8.515.956.929.244.056.3.266.437.437.3.126.339.405.519.629-.28.576-.512.269-.85-.077-.152-.156-2.174-1.964-2.155-2.027-.077.254.241.588.027.847.066.205.1.227,0,.41.024.2-.132.582.027.765-.043.108-.082.171,0,.246a.663.663,0,0,1-.082.3c-.52.659-1.541.486-2.35.656a31.763,31.763,0,0,0-3.716,1.038,11.876,11.876,0,0,0,2.049,1.011,8.381,8.381,0,0,0,1.8,1.175c1.33.882,1.785.6,1.394,2.541.125.118.587-.106.737-.273.3-.017.557-.179.82-.191-.032-.12.2-.066.218-.082.095-.05.208-.181.328-.11.238-.139.459-.6.71-.492.4,1.233-1.5,1.037-2.076,1.722.185.239.532.166.656.465.358.076.439.3.82.3.65.423.786.153.956.847-.162.026-.271.151-.328.164-.106-.03-.118-.062-.246-.027a20.846,20.846,0,0,0-2.159-1.175c0,.547.55.878.738,1.339.031.356.825,2.213-.137,1.558-.2-.021-.1-.295-.136-.383-.078-.242-.331-.419-.191-.683a8.257,8.257,0,0,1-.9-1.667c-.176.227.007.707-.246.956-.012.2.026.551-.137.629.079.395-.308.482-.6.492-.037-.219-.2-.162-.383-.11-.065-.385-.593-.508-.874-.465a10.971,10.971,0,0,1-1.477-.479q-1.161-.3-2.343-.516a27.3,27.3,0,0,0-6.775-.369c-.9.064-1.783.175-2.673.289a14.224,14.224,0,0,1-2.24-.248,8.475,8.475,0,0,0-2.421.632c-.7.2-1.359.537-2.064.672a13.753,13.753,0,0,0-2.319.391,6.111,6.111,0,0,0-1.97,1.6,16.52,16.52,0,0,0-3.724,5.515c-.613,1.024-1.04,2.04-1.722,3.06a7.8,7.8,0,0,1-.437.847c-.12.281-.008.661-.3.82-.107.129-.022.5-.246.492a26.215,26.215,0,0,0-2.076,3.688,32.552,32.552,0,0,1-3.634,4.591c-.134-.039-.07.054-.109.136a2.764,2.764,0,0,1-1.147.546c-.163.01-.448.263-.621.326a4.15,4.15,0,0,1-.806.15,1.77,1.77,0,0,1-1.579-.238,1.887,1.887,0,0,1-.568-1.017,3.352,3.352,0,0,1-.029-1.515c.066-.283.525-1.173.3-1.449-.323-.39-.553.122-.628.52m6.291.321q1.459-2.069,2.79-4.223Q59.585,53.3,60.9,50.812q.643-1.215,1.246-2.452A24.548,24.548,0,0,1,64.8,44.007c1.033-1.326,2.245-2.791,3.895-3.3.2-.018.485.065.573-.192a6.8,6.8,0,0,0,2.022-.218c-.012-.143.189-.028.246-.055.139-.069.294-.307.465-.192.23-.266.63-.2.82-.492.218.1.272-.163.492.027.865.146,1.513-.879,2.388-.539.173.068.328.176.5.238a.537.537,0,0,0,.528-.053l-.015.156a22.222,22.222,0,0,1,3.575-.36,26.9,26.9,0,0,1,7.355.545c.4.073,3.946.548,3.946.969v.082c.208-.066.264.019.382.11-.011-1.228.781-2.319.41-3.689-1.821-1.1-3.448-2.581-5.628-3.115-.521-.129-.121-.641.1-.758a8.026,8.026,0,0,1,1.97-.475c.858-.2,1.7-.464,2.564-.652.575-.125,1.473.04,1.927-.411a6.267,6.267,0,0,0,.027-1.461,6.64,6.64,0,0,0-.137-1.984,1.487,1.487,0,0,0-.363-.744c-.449-.427-1.849-.083-2.413-.029a10.041,10.041,0,0,0-2.852.611c-1.036-.072-1.989,1.133-2.677.546a5.282,5.282,0,0,0-1.667-.847v-.082c0-.228-2.406-.851-2.685-.93-.944-.268-1.9-.484-2.867-.66a45.991,45.991,0,0,0-5.9-.614l-1.862-.2c-.535-.057-.87-.321-1.362-.412v-.082c-1.354-1.017-.762-3.663-.492-5.11a63.976,63.976,0,0,1,.11-6.5c.507-2.836.934-5.94,1.257-8.689a7.925,7.925,0,0,0-.11-1.967c-.523-.83-.94-1.634-2.076-1.148v.082a3.174,3.174,0,0,0-2.022,1.366c-1.822,1.789-2,6.1-2.623,8.661-.16.656-.793-.5-.759-.846a8.768,8.768,0,0,1,.483-1.423,13.419,13.419,0,0,0,.3-1.473c.237-1.531.685-2.627.847-4.153.221-.021.643-2.114.109-2.049V1.419c-.854,0-1.192.861-1.8,1.257-.964.9-1.713,1.886-2.568,2.842a.917.917,0,0,1-.355.6c-.24.746-.388,1.507-.6,2.241-.685,1.133-.812,2.568-1.557,3.634-.277-.026-.655-.382-.492-.71.143-.006.287-.123.218-.273.086,0,.037.047.082-.027-.161-.1-.032-.238.055-.3a.655.655,0,0,1,.246-.656c-.126-.159.087-.442.218-.546,0-.307.247-.584.3-.874-.124-.056.051-.584.191-.6-.011-1.165.908-2.109.847-3.279h.082a1.581,1.581,0,0,0-.109-.984c.177-1.071-.728-1.291-1.475-.792a16.6,16.6,0,0,0-2.221,3.022A12.469,12.469,0,0,0,52.906,9.1c-.119.5-.7,1.4-.437,1.94-.143.074-.348.106-.273.3.02.054-.475-.074-.542-.156-.222-.269-.039-.357.031-.6.194-.671.4-1.375.583-2.067a24.1,24.1,0,0,1,.979-2.56,3.764,3.764,0,0,0,.534-1.827c.091-.1.145-.221.055-.328-.06-.071.022-.547-.125-.737a1.212,1.212,0,0,0-.888-.405,1.946,1.946,0,0,0-1.211.432,5.8,5.8,0,0,0-.915.935c-.146.126-.441.541-.551.6-.241.18-.6.524-.628.793A15.917,15.917,0,0,0,47.2,9.069c-.893,1.411-1.647,2.806-2.568,4.317a14.746,14.746,0,0,1-1.284,2.623c-.053.284-.349.726-.437,1.093-.145.264-.628.836-.574,1.038a15.654,15.654,0,0,0-.956,2.1c0,.489-.413,1.053-.437,1.5-.04.069-.012.042-.109.055-.08.992-.815,1.985-.546,2.9H40.2c-.195.6.414,1.483-.539,1.487a35.839,35.839,0,0,1-6.793-.15,3.839,3.839,0,0,1-1.362-.569,10.214,10.214,0,0,1-1.54-1.322c-.472-.463-.941-.93-1.417-1.39-.158-.153-.862-.977-1.054-.952-.219.027-1.452-1.456-1.65-1.647-1.353-1.308-3.7-3.994-5.864-3.353-1.728-.45-5.152,2.141-6.2,3.361-.126.035-.219.038-.246.192-.326.153-.476.453-.711.656,0,.182-.3.2-.246.437-.219.024-.162.3-.383.328-.078.1-.133.218-.273.246a.3.3,0,0,1-.191.246c-.115.161-.019.408-.164.574-.224.356-.689.82-.683,1.284a6.846,6.846,0,0,0-.465,3.99,2.928,2.928,0,0,0-.246.792.863.863,0,0,0-.273.437c-.235.236-.718.4-.874.683C6.8,31.077,4.007,31.708,2,33.2c.111.014.223-.089.328-.109.046.242.231-.018.328.164.592-.182,1.51.21,2.13.246l2.054.12a4.738,4.738,0,0,1,.793.165c.217.051.534,0,.684.188a.412.412,0,0,1-.193.628,5.052,5.052,0,0,0-1.313.9c-.515.363-1.414.435-1.783.865.151.581-.386,1.324-.3,1.742s.527.553.9.588a3.914,3.914,0,0,0,.688-.008c.2-.017.509-.125.689-.022.578.06,1.158.105,1.735.178a3.246,3.246,0,0,1,.611.207c.242.081.492.138.734.218a6.8,6.8,0,0,1,.968.458c.689.357,1.363.746,2.044,1.119.3.163.581.679.86.911a4.482,4.482,0,0,0,1.03.657,7.8,7.8,0,0,0,2.72.561c2.767.162,5.453.331,8.226.252,1.864-.048,3.728-.105,5.592-.158a9.183,9.183,0,0,0,2.537-.242c.833-.262,1.689-.451,2.528-.692.474.241.3.667-.136.765-1.185,2.149-2.757,4.41-3.361,6.94a19.222,19.222,0,0,0-1.831,7.159c.1.589-.416,1.515.192,1.94.262.751,1.393,1.284,2.131,1.53l.026.078c.052.155.668-.029.748-.123.125-.149.665-.25.859-.379a2.886,2.886,0,0,0,.79-.8A11.1,11.1,0,0,0,37,57.048l.082.027a6.313,6.313,0,0,0,.383-1.065c.362-1.054,1.074-2.142,1.394-3.087a10.185,10.185,0,0,0,.9-2.268c1-.384.415.558.328,1.011a.816.816,0,0,0-.246.765,18.466,18.466,0,0,0-1.23,2.4,16.779,16.779,0,0,0-.519,3.251c-.175.154.137.4-.136.519a12.613,12.613,0,0,0,.055,2.186,2.016,2.016,0,0,0,3.306.082c.393-.462.515-.949.984-1.339.027-.15-.053-.212.136-.218.2-.348.308-.841.574-1.065.411-1.183.8-2.535,1.148-3.716a.731.731,0,0,0,.218-.656,1.825,1.825,0,0,0,.219-1.065c.007-.038-.016-.193.082-.164-.094-.1.006-.358.082-.492.1-.021.114-.087.136-.164.03-.017.314,0,.383,0,.367.466-.478,1.248-.218,1.694a14.785,14.785,0,0,0-.407,5.432,5.869,5.869,0,0,0,.8,2.693c.527.6,1.407.086,1.877-.364a5.573,5.573,0,0,0,.652-1.27c.236-.445.479-.885.735-1.318A26.422,26.422,0,0,0,49.982,56.3l.852-2.824a1.061,1.061,0,0,1,.2-.422c.48-.528.393.336.357.58a11.107,11.107,0,0,1-.325,1.407,10.179,10.179,0,0,0-.727,2.688c.021,1.094-.859,3-.328,4.1-.12,1.161,1.509.887,2.267.683a14.777,14.777,0,0,1,1.551-.963,5.753,5.753,0,0,0,1.467-1.607l.023-.032M.939,46.611c.092.755,1.079,1.405,1.174.382a1.486,1.486,0,0,1-.163-2.1c-.283.137-.458-.064-.684-.218.4.951-1.065,1.63-.164,1.5V46.2c-.071.016-.08.11-.163.136.106.082.308.24.409.027.1.079.223.029.246.137-.218.178-.379.138-.655.109m.929-1.8c.5-.191.879-.8,1.284-1.257-.38.081-.54-.315-.819-.355-.235.411-.694.266-.957.574-.277.45.016.851.492,1.038M4.3,35.135C3.476,35.1,3.281,36.167,3.205,36.8c.094.015.222.01.192.136.207.035.609.1.628.3a1.468,1.468,0,0,1-.847-.246.98.98,0,0,0,.219.847A.1.1,0,0,0,3.479,38c-.209.371.4.257.519.41-.115.171-.368.132-.546.055a6.153,6.153,0,0,1-.546,1.147c.265.03.242.231.492.219.017.1,0,.087.055.164-.494.048-.709-.47-.956.219a4.434,4.434,0,0,1,.3,1.229c.174.047.335-.029.355.192-.553.072-.512.892-.683,1.393a3.707,3.707,0,0,0,.683.383,3.791,3.791,0,0,0,.23-1.384c0-.217.039-.432.047-.648.011-.3-.166-.6-.1-.9a1.764,1.764,0,0,1,.409-.687c.036-.044.563-.52.565-.507a1.994,1.994,0,0,1,.136-.711,1.192,1.192,0,0,1,.109-1.448A2.323,2.323,0,0,0,4.3,35.135M2.878,37.048a1.792,1.792,0,0,0-.847.465c.477.173.642.387,1.065.519a1.7,1.7,0,0,1-.218-.984M14.736,21.283c3.156-2.212,6.723,2.215,5.328,5.246-.1-.013-.187.056-.136.164-.319.17-.469.776-.9,1.011-.459.056-.9.38-1.366.355a.348.348,0,0,1-.027.109c-.166-.05-.16.042-.273.082-.212.088-.517-.152-.629,0-.176.006-.241-.164-.328,0-.163-.289-.191-.044-.41-.109-.508-.242-1.364-.243-1.722-.874-1.431-1.584-.751-3.78-.191-5.3.21.061.569-.574.656-.683m4.754,4.808h.136a4.018,4.018,0,0,0,0-2.349H19.49c0-.212-.094-.206-.027-.355-.438-.254-.333-.9-.82-1.12-.26-.466-1.076-.629-1.585-.793-.062-.249-.364-.081-.519-.164-1.965-.1-3.046,2.912-2.268,4.563.11,1.609,1.911,1.48,3.088,1.749.425-.381,1.088-.251,1.5-.628.029-.347.606-.448.628-.9m-4.016-1.229c-1.092-2.637,2.666-2.881,2.9-.41-.367.4.011,1.425-1.011,1.448-.088.121-.216-.021-.355,0-.111.141-.535.027-.683,0-.272-.33-.53-.343-.792-.765.02-.127.129-.3-.055-.273m27.35-8.716h-.055v-.027c.048.017.026.005.055.027" transform="translate(-0.247 -0.247)"/>
        <path id="Path_95" data-name="Path 95" class="cls-4" d="M49.026,59.589h-.082c-.384.487-.547,1.313-1.039,1.721.231.25-.4.556-.355.82-.23.112-.606.555-1.038.519v.109c0,.166-.986-.016-1.084-.087a1.863,1.863,0,0,1-.484-.6,7.269,7.269,0,0,1-.919-3.932,3.663,3.663,0,0,0,.11-1.148c-.192-.018.041-.225-.055-.328.156.166-.573,1.833-.694,2.06a10.886,10.886,0,0,1-1.725,2.583,2.979,2.979,0,0,1-2.632,1.047,2.468,2.468,0,0,1-1.343-1.042c-.132-.21-.271-1.421-.381-1.451.159-.681.1-1.356.273-1.967-.151-.047-.041-.117.027-.218a1.36,1.36,0,0,1,.055-.656,8.185,8.185,0,0,0-.956,2.35c-.066.019-.131.24-.246.3,0,.152-.321.076-.219.273-.873.906-2.182,1.868-3.388.984-.152.017-.166.036-.218-.109a.565.565,0,0,1-.383-.273,2.153,2.153,0,0,1-1.2-1.147c-.037-.147-.262-.331-.322-.506a2.427,2.427,0,0,1-.049-.842,16.279,16.279,0,0,1,.139-1.693,29.917,29.917,0,0,1,.721-3.768,42.759,42.759,0,0,1,4.238-9.639,8.534,8.534,0,0,1-2.055.595,22.662,22.662,0,0,1-2.843.113c-1.124.04-2.248.085-3.372.128l-1.748.067a4.092,4.092,0,0,0-1.429.081v-.082c0,.147-6.272-.18-6.843-.206a8.821,8.821,0,0,1-2.178-.283,3.308,3.308,0,0,1-1.4-.819c-.315-.319-1.025-.671-1.216-1.042-.085-.165-.528-.355-.687-.459-.256-.168-.514-.334-.778-.49a8.661,8.661,0,0,0-1.651-.783,9.642,9.642,0,0,0-1.987-.43q-.519-.058-1.041-.068-.259-.005-.518,0c-.062,0-.328-.051-.361-.039a1.51,1.51,0,0,1-.682.082c-.483-.121-.819.543-1.093.847-.9.575.495,3.384-1.312,4.426-1.721,1.829.676,2.135-.71,3.252-.925.072-1.914-1.658-1.011-2.186.3-.177.1-.665.132-.917a1.18,1.18,0,0,1-.022-.267,1.106,1.106,0,0,1,.751-1.218,1.147,1.147,0,0,0,.7-1.232c.352-.5-.183-1.3-.218-1.83a11.282,11.282,0,0,0,.956-1.8c-.082.293-1.634-.267-1.846-.322a.667.667,0,0,1-.418-.229c-.357-.55,1.143-1.129,1.545-1.1.093-.245.34-.268.582-.233,0-.13-.05-.214.082-.3.077-.174-.034-.311.055-.492.325-.24.349-.715.765-.847.281.087.951-.1.765.382,0,.959.769.061,1.2-.082a.611.611,0,0,1,.6-.273c.05-.18.216-.159.355-.219.019-.175.177-.163.273-.273-1.434-.218-3.183-.227-4.781-.41C1.781,33.726.518,33.976.883,33c.114-.3,1.292-.8,1.589-.969.473-.27.958-.549,1.441-.789A30.572,30.572,0,0,1,7.2,29.971a6.938,6.938,0,0,0,1.3-.533c.332-.2.607-.672.9-.833.35-.188.19-1.057.273-1.339-.3-.284.11-.581-.137-.847.363-1.089.343-2.54,1.2-3.5.037-.494.792-.989,1.084-1.364A17.206,17.206,0,0,1,16.1,17.669a6.763,6.763,0,0,1,3.256-1.414,6.994,6.994,0,0,1,1.986-.081,10.217,10.217,0,0,1,2.686,1.5,18.981,18.981,0,0,1,4.131,3.892c.379.473.8.485,1.233.9.387.374.677.836,1.056,1.214a6.406,6.406,0,0,0,2.029,1.48,7.139,7.139,0,0,0,2.7.339c1.5.033,3.06-.085,4.55.026a17.3,17.3,0,0,1,1.141-5.085c.06-.154.463-.982.45-1.046-.085-.42.619-1.369.8-1.756q.644-1.409,1.349-2.791.883-1.732,1.857-3.415c.323-.559.694-1.1,1-1.67.079-.149.692-.96.686-1.023a.541.541,0,0,1,.218-.546c-.039-.169.011-.18.136-.273a.932.932,0,0,1,.246-.355c.1-.06.453-.851.562-1.011.266-.392.5-.77.779-1.155a17.905,17.905,0,0,1,2.321-2.6,3.118,3.118,0,0,1,.8-.583,1.852,1.852,0,0,1,1.983.43c1.227.518-.288,3.207-.461,4.049l.939-1.4a25.358,25.358,0,0,1,1.435-2.2,2.686,2.686,0,0,1,1.175-.966,1.342,1.342,0,0,1,1.139.048c.893.488.9,1.683.742,2.547L61.935,1.7a4.255,4.255,0,0,1,.819-.719c1.1-.671,1.973.3,1.792,1.424A10.964,10.964,0,0,1,66.431.9c.007.038-.034.056-.055.082A2.645,2.645,0,0,1,68.585.627a2.929,2.929,0,0,1,1.507,2.459c.166,3.906-1.151,8.093-1.229,11.995,0,1.612-.075,3.2-.082,4.782-.074,1.4-.895,4.391,1.093,4.563.066.006.42.349.565.392a6.148,6.148,0,0,0,1.347.076q1.41.071,2.814.23a42.957,42.957,0,0,1,5.445.921c1.55.381,3.695.812,4.938,1.878.481.233.9-.03,1.394-.109.194-.324.712-.233,1.011-.246a1.018,1.018,0,0,1,.9-.219c.262-.374.986-.194,1.475-.355v-.082c1.1.262,2.125-.32,3.278-.136.319.66.857.994.847,1.885.193-.02.2-.211.438-.055a.628.628,0,0,1,.464-.246v-.082c1.05-.158,1.4-1.2,2.432-1.448.479.518-.446.805-.765,1.12-.366.471-1.038.6-1.476.929a25.7,25.7,0,0,0,2.814-.164c.521.349,0,.83-.519.6a12.65,12.65,0,0,1-2.267.136c.187.423.8.515.956.929.244.056.3.266.437.437.3.126.339.405.519.629-.28.576-.512.269-.85-.077-.152-.156-2.174-1.964-2.155-2.027-.077.254.241.588.027.847.066.205.1.227,0,.41.024.2-.132.582.027.765-.043.108-.082.171,0,.246a.663.663,0,0,1-.082.3c-.52.659-1.541.486-2.35.656a31.763,31.763,0,0,0-3.716,1.038,11.876,11.876,0,0,0,2.049,1.011,8.381,8.381,0,0,0,1.8,1.175c1.33.882,1.785.6,1.394,2.541.125.118.587-.106.737-.273.3-.017.557-.179.82-.191-.032-.12.2-.066.218-.082.095-.05.208-.181.328-.11.238-.139.459-.6.71-.492.4,1.233-1.5,1.037-2.076,1.722.185.239.532.166.656.465.358.076.439.3.82.3.65.423.786.153.956.847-.162.026-.271.151-.328.164-.106-.03-.118-.062-.246-.027a20.846,20.846,0,0,0-2.159-1.175c0,.547.55.878.738,1.339.031.356.825,2.213-.137,1.558-.2-.021-.1-.295-.136-.383-.078-.242-.331-.419-.191-.683a8.257,8.257,0,0,1-.9-1.667c-.176.227.007.707-.246.956-.012.2.026.551-.137.629.079.395-.308.482-.6.492-.037-.219-.2-.162-.383-.11-.065-.385-.593-.508-.874-.465a10.971,10.971,0,0,1-1.477-.479q-1.161-.3-2.343-.516a27.3,27.3,0,0,0-6.775-.369c-.9.064-1.783.175-2.673.289a14.224,14.224,0,0,1-2.24-.248,8.475,8.475,0,0,0-2.421.632c-.7.2-1.359.537-2.064.672a13.753,13.753,0,0,0-2.319.391,6.111,6.111,0,0,0-1.97,1.6,16.52,16.52,0,0,0-3.724,5.515c-.613,1.024-1.04,2.04-1.722,3.06a7.8,7.8,0,0,1-.437.847c-.12.281-.008.661-.3.82-.107.129-.022.5-.246.492a26.215,26.215,0,0,0-2.076,3.688,32.552,32.552,0,0,1-3.634,4.591c-.134-.039-.07.054-.109.136a2.764,2.764,0,0,1-1.147.546c-.163.01-.448.263-.621.326a4.15,4.15,0,0,1-.806.15,1.77,1.77,0,0,1-1.579-.238,1.887,1.887,0,0,1-.568-1.017,3.352,3.352,0,0,1-.029-1.515c.066-.283.525-1.173.3-1.449C49.332,58.68,49.1,59.192,49.026,59.589Zm6.291.321q1.459-2.069,2.79-4.223Q59.585,53.3,60.9,50.812q.643-1.215,1.246-2.452A24.548,24.548,0,0,1,64.8,44.007c1.033-1.326,2.245-2.791,3.895-3.3.2-.018.485.065.573-.192a6.8,6.8,0,0,0,2.022-.218c-.012-.143.189-.028.246-.055.139-.069.294-.307.465-.192.23-.266.63-.2.82-.492.218.1.272-.163.492.027.865.146,1.513-.879,2.388-.539.173.068.328.176.5.238a.537.537,0,0,0,.528-.053l-.015.156a22.222,22.222,0,0,1,3.575-.36,26.9,26.9,0,0,1,7.355.545c.4.073,3.946.548,3.946.969v.082c.208-.066.264.019.382.11-.011-1.228.781-2.319.41-3.689-1.821-1.1-3.448-2.581-5.628-3.115-.521-.129-.121-.641.1-.758a8.026,8.026,0,0,1,1.97-.475c.858-.2,1.7-.464,2.564-.652.575-.125,1.473.04,1.927-.411a6.267,6.267,0,0,0,.027-1.461,6.64,6.64,0,0,0-.137-1.984,1.487,1.487,0,0,0-.363-.744c-.449-.427-1.849-.083-2.413-.029a10.041,10.041,0,0,0-2.852.611c-1.036-.072-1.989,1.133-2.677.546a5.282,5.282,0,0,0-1.667-.847v-.082c0-.228-2.406-.851-2.685-.93-.944-.268-1.9-.484-2.867-.66a45.991,45.991,0,0,0-5.9-.614l-1.862-.2c-.535-.057-.87-.321-1.362-.412v-.082c-1.354-1.017-.762-3.663-.492-5.11a63.976,63.976,0,0,1,.11-6.5c.507-2.836.934-5.94,1.257-8.689a7.925,7.925,0,0,0-.11-1.967c-.523-.83-.94-1.634-2.076-1.148v.082a3.174,3.174,0,0,0-2.022,1.366c-1.822,1.789-2,6.1-2.623,8.661-.16.656-.793-.5-.759-.846a8.768,8.768,0,0,1,.483-1.423,13.419,13.419,0,0,0,.3-1.473c.237-1.531.685-2.627.847-4.153.221-.021.643-2.114.109-2.049V1.419c-.854,0-1.192.861-1.8,1.257-.964.9-1.713,1.886-2.568,2.842a.917.917,0,0,1-.355.6c-.24.746-.388,1.507-.6,2.241-.685,1.133-.812,2.568-1.557,3.634-.277-.026-.655-.382-.492-.71.143-.006.287-.123.218-.273.086,0,.037.047.082-.027-.161-.1-.032-.238.055-.3a.655.655,0,0,1,.246-.656c-.126-.159.087-.442.218-.546,0-.307.247-.584.3-.874-.124-.056.051-.584.191-.6-.011-1.165.908-2.109.847-3.279h.082a1.581,1.581,0,0,0-.109-.984c.177-1.071-.728-1.291-1.475-.792a16.6,16.6,0,0,0-2.221,3.022A12.469,12.469,0,0,0,52.906,9.1c-.119.5-.7,1.4-.437,1.94-.143.074-.348.106-.273.3.02.054-.475-.074-.542-.156-.222-.269-.039-.357.031-.6.194-.671.4-1.375.583-2.067a24.1,24.1,0,0,1,.979-2.56,3.764,3.764,0,0,0,.534-1.827c.091-.1.145-.221.055-.328-.06-.071.022-.547-.125-.737a1.212,1.212,0,0,0-.888-.405,1.946,1.946,0,0,0-1.211.432,5.8,5.8,0,0,0-.915.935c-.146.126-.441.541-.551.6-.241.18-.6.524-.628.793A15.917,15.917,0,0,0,47.2,9.069c-.893,1.411-1.647,2.806-2.568,4.317a14.746,14.746,0,0,1-1.284,2.623c-.053.284-.349.726-.437,1.093-.145.264-.628.836-.574,1.038a15.654,15.654,0,0,0-.956,2.1c0,.489-.413,1.053-.437,1.5-.04.069-.012.042-.109.055-.08.992-.815,1.985-.546,2.9H40.2c-.195.6.414,1.483-.539,1.487a35.839,35.839,0,0,1-6.793-.15,3.839,3.839,0,0,1-1.362-.569,10.214,10.214,0,0,1-1.54-1.322c-.472-.463-.941-.93-1.417-1.39-.158-.153-.862-.977-1.054-.952-.219.027-1.452-1.456-1.65-1.647-1.353-1.308-3.7-3.994-5.864-3.353-1.728-.45-5.152,2.141-6.2,3.361-.126.035-.219.038-.246.192-.326.153-.476.453-.711.656,0,.182-.3.2-.246.437-.219.024-.162.3-.383.328-.078.1-.133.218-.273.246a.3.3,0,0,1-.191.246c-.115.161-.019.408-.164.574-.224.356-.689.82-.683,1.284a6.846,6.846,0,0,0-.465,3.99,2.928,2.928,0,0,0-.246.792.863.863,0,0,0-.273.437c-.235.236-.718.4-.874.683C6.8,31.077,4.007,31.708,2,33.2c.111.014.223-.089.328-.109.046.242.231-.018.328.164.592-.182,1.51.21,2.13.246l2.054.12a4.738,4.738,0,0,1,.793.165c.217.051.534,0,.684.188a.412.412,0,0,1-.193.628,5.052,5.052,0,0,0-1.313.9c-.515.363-1.414.435-1.783.865.151.581-.386,1.324-.3,1.742s.527.553.9.588a3.914,3.914,0,0,0,.688-.008c.2-.017.509-.125.689-.022.578.06,1.158.105,1.735.178a3.246,3.246,0,0,1,.611.207c.242.081.492.138.734.218a6.8,6.8,0,0,1,.968.458c.689.357,1.363.746,2.044,1.119.3.163.581.679.86.911a4.482,4.482,0,0,0,1.03.657,7.8,7.8,0,0,0,2.72.561c2.767.162,5.453.331,8.226.252,1.864-.048,3.728-.105,5.592-.158a9.183,9.183,0,0,0,2.537-.242c.833-.262,1.689-.451,2.528-.692.474.241.3.667-.136.765-1.185,2.149-2.757,4.41-3.361,6.94a19.222,19.222,0,0,0-1.831,7.159c.1.589-.416,1.515.192,1.94.262.751,1.393,1.284,2.131,1.53l.026.078c.052.155.668-.029.748-.123.125-.149.665-.25.859-.379a2.886,2.886,0,0,0,.79-.8A11.1,11.1,0,0,0,37,57.048l.082.027a6.313,6.313,0,0,0,.383-1.065c.362-1.054,1.074-2.142,1.394-3.087a10.185,10.185,0,0,0,.9-2.268c1-.384.415.558.328,1.011a.816.816,0,0,0-.246.765,18.466,18.466,0,0,0-1.23,2.4,16.779,16.779,0,0,0-.519,3.251c-.175.154.137.4-.136.519a12.613,12.613,0,0,0,.055,2.186,2.016,2.016,0,0,0,3.306.082c.393-.462.515-.949.984-1.339.027-.15-.053-.212.136-.218.2-.348.308-.841.574-1.065.411-1.183.8-2.535,1.148-3.716a.731.731,0,0,0,.218-.656,1.825,1.825,0,0,0,.219-1.065c.007-.038-.016-.193.082-.164-.094-.1.006-.358.082-.492.1-.021.114-.087.136-.164.03-.017.314,0,.383,0,.367.466-.478,1.248-.218,1.694a14.785,14.785,0,0,0-.407,5.432,5.869,5.869,0,0,0,.8,2.693c.527.6,1.407.086,1.877-.364a5.573,5.573,0,0,0,.652-1.27c.236-.445.479-.885.735-1.318A26.422,26.422,0,0,0,49.982,56.3l.852-2.824a1.061,1.061,0,0,1,.2-.422c.48-.528.393.336.357.58a11.107,11.107,0,0,1-.325,1.407,10.179,10.179,0,0,0-.727,2.688c.021,1.094-.859,3-.328,4.1-.12,1.161,1.509.887,2.267.683a14.777,14.777,0,0,1,1.551-.963,5.753,5.753,0,0,0,1.467-1.607ZM.939,46.611c.092.755,1.079,1.405,1.174.382a1.486,1.486,0,0,1-.163-2.1c-.283.137-.458-.064-.684-.218.4.951-1.065,1.63-.164,1.5V46.2c-.071.016-.08.11-.163.136.106.082.308.24.409.027.1.079.223.029.246.137C1.375,46.68,1.215,46.64.939,46.611Zm.929-1.8c.5-.191.879-.8,1.284-1.257-.38.081-.54-.315-.819-.355-.235.411-.694.266-.957.574C1.1,44.219,1.391,44.62,1.867,44.807ZM4.3,35.135C3.476,35.1,3.281,36.167,3.205,36.8c.094.015.222.01.192.136.207.035.609.1.628.3a1.468,1.468,0,0,1-.847-.246.98.98,0,0,0,.219.847A.1.1,0,0,0,3.479,38c-.209.371.4.257.519.41-.115.171-.368.132-.546.055a6.153,6.153,0,0,1-.546,1.147c.265.03.242.231.492.219.017.1,0,.087.055.164-.494.048-.709-.47-.956.219a4.434,4.434,0,0,1,.3,1.229c.174.047.335-.029.355.192-.553.072-.512.892-.683,1.393a3.707,3.707,0,0,0,.683.383,3.791,3.791,0,0,0,.23-1.384c0-.217.039-.432.047-.648.011-.3-.166-.6-.1-.9a1.764,1.764,0,0,1,.409-.687c.036-.044.563-.52.565-.507a1.994,1.994,0,0,1,.136-.711,1.192,1.192,0,0,1,.109-1.448A2.323,2.323,0,0,0,4.3,35.135ZM2.878,37.048a1.792,1.792,0,0,0-.847.465c.477.173.642.387,1.065.519A1.7,1.7,0,0,1,2.878,37.048ZM14.736,21.283c3.156-2.212,6.723,2.215,5.328,5.246-.1-.013-.187.056-.136.164-.319.17-.469.776-.9,1.011-.459.056-.9.38-1.366.355a.348.348,0,0,1-.027.109c-.166-.05-.16.042-.273.082-.212.088-.517-.152-.629,0-.176.006-.241-.164-.328,0-.163-.289-.191-.044-.41-.109-.508-.242-1.364-.243-1.722-.874-1.431-1.584-.751-3.78-.191-5.3C14.29,22.026,14.649,21.391,14.736,21.283Zm4.754,4.808h.136a4.018,4.018,0,0,0,0-2.349H19.49c0-.212-.094-.206-.027-.355-.438-.254-.333-.9-.82-1.12-.26-.466-1.076-.629-1.585-.793-.062-.249-.364-.081-.519-.164-1.965-.1-3.046,2.912-2.268,4.563.11,1.609,1.911,1.48,3.088,1.749.425-.381,1.088-.251,1.5-.628C18.891,26.646,19.467,26.545,19.49,26.091Zm-4.016-1.229c-1.092-2.637,2.666-2.881,2.9-.41-.367.4.011,1.425-1.011,1.448-.088.121-.216-.021-.355,0-.111.141-.535.027-.683,0-.272-.33-.53-.343-.792-.765C15.548,25.008,15.658,24.84,15.474,24.862Zm27.35-8.716h-.055v-.027C42.817,16.136,42.8,16.123,42.824,16.146Z" transform="translate(-0.247 -0.247)"/>
      </g>
    </g>
    <rect id="Rectangle_159" data-name="Rectangle 159" class="cls-1" width="150" height="69" transform="translate(285 194)"/>
  </g>
</svg>
