<svg id="Group_272" data-name="Group 272" xmlns="http://www.w3.org/2000/svg" xmlns:xlink="http://www.w3.org/1999/xlink" width="107.807" height="37.823" viewBox="0 0 107.807 37.823">
  <defs>
    <style>
      .cls-1 {
        fill: none;
      }

      .cls-2 {
        clip-path: url(#clip-path);
      }

      .cls-3 {
        fill: #fff;
        fill-rule: evenodd;
      }
    </style>
    <clipPath id="clip-path">
      <rect id="Rectangle_92" data-name="Rectangle 92" class="cls-1" width="107.807" height="37.823"/>
    </clipPath>
  </defs>
  <g id="Group_199" data-name="Group 199" class="cls-2" transform="translate(0 0)">
    <path id="Path_166" data-name="Path 166" class="cls-3" d="M62.149,4.281c.484-.1,1.1.285,1.59.509A16.29,16.29,0,0,1,68.43,7.928,5.025,5.025,0,0,1,68.3,9.084a2.768,2.768,0,0,1-.9.128c-.131-.1-.035-.045-.257-.128-.49-1.236-2.578-2.294-3.851-2.7v.128c-.5.709-.737,1.515-1.284,2.183-1.028,1.254-2.322,2.32-3.469,3.469-.414.417-.724,1.12-1.289,1.36-.6.256-1.46-.076-.986-.86.339-.561.967-1.114,1.379-1.658,1.078-1.426,2.984-2.493,3.723-4.237.271-.639-.072-1.5.275-2.1a.738.738,0,0,1,.505-.391m12.332,6.83a.677.677,0,0,1,.25,0c.467.1,1.053.955.79,1.429s-1.454.4-1.945.483c-.871.156-3.487.5-3.606,1.7-.047.473-.127,1.923.454,2.131.333.119,1.062-.483,1.4-.578a6.045,6.045,0,0,1,2.217-.113,5.115,5.115,0,0,1,1.882.342c.787.51.81,2.022.6,2.809a16.735,16.735,0,0,1-1.157,2.6c-.157.338-.5,1.177-.385,1.284a24.664,24.664,0,0,0,3.852,5.777c.468.4,2.215,1.141,2.439,1.541.219.225.351.6.257.771-.152.462-.194.469-.771.513-.686.284-1.708-.868-2.182-1.284a18.91,18.91,0,0,1-4.493-5.778c-.225.081-.125.025-.257.129-1.083,1.167-1.537,3.309-3.466,3.6l-.771-.771a.729.729,0,0,1-.9.385c-.565-.085-.679-.211-.77-.77,1.74-1.68,1.33-5.048,1.137-7.2-.128-1.431-.332-2.853-.511-4.278-.091-.728-.64-2.234.036-2.819.426-.369,1.308-.087,1.833-.171A9.323,9.323,0,0,0,73,11.9a6.331,6.331,0,0,1,1.48-.788m-11.059.027,1.669.129c.269.4.525.439.642,1.027a1.49,1.49,0,0,0-.256.385c-.62.084-1.557-.026-2.311.129-1.366.281-2.941,1.13-2.953-1.027a3.738,3.738,0,0,1,2.182-.385c.21-.129.82-.123,1.027-.257M60.9,26.663c0,.008,0,.016.006.024a5.672,5.672,0,0,0,3.579-1.877.314.314,0,0,0,.1-.178c.01-.164-.2-.234-.355-.286a1.225,1.225,0,0,1-.794-1.338.315.315,0,0,1,.078-.175.362.362,0,0,1,.189-.077,2.341,2.341,0,0,1,.749-.067c.525.066,1.042.738,1.456,1.045.628.467,1.3.88,1.889,1.4a1.376,1.376,0,0,1-.09.851,1.711,1.711,0,0,1-.982.175,1.545,1.545,0,0,1-1.053-.748c.885,1.208-4.209,3-4.937,3.317l-.77-.129c-1.1-1.751-.617-4.658-.386-7.189.161-1.759-.5-2.675-.128-3.852a7.113,7.113,0,0,0,.118-2.489c-.057-1.169.14-1.426,1.362-1.388a19.621,19.621,0,0,1,4.426.8,2.659,2.659,0,0,1,.642,1.924,2.525,2.525,0,0,1-1.178,1.912c-1.11.707-1.384-.162-2.417-.241-.686.492-1.4.174-1.412,1.412.1.131.046.035.129.256h.514a4.922,4.922,0,0,1,1.926-.642,3.783,3.783,0,0,0,.514.771c-.081.225-.025.125-.129.257-.393,1.035-2.037,1.08-2.921.759-.01,1.936-.6,3.9-.119,5.778m3.3-11.031.128.129a1.394,1.394,0,0,1-.128.77v.256c-.9-.154-2.049-.455-2.825.129a1.8,1.8,0,0,1-.514-.129l.128-1.155a1.48,1.48,0,0,0,.386-.257,21.259,21.259,0,0,1,2.825.257m10.628,2.524a2.856,2.856,0,0,1-.86,2.979c-.633-.444-.726-1.3-.988-1.977-.075-.194-.687-.994-.681-1.09.049-.8,1.841-.509,2.246-.227a.879.879,0,0,1,.282.315m-3.739.779a.73.73,0,0,1,.118.083,5.905,5.905,0,0,1,.713,1.477c.151.3,1.395,2.461,1.139,2.712-1.116,1.094-1.555,3.2-2.953,3.98v.129H69.97a34.4,34.4,0,0,0,.514-8.474c.279.065.412-.009.6.093" transform="translate(-21.932 -1.667)"/>
    <path id="Path_167" data-name="Path 167" class="cls-3" d="M38.221,23.741c.665.146.766.4,1.156.771.011.4.076.516,0,.642-.382,1.071-1.536,1.6-1.926,2.825h.256c.76.568,3.522.47,4.364.642s.154,1.2-.3,1.351a5.732,5.732,0,0,1-1.874-.03c-.344-.02-3.588-.511-3.728-.3-.282.432-.9,1.443-1.49.964-.642-.52.517-2.287.846-2.759A20.418,20.418,0,0,0,37.173,25.7a6,6,0,0,1,1.048-1.962m2.054,11.427c-1.148-.075-2.293-.2-3.439-.312-.676-.065-3.506.242-3.071-1.22.262-.879,2.015-.537,2.658-.394,1.786.4,4.437.055,5.393,1.284.729.99-.511,2.352-1.027,2.953a25.14,25.14,0,0,0-2.953,4.75q-.128,1.091-.256,2.182c.827,2.565,6.68,1.167,8.474.257.61-.31,1.4-.373,1.669-1.028a5.266,5.266,0,0,1-1.1-1.462c.819-.565,2.9,1.084,2.639,1.976-.308,1.042-1.56,1.168-2.568,1.54-2.734,1.011-5.807,2.226-8.73.642-.73-.4-1.341-.648-1.669-1.412-1.543-3.6,3.681-6.779,3.98-9.757M27.693,33.876a5.3,5.3,0,0,1,2.655.643,3.718,3.718,0,0,1,1.657,2.931,4.868,4.868,0,0,1-1.059,3.35,4.227,4.227,0,0,1-1.461,1.158c-.261.123-1.694.677-1.92.4-.392-.484-.723-.381-.77-1.284l.128-.128c1.893.412,2.4-.844,3.467-1.926.147-1.41.321-3.053-.9-3.467a1.7,1.7,0,0,0-1.156-.256c-.509.745-.409,2.293-.385,3.595A12.488,12.488,0,0,1,26.8,40.817c-.225-.081-.125-.025-.257-.129-.369-.144-.236-.023-.385-.385.713-1,.439-2.509.28-3.633a6.507,6.507,0,0,1-.254-1.766c.134-.715.766-.992,1.515-1.028" transform="translate(-10.219 -9.277)"/>
    <path id="Path_168" data-name="Path 168" class="cls-3" d="M112.618,13.353a2.96,2.96,0,0,1,1.156.256c.4.133.375.124.513.514a1.11,1.11,0,0,1,.129.642c-.719.422-1.041.227-2.054.128v.257a2.407,2.407,0,0,0-.257,1.155l.129.129,1.541-.514c.361.611.515.87.256,1.541a15.1,15.1,0,0,0-2.182.77,6.419,6.419,0,0,0-.9,2.439,26.8,26.8,0,0,1,4.078.076c1.512.115,3.155-.1,3.467,1.748.367,2.171-.069,4.549-.277,6.724-.235,2.456-.693,4.85-1.141,7.271-.263,1.425-.336,2.813-2.148,2.8-.765-.007-2.133-1.738-2.141-2.427,0-.3.86.4.91.431a3.143,3.143,0,0,0,1.359.584c.778.1,1.276-5.822,1.339-6.384.131-1.175,1.278-8.734.459-9.022a11.869,11.869,0,0,0-5.787-.479,6.428,6.428,0,0,0-2.595.93c-.361.253-1.737,1.769-2.274,1.346-.131-.1-.035-.045-.257-.128a2.379,2.379,0,0,1-.385-1.412c.361-.689.059-2.779.385-4.109.288-1.169.187-2.616.514-3.98a34.68,34.68,0,0,0,.9-5.136c-.562-.338-.984-.989-.507-1.635.353-.477,1.049-.218,1.535-.291,2-.3,3.893-1.059,6.289-.9.431.029.547.825.444,1.136-.3.909-2.064.344-2.849.411a9.023,9.023,0,0,0-3.474,1.018,3.181,3.181,0,0,1,0,1.985A7.75,7.75,0,0,0,108.4,13.2a6.019,6.019,0,0,0,2.375.147.389.389,0,0,0,.283-.128.406.406,0,0,0,.041-.241,8.982,8.982,0,0,1,.237-2.341c.1-.426.317-.921.751-.976.5-.063.833.495.95.981.17.707-.412,1.9-.422,2.709m-1.926,1.669a3.688,3.688,0,0,1-.129,1.156,1.872,1.872,0,0,1-1.027-.257c-.73-.027-.975-.03-1.156.514-.082.191-.16.055,0,.257.013.69.113.864.642,1.027a1.91,1.91,0,0,0,1.155.257,18.126,18.126,0,0,1-.514,2.825,8.437,8.437,0,0,1-2.439.9c.183-2.2.775-4.443.9-6.548l2.567-.129m-9.747,2.2a4.33,4.33,0,0,1,1.4.244c1.344.367,1.859,3.124,1.627,4.242a2.147,2.147,0,0,1-2.249,1.756,4.737,4.737,0,0,1-2.776-.341c-.773-.564-.479-1.5-.582-2.319s-.49-1.424.08-2.061a10.794,10.794,0,0,1,1.343-1,2.052,2.052,0,0,1,1.155-.525m.5,1.528c.395.138.464.314.77.514a13.282,13.282,0,0,1,.257,2.055c-.015.579-.994.969-1.48.875-.981-.189-.408-1.108-.832-1.775-.459-.723.554-1.925,1.284-1.669m11.832,8.162a2.95,2.95,0,0,1,.749-.073c.8,0,2.012,4.422,1.4,4.911-1.365,1.087-1.73-2.065-1.784-2.6-.1-1.017-1.334-1.973-.364-2.24m-4.006.048c.735-.585,1.353.608,1.493,1.227a5.268,5.268,0,0,1-.2,3.145,2,2,0,0,1-.642.129,1.7,1.7,0,0,1-.257-1.028c-.448-.67-1.131-2.751-.481-3.392a1.21,1.21,0,0,1,.091-.081m-3.936.4c.51-.144.807.111,1.356.663.439.441,1.471,1.778.91,2.434-.6.7-1.205-.2-1.548-.609-.16-.189-1.708-1.978-1.269-2.235a2.427,2.427,0,0,1,.552-.253m-4.675.788a2.937,2.937,0,0,1,1.376.642,5.666,5.666,0,0,1,1.977,3.06c-.1.131-.045.035-.128.257-.439.026-.557.117-.77,0a7.169,7.169,0,0,1-1.952-1.73,5.1,5.1,0,0,1-.924-1.322c-.283-.741-.006-.949.421-.906" transform="translate(-38.349 -2.6)"/>
    <path id="Path_169" data-name="Path 169" class="cls-3" d="M5.52,6.466A7.525,7.525,0,0,1,3.595,6.6,1.561,1.561,0,0,1,3.21,5.439l.385-.129A3.851,3.851,0,0,1,5.52,5.054a14.861,14.861,0,0,1,.77-3.467A6.047,6.047,0,0,0,4.26,1.432c-.522.009-1.515.338-1.967.138C1.3,1.132,2,.693,2.621.593c.8-.128,1.6-.241,2.386-.417C6.6-.179,8.637.542,10.014.3A8.358,8.358,0,0,1,13.738.175c.272.419.628.836,0,1.156-.529.385-4.686.144-6.034.129a16.744,16.744,0,0,0-.771,3.466,8.433,8.433,0,0,0,2.311.129,1.154,1.154,0,0,1,.771-.77c.211.175.923.977,1.027,1.027h1.027c1.022,0,2.5.458,2.568,1.669a3.625,3.625,0,0,1-.129,2.439A10.163,10.163,0,0,1,12.5,12.976c-1.371,1.384-2.47.512-4.154.809a22.732,22.732,0,0,1-3.436.244,12.49,12.49,0,0,1-2.614-.019c-1.442-.277-.685-.8-1.008-1.894C.893,10.79.071,9.394,0,7.75a1.694,1.694,0,0,1,1.027-.256,1.919,1.919,0,0,1,.642,1.669q.45,1.669.9,3.338a23.218,23.218,0,0,0,5.393-.256c.991-.141,2.191.445,3.082-.129A3.425,3.425,0,0,0,12.961,9.6a8.231,8.231,0,0,0,.267-1.791c.05-1.077-.451-1.1-1.417-1.086A2.747,2.747,0,0,0,10.528,6.6l-.129.128c.035,1.806-.787,3.921-2.439,4.109-.131-.1-.035-.046-.256-.129C7.836,9.43,8.876,8.255,8.987,6.466H8.73a4.26,4.26,0,0,0-1.8-.129A6.9,6.9,0,0,0,6.8,8.264c-.462.76-.42,2.723-.77,3.595a2.334,2.334,0,0,1-.77.129L5.135,11.6c-.479-.734.292-4.137.385-5.135m6.163,14.765c-.013.142.949-.182,1.051-.213,1.021-.3,1.008.4,1,1.368a1.479,1.479,0,0,1-.9.256,10.084,10.084,0,0,1-1.926,0C10.494,24.2,8.958,25.092,8.6,26.367c1.049.412,3.088,1.365,3.209,2.693.09.977-2.064-.4-2.218-.5-1.321-.837-2.7-1.577-4.073-2.324-.618-.337-1.356-.4-1.669-1.027-.228-.246-.244-.4-.257-.9a7.2,7.2,0,0,0,1.412-2.825c-1.337-.155-2.711.282-3.723.129A2.312,2.312,0,0,0,.9,21.1a2.354,2.354,0,0,0,.129-.771l.128-.128a40.44,40.44,0,0,1,4.365,0l.129-.129A42.208,42.208,0,0,1,6.8,14.683c.194-.253.448-.236.9-.256.305.456.495.46.513,1.284-.49.645-1.07,3.756-1.155,4.75h.256a5.842,5.842,0,0,0,2.7.514l.128-.385c.3-.458.132-1.144.642-1.412a1.388,1.388,0,0,1,.77-.129c.269.43.536.532.642,1.156a1.508,1.508,0,0,0-.514,1.027M9.372,22.386c.324.532-1.449,2.667-1.669,3.338A5.267,5.267,0,0,1,5.52,24.569a11.552,11.552,0,0,1,1.027-2.825,6.794,6.794,0,0,1,2.825.642" transform="translate(0 0)"/>
    <path id="Path_170" data-name="Path 170" class="cls-3" d="M168.294.771a4.012,4.012,0,0,1,1.944.243c.892.508,2.547,3.028,2.187,4.739a10.881,10.881,0,0,1-1.7,4.01c-.649.9-1.875,1.184-1.944,2.673.968,1.078.858,3.589.851,5.589a1.647,1.647,0,0,1-1.215.364c-.23-.247-.348-.227-.486-.607-.415-.7.493-1.632.243-2.795-.334-1.55-1.357-2.621-1.094-4.01,1.506-.562,4.59-4.074,4.131-6.319a5,5,0,0,0-1.823-2.673h-.851c-.848.785-1.7,1.137-1.944,2.552A1.708,1.708,0,0,1,167.2,6c-.479.319-.545.478-1.215.364a3.381,3.381,0,0,1-.486-1.944,2.854,2.854,0,0,0,.243-1.337c.576-.394.669-1.034,1.094-1.579l.972-.608c.283-.024.344-.023.486-.121m0,21.629h.729c.679.963.59,2.12-1.094,2.066-.316-.469-.572-.523-.608-1.337.258-.177.3-.345.608-.486.093-.083.271-.16.364-.243" transform="translate(-64.668 -0.299)"/>
  </g>
</svg>
