<svg id="Group_271" data-name="Group 271" xmlns="http://www.w3.org/2000/svg" xmlns:xlink="http://www.w3.org/1999/xlink" width="115.609" height="93.457" viewBox="0 0 115.609 93.457">
  <defs>
    <style>
      .cls-1 {
        fill: none;
      }

      .cls-2 {
        clip-path: url(#clip-path);
      }

      .cls-3 {
        fill: #fff;
        fill-rule: evenodd;
      }
    </style>
    <clipPath id="clip-path">
      <rect id="Rectangle_87" data-name="Rectangle 87" class="cls-1" width="115.609" height="93.457"/>
    </clipPath>
  </defs>
  <g id="Group_176" data-name="Group 176" class="cls-2">
    <path id="Path_127" data-name="Path 127" class="cls-3" d="M89.664,35.38c-.452-.171-.785-.064-1.231-.216a10.342,10.342,0,0,1-2.527-1.338c-.363-.253-.861-.312-1.16-.627-2.363-2.494-4-8.225-3.233-12.634.141-.811-.282-1.217-.23-1.807.172-1.956,1.161-5.326,2.383-6.35C83.395,11.027,82.248,10.17,81.8,9q-.09-.55-.18-1.1c-.234-.614-.631-1.275-.85-1.965q-.043-.605-.087-1.21a11,11,0,0,0-.842-1.864c.052-.427.187-.441.353-.735,1.141.047,1.557,1.18,2.253,1.763A20.543,20.543,0,0,0,85.429,5.9l.929.237c1.027.566,2.034,1.482,3.362,1.685.44.144,1.218-.526,1.67-.727a10.8,10.8,0,0,1,3.8-.677c1.135.059,2.68-.118,3.751.036l3.736-.166c.625.1,2.763.675,3.276.475a26.378,26.378,0,0,0,2.505-1.8l1.181-.489c1.985-1.04,4.047-2.384,4.952-4.406A4.3,4.3,0,0,1,115.5,0l.108.093c.059,3.089-1.979,5.87-3.268,8.135-.23.4-.265.875-.519,1.253.149,1.087,2.091,2.64,1.491,3.844.14.219.189.189.425.273.235,3.114.33,6.537-.568,9.057-.42,1.178-1.371,1.99-1.908,3.074-.39.787-.416,1.635-.842,2.391-.407.722-1.137,1.266-1.584,1.936a14.348,14.348,0,0,1-3,3.355c-1.22.946-3.127.955-4.643,1.649a17.6,17.6,0,0,1-4.838,1.764l-.043.814c-.192.2-.165.306-.476.439-.243.116-.256-.027-.518-.166a9.677,9.677,0,0,1-.972,1.994c-1.506.064-2.926-1.036-3.967-1.641-.972-.565-1.96-.863-2.937-1.411-1.551-.87-3.077-1.992-4.565-2.916a41.1,41.1,0,0,0-11.994-4.815c-1.346-.338-2.492-.174-3.981-.425a19.972,19.972,0,0,0-7.365.426c-1.785.522-3.434.314-5.1.871-5.328,1.779-10.662,3.165-15.3,5.552-1.895.974-3.605,2.255-5.334,3.319-.7.433-1.422.558-2.16.965a20.267,20.267,0,0,0-6.58,5.738c-.418.576-1.146,1-1.5,1.627-.46.809-.251,1.844-.612,2.779-.094.243-.44.593-.547.849a23.9,23.9,0,0,0-1.217,4.24c-.3,1.456-.166,3.216-.8,4.413-.955,1.807-2.728,2.342-4.73,3.276a3.957,3.957,0,0,1-2.282.67c-.139-.028-.487-.228-.627-.259l-1.526-.094a21.041,21.041,0,0,1-5.746-5.262A14.212,14.212,0,0,1,3.924,56.1c-.414-.731-.438-1.653-.778-2.376C2.2,51.709,1.232,49.745,2.412,47.7c.685-1.188,1.857-1.576,3.182-2.253a31.338,31.338,0,0,1,2.937-1.426l1.015.029.187-.216c.815-.265,1.974.433,2.476.634a5.636,5.636,0,0,1,1.879.778c.891.853,2.3,4.471,2.355,6.011a5.965,5.965,0,0,1-2.218,1.577l-1.5.209a2.1,2.1,0,0,1-1,.172c-1.052-.317-1.623-1.124-2.448-1.648a1.721,1.721,0,0,1,.23-1.029,6.238,6.238,0,0,1,2.4-.476c-.055-.2-.038-.192-.122-.295-.337-.362-.981-.407-1.368-.712-1.193.094-1.4.794-1.922,1.454a4.04,4.04,0,0,0,.857,2.066l.367.886a3.027,3.027,0,0,0,1.994.971c.433.091,1.167.462,1.743.281a4.736,4.736,0,0,0,3.188-4.989,4.851,4.851,0,0,0-.094-1.31c-1.024-2.669-2.674-4.917-5.371-5.694a8.407,8.407,0,0,0-5.241.375c-.868.517-1.585,1.4-2.39,1.994C2.609,45.768,1.333,46.644,1,47.8c-.706,2.451.576,4.952,1.592,6.673.549.929.729,2.014,1.224,2.951A10.513,10.513,0,0,0,6.034,60.1,12.536,12.536,0,0,1,7.15,61.54a10.492,10.492,0,0,0,4.24,2.635l2.239.144c1.572.409,3.4.819,5.047,1.159a9.818,9.818,0,0,1,2.563.424c1.611.846,4.138,4.182,5.177,5.809.21.329.152.7.374.986a16.487,16.487,0,0,0,4.226,3.851c.768.428,1.631.516,2.4.943a31.323,31.323,0,0,0,4.738,2.5c4.122,1.42,10.007.1,15.478-.3a74.884,74.884,0,0,0,19.977-3.961c1.05-.363,1.974-.329,2.987-.72s2.19-.88,3.153-1.238a18.2,18.2,0,0,0,2.39-.576l.18-.317.612.057a24.593,24.593,0,0,0,2.765-1.008,24.258,24.258,0,0,0,3.384-2.268c1.232-.762,2.467-1.176,3.606-1.98.735-.519,1.333-1.3,1.994-1.865a27.2,27.2,0,0,0,5.457-5.861c.278-.431.839-.688,1.137-1.094a46.789,46.789,0,0,0,4.319-6.185c1.778-3.5-.052-9.808-2.1-12.411-.74-.938-1.893-1.065-2.952-1.612a10.241,10.241,0,0,1,.691-3.088l.612.057a4.043,4.043,0,0,1-.439,2.361c.554.657,2.069,1.221,2.671,1.936a17.791,17.791,0,0,1,2.988,6.371l-.021,1.116a10.281,10.281,0,0,1-.612,5.615c-.292.6-.858,1.147-1.2,1.706a39.953,39.953,0,0,1-4.067,5.457,15.479,15.479,0,0,0-1.094,1.7,23.975,23.975,0,0,1-4.456,4.269c-1.741,1.409-3.386,3.453-5.882,4.168.085.763.378,1.67.36,2.2a7.961,7.961,0,0,0,.166,2.318c.07.309-.129.765.086,1.209l.324.281a1.17,1.17,0,0,1-.137.921,9.072,9.072,0,0,0,.476,2.4c.142.6,1.627,1.05,2.218,1.26,1.841.656,3.255,1.875,4.859,2.793.116,1.236-1.125,1.407-2.225,1.476a3.036,3.036,0,0,0,1.829,1.49c.079.27.189.457.05.705-.087.238-.157.231-.273.425-1.565.141-2.732.6-4.427.418l-1,.173-.223-.288c-.556-.222-1.294-.049-2.044-.259S88.2,87.226,87.479,87c-.575-.183-4.034-.457-4.471-.187-.426-.052-.44-.188-.734-.353a15.825,15.825,0,0,1,.562-3.484c.178-.74-.286-1.475-.144-2.015.06-.23.39-.283.475-.439L83.03,78.6c.17-1.157-.528-3.054-.72-4.406L82.2,74.1a22.708,22.708,0,0,0-4.946,1.67c-1.243.5-2.674.6-3.772,1.08-1.215.531-2.8.428-3.765,1.181l-.3.122c.02.739-.09,1.441.122,1.713.1,2.071,1.839,1.226,2.981,2.016a1.105,1.105,0,0,1,.238.489,1.747,1.747,0,0,0-.266.526,5.709,5.709,0,0,1-1.2.187,1.441,1.441,0,0,0,1.174.828c.078.27.189.457.05.705-.026.1-.053.206-.079.31-.746.092-1.409-.074-2.13-.05-.553.018-.61.454-.986.374l-.331-.381a10.852,10.852,0,0,0-1.332-.209c-.964-.171-2.137.038-2.944-.093-.286-1.171.237-4.078-.461-5.032,0-.067-.01-.135-.014-.2-.508.213-1.383.032-2.009.245a23.339,23.339,0,0,1-5.017.662c-.716.074-2.586.593-3.117.324a1.869,1.869,0,0,0-.9.166c-.336.582-.071,1.523-.137,2.339-.1,1.193.156,3.439.137,4.752a44.807,44.807,0,0,0,4.557,1.4c.711.206,1.24.131,1.757.482a1.124,1.124,0,0,1-.245.828c-1.16.1-1.714.36-2.7.5.237.474.65.37,1.059.633.154.1.206.357.338.482a.675.675,0,0,1-.36.634c-.307.19-1.37-.1-1.822.029-2.527.707-5.8-.14-7.653.648a1.828,1.828,0,0,0-.424-.273c-.177-2.913.131-5.375-.476-8.07-.2-.869-.51-3.3-.267-3.729,0-.067-.01-.135-.014-.2-2.991.549-6.772.675-9.337-.244a26.862,26.862,0,0,1-3.038-1.4c-.522-.281-.879-.825-1.584-.9a3.05,3.05,0,0,0,.194,1.3q.058.806.116,1.612c.323.535,2.666,1.258,3.355,1.584a1.6,1.6,0,0,1-.044.813c-.277.208-1.176.186-1.5.31.61.725,1.849.311,1.137,1.742a16.049,16.049,0,0,0-2.426.072c-.046.015-.184.236-.288.223-.4-.049-.921-.338-1.346-.411-.776-.133-1.287.37-1.922.036l-.2.014a13.719,13.719,0,0,1-.058-5.061c.1-.681-.258-1.774.036-2.332q-.054-.756-.108-1.512c-.23-.419-1-.73-1.389-1.015-.314-.231-.5-.673-.778-.957a20.049,20.049,0,0,1-1.743-1.7c-.381-.5-.467-1.155-.828-1.663-1.18-1.659-2.6-3.905-4.4-4.851-.648-.342-1.191-.179-2.052-.36-1.6-.337-3.354-.746-4.939-1.065a27.333,27.333,0,0,1-2.959-.3c-2.681-.889-6.5-4.845-7.819-7.342Q2.417,56.256,1.8,54.73c-.409-.8-1.969-3.949-1.785-5.14a10.976,10.976,0,0,1,.259-2.045C.748,46.275,2.137,45.4,3.2,44.6c.694-.517,1.247-1.318,1.893-1.858.991-.827,5.287-1.249,6.746-.584l.331.382c.591.251,1.285.207,1.764.583a13.171,13.171,0,0,1,3.384,4.823,3.344,3.344,0,0,1,.108,1.512q.087.5.173,1a5.453,5.453,0,0,1-2.152,3.9c-.5.421-1.381,1.45-2.44,1.289-3.025-.46-5.131-2.078-5.256-5.5.392-.493,1.554-2.319,2.5-1.9a5.11,5.11,0,0,1,2.858,1.72c.132.418-.162.7-.23,1.029-.614.008-1.49-.287-1.828-.072a2.926,2.926,0,0,0-.9.166c.856,2.143,4,.429,5.364-.079a2.725,2.725,0,0,0-.4-1.39l-.051-.705A8.9,8.9,0,0,0,13.2,45.608c-.39-.312-.977-.291-1.454-.5a4.015,4.015,0,0,0-2.858-.3,24.273,24.273,0,0,0-2.843,1.318c-1.1.563-2.246.83-2.808,1.822-1.266,2.235.027,3.89.929,5.91l.411,1.49a13.7,13.7,0,0,0,1.879,2.2c1.8,2.173,3.831,4.693,7.429,4.737a5.945,5.945,0,0,0,1.872-.742c1.639-.733,2.957-1.2,3.765-2.6a8.32,8.32,0,0,0,.439-2.361,38.93,38.93,0,0,1,.835-3.909c.318-.95.888-1.951,1.216-2.822.437-1.158.293-2.3.878-3.3L24.3,45.016a25.443,25.443,0,0,1,3.1-3.463c2.057-1.647,4.583-2.708,6.9-4.14,1.342-.831,2.8-1.886,4.269-2.635.824-.422,1.607-.433,2.469-.886a77.76,77.76,0,0,1,11.641-4.378,49.394,49.394,0,0,1,5.3-.986c4.64-.974,9.62-1.214,13.664-.167,6.414,1.662,11.591,4.768,16.788,8.119.875.564,1.9.7,2.823,1.217.356.2.8.65,1.173.828.439.211.867.171,1.245.417.71-.12,1.018-1.354.965-2.095a15.06,15.06,0,0,1-4.968-1.469m-8-31.135a19.081,19.081,0,0,0,2.9,2.325c.736.361,1.475.448,2.189.856l.439.476c.408.234.84.189,1.152.525l.1-.007-.094.108a3.568,3.568,0,0,1-1.26.8c-.012-.168-.024-.336-.036-.5-.191-.326-.806-.254-1.145-.425-.638-.321-1.138-.981-1.713-1.3a.908.908,0,0,0-.712-.051c-.433.169-.49.351-.439.943.714.524.187,1.964,1.461,2.023a5.826,5.826,0,0,0,1.908-.238c0,.034,0,.068.007.1l-.1.007A21.992,21.992,0,0,1,84.4,11.342c-.489-.452-.561-1.149-.936-1.756-.15-.242-.532-.48-.662-.763q-.087-.5-.173-1c-.218-.593-.727-1.294-.943-1.857a3.612,3.612,0,0,1-.021-1.72m32.6-1.723a31.191,31.191,0,0,1-1.821,4.283A24.583,24.583,0,0,0,110.9,9.347l-.2.014c-.2-.336-.359-.835-.778-.957-.144.2-.079.147-.388.23-.616-.707-2.162-.611-2.635-1.433.768-.437,1.422-1.125,2.117-1.569.457-.292.908-.22,1.382-.5.287-.172.619-.6.958-.778.359-.184.689-.152.986-.375a8.66,8.66,0,0,1,1.922-1.454M112.2,4.9c-.014.9-1,1.945-1.195,3.125a3.988,3.988,0,0,1-2.484-.734c-.077-.169-.027-.1-.115-.195.114-.634.385-.361.863-.67.26-.167.319-.672.547-.849a4.829,4.829,0,0,1,2.268-.871c.077.169.027.1.115.194m.807,9.87a27.309,27.309,0,0,1-.524,6.825,3.918,3.918,0,0,0-.692.252c-.7.865-1.111,2.938-1.533,4.06a14.58,14.58,0,0,1-4.24,5.875c-1.336,1.068-2.847,1.348-4.715,2.059-1.787.68-4.335,2.35-6.954,1.916a31.487,31.487,0,0,1-5.082-1.662c-1.431-.489-3.02-.847-3.888-1.951-1.7-2.164-2.143-4.805-3.1-7.883-.6-1.923.338-3.5.244-5.082-.316-5.363,3.463-8.2,7.782-10.18,1.429-.655,3.169-1.7,5.061-1.476,1.613.193,3.094-.266,4.349-.108l1.713-.122,2.642.115.929.237c.1.07.1.339.23.389l1.116.021a11.574,11.574,0,0,1,4.542,2.613c.159.167.381-.046.612.057.489.22.971,1.272,1.145,1.843.245.808-.3,1.307-.367,1.951l.324.28.4-.029M94.033,12.882c.45.387.434,1.08.82,1.562a3.75,3.75,0,0,1-.259.626c-.21-.025-.2-.011-.31-.079-.527-.222-.5-1-.907-1.353-.307-.267-.817-.291-1.152-.526a4.134,4.134,0,0,0-3.47,2.477c-.457-.014-.44-.1-.727-.252-.074-1.415,2.5-3.153,4.125-3.233.573.374,1.372.342,1.879.778m12.4-.785c.49.256,1.1.675,1.591,1,.3.2.429.567.763.755a1.337,1.337,0,0,1-.144.821c-.809-.055-.769-.587-1.282-.922a5.391,5.391,0,0,0-3.621-1.058,7.844,7.844,0,0,0-1.67,2.146c-.457-.014-.44-.1-.727-.252a3.393,3.393,0,0,1,2.037-2.678,2.008,2.008,0,0,1,1.094-.281c.528.359,1.362.156,1.959.468m-.7,2.987c.077.17.027.1.115.195a2.509,2.509,0,0,1-.338.936c-.917.045-.755-.377-1.267-.72a1.057,1.057,0,0,1,.158-.619l.7-.152a2.948,2.948,0,0,0,.634.36M92.917,17.116a.873.873,0,0,0-.5.137A1.994,1.994,0,0,1,91.693,17c-.124-.931.048-1.137.929-1.181.446.5.647.618.295,1.3M99.591,21.2a3.835,3.835,0,0,1,2.455,4.586c-.2.624-.875,1.152-1.195,1.706-2.257.211-4.795,1.2-6.2-.266-.6-.626-.379-1.3-.677-2.383-.657-2.379,1.268-3.7,3.57-3.9.565.3,1.4.049,2.044.259m-1.562.821c.454.251,1.122.068,1.642.288.751.318,2.238,2.093,1.454,3.341-.3,1.168-2.07,1.3-3.348,1.353-.428.018-1.038.149-1.317-.007-.714-.17-.83-.693-1.3-1.123a23.352,23.352,0,0,1-.094-2.728c.29-.163.4-.489.662-.655a5.019,5.019,0,0,1,2.3-.468m-.856.77c.906,1.007-.012,2.955-.353,3.57-.657.013-.575-.185-.943-.439a6.82,6.82,0,0,1,.187-3.052c-.005-.068-.01-.135-.014-.2a3.426,3.426,0,0,1,.8-.159l.324.281m2.778.612a5.484,5.484,0,0,1-.2,2.851c-.169.077-.1.027-.195.115a2.173,2.173,0,0,1-.712-.05,5.209,5.209,0,0,0-.511-1.483,3.652,3.652,0,0,1,.245-2.246l.4-.029a2.791,2.791,0,0,0,.971.843M91.3,34.149a.969.969,0,0,0-.382.331c-.76-.075-1.013-.822-1.037-1.749.278-.341.249-.587.756-.763-.213-.693-.4-.468-.4-1.389.418-.474.509-.964,1.231-1.2-.107-.489-.211-.722.129-1.022.5-.327,2.431.116,3.448.057a20.728,20.728,0,0,1,4.572.18,20.718,20.718,0,0,0,3.024-.216c.014.882-.538.979-.8,1.577a8.885,8.885,0,0,1-.331,1.037c-.431.737-3.307,2.707-5.111,2.189-1.38-.4-3.779-2.11-4.3-3.441a1.43,1.43,0,0,0-.4.129A2.476,2.476,0,0,1,91.55,32l-.4.029a9.423,9.423,0,0,1,.152,2.117m2.5-4.737c.5.269,1.464-.155,2.124-.051a19.3,19.3,0,0,0,5.075.144c.005.067.01.134.014.2-.367.427-.559,1.042-1.014,1.389a7.416,7.416,0,0,1-1.167.691c-2.734,1.228-4.209-1.345-5.529-2.238,0-.033,0-.067-.007-.1l.5-.036m-2.584.691a2.429,2.429,0,0,1,.187,1.2,1.43,1.43,0,0,1-.4.129c-.109-.074-.031-.034-.209-.087a1.836,1.836,0,0,1-.144-.6c.2-.232.266-.483.562-.648m-.432,2.462a3.978,3.978,0,0,1-.014,1.217l-.209-.087c-.115-.244-.235-.517-.151-.7.024-.137.047-.273.072-.411l.3-.021M89.162,70.871a37.669,37.669,0,0,0,.476,5.234c.066.308-.217.465-.144.821a10.962,10.962,0,0,1,.468,3.715c-.295,2.34.849,4.284.346,6.256-.851-.237-1.75-.564-2.491-.835l-4.384-.4-.094-1.31a6.387,6.387,0,0,0,.295-2.959c.792-.479.349-2.657.23-3.866a21.1,21.1,0,0,1-.778-3.794,17.115,17.115,0,0,0,4.73-1.857c.5-.327.606-.848,1.346-1.009M32.73,84.935c-.651.072-1.721.079-1.951-.367a34.6,34.6,0,0,1,.143-3.657c.042-.323,0-.819.029-1.015.133-.8-.437-1.931.137-2.339.575.573.965.247,1.022,1.547a4.67,4.67,0,0,1,.065,2.326c-.041.279.115.452.144.6v1.418a10.543,10.543,0,0,1,.411,1.49m36.182-1.169-3.16-.28a1.547,1.547,0,0,1-.267-.893c.482-.693-.134-2.473-.353-3.52l3.391-.749q.029.4.058.806c-.451.846.227,3.4.331,4.636M52.485,92.032c-1.288.064-2.333-.024-3.743.065-.005-.067-.01-.135-.014-.2-.66-.909.085-2.343-.137-3.333-.56-2.488-.34-5.144-.936-7.429l1.008-.072c.452-.339,2.955-.323,3.621-.36,0,.068.01.135.014.2-.232.452,0,1.258-.072,1.828-.151,1.26.135,3.406-.05,4.968-.444.128-.705.269-.756.763.152.05.355.053.418.173.189.362-.139,1.006.007,1.519a14.066,14.066,0,0,1,.641,1.879" transform="translate(0 0)"/>
  </g>
</svg>
