<svg xmlns="http://www.w3.org/2000/svg" xmlns:xlink="http://www.w3.org/1999/xlink" width="159" height="42" viewBox="0 0 159 42">
  <defs>
    <style>
      .cls-1 {
        fill: none;
      }

      .cls-2 {
        clip-path: url(#clip-path);
      }

      .cls-3 {
        fill: #121212;
        fill-rule: evenodd;
      }
    </style>
    <clipPath id="clip-path">
      <rect id="Rectangle_58" data-name="Rectangle 58" class="cls-1" width="105.692" height="37.081"/>
    </clipPath>
  </defs>
  <g id="Group_259" data-name="Group 259" transform="translate(-180 -646)">
    <g id="Group_104" data-name="Group 104" transform="translate(27 -20.663)">
      <g id="Group_103" data-name="Group 103" transform="translate(170 669.663)">
        <g id="Group_102" data-name="Group 102" class="cls-2" transform="translate(0 0)">
          <path id="Path_132" data-name="Path 132" class="cls-3" d="M62.031,4.281c.475-.094,1.079.279,1.559.5a15.97,15.97,0,0,1,4.6,3.076,4.927,4.927,0,0,1-.126,1.133,2.714,2.714,0,0,1-.881.125c-.128-.1-.035-.044-.252-.125C66.449,7.778,64.4,6.74,63.154,6.346v.125c-.495.695-.722,1.485-1.259,2.14-1.008,1.229-2.276,2.275-3.4,3.4-.406.409-.71,1.1-1.263,1.333-.59.251-1.432-.075-.966-.843.333-.55.949-1.092,1.352-1.625,1.057-1.4,2.925-2.444,3.65-4.154.265-.626-.07-1.467.27-2.059a.724.724,0,0,1,.5-.383m12.09,6.7a.664.664,0,0,1,.245,0c.458.1,1.033.936.775,1.4s-1.426.388-1.907.474c-.854.153-3.418.487-3.535,1.671-.046.464-.125,1.886.445,2.089.326.116,1.041-.474,1.371-.567a5.926,5.926,0,0,1,2.174-.111,5.014,5.014,0,0,1,1.845.335c.771.5.794,1.982.585,2.754a16.408,16.408,0,0,1-1.134,2.549c-.153.332-.488,1.154-.378,1.259A24.18,24.18,0,0,0,78.384,28.5c.459.389,2.171,1.118,2.391,1.511.215.22.344.585.252.756-.149.453-.19.46-.756.5-.673.278-1.675-.851-2.14-1.259a18.538,18.538,0,0,1-4.405-5.664c-.221.079-.122.024-.252.126-1.062,1.144-1.507,3.245-3.4,3.525l-.756-.756a.715.715,0,0,1-.881.377c-.554-.083-.665-.207-.755-.755,1.706-1.647,1.3-4.949,1.115-7.058-.125-1.4-.326-2.8-.5-4.194-.09-.714-.627-2.19.035-2.764.418-.362,1.282-.085,1.8-.167a9.14,9.14,0,0,0,2.538-.931,6.207,6.207,0,0,1,1.451-.772M63.279,11l1.637.126c.263.391.515.43.629,1.007a1.461,1.461,0,0,0-.251.377c-.608.082-1.527-.026-2.266.126-1.339.275-2.883,1.107-2.9-1.007a3.664,3.664,0,0,1,2.14-.377c.205-.127.8-.121,1.007-.252M60.8,26.223c0,.008,0,.016.006.023a5.561,5.561,0,0,0,3.509-1.84.308.308,0,0,0,.094-.174c.01-.161-.194-.229-.348-.28a1.2,1.2,0,0,1-.779-1.312.309.309,0,0,1,.076-.172.355.355,0,0,1,.185-.075,2.3,2.3,0,0,1,.734-.066c.515.065,1.022.723,1.427,1.024.615.458,1.275.863,1.852,1.371a1.349,1.349,0,0,1-.088.834,1.678,1.678,0,0,1-.962.172A1.515,1.515,0,0,1,65.477,25c.868,1.184-4.126,2.936-4.841,3.252l-.755-.126c-1.083-1.717-.6-4.566-.378-7.048.158-1.724-.489-2.623-.125-3.776a6.974,6.974,0,0,0,.116-2.44c-.056-1.146.137-1.4,1.335-1.361a19.237,19.237,0,0,1,4.339.78,2.607,2.607,0,0,1,.63,1.886,2.475,2.475,0,0,1-1.155,1.874c-1.088.693-1.357-.159-2.369-.236-.673.483-1.37.17-1.385,1.385.1.128.045.034.126.251h.5a4.825,4.825,0,0,1,1.888-.63,3.709,3.709,0,0,0,.5.756c-.079.22-.024.122-.126.252-.385,1.014-2,1.059-2.863.744-.01,1.9-.587,3.827-.117,5.665m3.233-10.815.125.126a1.367,1.367,0,0,1-.125.755v.251c-.884-.151-2.009-.446-2.769.126a1.765,1.765,0,0,1-.5-.126l.125-1.132a1.451,1.451,0,0,0,.378-.252,20.841,20.841,0,0,1,2.769.252m10.419,2.475a2.8,2.8,0,0,1-.843,2.92c-.621-.435-.712-1.278-.969-1.938-.073-.19-.673-.974-.667-1.069.048-.789,1.805-.5,2.2-.222a.862.862,0,0,1,.277.309m-3.666.763a.717.717,0,0,1,.116.081,5.79,5.79,0,0,1,.7,1.448c.148.294,1.367,2.413,1.116,2.659-1.094,1.072-1.524,3.141-2.9,3.9v.126H69.7a33.729,33.729,0,0,0,.5-8.307c.274.063.4-.008.587.091" transform="translate(-22.603 -1.718)"/>
          <path id="Path_133" data-name="Path 133" class="cls-3" d="M37.984,23.741c.652.143.751.388,1.133.756.011.39.074.506,0,.629-.375,1.05-1.506,1.565-1.888,2.769h.251c.745.557,3.452.461,4.278.629s.151,1.173-.3,1.325a5.62,5.62,0,0,1-1.837-.03c-.337-.02-3.518-.5-3.655-.29-.277.423-.882,1.414-1.46.945-.629-.51.507-2.242.83-2.7a20.017,20.017,0,0,0,1.616-2.1,5.88,5.88,0,0,1,1.027-1.923M40,34.943c-1.126-.073-2.248-.2-3.371-.306-.663-.064-3.437.237-3.01-1.2.257-.862,1.975-.527,2.605-.386,1.751.391,4.35.054,5.287,1.259.715.971-.5,2.306-1.007,2.9a24.646,24.646,0,0,0-2.9,4.657q-.125,1.07-.251,2.14c.811,2.515,6.549,1.144,8.307.252.6-.3,1.374-.366,1.636-1.008a5.162,5.162,0,0,1-1.077-1.433c.8-.554,2.846,1.063,2.588,1.937-.3,1.022-1.53,1.145-2.518,1.51-2.681.991-5.693,2.182-8.559.63-.716-.388-1.315-.635-1.636-1.385-1.513-3.527,3.608-6.646,3.9-9.566M27.663,33.677a5.2,5.2,0,0,1,2.6.63,3.645,3.645,0,0,1,1.625,2.874,4.772,4.772,0,0,1-1.039,3.285A4.143,4.143,0,0,1,29.42,41.6c-.256.121-1.661.664-1.882.391-.385-.475-.709-.374-.755-1.259l.125-.125c1.856.4,2.353-.827,3.4-1.888.144-1.383.315-2.993-.881-3.4a1.667,1.667,0,0,0-1.133-.251c-.5.73-.4,2.248-.377,3.524a12.243,12.243,0,0,1-1.132,1.888c-.221-.079-.122-.024-.252-.126-.361-.141-.232-.022-.377-.377.7-.979.43-2.46.274-3.562a6.379,6.379,0,0,1-.249-1.731c.131-.7.751-.973,1.485-1.008" transform="translate(-10.532 -9.561)"/>
          <path id="Path_134" data-name="Path 134" class="cls-3" d="M112.334,13.222a2.9,2.9,0,0,1,1.133.251c.388.131.367.122.5.5a1.088,1.088,0,0,1,.126.63c-.7.414-1.021.222-2.013.125v.252a2.36,2.36,0,0,0-.252,1.132l.126.126,1.511-.5c.354.6.5.853.251,1.511a14.807,14.807,0,0,0-2.14.755A6.294,6.294,0,0,0,110.7,20.4a26.278,26.278,0,0,1,4,.075c1.482.113,3.093-.1,3.4,1.714a25.9,25.9,0,0,1-.271,6.592c-.23,2.408-.679,4.755-1.118,7.129-.258,1.4-.33,2.758-2.105,2.741-.75-.007-2.091-1.7-2.1-2.379,0-.291.843.391.892.422a3.082,3.082,0,0,0,1.333.572c.763.1,1.251-5.708,1.312-6.259.128-1.152,1.253-8.563.45-8.845a11.636,11.636,0,0,0-5.674-.47,6.3,6.3,0,0,0-2.544.912c-.354.248-1.7,1.735-2.229,1.32-.128-.1-.035-.044-.252-.125a2.333,2.333,0,0,1-.377-1.385c.354-.676.057-2.724.377-4.028.282-1.146.183-2.564.5-3.9a34,34,0,0,0,.88-5.035c-.551-.331-.965-.97-.5-1.6.346-.468,1.029-.213,1.5-.285,1.959-.3,3.817-1.039,6.165-.881.423.028.536.809.435,1.113-.3.891-2.023.337-2.793.4a8.846,8.846,0,0,0-3.406,1,3.119,3.119,0,0,1,0,1.946,7.6,7.6,0,0,0-.377,1.937,5.9,5.9,0,0,0,2.329.145.381.381,0,0,0,.277-.125.4.4,0,0,0,.041-.237,8.806,8.806,0,0,1,.232-2.3c.1-.418.311-.9.736-.957.486-.062.817.485.932.962.167.693-.4,1.867-.414,2.656m-1.888,1.636a3.616,3.616,0,0,1-.126,1.133,1.835,1.835,0,0,1-1.006-.252c-.716-.026-.956-.03-1.133.5-.081.188-.156.054,0,.252.013.677.111.847.63,1.006a1.873,1.873,0,0,0,1.132.252,17.771,17.771,0,0,1-.5,2.769,8.271,8.271,0,0,1-2.391.881c.179-2.155.76-4.356.881-6.419l2.517-.126M100.89,17.01a4.245,4.245,0,0,1,1.375.24c1.318.36,1.822,3.062,1.595,4.159a2.1,2.1,0,0,1-2.2,1.721,4.644,4.644,0,0,1-2.721-.334c-.757-.553-.469-1.469-.571-2.273s-.481-1.4.079-2.021a10.583,10.583,0,0,1,1.316-.977,2.012,2.012,0,0,1,1.132-.515m.494,1.5c.387.136.455.308.755.5a13.019,13.019,0,0,1,.252,2.015c-.015.568-.974.95-1.451.858-.962-.186-.4-1.086-.815-1.74-.45-.709.543-1.887,1.259-1.636m11.6,8a2.893,2.893,0,0,1,.735-.072c.784,0,1.972,4.335,1.371,4.814-1.339,1.066-1.7-2.024-1.749-2.547-.1-1-1.308-1.935-.357-2.2m-3.928.047c.721-.573,1.327.6,1.464,1.2a5.165,5.165,0,0,1-.2,3.083,1.962,1.962,0,0,1-.629.126,1.666,1.666,0,0,1-.252-1.008c-.44-.657-1.109-2.7-.472-3.325a1.189,1.189,0,0,1,.089-.079m-3.859.388c.5-.141.791.109,1.329.65.431.432,1.442,1.744.892,2.386-.584.683-1.181-.2-1.518-.6-.156-.185-1.675-1.939-1.244-2.191a2.38,2.38,0,0,1,.541-.248m-4.584.773a2.879,2.879,0,0,1,1.349.629,5.555,5.555,0,0,1,1.938,3c-.1.128-.044.035-.125.252-.43.026-.546.115-.755,0a7.027,7.027,0,0,1-1.914-1.7,4.994,4.994,0,0,1-.906-1.3c-.277-.726-.006-.93.413-.888" transform="translate(-39.522 -2.68)"/>
          <path id="Path_135" data-name="Path 135" class="cls-3" d="M5.412,6.34a7.378,7.378,0,0,1-1.888.126,1.53,1.53,0,0,1-.377-1.133l.377-.126a3.776,3.776,0,0,1,1.888-.251,14.57,14.57,0,0,1,.755-3.4A5.929,5.929,0,0,0,4.176,1.4c-.512.009-1.485.331-1.929.136-.971-.429-.29-.86.322-.958C3.351.456,4.135.344,4.909.172,6.467-.175,8.467.531,9.818.3a8.194,8.194,0,0,1,3.65-.126c.266.41.616.819,0,1.133-.519.377-4.594.141-5.916.126a16.416,16.416,0,0,0-.756,3.4,8.267,8.267,0,0,0,2.266.126A1.131,1.131,0,0,1,9.818,4.2c.207.172.9.958,1.006,1.006h1.007c1,0,2.449.449,2.518,1.637a3.554,3.554,0,0,1-.126,2.391,9.963,9.963,0,0,1-1.973,3.487c-1.345,1.357-2.421.5-4.072.793a22.287,22.287,0,0,1-3.368.239,12.245,12.245,0,0,1-2.562-.019c-1.414-.271-.671-.784-.989-1.857C.875,10.579.07,9.21,0,7.6a1.661,1.661,0,0,1,1.007-.251,1.881,1.881,0,0,1,.629,1.636q.441,1.636.881,3.273A22.763,22.763,0,0,0,7.8,12c.972-.139,2.148.437,3.021-.126a3.358,3.358,0,0,0,1.882-2.466,8.07,8.07,0,0,0,.262-1.756c.049-1.056-.442-1.076-1.389-1.064a2.693,2.693,0,0,0-1.259-.125l-.126.125c.035,1.771-.771,3.844-2.392,4.028-.128-.1-.035-.045-.251-.126.13-1.248,1.15-2.4,1.259-4.154H8.559A4.177,4.177,0,0,0,6.8,6.214,6.762,6.762,0,0,0,6.671,8.1c-.453.745-.412,2.67-.755,3.524a2.288,2.288,0,0,1-.755.126l-.126-.377c-.469-.719.287-4.056.377-5.035m6.042,14.475c-.013.139.931-.179,1.03-.208,1-.3.988.39.984,1.341a1.45,1.45,0,0,1-.881.251,9.886,9.886,0,0,1-1.888,0c-.41,1.526-1.917,2.4-2.266,3.651,1.029.4,3.027,1.339,3.146,2.64.088.957-2.024-.392-2.174-.487-1.295-.82-2.647-1.546-3.993-2.279-.606-.33-1.33-.394-1.636-1.007-.223-.241-.239-.395-.252-.881a7.063,7.063,0,0,0,1.385-2.769c-1.31-.152-2.657.277-3.65.126a2.266,2.266,0,0,0-.377-.5,2.308,2.308,0,0,0,.126-.756l.125-.125a39.647,39.647,0,0,1,4.28,0l.126-.126a41.379,41.379,0,0,1,1.132-5.287c.19-.248.44-.232.882-.251.3.447.485.451.5,1.259a16.468,16.468,0,0,0-1.132,4.657h.251a5.727,5.727,0,0,0,2.644.5l.125-.377c.29-.449.13-1.121.63-1.385a1.361,1.361,0,0,1,.755-.126c.263.421.525.521.63,1.133a1.478,1.478,0,0,0-.5,1.007M9.188,21.947c.317.522-1.42,2.615-1.636,3.273a5.163,5.163,0,0,1-2.14-1.133,11.325,11.325,0,0,1,1.007-2.769,6.661,6.661,0,0,1,2.769.63" transform="translate(0 0)"/>
          <path id="Path_136" data-name="Path 136" class="cls-3" d="M168.239.771a3.933,3.933,0,0,1,1.906.238c.874.5,2.5,2.969,2.144,4.646a10.667,10.667,0,0,1-1.668,3.931c-.637.881-1.838,1.161-1.906,2.621.949,1.057.842,3.519.834,5.48a1.614,1.614,0,0,1-1.192.357c-.226-.242-.342-.222-.476-.6-.407-.691.484-1.6.238-2.74-.327-1.52-1.33-2.57-1.072-3.931,1.477-.551,4.5-3.994,4.05-6.195a4.9,4.9,0,0,0-1.787-2.621h-.834c-.831.77-1.663,1.115-1.906,2.5a1.674,1.674,0,0,1,.6,1.429c-.47.312-.534.469-1.191.357a3.314,3.314,0,0,1-.477-1.906,2.8,2.8,0,0,0,.238-1.31c.564-.386.656-1.014,1.072-1.548l.953-.6c.277-.023.337-.023.477-.119m0,21.2h.715c.665.944.578,2.078-1.072,2.025-.309-.46-.56-.513-.6-1.31.253-.174.3-.339.6-.477.091-.081.266-.156.357-.238" transform="translate(-66.646 -0.308)"/>
        </g>
      </g>
    </g>
    <rect id="Rectangle_153" data-name="Rectangle 153" class="cls-1" width="159" height="42" transform="translate(180 646)"/>
  </g>
</svg>
