<svg xmlns="http://www.w3.org/2000/svg" xmlns:xlink="http://www.w3.org/1999/xlink" width="159" height="112" viewBox="0 0 159 112">
  <defs>
    <style>
      .cls-1 {
        fill: none;
      }

      .cls-2 {
        clip-path: url(#clip-path);
      }

      .cls-3 {
        fill: #121212;
        fill-rule: evenodd;
      }
    </style>
    <clipPath id="clip-path">
      <rect id="Rectangle_57" data-name="Rectangle 57" class="cls-1" width="97.706" height="73.098"/>
    </clipPath>
  </defs>
  <g id="Group_260" data-name="Group 260" transform="translate(-180 -688)">
    <g id="Group_101" data-name="Group 101" transform="translate(225 690)">
      <g id="Group_100" data-name="Group 100" class="cls-2">
        <path id="Path_130" data-name="Path 130" class="cls-3" d="M74.417,27.968c-.36-.167-.638-.1-.995-.249a8.492,8.492,0,0,1-1.99-1.244c-.282-.228-.686-.306-.912-.58-1.788-2.179-2.793-6.964-1.907-10.527.163-.655-.16-1.012-.083-1.492.256-1.59,1.262-4.291,2.321-5.057-.141-1.146-1.029-1.915-1.326-2.9q-.042-.456-.083-.912c-.156-.516-.442-1.081-.581-1.658V2.354A9.021,9.021,0,0,0,68.283.78c.068-.346.179-.349.332-.581.932.105,1.2,1.057,1.741,1.575A16.821,16.821,0,0,0,72.677,3.6l.746.249a8.47,8.47,0,0,0,2.653,1.575c.352.144,1.027-.358,1.409-.5a8.866,8.866,0,0,1,3.15-.332c.925.114,2.2.06,3.067.249l3.067.083a10.8,10.8,0,0,0,2.653.58,21.7,21.7,0,0,0,2.155-1.326l1-.332c1.685-.735,3.451-1.714,4.31-3.316a3.508,3.508,0,0,1,.746,0l.083.083C97.577,3.145,95.747,5.3,94.56,7.08c-.212.317-.268.7-.5.995.058.9,1.557,2.282.995,3.233.1.187.143.166.332.249.01,2.561-.112,5.368-.995,7.377a24.093,24.093,0,0,1-1.74,2.4c-.365.621-.437,1.313-.829,1.906-.375.568-1,.97-1.409,1.492a11.8,11.8,0,0,1-2.653,2.57c-1.053.7-2.614.6-3.9,1.077a14.436,14.436,0,0,1-4.062,1.16q-.042.332-.083.663c-.169.156-.153.241-.414.332-.205.081-.208-.037-.415-.166a7.918,7.918,0,0,1-.912,1.575c-1.236-.035-2.334-1.019-3.15-1.575-.762-.519-1.553-.82-2.321-1.326-1.218-.8-2.4-1.81-3.565-2.653a33.7,33.7,0,0,0-9.532-4.642c-1.081-.356-2.029-.288-3.233-.58a16.381,16.381,0,0,0-6.051-.083c-1.491.323-2.829.056-4.227.414-4.464,1.144-8.91,1.966-12.848,3.647-1.608.686-3.082,1.635-4.559,2.4-.6.313-1.2.374-1.823.663a16.617,16.617,0,0,0-5.72,4.31c-.376.446-1,.748-1.326,1.244-.424.635-.312,1.494-.664,2.238-.091.194-.395.46-.5.663a19.616,19.616,0,0,0-1.243,3.4c-.332,1.174-.324,2.623-.912,3.564-.888,1.423-2.37,1.757-4.062,2.4a3.244,3.244,0,0,1-1.906.414c-.112-.031-.385-.215-.5-.249L8.6,46.039A17.267,17.267,0,0,1,4.207,41.4,11.582,11.582,0,0,1,3.047,39.9c-.3-.622-.262-1.378-.5-1.989-.657-1.7-1.334-3.366-.249-4.974.629-.932,1.612-1.181,2.735-1.658a25.613,25.613,0,0,1,2.487-1l.829.083.166-.166c.683-.17,1.59.47,1.99.664A4.623,4.623,0,0,1,12,31.615a11.2,11.2,0,0,1,1.575,5.056,4.892,4.892,0,0,1-1.907,1.161l-1.243.083A1.735,1.735,0,0,1,9.6,38c-.843-.321-1.262-1.015-1.907-1.492a1.414,1.414,0,0,1,.249-.829,5.1,5.1,0,0,1,1.99-.249c-.033-.17-.021-.16-.083-.249-.255-.316-.779-.391-1.078-.663-.982.007-1.193.568-1.658,1.077a3.317,3.317,0,0,0,.58,1.741l.249.746a2.486,2.486,0,0,0,1.575.912c.349.1.928.446,1.409.332a3.885,3.885,0,0,0,2.9-3.9,3.993,3.993,0,0,0,0-1.077c-.682-2.244-1.9-4.18-4.062-4.974a6.9,6.9,0,0,0-4.311,0c-.74.373-1.379,1.055-2.072,1.492-.8.506-1.9,1.148-2.238,2.072-.721,1.965.181,4.086.912,5.554.395.793.479,1.69.829,2.487A8.61,8.61,0,0,0,4.539,43.3a10.322,10.322,0,0,1,.829,1.244,8.608,8.608,0,0,0,3.316,2.4l1.824.249c1.262.427,2.732.869,4.062,1.243a8.05,8.05,0,0,1,2.072.5c1.269.786,3.142,3.664,3.9,5.057.153.281.083.579.249.829a13.519,13.519,0,0,0,3.233,3.4c.6.395,1.3.517,1.907.912a25.639,25.639,0,0,0,3.73,2.321c3.29,1.4,8.183.664,12.682.663a61.432,61.432,0,0,0,16.578-2.072c.88-.235,1.635-.154,2.487-.414s1.843-.591,2.653-.829a14.889,14.889,0,0,0,1.99-.332l.166-.249.5.083a20.353,20.353,0,0,0,2.321-.663,19.872,19.872,0,0,0,2.9-1.658c1.053-.551,2.088-.818,3.067-1.409.632-.382,1.167-.983,1.741-1.409a22.313,22.313,0,0,0,4.808-4.476c.254-.337.727-.514,1-.829a38.426,38.426,0,0,0,3.9-4.808c1.66-2.762.531-8.029-1-10.279-.55-.811-1.486-.982-2.321-1.492a8.4,8.4,0,0,1,.746-2.487l.5.083a3.318,3.318,0,0,1-.5,1.907c.414.569,1.622,1.12,2.073,1.74a14.594,14.594,0,0,1,2.072,5.388q-.041.455-.083.912a8.432,8.432,0,0,1-.829,4.559c-.274.472-.769.889-1.077,1.327a32.825,32.825,0,0,1-3.648,4.227,12.808,12.808,0,0,0-.995,1.326,19.657,19.657,0,0,1-3.9,3.233c-1.507,1.052-2.973,2.628-5.057,3.067.025.629.212,1.389.166,1.824a6.533,6.533,0,0,0,0,1.906c.039.257-.151.618,0,1l.249.249a.961.961,0,0,1-.166.746,7.412,7.412,0,0,0,.249,1.99c.081.5,1.27.954,1.74,1.16a24.9,24.9,0,0,1,3.813,2.57c.023,1.018-1,1.085-1.906,1.077a2.488,2.488,0,0,0,1.409,1.326c.049.226.128.386,0,.581-.085.189-.142.179-.249.332a16.032,16.032,0,0,1-3.647.083l-.829.083-.166-.249c-.442-.214-1.056-.116-1.658-.332s-1.25-.6-1.823-.829a12.3,12.3,0,0,0-3.647-.414c-.346-.067-.349-.179-.581-.332a13,13,0,0,1,.664-2.818c.189-.6-.148-1.224,0-1.658.062-.184.335-.209.414-.332V62.948c.207-.936-.253-2.53-.332-3.647l-.083-.083A18.637,18.637,0,0,0,61.9,60.3c-1.047.338-2.224.335-3.15.664-1.025.363-2.317.186-3.15.746l-.249.083c-.027.606-.157,1.174,0,1.409-.043,1.7,1.433,1.111,2.321,1.824a.9.9,0,0,1,.166.414,1.421,1.421,0,0,0-.249.414,4.672,4.672,0,0,1-.995.083,1.18,1.18,0,0,0,.912.746c.049.226.128.386,0,.581l-.083.249c-.616.031-1.149-.143-1.741-.166-.453-.018-.526.336-.829.249l-.249-.332a8.921,8.921,0,0,0-1.077-.249c-.779-.2-1.752-.094-2.4-.249-.165-.974.433-3.322-.083-4.144v-.166c-.428.144-1.134-.055-1.658.083a19.142,19.142,0,0,1-4.145.249c-.59.019-2.15.334-2.569.083a1.54,1.54,0,0,0-.746.083c-.309.457-.147,1.243-.249,1.907-.148.97-.073,2.823-.166,3.9a36.6,36.6,0,0,0,3.647,1.409c.57.21,1.007.18,1.409.5a.923.923,0,0,1-.249.663c-.955.013-1.424.195-2.238.249.166.4.51.341.829.58.12.09.148.3.249.414a.554.554,0,0,1-.332.5c-.262.137-1.115-.16-1.492-.083-2.109.432-4.739-.453-6.3.083a1.492,1.492,0,0,0-.332-.249c.026-2.394.421-4.39.083-6.631a9.383,9.383,0,0,1,0-3.067v-.166a16.35,16.35,0,0,1-7.626-.746,22.08,22.08,0,0,1-2.4-1.326c-.41-.26-.671-.726-1.244-.829a2.516,2.516,0,0,0,.083,1.078v1.326c.234.457,2.108,1.186,2.653,1.492a1.313,1.313,0,0,1-.083.663c-.238.153-.973.083-1.243.166.457.629,1.494.362.829,1.492a13.162,13.162,0,0,0-1.989-.083c-.039.01-.165.182-.249.166-.321-.063-.734-.33-1.077-.414-.627-.154-1.074.227-1.575-.083h-.166a11.233,11.233,0,0,1,.249-4.144c.124-.551-.107-1.467.166-1.907V58.555c-.164-.357-.778-.656-1.078-.912a6.623,6.623,0,0,1-.58-.829,16.426,16.426,0,0,1-1.326-1.492c-.282-.435-.314-.972-.58-1.409-.868-1.426-1.9-3.349-3.316-4.228-.511-.317-.964-.216-1.658-.414-1.29-.369-2.7-.806-3.979-1.16a22.426,22.426,0,0,1-2.4-.414c-2.141-.885-5.035-4.345-5.968-6.466q-.414-1.285-.829-2.57C1.1,37.983.009,35.315.229,34.351A9.011,9.011,0,0,1,.56,32.693a6.354,6.354,0,0,1,2.57-2.238c.6-.383,1.1-1.006,1.658-1.409.86-.619,4.4-.713,5.554-.083l.249.332c.468.24,1.04.245,1.409.58a10.807,10.807,0,0,1,2.487,4.145,2.74,2.74,0,0,1,0,1.243q.041.414.083.829a4.477,4.477,0,0,1-1.989,3.067c-.432.315-1.215,1.106-2.072.912-2.448-.553-4.076-2-3.979-4.808.349-.381,1.407-1.806,2.155-1.409a4.188,4.188,0,0,1,2.238,1.575c.084.35-.174.563-.249.829-.5-.029-1.2-.322-1.492-.166a2.416,2.416,0,0,0-.746.083c.575,1.8,3.251.586,4.394.249a2.233,2.233,0,0,0-.249-1.16v-.58a7.315,7.315,0,0,0-1.327-2.818c-.3-.278-.782-.3-1.16-.5a3.293,3.293,0,0,0-2.321-.414,19.907,19.907,0,0,0-2.4.912c-.93.4-1.886.547-2.4,1.326-1.167,1.755-.206,3.186.414,4.891l.249,1.243a11.251,11.251,0,0,0,1.409,1.907c1.344,1.883,2.861,4.064,5.8,4.31a4.873,4.873,0,0,0,1.575-.5c1.384-.5,2.49-.805,3.232-1.907a6.827,6.827,0,0,0,.5-1.906,32.079,32.079,0,0,1,.912-3.15c.315-.759.84-1.544,1.16-2.238.425-.921.374-1.861.912-2.653l1.243-1.16a20.837,20.837,0,0,1,2.736-2.653,55.869,55.869,0,0,1,5.885-2.984c1.147-.6,2.405-1.379,3.648-1.906.7-.3,1.34-.26,2.072-.58a63.745,63.745,0,0,1,9.781-2.9,40.5,40.5,0,0,1,4.393-.5,25.626,25.626,0,0,1,11.191.663c5.151,1.735,9.206,4.58,13.263,7.626.683.513,1.514.681,2.238,1.16.28.185.62.579.912.746.347.2.7.191.995.414.588-.057.912-1.049.912-1.658a12.353,12.353,0,0,1-3.979-1.492M69.692,2.023A15.633,15.633,0,0,0,71.93,4.1c.582.338,1.181.453,1.741.829L74,5.339c.32.216.677.2.912.5H75l-.083.083a2.924,2.924,0,0,1-1.077.58V6.084c-.137-.278-.645-.255-.912-.414-.5-.3-.874-.869-1.327-1.16a.743.743,0,0,0-.58-.083c-.364.112-.421.258-.414.746.554.471.039,1.618,1.077,1.74a4.764,4.764,0,0,0,1.575-.083v.083h-.083a18.035,18.035,0,0,1-1.658,1.078c-.373-.4-.392-.973-.663-1.492-.108-.206-.407-.424-.5-.663q-.041-.414-.083-.829c-.144-.5-.519-1.1-.663-1.575a2.953,2.953,0,0,1,.083-1.409m26.774.5a25.6,25.6,0,0,1-1.741,3.4,20.1,20.1,0,0,0-1.409,1.99h-.166c-.148-.287-.245-.7-.58-.829-.13.152-.074.115-.332.166-.462-.614-1.734-.627-2.072-1.327.653-.312,1.229-.837,1.823-1.16.391-.213.756-.128,1.161-.332.245-.124.542-.458.829-.58.3-.13.573-.084.829-.249A7.115,7.115,0,0,1,96.467,2.52M94.643,4.344c-.064.738-.929,1.533-1.16,2.486a3.272,3.272,0,0,1-1.99-.746c-.053-.143-.016-.081-.083-.166.13-.512.336-.273.746-.5.222-.121.3-.531.5-.663a3.959,3.959,0,0,1,1.906-.58c.053.143.016.081.083.166m.083,8.123a22.4,22.4,0,0,1-.829,5.554,3.218,3.218,0,0,0-.58.166,14.832,14.832,0,0,0-1.492,3.233,11.953,11.953,0,0,1-3.813,4.559,13.438,13.438,0,0,1-3.979,1.409c-1.5.452-3.685,1.669-5.8,1.16a25.8,25.8,0,0,1-4.062-1.658c-1.142-.484-2.421-.87-3.067-1.823-1.266-1.87-1.472-4.058-2.072-6.631-.375-1.609.482-2.844.5-4.144.054-4.407,3.313-6.507,6.963-7.875,1.207-.452,2.693-1.207,4.227-.912,1.308.252,2.547-.037,3.564.166H85.69l2.155.249.746.249c.077.063.065.283.166.332l.912.083a9.5,9.5,0,0,1,3.564,2.4c.12.146.314-.015.5.083a2.9,2.9,0,0,1,.829,1.575c.153.675-.326,1.051-.414,1.575l.249.249ZM79.308,9.815c.346.343.292.909.58,1.327a3.136,3.136,0,0,1-.249.5c-.171-.033-.16-.021-.249-.083-.419-.212-.351-.847-.664-1.16-.235-.236-.651-.286-.912-.5a3.392,3.392,0,0,0-2.984,1.824c-.373-.039-.354-.107-.58-.249.023-1.162,2.232-2.433,3.564-2.4.447.339,1.1.36,1.492.746M89.5,9.9c.386.238.857.617,1.243.912.236.18.318.489.58.663a1.094,1.094,0,0,1-.166.663c-.658-.092-.595-.525-.995-.829a4.421,4.421,0,0,0-2.9-1.078,6.419,6.419,0,0,0-1.492,1.658c-.373-.038-.354-.107-.58-.249a2.785,2.785,0,0,1,1.824-2.072,1.652,1.652,0,0,1,.912-.166c.411.325,1.1.207,1.575.5m-.746,2.4c.053.143.016.081.083.166a2.046,2.046,0,0,1-.332.746c-.753-.016-.6-.352-.995-.663a.866.866,0,0,1,.166-.5l.58-.083a2.434,2.434,0,0,0,.5.332m-10.61.912a.719.719,0,0,0-.414.083,1.626,1.626,0,0,1-.58-.249c-.047-.769.106-.928.829-.912.337.433.493.543.166,1.077m5.222,3.73a3.146,3.146,0,0,1,1.74,3.9c-.2.5-.784.892-1.077,1.326-1.859.041-3.993.7-5.057-.58-.454-.547-.233-1.088-.414-1.99-.4-1.985,1.255-2.955,3.15-2.984.445.276,1.143.123,1.658.332m-1.327.581c.357.231.914.121,1.327.332.6.3,1.709,1.843.995,2.818-.312.938-1.77.944-2.818.912-.351-.011-.858.061-1.077-.083-.575-.18-.639-.616-.995-.995a18.908,18.908,0,0,1,.083-2.238c.247-.117.359-.377.58-.5a4.111,4.111,0,0,1,1.906-.249m-.746.58c.683.877-.182,2.418-.5,2.9-.538-.028-.46-.185-.746-.414a5.6,5.6,0,0,1,.332-2.487v-.166a2.821,2.821,0,0,1,.663-.083l.249.249m2.238.663a4.5,4.5,0,0,1-.332,2.321c-.143.053-.081.016-.166.083a1.781,1.781,0,0,1-.58-.083,4.286,4.286,0,0,0-.332-1.244,2.993,2.993,0,0,1,.332-1.823h.332a2.292,2.292,0,0,0,.746.746m-7.709,8.289a.789.789,0,0,0-.332.249c-.617-.107-.781-.732-.746-1.492.248-.262.238-.466.663-.58-.133-.579-.3-.407-.249-1.16.37-.363.473-.76,1.078-.912-.059-.406-.13-.6.166-.829.431-.238,1.982.237,2.818.249a17.025,17.025,0,0,1,3.73.414,16.942,16.942,0,0,0,2.486,0c-.04.723-.5.77-.746,1.244a7.313,7.313,0,0,1-.332.829c-.4.578-2.865,2.021-4.31,1.492a6.732,6.732,0,0,1-3.316-3.067,1.18,1.18,0,0,0-.332.083,2.03,2.03,0,0,1-.249,1.741h-.332a7.736,7.736,0,0,1,0,1.74m2.321-3.73c.4.25,1.207-.041,1.741.083a15.829,15.829,0,0,0,4.144.415v.166c-.326.328-.519.82-.912,1.077a6.094,6.094,0,0,1-1,.5c-2.309.845-3.365-1.347-4.393-2.155v-.083Zm-2.155.415a1.989,1.989,0,0,1,.083.995,1.189,1.189,0,0,1-.332.083c-.084-.067-.023-.029-.166-.083a1.529,1.529,0,0,1-.083-.5c.181-.178.247-.38.5-.5m-.5,1.989a3.257,3.257,0,0,1-.083.995l-.166-.083c-.08-.206-.162-.436-.083-.58.028-.11.055-.221.083-.332ZM71.93,56.98a30.907,30.907,0,0,0,.083,4.311c.036.256-.2.367-.166.663a8.973,8.973,0,0,1,.166,3.067c-.378,1.9.445,3.555-.083,5.139-.683-.244-1.4-.563-1.989-.829l-3.564-.58V67.674a5.244,5.244,0,0,0,.414-2.4c.675-.346.441-2.154.414-3.15a17.243,17.243,0,0,1-.414-3.15,14.034,14.034,0,0,0,3.979-1.243c.433-.238.546-.658,1.16-.746m-47,8.207c-.537.02-1.412-.036-1.575-.414a28.155,28.155,0,0,1,.332-2.984c.053-.262.045-.67.083-.829.156-.651-.245-1.607.249-1.907.437.5.775.258.746,1.326a3.829,3.829,0,0,1-.083,1.907c-.05.227.068.377.083.5q-.041.58-.083,1.161a8.656,8.656,0,0,1,.249,1.243m29.675,1.16-2.57-.414a1.27,1.27,0,0,1-.166-.746c.435-.539.035-2.032-.083-2.9l2.818-.414v.663c-.418.666-.013,2.793,0,3.813M40.68,72.15c-1.057-.023-1.908-.156-3.067-.166v-.166c-.486-.783.207-1.913.083-2.736-.312-2.069.023-4.229-.332-6.134h.829a11.32,11.32,0,0,1,2.984-.083v.166c-.216.356-.077,1.029-.166,1.492-.2,1.022-.089,2.795-.332,4.062-.37.078-.593.179-.663.58.122.05.287.064.332.166.133.307-.173.815-.083,1.244a11.6,11.6,0,0,1,.414,1.575" transform="translate(-0.102 -0.101)"/>
        <path id="Path_131" data-name="Path 131" class="cls-1" d="M74.417,27.968c-.36-.167-.638-.1-.995-.249a8.492,8.492,0,0,1-1.99-1.244c-.282-.228-.686-.306-.912-.58-1.788-2.179-2.793-6.964-1.907-10.527.163-.655-.16-1.012-.083-1.492.256-1.59,1.262-4.291,2.321-5.057-.141-1.146-1.029-1.915-1.326-2.9q-.042-.456-.083-.912c-.156-.516-.442-1.081-.581-1.658V2.354A9.021,9.021,0,0,0,68.283.78c.068-.346.179-.349.332-.581.932.105,1.2,1.057,1.741,1.575A16.821,16.821,0,0,0,72.677,3.6l.746.249a8.47,8.47,0,0,0,2.653,1.575c.352.144,1.027-.358,1.409-.5a8.866,8.866,0,0,1,3.15-.332c.925.114,2.2.06,3.067.249l3.067.083a10.8,10.8,0,0,0,2.653.58,21.7,21.7,0,0,0,2.155-1.326l1-.332c1.685-.735,3.451-1.714,4.31-3.316a3.508,3.508,0,0,1,.746,0l.083.083C97.577,3.145,95.747,5.3,94.56,7.08c-.212.317-.268.7-.5.995.058.9,1.557,2.282.995,3.233.1.187.143.166.332.249.01,2.561-.112,5.368-.995,7.377a24.093,24.093,0,0,1-1.74,2.4c-.365.621-.437,1.313-.829,1.906-.375.568-1,.97-1.409,1.492a11.8,11.8,0,0,1-2.653,2.57c-1.053.7-2.614.6-3.9,1.077a14.436,14.436,0,0,1-4.062,1.16q-.042.332-.083.663c-.169.156-.153.241-.414.332-.205.081-.208-.037-.415-.166a7.918,7.918,0,0,1-.912,1.575c-1.236-.035-2.334-1.019-3.15-1.575-.762-.519-1.553-.82-2.321-1.326-1.218-.8-2.4-1.81-3.565-2.653a33.7,33.7,0,0,0-9.532-4.642c-1.081-.356-2.029-.288-3.233-.58a16.381,16.381,0,0,0-6.051-.083c-1.491.323-2.829.056-4.227.414-4.464,1.144-8.91,1.966-12.848,3.647-1.608.686-3.082,1.635-4.559,2.4-.6.313-1.2.374-1.823.663a16.617,16.617,0,0,0-5.72,4.31c-.376.446-1,.748-1.326,1.244-.424.635-.312,1.494-.664,2.238-.091.194-.395.46-.5.663a19.616,19.616,0,0,0-1.243,3.4c-.332,1.174-.324,2.623-.912,3.564-.888,1.423-2.37,1.757-4.062,2.4a3.244,3.244,0,0,1-1.906.414c-.112-.031-.385-.215-.5-.249L8.6,46.039A17.267,17.267,0,0,1,4.207,41.4,11.582,11.582,0,0,1,3.047,39.9c-.3-.622-.262-1.378-.5-1.989-.657-1.7-1.334-3.366-.249-4.974.629-.932,1.612-1.181,2.735-1.658a25.613,25.613,0,0,1,2.487-1l.829.083.166-.166c.683-.17,1.59.47,1.99.664A4.623,4.623,0,0,1,12,31.615a11.2,11.2,0,0,1,1.575,5.056,4.892,4.892,0,0,1-1.907,1.161l-1.243.083A1.735,1.735,0,0,1,9.6,38c-.843-.321-1.262-1.015-1.907-1.492a1.414,1.414,0,0,1,.249-.829,5.1,5.1,0,0,1,1.99-.249c-.033-.17-.021-.16-.083-.249-.255-.316-.779-.391-1.078-.663-.982.007-1.193.568-1.658,1.077a3.317,3.317,0,0,0,.58,1.741l.249.746a2.486,2.486,0,0,0,1.575.912c.349.1.928.446,1.409.332a3.885,3.885,0,0,0,2.9-3.9,3.993,3.993,0,0,0,0-1.077c-.682-2.244-1.9-4.18-4.062-4.974a6.9,6.9,0,0,0-4.311,0c-.74.373-1.379,1.055-2.072,1.492-.8.506-1.9,1.148-2.238,2.072-.721,1.965.181,4.086.912,5.554.395.793.479,1.69.829,2.487A8.61,8.61,0,0,0,4.539,43.3a10.322,10.322,0,0,1,.829,1.244,8.608,8.608,0,0,0,3.316,2.4l1.824.249c1.262.427,2.732.869,4.062,1.243a8.05,8.05,0,0,1,2.072.5c1.269.786,3.142,3.664,3.9,5.057.153.281.083.579.249.829a13.519,13.519,0,0,0,3.233,3.4c.6.395,1.3.517,1.907.912a25.639,25.639,0,0,0,3.73,2.321c3.29,1.4,8.183.664,12.682.663a61.432,61.432,0,0,0,16.578-2.072c.88-.235,1.635-.154,2.487-.414s1.843-.591,2.653-.829a14.889,14.889,0,0,0,1.99-.332l.166-.249.5.083a20.353,20.353,0,0,0,2.321-.663,19.872,19.872,0,0,0,2.9-1.658c1.053-.551,2.088-.818,3.067-1.409.632-.382,1.167-.983,1.741-1.409a22.313,22.313,0,0,0,4.808-4.476c.254-.337.727-.514,1-.829a38.426,38.426,0,0,0,3.9-4.808c1.66-2.762.531-8.029-1-10.279-.55-.811-1.486-.982-2.321-1.492a8.4,8.4,0,0,1,.746-2.487l.5.083a3.318,3.318,0,0,1-.5,1.907c.414.569,1.622,1.12,2.073,1.74a14.594,14.594,0,0,1,2.072,5.388q-.041.455-.083.912a8.432,8.432,0,0,1-.829,4.559c-.274.472-.769.889-1.077,1.327a32.825,32.825,0,0,1-3.648,4.227,12.808,12.808,0,0,0-.995,1.326,19.657,19.657,0,0,1-3.9,3.233c-1.507,1.052-2.973,2.628-5.057,3.067.025.629.212,1.389.166,1.824a6.533,6.533,0,0,0,0,1.906c.039.257-.151.618,0,1l.249.249a.961.961,0,0,1-.166.746,7.412,7.412,0,0,0,.249,1.99c.081.5,1.27.954,1.74,1.16a24.9,24.9,0,0,1,3.813,2.57c.023,1.018-1,1.085-1.906,1.077a2.488,2.488,0,0,0,1.409,1.326c.049.226.128.386,0,.581-.085.189-.142.179-.249.332a16.032,16.032,0,0,1-3.647.083l-.829.083-.166-.249c-.442-.214-1.056-.116-1.658-.332s-1.25-.6-1.823-.829a12.3,12.3,0,0,0-3.647-.414c-.346-.067-.349-.179-.581-.332a13,13,0,0,1,.664-2.818c.189-.6-.148-1.224,0-1.658.062-.184.335-.209.414-.332V62.948c.207-.936-.253-2.53-.332-3.647l-.083-.083A18.637,18.637,0,0,0,61.9,60.3c-1.047.338-2.224.335-3.15.664-1.025.363-2.317.186-3.15.746l-.249.083c-.027.606-.157,1.174,0,1.409-.043,1.7,1.433,1.111,2.321,1.824a.9.9,0,0,1,.166.414,1.421,1.421,0,0,0-.249.414,4.672,4.672,0,0,1-.995.083,1.18,1.18,0,0,0,.912.746c.049.226.128.386,0,.581l-.083.249c-.616.031-1.149-.143-1.741-.166-.453-.018-.526.336-.829.249l-.249-.332a8.921,8.921,0,0,0-1.077-.249c-.779-.2-1.752-.094-2.4-.249-.165-.974.433-3.322-.083-4.144v-.166c-.428.144-1.134-.055-1.658.083a19.142,19.142,0,0,1-4.145.249c-.59.019-2.15.334-2.569.083a1.54,1.54,0,0,0-.746.083c-.309.457-.147,1.243-.249,1.907-.148.97-.073,2.823-.166,3.9a36.6,36.6,0,0,0,3.647,1.409c.57.21,1.007.18,1.409.5a.923.923,0,0,1-.249.663c-.955.013-1.424.195-2.238.249.166.4.51.341.829.58.12.09.148.3.249.414a.554.554,0,0,1-.332.5c-.262.137-1.115-.16-1.492-.083-2.109.432-4.739-.453-6.3.083a1.492,1.492,0,0,0-.332-.249c.026-2.394.421-4.39.083-6.631a9.383,9.383,0,0,1,0-3.067v-.166a16.35,16.35,0,0,1-7.626-.746,22.08,22.08,0,0,1-2.4-1.326c-.41-.26-.671-.726-1.244-.829a2.516,2.516,0,0,0,.083,1.078v1.326c.234.457,2.108,1.186,2.653,1.492a1.313,1.313,0,0,1-.083.663c-.238.153-.973.083-1.243.166.457.629,1.494.362.829,1.492a13.162,13.162,0,0,0-1.989-.083c-.039.01-.165.182-.249.166-.321-.063-.734-.33-1.077-.414-.627-.154-1.074.227-1.575-.083h-.166a11.233,11.233,0,0,1,.249-4.144c.124-.551-.107-1.467.166-1.907V58.555c-.164-.357-.778-.656-1.078-.912a6.623,6.623,0,0,1-.58-.829,16.426,16.426,0,0,1-1.326-1.492c-.282-.435-.314-.972-.58-1.409-.868-1.426-1.9-3.349-3.316-4.228-.511-.317-.964-.216-1.658-.414-1.29-.369-2.7-.806-3.979-1.16a22.426,22.426,0,0,1-2.4-.414c-2.141-.885-5.035-4.345-5.968-6.466q-.414-1.285-.829-2.57C1.1,37.983.009,35.315.229,34.351A9.011,9.011,0,0,1,.56,32.693a6.354,6.354,0,0,1,2.57-2.238c.6-.383,1.1-1.006,1.658-1.409.86-.619,4.4-.713,5.554-.083l.249.332c.468.24,1.04.245,1.409.58a10.807,10.807,0,0,1,2.487,4.145,2.74,2.74,0,0,1,0,1.243q.041.414.083.829a4.477,4.477,0,0,1-1.989,3.067c-.432.315-1.215,1.106-2.072.912-2.448-.553-4.076-2-3.979-4.808.349-.381,1.407-1.806,2.155-1.409a4.188,4.188,0,0,1,2.238,1.575c.084.35-.174.563-.249.829-.5-.029-1.2-.322-1.492-.166a2.416,2.416,0,0,0-.746.083c.575,1.8,3.251.586,4.394.249a2.233,2.233,0,0,0-.249-1.16v-.58a7.315,7.315,0,0,0-1.327-2.818c-.3-.278-.782-.3-1.16-.5a3.293,3.293,0,0,0-2.321-.414,19.907,19.907,0,0,0-2.4.912c-.93.4-1.886.547-2.4,1.326-1.167,1.755-.206,3.186.414,4.891l.249,1.243a11.251,11.251,0,0,0,1.409,1.907c1.344,1.883,2.861,4.064,5.8,4.31a4.873,4.873,0,0,0,1.575-.5c1.384-.5,2.49-.805,3.232-1.907a6.827,6.827,0,0,0,.5-1.906,32.079,32.079,0,0,1,.912-3.15c.315-.759.84-1.544,1.16-2.238.425-.921.374-1.861.912-2.653l1.243-1.16a20.837,20.837,0,0,1,2.736-2.653,55.869,55.869,0,0,1,5.885-2.984c1.147-.6,2.405-1.379,3.648-1.906.7-.3,1.34-.26,2.072-.58a63.745,63.745,0,0,1,9.781-2.9,40.5,40.5,0,0,1,4.393-.5,25.626,25.626,0,0,1,11.191.663c5.151,1.735,9.206,4.58,13.263,7.626.683.513,1.514.681,2.238,1.16.28.185.62.579.912.746.347.2.7.191.995.414.588-.057.912-1.049.912-1.658A12.353,12.353,0,0,1,74.417,27.968ZM69.692,2.023A15.633,15.633,0,0,0,71.93,4.1c.582.338,1.181.453,1.741.829L74,5.339c.32.216.677.2.912.5H75l-.083.083a2.924,2.924,0,0,1-1.077.58V6.084c-.137-.278-.645-.255-.912-.414-.5-.3-.874-.869-1.327-1.16a.743.743,0,0,0-.58-.083c-.364.112-.421.258-.414.746.554.471.039,1.618,1.077,1.74a4.764,4.764,0,0,0,1.575-.083v.083h-.083a18.035,18.035,0,0,1-1.658,1.078c-.373-.4-.392-.973-.663-1.492-.108-.206-.407-.424-.5-.663q-.041-.414-.083-.829c-.144-.5-.519-1.1-.663-1.575A2.953,2.953,0,0,1,69.692,2.023Zm26.774.5a25.6,25.6,0,0,1-1.741,3.4,20.1,20.1,0,0,0-1.409,1.99h-.166c-.148-.287-.245-.7-.58-.829-.13.152-.074.115-.332.166-.462-.614-1.734-.627-2.072-1.327.653-.312,1.229-.837,1.823-1.16.391-.213.756-.128,1.161-.332.245-.124.542-.458.829-.58.3-.13.573-.084.829-.249A7.115,7.115,0,0,1,96.467,2.52ZM94.643,4.344c-.064.738-.929,1.533-1.16,2.486a3.272,3.272,0,0,1-1.99-.746c-.053-.143-.016-.081-.083-.166.13-.512.336-.273.746-.5.222-.121.3-.531.5-.663a3.959,3.959,0,0,1,1.906-.58C94.613,4.321,94.576,4.259,94.643,4.344Zm.083,8.123a22.4,22.4,0,0,1-.829,5.554,3.218,3.218,0,0,0-.58.166,14.832,14.832,0,0,0-1.492,3.233,11.953,11.953,0,0,1-3.813,4.559,13.438,13.438,0,0,1-3.979,1.409c-1.5.452-3.685,1.669-5.8,1.16a25.8,25.8,0,0,1-4.062-1.658c-1.142-.484-2.421-.87-3.067-1.823-1.266-1.87-1.472-4.058-2.072-6.631-.375-1.609.482-2.844.5-4.144.054-4.407,3.313-6.507,6.963-7.875,1.207-.452,2.693-1.207,4.227-.912,1.308.252,2.547-.037,3.564.166H85.69l2.155.249.746.249c.077.063.065.283.166.332l.912.083a9.5,9.5,0,0,1,3.564,2.4c.12.146.314-.015.5.083a2.9,2.9,0,0,1,.829,1.575c.153.675-.326,1.051-.414,1.575l.249.249ZM79.308,9.815c.346.343.292.909.58,1.327a3.136,3.136,0,0,1-.249.5c-.171-.033-.16-.021-.249-.083-.419-.212-.351-.847-.664-1.16-.235-.236-.651-.286-.912-.5a3.392,3.392,0,0,0-2.984,1.824c-.373-.039-.354-.107-.58-.249.023-1.162,2.232-2.433,3.564-2.4C78.262,9.408,78.918,9.429,79.308,9.815ZM89.5,9.9c.386.238.857.617,1.243.912.236.18.318.489.58.663a1.094,1.094,0,0,1-.166.663c-.658-.092-.595-.525-.995-.829a4.421,4.421,0,0,0-2.9-1.078,6.419,6.419,0,0,0-1.492,1.658c-.373-.038-.354-.107-.58-.249a2.785,2.785,0,0,1,1.824-2.072,1.652,1.652,0,0,1,.912-.166C88.34,9.725,89.033,9.608,89.5,9.9Zm-.746,2.4c.053.143.016.081.083.166a2.046,2.046,0,0,1-.332.746c-.753-.016-.6-.352-.995-.663a.866.866,0,0,1,.166-.5l.58-.083A2.434,2.434,0,0,0,88.757,12.3Zm-10.61.912a.719.719,0,0,0-.414.083,1.626,1.626,0,0,1-.58-.249c-.047-.769.106-.928.829-.912C78.318,12.568,78.475,12.679,78.147,13.213Zm5.222,3.73a3.146,3.146,0,0,1,1.74,3.9c-.2.5-.784.892-1.077,1.326-1.859.041-3.993.7-5.057-.58-.454-.547-.233-1.088-.414-1.99-.4-1.985,1.255-2.955,3.15-2.984C82.157,16.888,82.854,16.734,83.37,16.943Zm-1.327.581c.357.231.914.121,1.327.332.6.3,1.709,1.843.995,2.818-.312.938-1.77.944-2.818.912-.351-.011-.858.061-1.077-.083-.575-.18-.639-.616-.995-.995a18.908,18.908,0,0,1,.083-2.238c.247-.117.359-.377.58-.5A4.111,4.111,0,0,1,82.043,17.524Zm-.746.58c.683.877-.182,2.418-.5,2.9-.538-.028-.46-.185-.746-.414a5.6,5.6,0,0,1,.332-2.487v-.166a2.821,2.821,0,0,1,.663-.083Zm2.238.663a4.5,4.5,0,0,1-.332,2.321c-.143.053-.081.016-.166.083a1.781,1.781,0,0,1-.58-.083,4.286,4.286,0,0,0-.332-1.244,2.993,2.993,0,0,1,.332-1.823h.332A2.292,2.292,0,0,0,83.535,18.767Zm-7.709,8.289a.789.789,0,0,0-.332.249c-.617-.107-.781-.732-.746-1.492.248-.262.238-.466.663-.58-.133-.579-.3-.407-.249-1.16.37-.363.473-.76,1.078-.912-.059-.406-.13-.6.166-.829.431-.238,1.982.237,2.818.249a17.025,17.025,0,0,1,3.73.414,16.942,16.942,0,0,0,2.486,0c-.04.723-.5.77-.746,1.244a7.313,7.313,0,0,1-.332.829c-.4.578-2.865,2.021-4.31,1.492a6.732,6.732,0,0,1-3.316-3.067,1.18,1.18,0,0,0-.332.083,2.03,2.03,0,0,1-.249,1.741h-.332A7.736,7.736,0,0,1,75.827,27.056Zm2.321-3.73c.4.25,1.207-.041,1.741.083a15.829,15.829,0,0,0,4.144.415v.166c-.326.328-.519.82-.912,1.077a6.094,6.094,0,0,1-1,.5c-2.309.845-3.365-1.347-4.393-2.155v-.083Zm-2.155.415a1.989,1.989,0,0,1,.083.995,1.189,1.189,0,0,1-.332.083c-.084-.067-.023-.029-.166-.083a1.529,1.529,0,0,1-.083-.5C75.676,24.06,75.741,23.858,75.992,23.741Zm-.5,1.989a3.257,3.257,0,0,1-.083.995l-.166-.083c-.08-.206-.162-.436-.083-.58.028-.11.055-.221.083-.332ZM71.93,56.98a30.907,30.907,0,0,0,.083,4.311c.036.256-.2.367-.166.663a8.973,8.973,0,0,1,.166,3.067c-.378,1.9.445,3.555-.083,5.139-.683-.244-1.4-.563-1.989-.829l-3.564-.58V67.674a5.244,5.244,0,0,0,.414-2.4c.675-.346.441-2.154.414-3.15a17.243,17.243,0,0,1-.414-3.15,14.034,14.034,0,0,0,3.979-1.243C71.2,57.488,71.316,57.068,71.93,56.98Zm-47,8.207c-.537.02-1.412-.036-1.575-.414a28.155,28.155,0,0,1,.332-2.984c.053-.262.045-.67.083-.829.156-.651-.245-1.607.249-1.907.437.5.775.258.746,1.326a3.829,3.829,0,0,1-.083,1.907c-.05.227.068.377.083.5q-.041.58-.083,1.161A8.656,8.656,0,0,1,24.93,65.187Zm29.675,1.16-2.57-.414a1.27,1.27,0,0,1-.166-.746c.435-.539.035-2.032-.083-2.9l2.818-.414v.663C54.188,63.2,54.593,65.327,54.606,66.347ZM40.68,72.15c-1.057-.023-1.908-.156-3.067-.166v-.166c-.486-.783.207-1.913.083-2.736-.312-2.069.023-4.229-.332-6.134h.829a11.32,11.32,0,0,1,2.984-.083v.166c-.216.356-.077,1.029-.166,1.492-.2,1.022-.089,2.795-.332,4.062-.37.078-.593.179-.663.58.122.05.287.064.332.166.133.307-.173.815-.083,1.244A11.6,11.6,0,0,1,40.68,72.15Z" transform="translate(-0.102 -0.101)"/>
      </g>
    </g>
    <rect id="Rectangle_152" data-name="Rectangle 152" class="cls-1" width="159" height="112" transform="translate(180 688)"/>
  </g>
</svg>
