<svg xmlns="http://www.w3.org/2000/svg" width="138" height="60" viewBox="0 0 138 60">
  <defs>
    <style>
      .cls-1, .cls-2 {
        fill: #414141;
      }

      .cls-2 {
        fill-rule: evenodd;
      }

      .cls-3 {
        fill: none;
      }
    </style>
  </defs>
  <g id="Group_274" data-name="Group 274" transform="translate(-99 -25)">
    <g id="Group_249" data-name="Group 249">
      <g id="Group_228" data-name="Group 228">
        <path id="Path_53" data-name="Path 53" class="cls-1" d="M7.717,5.384V1.655A1.676,1.676,0,0,1,8.154.475,1.561,1.561,0,0,1,9.362,0a1.536,1.536,0,0,1,1.189.472,1.68,1.68,0,0,1,.435,1.183V13.437a1.843,1.843,0,0,1-.415,1.222,1.452,1.452,0,0,1-1.181.5,1.587,1.587,0,0,1-1.013-.3,2.1,2.1,0,0,1-.611-.9,3.116,3.116,0,0,1-1.233.958,4.242,4.242,0,0,1-1.64.292A4.284,4.284,0,0,1,2.846,14.7a5,5,0,0,1-1.624-1.372A6.164,6.164,0,0,1,0,9.541,4.851,4.851,0,0,1,.556,7.356,5.412,5.412,0,0,1,2,5.531a4.877,4.877,0,0,1,3.155-1.11,4.234,4.234,0,0,1,2.558.963m-4.448,4.3a2.841,2.841,0,0,0,.614,1.8,1.99,1.99,0,0,0,1.656.786,1.9,1.9,0,0,0,1.189-.383,2.389,2.389,0,0,0,.755-.988,3.139,3.139,0,0,0,.255-1.231,3.083,3.083,0,0,0-.255-1.216,2.4,2.4,0,0,0-.755-.983,1.9,1.9,0,0,0-1.189-.383,2.036,2.036,0,0,0-1.233.375,2.332,2.332,0,0,0-.776.974,3.1,3.1,0,0,0-.261,1.253" transform="translate(104.502 63.86)"/>
        <path id="Path_54" data-name="Path 54" class="cls-1" d="M26.305,16.6a3.928,3.928,0,0,1-1.213.955,3.542,3.542,0,0,1-1.524.3,4.991,4.991,0,0,1-3.2-1.145,5.225,5.225,0,0,1-1.933-4.261,5.157,5.157,0,0,1,1.711-4.015A4.835,4.835,0,0,1,23.5,7.057a3.748,3.748,0,0,1,1.526.28,4.742,4.742,0,0,1,1.3.908,1.654,1.654,0,0,1,1.58-1.1,1.685,1.685,0,0,1,1.184.445,1.427,1.427,0,0,1,.484,1.091v7.33a1.849,1.849,0,0,1-.459,1.263,1.553,1.553,0,0,1-1.23.522,1.614,1.614,0,0,1-1.58-1.19M21.7,12.4a3.216,3.216,0,0,0,.541,1.855,1.826,1.826,0,0,0,1.615.794,2.241,2.241,0,0,0,1.263-.356,2.3,2.3,0,0,0,.82-.931,2.755,2.755,0,0,0,.279-1.216,3.074,3.074,0,0,0-.581-1.924,2.1,2.1,0,0,0-1.781-.759,1.853,1.853,0,0,0-1.583.783A2.9,2.9,0,0,0,21.7,12.4" transform="translate(97.616 61.223)"/>
        <path id="Path_55" data-name="Path 55" class="cls-1" d="M44.866,5.384V1.655A1.676,1.676,0,0,1,45.3.475,1.561,1.561,0,0,1,46.511,0,1.536,1.536,0,0,1,47.7.472a1.68,1.68,0,0,1,.435,1.183V13.437a1.843,1.843,0,0,1-.415,1.222,1.452,1.452,0,0,1-1.181.5,1.587,1.587,0,0,1-1.013-.3,2.1,2.1,0,0,1-.611-.9,3.116,3.116,0,0,1-1.233.958,4.242,4.242,0,0,1-1.64.292,4.284,4.284,0,0,1-2.047-.512,5,5,0,0,1-1.624-1.372,6.164,6.164,0,0,1-1.221-3.791,4.851,4.851,0,0,1,.556-2.185,5.412,5.412,0,0,1,1.448-1.825,4.877,4.877,0,0,1,3.155-1.11,4.234,4.234,0,0,1,2.558.963m-4.448,4.3a2.841,2.841,0,0,0,.614,1.8,1.99,1.99,0,0,0,1.656.786,1.9,1.9,0,0,0,1.189-.383,2.389,2.389,0,0,0,.755-.988,3.139,3.139,0,0,0,.255-1.231,3.083,3.083,0,0,0-.255-1.216,2.4,2.4,0,0,0-.755-.983,1.9,1.9,0,0,0-1.189-.383,2.036,2.036,0,0,0-1.233.375,2.332,2.332,0,0,0-.776.974,3.1,3.1,0,0,0-.261,1.253" transform="translate(90.622 63.86)"/>
        <path id="Path_56" data-name="Path 56" class="cls-1" d="M63.454,16.6a3.928,3.928,0,0,1-1.213.955,3.542,3.542,0,0,1-1.524.3,4.991,4.991,0,0,1-3.2-1.145,5.225,5.225,0,0,1-1.933-4.261,5.157,5.157,0,0,1,1.711-4.015,4.835,4.835,0,0,1,3.361-1.376,3.748,3.748,0,0,1,1.526.28,4.742,4.742,0,0,1,1.3.908,1.654,1.654,0,0,1,1.58-1.1,1.685,1.685,0,0,1,1.184.445,1.427,1.427,0,0,1,.484,1.091v7.33a1.849,1.849,0,0,1-.459,1.263,1.553,1.553,0,0,1-1.23.522,1.614,1.614,0,0,1-1.58-1.19m-4.605-4.2a3.216,3.216,0,0,0,.541,1.855,1.826,1.826,0,0,0,1.615.794,2.241,2.241,0,0,0,1.263-.356,2.3,2.3,0,0,0,.82-.931,2.755,2.755,0,0,0,.279-1.216,3.074,3.074,0,0,0-.581-1.924,2.1,2.1,0,0,0-1.781-.759,1.853,1.853,0,0,0-1.583.783,2.9,2.9,0,0,0-.573,1.754" transform="translate(83.736 61.223)"/>
        <path id="Path_57" data-name="Path 57" class="cls-1" d="M82.014,5.384V1.655a1.676,1.676,0,0,1,.437-1.18A1.561,1.561,0,0,1,83.659,0a1.536,1.536,0,0,1,1.189.472,1.68,1.68,0,0,1,.435,1.183V13.437a1.843,1.843,0,0,1-.415,1.222,1.452,1.452,0,0,1-1.181.5,1.587,1.587,0,0,1-1.013-.3,2.1,2.1,0,0,1-.611-.9,3.116,3.116,0,0,1-1.233.958,4.242,4.242,0,0,1-1.64.292,4.284,4.284,0,0,1-2.047-.512,5,5,0,0,1-1.624-1.372A6.164,6.164,0,0,1,74.3,9.541a4.85,4.85,0,0,1,.556-2.185A5.411,5.411,0,0,1,76.3,5.531a4.877,4.877,0,0,1,3.155-1.11,4.233,4.233,0,0,1,2.558.963m-4.448,4.3a2.841,2.841,0,0,0,.614,1.8,1.99,1.99,0,0,0,1.656.786,1.9,1.9,0,0,0,1.189-.383,2.389,2.389,0,0,0,.755-.988,3.139,3.139,0,0,0,.255-1.231,3.083,3.083,0,0,0-.255-1.216,2.4,2.4,0,0,0-.755-.983,1.9,1.9,0,0,0-1.189-.383,2.036,2.036,0,0,0-1.233.375,2.332,2.332,0,0,0-.776.974,3.1,3.1,0,0,0-.261,1.253" transform="translate(76.743 63.86)"/>
        <path id="Path_58" data-name="Path 58" class="cls-1" d="M92.763,12.468a5.813,5.813,0,0,1,.367-2.053,4.756,4.756,0,0,1,1.1-1.718,5.529,5.529,0,0,1,1.827-1.205,5.661,5.661,0,0,1,4.358,0,5.391,5.391,0,0,1,1.825,1.2,4.756,4.756,0,0,1,1.089,1.715,5.929,5.929,0,0,1,.356,2.055,5.808,5.808,0,0,1-.356,2.028,4.872,4.872,0,0,1-1.089,1.718,5.358,5.358,0,0,1-1.811,1.2,5.655,5.655,0,0,1-2.17.437,5.783,5.783,0,0,1-2.2-.435,5.4,5.4,0,0,1-1.827-1.205,5.008,5.008,0,0,1-1.466-3.746m3.226,0a3.1,3.1,0,0,0,.252,1.211,2.4,2.4,0,0,0,.75.986,1.861,1.861,0,0,0,1.176.386,2.046,2.046,0,0,0,1.235-.381,2.468,2.468,0,0,0,.8-.981,2.886,2.886,0,0,0,.277-1.221,2.976,2.976,0,0,0-.274-1.234,2.43,2.43,0,0,0-.8-.988,2.059,2.059,0,0,0-1.238-.38,1.859,1.859,0,0,0-1.6.808,3.017,3.017,0,0,0-.578,1.795" transform="translate(69.843 61.223)"/>
        <path id="Path_59" data-name="Path 59" class="cls-1" d="M114.428,5.3a6.137,6.137,0,0,1,2.933-.859,4.322,4.322,0,0,1,2.938.985,3.555,3.555,0,0,1,1.113,2.826v5.226a1.717,1.717,0,0,1-.437,1.2,1.556,1.556,0,0,1-1.209.48,1.512,1.512,0,0,1-1.183-.488,1.718,1.718,0,0,1-.44-1.193V9.087a2.335,2.335,0,0,0-.456-1.483,1.681,1.681,0,0,0-1.412-.583,1.739,1.739,0,0,0-1.32.558,1.836,1.836,0,0,0-.527,1.3v4.593a1.717,1.717,0,0,1-.437,1.2,1.552,1.552,0,0,1-1.208.48,1.513,1.513,0,0,1-1.184-.488,1.715,1.715,0,0,1-.44-1.192V1.656a1.856,1.856,0,0,1,.19-.831,1.418,1.418,0,0,1,.562-.6,1.676,1.676,0,0,1,.872-.22,1.565,1.565,0,0,1,1.2.475,1.664,1.664,0,0,1,.443,1.18Z" transform="translate(62.97 63.86)"/>
        <path id="Path_60" data-name="Path 60" class="cls-1" d="M139.512,8.854v4.791a3.6,3.6,0,0,1-.8,2.48,4.687,4.687,0,0,1-1.876,1.32,6.428,6.428,0,0,1-4.784,0,4.727,4.727,0,0,1-1.882-1.317,3.741,3.741,0,0,1-.8-2.48V8.854a1.691,1.691,0,0,1,.434-1.185A1.532,1.532,0,0,1,131,7.194a1.565,1.565,0,0,1,1.2.475,1.672,1.672,0,0,1,.442,1.185v4.42a1.611,1.611,0,0,0,.51,1.29,1.81,1.81,0,0,0,1.287.495,1.917,1.917,0,0,0,1.292-.495,1.609,1.609,0,0,0,.511-1.29V8.854a1.682,1.682,0,0,1,.438-1.185,1.559,1.559,0,0,1,1.208-.475,1.534,1.534,0,0,1,1.189.472,1.686,1.686,0,0,1,.435,1.188" transform="translate(56.165 61.172)"/>
        <path id="Path_61" data-name="Path 61" class="cls-1" d="M154.326,16.6a3.928,3.928,0,0,1-1.213.955,3.542,3.542,0,0,1-1.524.3,4.991,4.991,0,0,1-3.2-1.145,5.225,5.225,0,0,1-1.933-4.261,5.157,5.157,0,0,1,1.711-4.015,4.835,4.835,0,0,1,3.361-1.376,3.748,3.748,0,0,1,1.526.28,4.741,4.741,0,0,1,1.3.908,1.654,1.654,0,0,1,1.58-1.1,1.686,1.686,0,0,1,1.184.445,1.426,1.426,0,0,1,.483,1.091v7.33a1.848,1.848,0,0,1-.458,1.263,1.553,1.553,0,0,1-1.23.522,1.614,1.614,0,0,1-1.58-1.19m-4.605-4.2a3.216,3.216,0,0,0,.541,1.855,1.826,1.826,0,0,0,1.615.794,2.242,2.242,0,0,0,1.263-.356,2.3,2.3,0,0,0,.82-.931,2.754,2.754,0,0,0,.279-1.216,3.074,3.074,0,0,0-.581-1.924,2.1,2.1,0,0,0-1.781-.759,1.853,1.853,0,0,0-1.583.783,2.9,2.9,0,0,0-.573,1.754" transform="translate(49.784 61.223)"/>
        <path id="Path_62" data-name="Path 62" class="cls-1" d="M169.274,8.2a4.712,4.712,0,0,1,1.371-.848,5.049,5.049,0,0,1,4.484.645,2.837,2.837,0,0,1,.931,1.233,4.876,4.876,0,0,1,.247,1.652v5.246a1.717,1.717,0,0,1-.438,1.2,1.551,1.551,0,0,1-1.208.48,1.517,1.517,0,0,1-1.184-.487,1.719,1.719,0,0,1-.44-1.194V11.571a1.942,1.942,0,0,0-.494-1.359,1.772,1.772,0,0,0-1.379-.542,1.736,1.736,0,0,0-.918.25,1.812,1.812,0,0,0-.646.658,1.727,1.727,0,0,0-.234.873v4.673a1.719,1.719,0,0,1-.437,1.2,1.552,1.552,0,0,1-1.208.48,1.517,1.517,0,0,1-1.184-.487,1.717,1.717,0,0,1-.44-1.193V8.914a1.885,1.885,0,0,1,.41-1.223,1.5,1.5,0,0,1,1.165-.537,1.624,1.624,0,0,1,1.6,1.043" transform="translate(42.444 61.211)"/>
        <path id="Path_63" data-name="Path 63" class="cls-1" d="M191.053,8.246a1.907,1.907,0,0,1,1.58-1.123,1.476,1.476,0,0,1,1.157.473,1.681,1.681,0,0,1,.423,1.163v7.951a5.754,5.754,0,0,1-.393,2.18,4.45,4.45,0,0,1-1.143,1.647,5.088,5.088,0,0,1-1.814,1.035,7.42,7.42,0,0,1-2.368.358,8.622,8.622,0,0,1-3.981-.861,1.5,1.5,0,0,1-1-1.35,1.2,1.2,0,0,1,.4-.89,1.447,1.447,0,0,1,.953-.42,2.56,2.56,0,0,1,.668.08l.913.285a6.312,6.312,0,0,0,1.976.35,2.428,2.428,0,0,0,2.27-.985,4.353,4.353,0,0,0,.353-1.656,4.427,4.427,0,0,1-1.2,1.03,3.077,3.077,0,0,1-1.51.34,5.2,5.2,0,0,1-1.972-.388,4.71,4.71,0,0,1-1.634-1.087,5.544,5.544,0,0,1-1.423-4.056,5.385,5.385,0,0,1,.47-2.195,5.133,5.133,0,0,1,1.334-1.82,5.023,5.023,0,0,1,1.461-.908,4.352,4.352,0,0,1,1.672-.343,3.765,3.765,0,0,1,1.529.279,4.4,4.4,0,0,1,1.273.908m-4.469,4.1a2.843,2.843,0,0,0,.646,2.033,2.035,2.035,0,0,0,1.559.675,1.891,1.891,0,0,0,1.619-.8,2.993,2.993,0,0,0,.581-1.8,2.954,2.954,0,0,0-.271-1.244,2.365,2.365,0,0,0-.8-.966,2.134,2.134,0,0,0-1.262-.373,1.77,1.77,0,0,0-1.518.764,2.857,2.857,0,0,0-.551,1.714" transform="translate(36.011 61.223)"/>
      </g>
      <g id="Group_232" data-name="Group 232">
        <path id="Path_1" data-name="Path 1" class="cls-2" d="M178.136,81.144a9.056,9.056,0,0,1,2.264.3l.169.2a4.549,4.549,0,0,1-1.048,2.568c-.088.132-.578,1.133-.811,1.453-.113.1-1.676,1.786-1.825,1.892a8.325,8.325,0,0,1-.946.574c-.167.111-1.319.7-1.453.743a4.087,4.087,0,0,1-1.825-.034.518.518,0,0,1-.068-.3,4.726,4.726,0,0,1,.946-.3,1.99,1.99,0,0,0,.574-.27,10.749,10.749,0,0,0,2.872-2.7,22.559,22.559,0,0,0,1.183-1.926,4.539,4.539,0,0,0,.405-1.149,4.741,4.741,0,0,1-.676-.507.558.558,0,0,1,.237-.541m2.2,3.143c.488.006.5.34.777.541.55.4,1.082.789,1.656,1.183.167.115,1.759,1.129,1.892,1.217.162.106,2.291.94,2.6,1.014.233.055.522.147.743.2h.473a7.758,7.758,0,0,1,1.419.034.479.479,0,0,1,.1.3c-.621.426-.645,1.3-1.487,1.521a2.859,2.859,0,0,1-1.791-.338c-.056-.056-.564-.264-.71-.338A21.241,21.241,0,0,1,183.1,87.97c-.115-.084-1.483-1.3-1.641-1.479a4.184,4.184,0,0,1-.995-1.664c-.084-.189-.224-.185-.237-.473a.368.368,0,0,0,.1-.068m-8.273.558a1.239,1.239,0,0,1,.907.692c.138.206.17.639-.064.665-.632.07-2.521.112-3.214.112a6.835,6.835,0,0,0-1.336.021,17.215,17.215,0,0,0,.062,3.09c.126.072,1.727-.069,2.219-.07h.946c.148-.042.251-.249.473-.2a2.194,2.194,0,0,1,1.014.642c.077.208-.048.4-.657.458-.392.04-3.075.156-4.073.281.094.8.019,2.522.168,3.215h.068c.283.2,3.916-.656,4.224-.541a.567.567,0,0,1,.1.372c-.4.218-5.57,1.725-5.677,1.757-.27.011-2.339.552-2.568.608-.248.011-.516.2-.764.207-.431.134-.793.542-1.352.439a4.006,4.006,0,0,1-.047-2.032c.415-.22,1.05-.006,1.622-.135.21-.047,2-.138,2.024-.333.047-.421-.062-3-.062-3.262-.046-.12-.779.012-.982.012l-1.757.034c-.369,0-.726.05-.879-.169-.177-.217-.1-.781-.034-1.048A31.727,31.727,0,0,1,166,89.41c.187-.031.076-.612.076-.966A11.516,11.516,0,0,0,166,86.45l-.1-.034a7.386,7.386,0,0,0-1.048-.034c-.848,0-1.529.031-2.534.034l-.169-.2c-.041-.4-.151-.937.3-.98.233-.142,5.153-.019,5.609-.034.239-.008,1.391-.038,2.374-.044a6.654,6.654,0,0,0,1.01-.006,1.705,1.705,0,0,0,.609-.3m4.86,3.328c.465,0,1.676-.034,1.859.237a5.577,5.577,0,0,1-.068,1.859,16.564,16.564,0,0,0-.135,1.994c-.243,1.081-.45,5.611-1.081,5.711-.05-.078-.14-.141-.169-.236v-.777c-.061-.282-.014-2.036-.034-2.23-.076-.734-.135-3.83-.135-4.055a7.6,7.6,0,0,0-.1-1.656,1.525,1.525,0,0,1-.473-.338,1.692,1.692,0,0,1,.034-.372.325.325,0,0,0,.169-.1c.079-.007.1-.006.135-.034m5.2.237c.149.2.034.617.034.912,0,.8-.135,1.4-.135,2.23,0,.81-.3,6.436-.338,6.623-.167.751-.177,1.6-.338,2.332a.594.594,0,0,1-.439.135l-.169-.169c-.1-.184-.259-7.592-.27-8.651a11.491,11.491,0,0,0-.135-2.5,3.608,3.608,0,0,0-.71-.169c-.22-.133-.282-.747,0-.851a6.14,6.14,0,0,1,2.5.108" transform="translate(-37.285 -39.719)"/>
        <path id="Path_2" data-name="Path 2" class="cls-2" d="M14.069.026c.351.047,2.167.14,2.31.552a.523.523,0,0,1,0,.507c-.089.173-.379.259-.372.439a9.125,9.125,0,0,1,0,1.69,4.762,4.762,0,0,0,1.656-.169c.3-.023,3.054-.35,4.037-.444.056.068.265.275.322.343,0,.146.381.547-.275.641-.4.057-2.744.251-3.043.328-.368.094-2.407.351-2.663.417-.087.264.377,3.913-.006,4.171-.89.141-4.354.562-5.806.83a14.034,14.034,0,0,1-2.771.237c-.085-1.066-.228-3.8-.3-3.852-.307,0-5.415,1.067-5.821.98a1.5,1.5,0,0,1-.055-1.237C1.748,5.2,6.972,4.6,7.019,4.194c.129-.219-.19-3-.2-4.055A.843.843,0,0,0,6.985,0a1.32,1.32,0,0,1,.473.034A14.038,14.038,0,0,0,9.418.51c.151.048.708.282.777.473.26.432-.806.865-.946,1.115a4.243,4.243,0,0,0,.068,1.926A15.783,15.783,0,0,0,12.8,3.619c.267-.06.586-.078.85-.129C13.6,2.554,13.507,1.2,13.405.308c.008-.305.312-.329.663-.282m-.528,4.709A9.549,9.549,0,0,1,13.71,7.37a17.02,17.02,0,0,1-4.021.541c-.174-.144-.091-.391-.135-.676a16.293,16.293,0,0,1-.068-1.791,27.437,27.437,0,0,1,4.055-.71M23.712,8.958a5.094,5.094,0,0,1,2.129,1.25v.372c-.152.155-.2.331-.439.406-.721.023-24.256,2.805-25.242,2.8a2.217,2.217,0,0,1-.09-1.31c.036-.116,21.647-2.517,22.122-2.643.282-.075.645,0,.879-.135.147-.087.235-.366.338-.507.075-.1.209-.153.3-.237M18.981,13.52c.143.163.1.541.1.845,0,.635.063,1.11.068,1.757l.135,2.2c.117.546-.04,1.222.068,1.723v.574l.068,1.149c.064.41.144.942.169,1.385a3.2,3.2,0,0,1-.089.894c-.157.213-1.37.162-2.762.234-2.005.1-4.389.281-4.582.325-.293,0-2.039.27-2.332.27-.154.039-1.543.214-2.061.237-.258.061-.535.337-.845.27l-.27-.1c-.085-.923-.406-3.635-.406-3.65V20.11c-.017-.081-.325-4.788-.2-5.339l.2-.169c.9-.249,10.64-1.286,11.118-1.352.83-.114,1.529,0,1.622.27m-2.163,1.352a15.925,15.925,0,0,1,.068,3.582,15.335,15.335,0,0,1-3.244.237,15.075,15.075,0,0,1-.1-3.65c.633-.144,2.6-.165,2.771-.27a.983.983,0,0,1,.507.1m-5.7.511c.065.277-.008.921.056,1.212V17.1a7.356,7.356,0,0,1,.135,1.69,18.462,18.462,0,0,1-3.176.2l-.068-.034c-.061-.771-.126-1.441-.135-2.2a3.167,3.167,0,0,1,0-.912.353.353,0,0,1,.068-.2,15.615,15.615,0,0,1,3.12-.266m5.97,4.22a26.4,26.4,0,0,1,.242,3.443,24.814,24.814,0,0,1-3.486.206,13.054,13.054,0,0,1-.135-3.345,21.628,21.628,0,0,1,3.379-.3m-5.812.473.1.034c.055.235.074.6.135.879v.574a4.137,4.137,0,0,1,.1.946c0,.44.14.705,0,1.014a6.912,6.912,0,0,1-.879.1,6.616,6.616,0,0,1-1.385.169c-.262,0-.688.116-.879-.034a18.366,18.366,0,0,1-.406-2.4,1.484,1.484,0,0,1,0-.777c.039-.351.328-.232.642-.3.5-.114,1.087-.093,1.554-.2.131-.031.282.018.372-.034a1.638,1.638,0,0,1,.642.034m6.961,5.339.338.034a10.322,10.322,0,0,1,1.014,2.3,1.918,1.918,0,0,1,.2,1.149.969.969,0,0,1-.237.439c-.044.036-.1.022-.135.068-.1.146-.07.395-.169.541a2.4,2.4,0,0,1-.608.439,1.534,1.534,0,0,1-.439.1c-.881.219-2.043-.223-1.825-1.149a4.2,4.2,0,0,1,.608-1.554c.085-.114.308-.1.405-.2.121-.17.087-.511.169-.71a9.505,9.505,0,0,1,.676-1.453m-10,.473a.98.98,0,0,1,.27.068v.068c.115.158.046.431,0,.608-.094.363-.06.664-.169,1.014a10.626,10.626,0,0,1-.608,1.622,7.818,7.818,0,0,1-1.453,1.825c-.309.112-2.006-2.006-2.028-2.6.076-.076.114-.21.2-.27l.642-.237c.424-.3,1.993-1.415,2.163-1.521a8.788,8.788,0,0,0,.98-.574" transform="translate(102 30.001)"/>
      </g>
    </g>
    <rect id="Rectangle_167" data-name="Rectangle 167" class="cls-3" width="138" height="60" transform="translate(99 25)"/>
  </g>
</svg>
