<svg xmlns="http://www.w3.org/2000/svg" xmlns:xlink="http://www.w3.org/1999/xlink" width="60" height="60" viewBox="0 0 60 60">
  <defs>
    <style>
      .cls-1, .cls-9 {
        fill: none;
      }

      .cls-2 {
        clip-path: url(#clip-path);
      }

      .cls-3 {
        fill: #a6a7a7;
      }

      .cls-4 {
        fill: #468b26;
      }

      .cls-5 {
        fill: #4b7326;
      }

      .cls-6 {
        fill: #1a1311;
      }

      .cls-7 {
        fill: #d58d88;
      }

      .cls-8 {
        fill: #d4d5d5;
      }

      .cls-9 {
        stroke: #d4d5d5;
        stroke-miterlimit: 10;
      }
    </style>
    <clipPath id="clip-path">
      <rect id="Rectangle_7" data-name="Rectangle 7" class="cls-1" width="60" height="60"/>
    </clipPath>
  </defs>
  <g id="Group_224" data-name="Group 224" transform="translate(0 0)">
    <g id="Group_3" data-name="Group 3" transform="translate(0 0)">
      <g id="Group_2" data-name="Group 2" class="cls-2">
        <path id="Path_3" data-name="Path 3" class="cls-3" d="M4.153,45.879l-.009,0c.035.1.08.2.118.306-.036-.1-.074-.2-.108-.307" transform="translate(-0.635 -7.035)"/>
        <path id="Path_4" data-name="Path 4" class="cls-3" d="M65.135,49.509c-.221-.029-.439-.072-.658-.11a5.241,5.241,0,0,1,.542.335c.036-.076.08-.149.116-.225" transform="translate(-9.887 -7.575)"/>
        <path id="Path_5" data-name="Path 5" class="cls-3" d="M63.984,51.665c.264-.456.514-.921.751-1.393-.239.472-.487.937-.751,1.393" transform="translate(-9.812 -7.709)"/>
        <path id="Path_6" data-name="Path 6" class="cls-3" d="M50.618,48.608a5.614,5.614,0,0,1-1.238-.684c-.485-.3-1.074-.444-1.547-.8-.331-.246-.607-.531-.923-.786-.77-.619-1.548-1.229-2.313-1.848a10.662,10.662,0,0,1-2.317-2.577,16.779,16.779,0,0,1-1.761-4.029c-.354-1.1-.814-2.173-1.113-3.285a3.9,3.9,0,0,0-1.267-1.637.5.5,0,0,0-.754.182,2.949,2.949,0,0,0-.348,1.361,2.872,2.872,0,0,1-.132.794c-.093.381-.093.772-.176,1.152a.952.952,0,0,1-1.466.622.693.693,0,0,1-.427-.629,2.6,2.6,0,0,0-.193-.885c-.142-.412-.229-.837-.367-1.25a1.959,1.959,0,0,0-.585-.942c-.075-.065-.151-.147-.262-.1a.218.218,0,0,0-.113.244,2.53,2.53,0,0,1-.158.842.923.923,0,0,1-.919.737c-.269.025-.4-.157-.525-.321a1.062,1.062,0,0,1-.171-.61,1.255,1.255,0,0,0-.228-.648c-.111-.168-.223-.161-.352-.011a.733.733,0,0,0-.132.251.725.725,0,0,1-.148.3,3.483,3.483,0,0,0-.819,1.652,7.16,7.16,0,0,1-1.3,2.167,3.943,3.943,0,0,0-.4.649,4.156,4.156,0,0,1-1.226,1.532,16.262,16.262,0,0,1-2.154,1.187,6.031,6.031,0,0,1-1.017.548c-.659.189-1.217.566-1.85.8a12.775,12.775,0,0,1-1.4.323,4.658,4.658,0,0,0-1.24.4,2.033,2.033,0,0,1-.854.215c-.727.047-1.423.25-2.146.326a14.516,14.516,0,0,0-1.825.346,15.129,15.129,0,0,1-2.146.306q-.886.074-1.764.215c-.313.047-.628.054-.941.1-.97.146-1.938.288-2.907.437a3.4,3.4,0,0,1-2.028-.2A27.891,27.891,0,0,0,54.718,49.28a13.209,13.209,0,0,1-4.1-.672" transform="translate(-0.716 -5.038)"/>
        <path id="Path_7" data-name="Path 7" class="cls-3" d="M68.407,35.36c0,.4-.006.806-.021,1.206.015-.4.023-.8.021-1.206" transform="translate(-10.487 -5.422)"/>
        <path id="Path_8" data-name="Path 8" class="cls-3" d="M68.335,37.419c-.03.492-.07.982-.124,1.467.054-.485.095-.975.124-1.467" transform="translate(-10.46 -5.738)"/>
        <path id="Path_9" data-name="Path 9" class="cls-3" d="M68.309,32.73c.047.57.071,1.137.085,1.7-.014-.564-.037-1.131-.085-1.7" transform="translate(-10.475 -5.019)"/>
        <path id="Path_10" data-name="Path 10" class="cls-3" d="M3.463,43.525c-.094-.365-.182-.733-.261-1.1.079.372.167.74.261,1.1" transform="translate(-0.491 -6.505)"/>
        <path id="Path_11" data-name="Path 11" class="cls-3" d="M67.745,41.834c-.08.4-.168.8-.264,1.2.1-.4.184-.8.264-1.2" transform="translate(-10.348 -6.415)"/>
        <path id="Path_12" data-name="Path 12" class="cls-3" d="M3.989,45.38c-.121-.374-.235-.753-.34-1.135.1.382.218.759.34,1.135" transform="translate(-0.56 -6.784)"/>
        <path id="Path_13" data-name="Path 13" class="cls-3" d="M2.738,39.737c-.075-.528-.136-1.061-.181-1.6.045.538.107,1.07.181,1.6" transform="translate(-0.392 -5.848)"/>
        <path id="Path_14" data-name="Path 14" class="cls-3" d="M3.051,41.67c-.077-.39-.145-.786-.206-1.183.061.4.129.792.206,1.183" transform="translate(-0.436 -6.208)"/>
        <path id="Path_15" data-name="Path 15" class="cls-3" d="M68.145,39.376c-.065.546-.151,1.087-.247,1.625.1-.538.182-1.079.247-1.625" transform="translate(-10.412 -6.038)"/>
        <path id="Path_16" data-name="Path 16" class="cls-3" d="M65.354,49.089q.288-.621.547-1.256-.259.635-.547,1.256" transform="translate(-10.022 -7.335)"/>
        <path id="Path_17" data-name="Path 17" class="cls-3" d="M67.27,43.8q-.185.712-.408,1.413.222-.7.408-1.413" transform="translate(-10.253 -6.716)"/>
        <path id="Path_18" data-name="Path 18" class="cls-3" d="M66.705,45.642c-.173.529-.363,1.053-.566,1.57.2-.516.394-1.04.566-1.57" transform="translate(-10.142 -6.999)"/>
        <path id="Path_19" data-name="Path 19" class="cls-4" d="M3.627,44.164c-.041-.146-.08-.293-.118-.44.038.147.077.295.118.44" transform="translate(-0.538 -6.705)"/>
        <path id="Path_20" data-name="Path 20" class="cls-4" d="M3.185,42.338c-.034-.151-.067-.3-.1-.454.03.152.063.3.1.454" transform="translate(-0.474 -6.422)"/>
        <path id="Path_21" data-name="Path 21" class="cls-4" d="M67.46,43.25c-.038.155-.076.31-.117.463.041-.153.079-.308.117-.463" transform="translate(-10.327 -6.632)"/>
        <path id="Path_22" data-name="Path 22" class="cls-4" d="M65.26,49.5c.029-.059.052-.121.08-.18l-.086.179h.006" transform="translate(-10.006 -7.562)"/>
        <path id="Path_23" data-name="Path 23" class="cls-4" d="M68.208,39.152c-.008.063-.011.126-.018.189.007-.063.01-.126.018-.189" transform="translate(-10.456 -6.003)"/>
        <path id="Path_24" data-name="Path 24" class="cls-4" d="M4.125,45.835h0c-.025-.083-.051-.167-.079-.251.028.083.049.168.076.251" transform="translate(-0.621 -6.99)"/>
        <path id="Path_25" data-name="Path 25" class="cls-4" d="M66.853,45.466c-.015.049-.029.1-.045.148.016-.049.03-.1.045-.148" transform="translate(-10.245 -6.972)"/>
        <path id="Path_26" data-name="Path 26" class="cls-4" d="M67.882,41.295c-.027.153-.059.3-.089.457.03-.152.062-.3.089-.457" transform="translate(-10.396 -6.332)"/>
        <path id="Path_27" data-name="Path 27" class="cls-4" d="M68.382,36.785c-.007.179-.013.358-.023.537.01-.179.016-.357.023-.537" transform="translate(-10.482 -5.641)"/>
        <path id="Path_28" data-name="Path 28" class="cls-4" d="M68.409,34.739c0,.176,0,.351,0,.526,0-.174,0-.35,0-.526" transform="translate(-10.49 -5.327)"/>
        <path id="Path_29" data-name="Path 29" class="cls-4" d="M66.118,47.5c-.039.1-.08.19-.119.284.04-.095.08-.189.119-.284" transform="translate(-10.121 -7.283)"/>
        <path id="Path_30" data-name="Path 30" class="cls-4" d="M2.834,40.416c-.02-.13-.045-.26-.062-.39.019.13.041.26.062.39" transform="translate(-0.425 -6.138)"/>
        <path id="Path_31" data-name="Path 31" class="cls-4" d="M56.373,40.588q.3-.775.566-1.57c.014-.05.029-.1.044-.148q.224-.7.408-1.413c.041-.154.08-.308.117-.464.1-.4.185-.8.264-1.2.03-.152.063-.3.089-.456.1-.538.183-1.079.247-1.625.008-.063.01-.127.018-.189q.081-.729.124-1.468c.01-.178.017-.357.023-.536q.025-.6.021-1.207c0-.175,0-.351,0-.526-.014-.565-.037-1.131-.085-1.7A27.929,27.929,0,1,0,2.541,32.665c.045.538.107,1.07.181,1.6.017.131.041.26.062.391.061.4.129.792.206,1.183.03.152.063.3.1.453.079.372.167.74.261,1.1.038.147.077.295.118.44.1.382.219.759.34,1.135.027.084.053.168.08.251,4.917-.5,9.217-1.668,13.97-2.3,3.884-.513,6.972-1.333,9.514-4.281,2.57-2.981,3.5-5.654,8.136-5.48,4.207.158,4.105,5.364,6.081,8.224a9.217,9.217,0,0,0,4.1,3.349c2.1.759,3.091,1.651,5.089,2.35a24.575,24.575,0,0,0,4.852,1.221l.085-.179c.191-.414.375-.833.546-1.257.04-.095.08-.189.119-.284" transform="translate(-0.375 -0.375)"/>
        <path id="Path_32" data-name="Path 32" class="cls-5" d="M4.23,46.159c.168-.019.329-.043.486-.068L4.179,46c.019.05.034.1.051.155" transform="translate(-0.641 -7.054)"/>
        <path id="Path_33" data-name="Path 33" class="cls-6" d="M12.9,51.867a11.32,11.32,0,0,0,1.527-.232c.655-.2,1.332-.338,1.981-.56.279-.094.584-.031.852-.139a17.209,17.209,0,0,1,2.278-.743,13.364,13.364,0,0,0,2.757-1c.171-.085.362-.2.294-.413s-.278-.175-.461-.2c-.486-.064-.892.214-1.354.268-.638.074-1.27.293-1.9.3a25.469,25.469,0,0,0-3.471.392,37.668,37.668,0,0,1-3.78.461c-.4.018-.805.03-1.2.068a11.462,11.462,0,0,1-2.438.336,2.772,2.772,0,0,0-.671.119,1.992,1.992,0,0,0-1.13.674c.273.524.567,1.035.873,1.538.24.008.478-.013.721-.009a11.64,11.64,0,0,0,2.725-.326c.8-.18,1.588-.409,2.407-.539" transform="translate(-0.946 -7.448)"/>
        <path id="Path_34" data-name="Path 34" class="cls-6" d="M14.326,57.955a7.14,7.14,0,0,0,2.034-.342,6.481,6.481,0,0,1,.64-.15,2.088,2.088,0,0,0,.706-.264c.944-.358,1.929-.594,2.9-.876a19.775,19.775,0,0,0,2.209-.763c.489-.213.923-.51,1.43-.687a2.413,2.413,0,0,0,.46-.232,11.5,11.5,0,0,1,1.252-.666,9.539,9.539,0,0,0,1.48-.732c.409-.29.812-.585,1.192-.907.326-.279.726-.462,1.063-.748.63-.539,1.214-1.114,1.852-1.646a.2.2,0,0,0,.075-.117c.016-.411.381-.608.655-.858.31-.282.678-.52.763-.95a1.639,1.639,0,0,1,.141-.284,3.9,3.9,0,0,0,.333-.848c.037-.174-.019-.375-.251-.312a1.589,1.589,0,0,0-.94.45,4.81,4.81,0,0,1-.952.859,8.922,8.922,0,0,1-1.163.946c-.505.272-.908.683-1.405.98a7.033,7.033,0,0,0-.805.487,7.129,7.129,0,0,1-1.692.945c-.86.361-1.736.679-2.619.99-1.047.372-2.117.668-3.161,1.046-.309.111-.643.147-.958.243-.827.25-1.664.472-2.514.649-.926.193-1.865.349-2.776.605-.875.246-1.743.5-2.625.715a2.637,2.637,0,0,0-1.073.447,1.155,1.155,0,0,0-.2.225,27.62,27.62,0,0,0,2.128,2.3c.073-.022.146-.041.218-.064a5.713,5.713,0,0,1,1.605-.438" transform="translate(-1.591 -7.14)"/>
        <path id="Path_35" data-name="Path 35" class="cls-6" d="M54.383,45.69a3.369,3.369,0,0,1-.776-.319c-.639-.336-1.295-.645-1.915-1-.547-.318-1.191-.464-1.715-.82a7.4,7.4,0,0,0-.814-.478,10.834,10.834,0,0,1-2.943-2.2c-.633-.654-1.271-1.3-1.882-1.969a6.645,6.645,0,0,1-1.053-1.3,25.673,25.673,0,0,1-1.832-3.4c-.359-1.039-.8-2.054-1.09-3.117a3.071,3.071,0,0,0-1.3-1.945,1.206,1.206,0,0,1-.556-.908c-.1-.722-.507-.966-1.222-.771-.489.135-.914.409-1.407.545a16.258,16.258,0,0,0-2.792,1.173,1.26,1.26,0,0,1-1.6-.433,2.638,2.638,0,0,0-.784-.824c-.206-.18-.61-.1-.643.113-.047.333-.177.649-.219.976a12.387,12.387,0,0,1-.389,1.567c-.135.5-.428.959-.576,1.465A8.5,8.5,0,0,1,28,34.166c-.222.356-.458.693-.706,1.031a15.146,15.146,0,0,1-1.5,1.931,4.41,4.41,0,0,1-.406.376,4.643,4.643,0,0,1-1.084.459c-.529.229-1,.545-1.561.727a4.815,4.815,0,0,0-1.087.378,7.843,7.843,0,0,1-2.646.853c-1.243.26-2.487.539-3.748.717a7.717,7.717,0,0,1-.879.116c-.733.021-1.462,0-2.2.07-1.218.124-2.43.31-3.646.459a33.886,33.886,0,0,0-3.525.606c-.47.108-.99.33-.975.864q.235.728.5,1.437c.012.006.02.014.032.02a3.408,3.408,0,0,0,2.029.2c.969-.149,1.937-.291,2.907-.437.312-.044.627-.051.941-.1.586-.093,1.173-.166,1.764-.215a15.02,15.02,0,0,0,2.147-.306,14.306,14.306,0,0,1,1.825-.345c.722-.077,1.419-.28,2.145-.327a2.037,2.037,0,0,0,.855-.215,4.658,4.658,0,0,1,1.24-.4,12.757,12.757,0,0,0,1.4-.323c.632-.229,1.191-.606,1.851-.8a6.1,6.1,0,0,0,1.017-.548,16.317,16.317,0,0,0,2.154-1.187,4.158,4.158,0,0,0,1.225-1.532,3.865,3.865,0,0,1,.4-.649,7.15,7.15,0,0,0,1.3-2.167,3.462,3.462,0,0,1,.819-1.651.742.742,0,0,0,.147-.3.743.743,0,0,1,.133-.251c.13-.149.241-.157.352.012a1.241,1.241,0,0,1,.227.647,1.067,1.067,0,0,0,.171.61c.126.164.256.347.525.321a.924.924,0,0,0,.919-.736,2.514,2.514,0,0,0,.159-.842.218.218,0,0,1,.113-.245c.112-.047.187.035.262.1a1.961,1.961,0,0,1,.586.942c.138.414.224.837.366,1.25a2.6,2.6,0,0,1,.194.885.692.692,0,0,0,.427.629.951.951,0,0,0,1.466-.622c.084-.38.084-.771.176-1.152a2.872,2.872,0,0,0,.132-.794,2.939,2.939,0,0,1,.349-1.361.5.5,0,0,1,.753-.182,3.9,3.9,0,0,1,1.267,1.637c.3,1.112.759,2.183,1.113,3.286a16.754,16.754,0,0,0,1.761,4.028A10.676,10.676,0,0,0,44.5,43.653c.765.619,1.543,1.229,2.314,1.848.316.255.592.54.922.786.472.354,1.062.5,1.548.8a5.64,5.64,0,0,0,1.237.683,13.242,13.242,0,0,0,4.117.674q.6-1.015,1.12-2.079a4,4,0,0,0-1.375-.674" transform="translate(-0.619 -4.2)"/>
        <path id="Path_36" data-name="Path 36" class="cls-6" d="M42.628,47.037c-.04.4-.046.806-.1,1.212a4.052,4.052,0,0,0-.079,1.357,6.594,6.594,0,0,0,.5,1.284.3.3,0,0,0,.221.177,2.15,2.15,0,0,0,1.721-.2,1.621,1.621,0,0,0,.838-1.833,1.931,1.931,0,0,0-.168-.868,17.88,17.88,0,0,0-.5-1.748c-.522-1.276-1.088-2.533-1.573-3.818-.07-.184-.121-.377-.2-.557a.328.328,0,0,0-.334-.2c-.117,0-.231.049-.221.155.026.295-.08.574-.076.864a9.017,9.017,0,0,1,.126,1.916,14.165,14.165,0,0,0-.033,1.689c-.014.2-.1.37-.124.567" transform="translate(-6.504 -6.416)"/>
        <path id="Path_37" data-name="Path 37" class="cls-7" d="M37.492,12.119c.231.149.342-1.593.99-2.218A2.284,2.284,0,0,1,41.3,9.64a.985.985,0,0,1,.277.3,3.222,3.222,0,0,1,.037,3.25,12.207,12.207,0,0,1-1.67,2.221,4.682,4.682,0,0,0-1.116,2.35c-.025.175-.1.344-.144.518-.083.348-.239.645-.685.654a.932.932,0,0,1-.892-.77,3.6,3.6,0,0,0-.4-1.1c-.317-.541-.527-1.135-.875-1.646a10.318,10.318,0,0,1-.786-1.1,5.764,5.764,0,0,1-.817-1.624,2.1,2.1,0,0,1,.217-1.806,1.39,1.39,0,0,1,2.3.008c.272.385.511,1.068.742,1.217" transform="translate(-5.235 -1.421)"/>
        <path id="Path_38" data-name="Path 38" class="cls-7" d="M30.5,20.379a3.331,3.331,0,0,1,.078,1.412,5.61,5.61,0,0,0,.033.975c0,.063.023.13.017.195-.014.154.03.334-.19.412a.509.509,0,0,1-.536-.107,1.285,1.285,0,0,0-.439-.218c-.729-.262-1.5-.4-2.247-.61a1.5,1.5,0,0,1-.824-.526.684.684,0,0,1-.086-.9,1.087,1.087,0,0,1,.975-.461,1.5,1.5,0,0,1,.556.146c.1.041.219.094.317.02s.03-.178.018-.266a1.653,1.653,0,0,1,.364-1.285.979.979,0,0,1,1.6.106,3.856,3.856,0,0,1,.248.534,4.565,4.565,0,0,1,.117.574" transform="translate(-4.013 -2.883)"/>
        <path id="Path_39" data-name="Path 39" class="cls-7" d="M47.317,18.2a2.7,2.7,0,0,1,.19.92c-.007.046.005.1.073.1.094,0,.124-.08.135-.135a3.43,3.43,0,0,1,.485-.916.817.817,0,0,1,.7-.541.386.386,0,0,1,.439.261,1.7,1.7,0,0,1-.095,1.148,15.653,15.653,0,0,1-1.336,2.108,1.959,1.959,0,0,1-.435.489c-.148.132-.358.153-.425-.046-.142-.445-.444-.819-.573-1.274a5.191,5.191,0,0,1-.2-1.485,11.87,11.87,0,0,1,.125-1.311.344.344,0,0,1,.519-.217.553.553,0,0,1,.3.4c.032.143.055.291.094.5" transform="translate(-7.096 -2.647)"/>
      </g>
    </g>
    <g id="Group_5" data-name="Group 5" transform="translate(0 0)">
      <g id="Group_4" data-name="Group 4" class="cls-2">
        <path id="Path_40" data-name="Path 40" class="cls-8" d="M21.8,48.421a1.252,1.252,0,0,1,.147.009c.184.025.4,0,.461.2s-.123.329-.294.414a13.413,13.413,0,0,1-2.757,1,17.206,17.206,0,0,0-2.278.743c-.268.108-.573.045-.853.139-.649.223-1.325.362-1.98.56a11.056,11.056,0,0,1-1.527.232c-.819.131-1.6.36-2.407.539a11.9,11.9,0,0,1-2.592.328h-.2c-.18,0-.359.012-.538.012l-.118,0c-.306-.5-.6-1.014-.873-1.538a2,2,0,0,1,1.13-.674,2.981,2.981,0,0,1,.65-.119h.019a2.606,2.606,0,0,0,.3.018c.73,0,1.417-.289,2.136-.354.4-.036.8-.049,1.2-.068a37.424,37.424,0,0,0,3.78-.461A25.469,25.469,0,0,1,18.687,49c.634-.011,1.266-.229,1.9-.3a10.447,10.447,0,0,1,1.206-.277m0-.847a2.941,2.941,0,0,0-.936.184,2.191,2.191,0,0,1-.368.1c-.3.036-.584.095-.859.152a5.3,5.3,0,0,1-.962.146,23.177,23.177,0,0,0-3.226.345l-.359.056-.314.047a33.087,33.087,0,0,1-3.381.4l-.218.01c-.34.014-.683.03-1.021.06a7.628,7.628,0,0,0-1.041.189,4.747,4.747,0,0,1-1.019.162,1.633,1.633,0,0,1-.2-.012l-.041-.005H7.806a2.845,2.845,0,0,0-.735.107l-.135.032a2.809,2.809,0,0,0-1.63,1L5,50.976l.243.466c.262.5.557,1.021.9,1.587l.238.39.456.016.147,0c.1,0,.2,0,.3-.007.08,0,.162-.005.243-.005h.2A12.634,12.634,0,0,0,10.5,53.08c.273-.062.544-.129.814-.195.53-.13,1.03-.254,1.542-.335.157-.025.318-.041.48-.058a6.107,6.107,0,0,0,1.157-.2c.266-.08.533-.15.8-.22.4-.1.805-.21,1.213-.351a1.43,1.43,0,0,1,.191-.019,2.188,2.188,0,0,0,.7-.135,16.209,16.209,0,0,1,2.168-.708A14.112,14.112,0,0,0,22.492,49.8a1.15,1.15,0,0,0,.722-1.422,1.118,1.118,0,0,0-1.1-.781l-.058-.005a1.893,1.893,0,0,0-.257-.017" transform="translate(-0.766 -7.295)"/>
        <path id="Path_41" data-name="Path 41" class="cls-8" d="M33.146,46.409c.163,0,.2.173.17.323a3.858,3.858,0,0,1-.334.848,1.7,1.7,0,0,0-.141.284c-.085.43-.454.668-.763.95-.274.25-.639.446-.655.859a.2.2,0,0,1-.075.116c-.638.532-1.223,1.107-1.852,1.647-.337.284-.737.468-1.064.747-.38.322-.782.617-1.192.907a9.574,9.574,0,0,1-1.479.732,11.2,11.2,0,0,0-1.252.665,2.365,2.365,0,0,1-.46.232c-.507.178-.941.476-1.43.687a19.777,19.777,0,0,1-2.209.763c-.969.283-1.954.518-2.9.876a2.088,2.088,0,0,1-.706.264,6.371,6.371,0,0,0-.64.15,7.139,7.139,0,0,1-2.034.342,5.719,5.719,0,0,0-1.606.438c-.073.025-.146.042-.218.064a27.618,27.618,0,0,1-2.128-2.3,1.128,1.128,0,0,1,.2-.225,2.632,2.632,0,0,1,1.073-.447c.881-.217,1.75-.469,2.624-.715.912-.257,1.851-.412,2.777-.605.85-.177,1.687-.4,2.513-.649.315-.1.65-.131.958-.243,1.045-.378,2.113-.674,3.161-1.046.882-.311,1.759-.629,2.618-.99a7.1,7.1,0,0,0,1.692-.945,7.119,7.119,0,0,1,.806-.487c.5-.3.9-.709,1.405-.98a8.921,8.921,0,0,0,1.163-.946,4.784,4.784,0,0,0,.952-.859,1.587,1.587,0,0,1,.94-.45.3.3,0,0,1,.081-.012m0-.847a1.161,1.161,0,0,0-.306.042c-.064.019-.115.032-.168.046a2.028,2.028,0,0,0-1.231.721,3.4,3.4,0,0,1-.648.583l-.141.108c-.163.127-.315.266-.467.406a3.065,3.065,0,0,1-.583.465,6.239,6.239,0,0,0-.868.594,5.891,5.891,0,0,1-.566.4c-.074.044-.152.087-.23.13a4.573,4.573,0,0,0-.668.421,6.224,6.224,0,0,1-1.492.826c-.861.362-1.746.682-2.574.973-.5.176-1,.334-1.5.493-.547.174-1.113.353-1.67.555a3.478,3.478,0,0,1-.426.109c-.165.035-.33.071-.491.12-.87.263-1.668.469-2.44.63-.251.052-.5.1-.753.151-.682.134-1.386.273-2.081.468l-.414.117c-.715.2-1.455.411-2.183.591a3.374,3.374,0,0,0-1.413.62,2,2,0,0,0-.353.39l-.368.529.411.5a28.811,28.811,0,0,0,2.194,2.366l.355.341.472-.14.063-.018c.062-.018.123-.036.185-.056.113-.039.219-.078.325-.117a3.728,3.728,0,0,1,1.049-.278,7.859,7.859,0,0,0,2.267-.385,2.761,2.761,0,0,1,.33-.08l.157-.032a2,2,0,0,0,.754-.248c.047-.024.094-.05.143-.069.637-.241,1.3-.425,2.007-.62.273-.076.546-.152.818-.231a20.7,20.7,0,0,0,2.3-.8c.245-.107.458-.22.665-.33a5.263,5.263,0,0,1,.716-.339,3.225,3.225,0,0,0,.625-.311,9.782,9.782,0,0,1,1.09-.583l.086-.041c.144-.07.292-.133.439-.2a5.964,5.964,0,0,0,1.165-.61c.375-.267.821-.59,1.245-.948a3.96,3.96,0,0,1,.438-.3,5.634,5.634,0,0,0,.626-.442c.3-.254.577-.51.858-.765.336-.307.654-.6.991-.877a1.067,1.067,0,0,0,.373-.671c.041-.042.12-.107.176-.152.071-.058.141-.116.208-.176.05-.046.1-.089.152-.132a2.3,2.3,0,0,0,.85-1.185,1.941,1.941,0,0,0,.107-.2l.057-.119a3.843,3.843,0,0,0,.333-.908,1.146,1.146,0,0,0-.211-.961,1.011,1.011,0,0,0-.79-.373" transform="translate(-1.398 -6.986)"/>
        <path id="Path_42" data-name="Path 42" class="cls-8" d="M37.561,27.238c.453,0,.719.273.794.836a1.2,1.2,0,0,0,.556.908,3.071,3.071,0,0,1,1.3,1.945c.294,1.063.731,2.079,1.09,3.117a25.667,25.667,0,0,0,1.831,3.4,6.681,6.681,0,0,0,1.054,1.3c.611.667,1.249,1.315,1.882,1.969a10.817,10.817,0,0,0,2.943,2.2,7.4,7.4,0,0,1,.814.478c.524.356,1.168.5,1.715.82.621.359,1.276.667,1.915,1a3.369,3.369,0,0,0,.776.319,4,4,0,0,1,1.375.674q-.516,1.064-1.12,2.079a13.241,13.241,0,0,1-4.117-.674,5.646,5.646,0,0,1-1.238-.683c-.485-.3-1.074-.445-1.547-.8-.33-.246-.607-.531-.923-.785-.77-.619-1.548-1.23-2.313-1.849a10.658,10.658,0,0,1-2.316-2.577,16.754,16.754,0,0,1-1.761-4.028c-.354-1.1-.814-2.174-1.113-3.286a3.9,3.9,0,0,0-1.267-1.637.383.383,0,0,0-.277-.107.536.536,0,0,0-.477.289,2.949,2.949,0,0,0-.348,1.361,2.872,2.872,0,0,1-.132.794c-.092.381-.092.772-.176,1.152a.894.894,0,0,1-.894.765,1.322,1.322,0,0,1-.571-.142.692.692,0,0,1-.427-.629,2.587,2.587,0,0,0-.194-.884c-.142-.413-.228-.837-.366-1.251a1.967,1.967,0,0,0-.586-.942c-.059-.052-.119-.114-.2-.114a.157.157,0,0,0-.065.014.218.218,0,0,0-.113.245,2.514,2.514,0,0,1-.159.842.924.924,0,0,1-.919.736l-.051,0c-.235,0-.356-.17-.474-.323a1.065,1.065,0,0,1-.171-.61,1.242,1.242,0,0,0-.228-.647c-.055-.085-.111-.125-.169-.125a.267.267,0,0,0-.183.113.741.741,0,0,0-.132.251.733.733,0,0,1-.148.3,3.471,3.471,0,0,0-.818,1.651,7.136,7.136,0,0,1-1.3,2.167,3.915,3.915,0,0,0-.4.649,4.158,4.158,0,0,1-1.225,1.532,16.316,16.316,0,0,1-2.154,1.187,6.035,6.035,0,0,1-1.017.548c-.66.19-1.218.566-1.851.8a12.76,12.76,0,0,1-1.4.323,4.658,4.658,0,0,0-1.24.4,2.037,2.037,0,0,1-.855.215c-.726.047-1.423.25-2.145.327A14.347,14.347,0,0,0,14.2,43.2a15.008,15.008,0,0,1-2.146.306c-.591.049-1.178.122-1.764.215-.313.047-.628.054-.941.1-.97.146-1.938.288-2.907.437a5.073,5.073,0,0,1-.769.064,2.888,2.888,0,0,1-1.26-.264c-.012-.006-.021-.014-.032-.02q-.271-.709-.5-1.437c-.015-.533.5-.757.974-.864a33.9,33.9,0,0,1,3.526-.606c1.216-.149,2.427-.335,3.646-.458.737-.074,1.466-.05,2.2-.071a7.715,7.715,0,0,0,.879-.116c1.262-.178,2.505-.457,3.748-.717a7.843,7.843,0,0,0,2.646-.853,4.816,4.816,0,0,1,1.087-.378c.556-.182,1.032-.5,1.561-.727a4.658,4.658,0,0,0,1.084-.459,4.184,4.184,0,0,0,.4-.376,15.094,15.094,0,0,0,1.5-1.931c.248-.339.484-.675.706-1.031a8.5,8.5,0,0,0,.881-2.128c.147-.505.439-.96.576-1.465a12.387,12.387,0,0,0,.389-1.567c.042-.328.173-.643.219-.976.019-.13.183-.212.353-.212a.439.439,0,0,1,.29.1,2.648,2.648,0,0,1,.784.824,1.144,1.144,0,0,0,1.052.553,1.24,1.24,0,0,0,.548-.12,16.277,16.277,0,0,1,2.791-1.173c.493-.136.918-.41,1.408-.544a1.632,1.632,0,0,1,.428-.065m0-.847a2.46,2.46,0,0,0-.651.095,5.69,5.69,0,0,0-.825.316,4.327,4.327,0,0,1-.585.229,17.053,17.053,0,0,0-2.945,1.233.419.419,0,0,1-.168.03.508.508,0,0,1-.3-.086,2.5,2.5,0,0,0-.792-.925c-.061-.049-.121-.1-.179-.15a1.284,1.284,0,0,0-.855-.316,1.155,1.155,0,0,0-1.19.933,3.216,3.216,0,0,1-.089.386,4.539,4.539,0,0,0-.133.6,7.541,7.541,0,0,1-.255,1.063c-.038.131-.075.262-.111.393a4.4,4.4,0,0,1-.249.63,6.186,6.186,0,0,0-.323.82,7.74,7.74,0,0,1-.791,1.922c-.223.359-.462.694-.667.975-.115.157-.227.316-.339.474a9.85,9.85,0,0,1-1.076,1.356l-.1.1a2.249,2.249,0,0,1-.214.2,1.725,1.725,0,0,1-.466.2c-.149.048-.3.1-.441.159-.232.1-.45.213-.668.325a5.631,5.631,0,0,1-.825.376c-.091.029-.188.055-.285.082a3.5,3.5,0,0,0-.991.386,6.259,6.259,0,0,1-2.084.681l-.284.059-.567.119c-1.024.217-2.083.44-3.124.588-.1.014-.2.03-.3.047a3.481,3.481,0,0,1-.478.06c-.235.007-.462.008-.688.011-.51.005-1.036.01-1.577.063-.782.08-1.566.185-2.325.286-.446.06-.893.12-1.34.174a35.281,35.281,0,0,0-3.612.621c-1.508.345-1.643,1.314-1.631,1.715l0,.12.036.115c.163.505.338,1,.52,1.478l.112.294.236.128.019.013.075.041a3.725,3.725,0,0,0,1.642.355,5.8,5.8,0,0,0,.9-.075q1-.154,2-.3l.9-.135c.127-.018.262-.029.4-.04.182-.015.364-.031.546-.058.582-.093,1.155-.163,1.707-.208a15.957,15.957,0,0,0,2.272-.326,13.722,13.722,0,0,1,1.717-.328c.359-.038.7-.1,1.027-.163a9.331,9.331,0,0,1,1.086-.16,2.816,2.816,0,0,0,1.212-.319,3.113,3.113,0,0,1,.827-.268l.2-.047c.133-.03.277-.058.421-.086a7.323,7.323,0,0,0,1.057-.262,8.884,8.884,0,0,0,.893-.4,5.742,5.742,0,0,1,.91-.385,3.347,3.347,0,0,0,.874-.432c.1-.061.192-.123.293-.174l.362-.18a13.827,13.827,0,0,0,1.9-1.071,4.964,4.964,0,0,0,1.482-1.822l.052-.1a2.544,2.544,0,0,1,.255-.41A7.917,7.917,0,0,0,30.412,35c.044-.125.084-.253.124-.381.056-.18.106-.334.159-.467a1.4,1.4,0,0,0,.087.13,1.428,1.428,0,0,0,1.155.667c.043,0,.087,0,.132-.007a1.822,1.822,0,0,0,1.345-.687c.054.2.11.4.178.591a1.986,1.986,0,0,1,.147.6,1.54,1.54,0,0,0,.9,1.4,2.148,2.148,0,0,0,.941.227,1.732,1.732,0,0,0,1.721-1.43,6.129,6.129,0,0,0,.1-.632,4.127,4.127,0,0,1,.076-.5L37.5,34.4a3.126,3.126,0,0,0,.129-.927,1.384,1.384,0,0,1,.081-.5,1.922,1.922,0,0,1,.623.848c.189.7.436,1.383.676,2.04.155.427.311.853.449,1.284a17.367,17.367,0,0,0,1.855,4.228,11.466,11.466,0,0,0,2.5,2.78c.43.348.868.7,1.306,1.045q.5.4,1,.8c.123.1.24.2.356.309.183.163.372.332.592.5a5.014,5.014,0,0,0,1.033.558,4.561,4.561,0,0,1,.571.279c.074.047.151.1.227.146a5.007,5.007,0,0,0,1.2.625,14.166,14.166,0,0,0,4.376.715h.483l.246-.415c.418-.7.807-1.424,1.155-2.142l.312-.643-.582-.415a4.811,4.811,0,0,0-1.664-.807,2.588,2.588,0,0,1-.585-.246c-.224-.118-.45-.232-.676-.346-.423-.214-.824-.417-1.21-.641a6.749,6.749,0,0,0-.881-.41,4.345,4.345,0,0,1-.782-.378,8.211,8.211,0,0,0-.907-.533,10,10,0,0,1-2.719-2.035l-.336-.346c-.508-.523-1.034-1.064-1.53-1.6l-.191-.2a4.738,4.738,0,0,1-.737-.918c-.222-.421-.468-.826-.707-1.218A11.041,11.041,0,0,1,42.1,33.765c-.127-.366-.263-.731-.4-1.1-.252-.675-.491-1.311-.673-1.969a3.907,3.907,0,0,0-1.665-2.437.362.362,0,0,1-.168-.306,1.613,1.613,0,0,0-1.632-1.567" transform="translate(-0.465 -4.047)"/>
        <path id="Path_43" data-name="Path 43" class="cls-9" d="M42.628,47.037c-.04.4-.046.806-.1,1.212a4.052,4.052,0,0,0-.079,1.357,6.594,6.594,0,0,0,.5,1.284.3.3,0,0,0,.221.177,2.15,2.15,0,0,0,1.721-.2,1.621,1.621,0,0,0,.838-1.833,1.931,1.931,0,0,0-.168-.868,17.88,17.88,0,0,0-.5-1.748c-.522-1.276-1.088-2.533-1.573-3.818-.07-.184-.121-.377-.2-.557a.328.328,0,0,0-.334-.2c-.117,0-.231.049-.221.155.026.295-.08.574-.076.864a9.017,9.017,0,0,1,.126,1.916,14.165,14.165,0,0,0-.033,1.689C42.738,46.666,42.649,46.839,42.628,47.037Z" transform="translate(-6.504 -6.416)"/>
        <path id="Path_44" data-name="Path 44" class="cls-8" d="M39.922,9.115a2.163,2.163,0,0,1,1.229.371.987.987,0,0,1,.277.3,3.22,3.22,0,0,1,.037,3.25A12.209,12.209,0,0,1,39.8,15.261a4.687,4.687,0,0,0-1.117,2.35c-.025.175-.1.344-.144.518-.082.348-.239.644-.685.654h-.014a.936.936,0,0,1-.878-.77,3.585,3.585,0,0,0-.4-1.1c-.317-.541-.527-1.135-.875-1.645a10.328,10.328,0,0,1-.786-1.1,5.742,5.742,0,0,1-.817-1.624,2.1,2.1,0,0,1,.217-1.805,1.55,1.55,0,0,1,1.181-.6,1.354,1.354,0,0,1,1.114.609c.273.386.511,1.068.742,1.218a.051.051,0,0,0,.028.008c.213,0,.341-1.627.962-2.227a2.3,2.3,0,0,1,1.593-.632m0-.847a3.165,3.165,0,0,0-2.182.87,2.782,2.782,0,0,0-.6.935,2.176,2.176,0,0,0-1.66-.78,2.4,2.4,0,0,0-1.831.907,2.609,2.609,0,0,0-.438,2.234c.011.075.023.148.032.222a3.408,3.408,0,0,0,.621,1.428,4.634,4.634,0,0,1,.273.457,4.581,4.581,0,0,0,.573.842c.094.118.19.235.271.356a6.318,6.318,0,0,1,.447.827c.121.252.247.513.4.774a2.793,2.793,0,0,1,.3.842,1.789,1.789,0,0,0,1.707,1.447,1.511,1.511,0,0,0,1.523-1.3c.012-.05.029-.1.045-.147a2.642,2.642,0,0,0,.113-.444,3.836,3.836,0,0,1,.925-1.928c.108-.128.216-.253.324-.379a10.2,10.2,0,0,0,1.453-2,4.053,4.053,0,0,0-.056-4.051,1.831,1.831,0,0,0-.527-.58,3.007,3.007,0,0,0-1.714-.524" transform="translate(-5.082 -1.268)"/>
        <path id="Path_45" data-name="Path 45" class="cls-8" d="M29.156,18.649a.9.9,0,0,1,.823.467,3.9,3.9,0,0,1,.248.534,4.719,4.719,0,0,1,.117.574,3.345,3.345,0,0,1,.078,1.412,5.608,5.608,0,0,0,.033.975c0,.064.023.13.017.2-.015.153.029.333-.19.412a.553.553,0,0,1-.186.034.519.519,0,0,1-.349-.141,1.285,1.285,0,0,0-.439-.218c-.729-.262-1.5-.4-2.247-.61a1.5,1.5,0,0,1-.824-.527.682.682,0,0,1-.086-.9,1.078,1.078,0,0,1,.93-.461h.045a1.5,1.5,0,0,1,.556.145.562.562,0,0,0,.2.058A.184.184,0,0,0,28,20.562c.1-.074.03-.178.018-.267a1.652,1.652,0,0,1,.363-1.284.968.968,0,0,1,.775-.362m0-.847h0a1.8,1.8,0,0,0-1.446.693,2.685,2.685,0,0,0-.5,1.057l-.052,0h-.073a1.931,1.931,0,0,0-1.621.818,1.5,1.5,0,0,0,.1,1.906,2.322,2.322,0,0,0,1.273.829c.267.073.536.139.805.2a13.751,13.751,0,0,1,1.38.386l.061.022a.9.9,0,0,1,.124.049,1.337,1.337,0,0,0,.889.338,1.387,1.387,0,0,0,.476-.086,1.1,1.1,0,0,0,.743-1.1,1.384,1.384,0,0,0-.012-.33,3.045,3.045,0,0,0-.036-.489,1.258,1.258,0,0,1-.019-.274,4.038,4.038,0,0,0-.069-1.745c-.014-.069-.022-.121-.03-.173a3.22,3.22,0,0,0-.117-.522,3.341,3.341,0,0,0-.233-.525l-.06-.117a1.727,1.727,0,0,0-1.582-.939" transform="translate(-3.86 -2.73)"/>
        <path id="Path_46" data-name="Path 46" class="cls-8" d="M46.577,17.11a.431.431,0,0,1,.191.046.551.551,0,0,1,.3.4c.032.144.055.292.094.5a2.691,2.691,0,0,1,.19.919c-.007.047.005.1.073.106h.007c.089,0,.118-.082.129-.135a3.418,3.418,0,0,1,.485-.916.819.819,0,0,1,.7-.542h.035a.375.375,0,0,1,.4.262,1.7,1.7,0,0,1-.095,1.148A15.653,15.653,0,0,1,47.756,21a1.959,1.959,0,0,1-.435.489.371.371,0,0,1-.234.1.194.194,0,0,1-.191-.147c-.142-.445-.444-.82-.573-1.274a5.224,5.224,0,0,1-.2-1.486,12.086,12.086,0,0,1,.126-1.31.313.313,0,0,1,.328-.262m0-.847h0a1.158,1.158,0,0,0-1.167.993l-.017.133a11.436,11.436,0,0,0-.116,1.278,6.058,6.058,0,0,0,.23,1.729,4.241,4.241,0,0,0,.363.837,3.065,3.065,0,0,1,.218.467,1.044,1.044,0,0,0,1,.737,1.2,1.2,0,0,0,.8-.318A2.682,2.682,0,0,0,48.5,21.4a6.129,6.129,0,0,1,.508-.743,5.5,5.5,0,0,0,.882-1.488,2.5,2.5,0,0,0,.1-1.7,1.213,1.213,0,0,0-1.2-.835h-.069a1.49,1.49,0,0,0-.951.373,1.33,1.33,0,0,0-.641-.621,1.265,1.265,0,0,0-.546-.124" transform="translate(-6.943 -2.494)"/>
        <path id="Path_47" data-name="Path 47" class="cls-8" d="M59.9,27.543A30,30,0,1,0,32.46,59.9,30,30,0,0,0,59.9,27.543M32.289,57.838A27.93,27.93,0,1,1,57.835,27.711,27.932,27.932,0,0,1,32.289,57.838" transform="translate(0 0)"/>
      </g>
    </g>
  </g>
</svg>
