<svg id="Group_6" data-name="Group 6" xmlns="http://www.w3.org/2000/svg" xmlns:xlink="http://www.w3.org/1999/xlink" width="36" height="36" viewBox="0 0 36 36">
  <defs>
    <style>
      .cls-1, .cls-9 {
        fill: none;
      }

      .cls-2 {
        clip-path: url(#clip-path);
      }

      .cls-3 {
        fill: #a6a7a7;
      }

      .cls-4 {
        fill: #5eac3a;
      }

      .cls-5 {
        fill: #4b7326;
      }

      .cls-6 {
        fill: #1a1311;
      }

      .cls-7 {
        fill: #d58d88;
      }

      .cls-8 {
        fill: #d4d5d5;
      }

      .cls-9 {
        stroke: #d4d5d5;
        stroke-miterlimit: 10;
      }
    </style>
    <clipPath id="clip-path">
      <rect id="Rectangle_7" data-name="Rectangle 7" class="cls-1" width="36" height="36"/>
    </clipPath>
  </defs>
  <g id="Group_3" data-name="Group 3">
    <g id="Group_2" data-name="Group 2" class="cls-2">
      <path id="Path_3" data-name="Path 3" class="cls-3" d="M4.15,45.879H4.144c.021.062.048.121.071.183-.022-.061-.044-.122-.065-.184" transform="translate(-2.039 -22.573)"/>
      <path id="Path_4" data-name="Path 4" class="cls-3" d="M64.872,49.465c-.133-.017-.264-.043-.395-.066a3.145,3.145,0,0,1,.325.2c.022-.046.048-.089.07-.135" transform="translate(-31.723 -24.305)"/>
      <path id="Path_5" data-name="Path 5" class="cls-3" d="M63.984,51.108c.159-.273.308-.553.451-.836-.143.283-.292.562-.451.836" transform="translate(-31.481 -24.734)"/>
      <path id="Path_6" data-name="Path 6" class="cls-3" d="M32.238,42.307a3.369,3.369,0,0,1-.743-.41c-.291-.181-.645-.266-.928-.479-.2-.147-.364-.319-.554-.471-.462-.371-.929-.738-1.388-1.109a6.4,6.4,0,0,1-1.39-1.546,10.067,10.067,0,0,1-1.057-2.418c-.212-.661-.489-1.3-.668-1.971a2.343,2.343,0,0,0-.76-.982.3.3,0,0,0-.452.109,1.769,1.769,0,0,0-.209.817,1.723,1.723,0,0,1-.079.477c-.056.229-.056.463-.106.691a.571.571,0,0,1-.88.373.416.416,0,0,1-.256-.377,1.557,1.557,0,0,0-.116-.531c-.085-.247-.137-.5-.22-.75a1.176,1.176,0,0,0-.351-.565c-.045-.039-.09-.088-.157-.06a.131.131,0,0,0-.068.146,1.518,1.518,0,0,1-.095.5.554.554,0,0,1-.551.442c-.162.015-.24-.094-.315-.193a.637.637,0,0,1-.1-.366.753.753,0,0,0-.137-.389c-.067-.1-.134-.1-.211-.007a.44.44,0,0,0-.079.151.435.435,0,0,1-.089.181,2.09,2.09,0,0,0-.491.991,4.3,4.3,0,0,1-.779,1.3,2.366,2.366,0,0,0-.242.389,2.493,2.493,0,0,1-.736.919,9.756,9.756,0,0,1-1.292.712,3.618,3.618,0,0,1-.61.329c-.4.113-.73.34-1.11.478a7.665,7.665,0,0,1-.838.194,2.8,2.8,0,0,0-.744.238,1.22,1.22,0,0,1-.513.129c-.436.028-.854.15-1.288.2a8.709,8.709,0,0,0-1.1.208,9.078,9.078,0,0,1-1.288.183q-.532.044-1.058.129c-.188.028-.377.033-.564.059-.582.087-1.163.173-1.744.262a2.042,2.042,0,0,1-1.217-.12A16.734,16.734,0,0,0,34.7,42.711a7.925,7.925,0,0,1-2.46-.4" transform="translate(-2.297 -16.166)"/>
      <path id="Path_7" data-name="Path 7" class="cls-3" d="M68.4,35.36c0,.242,0,.484-.013.724.009-.24.014-.481.013-.724" transform="translate(-33.646 -17.397)"/>
      <path id="Path_8" data-name="Path 8" class="cls-3" d="M68.286,37.419c-.018.3-.042.589-.075.88.033-.291.057-.585.075-.88" transform="translate(-33.56 -18.411)"/>
      <path id="Path_9" data-name="Path 9" class="cls-3" d="M68.309,32.73c.028.342.043.682.051,1.021-.008-.338-.022-.679-.051-1.021" transform="translate(-33.608 -16.104)"/>
      <path id="Path_10" data-name="Path 10" class="cls-3" d="M3.358,43.083c-.056-.219-.109-.44-.156-.663.047.223.1.444.156.663" transform="translate(-1.575 -20.871)"/>
      <path id="Path_11" data-name="Path 11" class="cls-3" d="M67.639,41.834c-.048.242-.1.482-.158.719.058-.238.11-.478.158-.719" transform="translate(-33.201 -20.583)"/>
      <path id="Path_12" data-name="Path 12" class="cls-3" d="M3.853,44.926c-.073-.225-.141-.452-.2-.681.062.229.131.456.2.681" transform="translate(-1.795 -21.769)"/>
      <path id="Path_13" data-name="Path 13" class="cls-3" d="M2.666,39.1c-.045-.317-.082-.637-.109-.959.027.323.064.642.109.959" transform="translate(-1.258 -18.764)"/>
      <path id="Path_14" data-name="Path 14" class="cls-3" d="M2.968,41.2c-.046-.234-.087-.471-.123-.71.037.238.077.475.123.71" transform="translate(-1.4 -19.92)"/>
      <path id="Path_15" data-name="Path 15" class="cls-3" d="M68.046,39.376c-.039.328-.09.652-.148.975.058-.323.109-.647.148-.975" transform="translate(-33.406 -19.373)"/>
      <path id="Path_16" data-name="Path 16" class="cls-3" d="M65.354,48.587q.173-.373.328-.754-.155.381-.328.754" transform="translate(-32.155 -23.534)"/>
      <path id="Path_17" data-name="Path 17" class="cls-3" d="M67.107,43.8q-.111.427-.245.848.133-.42.245-.848" transform="translate(-32.897 -21.549)"/>
      <path id="Path_18" data-name="Path 18" class="cls-3" d="M66.479,45.642c-.1.317-.218.632-.34.942.122-.31.236-.624.34-.942" transform="translate(-32.541 -22.456)"/>
      <path id="Path_19" data-name="Path 19" class="cls-4" d="M3.58,43.988c-.024-.087-.048-.176-.071-.264.023.088.046.177.071.264" transform="translate(-1.726 -21.513)"/>
      <path id="Path_20" data-name="Path 20" class="cls-4" d="M3.146,42.156c-.02-.09-.04-.181-.058-.272.018.091.038.182.058.272" transform="translate(-1.519 -20.607)"/>
      <path id="Path_21" data-name="Path 21" class="cls-4" d="M67.413,43.25c-.023.093-.046.186-.07.278.024-.092.047-.185.07-.278" transform="translate(-33.133 -21.279)"/>
      <path id="Path_22" data-name="Path 22" class="cls-4" d="M65.258,49.425c.017-.036.031-.073.048-.108l-.051.108h0" transform="translate(-32.105 -24.264)"/>
      <path id="Path_23" data-name="Path 23" class="cls-4" d="M68.2,39.152c0,.038-.007.076-.011.113,0-.038.006-.076.011-.113" transform="translate(-33.55 -19.263)"/>
      <path id="Path_24" data-name="Path 24" class="cls-4" d="M4.095,45.735h0c-.015-.05-.03-.1-.047-.15.017.05.029.1.046.151" transform="translate(-1.992 -22.428)"/>
      <path id="Path_25" data-name="Path 25" class="cls-4" d="M66.835,45.466c-.009.029-.017.059-.027.089.01-.029.018-.059.027-.089" transform="translate(-32.87 -22.37)"/>
      <path id="Path_26" data-name="Path 26" class="cls-4" d="M67.846,41.295c-.016.092-.036.183-.053.274.018-.091.037-.182.053-.274" transform="translate(-33.355 -20.318)"/>
      <path id="Path_27" data-name="Path 27" class="cls-4" d="M68.373,36.785c0,.108-.008.215-.014.322.006-.107.01-.214.014-.322" transform="translate(-33.633 -18.099)"/>
      <path id="Path_28" data-name="Path 28" class="cls-4" d="M68.409,34.739c0,.106,0,.211,0,.315,0-.1,0-.21,0-.315" transform="translate(-33.658 -17.092)"/>
      <path id="Path_29" data-name="Path 29" class="cls-4" d="M66.071,47.5c-.023.057-.048.114-.072.171.024-.057.048-.113.072-.171" transform="translate(-32.472 -23.368)"/>
      <path id="Path_30" data-name="Path 30" class="cls-4" d="M2.809,40.26c-.012-.078-.027-.156-.037-.234.011.078.025.156.037.234" transform="translate(-1.364 -19.693)"/>
      <path id="Path_31" data-name="Path 31" class="cls-4" d="M34.8,25.331q.183-.465.34-.942c.009-.03.017-.06.026-.089q.134-.42.245-.848c.025-.092.048-.185.07-.278.057-.237.111-.478.158-.719.018-.091.038-.182.053-.274.058-.323.11-.647.148-.975,0-.038.006-.076.011-.113q.049-.437.075-.881c.006-.107.01-.214.014-.322q.015-.36.013-.724c0-.105,0-.21,0-.315-.008-.339-.022-.679-.051-1.021A16.757,16.757,0,1,0,2.5,20.577c.027.323.064.642.109.959.01.079.025.156.037.235.037.238.077.475.123.71.018.091.038.181.058.272.047.223.1.444.156.663.023.088.046.177.071.264.062.229.132.456.2.681l.048.15c2.95-.3,5.53-1,8.382-1.377,2.33-.308,4.183-.8,5.708-2.568,1.542-1.789,2.1-3.392,4.882-3.288,2.524.095,2.463,3.219,3.648,4.934a5.53,5.53,0,0,0,2.458,2.01c1.26.455,1.855.991,3.054,1.41a14.745,14.745,0,0,0,2.911.733l.051-.108c.115-.248.225-.5.328-.754.024-.057.048-.113.072-.171" transform="translate(-1.203 -1.203)"/>
      <path id="Path_32" data-name="Path 32" class="cls-5" d="M4.209,46.1c.1-.012.2-.026.292-.041L4.179,46c.011.03.02.062.03.093" transform="translate(-2.056 -22.634)"/>
      <path id="Path_33" data-name="Path 33" class="cls-6" d="M10.208,50.549a6.791,6.791,0,0,0,.916-.139c.393-.119.8-.2,1.189-.336.167-.056.351-.019.511-.083a10.326,10.326,0,0,1,1.367-.446,8.018,8.018,0,0,0,1.654-.6c.1-.051.217-.118.176-.248s-.167-.105-.277-.119c-.292-.039-.535.129-.812.161-.383.045-.762.176-1.142.182a15.282,15.282,0,0,0-2.083.235,22.6,22.6,0,0,1-2.268.276c-.24.011-.483.018-.723.041a6.877,6.877,0,0,1-1.463.2,1.663,1.663,0,0,0-.4.071,1.2,1.2,0,0,0-.678.4c.164.314.34.621.524.923.144.005.287-.008.432-.006a6.984,6.984,0,0,0,1.635-.2c.482-.108.953-.245,1.444-.324" transform="translate(-3.037 -23.899)"/>
      <path id="Path_34" data-name="Path 34" class="cls-6" d="M12.745,53.4a4.284,4.284,0,0,0,1.22-.205,3.89,3.89,0,0,1,.384-.09,1.253,1.253,0,0,0,.424-.158c.566-.215,1.157-.356,1.738-.526a11.866,11.866,0,0,0,1.325-.458c.294-.128.554-.306.858-.412a1.447,1.447,0,0,0,.276-.139,6.9,6.9,0,0,1,.751-.4,5.724,5.724,0,0,0,.888-.439c.245-.174.487-.351.715-.544.2-.167.436-.277.638-.449.378-.324.728-.669,1.111-.988a.121.121,0,0,0,.045-.07c.01-.247.229-.365.393-.515.186-.169.407-.312.458-.57a.983.983,0,0,1,.085-.17,2.339,2.339,0,0,0,.2-.509c.022-.1-.012-.225-.151-.187a.954.954,0,0,0-.564.27,2.886,2.886,0,0,1-.571.515,5.352,5.352,0,0,1-.7.567c-.3.163-.545.41-.843.588a4.218,4.218,0,0,0-.483.292,4.278,4.278,0,0,1-1.015.567c-.516.216-1.042.407-1.571.594-.628.223-1.27.4-1.9.627-.185.067-.386.088-.575.146-.5.15-1,.283-1.508.389-.556.116-1.119.209-1.666.363-.525.147-1.046.3-1.575.429a1.582,1.582,0,0,0-.644.268.693.693,0,0,0-.12.135A16.572,16.572,0,0,0,11.651,53.7c.044-.013.087-.024.131-.039a3.428,3.428,0,0,1,.963-.263" transform="translate(-5.104 -22.909)"/>
      <path id="Path_35" data-name="Path 35" class="cls-6" d="M34.243,38.37a2.022,2.022,0,0,1-.466-.192c-.384-.2-.777-.387-1.149-.6-.328-.191-.715-.278-1.029-.492a4.441,4.441,0,0,0-.488-.287,6.5,6.5,0,0,1-1.766-1.32c-.38-.392-.763-.781-1.129-1.181a3.987,3.987,0,0,1-.632-.78,15.4,15.4,0,0,1-1.1-2.042c-.215-.623-.478-1.232-.654-1.87a1.842,1.842,0,0,0-.779-1.167.724.724,0,0,1-.334-.545c-.058-.433-.3-.58-.733-.463-.294.081-.549.245-.844.327a9.755,9.755,0,0,0-1.675.7.756.756,0,0,1-.96-.26,1.583,1.583,0,0,0-.47-.494c-.123-.108-.366-.058-.386.068-.028.2-.106.389-.132.586a7.432,7.432,0,0,1-.233.94c-.081.3-.257.576-.345.879a5.1,5.1,0,0,1-.529,1.277c-.133.214-.275.416-.424.619a9.088,9.088,0,0,1-.9,1.159,2.645,2.645,0,0,1-.243.226,2.786,2.786,0,0,1-.65.275c-.317.138-.6.327-.937.436a2.889,2.889,0,0,0-.652.227,4.706,4.706,0,0,1-1.587.512c-.746.156-1.492.324-2.249.43a4.631,4.631,0,0,1-.527.07c-.44.013-.877,0-1.319.042-.731.074-1.458.186-2.187.275a20.33,20.33,0,0,0-2.115.364c-.282.065-.594.2-.585.519q.141.437.3.862l.019.012a2.045,2.045,0,0,0,1.217.12c.581-.089,1.162-.175,1.744-.262.187-.026.376-.03.564-.059.352-.056.7-.1,1.058-.129a9.012,9.012,0,0,0,1.288-.183,8.585,8.585,0,0,1,1.1-.207c.433-.046.851-.168,1.287-.2a1.222,1.222,0,0,0,.513-.129,2.8,2.8,0,0,1,.744-.238,7.652,7.652,0,0,0,.837-.194c.379-.138.715-.364,1.11-.478a3.658,3.658,0,0,0,.61-.329,9.79,9.79,0,0,0,1.292-.712,2.5,2.5,0,0,0,.735-.919,2.319,2.319,0,0,1,.243-.39,4.29,4.29,0,0,0,.779-1.3,2.077,2.077,0,0,1,.491-.991.445.445,0,0,0,.088-.181.446.446,0,0,1,.08-.151c.078-.089.145-.094.211.007a.745.745,0,0,1,.136.388.64.64,0,0,0,.1.366c.076.1.153.208.315.193a.554.554,0,0,0,.551-.441,1.509,1.509,0,0,0,.1-.5.131.131,0,0,1,.068-.147c.067-.028.112.021.157.06a1.177,1.177,0,0,1,.352.565c.083.248.134.5.219.75a1.558,1.558,0,0,1,.116.531.415.415,0,0,0,.256.377.57.57,0,0,0,.879-.373c.05-.228.05-.463.106-.691a1.723,1.723,0,0,0,.079-.476,1.764,1.764,0,0,1,.209-.817.3.3,0,0,1,.452-.109,2.342,2.342,0,0,1,.76.982c.179.667.456,1.31.668,1.972A10.052,10.052,0,0,0,26.923,35.6a6.405,6.405,0,0,0,1.39,1.546c.459.371.926.738,1.388,1.109.189.153.355.324.553.471.283.212.637.3.929.479a3.384,3.384,0,0,0,.742.41,7.945,7.945,0,0,0,2.47.4q.361-.609.672-1.247a2.4,2.4,0,0,0-.825-.4" transform="translate(-1.985 -13.477)"/>
      <path id="Path_36" data-name="Path 36" class="cls-6" d="M42.542,44.96c-.024.242-.027.484-.058.727a2.431,2.431,0,0,0-.047.814,3.956,3.956,0,0,0,.3.771.182.182,0,0,0,.133.106,1.29,1.29,0,0,0,1.033-.117.972.972,0,0,0,.5-1.1,1.158,1.158,0,0,0-.1-.521,10.728,10.728,0,0,0-.3-1.049c-.313-.766-.653-1.52-.944-2.291-.042-.11-.073-.226-.119-.334a.2.2,0,0,0-.2-.122c-.07,0-.139.029-.133.093.016.177-.048.344-.046.519a5.41,5.41,0,0,1,.076,1.15,8.5,8.5,0,0,0-.02,1.013c-.009.118-.062.222-.075.34" transform="translate(-20.868 -20.588)"/>
      <path id="Path_37" data-name="Path 37" class="cls-7" d="M36.15,10.979c.139.089.205-.956.594-1.331a1.37,1.37,0,0,1,1.693-.156.591.591,0,0,1,.166.182,1.933,1.933,0,0,1,.022,1.95,7.324,7.324,0,0,1-1,1.332,2.809,2.809,0,0,0-.67,1.41c-.015.105-.061.206-.086.311-.05.209-.143.387-.411.392a.559.559,0,0,1-.535-.462,2.161,2.161,0,0,0-.237-.66c-.19-.325-.316-.681-.525-.988a6.191,6.191,0,0,1-.471-.658,3.458,3.458,0,0,1-.49-.974,1.258,1.258,0,0,1,.13-1.084.834.834,0,0,1,1.377,0c.163.231.306.641.445.73" transform="translate(-16.796 -4.56)"/>
      <path id="Path_38" data-name="Path 38" class="cls-7" d="M28.766,19.748a2,2,0,0,1,.047.847,3.367,3.367,0,0,0,.02.585c0,.038.014.078.01.117-.009.092.018.2-.114.247a.305.305,0,0,1-.322-.064.771.771,0,0,0-.263-.131c-.437-.157-.9-.242-1.348-.366a.9.9,0,0,1-.494-.315.411.411,0,0,1-.051-.542.652.652,0,0,1,.585-.276.9.9,0,0,1,.334.087c.059.024.132.056.19.012s.018-.107.011-.16a.991.991,0,0,1,.218-.771.587.587,0,0,1,.958.063,2.314,2.314,0,0,1,.149.321,2.739,2.739,0,0,1,.07.344" transform="translate(-12.876 -9.251)"/>
      <path id="Path_39" data-name="Path 39" class="cls-7" d="M46.9,17.826a1.618,1.618,0,0,1,.114.552c0,.027,0,.062.044.063.056,0,.075-.048.081-.081a2.058,2.058,0,0,1,.291-.55.49.49,0,0,1,.421-.325.232.232,0,0,1,.263.156,1.019,1.019,0,0,1-.057.689,9.392,9.392,0,0,1-.8,1.265,1.175,1.175,0,0,1-.261.294c-.089.079-.215.092-.255-.027-.085-.267-.266-.491-.344-.765a3.115,3.115,0,0,1-.119-.891,7.121,7.121,0,0,1,.075-.786.206.206,0,0,1,.311-.13.332.332,0,0,1,.181.238c.019.086.033.175.056.3" transform="translate(-22.768 -8.494)"/>
    </g>
  </g>
  <g id="Group_5" data-name="Group 5">
    <g id="Group_4" data-name="Group 4" class="cls-2">
      <path id="Path_40" data-name="Path 40" class="cls-8" d="M15.078,48.082a.751.751,0,0,1,.088.006c.11.015.239,0,.277.119s-.074.2-.176.248a8.048,8.048,0,0,1-1.654.6,10.323,10.323,0,0,0-1.367.446c-.161.065-.344.027-.512.083-.389.134-.8.217-1.188.336a6.632,6.632,0,0,1-.916.139c-.491.079-.963.216-1.444.324a7.138,7.138,0,0,1-1.555.2H6.512c-.108,0-.215.007-.323.007l-.071,0c-.184-.3-.36-.609-.524-.923a1.2,1.2,0,0,1,.678-.4,1.789,1.789,0,0,1,.39-.071h.012a1.563,1.563,0,0,0,.181.011c.438,0,.85-.173,1.282-.212.24-.022.483-.029.723-.041a22.452,22.452,0,0,0,2.268-.276,15.282,15.282,0,0,1,2.083-.235c.38-.007.759-.137,1.142-.182a6.269,6.269,0,0,1,.724-.166m0-.508a1.765,1.765,0,0,0-.562.11,1.315,1.315,0,0,1-.221.059c-.18.021-.351.057-.515.091a3.181,3.181,0,0,1-.577.087,13.906,13.906,0,0,0-1.935.207l-.215.034-.188.028a19.852,19.852,0,0,1-2.028.242L8.7,48.44c-.2.009-.41.018-.613.036a4.578,4.578,0,0,0-.624.113,2.848,2.848,0,0,1-.611.1.98.98,0,0,1-.121-.007l-.025,0H6.683a1.707,1.707,0,0,0-.441.064l-.081.019a1.685,1.685,0,0,0-.978.6L5,49.615l.146.279c.157.3.334.613.54.952l.143.234.274.01.088,0c.059,0,.118,0,.177,0s.1,0,.146,0h.119A7.58,7.58,0,0,0,8.3,50.877c.164-.037.326-.077.488-.117.318-.078.618-.152.925-.2.094-.015.191-.024.288-.035a3.665,3.665,0,0,0,.694-.12c.16-.048.32-.09.48-.132.238-.062.483-.126.728-.21a.857.857,0,0,1,.115-.011,1.313,1.313,0,0,0,.422-.081,9.725,9.725,0,0,1,1.3-.425,8.467,8.467,0,0,0,1.758-.637.69.69,0,0,0,.433-.853.671.671,0,0,0-.661-.468l-.035,0a1.137,1.137,0,0,0-.154-.01" transform="translate(-2.459 -23.407)"/>
      <path id="Path_41" data-name="Path 41" class="cls-8" d="M23.535,46.07c.1,0,.121.1.1.194a2.315,2.315,0,0,1-.2.509,1.018,1.018,0,0,0-.084.17c-.051.258-.272.4-.458.57-.165.15-.384.268-.393.515a.122.122,0,0,1-.045.07c-.383.319-.734.664-1.111.988-.2.171-.442.281-.639.448-.228.193-.469.37-.715.544a5.744,5.744,0,0,1-.887.439,6.719,6.719,0,0,0-.751.4,1.419,1.419,0,0,1-.276.139c-.3.107-.565.285-.858.412a11.867,11.867,0,0,1-1.325.458c-.582.17-1.172.311-1.738.526a1.253,1.253,0,0,1-.424.158,3.825,3.825,0,0,0-.384.09,4.284,4.284,0,0,1-1.22.205,3.432,3.432,0,0,0-.964.263c-.044.015-.087.025-.131.039a16.571,16.571,0,0,1-1.277-1.378.677.677,0,0,1,.12-.135,1.579,1.579,0,0,1,.644-.268c.529-.13,1.05-.281,1.574-.429.547-.154,1.11-.247,1.666-.363.51-.106,1.012-.239,1.508-.389.189-.057.39-.079.575-.146.627-.227,1.268-.4,1.9-.627.529-.186,1.055-.377,1.571-.594a4.258,4.258,0,0,0,1.015-.567,4.272,4.272,0,0,1,.484-.292c.3-.178.54-.425.843-.588a5.352,5.352,0,0,0,.7-.567,2.87,2.87,0,0,0,.571-.515.952.952,0,0,1,.564-.27.177.177,0,0,1,.049-.007m0-.508a.7.7,0,0,0-.183.025l-.1.027a1.217,1.217,0,0,0-.739.432,2.043,2.043,0,0,1-.389.35l-.084.065c-.1.076-.189.16-.28.243a1.839,1.839,0,0,1-.35.279,3.743,3.743,0,0,0-.521.356,3.535,3.535,0,0,1-.339.242c-.044.026-.091.052-.138.078a2.743,2.743,0,0,0-.4.252,3.735,3.735,0,0,1-.9.5c-.517.217-1.047.409-1.544.584-.3.106-.6.2-.9.3-.328.1-.668.212-1,.333a2.088,2.088,0,0,1-.256.066c-.1.021-.2.043-.295.072-.522.158-1,.281-1.464.378-.15.031-.3.061-.452.09-.409.08-.832.164-1.249.281l-.248.07c-.429.121-.873.247-1.31.355a2.025,2.025,0,0,0-.848.372,1.2,1.2,0,0,0-.212.234l-.221.317.247.3a17.286,17.286,0,0,0,1.316,1.42l.213.2.283-.084.038-.011.111-.034c.068-.023.132-.047.2-.07a2.237,2.237,0,0,1,.629-.167,4.715,4.715,0,0,0,1.36-.231,1.659,1.659,0,0,1,.2-.048l.094-.019a1.2,1.2,0,0,0,.453-.149c.028-.014.056-.03.086-.042.382-.145.781-.255,1.2-.372.164-.046.328-.091.491-.139a12.422,12.422,0,0,0,1.38-.477c.147-.064.275-.132.4-.2a3.158,3.158,0,0,1,.43-.2,1.935,1.935,0,0,0,.375-.186A5.869,5.869,0,0,1,19.274,51l.052-.025c.086-.042.175-.08.264-.118a3.579,3.579,0,0,0,.7-.366c.225-.16.493-.354.747-.569a2.376,2.376,0,0,1,.263-.183,3.38,3.38,0,0,0,.375-.265c.177-.152.346-.306.515-.459.2-.184.393-.359.594-.526a.64.64,0,0,0,.224-.4c.025-.025.072-.064.106-.091s.085-.07.125-.106.06-.053.091-.079a1.381,1.381,0,0,0,.51-.711,1.165,1.165,0,0,0,.064-.12l.034-.072a2.306,2.306,0,0,0,.2-.545.688.688,0,0,0-.126-.577.607.607,0,0,0-.474-.224" transform="translate(-4.486 -22.417)"/>
      <path id="Path_42" data-name="Path 42" class="cls-8" d="M23.75,26.9c.272,0,.431.164.477.5a.722.722,0,0,0,.334.545,1.842,1.842,0,0,1,.779,1.167c.176.638.438,1.247.654,1.87a15.4,15.4,0,0,0,1.1,2.042,4.008,4.008,0,0,0,.632.78c.367.4.749.789,1.129,1.181a6.49,6.49,0,0,0,1.766,1.32,4.439,4.439,0,0,1,.488.287c.314.214.7.3,1.029.492.372.215.766.4,1.149.6a2.021,2.021,0,0,0,.466.192,2.4,2.4,0,0,1,.825.4q-.309.639-.672,1.247a7.945,7.945,0,0,1-2.47-.4,3.387,3.387,0,0,1-.743-.41c-.291-.181-.645-.267-.928-.479-.2-.147-.364-.319-.554-.471-.462-.371-.929-.738-1.388-1.109a6.4,6.4,0,0,1-1.39-1.546,10.052,10.052,0,0,1-1.057-2.417c-.212-.662-.489-1.3-.668-1.972a2.342,2.342,0,0,0-.76-.982.23.23,0,0,0-.166-.064.322.322,0,0,0-.286.173,1.769,1.769,0,0,0-.209.817,1.723,1.723,0,0,1-.079.476c-.055.229-.055.463-.106.691a.537.537,0,0,1-.536.459.793.793,0,0,1-.343-.085.415.415,0,0,1-.256-.377,1.552,1.552,0,0,0-.116-.53c-.085-.248-.137-.5-.219-.75a1.18,1.18,0,0,0-.352-.565c-.036-.031-.071-.069-.118-.069a.094.094,0,0,0-.039.009.131.131,0,0,0-.068.147,1.509,1.509,0,0,1-.1.5.554.554,0,0,1-.551.441l-.03,0c-.141,0-.214-.1-.284-.194a.639.639,0,0,1-.1-.366.745.745,0,0,0-.137-.388c-.033-.051-.067-.075-.1-.075a.16.16,0,0,0-.11.068.445.445,0,0,0-.079.151.44.44,0,0,1-.089.181,2.083,2.083,0,0,0-.491.991,4.281,4.281,0,0,1-.78,1.3,2.349,2.349,0,0,0-.242.39,2.494,2.494,0,0,1-.735.919,9.79,9.79,0,0,1-1.292.712,3.621,3.621,0,0,1-.61.329c-.4.114-.731.34-1.11.478a7.654,7.654,0,0,1-.837.194,2.8,2.8,0,0,0-.744.238,1.222,1.222,0,0,1-.513.129c-.436.028-.854.15-1.287.2a8.609,8.609,0,0,0-1.1.207,9,9,0,0,1-1.288.183c-.355.029-.707.073-1.058.129-.188.028-.377.033-.564.059-.582.087-1.163.173-1.744.262a3.043,3.043,0,0,1-.461.039,1.733,1.733,0,0,1-.756-.158l-.019-.012q-.162-.425-.3-.862c-.009-.32.3-.454.584-.519a20.341,20.341,0,0,1,2.116-.364c.729-.089,1.456-.2,2.187-.275.442-.044.879-.03,1.319-.043a4.63,4.63,0,0,0,.527-.07c.757-.107,1.5-.274,2.249-.43a4.706,4.706,0,0,0,1.587-.512,2.889,2.889,0,0,1,.652-.227c.334-.109.619-.3.937-.436a2.8,2.8,0,0,0,.65-.275,2.511,2.511,0,0,0,.243-.226,9.057,9.057,0,0,0,.9-1.159c.149-.2.291-.4.424-.619a5.1,5.1,0,0,0,.529-1.277c.088-.3.264-.576.345-.879a7.432,7.432,0,0,0,.233-.94c.025-.2.1-.386.132-.586.012-.078.11-.127.212-.127a.264.264,0,0,1,.174.059,1.589,1.589,0,0,1,.47.494.686.686,0,0,0,.631.332.744.744,0,0,0,.329-.072,9.767,9.767,0,0,1,1.675-.7c.3-.082.551-.246.845-.327a.979.979,0,0,1,.257-.039m0-.508a1.476,1.476,0,0,0-.391.057,3.414,3.414,0,0,0-.5.189,2.6,2.6,0,0,1-.351.138,10.232,10.232,0,0,0-1.767.74.252.252,0,0,1-.1.018.305.305,0,0,1-.18-.051,1.5,1.5,0,0,0-.475-.555c-.037-.029-.073-.059-.107-.09a.771.771,0,0,0-.513-.189.693.693,0,0,0-.714.56,1.93,1.93,0,0,1-.053.232,2.723,2.723,0,0,0-.08.363,4.525,4.525,0,0,1-.153.638c-.023.079-.045.157-.067.236a2.638,2.638,0,0,1-.149.378,3.71,3.71,0,0,0-.194.492,4.644,4.644,0,0,1-.474,1.153c-.134.215-.277.417-.4.585-.069.094-.136.189-.2.284a5.909,5.909,0,0,1-.646.813l-.062.061a1.348,1.348,0,0,1-.129.119,1.035,1.035,0,0,1-.279.118c-.089.029-.179.059-.265.1-.139.06-.27.128-.4.2a3.378,3.378,0,0,1-.495.226c-.054.017-.113.033-.171.049a2.1,2.1,0,0,0-.594.232,3.756,3.756,0,0,1-1.251.408l-.171.036-.34.072c-.615.13-1.25.264-1.874.353-.059.008-.119.018-.18.028a2.09,2.09,0,0,1-.287.036c-.141,0-.277.005-.413.007-.306,0-.622.006-.946.038-.469.048-.94.111-1.395.172-.268.036-.536.072-.8.1a21.171,21.171,0,0,0-2.167.373c-.9.207-.986.788-.978,1.029l0,.072.022.069c.1.3.2.6.312.887l.067.176.142.077.011.008.045.024a2.235,2.235,0,0,0,.985.213,3.476,3.476,0,0,0,.538-.045q.6-.092,1.2-.18l.542-.081c.076-.011.157-.017.238-.024.109-.009.218-.019.328-.035.349-.056.693-.1,1.024-.125a9.573,9.573,0,0,0,1.363-.2,8.232,8.232,0,0,1,1.03-.2c.215-.023.419-.061.616-.1a5.6,5.6,0,0,1,.652-.1,1.689,1.689,0,0,0,.727-.192,1.868,1.868,0,0,1,.5-.161l.12-.028c.08-.018.166-.035.252-.051a4.394,4.394,0,0,0,.634-.157,5.331,5.331,0,0,0,.536-.238,3.445,3.445,0,0,1,.546-.231,2.009,2.009,0,0,0,.524-.259c.058-.037.115-.074.176-.1l.217-.108a8.3,8.3,0,0,0,1.138-.643,2.978,2.978,0,0,0,.889-1.093l.031-.057a1.527,1.527,0,0,1,.153-.246,4.75,4.75,0,0,0,.869-1.457c.026-.075.05-.152.075-.229.034-.108.063-.2.1-.28a.839.839,0,0,0,.052.078.857.857,0,0,0,.693.4c.026,0,.052,0,.079,0a1.093,1.093,0,0,0,.807-.412c.033.119.066.237.107.355a1.192,1.192,0,0,1,.088.359.924.924,0,0,0,.543.841,1.289,1.289,0,0,0,.564.136,1.039,1.039,0,0,0,1.033-.858,3.679,3.679,0,0,0,.057-.379,2.476,2.476,0,0,1,.046-.3l.016-.064a1.875,1.875,0,0,0,.077-.556.831.831,0,0,1,.049-.3,1.153,1.153,0,0,1,.374.509c.113.421.262.83.405,1.224.093.256.186.512.269.771A10.42,10.42,0,0,0,26,35.385a6.88,6.88,0,0,0,1.5,1.668c.258.209.521.418.784.627l.6.482c.074.059.144.122.214.185.11.1.223.2.355.3a3.008,3.008,0,0,0,.62.335,2.737,2.737,0,0,1,.343.168l.136.087a3,3,0,0,0,.718.375,8.5,8.5,0,0,0,2.626.429h.29l.148-.249c.251-.422.484-.854.693-1.285l.187-.386-.349-.249a2.887,2.887,0,0,0-1-.484,1.553,1.553,0,0,1-.351-.148c-.135-.071-.27-.139-.405-.208-.254-.129-.494-.25-.726-.385a4.05,4.05,0,0,0-.529-.246,2.607,2.607,0,0,1-.469-.227,4.927,4.927,0,0,0-.544-.32,6,6,0,0,1-1.631-1.221l-.2-.208c-.3-.314-.62-.639-.918-.963l-.114-.123a2.843,2.843,0,0,1-.442-.551c-.133-.252-.281-.5-.424-.73a6.624,6.624,0,0,1-.644-1.242c-.076-.219-.158-.438-.24-.657-.151-.4-.295-.787-.4-1.181a2.344,2.344,0,0,0-1-1.462.217.217,0,0,1-.1-.184.968.968,0,0,0-.979-.94" transform="translate(-1.493 -12.985)"/>
      <path id="Path_43" data-name="Path 43" class="cls-9" d="M42.542,44.96c-.024.242-.027.484-.058.727a2.431,2.431,0,0,0-.047.814,3.956,3.956,0,0,0,.3.771.182.182,0,0,0,.133.106,1.29,1.29,0,0,0,1.033-.117.972.972,0,0,0,.5-1.1,1.158,1.158,0,0,0-.1-.521,10.728,10.728,0,0,0-.3-1.049c-.313-.766-.653-1.52-.944-2.291-.042-.11-.073-.226-.119-.334a.2.2,0,0,0-.2-.122c-.07,0-.139.029-.133.093.016.177-.048.344-.046.519a5.41,5.41,0,0,1,.076,1.15,8.5,8.5,0,0,0-.02,1.013C42.609,44.737,42.555,44.842,42.542,44.96Z" transform="translate(-20.868 -20.588)"/>
      <path id="Path_44" data-name="Path 44" class="cls-8" d="M37.209,8.776A1.3,1.3,0,0,1,37.946,9a.592.592,0,0,1,.166.183,1.932,1.932,0,0,1,.022,1.95,7.325,7.325,0,0,1-1,1.333,2.812,2.812,0,0,0-.67,1.41c-.015.105-.061.206-.086.311-.049.209-.143.387-.411.392h-.009a.561.561,0,0,1-.527-.462,2.151,2.151,0,0,0-.237-.66c-.19-.325-.316-.681-.525-.987a6.2,6.2,0,0,1-.471-.658,3.445,3.445,0,0,1-.49-.974,1.259,1.259,0,0,1,.13-1.083.93.93,0,0,1,.709-.361.813.813,0,0,1,.669.365c.164.232.306.641.445.73a.031.031,0,0,0,.017.005c.128,0,.2-.976.577-1.336a1.379,1.379,0,0,1,.956-.379m0-.508A1.9,1.9,0,0,0,35.9,8.79a1.669,1.669,0,0,0-.358.561,1.306,1.306,0,0,0-1-.468,1.443,1.443,0,0,0-1.1.544,1.565,1.565,0,0,0-.263,1.341c.007.045.014.089.019.133a2.045,2.045,0,0,0,.373.857,2.782,2.782,0,0,1,.164.274,2.749,2.749,0,0,0,.344.505c.056.071.114.141.163.214a3.79,3.79,0,0,1,.268.5c.073.151.148.308.24.464a1.676,1.676,0,0,1,.178.505,1.073,1.073,0,0,0,1.024.868.907.907,0,0,0,.914-.783c.007-.03.017-.059.027-.088a1.585,1.585,0,0,0,.068-.266,2.3,2.3,0,0,1,.555-1.157c.065-.077.13-.152.195-.228a6.118,6.118,0,0,0,.872-1.2,2.432,2.432,0,0,0-.034-2.431,1.1,1.1,0,0,0-.316-.348,1.8,1.8,0,0,0-1.029-.314" transform="translate(-16.305 -4.068)"/>
      <path id="Path_45" data-name="Path 45" class="cls-8" d="M27.561,18.31a.538.538,0,0,1,.494.28,2.342,2.342,0,0,1,.149.321,2.832,2.832,0,0,1,.07.344,2.007,2.007,0,0,1,.047.847,3.364,3.364,0,0,0,.02.585c0,.038.014.078.01.117-.009.092.017.2-.114.247a.332.332,0,0,1-.112.02.311.311,0,0,1-.209-.084.771.771,0,0,0-.263-.131c-.437-.157-.9-.243-1.348-.366a.9.9,0,0,1-.494-.316.409.409,0,0,1-.051-.541.647.647,0,0,1,.558-.277h.027a.9.9,0,0,1,.334.087.337.337,0,0,0,.123.035.11.11,0,0,0,.068-.022c.058-.044.018-.107.011-.16a.991.991,0,0,1,.218-.771.581.581,0,0,1,.465-.217m0-.508h0a1.08,1.08,0,0,0-.868.416,1.611,1.611,0,0,0-.3.634l-.031,0h-.044a1.158,1.158,0,0,0-.973.491.9.9,0,0,0,.062,1.143,1.393,1.393,0,0,0,.764.5c.16.044.322.083.483.122a8.251,8.251,0,0,1,.828.232l.037.013a.537.537,0,0,1,.074.029.8.8,0,0,0,.533.2.832.832,0,0,0,.285-.051.659.659,0,0,0,.446-.659.83.83,0,0,0-.007-.2,1.827,1.827,0,0,0-.021-.293.755.755,0,0,1-.012-.165,2.423,2.423,0,0,0-.042-1.047c-.008-.041-.013-.073-.018-.1a1.932,1.932,0,0,0-.07-.313,2,2,0,0,0-.14-.315l-.036-.07a1.036,1.036,0,0,0-.949-.563" transform="translate(-12.383 -8.759)"/>
      <path id="Path_46" data-name="Path 46" class="cls-8" d="M46.056,16.771a.259.259,0,0,1,.115.027.331.331,0,0,1,.181.237c.019.086.033.175.056.3a1.615,1.615,0,0,1,.114.552c0,.028,0,.062.044.063h0c.053,0,.071-.049.077-.081a2.05,2.05,0,0,1,.291-.55.491.491,0,0,1,.421-.325h.021a.225.225,0,0,1,.242.157,1.022,1.022,0,0,1-.057.689,9.392,9.392,0,0,1-.8,1.265,1.175,1.175,0,0,1-.261.294.223.223,0,0,1-.14.061.116.116,0,0,1-.115-.088c-.085-.267-.266-.492-.344-.765a3.135,3.135,0,0,1-.12-.892,7.25,7.25,0,0,1,.076-.786.188.188,0,0,1,.2-.157m0-.508h0a.7.7,0,0,0-.7.6l-.01.08a6.861,6.861,0,0,0-.07.767,3.635,3.635,0,0,0,.138,1.037,2.545,2.545,0,0,0,.218.5,1.839,1.839,0,0,1,.131.28.627.627,0,0,0,.6.442.721.721,0,0,0,.479-.19,1.609,1.609,0,0,0,.37-.43,3.678,3.678,0,0,1,.3-.446,3.3,3.3,0,0,0,.529-.893,1.5,1.5,0,0,0,.058-1.021.728.728,0,0,0-.723-.5h-.041a.894.894,0,0,0-.57.224.8.8,0,0,0-.385-.372.759.759,0,0,0-.328-.074" transform="translate(-22.276 -8.002)"/>
      <path id="Path_47" data-name="Path 47" class="cls-8" d="M35.939,16.525A18,18,0,1,0,19.476,35.938,18,18,0,0,0,35.939,16.525M19.373,34.7A16.758,16.758,0,1,1,34.7,16.627,16.759,16.759,0,0,1,19.373,34.7" transform="translate(0 0)"/>
    </g>
  </g>
</svg>
