<svg xmlns="http://www.w3.org/2000/svg" width="35" height="35" viewBox="0 0 35 35">
  <defs>
    <style>
      .cls-1 {
        fill: #414141;
      }

      .cls-2 {
        fill: none;
      }
    </style>
  </defs>
  <g id="Group_267" data-name="Group 267" transform="translate(-264 -35)">
    <g id="Group_227" data-name="Group 227" transform="translate(271 43)">
      <path id="Icon_simple-applemusic" data-name="Icon simple-applemusic" class="cls-1" d="M20,5.1a7.693,7.693,0,0,0-.2-1.825A4.1,4.1,0,0,0,17.981.743,4.185,4.185,0,0,0,16.417.137a8.746,8.746,0,0,0-1.3-.125c-.033,0-.069-.008-.1-.011H4.991c-.127.008-.252.014-.379.022A5.811,5.811,0,0,0,2.785.357,4.163,4.163,0,0,0,.4,2.674a4.685,4.685,0,0,0-.3,1.173,8.843,8.843,0,0,0-.083.983c0,.027-.006.052-.008.078V15.1c.008.117.014.236.022.353A5.485,5.485,0,0,0,.44,17.426a4.151,4.151,0,0,0,2.695,2.335,5.476,5.476,0,0,0,1.077.19C4.674,20,5.137,20,5.6,20h9.191a10.415,10.415,0,0,0,1.308-.083,4.448,4.448,0,0,0,1.913-.675A4.205,4.205,0,0,0,19.58,17.4a4.619,4.619,0,0,0,.308-1.1A10.187,10.187,0,0,0,20,14.6q0-4.75,0-9.495ZM14.646,8.43v4.76a2.245,2.245,0,0,1-.2,1.005,1.765,1.765,0,0,1-1.157.95,3.845,3.845,0,0,1-.892.144,1.559,1.559,0,0,1-.754-2.965,3.554,3.554,0,0,1,.848-.27c.315-.068.632-.128.945-.2a.515.515,0,0,0,.425-.43.753.753,0,0,0,.017-.161q0-2.269,0-4.536a.6.6,0,0,0-.022-.154.24.24,0,0,0-.253-.2,3.014,3.014,0,0,0-.4.055q-.95.188-1.9.38L9.364,7.2l-1.145.232c-.013,0-.027.008-.04.011a.376.376,0,0,0-.325.408c0,.035,0,.072,0,.108q0,3.253,0,6.5a2.555,2.555,0,0,1-.179,1.023,1.774,1.774,0,0,1-1.195,1.028,3.7,3.7,0,0,1-.9.143,1.533,1.533,0,0,1-1.6-1.287,1.555,1.555,0,0,1,.962-1.729,4.914,4.914,0,0,1,.923-.258c.239-.05.479-.1.717-.148a.58.58,0,0,0,.5-.6V12.52q0-3.7,0-7.4a1.326,1.326,0,0,1,.035-.308.578.578,0,0,1,.455-.432c.212-.055.429-.093.645-.138.611-.125,1.222-.247,1.833-.37l1.892-.383c.558-.112,1.117-.225,1.675-.336a5.058,5.058,0,0,1,.553-.088.411.411,0,0,1,.462.4,1.713,1.713,0,0,1,.01.186q0,2.388,0,4.777Z" transform="translate(-0.003 -0.001)"/>
    </g>
    <rect id="Rectangle_160" data-name="Rectangle 160" class="cls-2" width="35" height="35" transform="translate(264 35)"/>
  </g>
</svg>
