<svg xmlns="http://www.w3.org/2000/svg" xmlns:xlink="http://www.w3.org/1999/xlink" width="34.044" height="34.041" viewBox="0 0 34.044 34.041">
  <defs>
    <style>
      .cls-1 {
        fill: #fff;
      }

      .cls-2 {
        clip-path: url(#clip-path);
      }

      .cls-3 {
        fill: #5eac3a;
      }
    </style>
    <clipPath id="clip-path">
      <rect id="Rectangle_65" data-name="Rectangle 65" class="cls-1" width="34.044" height="34.038"/>
    </clipPath>
  </defs>
  <g id="Group_130" data-name="Group 130" transform="translate(0 0)">
    <g id="Group_129" data-name="Group 129" transform="translate(0 0)">
      <g id="Group_128" data-name="Group 128" class="cls-2" transform="translate(0 0)">
        <path id="Path_113" data-name="Path 113" class="cls-1" d="M34.033,8.685a13.082,13.082,0,0,0-.34-3.106A6.973,6.973,0,0,0,30.6,1.263,7.119,7.119,0,0,0,27.939.231,14.87,14.87,0,0,0,25.72.019C25.662.014,25.6,0,25.547,0H8.49c-.216.014-.43.024-.646.037A9.888,9.888,0,0,0,4.734.606,7.086,7.086,0,0,0,.671,4.549a7.97,7.97,0,0,0-.515,2A15.021,15.021,0,0,0,.014,8.22,1.243,1.243,0,0,1,0,8.352V25.688c.014.2.024.4.038.6a9.33,9.33,0,0,0,.705,3.366A7.066,7.066,0,0,0,5.33,33.629a9.3,9.3,0,0,0,1.834.323c.787.075,1.574.085,2.364.085H25.173A17.8,17.8,0,0,0,27.4,33.9a7.572,7.572,0,0,0,3.259-1.149,7.158,7.158,0,0,0,2.665-3.129,7.847,7.847,0,0,0,.525-1.878,17.347,17.347,0,0,0,.194-2.892q0-8.085,0-16.159Z" transform="translate(0 0)"/>
      </g>
    </g>
    <g id="Group_120" data-name="Group 120" transform="translate(0.003 0.003)">
      <path id="Icon_simple-applemusic" data-name="Icon simple-applemusic" class="cls-3" d="M34.036,8.686A13.091,13.091,0,0,0,33.7,5.58,6.973,6.973,0,0,0,30.6,1.264,7.123,7.123,0,0,0,27.942.233,14.888,14.888,0,0,0,25.723.02c-.057,0-.118-.014-.176-.018H8.493c-.216.014-.43.024-.645.037a9.892,9.892,0,0,0-3.11.569A7.085,7.085,0,0,0,.674,4.55a7.972,7.972,0,0,0-.515,2A15.048,15.048,0,0,0,.017,8.221c0,.045-.01.088-.014.132V25.689c.014.2.024.4.038.6a9.334,9.334,0,0,0,.7,3.366A7.064,7.064,0,0,0,5.333,33.63a9.322,9.322,0,0,0,1.834.323c.787.075,1.574.085,2.364.085H25.176A17.732,17.732,0,0,0,27.4,33.9a7.572,7.572,0,0,0,3.257-1.149,7.157,7.157,0,0,0,2.666-3.132,7.859,7.859,0,0,0,.525-1.878,17.336,17.336,0,0,0,.194-2.893q0-8.085,0-16.159Zm-9.11,5.659v8.1a3.821,3.821,0,0,1-.346,1.711,3,3,0,0,1-1.969,1.617,6.545,6.545,0,0,1-1.518.245,2.654,2.654,0,0,1-1.284-5.046,6.051,6.051,0,0,1,1.444-.46c.536-.116,1.075-.217,1.608-.34a.876.876,0,0,0,.723-.732,1.282,1.282,0,0,0,.028-.274q0-3.861,0-7.72a1.028,1.028,0,0,0-.037-.262.408.408,0,0,0-.431-.332,5.131,5.131,0,0,0-.674.094q-1.617.319-3.234.647l-3.3.667-1.949.394c-.023,0-.045.014-.068.018a.639.639,0,0,0-.553.695c0,.06,0,.122,0,.184q0,5.536,0,11.07a4.349,4.349,0,0,1-.3,1.74,3.02,3.02,0,0,1-2.034,1.749,6.3,6.3,0,0,1-1.525.244,2.61,2.61,0,0,1-2.723-2.19,2.646,2.646,0,0,1,1.637-2.943,8.365,8.365,0,0,1,1.572-.44c.407-.085.816-.165,1.22-.251a.987.987,0,0,0,.851-1.013v-.213q0-6.3,0-12.6a2.257,2.257,0,0,1,.06-.525.984.984,0,0,1,.774-.735c.362-.094.73-.159,1.1-.234,1.04-.213,2.079-.42,3.12-.63l3.22-.652c.95-.19,1.9-.383,2.851-.572a8.611,8.611,0,0,1,.942-.15.7.7,0,0,1,.786.684,2.915,2.915,0,0,1,.017.316q0,4.064,0,8.13Z" transform="translate(-0.003 -0.002)"/>
    </g>
  </g>
</svg>
