<svg xmlns="http://www.w3.org/2000/svg" width="35" height="35" viewBox="0 0 35 35">
  <defs>
    <style>
      .cls-1, .cls-2 {
        fill: none;
      }

      .cls-1 {
        stroke: #000;
        stroke-linecap: round;
        stroke-linejoin: round;
        stroke-width: 1.5px;
      }
    </style>
  </defs>
  <g id="Group_271" data-name="Group 271" transform="translate(-430 -35)">
    <g id="Group_8" data-name="Group 8" transform="translate(438.265 44)">
      <path id="Path_48" data-name="Path 48" class="cls-1" d="M7.368,3H16.1a4.332,4.332,0,0,1,4.368,4.295v8.589A4.332,4.332,0,0,1,16.1,20.179H7.368A4.332,4.332,0,0,1,3,15.884V7.295A4.332,4.332,0,0,1,7.368,3Z" transform="translate(-3 -3)"/>
      <path id="Path_49" data-name="Path 49" class="cls-1" d="M19.84,15.271a3.909,3.909,0,1,1-3.293-3.293,3.909,3.909,0,0,1,3.293,3.293Z" transform="translate(-7.204 -7.288)"/>
      <path id="Path_50" data-name="Path 50" class="cls-1" d="M26.25,9.75h0" transform="translate(-12.71 -5.885)"/>
    </g>
    <rect id="Rectangle_164" data-name="Rectangle 164" class="cls-2" width="35" height="35" transform="translate(430 35)"/>
  </g>
</svg>
