<svg xmlns="http://www.w3.org/2000/svg" width="37.353" height="37.553" viewBox="0 0 37.353 37.553">
  <defs>
    <style>
      .cls-1 {
        fill: #fff;
      }

      .cls-2 {
        fill: none;
        stroke: #61ab41;
        stroke-linecap: round;
        stroke-linejoin: round;
        stroke-width: 4px;
      }
    </style>
  </defs>
  <g id="Group_179" data-name="Group 179" transform="translate(0.417 0.191)">
    <rect id="Rectangle_88" data-name="Rectangle 88" class="cls-1" width="37" height="37" rx="12" transform="translate(-0.269 -0.191)"/>
    <g id="Group_173" data-name="Group 173" transform="translate(1.583 2.009)">
      <path id="Path_48" data-name="Path 48" class="cls-2" d="M11.338,3H28.014a8.338,8.338,0,0,1,8.338,8.338V28.014a8.338,8.338,0,0,1-8.338,8.338H11.338A8.338,8.338,0,0,1,3,28.014V11.338A8.338,8.338,0,0,1,11.338,3Z" transform="translate(-3 -3)"/>
      <path id="Path_49" data-name="Path 49" class="cls-2" d="M25.334,17.627a6.671,6.671,0,1,1-5.62-5.62,6.67,6.67,0,0,1,5.62,5.62Z" transform="translate(-1.987 -2.002)"/>
      <path id="Path_50" data-name="Path 50" class="cls-2" d="M26.25,9.75h0" transform="translate(-0.402 -2.246)"/>
    </g>
  </g>
</svg>
