<svg xmlns="http://www.w3.org/2000/svg" xmlns:xlink="http://www.w3.org/1999/xlink" width="35.537" height="34.042" viewBox="0 0 35.537 34.042">
  <defs>
    <style>
      .cls-1 {
        fill: #fff;
      }

      .cls-2 {
        fill: none;
      }

      .cls-3 {
        clip-path: url(#clip-path);
      }

      .cls-4 {
        clip-path: url(#clip-path-2);
      }

      .cls-5 {
        fill: #5eac3a;
      }
    </style>
    <clipPath id="clip-path">
      <rect id="Rectangle_63" data-name="Rectangle 63" class="cls-1" width="35.434" height="34.042"/>
    </clipPath>
    <clipPath id="clip-path-2">
      <rect id="Rectangle_32" data-name="Rectangle 32" class="cls-2" width="35.433" height="34.04"/>
    </clipPath>
  </defs>
  <g id="Group_132" data-name="Group 132" transform="translate(0 0)">
    <g id="Group_125" data-name="Group 125" transform="translate(0 0)">
      <g id="Group_124" data-name="Group 124" class="cls-3" transform="translate(0 0)">
        <path id="Path_111" data-name="Path 111" class="cls-1" d="M28.507,34.042H6.929c-.042-.053-.089-.151-.127-.149A3.907,3.907,0,0,1,4.917,33.4a8.87,8.87,0,0,1-3.551-2.931A6.94,6.94,0,0,1,0,26.372q.011-9.4.005-18.793a3.9,3.9,0,0,1,.139-1.1A7.374,7.374,0,0,1,1.3,3.69,8.66,8.66,0,0,1,3.522,1.479,6.762,6.762,0,0,1,5.363.513,7.632,7.632,0,0,1,7.641.005Q17.506.009,27.368,0a8.03,8.03,0,0,1,3.3.765,8.075,8.075,0,0,1,3.477,2.973A4.218,4.218,0,0,1,34.767,4.8c.116.392.455.727.358,1.175.347.127-.076.574.309.684V27.39c-.054.04-.156.082-.154.121a3.73,3.73,0,0,1-.5,1.731,8.493,8.493,0,0,1-3.11,3.516,6.162,6.162,0,0,1-3.108,1.157c-.021,0-.038.082-.058.126" transform="translate(0 0)"/>
      </g>
    </g>
    <g id="Group_122" data-name="Group 122" transform="translate(0.104 0)">
      <g id="Group_55" data-name="Group 55" class="cls-4" transform="translate(0 0)">
        <path id="Path_77" data-name="Path 77" class="cls-5" d="M28.507,34.042H6.927c-.042-.052-.088-.151-.127-.148A3.908,3.908,0,0,1,4.918,33.4a8.87,8.87,0,0,1-3.551-2.931A6.943,6.943,0,0,1,0,26.372q.012-9.4.005-18.8a3.884,3.884,0,0,1,.139-1.1A7.38,7.38,0,0,1,1.3,3.686,8.652,8.652,0,0,1,3.523,1.479,6.764,6.764,0,0,1,5.362.513,7.632,7.632,0,0,1,7.641,0q9.865,0,19.727,0a8.031,8.031,0,0,1,3.3.765,8.078,8.078,0,0,1,3.477,2.974A4.208,4.208,0,0,1,34.765,4.8c.117.392.454.727.358,1.175.345.127-.077.574.309.684V27.39c-.055.04-.156.082-.155.121a3.727,3.727,0,0,1-.5,1.731,8.492,8.492,0,0,1-3.11,3.516,6.16,6.16,0,0,1-3.108,1.157c-.021,0-.038.082-.057.126M24.2,11.55c-.093-.049-.138-.092-.182-.092-1.126,0-2.253.006-3.38-.01a1.392,1.392,0,0,0-.691.272,1.61,1.61,0,0,0-.344.321q-1.936,1.936-3.874,3.869a2.346,2.346,0,0,1-.441.257V11.455c-.993,0-1.932-.007-2.868.006a1.915,1.915,0,0,0-.487.132V22.378c.09.081.166.151.2.182H15.3c0-.832-.006-1.629,0-2.427.009-.78-.036-1.562.039-2.435a2.568,2.568,0,0,1,.335.232c.462.483.939.95,1.388,1.447.878.97,1.879,1.839,2.824,2.753a1.112,1.112,0,0,0,.834.312c.75-.009,1.5,0,2.254,0h1.208c-.286-.352-.5-.667-.763-.934-1.414-1.426-2.842-2.84-4.264-4.26-.122-.122-.235-.254-.349-.377,1.819-1.795,3.6-3.551,5.394-5.319M16.743,30.792c.506,0,1.043,0,1.58,0a1.254,1.254,0,0,0,.665-.141c.73-.41,1.511-.737,2.238-1.151.9-.516,1.8-1.046,2.721-1.533.5-.266,1-.541,1.5-.818,1.106-.617,2.188-1.275,3.286-1.906a5.053,5.053,0,0,0,1.431-1.347c.267-.338.173-.753.423-1.079.09-.117.014-.352.014-.531v-10.6l-.093.087-.161-.4-1.2.736V22.586a3.312,3.312,0,0,1-1.941,1.871,7.665,7.665,0,0,0-.973.549c-.815.473-1.623.96-2.449,1.417-.539.3-1.144.5-1.649.836-1.2.807-2.532,1.378-3.726,2.142h-.1a6.188,6.188,0,0,1-1.283-.021c-.325-.07-.591-.36-.908-.5a17.692,17.692,0,0,1-1.7-.911c-.879-.513-1.784-.985-2.659-1.5-.425-.252-.873-.468-1.3-.711-.8-.452-1.6-.9-2.389-1.37a1.439,1.439,0,0,0-1.123-.21l-.753.551c.113.18.167.388.3.45.675.324,1.292.738,1.941,1.1.819.457,1.693.831,2.483,1.328,1.135.713,2.358,1.276,3.5,1.97.722.44,1.492.783,2.327,1.217M16.677,3.255a.926.926,0,0,1-.186.152,13.758,13.758,0,0,0-1.475.679c-1.161.716-2.363,1.36-3.56,2.012a16.078,16.078,0,0,0-1.433.775c-.779.538-1.65.917-2.454,1.409a9.394,9.394,0,0,0-1.8,1.249,2.92,2.92,0,0,0-.921,2.109c-.027,3.556-.012,7.112-.009,10.668,0,.041.047.082.061.106h.635l.75-.5c0-3.317.018-6.615-.01-9.912A2.3,2.3,0,0,1,7.558,9.93c.832-.481,1.665-.974,2.525-1.414A10.484,10.484,0,0,0,11.4,7.839c.792-.563,1.711-.917,2.511-1.462.491-.334,1.065-.531,1.559-.869.4-.274.875-.459,1.3-.71.5-.292,1.032-.086,1.545-.148.049-.006.1.012.056.006A6.007,6.007,0,0,1,19.124,5c.917.592,1.9,1.081,2.84,1.631.469.273.962.506,1.437.77.845.469,1.683.949,2.525,1.421a11.68,11.68,0,0,1,1.295.721,1.563,1.563,0,0,0,1.144.363,3.209,3.209,0,0,0,.454-.23,4.681,4.681,0,0,0,.419-.405c-.129-.176-.2-.362-.332-.438-.97-.544-1.961-1.054-2.932-1.6-.756-.423-1.5-.864-2.267-1.269-.921-.484-1.8-1.046-2.728-1.518a15.03,15.03,0,0,1-1.492-.826,2.1,2.1,0,0,0-1.211-.372c-.536,0-1.072,0-1.6,0" transform="translate(0 -0.001)"/>
      </g>
    </g>
  </g>
</svg>
