<svg xmlns="http://www.w3.org/2000/svg" xmlns:xlink="http://www.w3.org/1999/xlink" width="35" height="35" viewBox="0 0 35 35">
  <defs>
    <style>
      .cls-1 {
        fill: #414141;
      }

      .cls-2 {
        clip-path: url(#clip-path);
      }

      .cls-3 {
        fill: none;
      }
    </style>
    <clipPath id="clip-path">
      <rect id="Rectangle_32" data-name="Rectangle 32" class="cls-1" width="22" height="21.136"/>
    </clipPath>
  </defs>
  <g id="Group_269" data-name="Group 269" transform="translate(-347 -35)">
    <g id="Group_56" data-name="Group 56" transform="translate(353 42)">
      <g id="Group_55" data-name="Group 55" class="cls-2" transform="translate(0 0)">
        <path id="Path_77" data-name="Path 77" class="cls-1" d="M17.7,21.136H4.3c-.026-.033-.055-.094-.079-.092a2.426,2.426,0,0,1-1.168-.307,5.507,5.507,0,0,1-2.2-1.82A4.311,4.311,0,0,1,0,16.374Q.007,10.539,0,4.7A2.411,2.411,0,0,1,.089,4.02,4.582,4.582,0,0,1,.807,2.289,5.372,5.372,0,0,1,2.187.919,4.2,4.2,0,0,1,3.33.318,4.739,4.739,0,0,1,4.744,0q6.125,0,12.248,0A4.986,4.986,0,0,1,19.04.475,5.015,5.015,0,0,1,21.2,2.321a2.613,2.613,0,0,1,.387.66c.073.243.282.452.223.73.214.079-.048.356.192.424V17.006c-.034.025-.1.051-.1.075a2.314,2.314,0,0,1-.308,1.075,5.273,5.273,0,0,1-1.931,2.183,3.825,3.825,0,0,1-1.93.719c-.013,0-.023.051-.035.078M15.026,7.171c-.058-.03-.085-.057-.113-.057-.7,0-1.4,0-2.1-.006a.864.864,0,0,0-.429.169,1,1,0,0,0-.214.2q-1.2,1.2-2.406,2.4a1.456,1.456,0,0,1-.274.16V7.113c-.617,0-1.2,0-1.781,0a1.189,1.189,0,0,0-.3.082v6.7l.123.113H9.5c0-.517,0-1.011,0-1.507s-.023-.97.024-1.512a1.594,1.594,0,0,1,.208.144c.287.3.583.59.862.9.545.6,1.167,1.142,1.753,1.709a.691.691,0,0,0,.518.194c.466-.005.933,0,1.4,0h.75c-.177-.218-.31-.414-.474-.58-.878-.885-1.765-1.763-2.648-2.645-.076-.076-.146-.158-.217-.234l3.349-3.3M10.4,19.119c.314,0,.647,0,.981,0a.779.779,0,0,0,.413-.088c.453-.255.938-.458,1.39-.715.561-.321,1.117-.65,1.69-.952.312-.165.622-.336.93-.508.687-.383,1.358-.791,2.04-1.183a3.137,3.137,0,0,0,.888-.836c.166-.21.107-.468.263-.67.056-.073.009-.218.009-.33V7.256l-.058.054-.1-.246-.743.457v6.5a2.056,2.056,0,0,1-1.205,1.162,4.76,4.76,0,0,0-.6.341c-.506.294-1.008.6-1.52.88-.335.185-.71.308-1.024.519-.742.5-1.572.856-2.314,1.33h-.064a3.842,3.842,0,0,1-.8-.013c-.2-.043-.367-.224-.564-.311a10.985,10.985,0,0,1-1.053-.565c-.546-.318-1.108-.612-1.651-.934-.264-.156-.542-.29-.809-.441-.5-.28-.993-.56-1.483-.85a.894.894,0,0,0-.7-.13l-.468.342c.07.112.1.241.185.28.419.2.8.458,1.205.684.509.283,1.051.516,1.541.825.7.443,1.464.792,2.173,1.223.448.273.926.486,1.445.756m-.041-17.1a.575.575,0,0,1-.115.094,8.542,8.542,0,0,0-.916.421c-.721.445-1.467.844-2.211,1.249a9.983,9.983,0,0,0-.89.481C5.739,4.6,5.2,4.836,4.7,5.142a5.833,5.833,0,0,0-1.119.775,1.813,1.813,0,0,0-.572,1.31C2.992,9.435,3,11.643,3,13.851c0,.026.029.051.038.066h.394l.466-.309c0-2.059.011-4.107-.006-6.155a1.427,1.427,0,0,1,.8-1.288c.517-.3,1.034-.6,1.568-.878a6.509,6.509,0,0,0,.816-.42c.492-.349,1.063-.569,1.559-.908.3-.208.661-.33.968-.54.251-.17.543-.285.807-.441.308-.181.641-.053.959-.092.031,0,.063.008.035,0a3.73,3.73,0,0,1,.469.215c.569.368,1.178.671,1.763,1.013.291.17.6.314.892.478.525.291,1.045.589,1.568.882a7.252,7.252,0,0,1,.8.448.97.97,0,0,0,.71.225,1.993,1.993,0,0,0,.282-.143,2.906,2.906,0,0,0,.26-.252c-.08-.109-.123-.225-.206-.272-.6-.338-1.217-.654-1.82-.991-.469-.263-.93-.537-1.408-.788-.572-.3-1.116-.65-1.694-.943a9.333,9.333,0,0,1-.926-.513,1.305,1.305,0,0,0-.752-.231c-.333,0-.666,0-.993,0" transform="translate(0 0)"/>
      </g>
    </g>
    <rect id="Rectangle_162" data-name="Rectangle 162" class="cls-3" width="35" height="35" transform="translate(347 35)"/>
  </g>
</svg>
