<svg xmlns="http://www.w3.org/2000/svg" width="35" height="35" viewBox="0 0 35 35">
  <defs>
    <style>
      .cls-1 {
        fill: #414141;
      }

      .cls-2 {
        fill: none;
      }
    </style>
  </defs>
  <g id="Group_268" data-name="Group 268" transform="translate(-305 -35)">
    <g id="Group_10" data-name="Group 10" transform="translate(312 43)">
      <path id="Icon_simple-spotify" data-name="Icon simple-spotify" class="cls-1" d="M10,0A10,10,0,1,0,20,10,10.029,10.029,0,0,0,10,0Zm4.6,14.45a.6.6,0,0,1-.851.2c-2.35-1.45-5.3-1.751-8.8-.951a.618.618,0,1,1-.3-1.2c3.8-.851,7.1-.5,9.7,1.1a.6.6,0,0,1,.251.85Zm1.2-2.75a.755.755,0,0,1-1.052.25A12.958,12.958,0,0,0,4.8,10.8a.76.76,0,0,1-.45-1.451A14.634,14.634,0,0,1,15.6,10.7a.706.706,0,0,1,.2,1Zm.1-2.8C12.7,7,7.35,6.8,4.3,7.751A.918.918,0,0,1,3.75,6c3.55-1.05,9.4-.85,13.1,1.351a.967.967,0,0,1,.349,1.3,1.047,1.047,0,0,1-1.3.25Z" transform="translate(0 0)"/>
    </g>
    <rect id="Rectangle_161" data-name="Rectangle 161" class="cls-2" width="35" height="35" transform="translate(305 35)"/>
  </g>
</svg>
