<svg xmlns="http://www.w3.org/2000/svg" xmlns:xlink="http://www.w3.org/1999/xlink" width="65" height="65" viewBox="0 0 65 65">
  <defs>
    <style>
      .cls-1 {
        fill: #5eac3a;
      }

      .cls-2 {
        fill: #fff;
      }

      .cls-3 {
        fill: none;
        stroke: #61ab41;
        stroke-linecap: round;
        stroke-linejoin: round;
        stroke-width: 2.5px;
      }

      .cls-4 {
        filter: url(#Rectangle_89);
      }
    </style>
    <filter id="Rectangle_89" x="0" y="0" width="65" height="65" filterUnits="userSpaceOnUse">
      <feOffset dy="3" input="SourceAlpha"/>
      <feGaussianBlur stdDeviation="3" result="blur"/>
      <feFlood flood-opacity="0.161"/>
      <feComposite operator="in" in2="blur"/>
      <feComposite in="SourceGraphic"/>
    </filter>
  </defs>
  <g id="商城" transform="translate(9 6)">
    <g class="cls-4" transform="matrix(1, 0, 0, 1, -9, -6)">
      <rect id="Rectangle_89-2" data-name="Rectangle 89" class="cls-1" width="47" height="47" rx="23.5" transform="translate(9 6)"/>
    </g>
    <g id="Group_184" data-name="Group 184" transform="translate(11.654 10.338)">
      <g id="Group_180" data-name="Group 180" transform="translate(0 0)">
        <path id="Path_64" data-name="Path 64" class="cls-2" d="M8.449,3,4.5,8.265V26.691a2.632,2.632,0,0,0,2.632,2.632H25.559a2.632,2.632,0,0,0,2.632-2.632V8.265L24.243,3Z" transform="translate(-4.5 -3)"/>
        <path id="Path_65" data-name="Path 65" class="cls-2" d="M4.5,9H28.191" transform="translate(-4.5 -3.735)"/>
        <path id="Path_66" data-name="Path 66" class="cls-2" d="M22.53,15A5.265,5.265,0,1,1,12,15" transform="translate(-5.419 -4.47)"/>
      </g>
      <g id="Group_181" data-name="Group 181">
        <path id="Path_64-2" data-name="Path 64" class="cls-3" d="M8.449,3,4.5,8.265V26.691a2.632,2.632,0,0,0,2.632,2.632H25.559a2.632,2.632,0,0,0,2.632-2.632V8.265L24.243,3Z" transform="translate(-4.5 -3)"/>
        <path id="Path_65-2" data-name="Path 65" class="cls-3" d="M4.5,9H28.191" transform="translate(-4.5 -3.735)"/>
        <path id="Path_66-2" data-name="Path 66" class="cls-3" d="M22.53,15A5.265,5.265,0,1,1,12,15" transform="translate(-5.419 -4.47)"/>
      </g>
    </g>
  </g>
</svg>
