<svg id="Group_306" data-name="Group 306" xmlns="http://www.w3.org/2000/svg" xmlns:xlink="http://www.w3.org/1999/xlink" width="82.296" height="79.185" viewBox="0 0 82.296 79.185">
  <defs>
    <style>
      .cls-1 {
        fill: none;
      }

      .cls-2 {
        clip-path: url(#clip-path);
      }

      .cls-3 {
        fill: #fff;
        fill-rule: evenodd;
      }
    </style>
    <clipPath id="clip-path">
      <rect id="Rectangle_186" data-name="Rectangle 186" class="cls-1" width="82.296" height="79.185"/>
    </clipPath>
  </defs>
  <g id="Group_305" data-name="Group 305" class="cls-2">
    <path id="Path_193" data-name="Path 193" class="cls-3" d="M.922,69.014a11.828,11.828,0,0,1-.9-2.694C-.161,65.144,1.131,64,2.264,63.794a4.878,4.878,0,0,1,3.024.323,7.28,7.28,0,0,1,2.465,1.316c.373.368.7.787,1.043,1.184.186.216,1.765,2.347,1.981,2.285-.188.251.552.31.47.616a3.574,3.574,0,0,0,2.319,1.116c1.254.249,3-1.136,4.058-1.653,1.395-.68,3.056-1.481,4.648-1.181a4.549,4.549,0,0,1,.922.477,5.866,5.866,0,0,0,1.072.307c.857.2,1.713.4,2.569.61,1.234.3,2.337,1.03,3.6,1.224,1.117.172,1.749-.515,2.577-1.148,1.184-.905,2.617-2.375,4.155-2.542a6.286,6.286,0,0,0,3.434-1.5c.325-.282.532-.285.644-.772a4.222,4.222,0,0,0-.08-1.485c-.206-1.42-.356-3.687,1.257-4.437,1.583-.735,3.956-.906,4.483-2.911.406-1.542-.278-3.28-.354-4.846a6.4,6.4,0,0,1,1.289-4.607,9.888,9.888,0,0,1,3.647-2.3,14.294,14.294,0,0,1,2.083-.687,6.382,6.382,0,0,0,1.64-.454c.472-.3.778-1.318.977-1.822a13.919,13.919,0,0,0,.883-4.071c.1-1.439.015-3.019.762-4.312A2.234,2.234,0,0,1,59.12,31.49c.4-.143,1.16-.12,1.473-.34.955-.669,2.712-.839,3.141-2.29.794-1.189.916-3.21,1.027-4.7.055-.067.114-.249-.029-.323.017-.193.09-.25-.029-.411.2-.529-.153-1.206-.029-1.732a9.691,9.691,0,0,0-.154-1.607,6.874,6.874,0,0,1,.3-1.98,2.788,2.788,0,0,1,2.109-.965c.5-.035,1.648-.155,1.733-.82a4.008,4.008,0,0,0,.7-.624,1.861,1.861,0,0,0,.06-1,3.918,3.918,0,0,0-1-2.019c-1.218-1.594-2.762-3.541-2.231-5.7.027-.108-.083-.389.117-.41A7.667,7.667,0,0,1,67.511,3.8,7.837,7.837,0,0,1,74.693.013a15.087,15.087,0,0,0,1.7.73c.5.139.912.094,1.348.465.388.036.454.266.7.528.893.322,1,1.153,1.156,1.945a32.778,32.778,0,0,0,.755,3.3c.8,2.638,2.126,4.908,1.921,7.783a9.106,9.106,0,0,1-.86,2.7A10.178,10.178,0,0,1,79.763,20.2c-.959,1.118-2.326,1.373-3.346,2.319a3.006,3.006,0,0,0-1.7,2.113c-.23,1.087-1.238,1.924-1,3.112a6.561,6.561,0,0,0-.176,1.732c.028.693-.487,1.309-.411,1.967a4.813,4.813,0,0,1-.466,2.645c-.456.744-1.165.841-1.965,1a13.178,13.178,0,0,0-4.611,1.483c-.585.36-.94.569-1.054,1.294a6.331,6.331,0,0,0-.123,1.588c.053.093.191.517.029.528.166.334-.12.713.117.969.615,2.856-1.788,5.748-3.871,7.342a11.073,11.073,0,0,1-2.566,1.471,10.466,10.466,0,0,0-2.708.912c-1.212.749-1.421,2.012-1.776,3.28a15.822,15.822,0,0,0-.307,1.642,7.482,7.482,0,0,0,.279,2.26c.291,2.172.206,6.075-2.378,6.959-.081.467-.432.42-.765.558-.137.355-.592.457-.763.822a6.4,6.4,0,0,0-2.407,4.756c.109.051-.168.4-.147.558.11.131-.069.155-.147.234.136.367-.372.6-.381.91-.267.585-.893.975-1.262,1.38-.334-.081-.445.523-.763.411a3.874,3.874,0,0,1-2.378.851c-.033-.118-.124-.078-.147-.029-.155-.038-.469-.2-.587-.059a1.378,1.378,0,0,0-.675.029,2.982,2.982,0,0,0-1.879.44,10.354,10.354,0,0,0-1.82,1.556c-.436.349-1,.386-1.5.734A6.143,6.143,0,0,1,31.667,79.1a10.873,10.873,0,0,1-2.491-1.072,23.63,23.63,0,0,0-4.165-1.775c-2.189-.608-4.481.529-6.585,1-2.415.54-4.9.662-7-.864a.667.667,0,0,0-.44-.323c-.167-.117-.3-.523-.528-.469a5.291,5.291,0,0,0-1.145-.881c-.077-.222-.253-.3-.5-.352-.281-.5-1.045-.444-1.321-.822-1.009-.21-2.078-1-3.112-1.057-.766-.039-1.383-.871-1.87-1.376l-.095-.1A6.706,6.706,0,0,1,.922,69.014m1.665.416c.236-.587.248-1.488.454-2.174a6.363,6.363,0,0,1,.339-1.231,2.613,2.613,0,0,1,.568-1.387c-.93-.071-2.987.235-3.246,1.34a2.2,2.2,0,0,0,.051.974C1,68.085,1.374,69.416,2.5,69.958c.078-.179.215-.332.088-.528m2.53-4.464c-1.041.04-1.541,2.314-1.62,3.114-.076.767-.666,1.838-.3,2.594a2.385,2.385,0,0,0,1.679.987c.263-.056.371.2.7.147.27.255.6.164.91.381.121-.452.385-1.046.5-1.556h.088c.077,0,.812-1.2.948-1.334a8.971,8.971,0,0,1,1.179-.8,1.558,1.558,0,0,1-.3-.557,3.741,3.741,0,0,0-.359-.537,9.015,9.015,0,0,0-.98-1.144c-.11-.107-.226-.217-.348-.325a3.177,3.177,0,0,0-2.1-.967m2.7,5.814a.742.742,0,0,1-.205.381c.2.3-.068.644-.235.881-.381.539.7.746.959.928.091.063.3.313.363.335a7.781,7.781,0,0,1,1.82,1.262c.2-.113.007-.279.059-.411.175-.059.024-.189.029-.293a5.026,5.026,0,0,0,.44-1.585c.164-.075.186-.48.352-.646.3-.133.17-.443.352-.645a1.626,1.626,0,0,1-.675-.587c-1.716-2.03-1.721-1.35-3.258.382m3.7,4.609a6.052,6.052,0,0,0,2.637,1.233,25.061,25.061,0,0,0,2.552.008,12.976,12.976,0,0,1-1.285-3.384c-.086-.407.006-1.123-.254-1.46a1.256,1.256,0,0,0,.2-.54c-.745-.208-3.147-.086-3.238,1-.744.76-.705,2.354-.616,3.141M16.2,72.383a6.167,6.167,0,0,0,.4,2.333c.151.417.511,1.662,1.006,1.761a1.128,1.128,0,0,0,.516-.06c.712-.2,1.421-.414,2.137-.6a10.749,10.749,0,0,0,1.38-.385A6.831,6.831,0,0,1,20.5,72.429a6.816,6.816,0,0,1,.05-3.557,13.86,13.86,0,0,0-3.022,1.259c-.876.424-1.437.832-1.356,1.962l0,.039.018.25m6.022-3.535c-1.526-.305-1.085,2.781-.843,3.547s.2,2.409,1.085,2.777a.9.9,0,0,0,.876-.119c.7.11,1.395.249,2.091.39l-.586-1.616c.2-.084.154-.371.1-.579a5.717,5.717,0,0,1,.551-3.308c.063-.146.294-.2.218-.364-.066-.139-.994-.21-1.106-.206a4.953,4.953,0,0,1-1.546-.3c-.287-.087-.57-.173-.84-.227M30.4,75.6a11.617,11.617,0,0,1-1.145-3.165A7.448,7.448,0,0,0,28.9,71a1.761,1.761,0,0,0-1-1.029,1.664,1.664,0,0,0-1.824.8,3.8,3.8,0,0,0-.438,2.072,4.494,4.494,0,0,0,.429,2.079,4.945,4.945,0,0,0,2.268,1.889A9.923,9.923,0,0,0,32.3,78.274a7.356,7.356,0,0,0-1.264-1.712A7.223,7.223,0,0,1,30.4,75.6m2.582-5.033a2.768,2.768,0,0,1-2.938.456c-.334,1.721.6,3.405,1.5,4.909L32.9,78.2a10.994,10.994,0,0,0,4.744-2.231,4.122,4.122,0,0,1-2.057-1.883L33.5,71c-.006-.308.429-.455.7-.308a1.484,1.484,0,0,1,.539.732,9.45,9.45,0,0,0,3.43,3.9l2.859-1.128-3.393-4.708a1.614,1.614,0,0,1-.339-.673.551.551,0,0,1,.324-.617l4.7,6.229a5.012,5.012,0,0,0,2.99-1.111,12.1,12.1,0,0,0,1.675-2.468,8,8,0,0,1-5.156-2.87c-.242-.3-.44-.789-.13-1.015.34-.248.756.176,1,.523a6.212,6.212,0,0,0,4.34,2.61,5.665,5.665,0,0,1,2.146-4.1,43.4,43.4,0,0,0,3.6-3.133,10.982,10.982,0,0,1-7.323-4.532c-.206-.3-1.906.735-2.109.888-.563.425-1.249.97-1.007,1.762.317,1.037,1.728,1.945,2.595,2.49a10.413,10.413,0,0,0,3.316,1.357,1.777,1.777,0,0,1,.593.2.542.542,0,0,1,.272.526.533.533,0,0,1-.477.385,1.475,1.475,0,0,1-.64-.114,17.755,17.755,0,0,1-3.234-1.491c-.852-.487-1.667-1-2.486-1.545.361,2.394-1.664,3.773-3.669,4.4a11.977,11.977,0,0,0-3.249,1.305,6.2,6.2,0,0,0-.545.423c-.621.534-1.167,1.162-1.827,1.649M47.75,55.659a3.875,3.875,0,0,1-.488.89c-.046.084-.848,1.62-.929,1.49.943,1.523,2.548,2.228,4.016,3.142.64.4,2.978,1.787,2.73.146.194-.842.572-1.985.176-2.73a3.393,3.393,0,0,0-.368-1.044c-.556-.026-1.106-.056-1.657-.13a.567.567,0,0,0-.47-.264,5.092,5.092,0,0,1-1.3-.562,12.527,12.527,0,0,1-1.5-.816l-.205-.122M47.5,48.734c-.3.209-.112.848-.176,1.116a7.473,7.473,0,0,0,.155,2.063c.081.782.177,1.562.283,2.341.407,0,.548.723.913.938a8.212,8.212,0,0,0,4.256,1.556c-.059-.077-.093-.053-.117-.176.477-.879.041-2.562.646-3.611a8.55,8.55,0,0,0-1.027-.147c-.331.026-.927-.582-1.2-.769-.4-.275-.851-.479-1.262-.732a4.435,4.435,0,0,1-2.062-2.05c-.186-.01-.312-.381-.411-.529m3.066,1.979A6.641,6.641,0,0,0,53.724,52.2a5.052,5.052,0,0,1,.5-1.079c.291-.385,1.617-.955,1.347-1.542-.153-.331-1-.494-1.317-.461-.051.005-.977-.638-1.1-.713a12.173,12.173,0,0,1-1.6-1.523,6.588,6.588,0,0,1-.78-.765c-.072-.1-.22-.524-.285-.55-.989-.417-1.554,1.253-2.231,1.585-1.165,1.084,1.573,3.056,2.3,3.565m.5-5.686a5.774,5.774,0,0,0,1.6,1.769c.669.409,1.229,1.044,1.906,1.468.6.373,1.185.105,1.679.77.11.148.088.383.259.471.048.025.4.1.267-.034a31.444,31.444,0,0,0,3.048-1.064c.215-.11,1.8-1.576,1.791-1.582-.891-.421-1.964-.516-2.786-.879-.351-.155-.817-.5-1.214-.7a6.512,6.512,0,0,1-1.517-.994c-.47-.421-.7-.85-1.413-.634-.055.017-.187.065-.369.132-.949.353-3.263,1.258-3.251,1.275m9,.507c.821-.227,1.825,1.1,2.437.352.83-1.408,2.055-2.821,1.644-4.873-1.044,1.56-4.518-1.086-5.607-1.174-.161-.344-.573-.467-.851-.734a1.655,1.655,0,0,1-.294.969v.205h-.059c-.03.462-.482,1.078-.44,1.5-.643.79-.962,1.716.323,2.143a19.742,19.742,0,0,0,2.848,1.615m3.552-4.785c.04-.211.249-.046.352-.264.069.026.049.011.088.059a5.879,5.879,0,0,1,.057-1.061c-.011-.406-.06-.81-.083-1.215-.021-.366-.15-1.405.35-1.6a5.836,5.836,0,0,0,.969-.7c-.447.02-.92-.218-1.468-.264-.558-.462-1.317-.476-1.732-.969a.9.9,0,0,1-.763-.616,3.837,3.837,0,0,1-1.027-1.233l-.059.029a2,2,0,0,1-.205-.763c-.409.368-1.016.269-1.37.779a2.944,2.944,0,0,0-.389,1.1,4.914,4.914,0,0,0-.266,2.143c-.208.345-.054.912-.234,1.2-.212.9,1.274,1.6,1.948,1.985a11.861,11.861,0,0,0,3.131,1.215c-.078.211.59.153.7.176m.646-10.8a5.849,5.849,0,0,1-1.2.969c-.712.159-1.457.892-2.261,1a4.077,4.077,0,0,0,1.927,2.277,4.684,4.684,0,0,0,1.385.657,7.189,7.189,0,0,1,1.033.184c.322.131.543.479.917.514.263.025.684-.257.942-.339a14.435,14.435,0,0,1,2.094-.437c.7-.112,2.381-.278,2.768-1.008.447-.842.078-1.925.44-2.789a9.239,9.239,0,0,0,.352-2.73c.245-.311.116-.982.176-1.409.117-.82,1.027-1.733.968-2.466.192-.035.215-.493.264-.646-.508.253-1.139-.191-1.556-.029a37.508,37.508,0,0,1-3.728-1.262c-.34-.124-.8-.719-1.111-.958a11.313,11.313,0,0,1-1.259-1.061,3.783,3.783,0,0,1-.859-1.2c-.515,1.183-.167,3.4.029,4.624a9.219,9.219,0,0,1-.176,2.7A4.055,4.055,0,0,1,65,27.951a3.725,3.725,0,0,1-.264,1.145h-.088a6.846,6.846,0,0,0-.382.851m1.944-11.68a.693.693,0,0,0,.027.4,2.652,2.652,0,0,0,.223.526,7.652,7.652,0,0,0,2.4,2.1,6.49,6.49,0,0,0,3.127,1.366,5.978,5.978,0,0,0,2.54.08,4.511,4.511,0,0,0,2.04-1.253c.22-.113.469-.168.587-.382a3.038,3.038,0,0,0,1.262-.646c1.471-1.418,2.973-3.766,2.906-5.93a16.534,16.534,0,0,0-.756-4.8,22.239,22.239,0,0,1-1.035-3.1c-.137-.778-.674-1.494-.853-2.278a7.033,7.033,0,0,0-.38-1.715c-.263-.413-.754-.541-1.086-.939-.354-.242-.91-.206-1.31-.34A7.7,7.7,0,0,0,74.16.881a5.257,5.257,0,0,0-1.885.159c-.324.088-1.319.342-1.466.637a3.966,3.966,0,0,1-.851.734c-.429.17-.538.7-.91.88-.261.8-.939,1.193-1.2,2.055-.157.048-.015.039-.088.146-.1.091-.261.169-.176.323-1.269,1.88-.235,4.221.965,5.828.348.506.806.93,1.173,1.421a3.021,3.021,0,0,1-.553,4.288c-.6.4-2.735.209-2.958.913M68.094,5.9c.193-.274.723-.195.866-.434a4.039,4.039,0,0,1,2.231-1.438c1.333-.277,2.521,1.318,1.145,2.055a10.546,10.546,0,0,1-1.321.821,2.233,2.233,0,0,1-1.679-.134,5.317,5.317,0,0,1-1.242-.87m1.747-.7c-.256.106-.6.7-.939.734.072.168.207.143.293.323.462.105.923.542,1.5.264-.057-.215-.366-.278-.381-.47h-.088c-.152-.462-.375-.341-.382-.851m1.879.763c1.037-.3.951-1.662-.293-1.585.325.483.161,1.112.293,1.585M76.094,7.9a3.285,3.285,0,0,1-1.262,2.789c-1.28.44-2-.9-2.642-1.673-.068-.216-.1-.334-.323-.293-.052-.1-.171-.147-.176-.294,1.3-.612,3.106-.124,4.4-.528m-.44.5c-1.026.114-2.054.035-3.141.146.277.391.324.938.734,1.2.981,1.342,2.3-.081,2.407-1.35m2.084-3.493c-.66.567-.986,1.565-2.055,1.292-.438-.237-3.115-1.056-2.084-1.5.688-.391.786-1.269,1.5-1.527.723-.964,2.25-.263,2.76.558.185.49.75,1.048-.117,1.174M75.565,5.7a4.125,4.125,0,0,1-.646-1.82c-.205.13-.678,1-.969,1.057a4.172,4.172,0,0,0,1.615.763M76.8,5.317c.216-.284.652-.89,1.174-.881-.462-.387-.738-1.164-1.409-1.262A2.8,2.8,0,0,1,76.8,5.317" transform="translate(0 0)"/>
  </g>
</svg>
