<svg xmlns="http://www.w3.org/2000/svg" xmlns:xlink="http://www.w3.org/1999/xlink" width="228" height="50" viewBox="0 0 228 50">
  <defs>
    <style>
      .cls-1 {
        fill: none;
      }

      .cls-2 {
        clip-path: url(#clip-path);
      }

      .cls-3 {
        fill: #121212;
        fill-rule: evenodd;
      }
    </style>
    <clipPath id="clip-path">
      <rect id="Rectangle_54" data-name="Rectangle 54" class="cls-1" width="86.827" height="31.575"/>
    </clipPath>
  </defs>
  <g id="Group_261" data-name="Group 261" transform="translate(-1052 -535)">
    <g id="Group_95" data-name="Group 95" transform="translate(1161 547)">
      <g id="Group_94" data-name="Group 94" class="cls-2" transform="translate(0 0)">
        <path id="Path_122" data-name="Path 122" class="cls-3" d="M124.871,30.9c-.027-.023-.056-.048-.086-.076-1.081-1-.469-4.039-.41-5.346.033-.725.8-7.982.29-8.042,2.709.321.74,5.642,1.1,7.93-.26,1.41.172,3.1-.052,4.485-.062.384.06,1.8-.838,1.049m.785,5.265c-.248,1.738-2.013.8-2.035-.522a1.246,1.246,0,0,1,2.035.522" transform="translate(-39.295 -5.544)"/>
        <path id="Path_123" data-name="Path 123" class="cls-3" d="M96.138,32.7c.562-5.591-.512-2.093-3.5-4.173.123-1.724,3.686.415,3.757-1.513a1.573,1.573,0,0,0-1.728-1.739c-.613-.018-.979.18-1.392-.42-.068-.1-.381-.91-.271-.972.9-.726,1.348-2.235,1.878-3.183-.2-.063-.913.239-.991-.209-.631.064-1.836-1.037-.887-1.461,1.193.4,7.016-1.066,5.791.992.04.336-.27.289-.469.209a.853.853,0,0,1-.835.156c-.325.224-.521.138-.939.209.234.377-.724,1.087-.574,1.617-2.155,2.42.8,1.241,2.138,1.2-.091,0-.175-1.079.738-.819.74.211,2.055,3.076,1.506,3.063-.733-.018-1.073,0-1.356-.731-.1-.265-1.358-.062-1.457.265-.046.152.2.544.229.7.075.364-.033.792.055,1.136.159.618-.042.309.542.5.372.121,1.013.034,1.248.46.542.981-1.332,1.092-1.868,1.06-.109,1.189-.161,2.555-.261,3.808.636-.047,1.683.362,2.139,0,.1.265.838.014,1.2.105,3.335-.772,4.278,2.486,1.93,1.3-3.239-.012-6.829-.135-10.226-.366-2.7-1.964,2.235-1.176,3.6-1.2m.974-17.976a1.559,1.559,0,0,1-.561.2c-.014,0-.46.769-.564.859a2.477,2.477,0,0,1-1.164.469c-.808.2-1.628.306-2.441.48.352,4.5-.9,8.607-1.565,12.782-2.152.191-.986-1.644-1.2-2.66a25.445,25.445,0,0,0,1.306-7.945c.019-.53.059-7.3.834-6.976,1.722.72-.51,4.146,2.087,2.765.318-.169.939,0,1.363-.245a3.135,3.135,0,0,0,1.21-1.333,2.226,2.226,0,0,0,.191-1.713c-.492-1.244-2.013-.247-2.868-.258-.648.726-3.321,1.013-3.025-.626a44.546,44.546,0,0,1,4.7-1.147c2.819-.657,3.576,4.224,1.7,5.344M85.285,26.967c-.05.053-.1.1-.157.153-.353.312-2.77-.044-3.289-.085-.638-.05-1.848.033-1.875-.855a18.918,18.918,0,0,0-.1-5.947c2.494-.473,1.6,4.1,1.565,5.634,4.435,1.48,3.434-3.171,2.347-5.687-1.084-.488-2.281.781-3.13-.209-.988-1.513,3.857-1.824,4.486-.365.813,1.887,1.745,5.662.156,7.36" transform="translate(-25.385 -2.964)"/>
        <path id="Path_124" data-name="Path 124" class="cls-3" d="M59.6,10.153c.665-.066,1.441-.2,1.617-.731C63.554,7.336,58.493,6.25,59.39,4.1a5.576,5.576,0,0,0,2.244-2.139C60.3,1.355,57.792,2,57.774.136a5.876,5.876,0,0,1,4.167.722c2.214,1.315.432,2.688-.894,3.917a.539.539,0,0,0-.215.336c-.014.267,1.3,1.217,1.527,1.514a4.042,4.042,0,0,1,.782,1.507,2.5,2.5,0,0,1-2.372,3.1,1.268,1.268,0,0,1-.784-.268c-.069-.059-.511-.8-.386-.808m-.417,13.355c-.1,1.25.322,5.027-1.722,2.608.505-6.5-.26-13.4-.208-19.929.162-.972-1.679-5.63.365-4.435,1.577,4.81,1.123,10.818,1.148,15.495.458,1.963.083,4.315.417,6.261M44.365,16.726c3.138-.041,2.51.363,2.713-3.026a11.6,11.6,0,0,0,0-4.33c.688-.422-.264-3,.261-3.391.782.292,1.818-.323,2.54-.581a21.969,21.969,0,0,1,2.729-1.229c.5-.1,1.7.576,1.044,1.236-.287.287-.928.143-1.315.27a19.675,19.675,0,0,0-2.86,1.285,1.479,1.479,0,0,0-.72.676c-.065.14-.183,1.332-.01,1.317,1.894-.17,3.471-.534,5.165-.052a1.561,1.561,0,0,1,.157.522c.536.211-.087.743-.261,1.043-1.2-1.065-.809,2.027-.835,2.608-.327.664.171,1.41-.417,2.035.052.445-.3,1.215-.834,1.148v.052a12.9,12.9,0,0,0,3.078-.156c1.659.077,1.191,2.194-.365,1.565-1.631-.307-11.374,1.92-10.069-.992m7.2-5.492a1.377,1.377,0,0,0-.31-.95c-.574-.458-2.1.252-2.662.495.084,1.917-.111,3.6-.209,5.843,1.259-.075,2.11-.269,3.235-.261-.8-.474-.417-.945-.313-1.93a19.89,19.89,0,0,0,.259-3.2" transform="translate(-14.064 0)"/>
        <path id="Path_125" data-name="Path 125" class="cls-3" d="M21.841,23.523c-.035-.036-.068-.072-.1-.108a23.831,23.831,0,0,1-1.692-2.1c-.722-1-1.583-1.926-2.366-2.879-.613-.745-2.338-2.318-2.3-3.342s1.45-.6,1.623.169c1.093,3.21,2.94-1.752,3.86-2.713,1.413-.027.881,1.585.417,2.347a3.769,3.769,0,0,0-.99,1.461c-1.165.722-1.616,1.573-.417,2.5,1.768,3.3,4.962,5.538,6.885,8.609-.882,1.39-2.36-1.112-3-1.814a11.167,11.167,0,0,0-1.927-2.133m-5.25-13.27c.014-.2-.07-.278-.313-.313,1.226,1.847-2.9,1.864-4.069,1.93-.158,1.268.2,3.22,0,4.33.285,1.233-.379,3.035.365,4.07a13.458,13.458,0,0,1,2.035-1.3,1.02,1.02,0,0,1,.209,1.565c-1.2.492-1.826,2-3.13,1.722l.052-.156c-.048.145-.583-.429-.611-.471a2.615,2.615,0,0,1-.289-1.21c-.087-.984.077-1.96.045-2.951-.092-2.873.119-5.933-.473-8.75-.121-.578-.542-1.724-.31-2.3.384-.952.535.242,1.064.242,1.2.364,4.589-.722,4.174,1.409a13.461,13.461,0,0,1-3.6.1c.072.284.052,2.226.469,2.244,1.353.1,2.722-.675,3.965-.731-.211-1.131,1-5.594.105-5.842-1.383.69-3.388.207-4.644.991C8.7,2.579,13.841,3.015,15.34,2.637c2.6-1.085,2.972,1.12,2.66,3.13-.821.747.288,4.832-1.043,4.7-.13-.106-.149-.17-.366-.209M2.141,15.105c-.016.387-.443.338-.782.313-1.068-.08.3-1.641.473-1.825a26.286,26.286,0,0,0,2.1-2.362c.429-.585.741-1.714,1.236-2.177,1.4-1.3,1.168-4.747,2.712-4.956,1.293,1.281-.551,2.979-.73,4.435-.4,1.162-1.932,2.237-1.357,3.548.1,1.244.5,13.847-1.617,8.973-.074-2.734.852-5.692.261-8.347-.778.754-1.119,1.949-2.3,2.4M.784,9.471a5.742,5.742,0,0,0,1.982-3.86c.007-.188.973.286,1.065.42a1.538,1.538,0,0,1,.043,1.23A6.724,6.724,0,0,1,2.617,9.575c-.175.238-1.345,1.978-1.676,1.879-1.6-.477-.815-1.128-.157-1.983" transform="translate(0 -0.747)"/>
      </g>
    </g>
    <rect id="Rectangle_155" data-name="Rectangle 155" class="cls-1" width="228" height="50" transform="translate(1052 535)"/>
  </g>
</svg>
