<svg xmlns="http://www.w3.org/2000/svg" xmlns:xlink="http://www.w3.org/1999/xlink" width="74" height="26" viewBox="0 0 74 26">
  <defs>
    <style>
      .cls-1 {
        fill: none;
      }

      .cls-2 {
        clip-path: url(#clip-path);
      }

      .cls-3 {
        fill: #fff;
        fill-rule: evenodd;
      }
    </style>
    <clipPath id="clip-path">
      <rect id="Rectangle_150" data-name="Rectangle 150" class="cls-1" width="74" height="26"/>
    </clipPath>
  </defs>
  <g id="Group_258" data-name="Group 258" transform="translate(0 0)">
    <g id="Group_257" data-name="Group 257" class="cls-2" transform="translate(0 0)">
      <path id="Path_183" data-name="Path 183" class="cls-3" d="M124.686,28.528c-.023-.019-.048-.04-.073-.063-.921-.825-.4-3.326-.349-4.4.028-.6.681-6.572.247-6.622,2.309.265.631,4.646.934,6.53-.221,1.161.146,2.55-.044,3.693-.053.316.051,1.484-.714.864m.669,4.336c-.211,1.431-1.716.658-1.734-.43a1.078,1.078,0,0,1,1.734.43" transform="translate(-51.752 -7.645)"/>
      <path id="Path_184" data-name="Path 184" class="cls-3" d="M93.733,28.575c.479-4.6-.436-1.724-2.979-3.436.105-1.419,3.142.342,3.2-1.246.035-.93-.558-1.407-1.473-1.432-.522-.015-.834.148-1.186-.345-.058-.082-.324-.749-.231-.8a8.65,8.65,0,0,0,1.6-2.621c-.172-.052-.778.2-.845-.172-.538.053-1.564-.854-.756-1.2,1.017.326,5.98-.878,4.935.817.034.276-.23.238-.4.172a.747.747,0,0,1-.712.129c-.277.184-.444.114-.8.172.2.31-.617.9-.49,1.332-1.837,1.992.683,1.022,1.823.988-.077,0-.149-.889.629-.675.631.174,1.752,2.533,1.284,2.522-.625-.015-.914,0-1.156-.6-.087-.218-1.157-.051-1.242.219-.039.125.168.448.2.577.064.3-.028.652.047.935.135.509-.036.254.462.411.317.1.863.028,1.063.379.462.808-1.135.9-1.592.873-.093.979-.137,2.1-.223,3.136.542-.039,1.434.3,1.823,0,.089.219.714.012,1.023.087,2.842-.636,3.646,2.047,1.645,1.074-2.76-.01-5.821-.111-8.715-.3-2.3-1.617,1.905-.968,3.068-.988m.83-14.8a1.359,1.359,0,0,1-.478.167c-.012,0-.392.634-.481.708a2.153,2.153,0,0,1-.992.386c-.688.167-1.387.252-2.08.4.3,3.708-.764,7.088-1.334,10.525-1.834.157-.84-1.354-1.023-2.191a20.309,20.309,0,0,0,1.113-6.542c.016-.436.051-6.011.71-5.745,1.468.593-.434,3.414,1.778,2.277.271-.139.8,0,1.162-.2a2.616,2.616,0,0,0,1.031-1.1,1.778,1.778,0,0,0,.163-1.41c-.419-1.024-1.716-.2-2.445-.212-.552.6-2.831.834-2.578-.515a39.072,39.072,0,0,1,4-.945c2.4-.541,3.048,3.479,1.453,4.4m-10.08,10.08c-.042.044-.087.086-.134.126-.3.257-2.361-.037-2.8-.07-.544-.041-1.575.028-1.6-.7a15.058,15.058,0,0,0-.089-4.9c2.125-.389,1.366,3.374,1.334,4.64,3.779,1.218,2.927-2.611,2-4.683-.924-.4-1.944.643-2.667-.172-.842-1.246,3.288-1.5,3.824-.3.693,1.554,1.487,4.663.133,6.06" transform="translate(-33.432 -4.086)"/>
      <path id="Path_185" data-name="Path 185" class="cls-3" d="M57.331,8.361c.567-.054,1.228-.165,1.378-.6,1.992-1.718-2.321-2.612-1.557-4.382a4.688,4.688,0,0,0,1.913-1.761c-1.135-.5-3.275.029-3.29-1.5a5.158,5.158,0,0,1,3.552.595c1.887,1.083.369,2.214-.762,3.225a.443.443,0,0,0-.183.276c-.012.22,1.106,1,1.3,1.246A3.291,3.291,0,0,1,60.35,6.7a1.966,1.966,0,0,1-.477,1.86,2.12,2.12,0,0,1-1.545.691,1.1,1.1,0,0,1-.668-.221c-.059-.048-.435-.656-.329-.666m-.356,11c-.082,1.029.274,4.139-1.468,2.148.431-5.355-.221-11.036-.177-16.411.138-.8-1.431-4.636.311-3.652,1.344,3.961.957,8.908.978,12.759.39,1.617.07,3.553.356,5.155M44.347,13.773c2.675-.034,2.139.3,2.312-2.492a9.233,9.233,0,0,0,0-3.566c.586-.347-.225-2.472.223-2.792.667.24,1.549-.266,2.164-.479a19.054,19.054,0,0,1,2.325-1.012c.424-.079,1.453.475.89,1.018-.245.236-.791.118-1.121.222A17.064,17.064,0,0,0,48.7,5.731a1.244,1.244,0,0,0-.613.557c-.055.115-.156,1.1-.009,1.084a12.158,12.158,0,0,1,4.4-.043c.04.078.166.406.134.43.457.174-.074.612-.223.859-1.019-.877-.689,1.669-.712,2.148-.278.547.145,1.161-.356,1.676.044.366-.256,1-.711.945v.043A11.375,11.375,0,0,0,53.24,13.3c1.414.063,1.015,1.807-.311,1.289-1.39-.253-9.694,1.581-8.582-.817m6.135-4.522a1.11,1.11,0,0,0-.265-.782c-.49-.377-1.791.208-2.268.407.072,1.579-.095,2.965-.178,4.812,1.073-.062,1.8-.221,2.757-.215-.681-.39-.355-.778-.267-1.59a15.837,15.837,0,0,0,.221-2.632" transform="translate(-18.523 0)"/>
      <path id="Path_186" data-name="Path 186" class="cls-3" d="M18.615,19.785c-.03-.03-.058-.06-.085-.089a19.762,19.762,0,0,1-1.442-1.731c-.615-.823-1.349-1.586-2.017-2.37-.522-.613-1.992-1.909-1.957-2.752s1.235-.493,1.383.139c.932,2.643,2.506-1.443,3.29-2.234,1.2-.022.751,1.305.356,1.933a3.1,3.1,0,0,0-.844,1.2c-.993.595-1.377,1.3-.356,2.062,1.507,2.718,4.229,4.56,5.868,7.089-.752,1.145-2.012-.916-2.553-1.494a9.314,9.314,0,0,0-1.642-1.756M14.141,8.858c.012-.162-.06-.229-.267-.258,1.045,1.521-2.47,1.535-3.468,1.59-.135,1.044.172,2.651,0,3.566.243,1.015-.323,2.5.311,3.351a11.527,11.527,0,0,1,1.734-1.075.823.823,0,0,1,.178,1.289c-1.025.4-1.556,1.645-2.668,1.418l.044-.129c-.041.119-.5-.353-.521-.388a2.1,2.1,0,0,1-.246-1c-.074-.811.066-1.614.038-2.43a40.628,40.628,0,0,0-.4-7.2c-.1-.476-.462-1.42-.264-1.9.327-.784.456.2.907.2,1.021.3,3.911-.594,3.557,1.16a11.869,11.869,0,0,1-3.068.086c.061.234.044,1.833.4,1.847,1.153.085,2.32-.556,3.379-.6-.18-.931.848-4.607.09-4.811-1.178.568-2.888.17-3.958.816-2.5-1.851,1.88-1.492,3.157-1.8,2.218-.893,2.533.922,2.267,2.578-.7.615.245,3.979-.889,3.866a.513.513,0,0,0-.312-.172m-12.316,4c-.014.318-.378.279-.667.258-.91-.066.255-1.351.4-1.5A21.907,21.907,0,0,0,3.35,9.663c.366-.482.631-1.412,1.053-1.793C5.593,6.8,5.4,3.961,6.715,3.789c1.1,1.055-.47,2.453-.622,3.652-.337.957-1.647,1.842-1.156,2.921.083,1.025.428,11.4-1.378,7.389-.063-2.251.726-4.687.223-6.874-.663.621-.953,1.6-1.956,1.976M.668,8.214A4.68,4.68,0,0,0,2.358,5.035c.006-.154.829.236.908.346A1.227,1.227,0,0,1,3.3,6.394,5.482,5.482,0,0,1,2.23,8.3C2.081,8.5,1.084,9.927.8,9.847-.561,9.454.107,8.918.668,8.214" transform="translate(0 -1.03)"/>
    </g>
  </g>
</svg>
