<svg xmlns="http://www.w3.org/2000/svg" xmlns:xlink="http://www.w3.org/1999/xlink" width="228" height="215" viewBox="0 0 228 215">
  <defs>
    <style>
      .cls-1 {
        fill: none;
      }

      .cls-2 {
        clip-path: url(#clip-path);
      }

      .cls-3 {
        fill: #121212;
        fill-rule: evenodd;
      }
    </style>
    <clipPath id="clip-path">
      <rect id="Rectangle_53" data-name="Rectangle 53" class="cls-1" width="155.849" height="149.958"/>
    </clipPath>
  </defs>
  <g id="Group_262" data-name="Group 262" transform="translate(-1052 -585)">
    <g id="Group_93" data-name="Group 93" transform="translate(840 444)">
      <g id="Group_92" data-name="Group 92" class="cls-2" transform="translate(230 146)">
        <path id="Path_121" data-name="Path 121" class="cls-3" d="M1.745,130.7a22.4,22.4,0,0,1-1.713-5.1c-.338-2.228,2.109-4.391,4.255-4.785a9.237,9.237,0,0,1,5.727.612c1.738.815,3.209,1.051,4.668,2.492.706.7,1.327,1.49,1.976,2.242.353.409,3.343,4.444,3.752,4.328-.356.475,1.045.587.89,1.167,1.123,1.4,2.7,1.777,4.392,2.114,2.375.471,5.681-2.152,7.686-3.13,2.641-1.287,5.787-2.8,8.8-2.236a8.614,8.614,0,0,1,1.746.9,11.107,11.107,0,0,0,2.031.581c1.622.382,3.245.761,4.864,1.156,2.337.569,4.426,1.95,6.821,2.319,2.115.326,3.311-.975,4.88-2.173,2.242-1.714,4.956-4.5,7.868-4.815a11.9,11.9,0,0,0,6.5-2.836c.616-.534,1.008-.54,1.219-1.462a8,8,0,0,0-.151-2.812c-.39-2.688-.675-6.983,2.381-8.4,3-1.392,7.491-1.715,8.49-5.512.769-2.921-.526-6.212-.671-9.177-.152-3.116.349-6.288,2.441-8.724,1.7-1.98,4.517-3.352,6.906-4.349a27.069,27.069,0,0,1,3.944-1.3,12.085,12.085,0,0,0,3.107-.859c.894-.569,1.474-2.5,1.85-3.45a26.359,26.359,0,0,0,1.672-7.71c.186-2.726.027-5.718,1.442-8.166a4.23,4.23,0,0,1,2.438-1.976c.753-.27,2.2-.227,2.79-.643,1.808-1.267,5.136-1.589,5.948-4.336,1.5-2.251,1.735-6.08,1.946-8.895.1-.128.216-.471-.056-.612.033-.365.17-.473-.055-.778.384-1-.29-2.283-.056-3.28.183-.775-.3-2.2-.292-3.043a13.017,13.017,0,0,1,.576-3.749,5.28,5.28,0,0,1,3.995-1.828c.949-.066,3.122-.294,3.281-1.553a7.59,7.59,0,0,0,1.329-1.182,3.524,3.524,0,0,0,.113-1.886,7.419,7.419,0,0,0-1.886-3.823c-2.307-3.019-5.231-6.706-4.225-10.789.051-.2-.158-.737.222-.777.149-1.688,1.385-3.826,2.258-5.268a14.842,14.842,0,0,1,13.6-7.168,28.572,28.572,0,0,0,3.212,1.382c.95.263,1.728.177,2.554.88.736.068.861.5,1.334,1,1.691.609,1.9,2.184,2.189,3.683a62.076,62.076,0,0,0,1.431,6.248c1.523,5,4.026,9.294,3.638,14.739a17.245,17.245,0,0,1-1.629,5.1,19.275,19.275,0,0,1-3.127,5.194c-1.817,2.117-4.405,2.6-6.337,4.392-1.828.583-2.59,2.295-3.225,4-.436,2.058-2.345,3.643-1.891,5.893a12.425,12.425,0,0,0-.333,3.28c.053,1.313-.922,2.479-.779,3.724a9.115,9.115,0,0,1-.883,5.01c-.864,1.408-2.207,1.592-3.722,1.9-3.173.651-5.943,1.09-8.732,2.808-1.108.682-1.781,1.077-2,2.45a11.989,11.989,0,0,0-.232,3.007c.1.175.363.979.056,1,.314.632-.227,1.35.222,1.835,1.165,5.408-3.387,10.884-7.33,13.9a20.969,20.969,0,0,1-4.86,2.785c-1.51,0-3.713,1.237-5.128,1.728-2.295,1.419-2.691,3.81-3.363,6.212a29.963,29.963,0,0,0-.581,3.11c-.243,1.5.325,2.749.529,4.279.55,4.114.391,11.5-4.5,13.179-.153.884-.819.8-1.448,1.057-.259.673-1.121.866-1.446,1.556-2.708,1.778-4.326,5.626-4.559,9.006.207.1-.317.749-.278,1.057.208.247-.13.294-.278.444.257.7-.7,1.132-.722,1.724-.505,1.107-1.691,1.846-2.391,2.613-.633-.153-.842.991-1.446.778-1.041,1.237-3.011,1.348-4.5,1.612-.063-.223-.234-.147-.278-.056-.293-.073-.887-.375-1.111-.111a2.609,2.609,0,0,0-1.279.055,5.648,5.648,0,0,0-3.558.834,19.607,19.607,0,0,0-3.446,2.946c-.825.66-1.892.73-2.835,1.39-2.252,1.575-5.625,2.734-8.416,2.134a20.592,20.592,0,0,1-4.717-2.031,44.749,44.749,0,0,0-7.888-3.362c-4.146-1.15-8.486,1-12.471,1.892-4.573,1.022-9.288,1.253-13.263-1.636a1.263,1.263,0,0,0-.833-.612c-.316-.221-.573-.99-1-.889a10.019,10.019,0,0,0-2.168-1.668c-.145-.42-.48-.569-.946-.667-.532-.944-1.978-.84-2.5-1.557-1.911-.4-3.935-1.9-5.892-2-1.45-.074-2.619-1.65-3.541-2.607l-.179-.185A12.7,12.7,0,0,1,1.745,130.7m3.154.787c.448-1.111.47-2.819.859-4.116a12.049,12.049,0,0,1,.642-2.332c-.153-.355.785-2.648,1.075-2.626-1.762-.134-5.658.445-6.147,2.539a4.171,4.171,0,0,0,.1,1.845c.478,2.145,1.178,4.666,3.307,5.692.147-.339.407-.628.168-1m4.791-8.453c-1.972.076-2.918,4.382-3.068,5.9-.144,1.453-1.26,3.482-.567,4.913.348.72,2.3,2.055,3.179,1.868.5-.106.7.386,1.335.278.511.482,1.145.31,1.723.722.23-.856.729-1.98.946-2.946H13.4c.146,0,1.537-2.266,1.795-2.527a16.988,16.988,0,0,1,2.234-1.52,2.95,2.95,0,0,1-.565-1.056,7.083,7.083,0,0,0-.679-1.018,17.071,17.071,0,0,0-1.855-2.166c-.207-.2-.427-.411-.659-.615a6.016,6.016,0,0,0-3.986-1.831m5.1,11.011a1.405,1.405,0,0,1-.389.722c.38.559-.129,1.221-.445,1.668-.721,1.02,1.316,1.413,1.815,1.757.172.12.572.592.687.634a14.736,14.736,0,0,1,3.446,2.391c.371-.214.014-.529.112-.779.331-.113.046-.358.056-.556a9.517,9.517,0,0,0,.833-3c.311-.142.353-.909.667-1.223.57-.253.323-.838.667-1.222a3.08,3.08,0,0,1-1.278-1.112c-3.249-3.845-3.26-2.556-6.171.723m7,8.728a11.462,11.462,0,0,0,4.994,2.335,47.464,47.464,0,0,0,4.833.016,24.574,24.574,0,0,1-2.433-6.409c-.162-.771.012-2.127-.48-2.765a2.379,2.379,0,0,0,.386-1.022c-1.411-.394-5.96-.163-6.133,1.9-1.408,1.439-1.336,4.457-1.167,5.949m8.872-5.693a11.679,11.679,0,0,0,.759,4.418c.285.791.968,3.147,1.906,3.335a2.136,2.136,0,0,0,.977-.113c1.348-.376,2.691-.784,4.047-1.128a20.355,20.355,0,0,0,2.613-.729c-1.319-1.62-1.72-3.7-2.145-5.695a12.907,12.907,0,0,1,.095-6.735,26.247,26.247,0,0,0-5.723,2.384c-1.658.8-2.721,1.576-2.568,3.716l.005.074.035.474m11.4-6.694c-2.89-.578-2.055,5.267-1.6,6.717s.371,4.561,2.055,5.259a1.7,1.7,0,0,0,1.659-.225c1.329.209,2.641.472,3.959.739q-.554-1.53-1.111-3.061c.375-.159.292-.7.191-1.1-.494-1.941.28-4.5,1.043-6.264.12-.277.558-.386.412-.689-.126-.262-1.883-.4-2.1-.39a9.38,9.38,0,0,1-2.929-.56c-.543-.165-1.079-.327-1.59-.43m15.5,12.78a22,22,0,0,1-2.168-5.994,14.1,14.1,0,0,0-.679-2.713,3.335,3.335,0,0,0-1.894-1.949,3.151,3.151,0,0,0-3.454,1.516,7.2,7.2,0,0,0-.83,3.925,8.51,8.51,0,0,0,.812,3.936,9.365,9.365,0,0,0,4.3,3.577c2.224,1.122,4.942,2.747,7.515,2.771-.408-1.175-1.636-2.25-2.393-3.241a13.678,13.678,0,0,1-1.2-1.828m4.889-9.531c-1.6,1.182-3.85,1.876-5.565.863-.632,3.258,1.138,6.449,2.843,9.3l2.569,4.292a20.819,20.819,0,0,0,8.984-4.224c-1.733-.486-2.884-2.078-3.9-3.566l-3.966-5.832c-.012-.584.813-.862,1.326-.583a2.81,2.81,0,0,1,1.02,1.385,17.9,17.9,0,0,0,6.5,7.38l5.415-2.137-6.426-8.916a3.057,3.057,0,0,1-.642-1.275,1.044,1.044,0,0,1,.614-1.169l8.9,11.8a9.491,9.491,0,0,0,5.663-2.1c.392-.328,3.53-4.629,3.171-4.674a15.141,15.141,0,0,1-9.765-5.435c-.457-.565-.833-1.494-.246-1.922.644-.47,1.432.332,1.885.99a11.765,11.765,0,0,0,8.218,4.943c-.082-3.014,1.843-5.728,4.065-7.764s4.826-3.663,6.811-5.932a20.8,20.8,0,0,1-13.868-8.583c-.39-.559-3.61,1.392-3.993,1.681-1.065.806-2.366,1.837-1.907,3.337.6,1.963,3.272,3.684,4.914,4.715a19.719,19.719,0,0,0,6.279,2.57,3.365,3.365,0,0,1,1.123.374,1.026,1.026,0,0,1,.515,1,1.009,1.009,0,0,1-.9.729,2.794,2.794,0,0,1-1.213-.215,33.623,33.623,0,0,1-6.125-2.824c-1.614-.923-3.157-1.9-4.707-2.927.684,4.534-3.152,7.146-6.948,8.339a22.681,22.681,0,0,0-6.153,2.472,11.733,11.733,0,0,0-1.033.8c-1.175,1.011-2.21,2.2-3.46,3.123m27.964-28.227a7.339,7.339,0,0,1-.924,1.686c-.087.16-1.606,3.068-1.759,2.821,1.785,2.884,4.825,4.22,7.6,5.95,1.213.755,5.639,3.385,5.17.277.368-1.6,1.084-3.759.333-5.17a6.425,6.425,0,0,0-.7-1.977c-1.053-.05-2.094-.106-3.139-.246a1.075,1.075,0,0,0-.89-.5,9.643,9.643,0,0,1-2.463-1.065,23.723,23.723,0,0,1-2.849-1.546c-.128-.077-.258-.153-.389-.23m-.47-13.115c-.577.4-.212,1.605-.334,2.113a14.151,14.151,0,0,0,.293,3.907c.153,1.481.336,2.959.536,4.434.77.009,1.037,1.369,1.728,1.777,2.235,1.32,5.1,3.075,8.061,2.946-.111-.145-.175-.1-.222-.333.9-1.665.078-4.852,1.223-6.838a16.191,16.191,0,0,0-1.946-.278c-.628.05-1.756-1.1-2.266-1.457-.751-.52-1.612-.907-2.39-1.385-1.526-.94-3.289-2.1-3.9-3.883-.352-.02-.59-.721-.778-1m5.806,3.748c1.623,1.132,3.905,2.769,5.979,2.812a9.568,9.568,0,0,1,.946-2.044c.551-.729,3.061-1.809,2.55-2.92-.289-.628-1.9-.935-2.493-.873-.1.01-1.851-1.209-2.075-1.351a23.052,23.052,0,0,1-3.027-2.885,12.477,12.477,0,0,1-1.478-1.449c-.136-.183-.417-.992-.539-1.042-1.873-.789-2.944,2.374-4.224,3-2.206,2.052,2.978,5.787,4.361,6.75m.949-10.767a10.935,10.935,0,0,0,3.029,3.35c1.267.774,2.327,1.977,3.609,2.78,1.129.706,2.244.2,3.18,1.458.207.28.168.725.491.893.091.048.755.194.506-.065a59.547,59.547,0,0,0,5.773-2.016c.408-.209,3.415-2.985,3.392-3-1.687-.8-3.719-.978-5.276-1.665-.665-.293-1.548-.955-2.3-1.321a12.332,12.332,0,0,1-2.874-1.883c-.89-.8-1.333-1.611-2.675-1.2-.1.032-.355.122-.7.251-1.8.668-6.18,2.383-6.157,2.414m17.038.96c1.556-.429,3.456,2.081,4.614.667,1.572-2.667,3.891-5.342,3.113-9.228-1.977,2.955-8.557-2.056-10.618-2.224-.3-.652-1.086-.885-1.612-1.39a3.133,3.133,0,0,1-.557,1.835v.389h-.111c-.057.875-.912,2.042-.834,2.835-1.217,1.5-1.822,3.249.612,4.059a37.386,37.386,0,0,0,5.393,3.058m6.727-9.062c.076-.4.472-.088.667-.5.131.049.092.02.167.111a11.131,11.131,0,0,1,.107-2.008c-.021-.768-.113-1.533-.158-2.3-.04-.692-.285-2.661.662-3.029a11.051,11.051,0,0,0,1.835-1.334c-.846.037-1.742-.412-2.78-.5-1.057-.876-2.493-.9-3.28-1.835a1.7,1.7,0,0,1-1.446-1.167,7.266,7.266,0,0,1-1.946-2.335l-.111.056a3.8,3.8,0,0,1-.389-1.446c-.774.7-1.924.509-2.6,1.476a5.576,5.576,0,0,0-.737,2.079c-.246,1.172-.873,2.921-.5,4.059-.394.653-.1,1.727-.444,2.281-.4,1.7,2.412,3.03,3.688,3.759a22.462,22.462,0,0,0,5.93,2.3c-.147.4,1.117.289,1.334.333M121.7,56.713a11.077,11.077,0,0,1-2.279,1.835c-1.349.3-2.759,1.689-4.281,1.89.378,1.848,2.147,3.345,3.65,4.313a8.87,8.87,0,0,0,2.623,1.244,13.615,13.615,0,0,1,1.957.348c.611.248,1.029.907,1.736.974.5.048,1.295-.487,1.783-.642a27.338,27.338,0,0,1,3.966-.827c1.322-.213,4.509-.526,5.243-1.908.846-1.594.147-3.645.833-5.282a17.5,17.5,0,0,0,.667-5.17c.464-.589.22-1.86.334-2.668.222-1.553,1.946-3.282,1.834-4.67.364-.066.407-.934.5-1.223-.962.479-2.156-.363-2.946-.056a71.03,71.03,0,0,1-7.061-2.391c-.644-.235-1.522-1.362-2.1-1.813a21.423,21.423,0,0,1-2.383-2.009,7.164,7.164,0,0,1-1.627-2.265c-.975,2.24-.316,6.431.056,8.756a17.459,17.459,0,0,1-.334,5.114,7.68,7.68,0,0,1-.778,2.669,7.055,7.055,0,0,1-.5,2.168h-.167a12.966,12.966,0,0,0-.723,1.612m3.682-22.12a1.313,1.313,0,0,0,.051.766,5.022,5.022,0,0,0,.423,1c.944,1.684,2.991,2.9,4.543,3.985a12.291,12.291,0,0,0,5.922,2.586c1.657.116,3.2.726,4.809.151a8.543,8.543,0,0,0,3.864-2.374c.416-.215.888-.319,1.112-.723a5.753,5.753,0,0,0,2.391-1.223c2.785-2.685,5.629-7.132,5.5-11.23a31.31,31.31,0,0,0-1.431-9.09,42.114,42.114,0,0,1-1.96-5.864c-.259-1.474-1.275-2.83-1.616-4.314a13.319,13.319,0,0,0-.719-3.248c-.5-.783-1.427-1.025-2.057-1.778-.67-.459-1.724-.39-2.481-.643a14.585,14.585,0,0,0-3.293-.92,9.955,9.955,0,0,0-3.569.3c-.613.166-2.5.648-2.776,1.206a7.51,7.51,0,0,1-1.612,1.39c-.812.322-1.019,1.322-1.723,1.667-.495,1.515-1.778,2.26-2.28,3.892-.3.09-.028.074-.167.277-.192.172-.494.32-.333.612-2.4,3.56-.445,7.993,1.827,11.038.659.959,1.526,1.76,2.222,2.691,1.806,2.414,1.709,6.284-1.047,8.12-1.143.76-5.179.4-5.6,1.729m3.573-23.424c.366-.519,1.369-.369,1.641-.822.863-1.439,2.533-2.1,4.224-2.724,2.523-.524,4.775,2.5,2.168,3.892a19.971,19.971,0,0,1-2.5,1.556,4.229,4.229,0,0,1-3.179-.254,10.07,10.07,0,0,1-2.352-1.648m3.308-1.322c-.484.2-1.131,1.333-1.779,1.39.136.318.392.271.556.612.876.2,1.747,1.026,2.835.5-.108-.407-.694-.527-.722-.89h-.167c-.288-.876-.711-.645-.723-1.612m3.558,1.446c1.964-.566,1.8-3.147-.556-3,.615.914.3,2.105.556,3m8.284,3.669c.324,1.856-.945,4.152-2.391,5.282-2.424.834-3.785-1.713-5-3.169-.129-.409-.183-.632-.612-.556-.1-.191-.324-.278-.333-.557,2.467-1.159,5.883-.234,8.339-1m-.834.946c-1.943.216-3.89.066-5.948.277.525.741.613,1.776,1.39,2.28,1.858,2.541,4.347-.152,4.559-2.557m3.947-6.616c-1.25,1.073-1.868,2.963-3.892,2.446-.829-.449-5.9-2-3.946-2.835,1.3-.741,1.489-2.4,2.835-2.891,1.369-1.825,4.262-.5,5.226,1.057.35.928,1.42,1.985-.222,2.224m-4.114,1.5a7.811,7.811,0,0,1-1.223-3.446c-.389.246-1.283,1.893-1.835,2a7.9,7.9,0,0,0,3.058,1.445m2.335-.722c.409-.537,1.235-1.686,2.224-1.668-.876-.733-1.4-2.2-2.669-2.39.889,1.116.651,2.948.445,4.059" transform="translate(0 0)"/>
      </g>
    </g>
    <rect id="Rectangle_154" data-name="Rectangle 154" class="cls-1" width="228" height="215" transform="translate(1052 585)"/>
  </g>
</svg>
