<svg xmlns="http://www.w3.org/2000/svg" xmlns:xlink="http://www.w3.org/1999/xlink" width="245" height="245" viewBox="0 0 245 245">
  <defs>
    <style>
      .cls-1, .cls-2, .cls-5 {
        fill: none;
      }

      .cls-2 {
        stroke: #707070;
      }

      .cls-3 {
        clip-path: url(#clip-path);
      }

      .cls-4 {
        fill: #121212;
        fill-rule: evenodd;
      }

      .cls-5 {
        stroke: #121212;
        stroke-linecap: round;
        stroke-linejoin: round;
        stroke-width: 0.2px;
      }

      .cls-6 {
        stroke: none;
      }
    </style>
    <clipPath id="clip-path">
      <rect id="Rectangle_39" data-name="Rectangle 39" class="cls-1" width="44.162" height="55.658"/>
    </clipPath>
  </defs>
  <g id="Group_258" data-name="Group 258" transform="translate(-105 -135)">
    <g id="Rectangle_15" data-name="Rectangle 15" class="cls-2" transform="translate(105 135)">
      <rect class="cls-6" width="245" height="245"/>
      <rect class="cls-1" x="0.5" y="0.5" width="244" height="244"/>
    </g>
    <g id="Group_64" data-name="Group 64" transform="translate(286.074 309)">
      <g id="Group_63" data-name="Group 63" class="cls-3">
        <path id="Path_79" data-name="Path 79" class="cls-4" d="M13.831,18.255a3.77,3.77,0,0,1-.83.134l-.153.052a2.655,2.655,0,0,0-.4.009c-.034.052-.24.009-.352.034a5.794,5.794,0,0,1-.914.013,10.84,10.84,0,0,1-1.19-.107c-.285-.068-.55-.239-.833-.314-.1-.027-.2,0-.307-.024a3.049,3.049,0,0,1-1.265-.764,3.742,3.742,0,0,1-.33-.528c-.343-.521-.6-1.192-.881-1.643l-.352-.969c-.144-.235-.163-.479-.306-.708L5.6,13.116a6,6,0,0,1-.548-1.479c-.01-.147.066-.207.075-.282.015-.137-.042-.246-.022-.377.051-.33.092-.69.165-1.018a5.021,5.021,0,0,0,.313-1.025,1.1,1.1,0,0,1-1,.148c-.131-.054-.243-.16-.372-.215a1.389,1.389,0,0,1-.482-.284l-.091-.2c-.083-.131-.318-.5-.279-.631,0-.1.057-.084.095-.161s-.006-.2.03-.288c.077-.18.238-.184.369-.3.04-.034.032-.09.082-.135.155-.138.257-.09.453-.176a1.831,1.831,0,0,1,1.158.075c.089.031.176.113.263.145a1.207,1.207,0,0,1,.674.411l.038-.013a2.8,2.8,0,0,1,.462-.585c.035-.042.037-.131.069-.173.064-.084.137-.12.21-.2s.107-.184.171-.251c.218-.229.467-.436.7-.644.057-.051.116-.02.153-.052a6.55,6.55,0,0,1,1.987-1.127c.085-.029.187-.1.242-.1a1.573,1.573,0,0,0,.274-.136l.3-.124a2.8,2.8,0,0,1,.5-.234c.278-.107.862-.243,1.186-.4a1.371,1.371,0,0,1,.243-.04c.061-.009.079-.068.166-.078.2-.023.353-.091.626-.107a1.54,1.54,0,0,0,.568-.087c.173.018.319-.049.543-.036a4.152,4.152,0,0,0,.723.052,3.343,3.343,0,0,1,.572-1.264,4.2,4.2,0,0,0,.24-.487c.039-.067.109-.1.159-.161a3.566,3.566,0,0,1,.425-.508c.327-.273,1.127-.614,1.449-.387A1.828,1.828,0,0,1,18.9.567a1.143,1.143,0,0,1,.124.428,4.387,4.387,0,0,1,.067.447c-.005.205-.063.444-.078.646a6.213,6.213,0,0,1-.127,1.069c-.023.09.008.171-.017.262s-.086.2-.113.295l.007.083c-.09.144-.323.105-.35.29A5,5,0,0,1,20,5.15c.169.15.405.267.572.424A8.545,8.545,0,0,1,21.589,7c.112.165.123.308.228.478a5.355,5.355,0,0,1,.608,2.783l.046.262a15.654,15.654,0,0,1-.026,1.675,7.039,7.039,0,0,1-1,2.712A7.293,7.293,0,0,1,19.854,16.5c-.036.033-.427.217-.471.246-.239.154-.483.261-.694.408-.11.076-.285.131-.293.207-.032.131.131.342.176.453a4.85,4.85,0,0,0,.462,1.1,1.6,1.6,0,0,1,2.017.465c.189.221.465.9.729.883.1-.127.282-.183.413-.291.1-.083.2-.235.3-.315.119-.1.186-.06.293-.143.279-.214.725-.409,1.012-.6.213-.143.436-.125.657-.267.322-.206.759-.472,1.089-.692.12-.081.317-.142.471-.246a3.636,3.636,0,0,1,1.1-.526c.207-.028.411-.214.555-.189a4.919,4.919,0,0,1,1.148-.456l.358-.015c.063.014.177.084.2.082.064-.14.02-.291.061-.448.053-.2.126-.4.175-.615a3.114,3.114,0,0,1,1.115-1.491c.12-.089.243-.08.357-.143a3.018,3.018,0,0,1,.516-.3.56.56,0,0,1,.429.131c.23.145.259.718.3.944l.038-.013c.049-.122.189-.122.286-.226.441-.471.791-.395,1.379-.215.155.048.481.153.533.374a2.144,2.144,0,0,1-.494,1.557l.013.038.057-.02c.051-.1.23-.233.293-.207a1.51,1.51,0,0,1,1.02-.391c.06.009.138.046.211.056l-.006.045c.17-.09.745.287.7.66a1.955,1.955,0,0,1-.315.705c-.025.042-.018.131-.05.167l-.108.058c-.063.088-.075.241-.145.327a3.538,3.538,0,0,0-.462.713l.019-.007-.013.026c-.071.119-.22.282-.26.366l.019-.007-.013.025a.5.5,0,0,1-.139.155c.018.035.014.078.032.1.1.008.222-.11.363-.124A2.646,2.646,0,0,1,37,18.979c.119.083.538.3.452.572-.01.2-.161.255-.291.4l-.031.1a1.779,1.779,0,0,0-.382.258H36.62c-.151.178-.475.18-.688.3l.013.039a1.442,1.442,0,0,1,1.073.7,1.265,1.265,0,0,1,.035,1.291l-.025-.013.007.019.019-.006-.012.025a1.27,1.27,0,0,1-.273.328c-.056.049-.112.036-.127.065.022.014.009,0,.032.032a1.127,1.127,0,0,0-.274.136,1.255,1.255,0,0,1-.53.074,2.277,2.277,0,0,1-.555.125,1.084,1.084,0,0,1-.192-.063l-.16.033c-.058,0-.136-.057-.192-.063-.076-.007-.136.036-.179.04-.106.008-.221-.01-.345-.01-.2,0-.193.085-.377.086a3.148,3.148,0,0,1-.678-.046.513.513,0,0,1-.243.04c-.336-.058-.723-.178-1.031-.2-.066-.005-.145-.071-.218-.075s-.119.03-.2.027-.143-.064-.25-.043a3.107,3.107,0,0,1-.554.381c-.1.076-.222.2-.33.284H30.3c-.124.1-.32.241-.477.355l-.185.085a23.013,23.013,0,0,0-1.709,1.566c-.027.026-.137.058-.2.11-.3.264-.7.5-1.017.775l.013.038a2.633,2.633,0,0,1,1.105.734c.107.119.158.249.271.356.678.646,1.261,1.3,1.907,2.02.216.241.52.442.759.659.492.447.914.961,1.41,1.378.057.048.068.111.123.172.081.09.217.149.3.241a6.173,6.173,0,0,0,.76.851c.316.248.672.464.99.709.168.13.277.317.451.444a2.33,2.33,0,0,1,.276.183c.169.172.258.347.42.54.046.055.134.1.18.152.228.253.4.542.613.795.083-.034.252-.072.333.036.126.1.14.361.24.516l.387.573c.2.221.439.464.625.7l.466.8c.461.526.95,1.008,1.4,1.55.2.241.31.525.53.738a3.27,3.27,0,0,0,.533.309c.119.08.386.4.476.393s.121-.06.192-.065c-.015-.071-.025-.045.012-.09.01.049-.01.014.02.058.048-.036.014-.049.038-.077.066-.08.19-.056.242-.1.021-.019,0-.066.012-.09.017.006.065.036.09.012a2.4,2.4,0,0,1,.521-.413c.056-.019.069-.078.1-.1l.383-.131c.057,0,0,.014.051.025.017-.011,0-.017.019-.007s.026.027.045.07c-.008.025-.005.008-.006.045-.105.11-.124.236-.3.316l.02.057-.038.013c-.051-.006-.114.129-.133.11l-.019.007c-.022.051-.012.126-.05.166l-.076.026-.076.154.039.051c.181-.159.445-.183.63-.343a.249.249,0,0,1,.243-.04c.023.017.026.027.046.07a.143.143,0,0,0-.012.09c-.1.082-.388.324-.374.469.27-.1.608-.379.829-.39-.009-.051-.022-.026.044-.058.041,0,.079-.059.16-.033,0,0-.073.034-.032.032l.019-.007.007.019c.022-.032.009-.026.044-.058L44,41.5c-.043.04-.04-.005-.044.058a.059.059,0,0,1,.026.076c-.037-.066-.017-.053-.083-.057a.452.452,0,0,1-.056.148c-.024-.03-.01-.017-.032-.032a.349.349,0,0,1-.012.09l-.051-.025c-.015.059-.009.086-.044.122l-.025-.012.02.057-.1.014c-.027.026-.009.083-.025.116l-.019.007a1.652,1.652,0,0,0-.153.116l.007.019-.019.007.026.076a2.252,2.252,0,0,1,.726-.376l.046.134c-.009.025-.005.008-.006.045l-.045-.006.007.019c.015.01.028-.009.032.032l-.019.007c-.11-.054-.179.1-.216.181l-.051-.025a.249.249,0,0,1,.007.083c-.063.017-.065.043-.134.046l.025.012c.042,0-.032.032-.032.032l-.026-.013.007.019.019-.007-.013.025c-.168.251-.353.309-.527.521,0,.022,0,.043,0,.064-.051.076-.14.1-.171.187-.075.228.15.655.032.908-.032.069-.112.1-.159.161-.019.025.01.085-.005.109-.042.065-.119.034-.178.1a2.579,2.579,0,0,1-.464.457,2.487,2.487,0,0,0-.49.317c-.152.164-.07.479-.335.584-.113.172-.36.194-.579.369-.279.222-.636.408-.973.653a2.1,2.1,0,0,1-.515.368,1.976,1.976,0,0,0-.363.252l-.63.343c-.08.061-.2.166-.286.226-.108.075-.211.116-.267.156l-.121.02c-.29.219-.711.408-.936.576a4.146,4.146,0,0,1-.918.313c-.129.013-.357-.016-.435.042a1.655,1.655,0,0,1-.744-.3,4.1,4.1,0,0,0-.309-.279,4.908,4.908,0,0,1-1.2-.938L31.9,45.715c-.2-.266-.476-.515-.69-.769-.17-.2-.271-.422-.446-.617a5.036,5.036,0,0,0-.547-.476,2.7,2.7,0,0,1-.245-.28c-.2-.212-.446-.415-.644-.635a7.94,7.94,0,0,1-.639-.808c-.194-.28-.294-.552-.491-.815-.145-.193-.341-.356-.471-.566l-.019.006a8.425,8.425,0,0,1,.048,1.266c0,.346.046.674.071,1.023l.1.351c.047.425.274.893.342,1.315.018.113.146.267.163.414a1.91,1.91,0,0,0,.248.663l.144.421c.061.1.144.291.194.382a1.318,1.318,0,0,1,.066.319l.124.363a.948.948,0,0,0,.092.4,1.244,1.244,0,0,1,.131.447l.157.459A9.371,9.371,0,0,1,29.9,51.31c-.059.2-.37.45-.539.611-.261.248-.53.549-.819.792l-.472.182a3.026,3.026,0,0,1-1.034.225c-.141.017-.326.272-.541.355a.506.506,0,0,1-.071-.146.172.172,0,0,0-.014-.1.283.283,0,0,0-.083.007c-.08.1-.281.074-.453.176-.155.092-.471.253-.758.408-.07.037-.152.013-.217.053-.046.028-.148.125-.184.148s-.115-.037-.185.02c-.022.018-.017.054-.057.083-.041-.039,0-.016-.051-.025-.161-.028-.537.364-.8.485a4.978,4.978,0,0,1-.625.235,2.451,2.451,0,0,1-1.1-.331l-.019.006c.006.042.008.039,0,.064a.214.214,0,0,0-.058-.108c-.025-.009-.008-.005-.045-.006-.057.083-.251.28-.356.271-.061.066-.149.183-.216.245l-.1.032-.031.1a2.523,2.523,0,0,1-.673.593.346.346,0,0,1-.091-.14,1.553,1.553,0,0,0,.266-.411l-.008-.211c.033-.1.126-.112.145-.263l-.057.02a1.351,1.351,0,0,1-.643.369c-.051-.041-.065-.031-.1-.114.009-.025.005-.007.006-.045.105-.092.511-.655.486-.828l-.038.013a3.049,3.049,0,0,1-.8.594c-.036-.027-.049-.02-.083-.057s-.024-.039-.032-.1c.187-.162.236-.391.386-.559.086-.1.173-.126.267-.219.065-.065.088-.156.184-.212l-.026-.076a.135.135,0,0,0,.109-.058c.007-.025.005-.022,0-.064l-.019.007c-.082.1-.241.094-.421.208s-.5.293-.637.388c-.095.066-.168.153-.28.117-.025-.019-.033-.041-.052-.089.009-.025.005-.008.006-.045a3.2,3.2,0,0,0,.941-.812c.032-.044.032-.129.069-.173.117-.138.267-.2.375-.341.065-.085.118-.207.177-.3.038-.058.111-.078.146-.135l.05-.166c.057-.072.163-.058.185-.085.115-.178.037-.447.123-.64.015-.035.066-.019.089-.052.045-.063.041-.178.088-.244l.07-.045a.952.952,0,0,0,.037-.2c.034-.127.114-.263.144-.391l-.02-.057c.051-.139.207-.245.2-.411a4.122,4.122,0,0,0-.63-1.473l-.1-.287-.163-.414a1.958,1.958,0,0,0-.2-.638,1.438,1.438,0,0,1-.259-.51c-.053-.474-.259-.88-.3-1.308-.027-.308-.219-.415-.255-.746-.017-.158-.139-.44-.184-.664l-.091-.2a6.75,6.75,0,0,0-.178-.772l-.2-.574a.406.406,0,0,0,.005-.173c-.325-.091-.257-.533-.422-.86a3.493,3.493,0,0,1-.236-1.692,6.5,6.5,0,0,0-.14-.786,4.3,4.3,0,0,0-.2-.766c-.021-.068-.079-.107-.091-.2-.015-.122-.087-.279-.1-.415-.01-.114-.009-.279-.028-.4,0-.019-.051-.059-.058-.108-.025-.153-.1-.315-.125-.491-.027-.2-.282-.427-.312-.727-.019-.193-.05-.392-.075-.594-.015-.124-.2-.419-.221-.587-.039-.3-.125-.635-.154-.951l-.112-.453a16.214,16.214,0,0,0-.819-3.587l-.07-.019c.012.051.02.031-.064.065-.043.075-.288.087-.465.138a6.961,6.961,0,0,1-.76.153c-.037-.018-.005.041-.006.045a2.24,2.24,0,0,1-.306.1,2.035,2.035,0,0,0-.408.118,5.529,5.529,0,0,1-1.647.433c-.188.028-.352.166-.631.216a11,11,0,0,1-1.577.324,1.2,1.2,0,0,0-.5.087c-.046,0-.127-.048-.166-.05-.016,0-.044.053-.089.052a5.227,5.227,0,0,1-.8-.09c-.05-.009-.085.02-.128,0-.027-.012-.043-.072-.071-.082-.118-.044-.243,0-.346-.075a1.454,1.454,0,0,1-.3-.241c-.1-.12-.1-.352-.189-.427.058.4-.092.492-.225.782-.051.111-.034.226-.074.346a2.734,2.734,0,0,1-1.1,1.21c-.068.028-.251.071-.325.111a.81.81,0,0,1-.333.028.178.178,0,0,0-.108.058.843.843,0,0,1-.8-.519,1.341,1.341,0,0,1-.129-.255c-.014-.1.071-.175.081-.263l-.115.039c-.108.139-.365.2-.542.292a1.96,1.96,0,0,1-.478.163c-.149.017-.3.15-.434.169a1.661,1.661,0,0,1-.761-.039c-.191-.059-.617-.378-.529-.674,0-.348.367-.491.532-.758a1.094,1.094,0,0,1-.536.119c-.09-.021-.191-.117-.282-.139A1.729,1.729,0,0,1,.6,30.632c-.064-.051-.068-.126-.129-.191S.148,30.1.137,29.958c0-.012.023-.049.019-.071-.012-.058-.069-.081-.052-.153.033-.143.22-.191.35-.29a10.7,10.7,0,0,1,1.279-.821l-.013-.038a1.612,1.612,0,0,1-1.167-.477.749.749,0,0,1-.1-.78A1.284,1.284,0,0,1,1.113,27a2.646,2.646,0,0,0,.427-.252,2.975,2.975,0,0,1,.491-.125l-.013-.038c-.366-.2-.792-1.242-.529-1.614a2.483,2.483,0,0,1,1.472-.695l.127-.065.051.025.274-.073.058.044c.1.014.158-.018.256,0s.187.1.276.119c.342.075.659.123.992.217.152.042.24.193.373.279.029.019.078-.009.109.006s.052.081.1.1c.137.043.272.028.409.074l.09.076c.1.033.2.032.3.068l.09.076c.128.023.219-.122.376-.15a.952.952,0,0,0,.248-.149l.287-.1a1.612,1.612,0,0,1,.683-.19c.051-.005.132-.076.229-.078.3-.008.563-.02.805-.019a1.593,1.593,0,0,0,.217-.053c.211,0,.457.085.672.091a1.206,1.206,0,0,0,.274-.072,1.912,1.912,0,0,0,.568-.087,1.517,1.517,0,0,1,.529-.2,6.3,6.3,0,0,0,.92-.122,1.915,1.915,0,0,0,.293-.143l.517-.176c.236-.146.424-.292.642-.433a2.951,2.951,0,0,1,.791-.249,4.158,4.158,0,0,0-.03-.652,4.018,4.018,0,0,1-.086-.441,2.429,2.429,0,0,1,.062-.256,1.932,1.932,0,0,1,.42-1.147l.3-.188a1.728,1.728,0,0,1,.159-.161l.428-.125-.007-.019c-.1-.061-.058-.22-.143-.357a3.762,3.762,0,0,1-.37-.835c-.035-.106-.034-.4-.08-.421-.17-.032-.322.126-.5.151-.346.048-.726.143-.858-.262.034-.046.035-.043.025-.115m-13,12,.057-.02a1.065,1.065,0,0,0,.487.175,1.989,1.989,0,0,0,.423.112l.791-.248a1.092,1.092,0,0,0,.351-.1,4.363,4.363,0,0,1,1.116-.423l.1-.078a1.16,1.16,0,0,1,.224-.034c.065-.01.187-.134.274-.136.038,0,.142.016.2.018.113.112.185.361.054.472-.1.164-.622.316-.917.442a2.913,2.913,0,0,0-.294.079A5.324,5.324,0,0,0,2.068,31.8l.013.038c.048.017.072.071.116.088s.1-.015.147-.007a2.09,2.09,0,0,0,.8-.1,3.315,3.315,0,0,0,1.1-.526c.142-.09.341-.1.51-.2a8.725,8.725,0,0,1,1.1-.526c.058.042.071.03.11.134.072.057.034.16.04.243a1.381,1.381,0,0,1-.165.206c-.071.056-.139.051-.2.11-.155.159-.285.362-.463.521-.114.1-.33.175-.311.341.053.03.09.1.148.121a1.382,1.382,0,0,0,1.212-.328c.059-.065.133-.208.183-.277l.089-.052a3.178,3.178,0,0,0,.209-.263,2.967,2.967,0,0,0,.2-.6c.045-.138.189-.262.227-.4.006-.109.011-.217.017-.326a.6.6,0,0,1,.288.03l-.163-.478a.816.816,0,0,1-.08-.358c-.017-.212-.146-.491-.158-.715-.031-.552-.237-1.019-.254-1.558L6.66,26.6a3.861,3.861,0,0,0-.172-.881c-.13,0-.233-.1-.346-.138a3.417,3.417,0,0,1-.628-.149c-.117-.076-.174-.195-.29-.285s-.292-.055-.423-.112a3.951,3.951,0,0,0-.608-.156,2.183,2.183,0,0,0-.717-.161,3.326,3.326,0,0,0-1.263.431c-.134.092-.337.139-.324.3a.737.737,0,0,0,.26.574c.235.2.52.131.845.16.087.008.212.059.3.068.2.021.511-.042.615.175.1.083-.011.31-.036.4-.258.008-.458.134-.7.152a3.577,3.577,0,0,0-.938.192,1.392,1.392,0,0,0-.492.125,4.842,4.842,0,0,1-.873.384.224.224,0,0,1-.019.07,1.029,1.029,0,0,0,.532.246,4.376,4.376,0,0,0,1.688.065,3.744,3.744,0,0,0,.613-.145c.1-.014.211-.1.294-.079s.151.128.194.254c-.046.075-.023.178-.088.244-.158-.014-.541.268-.746.319a3.967,3.967,0,0,0-.625.234c-.193.1-.561.1-.772.242s-.475.33-.674.465l-.229.078a1.681,1.681,0,0,1-.413.29c.056.132.143.177.207.293m-.1-.178-.013-.038.019-.007c0,.038,0,.02-.006.045m.077.1L.8,30.138l.019-.006c0,.037,0,.02-.006.044m15.577-1.364c.1.236.1.46.178.708a17.171,17.171,0,0,1,.89,3.734l.085.313q.073.4.146.8l.209.612a2.99,2.99,0,0,0,.328,1.148,3.454,3.454,0,0,1,.223.715.617.617,0,0,1,0,.236,2.617,2.617,0,0,0,.106.5l.071.147a3.483,3.483,0,0,1,.209.676c.027.262.142.546.153.824.013.339.039.78.066,1.131.005.068.065.132.078.166.111.3.146.557.249.855l.137.338c0,.095-.014.187-.011.282,0,.141.087.2.1.287l.214.5c.032.251.128.542.172.753l.1.223a5.728,5.728,0,0,1,.3,1.008l.078.166a5.8,5.8,0,0,0,.68,2.054l.32,1c.076.125.11.309.2.446a3.812,3.812,0,0,1,.383.809l.19.555c.01.414-.473.678-.536,1.123.038,0,.02,0,.045.006a1.067,1.067,0,0,1,.377-.086,1.885,1.885,0,0,0,.4-.156,2.556,2.556,0,0,1,.581-.113c.051-.005.135-.075.185-.084.169-.031.29-.064.421-.08.032,0,.158-.077.223-.1a2,2,0,0,1,.485-.144.71.71,0,0,1,.28-.117,2.363,2.363,0,0,0,.555-.189c.043-.024.116,0,.2-.046a.587.587,0,0,1,.2-.091,4.586,4.586,0,0,0,1.084-.391c.036-.022.073,0,.141-.027.139-.057.317-.114.433-.17.4-.188.8-.11,1.13-.321.17-.108.493-.172.51-.26.045-.2-.188-.6-.223-.842a8.035,8.035,0,0,0-.627-1.9,4.327,4.327,0,0,1-.353-1.1c-.023-.226-.156-.44-.177-.645l-.2-.638a2.7,2.7,0,0,1-.092-.332c-.02-.21-.047-.45-.049-.645s-.019-.367-.036-.543c-.007-.071-.068-.081-.059-.172s.069-.255.08-.391a6.792,6.792,0,0,0-.071-.958c-.012-.168-.119-.384-.016-.486l.191-.065c.028.007.1-.008.128,0,.33,0,.442.336.65.59.326.4.7.831,1.007,1.259l.143.293c.139.184.333.378.483.54.289.311.493.651.787.928a9.272,9.272,0,0,1,.855.691c.141.169.2.375.349.522a7.093,7.093,0,0,1,.709.762c.364.485.611,1.036,1,1.476.356-.2.838-.481,1.178-.68.091-.053.358-.118.433-.169a4.977,4.977,0,0,0,.413-.291c.115-.1.227-.276.343-.373L36,45.276c.126-.107.28-.263.406-.374.063-.055.126-.052.2-.11.19-.153.388-.38.565-.535.241-.21.579-.256.79-.44.092-.08.206-.235.3-.315l.407-.246c.109-.084.243-.225.343-.309s.314-.166.357-.207a1.809,1.809,0,0,1,.56-.362l-.007-.019-.019.007.012-.025c.016-.021.014-.018.051-.039.013.038-.018.012.013.038l-.007-.019c.019-.034,0-.069.089-.116.018.053-.008.049.077.038l-.007-.019c-.042.007-.038.008-.064,0a1.385,1.385,0,0,0,.331-.22c.013.039-.018.012.013.038l.05-.1.071.019c-.018-.051-.014-.027.038-.077-.2-.353-.627-.42-.881-.7-.323-.36-.548-.759-.858-1.138s-.7-.737-1.018-1.105c-.274-.313-.414-.795-.679-1.114-.156-.187-.376-.416-.528-.61-.065-.082-.086-.259-.156-.331l-.2-.082c-.061-.051-.012-.092-.053-.153-.1-.152-.292-.3-.406-.438-.361-.442-.615-.932-.994-1.349a2.867,2.867,0,0,0-.405-.31l-.058-.108c-.172-.149-.355-.338-.547-.476s-.472-.269-.662-.437a16.611,16.611,0,0,1-1.211-1.3c-.174-.19-.415-.361-.592-.545-.488-.509-.978-.984-1.474-1.441a12.91,12.91,0,0,1-1.089-1.188c-.1-.117-.26-.218-.367-.323s-.136-.214-.239-.324c-.142-.153-.337-.306-.476-.457l-.1-.159a2.684,2.684,0,0,0-.842-.652c-.1-.051-.217-.22-.334-.228-.024.046,0,.041-.051.039a.3.3,0,0,1-.282-.075.236.236,0,0,1-.11-.2c.085-.042.062-.076.108-.122.073-.073.146-.055.185-.085.061-.046.132-.155.209-.2a11.491,11.491,0,0,0,2.257-1.838c.1-.1.238-.128.35-.226.087-.076.192-.214.285-.29.133-.107.307-.183.42-.272l.185-.085c.178-.13.368-.319.528-.458l.115-.039c.11-.076.282-.19.343-.245.174-.16.359-.147.253-.45-.059-.049-.063-.178-.11-.261-.1-.171-.233-.639-.39-.892l-.1-.287c-.084-.137-.115-.337-.214-.5a5.817,5.817,0,0,1-.618-1.5,3.333,3.333,0,0,0-.458-1.4c-.108-.172-.116-.385-.221-.523a3.374,3.374,0,0,0-1.02.391l-.121.02c-.243.137-.7.179-.989.359-.13.08-.4.172-.548.272-.5.332-1.008.606-1.477.931a4.147,4.147,0,0,1-.433.233l-.294.079c-.168.129-.478.208-.758.408-.243.174-.506.36-.738.53-.082.06-.137.053-.217.117a3.1,3.1,0,0,1-.75.555c-.072-.035-.2-.028-.263-.081-.124-.114-.156-.262-.265-.4-.074-.094-.195-.192-.27-.292-.158-.208-.234-.511-.42-.669a1.762,1.762,0,0,0-.314-.17l-.141-.1c-.321-.075-.769.161-1.041.206a1.533,1.533,0,0,1-.225-.158l-.058-.108c-.037-.033-.128-.058-.16-.1l-.228-.542c-.121-.2-.21-.615-.365-.944a4.729,4.729,0,0,1-.5.151,3.965,3.965,0,0,1-1.1.289c-.351.031-.55.258-.835.307l.013.038c.022.015.018.014.039.051.053-.019.034-.036.077.038-.162.55.471,1.118.555,1.69-.061.055-.134.09-.165.142.033.018.038.025.065.064-.049.037-.05.085-.089.115-.124.1-.2.015-.306.1a1.832,1.832,0,0,0-.772,1.118,3.816,3.816,0,0,0,.006.831c.02.262.155.54.088.76-.017.057-.088.112-.114.167a1.133,1.133,0,0,1-.383.131.581.581,0,0,0-.281.053,5.556,5.556,0,0,1-2.653.991c-.284.014-.455.238-.746.255-.273.016-.565.107-.882.109-.2,0-.424-.071-.627-.085a3.506,3.506,0,0,0-.428.061c-.146.009-.349,0-.493,0-.163,0-.356.074-.5.087a6.155,6.155,0,0,0-.981.442.213.213,0,0,0,0,.128c-.019.078.032.142.04.243.018.233.11.52.14.785l.151.5c.007.069.02.2.027.268l.092.268c.024.225.047.479.069.7l.065.192c.033.288.167.64.2.913l.078.166c.143.34.233.6.352.905.142.038.28.141.423.176a3.334,3.334,0,0,0,.6.008,3.448,3.448,0,0,0,1.718-.287.941.941,0,0,1,.307-.041,2.544,2.544,0,0,0,.516-.177,1.8,1.8,0,0,1,.262-.047c.16-.023.3-.136.485-.144a1.554,1.554,0,0,0,.37-.041l.044-.058a2.914,2.914,0,0,0,.313-.085,2.772,2.772,0,0,1,.612-.209c.153-.022.141-.086.262-.111.412-.084.715-.144,1.213-.264a1.422,1.422,0,0,0,.535-.247c.022-.019.051-.095.07-.109,0,0,.415-.06.466-.073M3.923,7.751c.168.138.185.476.343.63a1.714,1.714,0,0,0,.769.314c.143.008.212-.076.3-.124a2.184,2.184,0,0,1,.287-.034l.122.108a5.939,5.939,0,0,1,.328-.668c.082-.119.193-.17.131-.365a2.252,2.252,0,0,1-.367-.323c-.092-.077-.256-.082-.365-.132a1.9,1.9,0,0,0-.7-.187,1.588,1.588,0,0,0-.739.4.887.887,0,0,0-.106.378M5.565,12A8.458,8.458,0,0,0,6.241,13.6c.113.176.134.4.234.561l.339.931c.137.219.265.465.4.675.115.176.129.351.24.516a4.647,4.647,0,0,0,.826,1.043,2.631,2.631,0,0,0,1.115.388c.182.048.348.181.526.226a9.09,9.09,0,0,0,1.619.174,1.163,1.163,0,0,0,.492-.061,3.106,3.106,0,0,0,.831-.07,10.411,10.411,0,0,0,1.864-.423c.1.073.182.057.245.216-.042.049-.037.09-.082.135-.12.154-.639.228-.823.281l.013.038a.247.247,0,0,1,.058.044c.138-.028.3-.017.4-.029.015,0,.058-.061.064-.064a1.732,1.732,0,0,1,.408-.118l.759-.28c.04-.027.059-.071.14-.091.291-.071.652-.14.919-.185a1.867,1.867,0,0,0,.363-.188c.017-.009.567-.168.645-.177.377-.285.911-.559,1.235-.763a2.859,2.859,0,0,0,.4-.2,1.3,1.3,0,0,0,.139-.155l.229-.142a6.03,6.03,0,0,0,.813-.747c.141-.179.268-.391.4-.584a4.581,4.581,0,0,0,.176-.423c.032-.06.116-.091.14-.155a8.27,8.27,0,0,0,.571-2.459c.019-.3-.06-.556-.064-.875,0-.108.023-.261.023-.371l-.039-.115a6.09,6.09,0,0,0-1.1-3.534,4.46,4.46,0,0,0-.516-.7A8.1,8.1,0,0,0,17.33,4.159L16.836,3.9a6.981,6.981,0,0,0-1.775-.5l-.728.056-.275.073a5.241,5.241,0,0,0-1.678.4,7.1,7.1,0,0,0-1.282.5c-.172.1-.432.142-.625.235a9.7,9.7,0,0,0-1.357.719,4.522,4.522,0,0,0-.414.227A7.777,7.777,0,0,0,7.522,6.715c-.164.214-.305.477-.468.694a5.126,5.126,0,0,0-1,1.772c-.039.149-.165.3-.207.455-.08.28-.168.583-.218.865q0,.128,0,.256a3,3,0,0,0-.105.506,3.759,3.759,0,0,0,.158.651A1.135,1.135,0,0,1,5.565,12m-.918-4.13a.731.731,0,0,1,.3-.571c.095.083.17.208.27.292l.116.025a.85.85,0,0,1,.259.51.362.362,0,0,0-.057.083.248.248,0,0,1-.128,0l-.051.1a.917.917,0,0,1-.571-.233c-.063-.066-.071-.16-.136-.21M20.385,53.3l.038-.013-.007-.019-.038.013.007.019m.687-1.367a.342.342,0,0,0,.056-.211l-.019.007c-.02.077-.054.1-.037.2m.789,1.247c.048-.022.038-.012.006-.109l-.019.007-.012.025.026.076m.506.981c.064,0,.049.025.051-.039l-.045-.006Zm-2.886-9.333-.013-.038.019-.007c0,.037,0,.02-.006.045m-1.314-5.79c.009-.056-.012-.01.025-.051l.025.013.007.019-.058.019M8.483,10.66c-.238-.632.439-1.338.965-.991.4.263.3.9.111,1.2-.071.112-.3.173-.459.221-.073-.047-.179-.056-.25-.107-.136-.1-.227-.235-.367-.324m5.471,13.215-.013-.038.038-.013.013.038-.038.013m2.037.522a.261.261,0,0,1-.026-.14c-.008-.12.026-.185.177-.231a1.794,1.794,0,0,0,.4.119c.149.05.265.206.4.291.155.1.224-.033.36.24a.476.476,0,0,0-.018.2c.075.1.2.1.3.132a1.635,1.635,0,0,0,.928.153c.138-.017.334-.183.523-.221.536-.109.844-.79,1.155-1.249l.094-.224a2.553,2.553,0,0,0,.416-.783c.063-.21.064-.425.123-.64.021-.075.125-.131.146-.2.039-.129-.015-.209.087-.307a.67.67,0,0,0,.186.044c.041.091.067.073.1.114.1.12.062.472.068.575.016.266.127.486.121.728-.01.355-.086.7-.114,1.043-.021.248.054.5.044.754a2.622,2.622,0,0,1-.553,1.385,1.591,1.591,0,0,1-1.14.73c-.107.016-.178.1-.313.085-.038,0-.119-.047-.166-.05s-.106.041-.115.039A4.534,4.534,0,0,1,17.4,25.947c-.151-.126-.248-.292-.4-.419a6.355,6.355,0,0,1-.611-.539c-.087-.1-.184-.207-.251-.3s-.064-.23-.143-.293M12.5,12.9a2.366,2.366,0,0,1-.031-.78,2.338,2.338,0,0,1,.494-.745c.032-.031.088-.016.1-.014.036-.021.1-.1.178-.1.032,0,.051.036.09.012a1.518,1.518,0,0,1,.727-.184c.569-.008,1.09-.083,1.441.341s.039,1-.132,1.242a2.078,2.078,0,0,1-.667.612c-.082.044-.346.082-.447.131a.978.978,0,0,1-.491.125.5.5,0,0,1-.308-.151c-.027-.026-.013-.06-.045-.07l-.121.02c-.057-.01-.144-.07-.2-.082-.088-.019-.161.019-.211.008-.156-.078-.232-.26-.38-.362m1.42,2.784c-.107-.321-.034-.354.2-.366.135-.007.083-.082.243.024a8,8,0,0,0,1.517-.688c.1-.057.186-.007.326-.047l.174.133c.028-.026.018-.062.051-.039a1,1,0,0,1,.212.12c.038.3-.112.263-.182.468a2.9,2.9,0,0,1-.792,1.061c-.08.066-.245.055-.351.1l-.257-.126c-.051-.01-.087.025-.128,0l-.045-.07c-.095-.06-.232-.079-.327-.144s-.185-.17-.3-.241c-.065-.042-.173-.02-.237-.069-.046-.035-.056-.088-.1-.114m3.535,9.731c.17.093.283.318.444.425.048.032.173.061.224.094.2.13.371.273.566.405.045.03.112.008.16.031.075.035.138.118.218.139.268.07.4-.058.709-.114a1.362,1.362,0,0,0,.839-.735,2.478,2.478,0,0,0,.365-.744,4.135,4.135,0,0,0-.037-.735c0-.246.059-.513.039-.761l-.019.007a3.073,3.073,0,0,1-.291.4,3.147,3.147,0,0,0-.157.353,4.167,4.167,0,0,1-.785,1.016,1.276,1.276,0,0,1-.568.215c-.287.071-.486.235-.734.229a2.943,2.943,0,0,1-.608-.092c-.124-.036-.233-.148-.372-.151l.006.019m10.2,27.752-.013-.038.019-.007c0,.038,0,.02-.006.045M14.939,15.741c.143.055.206.2.41.138a3.886,3.886,0,0,1,.4-.521l-.013-.039-.019.007a2.963,2.963,0,0,1-.8.338l.026.076M27.572,51.506a.153.153,0,0,0,.044-.122l-.019.007c-.008.038-.017.077-.025.115m1.149-.2.051-.039-.013-.038-.038.013c0,.021,0,.042,0,.064M16.1,8.572l-.058.02a.519.519,0,0,0-.2-.146,1.057,1.057,0,0,1,.172-1,.708.708,0,0,1,1.038.351c-.037.114-.015.242-.049.358a.759.759,0,0,1-.617.51l-.269-.036L16.1,8.572M16.649,7.3c-.007-.042-.008-.038,0-.064l.007.019c.022.014.008,0,.032.032l-.038.013m-.528-4.177a3.03,3.03,0,0,1,.949.4c.1.048.215.058.314.106a1.437,1.437,0,0,0,.571.233c.054-.148.256-.234.311-.4a6.565,6.565,0,0,0,.195-1.37c.02-.2.078-.428.078-.646,0-.312-.12-1.007-.53-.866C17.9.7,17.472.85,17.3,1.007a5.021,5.021,0,0,0-.961,1.439,1.37,1.37,0,0,0-.219.673M16.785,3a.844.844,0,0,1,.256-.814,4.489,4.489,0,0,0-.138-.466.456.456,0,0,1,.172-.122.315.315,0,0,1,.134-.046,1.356,1.356,0,0,1,.2.146c.076.1.027.188.136.21.081.024.113-.007.173.069a3.128,3.128,0,0,1,.234.625c-.054.053-.132.105-.165.142a.661.661,0,0,0-.024.179.884.884,0,0,1-.4.092c-.032,0-.064-.07-.09-.076-.1-.024-.3.1-.377.086A.338.338,0,0,1,16.785,3M33.969,47.592l.038-.013-.019-.058-.039.013.02.058m-3.52-28.279a6.226,6.226,0,0,1,.351.778c.389.636.567,1.463.955,2.11.124.207.059.532.087.568a4.216,4.216,0,0,0,.6.117,3.075,3.075,0,0,0,.365.132l.051-.039c.033,0,.1.041.141.037s.073-.061.153-.052l.1.05c.076.017.167-.039.249-.021.013,0,.054.038.077.038.151,0,.263-.082.357-.08a1,1,0,0,0,.262.017l.013-.025.013.038.032-.032c.132.005.754.02.754.02a.659.659,0,0,1,.275-.008c.049,0,.068-.049.089-.052.33-.047.823-.119.982-.378l-.019.007.013-.025c.12-.183.413-.471.243-.852-.044-.1-.18-.275-.272-.42-.119,0-.2-.08-.307-.087l-.032.032a3.24,3.24,0,0,0-.39-.017l-.051.039a2.054,2.054,0,0,1-.231-.049c-.243-.014-.615.143-.761-.039a.387.387,0,0,1-.15-.376c.017-.023.027-.026.07-.045.1-.075.3,0,.453-.112A10.243,10.243,0,0,1,36.132,20c.2-.115.676-.319.68-.574.008-.028,0-.037-.007-.083-.119,0-.216-.115-.282-.139l.025.013c.042,0-.032.032-.032.032a.676.676,0,0,0-.287.034l-.032-.032c-.02,0-.071.051-.134.046l-.1-.051a4.094,4.094,0,0,0-.683.19c-.092.014-.24.029-.326.047-.025.005-.021.043-.07.045l-.032-.032c-.113.019-.219.139-.364.124.01.081-.09.12-.241.168-.049.063-.214.037-.23.014-.109-.037-.163-.152-.213-.312.037-.056.041-.147.082-.2.066-.084.3-.282.317-.322.174-.354.516-.715.677-1.021l-.019.007.012-.026c.058-.121.129-.251.2-.366l.045.006a1,1,0,0,1,.119-.276.516.516,0,0,1,.1-.078,1.536,1.536,0,0,1,.132-.3c.046-.063.124-.124.14-.155l-.019.007.013-.025a3.046,3.046,0,0,0,.177-.3c.025-.084.01-.123.063-.192a1.108,1.108,0,0,0-.135-.146c-.07.032-.075-.008-.154-.012a1.4,1.4,0,0,0-.6.119,5.062,5.062,0,0,0-1.023.883,1.382,1.382,0,0,0-.477.419l.019-.007-.013.026a3.515,3.515,0,0,1-.742.766c-.173-.11-.268-.084-.367-.387.057-.08.09-.212.139-.282.123-.175.265-.32.387-.495a7.707,7.707,0,0,0,.435-.854c.031-.061.105-.1.139-.155.07-.12.143-.215.228-.334.017-.024,0-.064.012-.09.16-.309.537-.6.389-1.051a4.408,4.408,0,0,0-.723-.116c-.192.015-.464.324-.591.458a5.6,5.6,0,0,0-.413.418c-.044.057-.043.154-.075.218a2.284,2.284,0,0,1-1.027,1.184c-.051-.037-.107-.033-.154-.076a.376.376,0,0,1-.118-.408c.039-.061.124-.083.165-.142l.05-.166a2.031,2.031,0,0,0,.549-1.96l-.038.013c-.042,0-.532.307-.669.356a1.4,1.4,0,0,0-.47.438c-.107.135-.23.226-.323.367a1.249,1.249,0,0,0-.1.333c-.028.1-.11.206-.132.3-.044.2-.059.371-.1.57-.023.1-.083.214-.106.314v.128c-.015.04-.1.1-.1.141l.085.249c.142.114.177.387.279.567a2.613,2.613,0,0,1,.2.83,4.119,4.119,0,0,0,.2.638m12.62,22.332c.014-.022,0-.008.032-.032l.007.019-.039.013m.375.6-.013-.038c.038.012.026,0,.013.038m.331-.156.038-.013-.007-.019-.038.013.007.019m.244.152-.013-.038c.039.012.026,0,.013.038" transform="translate(-0.061 -0.061)"/>
        <path id="Path_80" data-name="Path 80" class="cls-5" d="M13.831,18.255a3.77,3.77,0,0,1-.83.134l-.153.052a2.655,2.655,0,0,0-.4.009c-.034.052-.24.009-.352.034a5.794,5.794,0,0,1-.914.013,10.84,10.84,0,0,1-1.19-.107c-.285-.068-.55-.239-.833-.314-.1-.027-.2,0-.307-.024a3.049,3.049,0,0,1-1.265-.764,3.742,3.742,0,0,1-.33-.528c-.343-.521-.6-1.192-.881-1.643l-.352-.969c-.144-.235-.163-.479-.306-.708L5.6,13.116a6,6,0,0,1-.548-1.479c-.01-.147.066-.207.075-.282.015-.137-.042-.246-.022-.377.051-.33.092-.69.165-1.018a5.021,5.021,0,0,0,.313-1.025,1.1,1.1,0,0,1-1,.148c-.131-.054-.243-.16-.372-.215a1.389,1.389,0,0,1-.482-.284l-.091-.2c-.083-.131-.318-.5-.279-.631,0-.1.057-.084.095-.161s-.006-.2.03-.288c.077-.18.238-.184.369-.3.04-.034.032-.09.082-.135.155-.138.257-.09.453-.176a1.831,1.831,0,0,1,1.158.075c.089.031.176.113.263.145a1.207,1.207,0,0,1,.674.411l.038-.013a2.8,2.8,0,0,1,.462-.585c.035-.042.037-.131.069-.173.064-.084.137-.12.21-.2s.107-.184.171-.251c.218-.229.467-.436.7-.644.057-.051.116-.02.153-.052a6.55,6.55,0,0,1,1.987-1.127c.085-.029.187-.1.242-.1a1.573,1.573,0,0,0,.274-.136l.3-.124a2.8,2.8,0,0,1,.5-.234c.278-.107.862-.243,1.186-.4a1.371,1.371,0,0,1,.243-.04c.061-.009.079-.068.166-.078.2-.023.353-.091.626-.107a1.54,1.54,0,0,0,.568-.087c.173.018.319-.049.543-.036a4.152,4.152,0,0,0,.723.052,3.343,3.343,0,0,1,.572-1.264,4.2,4.2,0,0,0,.24-.487c.039-.067.109-.1.159-.161a3.566,3.566,0,0,1,.425-.508c.327-.273,1.127-.614,1.449-.387A1.828,1.828,0,0,1,18.9.567a1.143,1.143,0,0,1,.124.428,4.387,4.387,0,0,1,.067.447c-.005.205-.063.444-.078.646a6.213,6.213,0,0,1-.127,1.069c-.023.09.008.171-.017.262s-.086.2-.113.295l.007.083c-.09.144-.323.105-.35.29A5,5,0,0,1,20,5.15c.169.15.405.267.572.424A8.545,8.545,0,0,1,21.589,7c.112.165.123.308.228.478a5.355,5.355,0,0,1,.608,2.783l.046.262a15.654,15.654,0,0,1-.026,1.675,7.039,7.039,0,0,1-1,2.712A7.293,7.293,0,0,1,19.854,16.5c-.036.033-.427.217-.471.246-.239.154-.483.261-.694.408-.11.076-.285.131-.293.207-.032.131.131.342.176.453a4.85,4.85,0,0,0,.462,1.1,1.6,1.6,0,0,1,2.017.465c.189.221.465.9.729.883.1-.127.282-.183.413-.291.1-.083.2-.235.3-.315.119-.1.186-.06.293-.143.279-.214.725-.409,1.012-.6.213-.143.436-.125.657-.267.322-.206.759-.472,1.089-.692.12-.081.317-.142.471-.246a3.636,3.636,0,0,1,1.1-.526c.207-.028.411-.214.555-.189a4.919,4.919,0,0,1,1.148-.456l.358-.015c.063.014.177.084.2.082.064-.14.02-.291.061-.448.053-.2.126-.4.175-.615a3.114,3.114,0,0,1,1.115-1.491c.12-.089.243-.08.357-.143a3.018,3.018,0,0,1,.516-.3.56.56,0,0,1,.429.131c.23.145.259.718.3.944l.038-.013c.049-.122.189-.122.286-.226.441-.471.791-.395,1.379-.215.155.048.481.153.533.374a2.144,2.144,0,0,1-.494,1.557l.013.038.057-.02c.051-.1.23-.233.293-.207a1.51,1.51,0,0,1,1.02-.391c.06.009.138.046.211.056l-.006.045c.17-.09.745.287.7.66a1.955,1.955,0,0,1-.315.705c-.025.042-.018.131-.05.167l-.108.058c-.063.088-.075.241-.145.327a3.538,3.538,0,0,0-.462.713l.019-.007-.013.026c-.071.119-.22.282-.26.366l.019-.007-.013.025a.5.5,0,0,1-.139.155c.018.035.014.078.032.1.1.008.222-.11.363-.124A2.646,2.646,0,0,1,37,18.979c.119.083.538.3.452.572-.01.2-.161.255-.291.4l-.031.1a1.779,1.779,0,0,0-.382.258H36.62c-.151.178-.475.18-.688.3l.013.039a1.442,1.442,0,0,1,1.073.7,1.265,1.265,0,0,1,.035,1.291l-.025-.013.007.019.019-.006-.012.025a1.27,1.27,0,0,1-.273.328c-.056.049-.112.036-.127.065.022.014.009,0,.032.032a1.127,1.127,0,0,0-.274.136,1.255,1.255,0,0,1-.53.074,2.277,2.277,0,0,1-.555.125,1.084,1.084,0,0,1-.192-.063l-.16.033c-.058,0-.136-.057-.192-.063-.076-.007-.136.036-.179.04-.106.008-.221-.01-.345-.01-.2,0-.193.085-.377.086a3.148,3.148,0,0,1-.678-.046.513.513,0,0,1-.243.04c-.336-.058-.723-.178-1.031-.2-.066-.005-.145-.071-.218-.075s-.119.03-.2.027-.143-.064-.25-.043a3.107,3.107,0,0,1-.554.381c-.1.076-.222.2-.33.284H30.3c-.124.1-.32.241-.477.355l-.185.085a23.013,23.013,0,0,0-1.709,1.566c-.027.026-.137.058-.2.11-.3.264-.7.5-1.017.775l.013.038a2.633,2.633,0,0,1,1.105.734c.107.119.158.249.271.356.678.646,1.261,1.3,1.907,2.02.216.241.52.442.759.659.492.447.914.961,1.41,1.378.057.048.068.111.123.172.081.09.217.149.3.241a6.173,6.173,0,0,0,.76.851c.316.248.672.464.99.709.168.13.277.317.451.444a2.33,2.33,0,0,1,.276.183c.169.172.258.347.42.54.046.055.134.1.18.152.228.253.4.542.613.795.083-.034.252-.072.333.036.126.1.14.361.24.516l.387.573c.2.221.439.464.625.7l.466.8c.461.526.95,1.008,1.4,1.55.2.241.31.525.53.738a3.27,3.27,0,0,0,.533.309c.119.08.386.4.476.393s.121-.06.192-.065c-.015-.071-.025-.045.012-.09.01.049-.01.014.02.058.048-.036.014-.049.038-.077.066-.08.19-.056.242-.1.021-.019,0-.066.012-.09.017.006.065.036.09.012a2.4,2.4,0,0,1,.521-.413c.056-.019.069-.078.1-.1l.383-.131c.057,0,0,.014.051.025.017-.011,0-.017.019-.007s.026.027.045.07c-.008.025-.005.008-.006.045-.105.11-.124.236-.3.316l.02.057-.038.013c-.051-.006-.114.129-.133.11l-.019.007c-.022.051-.012.126-.05.166l-.076.026-.076.154.039.051c.181-.159.445-.183.63-.343a.249.249,0,0,1,.243-.04c.023.017.026.027.046.07a.143.143,0,0,0-.012.09c-.1.082-.388.324-.374.469.27-.1.608-.379.829-.39-.009-.051-.022-.026.044-.058.041,0,.079-.059.16-.033,0,0-.073.034-.032.032l.019-.007.007.019c.022-.032.009-.026.044-.058L44,41.5c-.043.04-.04-.005-.044.058a.059.059,0,0,1,.026.076c-.037-.066-.017-.053-.083-.057a.452.452,0,0,1-.056.148c-.024-.03-.01-.017-.032-.032a.349.349,0,0,1-.012.09l-.051-.025c-.015.059-.009.086-.044.122l-.025-.012.02.057-.1.014c-.027.026-.009.083-.025.116l-.019.007a1.652,1.652,0,0,0-.153.116l.007.019-.019.007.026.076a2.252,2.252,0,0,1,.726-.376l.046.134c-.009.025-.005.008-.006.045l-.045-.006.007.019c.015.01.028-.009.032.032l-.019.007c-.11-.054-.179.1-.216.181l-.051-.025a.249.249,0,0,1,.007.083c-.063.017-.065.043-.134.046l.025.012c.042,0-.032.032-.032.032l-.026-.013.007.019.019-.007-.013.025c-.168.251-.353.309-.527.521,0,.022,0,.043,0,.064-.051.076-.14.1-.171.187-.075.228.15.655.032.908-.032.069-.112.1-.159.161-.019.025.01.085-.005.109-.042.065-.119.034-.178.1a2.579,2.579,0,0,1-.464.457,2.487,2.487,0,0,0-.49.317c-.152.164-.07.479-.335.584-.113.172-.36.194-.579.369-.279.222-.636.408-.973.653a2.1,2.1,0,0,1-.515.368,1.976,1.976,0,0,0-.363.252l-.63.343c-.08.061-.2.166-.286.226-.108.075-.211.116-.267.156l-.121.02c-.29.219-.711.408-.936.576a4.146,4.146,0,0,1-.918.313c-.129.013-.357-.016-.435.042a1.655,1.655,0,0,1-.744-.3,4.1,4.1,0,0,0-.309-.279,4.908,4.908,0,0,1-1.2-.938L31.9,45.715c-.2-.266-.476-.515-.69-.769-.17-.2-.271-.422-.446-.617a5.036,5.036,0,0,0-.547-.476,2.7,2.7,0,0,1-.245-.28c-.2-.212-.446-.415-.644-.635a7.94,7.94,0,0,1-.639-.808c-.194-.28-.294-.552-.491-.815-.145-.193-.341-.356-.471-.566l-.019.006a8.425,8.425,0,0,1,.048,1.266c0,.346.046.674.071,1.023l.1.351c.047.425.274.893.342,1.315.018.113.146.267.163.414a1.91,1.91,0,0,0,.248.663l.144.421c.061.1.144.291.194.382a1.318,1.318,0,0,1,.066.319l.124.363a.948.948,0,0,0,.092.4,1.244,1.244,0,0,1,.131.447l.157.459A9.371,9.371,0,0,1,29.9,51.31c-.059.2-.37.45-.539.611-.261.248-.53.549-.819.792l-.472.182a3.026,3.026,0,0,1-1.034.225c-.141.017-.326.272-.541.355a.506.506,0,0,1-.071-.146.172.172,0,0,0-.014-.1.283.283,0,0,0-.083.007c-.08.1-.281.074-.453.176-.155.092-.471.253-.758.408-.07.037-.152.013-.217.053-.046.028-.148.125-.184.148s-.115-.037-.185.02c-.022.018-.017.054-.057.083-.041-.039,0-.016-.051-.025-.161-.028-.537.364-.8.485a4.978,4.978,0,0,1-.625.235,2.451,2.451,0,0,1-1.1-.331l-.019.006c.006.042.008.039,0,.064a.214.214,0,0,0-.058-.108c-.025-.009-.008-.005-.045-.006-.057.083-.251.28-.356.271-.061.066-.149.183-.216.245l-.1.032-.031.1a2.523,2.523,0,0,1-.673.593.346.346,0,0,1-.091-.14,1.553,1.553,0,0,0,.266-.411l-.008-.211c.033-.1.126-.112.145-.263l-.057.02a1.351,1.351,0,0,1-.643.369c-.051-.041-.065-.031-.1-.114.009-.025.005-.007.006-.045.105-.092.511-.655.486-.828l-.038.013a3.049,3.049,0,0,1-.8.594c-.036-.027-.049-.02-.083-.057s-.024-.039-.032-.1c.187-.162.236-.391.386-.559.086-.1.173-.126.267-.219.065-.065.088-.156.184-.212l-.026-.076a.135.135,0,0,0,.109-.058c.007-.025.005-.022,0-.064l-.019.007c-.082.1-.241.094-.421.208s-.5.293-.637.388c-.095.066-.168.153-.28.117-.025-.019-.033-.041-.052-.089.009-.025.005-.008.006-.045a3.2,3.2,0,0,0,.941-.812c.032-.044.032-.129.069-.173.117-.138.267-.2.375-.341.065-.085.118-.207.177-.3.038-.058.111-.078.146-.135l.05-.166c.057-.072.163-.058.185-.085.115-.178.037-.447.123-.64.015-.035.066-.019.089-.052.045-.063.041-.178.088-.244l.07-.045a.952.952,0,0,0,.037-.2c.034-.127.114-.263.144-.391l-.02-.057c.051-.139.207-.245.2-.411a4.122,4.122,0,0,0-.63-1.473l-.1-.287-.163-.414a1.958,1.958,0,0,0-.2-.638,1.438,1.438,0,0,1-.259-.51c-.053-.474-.259-.88-.3-1.308-.027-.308-.219-.415-.255-.746-.017-.158-.139-.44-.184-.664l-.091-.2a6.75,6.75,0,0,0-.178-.772l-.2-.574a.406.406,0,0,0,.005-.173c-.325-.091-.257-.533-.422-.86a3.493,3.493,0,0,1-.236-1.692,6.5,6.5,0,0,0-.14-.786,4.3,4.3,0,0,0-.2-.766c-.021-.068-.079-.107-.091-.2-.015-.122-.087-.279-.1-.415-.01-.114-.009-.279-.028-.4,0-.019-.051-.059-.058-.108-.025-.153-.1-.315-.125-.491-.027-.2-.282-.427-.312-.727-.019-.193-.05-.392-.075-.594-.015-.124-.2-.419-.221-.587-.039-.3-.125-.635-.154-.951l-.112-.453a16.214,16.214,0,0,0-.819-3.587l-.07-.019c.012.051.02.031-.064.065-.043.075-.288.087-.465.138a6.961,6.961,0,0,1-.76.153c-.037-.018-.005.041-.006.045a2.24,2.24,0,0,1-.306.1,2.035,2.035,0,0,0-.408.118,5.529,5.529,0,0,1-1.647.433c-.188.028-.352.166-.631.216a11,11,0,0,1-1.577.324,1.2,1.2,0,0,0-.5.087c-.046,0-.127-.048-.166-.05-.016,0-.044.053-.089.052a5.227,5.227,0,0,1-.8-.09c-.05-.009-.085.02-.128,0-.027-.012-.043-.072-.071-.082-.118-.044-.243,0-.346-.075a1.454,1.454,0,0,1-.3-.241c-.1-.12-.1-.352-.189-.427.058.4-.092.492-.225.782-.051.111-.034.226-.074.346a2.734,2.734,0,0,1-1.1,1.21c-.068.028-.251.071-.325.111a.81.81,0,0,1-.333.028.178.178,0,0,0-.108.058.843.843,0,0,1-.8-.519,1.341,1.341,0,0,1-.129-.255c-.014-.1.071-.175.081-.263l-.115.039c-.108.139-.365.2-.542.292a1.96,1.96,0,0,1-.478.163c-.149.017-.3.15-.434.169a1.661,1.661,0,0,1-.761-.039c-.191-.059-.617-.378-.529-.674,0-.348.367-.491.532-.758a1.094,1.094,0,0,1-.536.119c-.09-.021-.191-.117-.282-.139A1.729,1.729,0,0,1,.6,30.632c-.064-.051-.068-.126-.129-.191S.148,30.1.137,29.958c0-.012.023-.049.019-.071-.012-.058-.069-.081-.052-.153.033-.143.22-.191.35-.29a10.7,10.7,0,0,1,1.279-.821l-.013-.038a1.612,1.612,0,0,1-1.167-.477.749.749,0,0,1-.1-.78A1.284,1.284,0,0,1,1.113,27a2.646,2.646,0,0,0,.427-.252,2.975,2.975,0,0,1,.491-.125l-.013-.038c-.366-.2-.792-1.242-.529-1.614a2.483,2.483,0,0,1,1.472-.695l.127-.065.051.025.274-.073.058.044c.1.014.158-.018.256,0s.187.1.276.119c.342.075.659.123.992.217.152.042.24.193.373.279.029.019.078-.009.109.006s.052.081.1.1c.137.043.272.028.409.074l.09.076c.1.033.2.032.3.068l.09.076c.128.023.219-.122.376-.15a.952.952,0,0,0,.248-.149l.287-.1a1.612,1.612,0,0,1,.683-.19c.051-.005.132-.076.229-.078.3-.008.563-.02.805-.019a1.593,1.593,0,0,0,.217-.053c.211,0,.457.085.672.091a1.206,1.206,0,0,0,.274-.072,1.912,1.912,0,0,0,.568-.087,1.517,1.517,0,0,1,.529-.2,6.3,6.3,0,0,0,.92-.122,1.915,1.915,0,0,0,.293-.143l.517-.176c.236-.146.424-.292.642-.433a2.951,2.951,0,0,1,.791-.249,4.158,4.158,0,0,0-.03-.652,4.018,4.018,0,0,1-.086-.441,2.429,2.429,0,0,1,.062-.256,1.932,1.932,0,0,1,.42-1.147l.3-.188a1.728,1.728,0,0,1,.159-.161l.428-.125-.007-.019c-.1-.061-.058-.22-.143-.357a3.762,3.762,0,0,1-.37-.835c-.035-.106-.034-.4-.08-.421-.17-.032-.322.126-.5.151-.346.048-.726.143-.858-.262C13.84,18.325,13.842,18.328,13.831,18.255Zm-13,12,.057-.02a1.065,1.065,0,0,0,.487.175,1.989,1.989,0,0,0,.423.112l.791-.248a1.092,1.092,0,0,0,.351-.1,4.363,4.363,0,0,1,1.116-.423l.1-.078a1.16,1.16,0,0,1,.224-.034c.065-.01.187-.134.274-.136.038,0,.142.016.2.018.113.112.185.361.054.472-.1.164-.622.316-.917.442a2.913,2.913,0,0,0-.294.079A5.324,5.324,0,0,0,2.068,31.8l.013.038c.048.017.072.071.116.088s.1-.015.147-.007a2.09,2.09,0,0,0,.8-.1,3.315,3.315,0,0,0,1.1-.526c.142-.09.341-.1.51-.2a8.725,8.725,0,0,1,1.1-.526c.058.042.071.03.11.134.072.057.034.16.04.243a1.381,1.381,0,0,1-.165.206c-.071.056-.139.051-.2.11-.155.159-.285.362-.463.521-.114.1-.33.175-.311.341.053.03.09.1.148.121a1.382,1.382,0,0,0,1.212-.328c.059-.065.133-.208.183-.277l.089-.052a3.178,3.178,0,0,0,.209-.263,2.967,2.967,0,0,0,.2-.6c.045-.138.189-.262.227-.4.006-.109.011-.217.017-.326a.6.6,0,0,1,.288.03l-.163-.478a.816.816,0,0,1-.08-.358c-.017-.212-.146-.491-.158-.715-.031-.552-.237-1.019-.254-1.558L6.66,26.6a3.861,3.861,0,0,0-.172-.881c-.13,0-.233-.1-.346-.138a3.417,3.417,0,0,1-.628-.149c-.117-.076-.174-.195-.29-.285s-.292-.055-.423-.112a3.951,3.951,0,0,0-.608-.156,2.183,2.183,0,0,0-.717-.161,3.326,3.326,0,0,0-1.263.431c-.134.092-.337.139-.324.3a.737.737,0,0,0,.26.574c.235.2.52.131.845.16.087.008.212.059.3.068.2.021.511-.042.615.175.1.083-.011.31-.036.4-.258.008-.458.134-.7.152a3.577,3.577,0,0,0-.938.192,1.392,1.392,0,0,0-.492.125,4.842,4.842,0,0,1-.873.384.224.224,0,0,1-.019.07,1.029,1.029,0,0,0,.532.246,4.376,4.376,0,0,0,1.688.065,3.744,3.744,0,0,0,.613-.145c.1-.014.211-.1.294-.079s.151.128.194.254c-.046.075-.023.178-.088.244-.158-.014-.541.268-.746.319a3.967,3.967,0,0,0-.625.234c-.193.1-.561.1-.772.242s-.475.33-.674.465l-.229.078a1.681,1.681,0,0,1-.413.29C.685,30.093.773,30.137.836,30.253Zm-.1-.178-.013-.038.019-.007C.738,30.068.741,30.05.732,30.075Zm.077.1L.8,30.138l.019-.006C.815,30.169.819,30.152.81,30.176Zm15.577-1.364c.1.236.1.46.178.708a17.171,17.171,0,0,1,.89,3.734l.085.313q.073.4.146.8l.209.612a2.99,2.99,0,0,0,.328,1.148,3.454,3.454,0,0,1,.223.715.617.617,0,0,1,0,.236,2.617,2.617,0,0,0,.106.5l.071.147a3.483,3.483,0,0,1,.209.676c.027.262.142.546.153.824.013.339.039.78.066,1.131.005.068.065.132.078.166.111.3.146.557.249.855l.137.338c0,.095-.014.187-.011.282,0,.141.087.2.1.287l.214.5c.032.251.128.542.172.753l.1.223a5.728,5.728,0,0,1,.3,1.008l.078.166a5.8,5.8,0,0,0,.68,2.054l.32,1c.076.125.11.309.2.446a3.812,3.812,0,0,1,.383.809l.19.555c.01.414-.473.678-.536,1.123.038,0,.02,0,.045.006a1.067,1.067,0,0,1,.377-.086,1.885,1.885,0,0,0,.4-.156,2.556,2.556,0,0,1,.581-.113c.051-.005.135-.075.185-.084.169-.031.29-.064.421-.08.032,0,.158-.077.223-.1a2,2,0,0,1,.485-.144.71.71,0,0,1,.28-.117,2.363,2.363,0,0,0,.555-.189c.043-.024.116,0,.2-.046a.587.587,0,0,1,.2-.091,4.586,4.586,0,0,0,1.084-.391c.036-.022.073,0,.141-.027.139-.057.317-.114.433-.17.4-.188.8-.11,1.13-.321.17-.108.493-.172.51-.26.045-.2-.188-.6-.223-.842a8.035,8.035,0,0,0-.627-1.9,4.327,4.327,0,0,1-.353-1.1c-.023-.226-.156-.44-.177-.645l-.2-.638a2.7,2.7,0,0,1-.092-.332c-.02-.21-.047-.45-.049-.645s-.019-.367-.036-.543c-.007-.071-.068-.081-.059-.172s.069-.255.08-.391a6.792,6.792,0,0,0-.071-.958c-.012-.168-.119-.384-.016-.486l.191-.065c.028.007.1-.008.128,0,.33,0,.442.336.65.59.326.4.7.831,1.007,1.259l.143.293c.139.184.333.378.483.54.289.311.493.651.787.928a9.272,9.272,0,0,1,.855.691c.141.169.2.375.349.522a7.093,7.093,0,0,1,.709.762c.364.485.611,1.036,1,1.476.356-.2.838-.481,1.178-.68.091-.053.358-.118.433-.169a4.977,4.977,0,0,0,.413-.291c.115-.1.227-.276.343-.373L36,45.276c.126-.107.28-.263.406-.374.063-.055.126-.052.2-.11.19-.153.388-.38.565-.535.241-.21.579-.256.79-.44.092-.08.206-.235.3-.315l.407-.246c.109-.084.243-.225.343-.309s.314-.166.357-.207a1.809,1.809,0,0,1,.56-.362l-.007-.019-.019.007.012-.025c.016-.021.014-.018.051-.039.013.038-.018.012.013.038l-.007-.019c.019-.034,0-.069.089-.116.018.053-.008.049.077.038l-.007-.019c-.042.007-.038.008-.064,0a1.385,1.385,0,0,0,.331-.22c.013.039-.018.012.013.038l.05-.1.071.019c-.018-.051-.014-.027.038-.077-.2-.353-.627-.42-.881-.7-.323-.36-.548-.759-.858-1.138s-.7-.737-1.018-1.105c-.274-.313-.414-.795-.679-1.114-.156-.187-.376-.416-.528-.61-.065-.082-.086-.259-.156-.331l-.2-.082c-.061-.051-.012-.092-.053-.153-.1-.152-.292-.3-.406-.438-.361-.442-.615-.932-.994-1.349a2.867,2.867,0,0,0-.405-.31l-.058-.108c-.172-.149-.355-.338-.547-.476s-.472-.269-.662-.437a16.611,16.611,0,0,1-1.211-1.3c-.174-.19-.415-.361-.592-.545-.488-.509-.978-.984-1.474-1.441a12.91,12.91,0,0,1-1.089-1.188c-.1-.117-.26-.218-.367-.323s-.136-.214-.239-.324c-.142-.153-.337-.306-.476-.457l-.1-.159a2.684,2.684,0,0,0-.842-.652c-.1-.051-.217-.22-.334-.228-.024.046,0,.041-.051.039a.3.3,0,0,1-.282-.075.236.236,0,0,1-.11-.2c.085-.042.062-.076.108-.122.073-.073.146-.055.185-.085.061-.046.132-.155.209-.2a11.491,11.491,0,0,0,2.257-1.838c.1-.1.238-.128.35-.226.087-.076.192-.214.285-.29.133-.107.307-.183.42-.272l.185-.085c.178-.13.368-.319.528-.458l.115-.039c.11-.076.282-.19.343-.245.174-.16.359-.147.253-.45-.059-.049-.063-.178-.11-.261-.1-.171-.233-.639-.39-.892l-.1-.287c-.084-.137-.115-.337-.214-.5a5.817,5.817,0,0,1-.618-1.5,3.333,3.333,0,0,0-.458-1.4c-.108-.172-.116-.385-.221-.523a3.374,3.374,0,0,0-1.02.391l-.121.02c-.243.137-.7.179-.989.359-.13.08-.4.172-.548.272-.5.332-1.008.606-1.477.931a4.147,4.147,0,0,1-.433.233l-.294.079c-.168.129-.478.208-.758.408-.243.174-.506.36-.738.53-.082.06-.137.053-.217.117a3.1,3.1,0,0,1-.75.555c-.072-.035-.2-.028-.263-.081-.124-.114-.156-.262-.265-.4-.074-.094-.195-.192-.27-.292-.158-.208-.234-.511-.42-.669a1.762,1.762,0,0,0-.314-.17l-.141-.1c-.321-.075-.769.161-1.041.206a1.533,1.533,0,0,1-.225-.158l-.058-.108c-.037-.033-.128-.058-.16-.1l-.228-.542c-.121-.2-.21-.615-.365-.944a4.729,4.729,0,0,1-.5.151,3.965,3.965,0,0,1-1.1.289c-.351.031-.55.258-.835.307l.013.038c.022.015.018.014.039.051.053-.019.034-.036.077.038-.162.55.471,1.118.555,1.69-.061.055-.134.09-.165.142.033.018.038.025.065.064-.049.037-.05.085-.089.115-.124.1-.2.015-.306.1a1.832,1.832,0,0,0-.772,1.118,3.816,3.816,0,0,0,.006.831c.02.262.155.54.088.76-.017.057-.088.112-.114.167a1.133,1.133,0,0,1-.383.131.581.581,0,0,0-.281.053,5.556,5.556,0,0,1-2.653.991c-.284.014-.455.238-.746.255-.273.016-.565.107-.882.109-.2,0-.424-.071-.627-.085a3.506,3.506,0,0,0-.428.061c-.146.009-.349,0-.493,0-.163,0-.356.074-.5.087a6.155,6.155,0,0,0-.981.442.213.213,0,0,0,0,.128c-.019.078.032.142.04.243.018.233.11.52.14.785l.151.5c.007.069.02.2.027.268l.092.268c.024.225.047.479.069.7l.065.192c.033.288.167.64.2.913l.078.166c.143.34.233.6.352.905.142.038.28.141.423.176a3.334,3.334,0,0,0,.6.008,3.448,3.448,0,0,0,1.718-.287.941.941,0,0,1,.307-.041,2.544,2.544,0,0,0,.516-.177,1.8,1.8,0,0,1,.262-.047c.16-.023.3-.136.485-.144a1.554,1.554,0,0,0,.37-.041l.044-.058a2.914,2.914,0,0,0,.313-.085,2.772,2.772,0,0,1,.612-.209c.153-.022.141-.086.262-.111.412-.084.715-.144,1.213-.264a1.422,1.422,0,0,0,.535-.247c.022-.019.051-.095.07-.109C15.921,28.886,16.336,28.826,16.387,28.812ZM3.923,7.751c.168.138.185.476.343.63a1.714,1.714,0,0,0,.769.314c.143.008.212-.076.3-.124a2.184,2.184,0,0,1,.287-.034l.122.108a5.939,5.939,0,0,1,.328-.668c.082-.119.193-.17.131-.365a2.252,2.252,0,0,1-.367-.323c-.092-.077-.256-.082-.365-.132a1.9,1.9,0,0,0-.7-.187,1.588,1.588,0,0,0-.739.4A.887.887,0,0,0,3.923,7.751ZM5.565,12A8.458,8.458,0,0,0,6.241,13.6c.113.176.134.4.234.561l.339.931c.137.219.265.465.4.675.115.176.129.351.24.516a4.647,4.647,0,0,0,.826,1.043,2.631,2.631,0,0,0,1.115.388c.182.048.348.181.526.226a9.09,9.09,0,0,0,1.619.174,1.163,1.163,0,0,0,.492-.061,3.106,3.106,0,0,0,.831-.07,10.411,10.411,0,0,0,1.864-.423c.1.073.182.057.245.216-.042.049-.037.09-.082.135-.12.154-.639.228-.823.281l.013.038a.247.247,0,0,1,.058.044c.138-.028.3-.017.4-.029.015,0,.058-.061.064-.064a1.732,1.732,0,0,1,.408-.118l.759-.28c.04-.027.059-.071.14-.091.291-.071.652-.14.919-.185a1.867,1.867,0,0,0,.363-.188c.017-.009.567-.168.645-.177.377-.285.911-.559,1.235-.763a2.859,2.859,0,0,0,.4-.2,1.3,1.3,0,0,0,.139-.155l.229-.142a6.03,6.03,0,0,0,.813-.747c.141-.179.268-.391.4-.584a4.581,4.581,0,0,0,.176-.423c.032-.06.116-.091.14-.155a8.27,8.27,0,0,0,.571-2.459c.019-.3-.06-.556-.064-.875,0-.108.023-.261.023-.371l-.039-.115a6.09,6.09,0,0,0-1.1-3.534,4.46,4.46,0,0,0-.516-.7A8.1,8.1,0,0,0,17.33,4.159L16.836,3.9a6.981,6.981,0,0,0-1.775-.5l-.728.056-.275.073a5.241,5.241,0,0,0-1.678.4,7.1,7.1,0,0,0-1.282.5c-.172.1-.432.142-.625.235a9.7,9.7,0,0,0-1.357.719,4.522,4.522,0,0,0-.414.227A7.777,7.777,0,0,0,7.522,6.715c-.164.214-.305.477-.468.694a5.126,5.126,0,0,0-1,1.772c-.039.149-.165.3-.207.455-.08.28-.168.583-.218.865q0,.128,0,.256a3,3,0,0,0-.105.506,3.759,3.759,0,0,0,.158.651A1.135,1.135,0,0,1,5.565,12Zm-.918-4.13a.731.731,0,0,1,.3-.571c.095.083.17.208.27.292l.116.025a.85.85,0,0,1,.259.51.362.362,0,0,0-.057.083.248.248,0,0,1-.128,0l-.051.1a.917.917,0,0,1-.571-.233C4.72,8.012,4.711,7.918,4.647,7.868ZM20.385,53.3l.038-.013-.007-.019-.038.013Zm.687-1.367a.342.342,0,0,0,.056-.211l-.019.007C21.089,51.8,21.055,51.827,21.072,51.93Zm.789,1.247c.048-.022.038-.012.006-.109l-.019.007-.012.025Zm.506.981c.064,0,.049.025.051-.039l-.045-.006Zm-2.886-9.333-.013-.038.019-.007C19.486,44.818,19.49,44.8,19.481,44.825Zm-1.314-5.79c.009-.056-.012-.01.025-.051l.025.013.007.019ZM8.483,10.66c-.238-.632.439-1.338.965-.991.4.263.3.9.111,1.2-.071.112-.3.173-.459.221-.073-.047-.179-.056-.25-.107C8.714,10.887,8.623,10.749,8.483,10.66Zm5.471,13.215-.013-.038.038-.013.013.038Zm2.037.522a.261.261,0,0,1-.026-.14c-.008-.12.026-.185.177-.231a1.794,1.794,0,0,0,.4.119c.149.05.265.206.4.291.155.1.224-.033.36.24a.476.476,0,0,0-.018.2c.075.1.2.1.3.132a1.635,1.635,0,0,0,.928.153c.138-.017.334-.183.523-.221.536-.109.844-.79,1.155-1.249l.094-.224a2.553,2.553,0,0,0,.416-.783c.063-.21.064-.425.123-.64.021-.075.125-.131.146-.2.039-.129-.015-.209.087-.307a.67.67,0,0,0,.186.044c.041.091.067.073.1.114.1.12.062.472.068.575.016.266.127.486.121.728-.01.355-.086.7-.114,1.043-.021.248.054.5.044.754a2.622,2.622,0,0,1-.553,1.385,1.591,1.591,0,0,1-1.14.73c-.107.016-.178.1-.313.085-.038,0-.119-.047-.166-.05s-.106.041-.115.039A4.534,4.534,0,0,1,17.4,25.947c-.151-.126-.248-.292-.4-.419a6.355,6.355,0,0,1-.611-.539c-.087-.1-.184-.207-.251-.3S16.07,24.46,15.991,24.4ZM12.5,12.9a2.366,2.366,0,0,1-.031-.78,2.338,2.338,0,0,1,.494-.745c.032-.031.088-.016.1-.014.036-.021.1-.1.178-.1.032,0,.051.036.09.012a1.518,1.518,0,0,1,.727-.184c.569-.008,1.09-.083,1.441.341s.039,1-.132,1.242a2.078,2.078,0,0,1-.667.612c-.082.044-.346.082-.447.131a.978.978,0,0,1-.491.125.5.5,0,0,1-.308-.151c-.027-.026-.013-.06-.045-.07l-.121.02c-.057-.01-.144-.07-.2-.082-.088-.019-.161.019-.211.008C12.719,13.185,12.643,13,12.5,12.9Zm1.42,2.784c-.107-.321-.034-.354.2-.366.135-.007.083-.082.243.024a8,8,0,0,0,1.517-.688c.1-.057.186-.007.326-.047l.174.133c.028-.026.018-.062.051-.039a1,1,0,0,1,.212.12c.038.3-.112.263-.182.468a2.9,2.9,0,0,1-.792,1.061c-.08.066-.245.055-.351.1l-.257-.126c-.051-.01-.087.025-.128,0l-.045-.07c-.095-.06-.232-.079-.327-.144s-.185-.17-.3-.241c-.065-.042-.173-.02-.237-.069C13.972,15.764,13.962,15.711,13.915,15.685Zm3.535,9.731c.17.093.283.318.444.425.048.032.173.061.224.094.2.13.371.273.566.405.045.03.112.008.16.031.075.035.138.118.218.139.268.07.4-.058.709-.114a1.362,1.362,0,0,0,.839-.735,2.478,2.478,0,0,0,.365-.744,4.135,4.135,0,0,0-.037-.735c0-.246.059-.513.039-.761l-.019.007a3.073,3.073,0,0,1-.291.4,3.147,3.147,0,0,0-.157.353,4.167,4.167,0,0,1-.785,1.016,1.276,1.276,0,0,1-.568.215c-.287.071-.486.235-.734.229a2.943,2.943,0,0,1-.608-.092c-.124-.036-.233-.148-.372-.151Zm10.2,27.752-.013-.038.019-.007C27.653,53.161,27.656,53.143,27.647,53.168ZM14.939,15.741c.143.055.206.2.41.138a3.886,3.886,0,0,1,.4-.521l-.013-.039-.019.007a2.963,2.963,0,0,1-.8.338ZM27.572,51.506a.153.153,0,0,0,.044-.122l-.019.007C27.588,51.429,27.58,51.468,27.572,51.506Zm1.149-.2.051-.039-.013-.038-.038.013C28.721,51.263,28.721,51.285,28.721,51.306ZM16.1,8.572l-.058.02a.519.519,0,0,0-.2-.146,1.057,1.057,0,0,1,.172-1,.708.708,0,0,1,1.038.351c-.037.114-.015.242-.049.358a.759.759,0,0,1-.617.51l-.269-.036ZM16.649,7.3c-.007-.042-.008-.038,0-.064l.007.019c.022.014.008,0,.032.032Zm-.528-4.177a3.03,3.03,0,0,1,.949.4c.1.048.215.058.314.106a1.437,1.437,0,0,0,.571.233c.054-.148.256-.234.311-.4a6.565,6.565,0,0,0,.195-1.37c.02-.2.078-.428.078-.646,0-.312-.12-1.007-.53-.866C17.9.7,17.472.85,17.3,1.007a5.021,5.021,0,0,0-.961,1.439A1.37,1.37,0,0,0,16.121,3.119ZM16.785,3a.844.844,0,0,1,.256-.814,4.489,4.489,0,0,0-.138-.466.456.456,0,0,1,.172-.122.315.315,0,0,1,.134-.046,1.356,1.356,0,0,1,.2.146c.076.1.027.188.136.21.081.024.113-.007.173.069a3.128,3.128,0,0,1,.234.625c-.054.053-.132.105-.165.142a.661.661,0,0,0-.024.179.884.884,0,0,1-.4.092c-.032,0-.064-.07-.09-.076-.1-.024-.3.1-.377.086A.338.338,0,0,1,16.785,3ZM33.969,47.592l.038-.013-.019-.058-.039.013Zm-3.52-28.279a6.226,6.226,0,0,1,.351.778c.389.636.567,1.463.955,2.11.124.207.059.532.087.568a4.216,4.216,0,0,0,.6.117,3.075,3.075,0,0,0,.365.132l.051-.039c.033,0,.1.041.141.037s.073-.061.153-.052l.1.05c.076.017.167-.039.249-.021.013,0,.054.038.077.038.151,0,.263-.082.357-.08a1,1,0,0,0,.262.017l.013-.025.013.038.032-.032c.132.005.754.02.754.02a.659.659,0,0,1,.275-.008c.049,0,.068-.049.089-.052.33-.047.823-.119.982-.378l-.019.007.013-.025c.12-.183.413-.471.243-.852-.044-.1-.18-.275-.272-.42-.119,0-.2-.08-.307-.087l-.032.032a3.24,3.24,0,0,0-.39-.017l-.051.039a2.054,2.054,0,0,1-.231-.049c-.243-.014-.615.143-.761-.039a.387.387,0,0,1-.15-.376c.017-.023.027-.026.07-.045.1-.075.3,0,.453-.112A10.243,10.243,0,0,1,36.132,20c.2-.115.676-.319.68-.574.008-.028,0-.037-.007-.083-.119,0-.216-.115-.282-.139l.025.013c.042,0-.032.032-.032.032a.676.676,0,0,0-.287.034l-.032-.032c-.02,0-.071.051-.134.046l-.1-.051a4.094,4.094,0,0,0-.683.19c-.092.014-.24.029-.326.047-.025.005-.021.043-.07.045l-.032-.032c-.113.019-.219.139-.364.124.01.081-.09.12-.241.168-.049.063-.214.037-.23.014-.109-.037-.163-.152-.213-.312.037-.056.041-.147.082-.2.066-.084.3-.282.317-.322.174-.354.516-.715.677-1.021l-.019.007.012-.026c.058-.121.129-.251.2-.366l.045.006a1,1,0,0,1,.119-.276.516.516,0,0,1,.1-.078,1.536,1.536,0,0,1,.132-.3c.046-.063.124-.124.14-.155l-.019.007.013-.025a3.046,3.046,0,0,0,.177-.3c.025-.084.01-.123.063-.192a1.108,1.108,0,0,0-.135-.146c-.07.032-.075-.008-.154-.012a1.4,1.4,0,0,0-.6.119,5.062,5.062,0,0,0-1.023.883,1.382,1.382,0,0,0-.477.419l.019-.007-.013.026a3.515,3.515,0,0,1-.742.766c-.173-.11-.268-.084-.367-.387.057-.08.09-.212.139-.282.123-.175.265-.32.387-.495a7.707,7.707,0,0,0,.435-.854c.031-.061.105-.1.139-.155.07-.12.143-.215.228-.334.017-.024,0-.064.012-.09.16-.309.537-.6.389-1.051a4.408,4.408,0,0,0-.723-.116c-.192.015-.464.324-.591.458a5.6,5.6,0,0,0-.413.418c-.044.057-.043.154-.075.218a2.284,2.284,0,0,1-1.027,1.184c-.051-.037-.107-.033-.154-.076a.376.376,0,0,1-.118-.408c.039-.061.124-.083.165-.142l.05-.166a2.031,2.031,0,0,0,.549-1.96l-.038.013c-.042,0-.532.307-.669.356a1.4,1.4,0,0,0-.47.438c-.107.135-.23.226-.323.367a1.249,1.249,0,0,0-.1.333c-.028.1-.11.206-.132.3-.044.2-.059.371-.1.57-.023.1-.083.214-.106.314v.128c-.015.04-.1.1-.1.141l.085.249c.142.114.177.387.279.567a2.613,2.613,0,0,1,.2.83A4.119,4.119,0,0,0,30.449,19.313Zm12.62,22.332c.014-.022,0-.008.032-.032l.007.019Zm.375.6-.013-.038C43.47,42.218,43.457,42.206,43.444,42.244Zm.331-.156.038-.013-.007-.019-.038.013Zm.244.152-.013-.038C44.045,42.214,44.033,42.2,44.02,42.24Z" transform="translate(-0.061 -0.061)"/>
      </g>
    </g>
  </g>
</svg>
