<svg xmlns="http://www.w3.org/2000/svg" xmlns:xlink="http://www.w3.org/1999/xlink" width="146" height="167" viewBox="0 0 146 167">
  <defs>
    <style>
      .cls-1 {
        fill: #e6e6e6;
      }

      .cls-2 {
        clip-path: url(#clip-path);
      }

      .cls-3 {
        fill: none;
      }
    </style>
    <clipPath id="clip-path">
      <rect id="Rectangle_80" data-name="Rectangle 80" class="cls-1" width="133.013" height="124.64"/>
    </clipPath>
  </defs>
  <g id="Group_304" data-name="Group 304" transform="translate(-34 -952)">
    <g id="Group_159" data-name="Group 159" transform="translate(42 971)">
      <g id="Group_158" data-name="Group 158" class="cls-2">
        <path id="Path_119" data-name="Path 119" class="cls-1" d="M129.925,76.9a5.035,5.035,0,0,1-2.532-.895,1.483,1.483,0,0,0-.1.413,5.155,5.155,0,0,0,.116.6,1.489,1.489,0,0,1-1.061.719c-.905.238-1.819.445-2.733.655a12.111,12.111,0,0,0-2.878.9,1.232,1.232,0,0,1-.643.145,3.948,3.948,0,0,0-2.077.5,8.868,8.868,0,0,1-2.234.776,5.87,5.87,0,0,0-.91.315c-.464.166-.925.34-1.393.491a.849.849,0,0,1-.443.021,13.209,13.209,0,0,0-3.43-.121,28.3,28.3,0,0,0-2.881.287c-.486.056-.719.323-.815.911A1.306,1.306,0,0,1,105.3,83.7l-1.624-.193-1.418-.85c-1.194-.349-2.385.1-3.687.239a5.3,5.3,0,0,1-.166-.737,6.819,6.819,0,0,1,0-.975.881.881,0,0,0-.42-.824,8.666,8.666,0,0,0-3.085.375,10.5,10.5,0,0,1-2.293.527c-.694.117-1.379.1-2.064.169a3.466,3.466,0,0,0-.879.37c-.337.141-.625.429-1.151.331l-.6-.551a15.417,15.417,0,0,0-.348,3.467c-.011.858-.238,1.713-.262,2.573a10.587,10.587,0,0,1-.475,2.32,2.7,2.7,0,0,1-.138.329l.212.349v1.53c-.012.213-.044.627-.057,1.042a8.53,8.53,0,0,0,0,1.188,6.322,6.322,0,0,1-.47,2.678c-.138.421-.282.844-.458,1.25-.588,1.356-1.212,2.7-1.672,4.1a4.894,4.894,0,0,1-.412.7,15.717,15.717,0,0,1-1.61,3.074,1.14,1.14,0,0,0-.2.4,28.115,28.115,0,0,1-1.475,3.132,1.24,1.24,0,0,1-.3.417,2.82,2.82,0,0,0-.715,1.026,7.588,7.588,0,0,1-2.393,2.991c-.334.256-.643.544-.986.837.264.664-.073,1-.575,1.36-.847.605-1.6,1.339-2.435,1.963a6.58,6.58,0,0,1-1.3.646c-.269.119-.559.187-.837.284q-1.325.462-2.647.93a4.722,4.722,0,0,0-.616.258c-.459.241-.9.516-1.366.745-.932.459-1.864.921-2.818,1.332a7.443,7.443,0,0,1-1.351.359c-.625.139-1.253.277-1.885.374a10.552,10.552,0,0,0-2.123.611,7.794,7.794,0,0,1-1.846.221c-.368.041-.734.1-1.1.149-.246.036-.489.1-.736.124-.987.108-1.973.238-2.964.294a6.687,6.687,0,0,1-1.244-.181c-.365-.051-.732-.083-1.1-.126a2.025,2.025,0,0,1-.437-.066,7.7,7.7,0,0,0-2.043-.343c-.393-.03-.778-.144-1.17-.193-.495-.062-.993-.1-1.293-.126l-1.295.406c-1.03-.3-1.9-.581-2.787-.807a3.194,3.194,0,0,0-.971-.028,3.33,3.33,0,0,1-1.306-.241c-.561-.193-1.134-.351-1.708-.5a8.294,8.294,0,0,0-1.148-.212,15.121,15.121,0,0,1-1.9-.165,20.783,20.783,0,0,1-3.751-1.138c-.293-.123-.572-.283-.86-.417-1.092-.506-2.284-.722-3.4-1.156a3.352,3.352,0,0,0-1.109-.066c-.493-.009-.986,0-1.522,0l-.459-1.007a13.4,13.4,0,0,1-2.941-1.434,28.559,28.559,0,0,1-2.4-1.6c-.764-.473-1.449-1.064-2.22-1.5a21.471,21.471,0,0,1-2.789-2.467,2.61,2.61,0,0,1-.572-.773c-.789-1.431-1.881-2.658-2.716-4.056-.57-.954-1.1-1.934-1.644-2.9-.5-.877-1.006-1.747-1.487-2.633a7.752,7.752,0,0,1-.538-1.221,6.765,6.765,0,0,0-.643-1.569,1.085,1.085,0,0,1-.078-.739l-.9-.883c-.018-.017-.045-.032-.052-.053-.219-.729-.86-1.284-.9-2.081a9.663,9.663,0,0,0-.559-2.224c-.056-.193-.251-.346-.429-.578l.164-.646c-.1-.259-.223-.582-.36-.9a10.976,10.976,0,0,1-.94-2.158,1.84,1.84,0,0,1-.055-.589c.076-.563.181-1.122.281-1.681.1-.536.186-1.074.3-1.606.1-.452.236-.9.372-1.337.141-.648.283-1.3.421-1.945.045-.216.073-.436.118-.653a1.954,1.954,0,0,1,.146-.571A8.787,8.787,0,0,0,2.724,75.8a2.047,2.047,0,0,1,.729-1.268c-.17-1.092.5-1.944.818-2.9a23,23,0,0,1,1.957-3.412,2.756,2.756,0,0,1,.581-.677,19.693,19.693,0,0,0,1.6-2.133c.048-.058.1-.111.144-.173.482-.719.968-1.437,1.439-2.163a6.045,6.045,0,0,0,.32-.647A8.16,8.16,0,0,0,12.206,60.2a2.529,2.529,0,0,1,1.769-1.26c-.013-.8.82-1.043,1.146-1.686a3.224,3.224,0,0,0,1.618-.523c.875-.518,1.742-1.062,2.658-1.5,1.073-.51,2-1.25,3.038-1.8.325-.173.689-.272,1.02-.436.643-.318,1.269-.672,1.916-.984a3.06,3.06,0,0,1,.966-.332,6.089,6.089,0,0,0,2.4-.721c.338-.191.731-.284,1.09-.441s.709-.338,1.062-.509c.089-.043.176-.093.266-.135l2.187-1.042a12.9,12.9,0,0,0,2.842-.437,2.808,2.808,0,0,0,.649-.116l2.491-.9c0-.039,0-.078,0-.117a5.939,5.939,0,0,0,1.085.17,14.757,14.757,0,0,0,1.541-.182,4.757,4.757,0,0,1,.583-.086,12.557,12.557,0,0,0,3.018-.291,1.569,1.569,0,0,1,.672-.006,1.536,1.536,0,0,0,1.374-.363,1.144,1.144,0,0,1,.269-.109l1.526.549a17.222,17.222,0,0,1,2.229-.213,4.317,4.317,0,0,1,2.065.49,5.74,5.74,0,0,0,1.491.631,3.952,3.952,0,0,0,1.414.022.7.7,0,0,1,.743.32,5.571,5.571,0,0,0,1.317,1.4A1.937,1.937,0,0,0,59.882,50a7.233,7.233,0,0,1,2.411.362,2.549,2.549,0,0,0,1,.12.99.99,0,0,1,.622.172,4.591,4.591,0,0,0,1.416.585c.345.087.635.378.977.5.742.255,1.5.458,2.256.679.19.056.383.1.576.147a2.047,2.047,0,0,1,1.541,1.032,1.732,1.732,0,0,0,.638.623c.6.376,1.234.707,1.854,1.054.238.133.479.262.784.428a1.286,1.286,0,0,1,1.207.56c.144.193.525.21.805.31.67.8,1.358,1.612,2.041,2.431.159.191.285.411.456.589A7.45,7.45,0,0,0,79.7,60.865a4.431,4.431,0,0,1,1.539,2.152,11.276,11.276,0,0,0,1.6,2.4c.264.354.5.732.743,1.1.622.924,1.256,1.841,1.861,2.776a6.242,6.242,0,0,1,1.088,3.182,10.318,10.318,0,0,0,.162,1.473c.212,1.141.454,2.276.684,3.407l.321-.394a1.9,1.9,0,0,1,1.875.379,2.537,2.537,0,0,1,.609-.126,10.087,10.087,0,0,1,2.6.117c.1.031.232-.07.351-.077a1.986,1.986,0,0,1,.661.009,2.458,2.458,0,0,0,1.248.016,2.507,2.507,0,0,1,.872.022,1.989,1.989,0,0,0,1.724-.312,9.436,9.436,0,0,0-.672-1.917,1.963,1.963,0,0,1-.093-.75l.4-.265a3.475,3.475,0,0,0,2.207.048,15.963,15.963,0,0,1,1.718-.329c.119-.382.259-.749.347-1.128a2.328,2.328,0,0,1,1.745-2.035,2.363,2.363,0,0,1,1.875,1.91l.65.576c.85.115,1.727.249,2.608.343a3.7,3.7,0,0,0,.807-.095,1.157,1.157,0,0,1,.443-.034,5.693,5.693,0,0,0,3.212-.255c.309-.077.606-.2.907-.309a6.273,6.273,0,0,1,1.581-.38c.86-.071,1.709-.265,2.563-.405a2.041,2.041,0,0,1,.224-.014c1.069-.051,2.143-.055,3.206-.165.961-.1,1.912-.3,2.862-.483.557-.107,1.1-.271,1.654-.4a1.334,1.334,0,0,1,1.246.317c.985-.276,1.781-1.083,2.934-.883a8.7,8.7,0,0,1,2.469,1.516l.478,1.552c-.02.287-.056.606-.062.926a2.026,2.026,0,0,1-1.553,1.99c-.515.164-1.006.4-1.473.592M86.94,80.712a14.747,14.747,0,0,1-.692-1.815,8.418,8.418,0,0,1-.226-1.988,2.914,2.914,0,0,0-.162-1.142,12.257,12.257,0,0,1-.645-3.564,5.365,5.365,0,0,0-.922-2.458c-.292-.432-.555-.884-.859-1.308-.65-.905-1.291-1.819-1.991-2.685a9.92,9.92,0,0,1-.932-1.337c-.354-.623-.741-1.23-1.147-1.821a12.144,12.144,0,0,0-1.406-1.638,14.855,14.855,0,0,1-1.445-1.884,7.113,7.113,0,0,0-1.7-1.444c-.107-.08-.281-.069-.423-.1a1.943,1.943,0,0,1-1.22-.748,2.874,2.874,0,0,0-1.292-.965,5.193,5.193,0,0,1-1.362-.847,5.347,5.347,0,0,0-1.045-.693,8.021,8.021,0,0,0-1.426-.377,6.732,6.732,0,0,1-2.489-1.111c-1.043-.744-2.305-.873-3.42-1.394a.748.748,0,0,0-.222-.021c-.467-.05-.937-.081-1.4-.157a2.317,2.317,0,0,0-1.246-.006,1.393,1.393,0,0,1-.454.008c-.144-.154-.274-.3-.414-.443A4.342,4.342,0,0,0,56.875,49.6a3.992,3.992,0,0,1-1.471-.651.512.512,0,0,0-.285-.08,10.331,10.331,0,0,1-2.4-.508c-.422-.141-.843-.285-1.269-.409a1.385,1.385,0,0,0-.574-.082c-.758.12-1.508.288-2.266.4a3.114,3.114,0,0,1-.863-.02,5.25,5.25,0,0,0-.79-.179,20.675,20.675,0,0,0-4.031.135,5.852,5.852,0,0,1-.875.149c-.771.058-1.544.084-2.314.144a2.154,2.154,0,0,0-.79.173,11.839,11.839,0,0,1-3.122.9c-.606.12-1.212.24-1.815.372a30.591,30.591,0,0,0-3.541,1.3,2.427,2.427,0,0,0-.726.51c-.3.26-.567.551-.82.8a8.134,8.134,0,0,0-3.427.822c-1.268.617-2.521,1.264-3.765,1.929a14.668,14.668,0,0,0-1.371.9c-.51.352-1,.729-1.518,1.074-.616.412-1.246.8-1.836,1.178-.029.311-.051.556-.072.783A2.808,2.808,0,0,1,15,59.929c-.216.146-.429.275-.626.425a16.8,16.8,0,0,0-3.13,3.2,13.081,13.081,0,0,0-1.3,1.909,6.448,6.448,0,0,1-.872,1.1A18.4,18.4,0,0,0,7.68,68.223a6.6,6.6,0,0,1-.917,1.25.946.946,0,0,0-.127.185,29.824,29.824,0,0,0-1.767,2.835,3.889,3.889,0,0,0-.711,2.657c.02.084-.054.187-.071.284a18.1,18.1,0,0,1-1.177,3.43,2.121,2.121,0,0,0-.2.554c-.069.817-.1,1.638-.165,2.456a2.815,2.815,0,0,1-.161.713c-.316.884-.68,1.753-.963,2.648a3.305,3.305,0,0,0-.177,1.379,15.239,15.239,0,0,0,1.091,3.749,4.994,4.994,0,0,1,.539,1.92,4.521,4.521,0,0,0,.27,1.22c.17.59.367,1.172.528,1.681.25.313.443.574.656.815a4.017,4.017,0,0,0,.585.576c.717.531,1.477,1.006,2.169,1.566q1.475,1.2,2.872,2.49a14.232,14.232,0,0,0,2.917,2.312c.829.439,1.661.878,2.517,1.259.786.35,1.6.633,2.414.924a5.185,5.185,0,0,0,1.139.3,4.806,4.806,0,0,1,1.735.588,19.5,19.5,0,0,0,2.409.885,10.54,10.54,0,0,1,1.308.456,12.4,12.4,0,0,0,1.52.75,20.808,20.808,0,0,0,2.208.632,14.742,14.742,0,0,0,1.755.3c.539.062,1.085.052,1.627.095a1.53,1.53,0,0,1,.574.148,4.068,4.068,0,0,0,1.725.417c.423.123.857.183,1.283.279a8.352,8.352,0,0,0,3.552-.145c.477-.1.947-.237,1.425-.331.312-.061.633-.077,1.09-.128a2.408,2.408,0,0,0,1.686-.029.8.8,0,0,1,.369,0,2.778,2.778,0,0,0,1.445-.256c.22-.1.484-.108.711-.2.607-.249,1.324-.228,1.78-.719a5.082,5.082,0,0,0,.974.209c.611.008,1.223-.083,1.834-.073a2.636,2.636,0,0,0,1.5-.336.637.637,0,0,1,.342-.116,2.084,2.084,0,0,0,1.186-.378,2.805,2.805,0,0,1,.695-.232,20.033,20.033,0,0,0,3.3-1.061c.222-.1.438-.213.535-.261l2.628.574a1.729,1.729,0,0,1,1.342-.039,1.07,1.07,0,0,0,.371.035,14.972,14.972,0,0,1,2.2,0,1.256,1.256,0,0,0,.37-.032c.684-.1,1.367-.211,2.088-.323a2.848,2.848,0,0,0,.28-.173,5.818,5.818,0,0,1,1.728-.986,10.971,10.971,0,0,0,1.985-.806,45.922,45.922,0,0,0,3.94-2.38c1.014-.708,1.979-1.489,3.054-2.106a7.678,7.678,0,0,0,1.839-1.233,6.369,6.369,0,0,1,1.085-.764,6.055,6.055,0,0,0,1.164-.79,24.02,24.02,0,0,0,1.6-2.051c.408-.56.743-1.175,1.173-1.717a5.78,5.78,0,0,0,1.19-2.581c.169-.892.5-1.753.758-2.63a1.86,1.86,0,0,0,.069-.438,23.324,23.324,0,0,1,.142-3.275c.115-.629.1-1.282.169-1.921.062-.539.172-1.072.254-1.572M85.429,93.566a12.317,12.317,0,0,0-1.8,2.537,5.243,5.243,0,0,1-.751,1.01,32.376,32.376,0,0,1-4.087,3.118c-.773.571-1.653.994-2.459,1.523-1.141.748-2.259,1.533-3.387,2.3-.1.07-.218.12-.328.18-1,.548-1.99,1.1-2.993,1.642a15.217,15.217,0,0,1-4.247,1.729,4.794,4.794,0,0,1-2.916.127.618.618,0,0,0-.223-.009c-.825-.009-1.65-.006-2.475-.033-.394-.013-.785-.1-1.179-.123a10.028,10.028,0,0,0-1.624-.019,14.122,14.122,0,0,0-3.061.9c-.489.172-.957.406-1.428.627a4.869,4.869,0,0,1-2.656.525,7.125,7.125,0,0,0-2.334.158,14.159,14.159,0,0,1-1.6.326c-.822.055-1.584.365-2.39.468-.316.041-.631.094-.948.12a10.6,10.6,0,0,0-3.254.3,5,5,0,0,1-1.142.3c-.615.088-1.236.126-1.855.176a1.387,1.387,0,0,1-.29-.055c-.219-.032-.439-.063-.659-.089-.467-.054-.941-.07-1.4-.164a7.355,7.355,0,0,0-2.465-.447.582.582,0,0,1-.344-.114,2.211,2.211,0,0,0-1.5-.323c-1.022.127-1.9-.643-2.927-.471-.151.025-.328-.1-.492-.155-.023-.008-.042-.027-.065-.037-.771-.334-1.559-.635-2.31-1.01a4.35,4.35,0,0,0-2.564-.589,1.07,1.07,0,0,1-.286-.019c-.974-.881-2.252-1.03-3.247-1.772h-.909c-.795-.541-1.741-.659-2.51-1.192a8.018,8.018,0,0,0-1.433-.557,14.833,14.833,0,0,1-4.24-3.206c-.732-.7-1.439-1.417-2.164-2.12-.058-.056-.168-.058-.311-.1.011.154-.016.272.03.333a1.955,1.955,0,0,1,.44,1.082c.008.132.144.254.215.384a5.49,5.49,0,0,1,.27.519c.142.341.239.7.4,1.031.29.574.629,1.123.93,1.692a40.067,40.067,0,0,0,3.511,5.663,21.92,21.92,0,0,0,2.667,2.692c.509.469,1.109.837,1.661,1.262a7.987,7.987,0,0,0,2.132,1.2,6.614,6.614,0,0,1,1.638.833,7.946,7.946,0,0,0,2.3,1.347,10.186,10.186,0,0,0,3,.708,2.03,2.03,0,0,1,.564.144q.528.166,1.05.346c.3.1.606.209.9.327a29.608,29.608,0,0,0,3.457,1.508,18.473,18.473,0,0,0,3.152.8c1.166.093,2.291.4,3.45.508a3.977,3.977,0,0,1,1.175.162,5.146,5.146,0,0,0,2.056.257,1.849,1.849,0,0,1,.517.055,20.418,20.418,0,0,1,2.948.671.926.926,0,0,0,.3.023c.568.052,1.137.1,1.7.163a5.406,5.406,0,0,0,.653.13,7.137,7.137,0,0,1,2.548.449,3.658,3.658,0,0,0,1.622.133c1.407-.141,2.816-.259,4.219-.432a19.357,19.357,0,0,0,2.472-.46,6.8,6.8,0,0,0,1.252-.608,1.953,1.953,0,0,0,1.391.045,13.916,13.916,0,0,1,1.437-.326,9.574,9.574,0,0,0,1.259-.411c.522-.217,1.023-.485,1.535-.727.736-.348,1.472-.7,2.212-1.037a12.492,12.492,0,0,1,1.221-.522,15.231,15.231,0,0,0,4.189-1.807A5.519,5.519,0,0,0,73.992,116a7.843,7.843,0,0,1,.669-.868c1.006-1.062,2.045-2.1,3.016-3.19a18.036,18.036,0,0,0,1.266-1.811c.028-.04.041-.091.068-.133q.351-.564.7-1.127a5.321,5.321,0,0,0,.312-.5c.511-1.067.995-2.147,1.524-3.2.586-1.171,1.279-2.292,1.8-3.489.6-1.377,1.023-2.829,1.6-4.217a11.918,11.918,0,0,0,.661-3.035.893.893,0,0,0-.181-.857M125.578,72.08a16.569,16.569,0,0,1-3.176.609c-.9.121-1.813.2-2.72.293-.517.055-1.035.152-1.552.155a6.355,6.355,0,0,0-2.906.765,2.456,2.456,0,0,1-1.212.3,3.336,3.336,0,0,0-1.829.245c-.138.077-.343.031-.515.05-.32.035-.639.09-.96.114q-1.3.1-2.607.173c-.343.019-.687.01-1.03.011-.365,0-.73,0-1.175,0,.055.391.131.747.15,1.106.027.516-.032,1.039.025,1.551a11.654,11.654,0,0,1,.282,3.08,2.429,2.429,0,0,0,.677.111c.8-.114,1.6-.266,2.4-.4a.526.526,0,0,0,.069-.024,1.541,1.541,0,0,1,1.358.038,1.341,1.341,0,0,0,.577.1,18.058,18.058,0,0,0,4.19-.539,9.718,9.718,0,0,0,1.858-.722,5.667,5.667,0,0,1,.961-.375,1.193,1.193,0,0,0,.908-.563c.626-.074,1.2-.107,1.753-.216a10.452,10.452,0,0,0,1.777-.479,7.9,7.9,0,0,1,1.641-.425,9.078,9.078,0,0,0,1.453-.482,6.268,6.268,0,0,0,.2-.99,21.307,21.307,0,0,0,0-2.176c-.03-.477-.046-1-.6-1.307M88.786,80.5c.5,0,1.008.035,1.5-.008.778-.068,1.55-.228,2.328-.273a10.457,10.457,0,0,0,1.523-.27,11.685,11.685,0,0,1,3-.517,1.53,1.53,0,0,0,1.337-.559H99.3l.445.775a1.846,1.846,0,0,0-.212,1.64,5.741,5.741,0,0,0,2.311.007,5.212,5.212,0,0,1-.424-2.166c-.128-1.328-.226-2.658-.335-3.967l-1.02-.22-1.327.525c-.182.9.3,1.632.375,2.5l-1.167.594-.286-.323-.7.164a14.123,14.123,0,0,0-2.939-.12,15.411,15.411,0,0,0-2.953.092,28.916,28.916,0,0,1-2.946.288l-.77-.444.763,2.719.666-.442m15.964,1.926a3.129,3.129,0,0,0,.4-1.641c-.042-1.487-.118-2.973-.2-4.458a6.175,6.175,0,0,0-.181-1.471,19.4,19.4,0,0,0-.83-2.063,3.869,3.869,0,0,0-.429-.612l-.925,1.127c.05.259.1.545.134.695a4.8,4.8,0,0,1-.291,1.115c-.209.371.034.675.036,1.007.009,1.139.068,2.279.154,3.416a3.155,3.155,0,0,0,.313,1.279,16.256,16.256,0,0,0,1.181,1.64l.637-.032M128.628,73.6c-.268.353-.657.605-.63,1.109l.373.715a2.6,2.6,0,0,0,1.888.108,2.258,2.258,0,0,0,1.474-.987V73.341a2.372,2.372,0,0,0-2.929-1.655,1.539,1.539,0,0,0-.67,1.345l.494.572M66.344,18.343l-.119-.412a4.958,4.958,0,0,1,.245-.561,3.1,3.1,0,0,0,.4-1.408,4.038,4.038,0,0,1,.522-1.99.97.97,0,0,0,.191-.477,3.574,3.574,0,0,1,.52-1.458A17.841,17.841,0,0,0,69.732,8.8c.021-.09.12-.16.163-.247.137-.28.265-.565.4-.864l-.6-.5-.528.222c-.3.595-.6,1.132-.839,1.7-.528,1.249-.963,2.541-1.548,3.762A20.161,20.161,0,0,0,65.526,16.8c-.208.832-.221,1.711-.367,2.56a11.211,11.211,0,0,0-.267,2.283,3.067,3.067,0,0,1-.058.666,6.057,6.057,0,0,0,.343,3.494A19.323,19.323,0,0,0,66.8,29.125a3.238,3.238,0,0,0,1.011,1.058,5.18,5.18,0,0,1,.759.455c.711.627,1.413,1.266,2.089,1.93a4.621,4.621,0,0,1,1.363,4.341,10.157,10.157,0,0,1-.336,1.588c-.3.878-.476,1.8-.75,2.689-.2.66-.462,1.3-.723,1.945a7.428,7.428,0,0,1-1.795,3.105c-.046.039-.04.138-.049.173l.61.95a2.372,2.372,0,0,0,.61-.725c.345-.734.717-1.455,1.039-2.2.205-.472.323-.981.513-1.46.211-.529.466-1.04.689-1.564a.947.947,0,0,0,.12-.492,2.96,2.96,0,0,1,.7-2.031,4.344,4.344,0,0,0,.63-1.862,9.667,9.667,0,0,0-.795-4.415,2.94,2.94,0,0,0-1.025-1.258c-.65-.456-1.243-.994-1.859-1.5-.554-.453-1.121-.892-1.653-1.37a2.8,2.8,0,0,1-.885-1c-.383-1.187-1.193-2.241-1.143-3.566a1,1,0,0,0-.125-.346,2.285,2.285,0,0,0,.067-1.391,1.432,1.432,0,0,1,.165-1.648,1.012,1.012,0,0,0,.082-.226l-.289-.409.526-1.558M40.581,12.376a21.772,21.772,0,0,1,.126-3.726,12.968,12.968,0,0,1,.446-2.33,1.35,1.35,0,0,0,.146-.57,5.462,5.462,0,0,1,.384-1.866,6.994,6.994,0,0,1,1.05-2.274c.4-.6.343-1-.175-1.608a.863.863,0,0,0-.884.544,18.211,18.211,0,0,0-.946,2.624,15.857,15.857,0,0,0-.659,3.1c-.032,1.1-.548,2.115-.544,3.252a29.466,29.466,0,0,0,.151,3.644,10.611,10.611,0,0,0,.194,1.164,7.13,7.13,0,0,0,2.018,3.58,11.9,11.9,0,0,1,1.685,2c.648.963,1.309,1.918,1.917,2.906a24.98,24.98,0,0,1,1.876,4.578,5.806,5.806,0,0,1,.425,2.323,10.509,10.509,0,0,0,.189,1.694,24,24,0,0,1-1.737,6.835l.671.443a5.233,5.233,0,0,0,1.15-2.213c.116-.5.074-1.043.2-1.54.18-.688.454-1.352.69-2.025a1.766,1.766,0,0,0,.069-1.152,1.663,1.663,0,0,1-.158-1.144,4.289,4.289,0,0,0-.148-2.41,16.843,16.843,0,0,1-.509-2.367,1.23,1.23,0,0,0-.256-.75,4.541,4.541,0,0,1-.893-1.7,20.906,20.906,0,0,0-.925-2.17,5.045,5.045,0,0,0-1.642-2.059,3.529,3.529,0,0,1-.563-.6c-.2-.222-.384-.456-.584-.676-.635-.7-1.283-1.39-1.906-2.1a1.4,1.4,0,0,1-.285-.593c-.094-.408-.139-.828-.236-1.449a3.3,3.3,0,0,1-.34-1.364M9.172,6.189c-.085.175-.1.384-.181.562C8.635,7.537,8.274,8.319,7.9,9.1a4.634,4.634,0,0,0-.4,1.947,18.919,18.919,0,0,1-.138,3.588,1.021,1.021,0,0,0,.01.373c.141.854.265,1.711.443,2.557a3.57,3.57,0,0,0,.435,1.245,9.33,9.33,0,0,0,2.939,2.806c1.075.652,2.2,1.224,3.294,1.842a4.1,4.1,0,0,1,1.445,1.371,4.424,4.424,0,0,1,.764,2.143c.048.74.19,1.472.27,2.211a4.665,4.665,0,0,1-.04.667,13.829,13.829,0,0,0-.046,1.85,13.65,13.65,0,0,1,.241,2.285c-.035.495-.14.989-.136,1.483A9.709,9.709,0,0,1,16.7,37.9a1.674,1.674,0,0,0,.53,1.476c.517-.26.317-.628.218-1a.89.89,0,0,0,.248-1.01,3.071,3.071,0,0,1,.1-1.618c.133-.476.305-.943.483-1.486L17.7,33.019c.037-.233.1-.571.141-.913a2.029,2.029,0,0,0,0-.741c-.15-.527.237-1.138-.259-1.6-.012-.012,0-.049,0-.137l.183-.495a2.623,2.623,0,0,1-.015-.942c.057-.338.163-.669.269-1.086-.1-.171-.248-.4-.371-.636-.135-.262-.363-.542-.346-.8a4.2,4.2,0,0,0-.389-1.577,1.906,1.906,0,0,0-1.166-1.239,20.42,20.42,0,0,1-5.755-3.487,2.181,2.181,0,0,1-.518-.627,5.987,5.987,0,0,1-.745-2.61c0-1.519.073-3.038.145-4.556.024-.514.134-1.024.21-1.535a24.838,24.838,0,0,1,.945-2.714c.094-.35.167-.7.247-1.044l-.691-.709a6.132,6.132,0,0,0-.412.623" transform="translate(0 -0.001)"/>
      </g>
    </g>
    <rect id="Rectangle_178" data-name="Rectangle 178" class="cls-3" width="146" height="167" transform="translate(34 952)"/>
  </g>
</svg>
