<svg xmlns="http://www.w3.org/2000/svg" xmlns:xlink="http://www.w3.org/1999/xlink" width="128" height="145" viewBox="0 0 128 145">
  <defs>
    <style>
      .cls-1 {
        fill: none;
      }

      .cls-2 {
        clip-path: url(#clip-path);
      }
    </style>
    <clipPath id="clip-path">
      <rect id="Rectangle_41" data-name="Rectangle 41" class="cls-1" width="98.073" height="91.899"/>
    </clipPath>
  </defs>
  <g id="Group_254" data-name="Group 254" transform="translate(-619 -418)">
    <g id="Group_68" data-name="Group 68" transform="translate(644 462)">
      <g id="Group_67" data-name="Group 67" class="cls-2">
        <path id="Path_82" data-name="Path 82" d="M95.8,56.7a3.713,3.713,0,0,1-1.867-.66,1.093,1.093,0,0,0-.074.3,3.8,3.8,0,0,0,.085.444,1.1,1.1,0,0,1-.783.53c-.668.176-1.342.328-2.015.483a8.93,8.93,0,0,0-2.122.664.908.908,0,0,1-.474.107,2.911,2.911,0,0,0-1.531.368,6.539,6.539,0,0,1-1.647.572,4.328,4.328,0,0,0-.671.233c-.342.122-.682.251-1.027.362a.626.626,0,0,1-.327.016,9.739,9.739,0,0,0-2.529-.089,20.862,20.862,0,0,0-2.124.212c-.358.041-.53.238-.6.672a.963.963,0,0,1-.451.789l-1.2-.142L75.4,60.942a7.077,7.077,0,0,0-2.718.176,3.911,3.911,0,0,1-.123-.544,5.027,5.027,0,0,1,0-.719.65.65,0,0,0-.309-.608,6.39,6.39,0,0,0-2.274.276,7.741,7.741,0,0,1-1.691.389c-.512.086-1.017.072-1.522.125a2.555,2.555,0,0,0-.648.273c-.248.1-.461.317-.849.244l-.44-.406a11.367,11.367,0,0,0-.257,2.556c-.008.633-.176,1.263-.193,1.9a7.806,7.806,0,0,1-.351,1.711,1.99,1.99,0,0,1-.1.243l.156.257v1.128c-.009.157-.032.463-.042.769a6.29,6.29,0,0,0,0,.876,4.661,4.661,0,0,1-.346,1.975c-.1.311-.208.622-.338.922-.434,1-.894,1.988-1.233,3.026a3.607,3.607,0,0,1-.3.518,11.588,11.588,0,0,1-1.187,2.266.84.84,0,0,0-.144.294,20.727,20.727,0,0,1-1.088,2.309.914.914,0,0,1-.22.307,2.079,2.079,0,0,0-.527.757,5.6,5.6,0,0,1-1.764,2.205c-.246.188-.474.4-.727.617.195.489-.054.738-.424,1-.624.446-1.18.987-1.8,1.447a4.852,4.852,0,0,1-.957.476c-.2.087-.412.138-.617.21q-.977.34-1.952.686a3.481,3.481,0,0,0-.454.19c-.338.178-.665.381-1.007.55-.687.338-1.375.679-2.078.982a5.487,5.487,0,0,1-1,.265c-.461.1-.924.2-1.39.276a7.781,7.781,0,0,0-1.565.451,5.747,5.747,0,0,1-1.361.163c-.271.031-.541.07-.812.11-.181.027-.361.071-.542.091-.728.08-1.455.176-2.185.217a4.93,4.93,0,0,1-.917-.133c-.269-.037-.539-.061-.809-.093a1.493,1.493,0,0,1-.322-.049,5.675,5.675,0,0,0-1.506-.253c-.289-.022-.573-.106-.863-.142-.365-.046-.732-.072-.954-.093l-.955.3c-.76-.223-1.4-.429-2.055-.6a2.355,2.355,0,0,0-.716-.021,2.455,2.455,0,0,1-.963-.178c-.414-.142-.836-.259-1.259-.371a6.119,6.119,0,0,0-.847-.156,11.147,11.147,0,0,1-1.4-.122,15.324,15.324,0,0,1-2.766-.839c-.216-.09-.421-.208-.634-.307-.805-.373-1.684-.532-2.509-.853a2.471,2.471,0,0,0-.818-.049c-.364-.006-.727,0-1.122,0l-.338-.742A9.879,9.879,0,0,1,14.1,86.143a21.057,21.057,0,0,1-1.771-1.179c-.564-.349-1.068-.785-1.637-1.108a15.831,15.831,0,0,1-2.057-1.819,1.924,1.924,0,0,1-.421-.57c-.582-1.055-1.387-1.96-2-2.991-.42-.7-.808-1.426-1.212-2.14-.366-.647-.742-1.288-1.1-1.942a5.716,5.716,0,0,1-.4-.9,4.988,4.988,0,0,0-.474-1.157.8.8,0,0,1-.057-.545l-.662-.651c-.013-.013-.034-.023-.038-.039-.162-.538-.634-.946-.661-1.535a7.125,7.125,0,0,0-.412-1.64c-.041-.142-.185-.255-.316-.426l.121-.476c-.077-.191-.165-.429-.266-.661a8.092,8.092,0,0,1-.693-1.591,1.357,1.357,0,0,1-.041-.435c.056-.415.134-.827.207-1.239.071-.4.137-.792.224-1.184.074-.333.174-.66.274-.986.1-.478.209-.955.311-1.434.034-.159.054-.322.087-.481a1.441,1.441,0,0,1,.107-.421,6.479,6.479,0,0,0,.792-2.7,1.51,1.51,0,0,1,.538-.935c-.125-.805.372-1.434.6-2.135A16.961,16.961,0,0,1,4.592,50.3a2.032,2.032,0,0,1,.429-.5A14.52,14.52,0,0,0,6.2,48.231c.035-.043.076-.082.106-.127.355-.53.714-1.059,1.061-1.595a4.457,4.457,0,0,0,.236-.477A6.016,6.016,0,0,0,9,44.389a1.865,1.865,0,0,1,1.3-.929c-.01-.588.6-.769.845-1.243a2.377,2.377,0,0,0,1.193-.386c.645-.382,1.284-.783,1.96-1.1.791-.376,1.473-.922,2.24-1.331.24-.128.508-.2.752-.322.474-.235.936-.5,1.412-.726a2.256,2.256,0,0,1,.712-.245,4.489,4.489,0,0,0,1.769-.531c.25-.141.539-.21.8-.325s.523-.249.783-.375c.066-.032.13-.068.2-.1L24.583,36a9.511,9.511,0,0,0,2.1-.322,2.071,2.071,0,0,0,.478-.086l1.836-.663c0-.029,0-.057,0-.086a4.379,4.379,0,0,0,.8.125,10.882,10.882,0,0,0,1.136-.134,3.507,3.507,0,0,1,.43-.063,9.259,9.259,0,0,0,2.225-.214,1.157,1.157,0,0,1,.5,0,1.133,1.133,0,0,0,1.013-.268.843.843,0,0,1,.2-.081l1.125.4a12.7,12.7,0,0,1,1.644-.157,3.183,3.183,0,0,1,1.522.361,4.232,4.232,0,0,0,1.1.465,2.914,2.914,0,0,0,1.042.016.515.515,0,0,1,.548.236,4.108,4.108,0,0,0,.971,1.032,1.428,1.428,0,0,0,.91.3,5.333,5.333,0,0,1,1.778.267,1.88,1.88,0,0,0,.738.088.73.73,0,0,1,.459.127,3.385,3.385,0,0,0,1.044.432c.254.064.468.279.721.365.547.188,1.107.338,1.663.5.14.041.283.075.425.109a1.509,1.509,0,0,1,1.136.761,1.277,1.277,0,0,0,.47.459c.444.277.91.521,1.367.777.175.1.353.193.578.316a.948.948,0,0,1,.89.413c.106.142.387.155.594.228.494.588,1,1.188,1.5,1.792.117.141.21.3.336.434a5.493,5.493,0,0,0,.911.941A3.267,3.267,0,0,1,59.9,46.464a8.314,8.314,0,0,0,1.18,1.768c.195.261.366.539.548.81.458.682.926,1.357,1.372,2.047a4.6,4.6,0,0,1,.8,2.346,7.608,7.608,0,0,0,.119,1.086c.156.841.335,1.678.5,2.512l.237-.291a1.4,1.4,0,0,1,1.383.28,1.87,1.87,0,0,1,.449-.093,7.437,7.437,0,0,1,1.916.086c.073.023.171-.052.259-.057a1.464,1.464,0,0,1,.487.007,1.812,1.812,0,0,0,.92.012,1.849,1.849,0,0,1,.643.017,1.467,1.467,0,0,0,1.271-.23,6.957,6.957,0,0,0-.5-1.414,1.447,1.447,0,0,1-.069-.553l.3-.2a2.562,2.562,0,0,0,1.628.035,11.77,11.77,0,0,1,1.267-.242c.088-.282.191-.552.256-.832a1.716,1.716,0,0,1,1.286-1.5,1.742,1.742,0,0,1,1.383,1.408l.479.425c.627.085,1.273.184,1.923.253a2.727,2.727,0,0,0,.595-.07.853.853,0,0,1,.326-.025,4.2,4.2,0,0,0,2.368-.188c.228-.057.447-.15.669-.228a4.625,4.625,0,0,1,1.166-.28c.634-.052,1.26-.2,1.89-.3a1.508,1.508,0,0,1,.165-.01c.788-.037,1.58-.041,2.364-.122.708-.073,1.41-.221,2.11-.356.41-.079.813-.2,1.22-.3a.983.983,0,0,1,.919.234c.726-.2,1.313-.8,2.163-.651a6.416,6.416,0,0,1,1.82,1.118l.352,1.144c-.015.211-.041.447-.046.683a1.494,1.494,0,0,1-1.145,1.467c-.38.121-.742.3-1.086.436M64.1,59.511a10.873,10.873,0,0,1-.51-1.339,6.206,6.206,0,0,1-.167-1.466,2.148,2.148,0,0,0-.119-.842,9.038,9.038,0,0,1-.475-2.628,3.956,3.956,0,0,0-.68-1.813c-.216-.319-.409-.652-.634-.964-.479-.668-.952-1.342-1.468-1.98a7.314,7.314,0,0,1-.688-.986c-.261-.459-.547-.907-.846-1.343a8.954,8.954,0,0,0-1.037-1.208,10.952,10.952,0,0,1-1.065-1.389,5.245,5.245,0,0,0-1.252-1.065c-.079-.059-.207-.051-.312-.077a1.433,1.433,0,0,1-.9-.551A2.119,2.119,0,0,0,53,41.15a3.829,3.829,0,0,1-1-.625,3.942,3.942,0,0,0-.771-.511,5.914,5.914,0,0,0-1.052-.278,4.964,4.964,0,0,1-1.835-.819,14.393,14.393,0,0,0-2.522-1.028.551.551,0,0,0-.164-.016c-.345-.037-.691-.06-1.032-.116a1.708,1.708,0,0,0-.919,0,1.027,1.027,0,0,1-.335.006c-.106-.114-.2-.224-.3-.327a3.2,3.2,0,0,0-1.124-.862,2.944,2.944,0,0,1-1.084-.48.378.378,0,0,0-.21-.059,7.618,7.618,0,0,1-1.767-.375c-.311-.1-.622-.21-.936-.3a1.021,1.021,0,0,0-.423-.061c-.559.089-1.112.212-1.671.3a2.3,2.3,0,0,1-.636-.015,3.871,3.871,0,0,0-.583-.132,15.244,15.244,0,0,0-2.972.1,4.313,4.313,0,0,1-.645.11c-.568.043-1.138.062-1.706.106a1.588,1.588,0,0,0-.583.127,8.729,8.729,0,0,1-2.3.662c-.447.089-.893.177-1.339.274a22.556,22.556,0,0,0-2.611.959,1.789,1.789,0,0,0-.535.376c-.219.192-.418.406-.6.59a6,6,0,0,0-2.527.606c-.935.455-1.859.932-2.776,1.422a10.815,10.815,0,0,0-1.011.663c-.376.259-.74.537-1.12.792-.454.3-.919.591-1.354.868-.021.229-.037.41-.053.577a2.071,2.071,0,0,1-1.428.51c-.159.107-.317.2-.462.313a12.387,12.387,0,0,0-2.308,2.36,9.645,9.645,0,0,0-.958,1.408,4.754,4.754,0,0,1-.643.813A13.567,13.567,0,0,0,5.662,50.3a4.867,4.867,0,0,1-.676.922.7.7,0,0,0-.094.136,21.99,21.99,0,0,0-1.3,2.09,2.867,2.867,0,0,0-.524,1.959c.015.062-.04.138-.052.21a13.346,13.346,0,0,1-.868,2.529A1.564,1.564,0,0,0,2,58.557c-.051.6-.074,1.208-.121,1.811a2.076,2.076,0,0,1-.118.526c-.233.652-.5,1.293-.71,1.952a2.437,2.437,0,0,0-.13,1.017,11.236,11.236,0,0,0,.8,2.764,3.682,3.682,0,0,1,.4,1.415,3.334,3.334,0,0,0,.2.9c.125.435.271.864.389,1.239.184.231.326.423.484.6a2.962,2.962,0,0,0,.432.424c.528.391,1.089.741,1.6,1.155q1.088.883,2.118,1.836a10.494,10.494,0,0,0,2.15,1.7c.611.324,1.225.647,1.856.928.579.258,1.181.467,1.78.681a3.823,3.823,0,0,0,.84.223,3.544,3.544,0,0,1,1.279.434,14.375,14.375,0,0,0,1.777.653,7.774,7.774,0,0,1,.965.336,9.143,9.143,0,0,0,1.121.553,15.345,15.345,0,0,0,1.628.466,10.87,10.87,0,0,0,1.294.22c.4.046.8.038,1.2.07a1.128,1.128,0,0,1,.423.109,3,3,0,0,0,1.272.308c.312.091.632.135.946.206a6.158,6.158,0,0,0,2.619-.107c.352-.071.7-.175,1.051-.244.23-.045.467-.057.8-.095a1.776,1.776,0,0,0,1.243-.021.59.59,0,0,1,.272,0,2.049,2.049,0,0,0,1.065-.189c.162-.076.357-.08.524-.148.448-.184.976-.168,1.313-.53a3.747,3.747,0,0,0,.718.154c.45.006.9-.061,1.352-.054a1.943,1.943,0,0,0,1.106-.248.469.469,0,0,1,.252-.085,1.537,1.537,0,0,0,.874-.279,2.069,2.069,0,0,1,.512-.171,14.771,14.771,0,0,0,2.433-.782c.164-.075.323-.157.395-.192l1.938.423a1.275,1.275,0,0,1,.989-.029.789.789,0,0,0,.273.026,11.04,11.04,0,0,1,1.626,0,.927.927,0,0,0,.273-.024c.5-.077,1.008-.156,1.54-.238a2.1,2.1,0,0,0,.207-.128,4.29,4.29,0,0,1,1.274-.727,8.089,8.089,0,0,0,1.464-.594,33.86,33.86,0,0,0,2.905-1.755c.747-.522,1.459-1.1,2.252-1.553A5.661,5.661,0,0,0,58.5,72.59a4.7,4.7,0,0,1,.8-.563,4.465,4.465,0,0,0,.858-.583,17.708,17.708,0,0,0,1.176-1.512c.3-.413.548-.866.865-1.266a4.261,4.261,0,0,0,.878-1.9c.125-.658.371-1.293.559-1.939a1.371,1.371,0,0,0,.051-.323,17.2,17.2,0,0,1,.1-2.415c.084-.464.07-.945.125-1.416.046-.4.127-.79.187-1.159m-1.114,9.478a9.082,9.082,0,0,0-1.326,1.87,3.865,3.865,0,0,1-.554.745A23.87,23.87,0,0,1,58.1,73.9c-.57.421-1.219.733-1.813,1.123-.841.552-1.665,1.13-2.5,1.7-.076.051-.161.089-.242.133-.735.4-1.467.814-2.207,1.211a11.219,11.219,0,0,1-3.131,1.275,3.535,3.535,0,0,1-2.15.093.455.455,0,0,0-.164-.007c-.608-.007-1.217,0-1.825-.024-.291-.01-.579-.076-.869-.091A7.393,7.393,0,0,0,42,79.3a10.412,10.412,0,0,0-2.257.663c-.36.127-.706.3-1.053.462a3.59,3.59,0,0,1-1.958.387,5.254,5.254,0,0,0-1.721.116,10.438,10.438,0,0,1-1.177.24c-.606.041-1.168.269-1.762.345-.233.03-.465.069-.7.089a7.818,7.818,0,0,0-2.4.22,3.686,3.686,0,0,1-.842.221c-.453.065-.911.093-1.368.13a1.023,1.023,0,0,1-.214-.04c-.162-.024-.323-.047-.486-.066-.344-.04-.694-.051-1.032-.121a5.423,5.423,0,0,0-1.817-.329.429.429,0,0,1-.254-.084,1.63,1.63,0,0,0-1.108-.238c-.754.093-1.4-.474-2.158-.348-.112.018-.242-.073-.363-.114-.017-.006-.031-.02-.048-.027-.569-.247-1.149-.469-1.7-.744a3.207,3.207,0,0,0-1.891-.434.789.789,0,0,1-.211-.014c-.718-.649-1.66-.759-2.394-1.306h-.671c-.586-.4-1.283-.486-1.85-.879a5.912,5.912,0,0,0-1.057-.411,10.936,10.936,0,0,1-3.126-2.364c-.54-.513-1.061-1.045-1.6-1.563-.043-.041-.124-.043-.23-.077.008.114-.012.2.022.246a1.441,1.441,0,0,1,.324.8c.006.1.106.187.159.283a4.048,4.048,0,0,1,.2.383c.1.251.176.519.3.76.214.423.464.828.686,1.248A29.543,29.543,0,0,0,8.833,80.9,16.163,16.163,0,0,0,10.8,82.888c.375.346.818.617,1.225.93A5.888,5.888,0,0,0,13.6,84.7a4.877,4.877,0,0,1,1.208.614,5.858,5.858,0,0,0,1.693.993,7.51,7.51,0,0,0,2.215.522,1.5,1.5,0,0,1,.416.106q.389.122.774.255c.224.077.447.154.666.241a21.828,21.828,0,0,0,2.549,1.112,13.62,13.62,0,0,0,2.324.59c.859.069,1.689.294,2.544.375a2.933,2.933,0,0,1,.867.119,3.794,3.794,0,0,0,1.516.189,1.364,1.364,0,0,1,.381.041,15.055,15.055,0,0,1,2.174.495.683.683,0,0,0,.219.017c.419.038.838.073,1.257.12a3.989,3.989,0,0,0,.482.1,5.262,5.262,0,0,1,1.879.331,2.7,2.7,0,0,0,1.2.1c1.037-.1,2.077-.191,3.111-.319a14.271,14.271,0,0,0,1.823-.339,5.014,5.014,0,0,0,.923-.448,1.44,1.44,0,0,0,1.026.033A10.26,10.26,0,0,1,45.9,89.7a7.058,7.058,0,0,0,.928-.3c.385-.16.754-.358,1.132-.536.543-.257,1.086-.514,1.631-.764a9.209,9.209,0,0,1,.9-.385,11.23,11.23,0,0,0,3.088-1.332,4.07,4.07,0,0,0,.98-.852,5.782,5.782,0,0,1,.493-.64c.742-.783,1.508-1.545,2.224-2.352a13.3,13.3,0,0,0,.933-1.335c.021-.03.031-.067.05-.1q.259-.416.52-.831a3.921,3.921,0,0,0,.23-.372c.377-.787.734-1.583,1.124-2.363.432-.863.943-1.69,1.327-2.573.442-1.015.755-2.086,1.179-3.109a8.787,8.787,0,0,0,.487-2.238.659.659,0,0,0-.134-.632m29.6-15.842a12.217,12.217,0,0,1-2.342.449c-.666.089-1.337.145-2.006.216-.381.04-.763.112-1.144.114a4.686,4.686,0,0,0-2.143.564,1.811,1.811,0,0,1-.893.223,2.46,2.46,0,0,0-1.348.181c-.1.057-.253.023-.38.037-.236.026-.471.066-.708.084q-.961.072-1.922.128c-.253.014-.506.007-.759.008-.269,0-.538,0-.866,0,.041.288.1.551.11.816.02.381-.023.766.018,1.144a8.592,8.592,0,0,1,.208,2.271,1.791,1.791,0,0,0,.5.082c.592-.084,1.179-.2,1.769-.3a.388.388,0,0,0,.051-.018,1.136,1.136,0,0,1,1,.028.989.989,0,0,0,.425.072,13.315,13.315,0,0,0,3.089-.4,7.165,7.165,0,0,0,1.37-.533,4.178,4.178,0,0,1,.709-.277.88.88,0,0,0,.67-.415c.462-.054.883-.079,1.293-.159a7.706,7.706,0,0,0,1.31-.353,5.825,5.825,0,0,1,1.21-.313,6.693,6.693,0,0,0,1.071-.355,4.623,4.623,0,0,0,.151-.73,15.715,15.715,0,0,0,0-1.6c-.022-.352-.034-.741-.44-.964m-27.128,6.21c.372,0,.743.026,1.109-.006.574-.05,1.143-.168,1.717-.2a7.709,7.709,0,0,0,1.123-.2,8.615,8.615,0,0,1,2.213-.381,1.128,1.128,0,0,0,.986-.412h.607l.328.571a1.361,1.361,0,0,0-.156,1.209,4.233,4.233,0,0,0,1.7.005,3.843,3.843,0,0,1-.313-1.6c-.094-.979-.167-1.96-.247-2.925l-.752-.162-.979.387c-.134.661.222,1.2.276,1.847l-.861.438-.211-.238-.513.121a10.414,10.414,0,0,0-2.167-.088,11.363,11.363,0,0,0-2.177.068A21.317,21.317,0,0,1,64.978,58l-.568-.327.563,2,.491-.326m11.771,1.42a2.307,2.307,0,0,0,.293-1.21c-.031-1.1-.087-2.192-.146-3.287a4.553,4.553,0,0,0-.133-1.085,14.306,14.306,0,0,0-.612-1.521,2.853,2.853,0,0,0-.316-.451l-.682.831c.037.191.077.4.1.512a3.536,3.536,0,0,1-.214.822c-.154.273.025.5.027.743.007.84.05,1.68.114,2.518a2.326,2.326,0,0,0,.231.943,11.988,11.988,0,0,0,.871,1.209l.47-.024M94.84,54.269c-.2.26-.485.446-.465.818l.275.527a1.918,1.918,0,0,0,1.392.08,1.665,1.665,0,0,0,1.087-.727v-.89a1.749,1.749,0,0,0-2.16-1.221,1.135,1.135,0,0,0-.494.991l.364.422M48.917,13.525l-.088-.3a3.655,3.655,0,0,1,.181-.414,2.289,2.289,0,0,0,.3-1.038,2.977,2.977,0,0,1,.385-1.467.715.715,0,0,0,.141-.352,2.635,2.635,0,0,1,.384-1.075,13.155,13.155,0,0,0,1.2-2.389c.015-.066.088-.118.12-.182.1-.207.2-.417.3-.637L51.389,5.3,51,5.462c-.219.438-.443.835-.619,1.251-.389.921-.71,1.873-1.141,2.774a14.865,14.865,0,0,0-.926,2.9c-.153.614-.163,1.261-.27,1.888a8.266,8.266,0,0,0-.2,1.683,2.262,2.262,0,0,1-.043.491,4.466,4.466,0,0,0,.253,2.576,14.247,14.247,0,0,0,1.193,2.452,2.387,2.387,0,0,0,.745.78,3.819,3.819,0,0,1,.56.335c.524.462,1.042.933,1.541,1.423a3.407,3.407,0,0,1,1,3.2,7.489,7.489,0,0,1-.248,1.171c-.223.648-.351,1.326-.553,1.982-.149.487-.341.962-.533,1.434a5.477,5.477,0,0,1-1.323,2.29c-.034.029-.029.1-.036.128l.45.7a1.749,1.749,0,0,0,.45-.535c.254-.541.528-1.073.766-1.621.151-.348.238-.723.378-1.076.155-.39.344-.767.508-1.153a.7.7,0,0,0,.088-.363,2.182,2.182,0,0,1,.518-1.5,3.2,3.2,0,0,0,.465-1.373,7.127,7.127,0,0,0-.586-3.256,2.168,2.168,0,0,0-.755-.927c-.479-.336-.916-.733-1.371-1.1-.408-.334-.827-.658-1.219-1.01a2.068,2.068,0,0,1-.653-.737,7.643,7.643,0,0,1-.843-2.629.741.741,0,0,0-.092-.255,1.685,1.685,0,0,0,.05-1.025,1.056,1.056,0,0,1,.122-1.215.746.746,0,0,0,.061-.167l-.213-.3.387-1.149m-19-4.4a16.052,16.052,0,0,1,.093-2.748,9.562,9.562,0,0,1,.329-1.718,1,1,0,0,0,.107-.42,4.027,4.027,0,0,1,.283-1.376,5.157,5.157,0,0,1,.774-1.677C31.8.746,31.76.446,31.379,0a.637.637,0,0,0-.652.4,13.427,13.427,0,0,0-.7,1.935,11.692,11.692,0,0,0-.486,2.287c-.024.807-.4,1.56-.4,2.4a21.726,21.726,0,0,0,.111,2.686,7.823,7.823,0,0,0,.143.858,5.257,5.257,0,0,0,1.488,2.639,8.773,8.773,0,0,1,1.242,1.472c.478.71.965,1.414,1.414,2.143A18.418,18.418,0,0,1,34.922,20.2a4.281,4.281,0,0,1,.314,1.712,7.748,7.748,0,0,0,.139,1.249A17.7,17.7,0,0,1,34.094,28.2l.495.326a3.858,3.858,0,0,0,.848-1.632c.085-.371.054-.769.15-1.136.133-.507.335-1,.509-1.493a1.3,1.3,0,0,0,.051-.85,1.226,1.226,0,0,1-.116-.843,3.162,3.162,0,0,0-.109-1.777,12.418,12.418,0,0,1-.375-1.745.907.907,0,0,0-.188-.553,3.348,3.348,0,0,1-.659-1.251,15.414,15.414,0,0,0-.682-1.6,3.72,3.72,0,0,0-1.21-1.518,2.6,2.6,0,0,1-.415-.441c-.146-.164-.283-.336-.43-.5-.468-.516-.946-1.025-1.405-1.549a1.031,1.031,0,0,1-.21-.437c-.069-.3-.1-.61-.174-1.069a2.43,2.43,0,0,1-.251-1.006M6.763,4.563c-.063.129-.074.283-.134.415-.262.579-.528,1.156-.8,1.729a3.416,3.416,0,0,0-.291,1.436,13.949,13.949,0,0,1-.1,2.645.753.753,0,0,0,.007.275c.1.629.2,1.262.326,1.885a2.632,2.632,0,0,0,.321.918,6.879,6.879,0,0,0,2.167,2.069c.793.481,1.621.9,2.429,1.358a3.021,3.021,0,0,1,1.066,1.011,3.262,3.262,0,0,1,.563,1.58c.035.545.14,1.086.2,1.63a3.44,3.44,0,0,1-.029.492,10.2,10.2,0,0,0-.034,1.364,10.064,10.064,0,0,1,.178,1.685c-.026.365-.1.729-.1,1.093a7.159,7.159,0,0,1-.208,1.8,1.234,1.234,0,0,0,.391,1.088c.381-.192.234-.463.161-.737a.656.656,0,0,0,.183-.745,2.264,2.264,0,0,1,.075-1.193c.1-.351.225-.7.356-1.1l-.432-.917c.027-.172.077-.421.1-.673a1.5,1.5,0,0,0,0-.546c-.111-.389.175-.839-.191-1.183-.009-.009,0-.036,0-.1l.135-.365a1.934,1.934,0,0,1-.011-.695c.042-.25.12-.493.2-.8-.074-.126-.183-.293-.274-.469-.1-.193-.268-.4-.255-.591a3.1,3.1,0,0,0-.287-1.163,1.405,1.405,0,0,0-.86-.913,15.056,15.056,0,0,1-4.244-2.571,1.608,1.608,0,0,1-.382-.463,4.414,4.414,0,0,1-.549-1.924c0-1.12.054-2.24.107-3.359.018-.379.1-.755.155-1.132a18.313,18.313,0,0,1,.7-2c.069-.258.123-.52.182-.77L7.066,4.1a4.521,4.521,0,0,0-.3.459" transform="translate(0 -0.001)"/>
      </g>
    </g>
    <rect id="Rectangle_147" data-name="Rectangle 147" class="cls-1" width="128" height="145" transform="translate(619 418)"/>
  </g>
</svg>
