<svg xmlns="http://www.w3.org/2000/svg" xmlns:xlink="http://www.w3.org/1999/xlink" width="146" height="167" viewBox="0 0 146 167">
  <defs>
    <style>
      .cls-1 {
        fill: #e6e6e6;
      }

      .cls-2 {
        clip-path: url(#clip-path);
      }

      .cls-3 {
        fill: none;
      }
    </style>
    <clipPath id="clip-path">
      <rect id="Rectangle_78" data-name="Rectangle 78" class="cls-1" width="98.606" height="129.981"/>
    </clipPath>
  </defs>
  <g id="Group_297" data-name="Group 297" transform="translate(-34 -740)">
    <g id="Group_155" data-name="Group 155" transform="translate(42.833 763)">
      <g id="Group_154" data-name="Group 154" class="cls-2">
        <path id="Path_117" data-name="Path 117" class="cls-1" d="M2.577,47.384,3,47.067c-.014-.091.006-.215-.048-.278-.433-.514-.866-1.029-1.325-1.519A4.35,4.35,0,0,1,.445,42.7a5.763,5.763,0,0,1-.032-1.369A3.222,3.222,0,0,0,.153,39.91a1.922,1.922,0,0,1-.071-1.3,5.034,5.034,0,0,0,.229-1.384,4.746,4.746,0,0,1,.247-1.212c.181-.611.429-1.2.594-1.819a2.892,2.892,0,0,0,.013-.89c-.008-.142-.094-.279-.115-.422a4.348,4.348,0,0,1-.005-.538c.323-.271.688-.564,1.036-.875a9.654,9.654,0,0,0,.8-.788c.609-.687,1.2-1.388,1.8-2.087a.9.9,0,0,0,.185-.319,7.887,7.887,0,0,1,.88-1.775,7.537,7.537,0,0,1,2.066-2.312q1.525-1.117,3.046-2.24a1.093,1.093,0,0,0,.266-.263c.737-1.113,1.977-1.5,3.052-2.118.254-.147.5-.312.756-.449.474-.25.96-.48,1.435-.73a4.288,4.288,0,0,0,.557-.359c.259-.193.506-.4.759-.6a3.371,3.371,0,0,0,1.928-.476c.731-.338,1.474-.652,2.224-.946a6.4,6.4,0,0,1,.795-.148c.951-.235,1.873-.55,2.8-.876,1.1-.386,2.141-.854,3.188-1.337a3.759,3.759,0,0,1,1.132-.282,21.536,21.536,0,0,0,2.931-.394,1.534,1.534,0,0,1,.295-.039c.863-.052,1.735-.042,2.588-.164,1.991-.283,3.99-.033,6.083-.171a8.347,8.347,0,0,0,.746-.556,4.939,4.939,0,0,0,1.068-2.673c.007-.165.042-.327.059-.492a13.923,13.923,0,0,0,.359-1.729,2.21,2.21,0,0,1,.287-.753,7.3,7.3,0,0,0,.414-1.016,11.445,11.445,0,0,1,1.649-3.513c.224-.346.387-.731.616-1.073a8.873,8.873,0,0,1,.626-.761,1.6,1.6,0,0,1,1.465.528,3.161,3.161,0,0,0,1.06.8c.422.15.425.574.555.858-.14.71-.265,1.383-.407,2.053-.107.5-.218,1.016-.348,1.506-.234.878-.313,1.781-.541,2.656-.191.733-.3,1.487-.462,2.229-.046.215-.152.417-.2.631-.054.231-.073.47-.1.68a3.235,3.235,0,0,0,2.748-.4,8.941,8.941,0,0,0,2.877.308c1.026.01,2.053.024,3.078-.007a5,5,0,0,1,1.541.2,2.864,2.864,0,0,0,1.39.03,1.92,1.92,0,0,1,.8.024,4.791,4.791,0,0,0,1.459.214,1.7,1.7,0,0,1,.574.109q1.583.478,3.161.969A14.537,14.537,0,0,1,69.108,14.8c.531.309,1.122.512,1.667.8A31.533,31.533,0,0,1,73.69,17.21,9.559,9.559,0,0,0,76.182,18.3,6.851,6.851,0,0,1,78,19.234q.516.354,1.027.715c.3.213.6.421.895.648a11.256,11.256,0,0,1,1.708,1.163c.245.275.609.457.809.755a9.544,9.544,0,0,0,1.779,1.692c.629.56,1.31,1.063,1.984,1.571.829.624,1.677,1.223,2.51,1.843a2.109,2.109,0,0,1,.476.46c.5.709.962,1.441,1.462,2.148A7.411,7.411,0,0,0,92.4,32.035,6.359,6.359,0,0,1,94.114,33.9c.372.608.72,1.232,1.085,1.844.088.147.209.274.3.417a5.6,5.6,0,0,1,.474.743,22.636,22.636,0,0,0,1.607,2.831c.2.311.455.588.736.946.022.1.062.3.105.49a2.744,2.744,0,0,1,.106,1.507c-.146.479-.027,1.024-.166,1.541a3.181,3.181,0,0,1-.606,1.394,4.558,4.558,0,0,0-.72,1.112,1.633,1.633,0,0,1-.662.771,1.44,1.44,0,0,0-.346.281c-.564.656-1.149,1.3-1.667,1.99a4.586,4.586,0,0,1-1.091,1.086c-.811.554-1.568,1.186-2.38,1.739-.71.484-1.454.919-2.2,1.347a1.628,1.628,0,0,1-.823.27,5.808,5.808,0,0,0-1.429.35,11.6,11.6,0,0,1-1.741.264,10.374,10.374,0,0,0-3.5.722,10.156,10.156,0,0,0-.719,3.03,1.413,1.413,0,0,1-.056.288,8.482,8.482,0,0,0-.393,2.618,17.659,17.659,0,0,1-.018,2.25,22.784,22.784,0,0,1-.258,2.729,1.722,1.722,0,0,0-.022.448,9.047,9.047,0,0,1-.285,2.336,2.291,2.291,0,0,0-.016.524c0,.851-.007,1.7,0,2.554,0,.332.063.664.064,1s-.048.64-.066.96a10.142,10.142,0,0,0,.246,1.974,9.253,9.253,0,0,1,.021,1.867c-.034.484-.2.957-.26,1.44-.079.686-.106,1.378-.161,2.067a2.222,2.222,0,0,1-.074.51c-.346,1.071-.7,2.137-1.056,3.2-.008.024-.036.045-.034.065.087.875-.477,1.6-.576,2.409-.069.563-.383,1.147-.044,1.712-.262.74-.514,1.455-.768,2.169a.831.831,0,0,1-.123.268,6.307,6.307,0,0,0-1.066,2.72,12.372,12.372,0,0,0-.478,3.657,6.718,6.718,0,0,1-.451,2.224c-.316,1-.682,1.992-.985,3-.292.973-.8,1.851-1.174,2.785-.155.384-.316.759-.439,1.16a10.327,10.327,0,0,1-1.51,2.772,6.01,6.01,0,0,0-1.173,2.03c-.454.049-.7.407-.963.73-.346.42-.654.876-1.035,1.262a3.5,3.5,0,0,1-.86.458,9.971,9.971,0,0,1-1.79,2.233,3.131,3.131,0,0,0-.285.343,8.011,8.011,0,0,1-1.087,1.2c-.358.293-.6.721-.937,1.048-.694.678-1.438,1.307-2.119,2-.644.654-1.233,1.362-1.92,1.956a6.2,6.2,0,0,0-.753.41,17,17,0,0,1-3.91,2.045c-.474.185-1,.223-1.488.384a3.86,3.86,0,0,0-1.787,1.147,3.363,3.363,0,0,1-2.429,1.074,5.544,5.544,0,0,0-2.174.843c-.116.065-.176.23-.261.346a4.981,4.981,0,0,0-1.4.136,1.059,1.059,0,0,1-1.053-.216c-.362-.3-.733-.6-1.073-.926-.6-.572-1.164-1.172-1.758-1.745-.249-.24-.543-.434-.8-.665-.538-.476-1.1-.93-1.592-1.454a9.705,9.705,0,0,0-2.2-1.611,21.269,21.269,0,0,1-2.114-1.375,11.8,11.8,0,0,1-1.15-1.257,14.741,14.741,0,0,0-2.433-2.05c-1.163-.787-2.264-1.67-3.355-2.558-1.114-.907-2.176-1.88-3.277-2.8-.606-.508-1.251-.97-1.87-1.464a5.07,5.07,0,0,1-.336-.389c-.3-.294-.6-.581-.91-.867a2.445,2.445,0,0,1-.915-1.131,1.382,1.382,0,0,0-.585-.745,4.77,4.77,0,0,1-1.209-1.282,4.9,4.9,0,0,0-1.681-1.417,3.372,3.372,0,0,1-1.407-1.232c-.454-.671-.966-1.3-1.417-1.975-.439-.654-.84-1.335-1.244-2.012a6.924,6.924,0,0,1-.633-1.538c-.417-1.354-.937-2.678-1.237-4.064-.281-1.3-.684-2.555-1.013-3.836a.246.246,0,0,1-.008-.075,11.338,11.338,0,0,0-.8-3.35,17.467,17.467,0,0,1-.729-2.768,8.579,8.579,0,0,0-.412-1.551c-.253-.892-.414-1.81-.615-2.717-.144-.646-.3-1.289-.432-1.936a4.659,4.659,0,0,1-.02-.523c-.048-.542-.1-1.085-.16-1.626a6.078,6.078,0,0,1-.13-.791,4.926,4.926,0,0,0-.269-1.822.531.531,0,0,1-.035-.142c-.053-.69-.1-1.381-.158-2.071a4.665,4.665,0,0,0-.171-1.165A3.438,3.438,0,0,1,4.8,69.6c-.01-.526.03-1.054-.01-1.576-.067-.885-.215-1.766-.266-2.652a9.023,9.023,0,0,1-.065-3.175,2.2,2.2,0,0,0-.007-.945,26.1,26.1,0,0,1-.278-2.955,13.908,13.908,0,0,0-.436-2.458A6.545,6.545,0,0,1,3.6,54.21a8.044,8.044,0,0,0-.282-2.721.717.717,0,0,1-.017-.3,5.166,5.166,0,0,0-.357-2.178c-.111-.34-.033-.74-.351-1.035-.1-.09-.015-.376-.015-.595M1.966,33.141a2.842,2.842,0,0,1,.006,1.676,11.638,11.638,0,0,0-.7,2.32,3,3,0,0,1-.112.8,4.248,4.248,0,0,0-.071,2.269c.154.819.232,1.653.425,2.462a4.939,4.939,0,0,0,.564,1.511,6.651,6.651,0,0,0,1.11,1.107c.269.256.558.492.82.755a3.481,3.481,0,0,0,1.328,1.006,4.64,4.64,0,0,1,1.691,1c.436.39,1,.633,1.466.995A7.038,7.038,0,0,0,10.57,50.3a.823.823,0,0,1,.261.135c.632.517,1.489.639,2.1,1.193.034.03.093.032.138.051.548.225,1.083.489,1.646.667a6.6,6.6,0,0,0,2.36.539,3.055,3.055,0,0,1,1.455.224,1.712,1.712,0,0,0,.51.07,7.755,7.755,0,0,0,1.983-.221,4.635,4.635,0,0,1,2.34.174,8.829,8.829,0,0,0,3.839.651,3.421,3.421,0,0,1,.675,0,8.277,8.277,0,0,1,1.311.186c.731.2,1.437.493,2.168.693A6.8,6.8,0,0,0,33.392,55a4.369,4.369,0,0,1,.956.126c.483.094.959.216,1.441.313.722.145,1.448.272,2.169.421a12.572,12.572,0,0,0,1.432.32c.816.069,1.634.054,2.456.134,1.282.125,2.583-.02,3.874.167a3.44,3.44,0,0,0,1.74.016.437.437,0,0,1,.223,0c.434.085.866.185,1.3.259a1.97,1.97,0,0,0,.517,0c.293-.028.583-.1.876-.108.7-.027,1.4-.008,2.1-.058a2.864,2.864,0,0,1,.566,0,3.055,3.055,0,0,0,1.248-.033,7.08,7.08,0,0,1,3.662-.234,1.813,1.813,0,0,0,.893-.008,17.983,17.983,0,0,0,2.367-.533,1.523,1.523,0,0,1,.442-.039c.292-.037.583-.084.875-.124.8-.109,1.606-.216,2.409-.325a4.681,4.681,0,0,0,1.3-.207c.778-.359,1.628-.109,2.4-.393,1.216.052,2.432.1,3.649.158a.863.863,0,0,1,.275.1,5.274,5.274,0,0,0,2.7.319,27.243,27.243,0,0,1,3.4-.264,8.338,8.338,0,0,0,3.356-.709,5.46,5.46,0,0,1,2.659-.51,5.137,5.137,0,0,0,2.536-.449c.429-.18.878-.311,1.309-.489a3.473,3.473,0,0,0,.711-.385c.777-.562,1.551-1.128,2.305-1.72a10.956,10.956,0,0,0,2.328-2.3,7.094,7.094,0,0,1,.757-.908,12.673,12.673,0,0,0,2.288-3.172,3.8,3.8,0,0,0,.013-3.351,6.055,6.055,0,0,0-.982-1.557,6.35,6.35,0,0,1-1-1.884,5.571,5.571,0,0,0-.659-1.14,2.465,2.465,0,0,1-.408-.617,6.585,6.585,0,0,0-1.951-2.46,6.41,6.41,0,0,1-.951-1.019,7.813,7.813,0,0,0-.987-1.1.62.62,0,0,1-.133-.18,1.9,1.9,0,0,0-.915-1.023,1.111,1.111,0,0,0-.515-.808c-.12-.087-.282-.151-.351-.268a2.818,2.818,0,0,0-1.693-1.219,1.221,1.221,0,0,1-.53-.376,6.511,6.511,0,0,0-.574-.836c-.405-.352-.915-.583-1.324-.933s-.753-.791-1.131-1.185c-.047-.048-.144-.042-.206-.081a3.252,3.252,0,0,1-.357-.261c-.264-.224-.521-.455-.856-.749a.9.9,0,0,0-.2-.355,12.56,12.56,0,0,0-2.018-1.5c-.528-.268-1-.62-1.52-.881a12.741,12.741,0,0,0-2.753-1.24,1.147,1.147,0,0,1-.608-.392,2.353,2.353,0,0,0-.823-.619,8.246,8.246,0,0,1-1.166-.659,7.738,7.738,0,0,0-2.536-1.161,4.817,4.817,0,0,1-1.562-.8,4.565,4.565,0,0,0-1.554-.831,2.372,2.372,0,0,1-.488-.166,2.675,2.675,0,0,0-1.217-.3,1.8,1.8,0,0,1-.833-.245,2.4,2.4,0,0,0-1.028-.351,6.1,6.1,0,0,1-1.289-.282,7.254,7.254,0,0,0-3.129-.31c-.659.368-1.324.033-1.959-.054a14.55,14.55,0,0,0-2.432-.252A3.015,3.015,0,0,1,53.1,12.8a1.5,1.5,0,0,0-.658.044,4.182,4.182,0,0,1-1.082.144.961.961,0,0,0-.632.108,5.255,5.255,0,0,1-2,.426c-.314.04-.63.072-1.03.117-.051-.018-.19-.064-.326-.116-.4-.15-.445-.227-.391-.71.052-.466.14-.931.151-1.4a2.865,2.865,0,0,1,.248-1.072,3.447,3.447,0,0,0,.21-.62c.164-.766.378-1.515.49-2.3.173-1.208.515-2.392.8-3.583a1.627,1.627,0,0,0-1.034-2.033,7.808,7.808,0,0,0-.409.681,13.807,13.807,0,0,0-1.437,2.8c-.075.334-.135.671-.212,1-.033.141-.09.277-.136.415-.107.326-.216.651-.318.979-.2.631-.437,1.253-.569,1.9a9.222,9.222,0,0,0-.352,1.81,1.454,1.454,0,0,1-.968,1.442,4.082,4.082,0,0,0-1.276.729,1.826,1.826,0,0,1-1.615.382,7.839,7.839,0,0,0-1.629-.12c-.815-.027-1.623.081-2.449.032-1.285-.076-2.584.067-3.876.12a1.075,1.075,0,0,0-.219.042,5.7,5.7,0,0,1-1.828.258,1.145,1.145,0,0,0-.445.025c-.579.208-1.151.435-1.724.658a4.512,4.512,0,0,1-.893.345,2.284,2.284,0,0,0-1,.438,3.482,3.482,0,0,1-1.857.657,7.762,7.762,0,0,0-1.867.4c-.844.264-1.666.6-2.5.9a6.575,6.575,0,0,1-1.324.449,2.663,2.663,0,0,0-1.207.519,28.751,28.751,0,0,1-2.613,1.542,17.34,17.34,0,0,0-2.465,1.5c-.695.553-1.335,1.18-2.059,1.705a13.3,13.3,0,0,1-1.735,1.288A6.433,6.433,0,0,0,6.159,27.72a8.609,8.609,0,0,1-1.143,2.05,9.151,9.151,0,0,0-1.071,1.239,2.622,2.622,0,0,1-.9.862,2.558,2.558,0,0,0-1.075,1.27m4.185,38.83a7.03,7.03,0,0,0,0,.75c.081.685.179,1.368.274,2.052.054.391.145.779.166,1.171.034.619.066,1.233.129,1.851a19.758,19.758,0,0,0,.488,2.825c.06.237.1.481.142.721.087.456.172.913.26,1.368.112.577.21,1.157.346,1.728A12.01,12.01,0,0,0,8.5,86.421a20.6,20.6,0,0,1,1.374,4.648c.262,1.527.738,3,1.028,4.51a16.623,16.623,0,0,0,1.048,3.138,17.875,17.875,0,0,0,1.843,3.823,16.193,16.193,0,0,0,2.792,2.875,14.41,14.41,0,0,1,2.392,2.393,1.665,1.665,0,0,0,1.188.817.632.632,0,0,1,.548.45,2.506,2.506,0,0,0,.72.934c.369.373.749.734,1.108,1.116a7.61,7.61,0,0,0,.564.687c.377.314.812.559,1.2.861a8.51,8.51,0,0,1,1.337,1.145,6.27,6.27,0,0,0,2.027,1.822,2.426,2.426,0,0,1,.377.238c.918.67,1.838,1.338,2.749,2.018.5.371.993.745,1.461,1.151.259.225.444.533.688.78.347.352.753.653,1.068,1.03a5.506,5.506,0,0,0,1.836,1.371,11.014,11.014,0,0,1,2.776,1.979c.411.393.8.806,1.21,1.2a5.484,5.484,0,0,0,.505.445,10.109,10.109,0,0,1,1.3,1.2c.4.438.832.852,1.263,1.264a.823.823,0,0,0,.746.264c.528-.11,1.055-.222,1.574-.367a6.254,6.254,0,0,0,.58-.305,4.572,4.572,0,0,1,1.315-.557c.419-.035.838-.1,1.258-.107a2.131,2.131,0,0,0,.786-.171,17.563,17.563,0,0,0,2-1.394,5.476,5.476,0,0,1,1.442-.705,7.993,7.993,0,0,0,1.337-.4,21.371,21.371,0,0,0,2.245-1.073c.74-.424,1.428-.941,2.134-1.423a1.523,1.523,0,0,0,.259-.261c.2-.223.379-.466.595-.671.559-.53,1.153-1.025,1.7-1.571.594-.6,1.151-1.229,1.716-1.854.214-.237.4-.5.6-.746.369-.433.737-.866,1.121-1.284a5.989,5.989,0,0,0,.972-1.031,5.717,5.717,0,0,1,1.018-1.262,4.379,4.379,0,0,0,.786-.981,1.025,1.025,0,0,1,.714-.562,3.132,3.132,0,0,1,.616-.813,1.955,1.955,0,0,0,.66-.775,4.88,4.88,0,0,1,.447-.679,10.2,10.2,0,0,0,1.522-2.6,6.186,6.186,0,0,1,.638-1.329,11.293,11.293,0,0,0,.986-2.116c.364-.828.427-1.759.839-2.582a3.62,3.62,0,0,0,.335-1.128c.136-1.028.272-2.053.473-3.073.165-.842.186-1.713.332-2.56a4.1,4.1,0,0,1,.452-1.384,12.464,12.464,0,0,0,1.032-2.748,22.556,22.556,0,0,0,.56-2.36c.185-.934.42-1.857.645-2.783A16.739,16.739,0,0,1,78,82.383a11.052,11.052,0,0,0,.659-3.993c.05-1.489-.077-2.985-.129-4.477-.005-.142-.029-.282-.039-.371-.445-.082-.827-.173-1.215-.217a4.293,4.293,0,0,0-.822.014c-.343.029-.683.09-1.025.122a2.852,2.852,0,0,0-.6.016,5.875,5.875,0,0,1-2.143.1c-.226-.009-.438.008-.514.12-.18.978-.367,1.843-.494,2.716a25.178,25.178,0,0,0-.676,4.144c-.583.617-.871,1.469-1.665,1.881a.464.464,0,0,0-.158.158,2.569,2.569,0,0,1-1.3.922c-.516.2-.976.6-1.551.459a2.4,2.4,0,0,1-1.19.628,11.379,11.379,0,0,1-2.336.633,6.17,6.17,0,0,0-1.1.118,2.7,2.7,0,0,1-1.456.021,4.4,4.4,0,0,0-1.031.03,3.682,3.682,0,0,1-1.1.041,5.644,5.644,0,0,0-1.256-.117,39.223,39.223,0,0,1-4.031-.124c-.85-.128-1.731-.066-2.6-.16a5.385,5.385,0,0,1-2.648-1.038c-.57-.416-.856-1.123-1.411-1.576-.048-.039-.041-.14-.071-.207a3.882,3.882,0,0,0-.254-.527,8,8,0,0,1-1.1-2.705,7.057,7.057,0,0,1-.282-1.133,9.317,9.317,0,0,0-.438-2.233c-.089-.3-.113-.626-.18-.937-.071-.331-.158-.658-.247-1.026a5.178,5.178,0,0,0-.523-.024c-.117.006-.234.083-.347.077-.394-.023-.787-.068-1.181-.105a1.413,1.413,0,0,1-.51-.061,9.193,9.193,0,0,0-1.916-.52c-.139-.041-.316.054-.441.08a5.818,5.818,0,0,0-.225.773c-.118.855-.211,1.713-.315,2.569a12.338,12.338,0,0,1-.187,1.393,13.887,13.887,0,0,1-1.119,3.1,21.725,21.725,0,0,1-1.925,2.422.669.669,0,0,1-.307.195,3.493,3.493,0,0,1-2.814.322,1.393,1.393,0,0,0-.512-.056,4.09,4.09,0,0,1-1.614-.179,1.276,1.276,0,0,0-.428-.012c-.248-.01-.5-.029-.743-.036a9.273,9.273,0,0,1-1.952-.368,12.7,12.7,0,0,1-2.5-.6,11.462,11.462,0,0,0-1.167-.425c-.3-.1-.607-.188-.906-.3-.784-.284-1.565-.578-2.349-.862-.114-.041-.241-.044-.359-.077a4.6,4.6,0,0,1-1.544-.675,1.57,1.57,0,0,0-.5-.305,1.814,1.814,0,0,1-.793-.533c-.438-.406-.912-.776-1.33-1.2-.4-.4-.97-.663-1.187-1.2-.3-.738-.968-1.339-.868-2.232a3.171,3.171,0,0,1-.285-1.74A1.768,1.768,0,0,0,12.6,72.6a1,1,0,0,1-1.183-.184c-.919,0-1.795.018-2.67-.009a2.375,2.375,0,0,1-1.152-.2,2.489,2.489,0,0,0-1.44-.232m73.53-16.223a3.331,3.331,0,0,1-1.889.168,9.869,9.869,0,0,0-1.4.2,8.244,8.244,0,0,1-1.756.227,15.847,15.847,0,0,1-2.94-.348.983.983,0,0,0-.285-.065c-.57.03-1.14.073-1.71.11a8.608,8.608,0,0,0-1.1.109c-.526.1-1.082.043-1.618.181-.15.038-.332-.063-.5-.08-.218-.022-.479-.1-.652-.018a9.155,9.155,0,0,1-1.87.407,4.9,4.9,0,0,1-.794.15c-.688.063-1.377.1-2.066.157-.1.008-.185.068-.281.086a10.192,10.192,0,0,1-2.933.364,8,8,0,0,0-.9-.012c-.5,0-1-.017-1.5.034-.56.057-1.11.226-1.671.264-1.113.076-2.228.012-3.35.126a21.845,21.845,0,0,1-3.2-.117.574.574,0,0,1-.149-.01c-.761-.257-1.576-.075-2.342-.29-1.163.143-2.324-.289-3.489-.012a1,1,0,0,1-.3-.009c-.533-.042-1.065-.118-1.6-.118a3.67,3.67,0,0,1-1.232-.216,8.378,8.378,0,0,0-1.107-.381c-1.131-.226-2.27-.414-3.406-.614a3.741,3.741,0,0,0-.939-.139,4.5,4.5,0,0,1-2.175-.386,9.045,9.045,0,0,0-3.7-.68,2.549,2.549,0,0,1-.366-.042c-.61-.085-1.22-.174-1.831-.254a2.881,2.881,0,0,1-.52-.033,12.607,12.607,0,0,0-1.846-.474,3.772,3.772,0,0,0-1.963.108,2.607,2.607,0,0,1-.783.166c-.422.009-.846-.07-1.267-.062a1.709,1.709,0,0,1-1-.233,1.865,1.865,0,0,0-1.067-.233,3.01,3.01,0,0,1-.8-.112,8.066,8.066,0,0,0-2.028-.644c-.084,0-.169-.09-.251-.142-.682-.431-1.355-.877-2.048-1.29-.422-.251-.873-.455-1.315-.673-.6-.294-1.2-.578-1.8-.875a2.89,2.89,0,0,1-.553-.335A15.586,15.586,0,0,0,6.172,48.65a5.7,5.7,0,0,0-1.763-1.011,2.134,2.134,0,0,0-.35,1.2c.2.907.417,1.812.619,2.719a2.864,2.864,0,0,1,.112.724c-.021.494-.133.987-.132,1.479a12.211,12.211,0,0,0,.23,3.106A28.711,28.711,0,0,1,5.4,60.3a13.8,13.8,0,0,1,.142,1.477c.007.291-.138.585-.131.876.032,1.34.093,2.68.143,4.02a.4.4,0,0,0,0,.075,11.644,11.644,0,0,1,.294,3.027,1.048,1.048,0,0,0,.324.848,4.414,4.414,0,0,1,2.209.359,6.246,6.246,0,0,0,1.869.371,4.547,4.547,0,0,1,2.643.506c0-.3.015-.5,0-.691-.033-.343-.112-.683-.124-1.026a8.418,8.418,0,0,1,.119-1.473,26.868,26.868,0,0,0,.171-2.822,6.89,6.89,0,0,1,.186-2.172,8.6,8.6,0,0,1,.641-.853,3.593,3.593,0,0,1,.953-.81,7.055,7.055,0,0,1,2.992-.717c.95,0,1.9-.02,2.851.006s1.887.1,2.831.146c.424.018.85,0,1.274,0a1.751,1.751,0,0,1,.517.048,3.753,3.753,0,0,0,1.7.058,3.31,3.31,0,0,1,.948.008,1.761,1.761,0,0,0,1.311-.093,4.472,4.472,0,0,1,.9.292,1.255,1.255,0,0,0,1.428.045,4.709,4.709,0,0,0,2.46,1.02,1.5,1.5,0,0,1,1.241.708,2.25,2.25,0,0,0,.551.59,9.8,9.8,0,0,1,1.96,2.108,4.5,4.5,0,0,1,.785,2.274,4.183,4.183,0,0,1,.011,1.974.65.65,0,0,0,.031.441c.134.327.112.745.559.9a10.356,10.356,0,0,0,1.367.533c.63.118,1.245.469,1.926.223.1-.034.232.058.352.078.165.027.333.041.494.061l.353-.406a14.228,14.228,0,0,1,.152-2.626,2.458,2.458,0,0,0-.063-.729,4,4,0,0,1-.009-.57c.013-.194.071-.385.083-.58a5.744,5.744,0,0,1,.709-2.785l.51-.266a4.771,4.771,0,0,0,.7.147,14.742,14.742,0,0,0,4.776-.5,5.489,5.489,0,0,1,1.527-.229,11.347,11.347,0,0,0,3.065-.427c.354-.095.7-.213,1.062-.277a5.007,5.007,0,0,1,1.61.062,23.109,23.109,0,0,0,2.875.168,6.706,6.706,0,0,1,1.892.284,1.169,1.169,0,0,0,.645.071,2.707,2.707,0,0,1,1.315.112c.288.043.569.127.935.212a1.557,1.557,0,0,0,1.031.521c.432.088.854.229,1.283.335a1.864,1.864,0,0,0,.566.089,1.632,1.632,0,0,1,1.458.533,2,2,0,0,0,.39.351,3.262,3.262,0,0,1,1.427,2.865,9.847,9.847,0,0,0,.4,3.206c1.052-.041,2.123-.083,3.2-.123a6.809,6.809,0,0,1,2.008.071,4.99,4.99,0,0,0,1.164.015c0-.376.024-.722,0-1.064a7.334,7.334,0,0,1,.222-2.28,8.107,8.107,0,0,0,.234-1.9,4.787,4.787,0,0,1,.017-.6c.087-.708.192-1.414.278-2.122a2.459,2.459,0,0,0-.012-.524,7.722,7.722,0,0,1-.1-.88c.019-.746.064-1.492.113-2.237a3.706,3.706,0,0,1,.134-1.549.255.255,0,0,0,0-.219c-.291-.393-.021-.771.043-1.141.075-.431.256-.842.367-1.268a3.749,3.749,0,0,0,.006-.7M70.948,72.995a2.939,2.939,0,0,0,.046-1.025,2.922,2.922,0,0,1-.112-1.249,9.49,9.49,0,0,0-.474-2.672.966.966,0,0,0-.293-.5,6.726,6.726,0,0,0-2.543-1.461,4.964,4.964,0,0,1-1.461-.47,7.16,7.16,0,0,0-2.142-.721,2.289,2.289,0,0,0-1.386-.03,1.968,1.968,0,0,1-.741,0c-1.28-.082-2.559-.176-3.839-.25a5.45,5.45,0,0,1-.792.043,5.78,5.78,0,0,0-2.35.151,16.052,16.052,0,0,1-2.918.392,3.9,3.9,0,0,0-.789.145c-.669.147-1.332.333-2.007.44a2.7,2.7,0,0,0-1.517.478.687.687,0,0,1-.774.064c-.157-.069-.308-.153-.4-.2H45.076a2.226,2.226,0,0,0-.372,1.624,12.085,12.085,0,0,1-.1,3.188,4.635,4.635,0,0,0-.153.944,10.471,10.471,0,0,0,.515,4.241,2.747,2.747,0,0,1,.22.848,10.768,10.768,0,0,0,1.124,4.085,4.226,4.226,0,0,0,1.1,1.382,20.837,20.837,0,0,0,1.882,1.324,17.235,17.235,0,0,1,1.969.25,27.95,27.95,0,0,0,3.743.4,8.557,8.557,0,0,0,.94-.131,10.971,10.971,0,0,1,2.417.12,1.9,1.9,0,0,0,.589-.034,4.907,4.907,0,0,1,.508-.088c.775-.01,1.55-.02,2.324,0a5.1,5.1,0,0,0,1.6-.244c.961-.285,1.918-.588,2.861-.925.552-.2,1.072-.483,1.613-.712a2.484,2.484,0,0,0,1.58-1.349.65.65,0,0,1,.179-.238,2.029,2.029,0,0,0,.543-.958,10.345,10.345,0,0,0,.459-1.849,9.846,9.846,0,0,0,.264-1.894.539.539,0,0,1,.016-.148,12.817,12.817,0,0,0,.285-2.686l-.228-.288m-51.193,7.4a1.969,1.969,0,0,1,1.35.232c.073.051.2.024.288.055a6.967,6.967,0,0,1,1.163.428,2.477,2.477,0,0,0,1.379.481,1.156,1.156,0,0,1,.418.133c.278.1.549.225.832.305a1.238,1.238,0,0,1,.774.5c.032.05.129.06.2.09l.251-.271a4.277,4.277,0,0,1,.818.008,6.633,6.633,0,0,0,2.722,0,1,1,0,0,1,1.173.519.881.881,0,0,0,.17.167,3.924,3.924,0,0,0,2.3-.279,5.36,5.36,0,0,0,1.533-1.01,7.03,7.03,0,0,0,1.348-2.108,7.62,7.62,0,0,0,.767-3.206,5.586,5.586,0,0,1,.15-1.167c.083-.456.2-.905.288-1.361.113-.586.461-1.152.161-1.779-.016-.035.024-.094.03-.142a6.151,6.151,0,0,0,.105-.8,8.089,8.089,0,0,0-.143-2.219c-.153-.568-.245-1.157-.446-1.707a3.876,3.876,0,0,0-.627-.991c-.225-.29-.5-.539-.855-.907a6.651,6.651,0,0,1-2.022-1.315,1.048,1.048,0,0,0-.571-.33c-.555-.095-1.059-.441-1.659-.331-.1.019-.235-.064-.344-.119a9.442,9.442,0,0,0-3.879-.754,28.816,28.816,0,0,0-2.972.138,2.434,2.434,0,0,0-.426.119,2.083,2.083,0,0,1-1.73.006,15.046,15.046,0,0,0-2.849-.407,8.429,8.429,0,0,0-3.772.6,1.832,1.832,0,0,0-1.123,1.216,5.338,5.338,0,0,1-.352.959A3.161,3.161,0,0,0,13.8,66.7a22.747,22.747,0,0,1-.111,2.375,34.921,34.921,0,0,0-.168,4.023,8.682,8.682,0,0,0,.234,1.451c.221,1.328,1.216,2.179,2.007,3.132a7.542,7.542,0,0,0,1.689,1.326c.719.478,1.481.891,2.3,1.379m-6.025-40.7c-.08.017-.142.117-.283.241l.642.227c.009-.393-.109-.521-.359-.468m37.675,62.29.677-.41,1.022.658v.731l-.6.143c-.149.486-.282.926-.421,1.366a5.372,5.372,0,0,0-.268.833,3.873,3.873,0,0,1-.452,1.31,2.7,2.7,0,0,0-.166.557,3.046,3.046,0,0,1-.162.566c-.39.765-.788,1.528-1.209,2.276-.09.161-.291.26-.44.388-.258.222-.6.4-.754.676a3.057,3.057,0,0,1-1.659,1.271,3.915,3.915,0,0,1-2.675.106,7.223,7.223,0,0,1-3.432-1.911c-.473-.5-1.063-.883-1.586-1.336a9.569,9.569,0,0,1-2.039-2.357c-.412-.7-.808-1.411-1.205-2.121a1.926,1.926,0,0,0-1.358-.918,3.773,3.773,0,0,0-.476-.042c-.1-.645-.364-1.136-1.1-1.179-.07-.184-.139-.365-.229-.6l.468-.745,1.357.08a2.37,2.37,0,0,1,1.678-.087,14.7,14.7,0,0,0,4.431.311,4.553,4.553,0,0,0,1.164-.182,3.687,3.687,0,0,1,1.529-.016,12.934,12.934,0,0,0,2.121.01,4.331,4.331,0,0,1,2.014.048,5.3,5.3,0,0,0,1.982.3,17.249,17.249,0,0,1,1.782.273m-.459.921c-.172.035-.4.157-.544.1a5.979,5.979,0,0,0-1.594-.273,16.819,16.819,0,0,0-2.638-.271c-1.286.043-2.572.126-3.858.141-2.1.025-4.2.006-6.3.01-.183,0-.366.031-.673.058.3.25.495.435.711.585a3.046,3.046,0,0,1,1.006,1.273,11.342,11.342,0,0,0,1.6,2.8c.522.616,1.176,1.036,1.732,1.586a9.576,9.576,0,0,0,.991.77c.2.148.389.3.6.43.186.113.408.17.586.293a3.3,3.3,0,0,0,1.657.718,3.106,3.106,0,0,1,.656.1,1.827,1.827,0,0,0,1.565-.153c.376-.232.78-.418,1.164-.64a4.017,4.017,0,0,0,1.943-2.738,3.764,3.764,0,0,1,.7-1.606,4.512,4.512,0,0,0,.932-2.125c.065-.329.189-.754-.228-1.057m18.785-28.27c.3.083.618-.086.819.28v.862a4.175,4.175,0,0,1-1.337,1.088,5.5,5.5,0,0,1-1.536.669,16.809,16.809,0,0,1-2.184.636,3.516,3.516,0,0,1-1.59.168,1.858,1.858,0,0,0-.8.087,25.385,25.385,0,0,0-2.844.417,1.916,1.916,0,0,1-.993.072,4.245,4.245,0,0,0-1.3.185,1.092,1.092,0,0,1-.57.01,6.051,6.051,0,0,0-1.634-.4c-.8-.139-1.572-.389-2.365-.546a4.922,4.922,0,0,1-1.336-.754c-.235-.125-.478-.236-.722-.343a13.851,13.851,0,0,1-2.016-1.037,8.823,8.823,0,0,0-1.293-.7,8.976,8.976,0,0,0-1.183-.32l-.5-.7a12.541,12.541,0,0,1,1.227-2.254,1.1,1.1,0,0,0,.172-.315,1.918,1.918,0,0,1,.123-.345c.455-.643.9-1.29,1.389-1.909a15.193,15.193,0,0,1,1.19-1.335,2.113,2.113,0,0,1,.68-.416c.772-.325,1.555-.625,2.334-.936a8.322,8.322,0,0,1,1.933-.422c1.171-.169,2.336-.076,3.5-.13a1.4,1.4,0,0,0,.632-.17.881.881,0,0,1,.849-.038c.635.259,1.258.555,1.907.771a6.226,6.226,0,0,1,2.22,1.428,15.693,15.693,0,0,1,2.557,2.816,1.558,1.558,0,0,0,.328.3,5.378,5.378,0,0,1,.512.42c.386.413.757.839,1.127,1.266a2.18,2.18,0,0,1,.7,1.6m-.333.485a2.825,2.825,0,0,1-.441-.307,2.64,2.64,0,0,1-.617-.8,6.463,6.463,0,0,0-1.282-1.889c-.186-.25-.366-.505-.5-.684a9.982,9.982,0,0,1-.938-.954A7.331,7.331,0,0,0,63.2,68.265a4.445,4.445,0,0,0-1.293-.492c-.017.109-.061.2-.035.247a3.871,3.871,0,0,1,.319,1.348,13.116,13.116,0,0,1,.256,2.787.862.862,0,0,0,.037.443,2.7,2.7,0,0,1,.118,1.323c.006.238-.146.483-.129.717a3.868,3.868,0,0,1-.853,2.461,3.747,3.747,0,0,0-.243.547c.468-.052.857-.069,1.236-.142a21.957,21.957,0,0,1,2.806-.556c1.277-.075,2.222-.857,3.322-1.3a3.476,3.476,0,0,0,.656-.529M54.787,67.4a3.233,3.233,0,0,0-.4.092,18.347,18.347,0,0,0-2.149.907A4.618,4.618,0,0,0,50.3,70.077a3.888,3.888,0,0,1-.512.805,8.41,8.41,0,0,0-1.214,1.974c-.034.064-.058.133-.08.186l.163.555-.317.493a12.458,12.458,0,0,0,1.209.919,7.338,7.338,0,0,0,1.729.819,4.539,4.539,0,0,1,.932.4c.389.2.745.47,1.125.692a2.668,2.668,0,0,0,2.087.19c-.036-.163-.063-.331-.111-.493-.222-.749-.506-1.476-.682-2.243a5.7,5.7,0,0,1-.28-1.66,1.236,1.236,0,0,0-.022-.371,5.179,5.179,0,0,1,.021-2.563,5.674,5.674,0,0,0,.315-2.029c-.008-.079.055-.166.121-.349m6.52,10.939.048,0c0-.055.006-.11.007-.166,0,0-.028,0-.043-.005,0,.056-.008.113-.012.169M14.59,71.552c.261-.641.531-1.35.835-2.044a6.4,6.4,0,0,1,1.3-2.2c.157-.15.26-.355.406-.518a3.94,3.94,0,0,1,1.049-.934c.5-.265.946-.64,1.46-.866a4.027,4.027,0,0,1,2.855-.426.948.948,0,0,0,.5-.055,4.7,4.7,0,0,1,3.724.384,3.308,3.308,0,0,0,.885.338,2,2,0,0,1,.944.542,4.6,4.6,0,0,0,2.075,1.073,3.145,3.145,0,0,1,2.035,1.336c.07.122.222.2.332.294.277.248.572.48.823.753.3.326.562.688.808.993.6.123.6.123.949.485v1.247a4.839,4.839,0,0,1-2.5,3.3h-.539c-.487.342-.974.681-1.459,1.025a8.584,8.584,0,0,1-1.9.951,11.163,11.163,0,0,0-1.19.627l-.527-.4a.479.479,0,0,0-.134-.019,3.928,3.928,0,0,1-.511.078q-2.248.009-4.5,0a1.058,1.058,0,0,1-.44-.048,13.067,13.067,0,0,1-3.066-1.606,14.133,14.133,0,0,0-1.5-.945,6.728,6.728,0,0,1-1.13-.831,4.694,4.694,0,0,0-1.457-.991,9.526,9.526,0,0,1-.852-.485c-.061-.713-.026-.766.716-1.06M15.9,72.5a.36.36,0,0,0,.09.2A11.345,11.345,0,0,0,18.8,74.981,22.952,22.952,0,0,0,21.739,76.3a5.969,5.969,0,0,0,1.631.308c.346.028.368-.009.5-.5a11.049,11.049,0,0,1-2.044-3.785,9.265,9.265,0,0,1-.507-3.571c.009-.124-.014-.252,0-.375a4.317,4.317,0,0,1,.157-.863,5.557,5.557,0,0,1,.919-1.825,2.085,2.085,0,0,0,.177-.348c-.521.052-.971-.1-1.393.094a6.357,6.357,0,0,0-1.347.756,3.785,3.785,0,0,1-1.082.631,1.81,1.81,0,0,0-.886.745c-.364.526-.608,1.118-1.009,1.631a6.552,6.552,0,0,0-.7,1.44,1.875,1.875,0,0,0-.092.5c-.051.388-.1.776-.167,1.356M30.1,75.553a18.53,18.53,0,0,0,3.571-2.491l.657-.175c.127-.418.248-.813.351-1.151a2.288,2.288,0,0,0-.769-1.228,6.224,6.224,0,0,1-.816-.875,7.231,7.231,0,0,0-2.873-2.149c-.085-.042-.219.013-.361.026l1.013,1.9a6.092,6.092,0,0,1,.2.866,6.208,6.208,0,0,1-.448,3.05,14.611,14.611,0,0,0-.521,2.229" transform="translate(0 0)"/>
      </g>
    </g>
    <rect id="Rectangle_180" data-name="Rectangle 180" class="cls-3" width="146" height="167" transform="translate(34 740)"/>
  </g>
</svg>
