<svg xmlns="http://www.w3.org/2000/svg" xmlns:xlink="http://www.w3.org/1999/xlink" width="122" height="145" viewBox="0 0 122 145">
  <defs>
    <style>
      .cls-1 {
        fill: none;
      }

      .cls-2 {
        clip-path: url(#clip-path);
      }
    </style>
    <clipPath id="clip-path">
      <rect id="Rectangle_40" data-name="Rectangle 40" class="cls-1" width="69.717" height="91.9"/>
    </clipPath>
  </defs>
  <g id="Group_252" data-name="Group 252" transform="translate(-348 -418)">
    <g id="Group_66" data-name="Group 66" transform="translate(376 452)">
      <g id="Group_65" data-name="Group 65" class="cls-2">
        <path id="Path_81" data-name="Path 81" d="M1.822,33.5l.3-.224c-.01-.064,0-.152-.034-.2-.306-.363-.612-.728-.937-1.074a3.076,3.076,0,0,1-.837-1.814,4.075,4.075,0,0,1-.023-.968,2.278,2.278,0,0,0-.183-1.008,1.359,1.359,0,0,1-.05-.918A3.559,3.559,0,0,0,.22,26.32a3.356,3.356,0,0,1,.175-.857c.128-.432.3-.852.42-1.286a2.044,2.044,0,0,0,.009-.629c-.005-.1-.067-.2-.081-.3a3.074,3.074,0,0,1,0-.38c.228-.192.487-.4.733-.619a6.826,6.826,0,0,0,.567-.557c.431-.486.852-.981,1.272-1.476a.633.633,0,0,0,.13-.226,5.576,5.576,0,0,1,.622-1.255A5.329,5.329,0,0,1,5.526,17.1q1.078-.79,2.154-1.584a.773.773,0,0,0,.188-.186,5.53,5.53,0,0,1,2.158-1.5c.18-.1.352-.221.535-.318.335-.177.679-.339,1.014-.516a3.032,3.032,0,0,0,.394-.254c.183-.137.358-.284.536-.427a2.383,2.383,0,0,0,1.363-.337c.517-.239,1.042-.461,1.572-.669a4.528,4.528,0,0,1,.562-.1c.672-.166,1.324-.389,1.979-.62.774-.273,1.514-.6,2.254-.946a2.658,2.658,0,0,1,.8-.2,15.226,15.226,0,0,0,2.073-.279,1.085,1.085,0,0,1,.209-.028c.61-.037,1.227-.03,1.83-.116,1.408-.2,2.821-.023,4.3-.121a5.9,5.9,0,0,0,.528-.393,3.492,3.492,0,0,0,.755-1.89c0-.116.03-.231.042-.348a9.844,9.844,0,0,0,.254-1.223,1.562,1.562,0,0,1,.2-.532,5.161,5.161,0,0,0,.292-.718,8.092,8.092,0,0,1,1.166-2.484c.158-.244.274-.517.435-.758A6.273,6.273,0,0,1,33.565.02,1.13,1.13,0,0,1,34.6.393a2.235,2.235,0,0,0,.75.564c.3.106.3.406.393.607-.1.5-.187.978-.288,1.452-.076.357-.154.718-.246,1.065-.165.621-.222,1.259-.383,1.878-.135.518-.214,1.051-.326,1.576-.033.152-.107.295-.142.446s-.052.333-.073.481a2.287,2.287,0,0,0,1.943-.286,6.321,6.321,0,0,0,2.034.218c.725.007,1.451.017,2.176,0a3.536,3.536,0,0,1,1.089.141,2.025,2.025,0,0,0,.983.021,1.357,1.357,0,0,1,.563.017,3.388,3.388,0,0,0,1.032.151,1.2,1.2,0,0,1,.406.077q1.119.338,2.235.685a10.278,10.278,0,0,1,2.116.979c.375.218.793.362,1.179.565A22.3,22.3,0,0,1,52.1,12.168a6.759,6.759,0,0,0,1.762.769,4.844,4.844,0,0,1,1.288.662q.365.25.726.506c.213.15.428.3.633.458a7.958,7.958,0,0,1,1.208.822c.174.194.431.323.572.534a6.748,6.748,0,0,0,1.258,1.2c.445.4.926.752,1.4,1.111.586.441,1.186.865,1.774,1.3a1.491,1.491,0,0,1,.337.325c.351.5.68,1.019,1.034,1.518a5.24,5.24,0,0,0,1.234,1.278,4.5,4.5,0,0,1,1.213,1.318c.263.43.509.871.767,1.3.062.1.148.194.215.295a3.957,3.957,0,0,1,.335.525,16,16,0,0,0,1.136,2c.143.22.322.416.52.669.016.074.044.211.074.346a1.94,1.94,0,0,1,.075,1.065c-.1.339-.019.724-.117,1.089a2.249,2.249,0,0,1-.429.985,3.223,3.223,0,0,0-.509.786,1.155,1.155,0,0,1-.468.545,1.018,1.018,0,0,0-.245.2c-.4.464-.812.918-1.178,1.407a3.243,3.243,0,0,1-.771.768c-.573.391-1.109.838-1.683,1.229-.5.342-1.028.65-1.555.952a1.151,1.151,0,0,1-.582.191,4.107,4.107,0,0,0-1.011.247,8.2,8.2,0,0,1-1.231.187,7.335,7.335,0,0,0-2.476.511,7.181,7.181,0,0,0-.509,2.142,1,1,0,0,1-.04.2,6,6,0,0,0-.278,1.851,12.486,12.486,0,0,1-.013,1.591,16.109,16.109,0,0,1-.183,1.93,1.218,1.218,0,0,0-.016.317,6.4,6.4,0,0,1-.2,1.651,1.619,1.619,0,0,0-.011.37c0,.6-.005,1.2,0,1.805,0,.235.045.47.045.7s-.034.452-.047.679a7.17,7.17,0,0,0,.174,1.4,6.542,6.542,0,0,1,.015,1.32c-.024.342-.144.676-.184,1.018-.056.485-.075.974-.114,1.461a1.571,1.571,0,0,1-.052.36c-.244.757-.5,1.511-.746,2.266-.005.017-.026.032-.024.046.062.618-.338,1.128-.407,1.7-.048.4-.271.811-.031,1.21-.185.523-.363,1.029-.543,1.533a.588.588,0,0,1-.087.19,4.459,4.459,0,0,0-.754,1.923,8.747,8.747,0,0,0-.338,2.586,4.75,4.75,0,0,1-.319,1.572c-.224.71-.483,1.409-.7,2.121-.207.688-.563,1.309-.83,1.969-.11.272-.224.536-.31.821a7.3,7.3,0,0,1-1.068,1.96,4.25,4.25,0,0,0-.83,1.435c-.321.035-.493.288-.681.516-.245.3-.463.62-.732.892a2.471,2.471,0,0,1-.608.324,7.05,7.05,0,0,1-1.266,1.578,2.213,2.213,0,0,0-.2.242,5.665,5.665,0,0,1-.768.849c-.253.207-.425.51-.662.741-.491.48-1.017.924-1.5,1.413-.455.462-.872.963-1.357,1.383a4.381,4.381,0,0,0-.532.29,12.022,12.022,0,0,1-2.765,1.446c-.335.131-.709.158-1.052.272a2.729,2.729,0,0,0-1.264.811,2.378,2.378,0,0,1-1.717.759,3.92,3.92,0,0,0-1.537.6c-.082.046-.124.162-.184.244a3.522,3.522,0,0,0-.99.1.749.749,0,0,1-.745-.153c-.256-.215-.518-.424-.759-.655-.421-.4-.823-.828-1.243-1.234-.176-.17-.384-.307-.567-.47-.381-.337-.78-.658-1.126-1.028a6.862,6.862,0,0,0-1.556-1.139,15.038,15.038,0,0,1-1.495-.972,8.341,8.341,0,0,1-.813-.888,10.422,10.422,0,0,0-1.72-1.449c-.822-.557-1.6-1.181-2.372-1.808-.788-.642-1.538-1.329-2.317-1.983-.428-.359-.884-.686-1.322-1.035a3.582,3.582,0,0,1-.238-.275c-.211-.208-.427-.411-.644-.613a1.729,1.729,0,0,1-.647-.8.977.977,0,0,0-.414-.527,3.372,3.372,0,0,1-.855-.906,3.464,3.464,0,0,0-1.189-1,2.384,2.384,0,0,1-1-.871c-.321-.474-.683-.921-1-1.4s-.594-.944-.88-1.422a4.9,4.9,0,0,1-.448-1.087c-.295-.957-.662-1.894-.874-2.874-.2-.916-.484-1.807-.716-2.712a.174.174,0,0,1-.006-.053A8.016,8.016,0,0,0,5.7,62.138a12.35,12.35,0,0,1-.515-1.957,6.065,6.065,0,0,0-.291-1.1c-.179-.631-.292-1.28-.435-1.921-.1-.457-.21-.911-.305-1.369a3.294,3.294,0,0,1-.014-.37c-.034-.384-.069-.767-.113-1.15a4.3,4.3,0,0,1-.092-.56,3.483,3.483,0,0,0-.19-1.288.376.376,0,0,1-.025-.1c-.037-.488-.068-.977-.112-1.464a3.3,3.3,0,0,0-.121-.824,2.431,2.431,0,0,1-.088-.831c-.007-.372.021-.745-.007-1.114-.048-.626-.152-1.248-.188-1.875a6.38,6.38,0,0,1-.046-2.245,1.555,1.555,0,0,0,0-.668,18.457,18.457,0,0,1-.2-2.089,9.833,9.833,0,0,0-.308-1.738,4.628,4.628,0,0,1-.1-1.15,5.687,5.687,0,0,0-.2-1.924.507.507,0,0,1-.012-.21,3.652,3.652,0,0,0-.252-1.54c-.079-.241-.023-.523-.248-.732-.069-.064-.011-.266-.011-.42M1.39,23.432a2.009,2.009,0,0,1,0,1.185,8.228,8.228,0,0,0-.5,1.64,2.12,2.12,0,0,1-.08.567,3,3,0,0,0-.05,1.6c.109.579.164,1.169.3,1.741a3.492,3.492,0,0,0,.4,1.068,4.7,4.7,0,0,0,.785.783c.19.181.394.348.579.534a2.461,2.461,0,0,0,.939.711,3.281,3.281,0,0,1,1.2.706c.308.276.707.448,1.037.7a4.976,4.976,0,0,0,1.469.891.582.582,0,0,1,.184.1c.447.366,1.053.452,1.485.843.024.021.065.023.1.036.387.159.766.346,1.164.472a4.667,4.667,0,0,0,1.668.381,2.16,2.16,0,0,1,1.029.159,1.21,1.21,0,0,0,.361.049,5.483,5.483,0,0,0,1.4-.157,3.277,3.277,0,0,1,1.654.123,6.242,6.242,0,0,0,2.714.46,2.419,2.419,0,0,1,.477,0,5.852,5.852,0,0,1,.927.132c.517.142,1.016.349,1.533.49a4.808,4.808,0,0,0,1.439.232,3.089,3.089,0,0,1,.676.089c.341.066.678.153,1.019.221.511.1,1.024.192,1.534.3a8.889,8.889,0,0,0,1.013.226c.577.048,1.156.038,1.736.1.907.088,1.826-.014,2.739.118a2.432,2.432,0,0,0,1.23.012.309.309,0,0,1,.158,0c.307.06.612.13.921.183a1.393,1.393,0,0,0,.366,0c.207-.02.412-.068.62-.076.494-.019.99-.006,1.482-.041a2.025,2.025,0,0,1,.4,0,2.16,2.16,0,0,0,.883-.023,5.006,5.006,0,0,1,2.589-.165,1.282,1.282,0,0,0,.631-.005,12.714,12.714,0,0,0,1.674-.377,1.077,1.077,0,0,1,.313-.028c.206-.026.412-.06.618-.088l1.7-.23a3.309,3.309,0,0,0,.921-.146c.55-.254,1.151-.077,1.7-.278.86.037,1.72.071,2.58.112a.61.61,0,0,1,.194.073,3.729,3.729,0,0,0,1.908.226,19.261,19.261,0,0,1,2.4-.187,5.9,5.9,0,0,0,2.373-.5,3.861,3.861,0,0,1,1.88-.361,3.632,3.632,0,0,0,1.793-.318c.3-.127.621-.22.925-.346a2.455,2.455,0,0,0,.5-.273c.549-.4,1.1-.8,1.63-1.216a7.746,7.746,0,0,0,1.646-1.624,5.016,5.016,0,0,1,.535-.642,8.96,8.96,0,0,0,1.618-2.242A2.686,2.686,0,0,0,68.527,29a4.281,4.281,0,0,0-.694-1.1,4.49,4.49,0,0,1-.71-1.332,3.939,3.939,0,0,0-.466-.806,1.743,1.743,0,0,1-.288-.436,4.656,4.656,0,0,0-1.38-1.739,4.533,4.533,0,0,1-.672-.721,5.524,5.524,0,0,0-.7-.777.438.438,0,0,1-.094-.127,1.344,1.344,0,0,0-.647-.723.786.786,0,0,0-.364-.571c-.085-.062-.2-.107-.248-.19a1.993,1.993,0,0,0-1.2-.862.864.864,0,0,1-.375-.266,4.6,4.6,0,0,0-.406-.591c-.287-.249-.647-.412-.936-.66s-.532-.559-.8-.837c-.033-.034-.1-.03-.145-.057a2.3,2.3,0,0,1-.252-.184c-.187-.158-.368-.322-.605-.53a.633.633,0,0,0-.14-.251,8.88,8.88,0,0,0-1.427-1.059c-.373-.19-.7-.438-1.075-.623a9.008,9.008,0,0,0-1.946-.877.811.811,0,0,1-.43-.277,1.663,1.663,0,0,0-.582-.438,5.83,5.83,0,0,1-.824-.466,5.471,5.471,0,0,0-1.793-.821,3.406,3.406,0,0,1-1.1-.568,3.228,3.228,0,0,0-1.1-.588,1.677,1.677,0,0,1-.345-.117,1.891,1.891,0,0,0-.86-.21,1.27,1.27,0,0,1-.589-.173,1.7,1.7,0,0,0-.727-.248,4.312,4.312,0,0,1-.912-.2,5.129,5.129,0,0,0-2.212-.219c-.466.26-.936.023-1.385-.038a10.287,10.287,0,0,0-1.72-.178,2.132,2.132,0,0,1-.834-.084,1.064,1.064,0,0,0-.465.031,2.957,2.957,0,0,1-.765.1.679.679,0,0,0-.447.077,3.715,3.715,0,0,1-1.413.3c-.222.029-.446.051-.728.082-.036-.013-.134-.046-.231-.082-.284-.106-.314-.161-.277-.5s.1-.658.107-.989a2.025,2.025,0,0,1,.176-.758,2.438,2.438,0,0,0,.149-.438c.116-.541.267-1.071.346-1.626.122-.854.364-1.691.566-2.533a1.15,1.15,0,0,0-.731-1.437,5.519,5.519,0,0,0-.29.482,9.762,9.762,0,0,0-1.016,1.978c-.053.236-.1.474-.15.71-.023.1-.064.2-.1.293-.076.231-.153.46-.225.692-.139.446-.309.886-.4,1.341a6.52,6.52,0,0,0-.249,1.28,1.028,1.028,0,0,1-.684,1.02,2.886,2.886,0,0,0-.9.515,1.291,1.291,0,0,1-1.142.27,5.543,5.543,0,0,0-1.152-.085c-.577-.019-1.147.057-1.731.022-.909-.054-1.827.047-2.741.085a.76.76,0,0,0-.155.03,4.033,4.033,0,0,1-1.292.182.809.809,0,0,0-.315.017c-.41.147-.814.308-1.219.466a3.19,3.19,0,0,1-.631.244,1.615,1.615,0,0,0-.706.31,2.462,2.462,0,0,1-1.313.464,5.488,5.488,0,0,0-1.32.281c-.6.187-1.178.426-1.766.64a4.649,4.649,0,0,1-.936.318,1.883,1.883,0,0,0-.853.367,20.328,20.328,0,0,1-1.847,1.09,12.259,12.259,0,0,0-1.743,1.058c-.491.391-.944.835-1.456,1.206a9.4,9.4,0,0,1-1.227.911A4.548,4.548,0,0,0,4.355,19.6a6.087,6.087,0,0,1-.808,1.449,6.47,6.47,0,0,0-.757.876,1.854,1.854,0,0,1-.639.61,1.809,1.809,0,0,0-.76.9M4.349,50.886a4.97,4.97,0,0,0,0,.531c.057.484.127.967.193,1.451.038.276.1.551.117.828.024.437.047.872.091,1.309A13.97,13.97,0,0,0,5.1,57c.042.168.068.34.1.51.061.322.121.645.184.967.08.408.149.818.245,1.222a8.491,8.491,0,0,0,.384,1.4,14.565,14.565,0,0,1,.972,3.286c.185,1.079.522,2.118.727,3.189A11.752,11.752,0,0,0,8.451,69.8a12.638,12.638,0,0,0,1.3,2.7,11.449,11.449,0,0,0,1.974,2.032,10.188,10.188,0,0,1,1.691,1.692,1.177,1.177,0,0,0,.84.578.447.447,0,0,1,.387.318,1.771,1.771,0,0,0,.509.66c.261.264.53.519.783.789a5.381,5.381,0,0,0,.4.485c.267.222.574.4.848.609a6.017,6.017,0,0,1,.946.809,4.433,4.433,0,0,0,1.433,1.288,1.715,1.715,0,0,1,.267.168c.649.474,1.3.946,1.944,1.427.351.262.7.527,1.033.814.183.159.314.377.486.551.245.249.532.462.755.728a3.893,3.893,0,0,0,1.3.969,7.787,7.787,0,0,1,1.963,1.4c.291.278.568.57.855.851a3.879,3.879,0,0,0,.357.314,7.147,7.147,0,0,1,.918.851c.285.31.588.6.893.894a.582.582,0,0,0,.527.187c.373-.078.746-.157,1.113-.26a4.418,4.418,0,0,0,.41-.216,3.233,3.233,0,0,1,.93-.394c.3-.025.592-.072.889-.076a1.507,1.507,0,0,0,.556-.121,12.419,12.419,0,0,0,1.411-.986,3.872,3.872,0,0,1,1.02-.5,5.651,5.651,0,0,0,.946-.282,15.107,15.107,0,0,0,1.588-.758c.523-.3,1.01-.665,1.509-1.006a1.077,1.077,0,0,0,.183-.184c.141-.158.268-.329.42-.474.4-.375.815-.725,1.2-1.111.42-.421.814-.869,1.213-1.311.151-.168.281-.355.428-.527.261-.306.521-.612.792-.908a4.234,4.234,0,0,0,.687-.729,4.043,4.043,0,0,1,.72-.892,3.1,3.1,0,0,0,.556-.693.725.725,0,0,1,.5-.4,2.215,2.215,0,0,1,.435-.575,1.382,1.382,0,0,0,.467-.548,3.45,3.45,0,0,1,.316-.48,7.212,7.212,0,0,0,1.076-1.84,4.373,4.373,0,0,1,.451-.94,7.985,7.985,0,0,0,.7-1.5c.257-.585.3-1.244.593-1.825a2.559,2.559,0,0,0,.237-.8c.1-.727.193-1.452.334-2.173.117-.6.132-1.211.235-1.81a2.9,2.9,0,0,1,.32-.979,8.812,8.812,0,0,0,.73-1.943,15.948,15.948,0,0,0,.4-1.669c.13-.66.3-1.313.456-1.968a11.834,11.834,0,0,1,.47-1.8,7.814,7.814,0,0,0,.466-2.823c.035-1.053-.054-2.11-.091-3.166,0-.1-.021-.2-.027-.262-.315-.058-.585-.123-.859-.154a3.035,3.035,0,0,0-.581.01c-.243.02-.483.064-.725.086a2.017,2.017,0,0,0-.423.011,4.154,4.154,0,0,1-1.515.071c-.16-.006-.31.006-.363.085-.127.692-.26,1.3-.349,1.92a17.8,17.8,0,0,0-.478,2.93c-.412.436-.616,1.038-1.177,1.33a.328.328,0,0,0-.112.112,1.816,1.816,0,0,1-.922.652c-.365.142-.69.426-1.1.324a1.7,1.7,0,0,1-.841.444,8.045,8.045,0,0,1-1.652.448,4.363,4.363,0,0,0-.778.083,1.912,1.912,0,0,1-1.029.015,3.111,3.111,0,0,0-.729.021,2.6,2.6,0,0,1-.781.029,3.99,3.99,0,0,0-.888-.083,27.729,27.729,0,0,1-2.85-.088c-.6-.091-1.224-.047-1.838-.113a3.807,3.807,0,0,1-1.872-.734c-.4-.294-.605-.794-1-1.114-.034-.027-.029-.1-.05-.146a2.744,2.744,0,0,0-.18-.373,5.658,5.658,0,0,1-.777-1.913,4.989,4.989,0,0,1-.2-.8,6.588,6.588,0,0,0-.309-1.578c-.063-.215-.08-.442-.127-.663s-.112-.465-.175-.725a3.659,3.659,0,0,0-.37-.017c-.083,0-.165.059-.245.055-.279-.016-.557-.048-.835-.074a1,1,0,0,1-.36-.043,6.5,6.5,0,0,0-1.354-.368c-.1-.029-.224.038-.312.056a4.114,4.114,0,0,0-.159.547c-.083.6-.149,1.211-.223,1.816a8.722,8.722,0,0,1-.132.985,9.819,9.819,0,0,1-.791,2.193,15.36,15.36,0,0,1-1.361,1.713.473.473,0,0,1-.217.138,2.47,2.47,0,0,1-1.989.228.985.985,0,0,0-.362-.04,2.892,2.892,0,0,1-1.141-.127.9.9,0,0,0-.3-.008c-.175-.007-.35-.02-.526-.026a6.556,6.556,0,0,1-1.38-.26,8.979,8.979,0,0,1-1.768-.426,8.1,8.1,0,0,0-.825-.3c-.213-.073-.429-.133-.641-.21-.554-.2-1.106-.408-1.661-.609-.081-.029-.171-.031-.254-.055a3.253,3.253,0,0,1-1.092-.477,1.11,1.11,0,0,0-.352-.216,1.283,1.283,0,0,1-.561-.377c-.309-.287-.645-.548-.94-.849-.279-.284-.686-.468-.839-.846-.212-.522-.684-.947-.613-1.578a2.242,2.242,0,0,1-.2-1.23,1.25,1.25,0,0,0-.109-.349.707.707,0,0,1-.837-.13c-.65,0-1.269.013-1.888-.006a1.679,1.679,0,0,1-.814-.142,1.76,1.76,0,0,0-1.018-.164m51.988-11.47A2.355,2.355,0,0,1,55,39.535a6.977,6.977,0,0,0-.987.139,5.829,5.829,0,0,1-1.241.161,11.2,11.2,0,0,1-2.079-.246.7.7,0,0,0-.2-.046c-.4.021-.806.052-1.209.078a6.086,6.086,0,0,0-.779.077c-.372.072-.765.031-1.144.128-.106.027-.235-.045-.354-.056-.154-.016-.338-.073-.461-.013a6.474,6.474,0,0,1-1.322.288,3.466,3.466,0,0,1-.562.106c-.486.044-.974.072-1.461.111-.067.005-.131.048-.2.061a7.206,7.206,0,0,1-2.074.257,5.657,5.657,0,0,0-.636-.009c-.354,0-.709-.012-1.059.024-.4.04-.785.16-1.181.187-.787.054-1.575.008-2.368.089a15.445,15.445,0,0,1-2.259-.082.405.405,0,0,1-.106-.007c-.538-.182-1.114-.053-1.656-.2a21.431,21.431,0,0,0-2.467-.009.706.706,0,0,1-.211-.007c-.377-.03-.753-.083-1.129-.083a2.6,2.6,0,0,1-.871-.153,5.924,5.924,0,0,0-.783-.269c-.8-.16-1.6-.293-2.408-.434a2.645,2.645,0,0,0-.664-.1,3.181,3.181,0,0,1-1.538-.273,6.4,6.4,0,0,0-2.614-.481,1.8,1.8,0,0,1-.259-.03c-.432-.06-.863-.123-1.295-.18a2.036,2.036,0,0,1-.368-.023,8.913,8.913,0,0,0-1.3-.335,2.667,2.667,0,0,0-1.388.077,1.843,1.843,0,0,1-.553.117c-.3.007-.6-.049-.9-.044a1.208,1.208,0,0,1-.7-.165,1.318,1.318,0,0,0-.755-.164,2.128,2.128,0,0,1-.562-.079,5.7,5.7,0,0,0-1.434-.455c-.06,0-.119-.064-.177-.1-.482-.305-.958-.62-1.448-.912-.3-.177-.617-.322-.93-.476-.423-.208-.851-.408-1.274-.618a2.043,2.043,0,0,1-.391-.237,11.02,11.02,0,0,0-.878-.747,4.032,4.032,0,0,0-1.246-.715,1.509,1.509,0,0,0-.247.847c.144.641.295,1.281.438,1.922a2.025,2.025,0,0,1,.08.512c-.015.35-.094.7-.093,1.046a8.633,8.633,0,0,0,.162,2.2,20.3,20.3,0,0,1,.36,2.429,9.756,9.756,0,0,1,.1,1.044c.005.206-.1.414-.093.62.022.948.066,1.9.1,2.842a.285.285,0,0,0,0,.053,8.233,8.233,0,0,1,.208,2.141.741.741,0,0,0,.229.6,3.121,3.121,0,0,1,1.562.254,4.416,4.416,0,0,0,1.321.262,3.215,3.215,0,0,1,1.868.357c0-.215.01-.353,0-.488-.023-.243-.08-.483-.088-.725a5.952,5.952,0,0,1,.084-1.041,19,19,0,0,0,.121-2,4.872,4.872,0,0,1,.131-1.536,6.079,6.079,0,0,1,.453-.6,2.541,2.541,0,0,1,.674-.573,4.989,4.989,0,0,1,2.116-.507c.672,0,1.344-.014,2.016,0s1.334.074,2,.1c.3.013.6,0,.9,0a1.238,1.238,0,0,1,.365.034,2.654,2.654,0,0,0,1.2.041,2.34,2.34,0,0,1,.67.005,1.245,1.245,0,0,0,.927-.066,3.162,3.162,0,0,1,.635.206.888.888,0,0,0,1.01.032,3.329,3.329,0,0,0,1.739.721,1.064,1.064,0,0,1,.878.5,1.591,1.591,0,0,0,.39.417,6.928,6.928,0,0,1,1.385,1.49,3.179,3.179,0,0,1,.555,1.608,2.957,2.957,0,0,1,.008,1.4.459.459,0,0,0,.022.312c.1.231.08.527.4.635a7.321,7.321,0,0,0,.967.377c.446.083.88.332,1.362.158.067-.024.164.041.249.055.117.019.235.029.349.043l.25-.287a10.06,10.06,0,0,1,.108-1.857,1.738,1.738,0,0,0-.045-.515,2.832,2.832,0,0,1-.007-.4c.009-.137.05-.273.059-.41a4.061,4.061,0,0,1,.5-1.969l.36-.188a3.373,3.373,0,0,0,.5.1,10.423,10.423,0,0,0,3.377-.355,3.881,3.881,0,0,1,1.08-.162,8.023,8.023,0,0,0,2.167-.3c.25-.067.5-.15.751-.2a3.54,3.54,0,0,1,1.138.044,16.339,16.339,0,0,0,2.032.119,4.742,4.742,0,0,1,1.337.2.826.826,0,0,0,.456.05,1.914,1.914,0,0,1,.93.08c.2.031.4.09.661.15a1.1,1.1,0,0,0,.729.368c.306.063.6.162.907.237a1.318,1.318,0,0,0,.4.063,1.154,1.154,0,0,1,1.031.377,1.413,1.413,0,0,0,.275.248,2.306,2.306,0,0,1,1.009,2.026,6.962,6.962,0,0,0,.282,2.267c.744-.029,1.5-.059,2.259-.087a4.814,4.814,0,0,1,1.419.05,3.528,3.528,0,0,0,.823.011c0-.266.017-.511,0-.753a5.185,5.185,0,0,1,.157-1.612,5.733,5.733,0,0,0,.165-1.344,3.385,3.385,0,0,1,.012-.424c.062-.5.136-1,.2-1.5a1.739,1.739,0,0,0-.008-.37,5.46,5.46,0,0,1-.067-.622c.013-.528.045-1.055.08-1.582a2.62,2.62,0,0,1,.1-1.1.18.18,0,0,0,0-.155c-.206-.278-.015-.545.031-.807.053-.3.181-.6.26-.9a2.651,2.651,0,0,0,0-.495M50.163,51.61a2.078,2.078,0,0,0,.033-.724,2.066,2.066,0,0,1-.08-.883,6.71,6.71,0,0,0-.335-1.889.683.683,0,0,0-.207-.353,4.755,4.755,0,0,0-1.8-1.033,3.51,3.51,0,0,1-1.033-.332,5.063,5.063,0,0,0-1.514-.51,1.618,1.618,0,0,0-.98-.021,1.392,1.392,0,0,1-.524,0c-.9-.058-1.809-.124-2.714-.177a3.853,3.853,0,0,1-.56.03,4.087,4.087,0,0,0-1.662.107,11.35,11.35,0,0,1-2.063.277,2.76,2.76,0,0,0-.558.1c-.473.1-.942.235-1.419.311a1.906,1.906,0,0,0-1.073.338.485.485,0,0,1-.547.046c-.111-.049-.218-.108-.28-.14H31.87a1.574,1.574,0,0,0-.263,1.148,8.545,8.545,0,0,1-.071,2.254,3.277,3.277,0,0,0-.108.668,7.4,7.4,0,0,0,.364,3,1.942,1.942,0,0,1,.156.6,7.613,7.613,0,0,0,.795,2.888,2.988,2.988,0,0,0,.774.977,14.733,14.733,0,0,0,1.331.936,12.185,12.185,0,0,1,1.392.177,19.761,19.761,0,0,0,2.647.279,6.051,6.051,0,0,0,.665-.093,7.757,7.757,0,0,1,1.709.085,1.339,1.339,0,0,0,.417-.024,3.469,3.469,0,0,1,.359-.063c.548-.007,1.1-.014,1.643,0a3.605,3.605,0,0,0,1.13-.173c.679-.2,1.356-.416,2.023-.654.39-.14.758-.341,1.14-.5a1.756,1.756,0,0,0,1.117-.954.46.46,0,0,1,.127-.168,1.434,1.434,0,0,0,.384-.677,7.314,7.314,0,0,0,.325-1.307,6.961,6.961,0,0,0,.187-1.339.382.382,0,0,1,.012-.1,9.062,9.062,0,0,0,.2-1.9l-.161-.2M13.968,56.838a1.392,1.392,0,0,1,.954.164c.051.036.138.017.2.039a4.925,4.925,0,0,1,.822.3,1.751,1.751,0,0,0,.975.34.817.817,0,0,1,.3.094c.2.072.388.159.588.216a.876.876,0,0,1,.547.354c.023.035.091.042.142.064l.177-.192a3.024,3.024,0,0,1,.578.006,4.69,4.69,0,0,0,1.924,0,.707.707,0,0,1,.829.367.623.623,0,0,0,.12.118,2.774,2.774,0,0,0,1.629-.2,3.79,3.79,0,0,0,1.084-.714,4.97,4.97,0,0,0,.953-1.49,5.388,5.388,0,0,0,.543-2.267,3.949,3.949,0,0,1,.106-.825c.059-.322.141-.64.2-.962.08-.414.326-.815.114-1.258-.012-.025.017-.066.021-.1a4.349,4.349,0,0,0,.074-.567,5.719,5.719,0,0,0-.1-1.569c-.108-.4-.173-.818-.315-1.207a2.741,2.741,0,0,0-.444-.7c-.159-.2-.356-.381-.6-.641a4.7,4.7,0,0,1-1.43-.93.741.741,0,0,0-.4-.233c-.393-.067-.749-.312-1.173-.234-.074.014-.166-.046-.243-.084A6.676,6.676,0,0,0,19.4,44.2a20.373,20.373,0,0,0-2.1.1,1.721,1.721,0,0,0-.3.084,1.473,1.473,0,0,1-1.223,0,10.639,10.639,0,0,0-2.014-.288,5.959,5.959,0,0,0-2.667.424,1.3,1.3,0,0,0-.794.86,3.774,3.774,0,0,1-.249.678,2.235,2.235,0,0,0-.289,1.1,16.082,16.082,0,0,1-.078,1.679,24.69,24.69,0,0,0-.119,2.844,6.138,6.138,0,0,0,.165,1.026,4.876,4.876,0,0,0,1.419,2.215,5.332,5.332,0,0,0,1.194.938c.508.338,1.047.63,1.628.975M9.708,28.066c-.056.012-.1.082-.2.171l.454.16c.006-.278-.077-.369-.254-.331M36.345,72.106l.479-.29.723.466V72.8l-.421.1c-.106.343-.2.655-.3.965a3.8,3.8,0,0,0-.189.589,2.739,2.739,0,0,1-.32.926,1.911,1.911,0,0,0-.117.394,2.154,2.154,0,0,1-.114.4c-.275.541-.557,1.08-.855,1.609-.064.114-.206.184-.311.274-.182.157-.426.28-.533.478a2.161,2.161,0,0,1-1.173.9,2.768,2.768,0,0,1-1.891.075A5.107,5.107,0,0,1,28.9,78.158c-.334-.352-.751-.625-1.121-.945a6.766,6.766,0,0,1-1.442-1.667c-.291-.5-.571-1-.852-1.5a1.361,1.361,0,0,0-.96-.649,2.665,2.665,0,0,0-.337-.03c-.069-.456-.257-.8-.777-.834l-.162-.426.331-.527.96.057a1.676,1.676,0,0,1,1.187-.062,10.393,10.393,0,0,0,3.133.22,3.219,3.219,0,0,0,.823-.129,2.607,2.607,0,0,1,1.081-.011,9.144,9.144,0,0,0,1.5.007,3.062,3.062,0,0,1,1.424.034,3.747,3.747,0,0,0,1.4.215,12.2,12.2,0,0,1,1.26.193m-.324.651c-.122.025-.28.111-.385.068a4.227,4.227,0,0,0-1.127-.193,11.893,11.893,0,0,0-1.865-.192c-.909.031-1.818.089-2.728.1-1.485.017-2.971,0-4.456.007-.129,0-.259.022-.476.041.213.177.35.307.5.413a2.153,2.153,0,0,1,.711.9A8.019,8.019,0,0,0,27.33,75.88c.369.435.831.733,1.225,1.121a6.771,6.771,0,0,0,.7.545c.138.1.275.214.422.3.132.08.289.12.414.207a2.333,2.333,0,0,0,1.171.508,2.2,2.2,0,0,1,.464.074,1.292,1.292,0,0,0,1.107-.108c.266-.164.552-.3.823-.452a2.84,2.84,0,0,0,1.374-1.936,2.661,2.661,0,0,1,.493-1.135,3.19,3.19,0,0,0,.659-1.5c.046-.232.133-.533-.161-.747M49.3,52.77c.211.059.437-.061.579.2v.61a2.952,2.952,0,0,1-.945.769,3.891,3.891,0,0,1-1.086.473,11.884,11.884,0,0,1-1.544.45,2.486,2.486,0,0,1-1.124.119,1.314,1.314,0,0,0-.567.061,17.948,17.948,0,0,0-2.011.295,1.355,1.355,0,0,1-.7.051,3,3,0,0,0-.918.131.772.772,0,0,1-.4.007,4.278,4.278,0,0,0-1.155-.286c-.563-.1-1.111-.275-1.672-.386a3.48,3.48,0,0,1-.945-.533c-.166-.089-.338-.167-.511-.242a9.793,9.793,0,0,1-1.426-.733,6.237,6.237,0,0,0-.914-.492,6.347,6.347,0,0,0-.837-.226l-.354-.5a8.867,8.867,0,0,1,.868-1.593.774.774,0,0,0,.122-.223,1.356,1.356,0,0,1,.087-.244c.322-.454.639-.912.982-1.35a10.741,10.741,0,0,1,.841-.944,1.494,1.494,0,0,1,.481-.294c.546-.23,1.1-.442,1.65-.661a5.884,5.884,0,0,1,1.367-.3c.828-.119,1.652-.053,2.476-.092a.991.991,0,0,0,.447-.12.623.623,0,0,1,.6-.027c.449.183.89.392,1.349.545a4.4,4.4,0,0,1,1.569,1.01,11.1,11.1,0,0,1,1.808,1.991,1.1,1.1,0,0,0,.232.211,3.8,3.8,0,0,1,.362.3c.273.292.535.593.8.895a1.541,1.541,0,0,1,.5,1.128m-.235.343a2,2,0,0,1-.312-.217,1.866,1.866,0,0,1-.436-.565,4.57,4.57,0,0,0-.907-1.336c-.132-.177-.258-.357-.35-.484a7.056,7.056,0,0,1-.663-.674,5.183,5.183,0,0,0-1.714-1.571,3.143,3.143,0,0,0-.914-.348c-.012.077-.043.14-.025.175a2.737,2.737,0,0,1,.226.953,9.273,9.273,0,0,1,.181,1.971.61.61,0,0,0,.026.313,1.905,1.905,0,0,1,.083.935c0,.168-.1.342-.091.507a2.735,2.735,0,0,1-.6,1.74,2.649,2.649,0,0,0-.172.386c.331-.037.606-.048.874-.1a15.524,15.524,0,0,1,1.984-.393,7.421,7.421,0,0,0,2.349-.919,2.458,2.458,0,0,0,.464-.374m-10.33-5.457a2.287,2.287,0,0,0-.283.065,12.973,12.973,0,0,0-1.52.641,3.265,3.265,0,0,0-1.367,1.186,2.748,2.748,0,0,1-.362.569,5.946,5.946,0,0,0-.858,1.4c-.024.046-.041.094-.057.132l.115.393-.224.348a8.808,8.808,0,0,0,.854.65,5.188,5.188,0,0,0,1.223.579,3.21,3.21,0,0,1,.659.282c.275.145.527.332.8.489a1.886,1.886,0,0,0,1.476.134c-.026-.115-.045-.234-.079-.349-.157-.53-.358-1.044-.483-1.586a4.027,4.027,0,0,1-.2-1.174.874.874,0,0,0-.016-.262,3.662,3.662,0,0,1,.015-1.812,4.012,4.012,0,0,0,.223-1.435c-.006-.056.039-.117.085-.247m4.61,7.734h.034c0-.039,0-.078,0-.117,0,0-.02,0-.03,0,0,.04-.005.08-.008.12m-33.031-4.8c.184-.453.376-.954.59-1.445a4.528,4.528,0,0,1,.921-1.555c.111-.106.184-.251.287-.367a2.786,2.786,0,0,1,.742-.66c.353-.188.669-.452,1.032-.612a2.847,2.847,0,0,1,2.019-.3.67.67,0,0,0,.353-.039,3.325,3.325,0,0,1,2.633.272,2.339,2.339,0,0,0,.626.239,1.414,1.414,0,0,1,.667.384,3.251,3.251,0,0,0,1.467.759,2.224,2.224,0,0,1,1.439.944c.05.086.157.138.235.208.2.176.4.339.582.532.213.231.4.487.571.7.425.087.425.087.671.343v.882a3.422,3.422,0,0,1-1.766,2.332H23c-.344.242-.689.482-1.032.725a6.069,6.069,0,0,1-1.346.673,7.893,7.893,0,0,0-.841.443l-.372-.284a.339.339,0,0,0-.1-.013,2.776,2.776,0,0,1-.361.055q-1.589.007-3.179,0a.748.748,0,0,1-.311-.034A9.238,9.238,0,0,1,13.3,53.638a9.993,9.993,0,0,0-1.058-.668,4.756,4.756,0,0,1-.8-.588,3.319,3.319,0,0,0-1.03-.7,6.734,6.734,0,0,1-.6-.343c-.043-.5-.018-.541.506-.749m.924.67a.255.255,0,0,0,.064.142A8.021,8.021,0,0,0,13.3,53.014a16.228,16.228,0,0,0,2.075.936,4.22,4.22,0,0,0,1.153.218c.244.02.26-.007.352-.355a7.812,7.812,0,0,1-1.445-2.676,6.551,6.551,0,0,1-.359-2.525c.006-.088-.01-.178,0-.265a3.052,3.052,0,0,1,.111-.61,3.929,3.929,0,0,1,.65-1.29,1.473,1.473,0,0,0,.125-.246c-.369.037-.687-.072-.985.066a4.5,4.5,0,0,0-.952.535,2.677,2.677,0,0,1-.765.446,1.28,1.28,0,0,0-.626.527c-.257.372-.43.791-.713,1.153a4.633,4.633,0,0,0-.5,1.018,1.326,1.326,0,0,0-.065.356c-.036.274-.068.548-.118.959m10.044,2.159a13.1,13.1,0,0,0,2.525-1.761l.464-.124.248-.814a1.618,1.618,0,0,0-.544-.869,4.4,4.4,0,0,1-.577-.618,5.112,5.112,0,0,0-2.031-1.52c-.06-.03-.155.009-.256.018l.716,1.343a4.307,4.307,0,0,1,.138.612,4.389,4.389,0,0,1-.317,2.156,10.33,10.33,0,0,0-.368,1.576" transform="translate(0 0)"/>
      </g>
    </g>
    <rect id="Rectangle_149" data-name="Rectangle 149" class="cls-1" width="122" height="145" transform="translate(348 418)"/>
  </g>
</svg>
