<svg id="Group_281" data-name="Group 281" xmlns="http://www.w3.org/2000/svg" xmlns:xlink="http://www.w3.org/1999/xlink" width="67.952" height="85.673" viewBox="0 0 67.952 85.673">
  <defs>
    <style>
      .cls-1 {
        fill: none;
      }

      .cls-2 {
        clip-path: url(#clip-path);
      }

      .cls-3 {
        fill: #fff;
        fill-rule: evenodd;
      }
    </style>
    <clipPath id="clip-path">
      <rect id="Rectangle_166" data-name="Rectangle 166" class="cls-1" width="67.952" height="85.673"/>
    </clipPath>
  </defs>
  <g id="Group_280" data-name="Group 280" class="cls-2">
    <path id="Path_191" data-name="Path 191" class="cls-3" d="M21.166,27.985a5.81,5.81,0,0,1-1.28.207l-.236.08a4.093,4.093,0,0,0-.62.014c-.053.08-.37.014-.542.053a8.931,8.931,0,0,1-1.409.02,16.709,16.709,0,0,1-1.834-.164c-.44-.1-.847-.367-1.284-.483-.158-.042-.316,0-.473-.036a4.7,4.7,0,0,1-1.95-1.178,5.768,5.768,0,0,1-.508-.815c-.529-.8-.921-1.837-1.358-2.533l-.543-1.494c-.223-.363-.251-.738-.471-1.091l-.171-.5a9.255,9.255,0,0,1-.844-2.28c-.015-.227.1-.319.116-.435.023-.211-.065-.379-.034-.581.079-.509.142-1.064.255-1.569a7.74,7.74,0,0,0,.482-1.58,1.7,1.7,0,0,1-1.536.228c-.2-.083-.375-.247-.573-.331a2.141,2.141,0,0,1-.742-.438l-.141-.314c-.129-.2-.49-.769-.43-.972,0-.16.088-.129.146-.248s-.01-.313.046-.444c.119-.277.366-.284.568-.457.061-.052.05-.139.127-.208.239-.214.4-.139.7-.272a2.822,2.822,0,0,1,1.784.116c.137.048.271.174.405.224a1.86,1.86,0,0,1,1.04.633l.059-.02a4.323,4.323,0,0,1,.713-.9c.054-.064.058-.2.107-.267.1-.13.211-.185.323-.308.094-.1.165-.283.263-.386.336-.352.72-.672,1.077-.993.088-.079.178-.031.236-.08A10.1,10.1,0,0,1,15.69,6.442c.132-.044.288-.149.373-.16a2.425,2.425,0,0,0,.422-.21l.462-.191a4.354,4.354,0,0,1,.766-.36c.429-.165,1.329-.374,1.829-.624a2.113,2.113,0,0,1,.374-.062c.095-.014.122-.1.255-.12.307-.036.544-.141.965-.165a2.374,2.374,0,0,0,.876-.134c.267.027.492-.076.837-.055a6.4,6.4,0,0,0,1.115.08,5.154,5.154,0,0,1,.882-1.948,6.475,6.475,0,0,0,.369-.751c.06-.1.168-.153.245-.248a5.529,5.529,0,0,1,.655-.783c.5-.42,1.737-.946,2.233-.6a2.817,2.817,0,0,1,.635.606,1.761,1.761,0,0,1,.192.659,6.762,6.762,0,0,1,.1.689c-.008.316-.1.685-.121,1a9.576,9.576,0,0,1-.2,1.648c-.035.138.013.264-.027.4s-.133.308-.174.454l.011.128c-.139.223-.5.162-.539.447a7.714,7.714,0,0,1,2.436,1.639c.261.231.625.411.882.654a13.171,13.171,0,0,1,1.573,2.2c.172.254.189.475.351.737a8.254,8.254,0,0,1,.937,4.29l.071.4a24.143,24.143,0,0,1-.04,2.582,10.851,10.851,0,0,1-1.537,4.179,11.242,11.242,0,0,1-2.456,2.452c-.056.051-.659.335-.726.379-.368.238-.744.4-1.069.629-.169.117-.439.2-.451.319-.05.2.2.527.271.7a7.475,7.475,0,0,0,.712,1.7,2.473,2.473,0,0,1,3.109.717c.292.341.716,1.39,1.124,1.362.155-.2.435-.282.637-.448.157-.129.307-.363.46-.486.183-.148.286-.093.452-.22.429-.329,1.117-.63,1.56-.928.329-.22.672-.193,1.012-.411.5-.318,1.171-.728,1.678-1.066.185-.124.488-.219.726-.38a5.605,5.605,0,0,1,1.7-.81c.319-.043.634-.33.855-.292a7.582,7.582,0,0,1,1.769-.7l.551-.024c.1.022.272.13.307.126.1-.216.032-.449.093-.691.081-.313.194-.613.269-.948a4.8,4.8,0,0,1,1.718-2.3c.185-.137.375-.123.55-.22a4.652,4.652,0,0,1,.795-.469.863.863,0,0,1,.662.2c.354.224.4,1.107.464,1.455l.059-.02c.076-.189.291-.188.441-.348.68-.726,1.219-.609,2.126-.331.239.074.742.236.822.576a3.3,3.3,0,0,1-.762,2.4l.02.059.088-.03c.079-.147.355-.358.451-.319a2.328,2.328,0,0,1,1.573-.6c.092.014.213.071.326.086l-.01.069c.263-.138,1.148.442,1.072,1.017a3.013,3.013,0,0,1-.485,1.087c-.039.065-.027.2-.077.257l-.167.09c-.1.136-.116.372-.223.5a5.454,5.454,0,0,0-.712,1.1l.03-.01-.02.04c-.11.184-.339.435-.4.564l.03-.01-.02.039a.778.778,0,0,1-.215.238c.028.054.021.12.05.148.155.013.343-.17.56-.191a4.078,4.078,0,0,1,2.643.217c.184.128.829.46.7.882-.016.3-.248.392-.449.614l-.048.148a2.742,2.742,0,0,0-.588.4h-.2c-.233.274-.732.277-1.061.461l.02.06A2.222,2.222,0,0,1,56.9,32.746a1.95,1.95,0,0,1,.054,1.991l-.039-.02.01.029.029-.01-.019.039a1.958,1.958,0,0,1-.42.506c-.086.076-.173.055-.2.1.034.022.014,0,.05.049a1.737,1.737,0,0,0-.422.21,1.935,1.935,0,0,1-.818.114,3.511,3.511,0,0,1-.856.193,1.663,1.663,0,0,1-.3-.1l-.246.051c-.09-.007-.209-.088-.3-.1-.117-.011-.21.056-.276.061-.163.013-.34-.016-.532-.016-.314,0-.3.13-.581.132A4.853,4.853,0,0,1,51,35.912a.791.791,0,0,1-.374.062c-.519-.089-1.115-.274-1.589-.314-.1-.008-.223-.11-.336-.116-.13-.007-.184.046-.315.042s-.22-.1-.385-.066a4.789,4.789,0,0,1-.853.588c-.156.117-.342.31-.509.437h-.1c-.191.156-.494.371-.735.547l-.285.13a35.472,35.472,0,0,0-2.634,2.413c-.042.04-.211.089-.3.17-.466.407-1.074.766-1.568,1.194l.02.059a4.059,4.059,0,0,1,1.7,1.131c.164.183.244.383.417.549,1.045,1,1.944,2.005,2.94,3.113.333.371.8.681,1.17,1.016.759.69,1.409,1.481,2.173,2.123.089.074.105.171.189.264.124.138.334.23.456.372a9.516,9.516,0,0,0,1.172,1.312c.488.383,1.035.715,1.525,1.093.26.2.427.488.695.685A3.593,3.593,0,0,1,53.9,53c.26.265.4.534.647.833.071.085.207.156.277.235.352.391.62.835.945,1.225.128-.052.389-.111.513.055.194.156.216.557.37.8l.6.883c.306.34.677.715.964,1.087l.718,1.237c.71.81,1.465,1.553,2.166,2.389.312.372.478.809.816,1.137a5.04,5.04,0,0,0,.821.477c.183.123.595.621.734.606s.186-.093.3-.1c-.024-.11-.039-.069.018-.138.016.076-.015.021.03.089.073-.056.021-.075.058-.118.1-.123.294-.086.373-.161.032-.03,0-.1.018-.138.026.01.1.056.138.019a3.694,3.694,0,0,1,.8-.637c.086-.029.107-.121.146-.149l.59-.2c.088,0-.007.023.079.039.026-.017,0-.027.029-.01s.04.042.07.108c-.013.039-.008.012-.009.069-.163.17-.191.363-.46.486l.03.088-.059.02c-.078-.01-.176.2-.205.169l-.03.01c-.034.078-.019.194-.077.257l-.118.04-.117.238.06.078c.279-.245.685-.283.972-.529a.383.383,0,0,1,.374-.061c.036.026.04.042.07.108a.221.221,0,0,0-.019.138c-.154.126-.6.5-.576.723.416-.151.937-.584,1.277-.6-.014-.079-.033-.041.068-.089.064,0,.122-.091.246-.051,0,0-.113.053-.049.049l.029-.01.01.03c.034-.049.014-.04.068-.089l.06.177c-.066.062-.062-.008-.068.089a.091.091,0,0,1,.04.118c-.057-.1-.026-.081-.129-.088a.7.7,0,0,1-.087.227c-.036-.046-.015-.027-.05-.049a.538.538,0,0,1-.018.138l-.079-.039c-.024.09-.014.132-.068.188l-.039-.019.03.088-.158.021c-.042.04-.014.129-.038.178l-.03.01a2.547,2.547,0,0,0-.235.179c0,.01.007.02.01.03l-.029.01.04.118a3.471,3.471,0,0,1,1.119-.579l.071.206c-.014.038-.008.012-.01.069l-.069-.009.01.029c.024.015.043-.013.049.049l-.029.01c-.169-.084-.276.157-.333.279l-.079-.039a.383.383,0,0,1,.011.128c-.1.026-.1.066-.206.071l.039.019c.064,0-.049.05-.049.05l-.04-.02c0,.01.007.02.01.03l.03-.01-.02.039c-.258.388-.544.476-.812.8,0,.033,0,.066,0,.1-.079.118-.216.157-.264.288-.116.352.231,1.01.049,1.4-.049.106-.173.149-.245.248-.029.039.015.13-.008.167-.065.1-.184.053-.275.16a3.976,3.976,0,0,1-.715.7,3.833,3.833,0,0,0-.755.488c-.235.253-.107.738-.516.9-.174.265-.555.3-.893.568-.43.342-.98.628-1.5,1.006a3.229,3.229,0,0,1-.794.567,3.046,3.046,0,0,0-.559.388l-.972.529c-.124.094-.309.256-.441.348-.166.116-.325.179-.412.24l-.187.03c-.447.338-1.1.628-1.443.888a6.391,6.391,0,0,1-1.415.483c-.2.02-.55-.025-.67.064a2.551,2.551,0,0,1-1.146-.465,6.318,6.318,0,0,0-.476-.43,7.565,7.565,0,0,1-1.843-1.445l-1.963-3.051c-.314-.41-.734-.793-1.063-1.185-.261-.311-.418-.65-.687-.951a7.763,7.763,0,0,0-.843-.733,4.17,4.17,0,0,1-.378-.431c-.3-.327-.687-.64-.993-.978a12.24,12.24,0,0,1-.985-1.245c-.3-.432-.453-.851-.757-1.256-.224-.3-.526-.549-.726-.872l-.03.01a12.985,12.985,0,0,1,.073,1.951c0,.534.071,1.039.11,1.576l.152.541c.072.654.422,1.376.527,2.026.028.174.226.411.251.639a2.945,2.945,0,0,0,.382,1.022l.222.649c.094.156.222.448.3.589a2.032,2.032,0,0,1,.1.492l.191.56a1.461,1.461,0,0,0,.142.61,1.918,1.918,0,0,1,.2.688l.242.708c.139,1.321.792,3.138.483,4.214-.091.314-.57.694-.831.942-.4.383-.816.845-1.262,1.221l-.728.281a4.665,4.665,0,0,1-1.594.347c-.218.026-.5.419-.834.548a.779.779,0,0,1-.11-.226.264.264,0,0,0-.021-.157.436.436,0,0,0-.128.011c-.123.158-.433.114-.7.271-.238.141-.726.39-1.168.629-.107.058-.235.02-.335.081-.071.043-.229.193-.284.229-.073.048-.177-.057-.286.032-.035.028-.027.083-.088.129-.063-.06.006-.024-.079-.039-.248-.043-.828.561-1.227.748a7.667,7.667,0,0,1-.963.362,3.778,3.778,0,0,1-1.689-.51l-.029.01c.01.065.012.06,0,.1a.33.33,0,0,0-.09-.167c-.038-.014-.012-.008-.069-.01-.088.129-.386.432-.549.418-.095.1-.229.283-.332.377l-.148.05-.048.148a3.888,3.888,0,0,1-1.038.914.532.532,0,0,1-.14-.216,2.393,2.393,0,0,0,.41-.634l-.013-.325c.051-.155.194-.173.224-.405l-.088.03a2.083,2.083,0,0,1-.991.569c-.078-.063-.1-.048-.159-.176.014-.038.008-.011.01-.069.162-.141.788-1.009.75-1.277l-.059.02a4.7,4.7,0,0,1-1.236.915c-.056-.041-.075-.03-.129-.088s-.037-.061-.05-.148c.288-.249.363-.6.595-.862.133-.149.266-.195.411-.338.1-.1.136-.24.283-.327l-.04-.118a.208.208,0,0,0,.167-.09c.011-.039.008-.034,0-.1l-.029.01c-.127.152-.371.145-.648.32-.3.189-.772.451-.981.6-.146.1-.258.235-.432.18-.039-.03-.051-.064-.08-.138.014-.038.008-.012.01-.069a4.927,4.927,0,0,0,1.45-1.252c.049-.068.049-.2.106-.267.181-.213.412-.311.578-.526.1-.131.182-.319.273-.455.059-.09.171-.12.225-.208l.077-.257c.088-.111.251-.089.285-.13.178-.274.057-.69.19-.987.024-.054.1-.029.138-.08.07-.1.063-.274.135-.376l.108-.07a1.467,1.467,0,0,0,.057-.316c.052-.2.176-.405.222-.6l-.03-.088c.078-.214.319-.377.311-.633a6.354,6.354,0,0,0-.972-2.27l-.151-.442-.251-.639a3.018,3.018,0,0,0-.3-.983,2.217,2.217,0,0,1-.4-.786c-.082-.731-.4-1.357-.458-2.017-.042-.475-.337-.639-.392-1.15-.027-.244-.215-.678-.283-1.023l-.141-.314a10.4,10.4,0,0,0-.274-1.19l-.3-.885a.626.626,0,0,0,.008-.266c-.5-.141-.4-.822-.65-1.326a5.384,5.384,0,0,1-.364-2.609,10.025,10.025,0,0,0-.216-1.211,6.635,6.635,0,0,0-.3-1.18c-.032-.1-.122-.164-.141-.314-.023-.189-.135-.43-.152-.639-.015-.176-.014-.429-.043-.611-.005-.03-.078-.091-.09-.167-.039-.236-.157-.486-.193-.757-.041-.314-.435-.659-.481-1.12-.029-.3-.077-.6-.115-.916-.023-.191-.308-.646-.341-.9-.06-.467-.193-.978-.238-1.467l-.172-.7a24.992,24.992,0,0,0-1.262-5.53l-.108-.029c.018.079.032.048-.1.1-.067.116-.444.133-.717.212a10.729,10.729,0,0,1-1.171.235c-.058-.028-.008.064-.01.069a3.453,3.453,0,0,1-.472.161,3.137,3.137,0,0,0-.629.182,8.522,8.522,0,0,1-2.538.668c-.289.043-.542.257-.973.332a16.951,16.951,0,0,1-2.431.5,1.851,1.851,0,0,0-.778.134c-.071,0-.2-.074-.257-.077-.024,0-.067.082-.138.08a8.056,8.056,0,0,1-1.233-.139c-.077-.014-.132.032-.2,0-.042-.019-.067-.111-.109-.127-.182-.068-.375-.006-.533-.115a2.228,2.228,0,0,1-.456-.371c-.146-.185-.149-.543-.291-.659.089.617-.142.758-.347,1.205-.078.171-.052.349-.114.533a4.215,4.215,0,0,1-1.7,1.865c-.1.043-.386.11-.5.171a1.249,1.249,0,0,1-.513.043.274.274,0,0,0-.167.09,1.3,1.3,0,0,1-1.228-.8,2.067,2.067,0,0,1-.2-.393c-.022-.148.11-.27.125-.4l-.177.061c-.166.214-.562.3-.835.45A3.021,3.021,0,0,1,5,49.505c-.229.027-.456.232-.668.261a2.562,2.562,0,0,1-1.174-.06c-.294-.092-.951-.583-.815-1.039,0-.537.566-.757.819-1.169a1.687,1.687,0,0,1-.826.183c-.138-.033-.295-.18-.435-.214a2.665,2.665,0,0,1-1.127-.406c-.1-.079-.1-.195-.2-.294s-.5-.522-.518-.745c0-.018.036-.076.029-.109-.019-.089-.105-.125-.08-.236.051-.22.339-.295.539-.447a16.5,16.5,0,0,1,1.972-1.266l-.02-.059A2.485,2.485,0,0,1,.7,43.17a1.155,1.155,0,0,1-.146-1.2,1.98,1.98,0,0,1,1.011-.51,4.079,4.079,0,0,0,.658-.389,4.585,4.585,0,0,1,.757-.193l-.02-.059c-.564-.308-1.221-1.914-.816-2.488A3.828,3.828,0,0,1,4.409,37.26l.2-.1.079.039.423-.112.089.068c.155.021.243-.028.394,0s.288.154.425.184c.528.116,1.016.19,1.53.334.235.065.37.3.575.429.045.029.121-.014.168.009.063.031.08.125.149.146.211.067.42.043.631.114l.139.117c.155.051.309.049.464.105l.139.117c.2.036.337-.188.58-.231a1.468,1.468,0,0,0,.382-.229l.442-.151a2.485,2.485,0,0,1,1.053-.293c.078-.008.2-.117.354-.121.469-.013.868-.03,1.241-.029a2.455,2.455,0,0,0,.335-.082c.325.007.7.132,1.036.141a1.859,1.859,0,0,0,.423-.111,2.963,2.963,0,0,0,.876-.134,2.327,2.327,0,0,1,.816-.311,9.713,9.713,0,0,0,1.418-.188,2.952,2.952,0,0,0,.451-.22l.8-.272c.364-.224.653-.451.99-.667a4.549,4.549,0,0,1,1.219-.383,6.41,6.41,0,0,0-.046-1,6.193,6.193,0,0,1-.133-.679,3.781,3.781,0,0,1,.1-.395,2.978,2.978,0,0,1,.648-1.768l.461-.289a2.663,2.663,0,0,1,.245-.248l.659-.192-.01-.029c-.155-.094-.089-.339-.221-.551a5.8,5.8,0,0,1-.571-1.287c-.054-.164-.052-.614-.123-.65-.263-.05-.5.194-.777.232-.533.074-1.119.22-1.323-.4.052-.071.054-.067.038-.178M1.134,46.478l.088-.03a1.642,1.642,0,0,0,.751.27,3.066,3.066,0,0,0,.652.173l1.219-.383a1.682,1.682,0,0,0,.541-.152,6.725,6.725,0,0,1,1.72-.653l.157-.12a1.789,1.789,0,0,1,.345-.052c.1-.015.289-.207.422-.21.058,0,.219.025.305.027.174.172.285.556.084.728-.158.252-.959.488-1.414.681a4.489,4.489,0,0,0-.453.121,8.207,8.207,0,0,0-2.519,1.979c.007.02.014.039.02.059.074.026.111.11.179.136s.146-.023.226-.011a3.222,3.222,0,0,0,1.231-.157,5.11,5.11,0,0,0,1.7-.81c.219-.139.526-.15.786-.3a13.448,13.448,0,0,1,1.7-.81c.089.065.11.046.169.206.111.088.053.247.062.374a2.13,2.13,0,0,1-.254.317c-.11.087-.215.078-.3.17-.239.245-.439.558-.713.8-.176.157-.508.27-.479.526.081.046.139.155.228.186A2.131,2.131,0,0,0,9.45,49.04c.091-.1.205-.321.283-.426l.138-.08a4.9,4.9,0,0,0,.322-.406A4.574,4.574,0,0,0,10.5,47.2c.069-.213.292-.4.35-.613.009-.167.017-.335.026-.5a.927.927,0,0,1,.444.046l-.251-.737a1.258,1.258,0,0,1-.123-.551c-.026-.327-.224-.757-.244-1.1-.048-.85-.366-1.57-.392-2.4l-.2-.491a5.951,5.951,0,0,0-.266-1.358c-.2,0-.359-.158-.533-.213a5.267,5.267,0,0,1-.968-.23c-.18-.118-.269-.3-.447-.44s-.45-.085-.652-.173a6.089,6.089,0,0,0-.938-.24A3.364,3.364,0,0,0,5.2,37.944a5.127,5.127,0,0,0-1.946.664c-.206.142-.52.215-.5.467a1.136,1.136,0,0,0,.4.884c.362.315.8.2,1.3.247.135.012.327.091.464.105.316.033.788-.064.948.269.149.127-.017.478-.055.612-.4.013-.706.207-1.072.234a5.514,5.514,0,0,0-1.446.3,2.146,2.146,0,0,0-.758.192,7.464,7.464,0,0,1-1.346.591.346.346,0,0,1-.029.108,1.586,1.586,0,0,0,.82.379,6.745,6.745,0,0,0,2.6.1,5.71,5.71,0,0,0,.944-.223c.156-.022.326-.153.453-.121s.232.2.3.392c-.071.116-.036.274-.135.376-.243-.022-.834.413-1.15.491a6.085,6.085,0,0,0-.963.361c-.3.152-.865.153-1.19.373s-.732.508-1.04.717l-.354.121a2.592,2.592,0,0,1-.637.448c.086.2.221.273.319.451M.975,46.2c-.007-.02-.014-.039-.02-.059l.029-.01c0,.058,0,.031-.009.069m.119.157-.02-.059.03-.01c0,.058,0,.03-.01.068m24.011-2.1c.158.364.148.709.274,1.092A26.467,26.467,0,0,1,26.751,51.1q.065.24.132.482.113.62.226,1.24.161.472.322.944a4.62,4.62,0,0,0,.5,1.77,5.325,5.325,0,0,1,.343,1.1.95.95,0,0,1-.007.364,4.034,4.034,0,0,0,.163.768l.11.226a5.369,5.369,0,0,1,.323,1.042c.041.4.219.841.236,1.269.02.523.06,1.2.1,1.744.008.1.1.2.12.255.171.457.224.859.384,1.318l.211.521c0,.145-.021.288-.017.433.006.217.134.3.151.442l.33.776c.05.388.2.835.264,1.16l.151.344a8.829,8.829,0,0,1,.464,1.553l.12.255a8.932,8.932,0,0,0,1.048,3.166l.494,1.544c.117.192.17.476.3.688a5.876,5.876,0,0,1,.59,1.247l.292.855c.015.638-.729,1.045-.826,1.73.058,0,.031,0,.069.01a1.644,1.644,0,0,1,.581-.132,2.905,2.905,0,0,0,.61-.241,3.941,3.941,0,0,1,.9-.174c.079-.008.208-.116.285-.13.261-.048.447-.1.65-.123.049-.005.244-.119.344-.15a3.078,3.078,0,0,1,.747-.222,1.094,1.094,0,0,1,.432-.18,3.643,3.643,0,0,0,.855-.292c.066-.036.179,0,.305-.071a.9.9,0,0,1,.314-.14,7.07,7.07,0,0,0,1.671-.6c.056-.033.113,0,.217-.041.214-.088.488-.176.668-.261.61-.29,1.23-.17,1.741-.495.261-.167.76-.264.785-.4.07-.307-.29-.918-.344-1.3a12.386,12.386,0,0,0-.967-2.93A6.67,6.67,0,0,1,42.6,68.78c-.035-.348-.241-.678-.273-.994l-.3-.983a4.17,4.17,0,0,1-.141-.511c-.03-.323-.073-.694-.076-.995s-.029-.566-.055-.837c-.011-.109-.1-.124-.091-.266s.106-.393.124-.6a10.469,10.469,0,0,0-.109-1.477c-.019-.258-.184-.592-.025-.749l.295-.1c.043.011.154-.013.2,0,.509.005.682.518,1,.909.5.613,1.078,1.281,1.552,1.94l.22.452c.214.284.513.582.745.832.445.479.76,1,1.213,1.43a14.294,14.294,0,0,1,1.318,1.065c.217.261.307.578.538.8a10.933,10.933,0,0,1,1.093,1.175c.561.748.941,1.6,1.534,2.276.548-.311,1.291-.741,1.816-1.048.141-.082.551-.182.668-.261a7.675,7.675,0,0,0,.637-.448c.177-.151.35-.425.528-.575l.334-.18c.194-.166.432-.4.626-.576.1-.085.194-.08.3-.17.293-.235.6-.586.871-.824.371-.323.892-.4,1.218-.679.142-.123.317-.363.46-.486l.628-.379c.168-.129.375-.347.529-.477.137-.115.483-.255.55-.319a2.788,2.788,0,0,1,.863-.558l-.01-.03-.029.01.019-.039c.024-.033.022-.027.079-.06.02.059-.027.018.02.059l-.01-.03c.029-.052,0-.107.137-.178.027.082-.012.076.118.058l-.01-.03c-.065.01-.059.012-.1,0a2.134,2.134,0,0,0,.51-.339c.02.06-.027.019.02.059l.077-.158.109.029c-.028-.078-.021-.042.058-.118-.313-.544-.966-.648-1.358-1.084-.5-.556-.845-1.171-1.323-1.755s-1.074-1.137-1.57-1.7c-.422-.483-.638-1.225-1.047-1.717-.24-.289-.579-.642-.815-.94-.1-.127-.133-.4-.241-.511l-.306-.126c-.095-.079-.018-.142-.081-.236-.155-.235-.45-.46-.625-.675-.557-.682-.947-1.436-1.533-2.079a4.418,4.418,0,0,0-.625-.478l-.09-.167c-.265-.23-.548-.522-.843-.734-.314-.226-.727-.414-1.02-.673a25.6,25.6,0,0,1-1.867-2c-.268-.292-.639-.557-.912-.841-.753-.784-1.508-1.517-2.273-2.221a19.9,19.9,0,0,1-1.678-1.831c-.154-.181-.4-.336-.566-.5s-.21-.33-.368-.5c-.219-.236-.52-.471-.734-.7q-.075-.122-.149-.245a4.137,4.137,0,0,0-1.3-1.006c-.158-.078-.335-.339-.515-.351-.037.071,0,.063-.078.06a.47.47,0,0,1-.435-.116.364.364,0,0,1-.17-.3c.13-.064.1-.117.166-.188.113-.113.224-.085.285-.13.093-.07.2-.239.323-.308a17.713,17.713,0,0,0,3.478-2.834c.158-.154.367-.2.539-.348.135-.118.3-.33.44-.447.205-.165.473-.282.648-.419l.285-.13c.274-.2.567-.492.813-.706l.177-.06c.169-.117.435-.292.529-.378.269-.247.553-.226.389-.693-.092-.076-.1-.274-.17-.4-.152-.263-.359-.984-.6-1.375L47,32.108c-.129-.211-.178-.519-.33-.776a8.966,8.966,0,0,1-.953-2.309,5.137,5.137,0,0,0-.706-2.163c-.166-.264-.178-.593-.341-.806a5.2,5.2,0,0,0-1.573.6l-.187.031c-.375.211-1.078.276-1.524.553-.2.124-.609.264-.844.42-.775.511-1.553.934-2.276,1.435a6.392,6.392,0,0,1-.667.36l-.453.121c-.259.2-.737.32-1.168.629-.375.269-.78.556-1.137.816-.127.093-.211.082-.334.18a4.771,4.771,0,0,1-1.156.856c-.111-.054-.315-.043-.405-.125-.191-.175-.24-.4-.408-.618-.114-.145-.3-.3-.417-.45-.244-.321-.361-.787-.648-1.031a2.716,2.716,0,0,0-.485-.263l-.218-.156c-.494-.116-1.186.248-1.6.317a2.363,2.363,0,0,1-.347-.244l-.09-.167c-.058-.051-.2-.09-.247-.146q-.176-.417-.351-.835c-.187-.31-.323-.947-.563-1.455a7.29,7.29,0,0,1-.776.232,6.111,6.111,0,0,1-1.692.445c-.541.047-.848.4-1.287.473l.02.059c.033.024.027.021.06.078.082-.029.052-.056.118.058-.25.847.726,1.723.856,2.606-.095.085-.207.138-.255.219.051.027.058.039.1.1-.075.057-.077.132-.137.178-.191.148-.311.024-.472.161a2.824,2.824,0,0,0-1.19,1.723,5.882,5.882,0,0,0,.01,1.281c.03.4.238.833.136,1.172-.026.088-.136.172-.176.258a1.747,1.747,0,0,1-.59.2.9.9,0,0,0-.433.082,8.564,8.564,0,0,1-4.089,1.527c-.438.021-.7.366-1.15.392-.42.025-.871.166-1.359.167-.314,0-.653-.11-.966-.131a5.405,5.405,0,0,0-.66.093c-.225.014-.538,0-.759,0-.252,0-.548.114-.778.133a9.487,9.487,0,0,0-1.512.681.328.328,0,0,0,0,.2c-.03.12.05.219.062.374.027.36.169.8.216,1.211l.232.777c.011.106.03.3.042.414l.141.413c.036.347.073.738.106,1.083.034.1.067.2.1.3.051.444.258.986.316,1.407l.12.255c.221.523.358.919.542,1.4.219.059.431.218.653.272a5.139,5.139,0,0,0,.926.013,5.314,5.314,0,0,0,2.648-.442,1.45,1.45,0,0,1,.473-.063,3.921,3.921,0,0,0,.8-.272,2.776,2.776,0,0,1,.4-.072c.247-.036.455-.21.747-.222a2.4,2.4,0,0,0,.571-.063l.068-.089a4.492,4.492,0,0,0,.482-.131,4.273,4.273,0,0,1,.944-.322c.236-.034.217-.133.4-.171.635-.13,1.1-.223,1.87-.407a2.192,2.192,0,0,0,.825-.38c.034-.03.079-.146.107-.169,0,0,.639-.092.718-.113M5.893,11.794c.26.213.285.734.529.972a2.641,2.641,0,0,0,1.186.484c.22.012.327-.118.462-.191a3.367,3.367,0,0,1,.443-.052l.188.167a9.154,9.154,0,0,1,.506-1.029c.127-.184.3-.263.2-.563a3.471,3.471,0,0,1-.565-.5c-.142-.118-.4-.127-.563-.2A2.93,2.93,0,0,0,7.2,10.593a2.448,2.448,0,0,0-1.138.619,1.367,1.367,0,0,0-.164.583m2.53,6.546a13.037,13.037,0,0,0,1.043,2.476c.174.272.207.623.361.865l.522,1.435c.211.338.408.717.619,1.04.177.271.2.541.37.8a7.163,7.163,0,0,0,1.273,1.607,4.055,4.055,0,0,0,1.719.6c.281.074.536.279.81.349a14.011,14.011,0,0,0,2.5.269,1.792,1.792,0,0,0,.758-.095,4.787,4.787,0,0,0,1.281-.107,16.047,16.047,0,0,0,2.873-.651c.151.113.28.088.377.332-.065.075-.058.139-.127.208-.185.238-.985.351-1.268.433l.02.059a.38.38,0,0,1,.089.068c.213-.043.466-.026.61-.044.023,0,.089-.093.1-.1a2.669,2.669,0,0,1,.629-.182l1.169-.432c.061-.041.092-.11.216-.14.449-.11,1-.216,1.417-.286a2.878,2.878,0,0,0,.56-.29c.026-.014.875-.259.994-.273.581-.439,1.4-.862,1.9-1.176a4.406,4.406,0,0,0,.619-.31,2,2,0,0,0,.215-.238l.353-.219a9.3,9.3,0,0,0,1.253-1.152c.217-.276.413-.6.614-.9a7.061,7.061,0,0,0,.271-.653c.049-.092.179-.141.216-.238a12.748,12.748,0,0,0,.879-3.79c.029-.463-.092-.857-.1-1.349,0-.166.035-.4.035-.572l-.06-.177a9.389,9.389,0,0,0-1.695-5.448,6.875,6.875,0,0,0-.8-1.078,12.488,12.488,0,0,0-4.484-2.718l-.762-.4a10.76,10.76,0,0,0-2.735-.778l-1.122.086-.423.112a8.079,8.079,0,0,0-2.587.619,10.948,10.948,0,0,0-1.976.773c-.265.157-.666.219-.963.362A14.954,14.954,0,0,0,13.9,8.14a6.97,6.97,0,0,0-.638.35A12.016,12.016,0,0,0,11.44,10.2c-.252.33-.47.736-.722,1.07A7.9,7.9,0,0,0,9.18,14c-.061.229-.254.47-.32.7-.123.432-.259.9-.336,1.333q0,.2,0,.394a4.63,4.63,0,0,0-.162.78,5.793,5.793,0,0,0,.244,1,1.749,1.749,0,0,1-.186.13M7.008,11.973a1.125,1.125,0,0,1,.457-.88c.146.127.262.32.417.45l.178.038a1.311,1.311,0,0,1,.4.785.558.558,0,0,0-.088.129.382.382,0,0,1-.2,0l-.078.158a1.413,1.413,0,0,1-.879-.358c-.1-.1-.11-.247-.209-.324M31.268,82l.059-.02-.01-.029-.059.02Zm1.059-2.107a.527.527,0,0,0,.086-.326l-.03.01c-.032.119-.084.158-.057.316m1.216,1.923c.074-.035.058-.019.009-.167l-.03.01L33.5,81.7l.04.118m.779,1.512c.1.007.076.039.079-.06l-.069-.01c0,.023-.006.046-.01.069M29.874,68.939l-.02-.059.03-.01c0,.058,0,.03-.01.069m-2.025-8.924c.014-.086-.019-.015.039-.079l.039.02.01.03-.089.03M12.922,16.277c-.366-.975.677-2.063,1.487-1.528.616.406.468,1.383.171,1.851-.11.173-.465.267-.707.34-.113-.073-.276-.087-.386-.164-.21-.149-.35-.362-.565-.5m8.434,20.369c-.007-.02-.014-.039-.02-.059l.059-.02c.007.02.013.039.02.059l-.059.02m3.14.805a.4.4,0,0,1-.041-.216c-.012-.185.04-.285.273-.357a2.765,2.765,0,0,0,.622.183c.23.077.408.317.614.449.238.152.345-.051.555.37a.733.733,0,0,0-.027.305c.115.148.3.151.464.2a2.521,2.521,0,0,0,1.431.236c.213-.027.514-.282.806-.341.826-.169,1.3-1.218,1.78-1.925l.145-.346a3.935,3.935,0,0,0,.642-1.207c.1-.323.1-.656.19-.987.032-.116.192-.2.224-.307.061-.2-.023-.322.135-.474a1.032,1.032,0,0,0,.286.067c.063.141.1.112.159.176.161.185.1.728.1.886.024.41.2.748.186,1.122-.016.547-.132,1.084-.176,1.607-.032.383.083.766.068,1.163a4.041,4.041,0,0,1-.852,2.135,2.452,2.452,0,0,1-1.757,1.126c-.164.024-.274.15-.482.132-.059,0-.183-.073-.257-.077s-.163.064-.177.06a6.988,6.988,0,0,1-2.751-1.6c-.233-.194-.382-.451-.616-.646a9.8,9.8,0,0,1-.942-.831c-.134-.146-.283-.32-.388-.46s-.1-.354-.22-.452m-5.389-17.72a3.647,3.647,0,0,1-.048-1.2,3.6,3.6,0,0,1,.761-1.149c.049-.048.135-.025.157-.021.055-.033.149-.152.275-.16.05,0,.078.056.138.018a2.34,2.34,0,0,1,1.121-.283c.878-.012,1.68-.129,2.221.526s.061,1.536-.2,1.914a3.2,3.2,0,0,1-1.028.943c-.126.068-.533.126-.689.2a1.508,1.508,0,0,1-.757.192.774.774,0,0,1-.475-.233c-.042-.04-.02-.093-.07-.108l-.187.031c-.088-.015-.222-.107-.307-.126-.135-.03-.249.03-.325.012-.241-.12-.358-.4-.585-.557m2.189,4.291c-.165-.494-.053-.545.3-.564.208-.01.127-.127.375.037a12.329,12.329,0,0,0,2.338-1.061c.157-.088.287-.01.5-.073l.268.2c.043-.04.028-.1.078-.06a1.535,1.535,0,0,1,.327.185c.059.46-.173.406-.28.722a4.472,4.472,0,0,1-1.221,1.635c-.124.1-.377.085-.541.151l-.4-.194c-.079-.015-.134.039-.2,0l-.07-.108c-.146-.093-.357-.121-.5-.223-.165-.114-.286-.263-.455-.372-.1-.064-.267-.03-.366-.106-.071-.054-.087-.136-.159-.176m5.448,15c.262.144.436.49.685.656.074.049.267.093.346.145.305.2.572.421.872.625.069.046.173.013.247.048.115.054.212.182.336.214.413.108.61-.089,1.093-.176A2.1,2.1,0,0,0,31.614,39.4a3.82,3.82,0,0,0,.563-1.147,6.374,6.374,0,0,0-.057-1.132c0-.379.091-.79.061-1.174l-.03.01a4.736,4.736,0,0,1-.449.614,4.851,4.851,0,0,0-.242.544,6.423,6.423,0,0,1-1.21,1.565,1.967,1.967,0,0,1-.875.332c-.443.109-.749.363-1.131.353a4.536,4.536,0,0,1-.937-.141c-.191-.056-.358-.229-.573-.232ZM42.462,81.8l-.02-.059.03-.01c0,.058,0,.031-.01.069M22.872,24.11c.22.085.317.309.632.213a5.99,5.99,0,0,1,.615-.8l-.02-.06-.029.01a4.568,4.568,0,0,1-1.238.522l.04.118M42.345,79.237a.236.236,0,0,0,.067-.188l-.029.01c-.013.059-.026.118-.038.177m1.771-.308.079-.06-.02-.059-.059.02c0,.033,0,.066,0,.1m-19.45-65.87-.089.03a.8.8,0,0,0-.307-.224,1.629,1.629,0,0,1,.265-1.539,1.091,1.091,0,0,1,1.6.541c-.058.176-.024.373-.075.552a1.17,1.17,0,0,1-.95.785l-.414-.056c-.01-.03-.02-.059-.03-.089m.843-1.967c-.01-.065-.013-.06,0-.1,0,.01.007.02.01.03.034.022.013,0,.049.049l-.059.02m-.815-6.44a4.67,4.67,0,0,1,1.463.62c.153.073.332.09.484.164a2.215,2.215,0,0,0,.879.358c.083-.228.394-.361.479-.624a10.119,10.119,0,0,0,.3-2.111c.03-.313.121-.659.121-1,0-.481-.185-1.553-.818-1.334-.164.2-.826.426-1.089.668a7.739,7.739,0,0,0-1.482,2.218,2.112,2.112,0,0,0-.338,1.037m1.024-.185a1.3,1.3,0,0,1,.4-1.255A6.92,6.92,0,0,0,25.9,2.5a.7.7,0,0,1,.265-.189.485.485,0,0,1,.207-.071,2.09,2.09,0,0,1,.307.224c.117.149.041.289.21.324.125.037.174-.011.267.107a4.821,4.821,0,0,1,.361.963c-.084.082-.2.162-.254.219a1.018,1.018,0,0,0-.038.276,1.363,1.363,0,0,1-.61.142c-.049-.007-.1-.108-.139-.117-.151-.037-.457.148-.581.132a.522.522,0,0,1-.177-.038M52.206,73.205l.059-.02c-.01-.03-.02-.059-.03-.089l-.06.02.03.089M46.78,29.616a9.6,9.6,0,0,1,.541,1.2c.6.98.873,2.255,1.472,3.252.192.319.092.82.135.876a6.5,6.5,0,0,0,.918.18,4.74,4.74,0,0,0,.563.2l.079-.06c.051.005.151.064.217.058.085-.008.112-.093.236-.08l.158.077c.117.026.257-.06.384-.032.02,0,.083.058.118.058.232,0,.4-.126.551-.123a1.541,1.541,0,0,0,.4.027l.02-.039c.007.02.013.039.02.059l.049-.049c.2.008,1.163.031,1.163.031a1.016,1.016,0,0,1,.424-.013c.076,0,.1-.075.138-.08.509-.073,1.269-.183,1.513-.582l-.029.01.02-.039c.185-.282.637-.726.375-1.314-.067-.152-.277-.425-.419-.648-.183.007-.305-.123-.474-.135l-.049.05a5,5,0,0,0-.6-.026l-.078.06a3.3,3.3,0,0,1-.355-.077c-.375-.021-.948.22-1.173-.06a.6.6,0,0,1-.231-.58c.027-.036.042-.04.108-.07.149-.116.463,0,.7-.173a15.789,15.789,0,0,1,1.866-.9c.311-.178,1.043-.491,1.048-.885.012-.043.006-.057-.011-.128-.183,0-.332-.178-.435-.214l.039.02c.064,0-.049.049-.049.049a1.042,1.042,0,0,0-.443.052l-.05-.049c-.03,0-.11.079-.206.071l-.158-.078a6.31,6.31,0,0,0-1.053.294c-.142.021-.37.045-.5.073-.039.008-.032.067-.108.07l-.049-.049c-.174.029-.338.215-.561.191.016.124-.139.185-.372.259-.076.1-.33.058-.355.022-.168-.058-.251-.235-.329-.481.058-.087.063-.226.126-.307.1-.13.458-.435.489-.5.268-.546.8-1.1,1.043-1.574l-.029.01.019-.04c.089-.186.2-.387.3-.564l.069.01a1.538,1.538,0,0,1,.184-.425.8.8,0,0,1,.157-.12,2.367,2.367,0,0,1,.2-.464c.071-.1.192-.191.216-.238l-.03.01.02-.039a4.7,4.7,0,0,0,.273-.456c.039-.129.015-.189.1-.3a1.709,1.709,0,0,0-.208-.225c-.108.05-.116-.012-.237-.018a2.15,2.15,0,0,0-.925.184,7.8,7.8,0,0,0-1.577,1.361,2.13,2.13,0,0,0-.735.646l.03-.01-.02.04a5.418,5.418,0,0,1-1.144,1.181c-.267-.169-.413-.13-.566-.6.088-.124.139-.327.214-.435.189-.27.409-.493.6-.763a11.88,11.88,0,0,0,.67-1.316c.048-.093.162-.147.215-.238.108-.185.22-.332.351-.515.027-.038,0-.1.019-.138.246-.477.828-.924.6-1.621a6.8,6.8,0,0,0-1.115-.179c-.3.023-.716.5-.912.706a8.526,8.526,0,0,0-.636.645c-.067.087-.067.236-.116.336A3.521,3.521,0,0,1,48,25.773c-.079-.058-.166-.051-.238-.117a.58.58,0,0,1-.182-.629c.06-.095.191-.128.255-.219l.077-.257c.581-.833,1.29-1.689.846-3.022l-.059.02c-.065-.007-.82.473-1.031.549a2.161,2.161,0,0,0-.725.676c-.166.208-.355.349-.5.565a1.925,1.925,0,0,0-.154.513c-.043.146-.17.317-.2.465-.068.3-.091.572-.161.878-.036.156-.127.33-.164.484,0,.065,0,.131,0,.2-.023.062-.147.158-.156.218l.131.383c.22.176.273.6.43.874a4.028,4.028,0,0,1,.3,1.279,6.349,6.349,0,0,0,.3.983M66.233,64.038c.022-.034,0-.013.049-.05,0,.01.007.02.01.03l-.06.02m.578.922-.02-.059c.059.018.04,0,.02.059m.511-.241.059-.02-.01-.029-.059.02.01.029m.376.234-.02-.059c.06.019.04,0,.02.059" transform="translate(0 0)"/>
  </g>
</svg>
