<svg xmlns="http://www.w3.org/2000/svg" xmlns:xlink="http://www.w3.org/1999/xlink" width="146" height="167" viewBox="0 0 146 167">
  <defs>
    <style>
      .cls-1 {
        fill: #e6e6e6;
      }

      .cls-2 {
        clip-path: url(#clip-path);
      }

      .cls-3 {
        fill: none;
      }
    </style>
    <clipPath id="clip-path">
      <rect id="Rectangle_79" data-name="Rectangle 79" class="cls-1" width="100.038" height="132.771"/>
    </clipPath>
  </defs>
  <g id="Group_298" data-name="Group 298" transform="translate(-187 -954)">
    <g id="Group_157" data-name="Group 157" transform="translate(217 963)">
      <g id="Group_156" data-name="Group 156" class="cls-2">
        <path id="Path_118" data-name="Path 118" class="cls-1" d="M45.96,74.615a3.987,3.987,0,0,0,.582-.061A1.131,1.131,0,0,1,47.8,74.9a1.34,1.34,0,0,1-.131,1.4c-.392.419-.83.794-1.341,1.276.232.047.332.059.427.087.763.225.851.343.877,1.144.035,1.083.035,1.083-.925,1.8.1.134.206.265.3.406a.988.988,0,0,1-.537,1.59c-.208.073-.419.137-.612.2.155.365.287.708.444,1.039a1.549,1.549,0,0,1-.007,1.148,3.483,3.483,0,0,1-.889,1.354,1.246,1.246,0,0,1-1.128.463,2.4,2.4,0,0,0-.6,0,1.185,1.185,0,0,1-1.01-.38c-.519-.539-1.046-1.072-1.535-1.638a.645.645,0,0,0-.735-.2,1.163,1.163,0,0,0-.384.23,10.859,10.859,0,0,1-2.288,1.215c-.288.133-.716.253-.8.48a2.962,2.962,0,0,0-.376,1.411c.065.494.037,1,.114,1.492a19.167,19.167,0,0,1,.148,2.833,1.58,1.58,0,0,0,.1.353,4.307,4.307,0,0,1,.193,1.466,6.155,6.155,0,0,0,.415,2.246c.159.543.306,1.091.492,1.625a5.212,5.212,0,0,0,.506,1.146,5.775,5.775,0,0,0,1.809,2.118c.3.171.559.416.853.6a2.817,2.817,0,0,0,1.708.631,2.135,2.135,0,0,1,1.321.427,3.615,3.615,0,0,0,2.243.637,11.159,11.159,0,0,1,1.838.219,1.944,1.944,0,0,0,.364.058c1.112-.077,1.658.686,2.119,1.494a3.892,3.892,0,0,1,.46,1.777,16.413,16.413,0,0,0,.257,1.683c.066.441.13.883.173,1.327.063.667.07,1.34.167,2,.29,1.967-.006,3.948.157,5.911.216,2.6.059,5.192.149,7.81a.766.766,0,0,0,.829-.058,3.169,3.169,0,0,1,2.667-.109,2.252,2.252,0,0,1,1.44,1.61,5.325,5.325,0,0,1,.133.575,1.284,1.284,0,0,1-.361,1.231,3.278,3.278,0,0,1-1.24.9,1.264,1.264,0,0,0-.969.937c-.038.171-.292.339-.485.42-.476.2-.974.353-1.465.517a.363.363,0,0,1-.216,0c-1.2-.414-2.332.046-3.472.313a11.817,11.817,0,0,0-1.614.518,1.159,1.159,0,0,1-1.518-.32c-.507.1-.985.227-1.471.3a1.334,1.334,0,0,1-1.433-.726,2.836,2.836,0,0,0-1.042-1.139,2.68,2.68,0,0,1-.584-.577.812.812,0,0,1-.211-.857,1.832,1.832,0,0,0-.08-.94c-.207-.784-.415-1.571-.692-2.332a12.468,12.468,0,0,1-.389-2.105c-.181-.995-.324-2-.444-3a20.382,20.382,0,0,1-.154-2.225,7.258,7.258,0,0,0-.253-1.9,1.136,1.136,0,0,1-.051-.364c.076-1.242-.057-2.484-.008-3.726.006-.15,0-.3,0-.45-.033-1.211-.583-1.644-1.744-1.38a5.068,5.068,0,0,1-.655.107c-.642.06-1.287.1-1.927.169a1.829,1.829,0,0,0-.478.205c.722.684,1.414,1.353,2.122,2a4.044,4.044,0,0,1,1.5,2.251.537.537,0,0,0,.142.257,1.337,1.337,0,0,1,.28,1.193,3.849,3.849,0,0,1-.568,1.658,2.339,2.339,0,0,1-1.163.99.72.72,0,0,0-.552.916c.1.859.225,1.716.335,2.574.057.44.107.881.153,1.323a.685.685,0,0,1-.014.3c-.348.94.062,1.946-.252,2.887a14.761,14.761,0,0,1,.111,3.133c.037.934,0,.931-.9.716a2.279,2.279,0,0,0-.587-.07c-.774.021-1.547.056-2.32.093a1.283,1.283,0,0,1-.9-.291.51.51,0,0,1-.229-.585,1.658,1.658,0,0,0-.129-1.141,3.446,3.446,0,0,1-.2-1.163c0-.4-.118-.792-.11-1.188.021-1.194.074-2.388.128-3.582.008-.168.112-.33.134-.5a3.428,3.428,0,0,0-.07-1.766c-.452.179-.9.362-1.359.536-.494.188-.8.052-1.262-.589l-1.28.214a7.166,7.166,0,0,0-.109,2.341c0,1.126.029,2.251.026,3.377a1.061,1.061,0,0,1-.167.483c-.293.515-.574.508-.9-.005a2.115,2.115,0,0,0-.16-.193,5.294,5.294,0,0,0-1.684.1c-.523.18-.754-.222-1-.625a1.837,1.837,0,0,0,.18-1.2,7.616,7.616,0,0,1,.394-3.375,2.715,2.715,0,0,0,.062-.883,33.881,33.881,0,0,1-3.4.129c-.027.47-.083.9-.069,1.331.022.67.093,1.337.143,2.007a5.112,5.112,0,0,1-.258,1.753,7.744,7.744,0,0,0,.01,3.7,5,5,0,0,0,.528,1.089c-.121.441-.431.6-.921.627-.915.043-1.825.183-2.739.233a5.215,5.215,0,0,1-1.245-.125.757.757,0,0,1-.467-.845c.174-.75.19-1.523.313-2.274a20.937,20.937,0,0,0,.118-3.06,12.456,12.456,0,0,0-.267-2.343,3.32,3.32,0,0,1,.054-.808,4.193,4.193,0,0,0,.059-.737c-.04-.415-.131-.825-.208-1.286a8.674,8.674,0,0,0-1.363-.171,2.134,2.134,0,0,1-1.746-.981c-.251-.3-.423-.673-.672-.98a.9.9,0,0,1-.17-.915,3.246,3.246,0,0,1,.734-1.268c.343-.316.586-.738.913-1.074a9.72,9.72,0,0,1,2.514-2.087,1.41,1.41,0,0,0,.275-.238,3.5,3.5,0,0,1-.109-.668,12.62,12.62,0,0,0-.379-2.638,3.985,3.985,0,0,0-.654-1.559c-.04-.06-.039-.168-.089-.2a3.881,3.881,0,0,1-1.173-1.5c-.357-.569-.726-1.132-1.071-1.709a1.324,1.324,0,0,1-.189-.561,2.682,2.682,0,0,0-.357-1.046,3.14,3.14,0,0,1-.176-.712c-.144-.6-.287-1.194-.437-1.79a1.377,1.377,0,0,0-.152-.417,3.274,3.274,0,0,1-.459-1.686c-.054-.906-.293-1.8-.384-2.705a19.075,19.075,0,0,1-.086-1.922A2.8,2.8,0,0,0,10,92.62a7.748,7.748,0,0,1-.659-2.041A10.484,10.484,0,0,1,9,87.785a10.028,10.028,0,0,0-.491-2.9,1.042,1.042,0,0,1-.08-.431,2.021,2.021,0,0,0-.189-.935,2.952,2.952,0,0,1-.117-.575,3.716,3.716,0,0,0-.1-.579,1.51,1.51,0,0,1-.076-1.159.645.645,0,0,0,.011-.37,11.766,11.766,0,0,1-.276-2.965,5.246,5.246,0,0,0-.341-1.965.884.884,0,0,1-.035-.714.481.481,0,0,0-.032-.41c-.33-.432-.225-.96-.337-1.435-.2-.862.367-1.351,1.029-1.712A8.94,8.94,0,0,1,9.2,71.174c.648-.236,1.287-.5,1.947-.7a20.9,20.9,0,0,1,2.505-.63,3.414,3.414,0,0,0,1.46-.822,1.154,1.154,0,0,0,.315-.865,10.046,10.046,0,0,0-.271-1.514c-.014-.073-.067-.146-.061-.215a3.527,3.527,0,0,0-.647-1.861,1.064,1.064,0,0,1-.029-.72c-.194-.063-.375-.13-.561-.179-.237-.062-.485-.09-.717-.167-.4-.132-.822-.2-1.209-.328A5.491,5.491,0,0,1,9.79,62.28a8.522,8.522,0,0,0-1.436-.9,2.02,2.02,0,0,0-.494-.123c-.388-.1-.771-.188-.875-.677A3.975,3.975,0,0,0,5.648,58.56C5.091,58.032,4.52,57.517,3.954,57c-.11-.1-.212-.245-.343-.285-.474-.144-.625-.51-.747-.932-.219-.755-.467-1.5-.694-2.254a2.739,2.739,0,0,1-.021-.37c-.057-.39-.13-.777-.185-1.168s-.11-.788-.141-1.185a7.092,7.092,0,0,0-.139-1.927,1.082,1.082,0,0,1,.026-.592A3.376,3.376,0,0,0,1.7,46.446a1.362,1.362,0,0,1-.033-.372,21.754,21.754,0,0,0-.264-4.3c-.017-.085.072-.186.074-.281.006-.3,0-.6-.014-.893-.007-.122-.079-.24-.087-.362-.058-.817-.1-1.636-.164-2.453a9.779,9.779,0,0,0-.174-1.327C.891,35.787.66,35.13.526,34.454a10.614,10.614,0,0,1-.2-1.774C.3,31.5.285,30.325.329,29.15c.029-.763.229-1.521.24-2.283a6.32,6.32,0,0,0,.084-1.975c-.035-.117.065-.274.1-.412.053-.19.184-.395.148-.565a9.162,9.162,0,0,1,.022-1.659,1.427,1.427,0,0,1-.631-1.319,13.549,13.549,0,0,0-.217-1.765,6.413,6.413,0,0,1,.041-2.23A2.747,2.747,0,0,0,.164,16.2a27.053,27.053,0,0,1,.259-3.341,11.093,11.093,0,0,1,.5-2.463,12.406,12.406,0,0,1,.9-2.171A13.546,13.546,0,0,1,3.137,6.514c.247-.309.526-.593.776-.9a6.254,6.254,0,0,1,1.76-1.472A7.546,7.546,0,0,1,7.11,3.586c.516-.168,1.039-.321,1.568-.439a9.518,9.518,0,0,1,1.247-.169c.639-.054,1.28-.1,1.921-.119.69-.018,1.381,0,2.129.006a1.611,1.611,0,0,1,0-1.371A10.094,10.094,0,0,1,14.618.325a2.07,2.07,0,0,1,1.388-.3A3.615,3.615,0,0,1,18.45,2.347a2.033,2.033,0,0,0,1.113,1.2,4.36,4.36,0,0,0,2.151.437,4.565,4.565,0,0,1,1.788.413,8.206,8.206,0,0,1,2.105.916c.935.062,1.4.72,1.864,1.418.274.413.636.766.947,1.156a3.848,3.848,0,0,1,.416.617,8.706,8.706,0,0,1,.791,1.662c.216.8.836,1.482.735,2.382a.766.766,0,0,0,.089.356,10.587,10.587,0,0,1,.53,2.456c.143.823.164,1.658.371,2.483a9.246,9.246,0,0,1,.04,2.393c-.008.37-.115.738-.12,1.108a9.4,9.4,0,0,0,.1,1.1,1.575,1.575,0,0,1-.084,1.019,1.716,1.716,0,0,0-.177,1.088c.069.587.171,1.17.259,1.755.018.123.041.246.048.37.048.92.085,1.84.141,2.76.038.621.093,1.24.156,1.858a.654.654,0,0,0,.165.316,3.362,3.362,0,0,0,.418.431,16.942,16.942,0,0,1,2.614,3.15,4.935,4.935,0,0,1,1.014,2.123.533.533,0,0,0,.089.2,5.371,5.371,0,0,1,.655,2.635c.046.517.161,1.029.249,1.542a1.75,1.75,0,0,1-.883,1.876c-.44.275-.856.588-1.288.877a.94.94,0,0,1-.324.138c-.551.115-1.113.187-1.655.336a1.573,1.573,0,0,0-.875,1.578,6.032,6.032,0,0,0,.692,2.021,2.506,2.506,0,0,1,.154,1.465,1.036,1.036,0,0,1-.976.761,7.6,7.6,0,0,0-2.244.448q-.271.1-.535.216c-.515.226-.969.553-1.506.765A3.57,3.57,0,0,0,25.9,53.5a1.181,1.181,0,0,0-.071.366,10.192,10.192,0,0,0,1.435.314,7.446,7.446,0,0,1,2.38.534c.269.115.574.145.852.242.486.17.976.337,1.442.554a1.556,1.556,0,0,1,.755,1.059,9.943,9.943,0,0,1,.35,1.974c.058.77.014,1.548.014,2.322a12.345,12.345,0,0,1-2.66,1.3c-.574.212-1.143.437-1.716.655a.857.857,0,0,1-.281.087,31.368,31.368,0,0,0-3.417.566,16.334,16.334,0,0,0-1.65.389,15.987,15.987,0,0,1-1.612.245,2.125,2.125,0,0,1-.59-.112c-.2.084-.24.259-.241.478a7.606,7.606,0,0,0,.586,2.961,1.206,1.206,0,0,0,1.369.7,13,13,0,0,1,3.266-.242,13.845,13.845,0,0,1,2.152.5c.924.258,1.829.589,2.758.827a3.448,3.448,0,0,1,1.971,1.4,5.9,5.9,0,0,1,1.27,2.078c.595.557.355,1.359.594,2.021q.15.415.28.837c.085.275-.074.6.2.9l5.462-1.392c.233-.74.452-1.443.678-2.145a1.127,1.127,0,0,1,.766-.753,20.09,20.09,0,0,1,1.973-.617,1.981,1.981,0,0,1,1.64.506,5.046,5.046,0,0,1,.536.525,1.148,1.148,0,0,1-.005,1.657c-.132.138-.268.271-.4.406a.462.462,0,0,0-.053.033.109.109,0,0,0-.02.032l.054-.084m-.329,53.4c-.1-.77-.2-1.5-.3-2.226a31,31,0,0,1-.42-3.4c-.019-.622-.092-1.244-.168-1.862-.073-.589-.184-1.175-.275-1.762a17.608,17.608,0,0,0-.377-2.338,22.973,22.973,0,0,1-.352-3.015,14.042,14.042,0,0,1-.023-2.249,1.683,1.683,0,0,1,.016-.374.472.472,0,0,1,.8-.271.975.975,0,0,1,.357,1.062,3.886,3.886,0,0,0-.116.876c.028.873.114,1.744.135,2.617a13.135,13.135,0,0,0,.273,2.283,6.672,6.672,0,0,1,.172,1.548c-.056,1.551.3,3.065.344,4.606a1.731,1.731,0,0,0,.053.294c.174.846.317,1.7.538,2.533a3.248,3.248,0,0,0,.548,1.049c.255.344.452.36.842.142a4.222,4.222,0,0,1,1.394-.477,4.285,4.285,0,0,0,1.607-.745.528.528,0,0,0,.23-.282,9.856,9.856,0,0,0,.3-1.74c.038-1.826.018-3.652.012-5.479,0-.62-.024-1.24-.047-1.86-.014-.395-.073-.789-.065-1.183.007-.372.113-.744.1-1.113-.015-.6-.132-1.192-.13-1.787a15.108,15.108,0,0,0-.339-2.646,6.577,6.577,0,0,1-.249-1.448,7.377,7.377,0,0,0-.464-2.545,1.531,1.531,0,0,0-1.4-1.107c-.789.009-1.58-.082-2.37-.143a1.309,1.309,0,0,1-.421-.133c-.54-.244-1.073-.5-1.614-.743a3.672,3.672,0,0,0-.826-.31,7.68,7.68,0,0,1-2.626-.945,6.358,6.358,0,0,1-2-1.648c-.395-.537-.737-1.117-1.169-1.621a2.6,2.6,0,0,1-.487-.989c-.165-.538-.233-1.114-.392-1.641a17.428,17.428,0,0,1-.529-2.3c-.065-.413-.134-.826-.234-1.231-.152-.618-.335-1.229-.5-1.845a.684.684,0,0,1-.006-.3,6.3,6.3,0,0,0-.076-1.9,2.858,2.858,0,0,1,.018-1.168.961.961,0,0,0-.381-1.248c-.572.153-1.143.3-1.712.46a14.33,14.33,0,0,1-2.08.491,6.726,6.726,0,0,0-2.539.764.939.939,0,0,1-.645.053c-.161-.043-.28-.241-.411-.364a2.062,2.062,0,0,1,1.286-1.034,10.253,10.253,0,0,1,2-.5,18.514,18.514,0,0,0,2.508-.555c1.052-.252,2.065-.653,3.114-.937A7.275,7.275,0,0,0,39.74,83.5a.869.869,0,0,1,.731-.3c.343.041.687.084,1.026.153a1.011,1.011,0,0,1,.391.2,1.417,1.417,0,0,1,.567.852,1.8,1.8,0,0,0,.776,1.061,1.263,1.263,0,0,0,1.842-.247,1.294,1.294,0,0,0-.4-2c-.32-.183-.645-.36-.95-.565a.754.754,0,0,1-.285-.861c.1-.241.35-.334.761-.257a2.657,2.657,0,0,1,.711.188c.415.21.727.044,1.157-.2a3.238,3.238,0,0,0-1.489-.418,1.085,1.085,0,0,1-1.007-.608.6.6,0,0,1,.029-.17,1.2,1.2,0,0,1,1.2-.59,2.94,2.94,0,0,0,1.909-.6c-.128-.335-.368-.3-.588-.3-.6,0-1.2.007-1.8,0a.617.617,0,0,1-.591-.471.538.538,0,0,1,.279-.635c.318-.187.673-.315.983-.514.479-.306.939-.642,1.395-.982.159-.119.308-.281.108-.506-.517.137-1.035.271-1.552.414-.255.07-.492.249-.763.009-.2-.181-.453-.316-.466-.71l1.692-1.822c.379-.408.324-.7-.188-.885a1.605,1.605,0,0,0-.514-.073,5.552,5.552,0,0,0-1.77.488,1.343,1.343,0,0,0-.5.444.682.682,0,0,0-.094.888,2.567,2.567,0,0,1,.289.677c.147.537-.02.849-.555.923a2.861,2.861,0,0,0-1.339.381c-.062.043-.182.02-.272.007a5.4,5.4,0,0,0-2.456.407c-.748.241-1.513.434-2.281.6a5.86,5.86,0,0,0-1.409.414,12.887,12.887,0,0,1-1.308.5,6.6,6.6,0,0,0-.963.371c-.687.391-1.353.817-2.021,1.241-.312.2-.586.545-.916.6-.4.068-.738.28-1.125.338-.656.1-1.317.169-1.973.27a1.037,1.037,0,0,1-1.088-.529c.188-.386.369-.876.833-.853s.871-.163,1.315-.1a.951.951,0,0,0,.515-.038,23.049,23.049,0,0,0,2.5-1.259,11.7,11.7,0,0,1,3.655-1.556,4.709,4.709,0,0,0,.678-.275,3.357,3.357,0,0,1-.654-1.472,4.681,4.681,0,0,0-.394-1.027,2.079,2.079,0,0,1-.194-.556,5.014,5.014,0,0,0-.734-1.911,2.037,2.037,0,0,0-1.062-.973c-.381-.16-.787-.263-1.181-.391-.953-.31-1.919-.588-2.855-.945-.406-.155-.76-.368-1.2-.15-.071.035-.186-.021-.282-.032a2.542,2.542,0,0,0-.735-.062,14.183,14.183,0,0,1-2.045.34c-.538.031-1.068.192-1.607.24a.835.835,0,0,1-1.032-.945,3.364,3.364,0,0,0-.275-1.216,7.149,7.149,0,0,1-.328-1.209c-.08-.434-.088-.88-.151-1.317a.9.9,0,0,0-1.154-.82,4.538,4.538,0,0,1-2.2-.03c-.267.369-.274.371-.212.577.154.516.322,1.029.472,1.547a1.453,1.453,0,0,1,.082.507,14.361,14.361,0,0,0,.422,2.791l-.269.458c.62.711.606.966-.077,1.485-.128-.091-.272-.183-.4-.29a1.15,1.15,0,0,1-.311-.321,1.675,1.675,0,0,1-.081-.469,4.119,4.119,0,0,0-.426.09c-.424.135-.845.282-1.268.42a5.109,5.109,0,0,1-1.188.363,2.821,2.821,0,0,0-1.618.508,1.929,1.929,0,0,1-1.294.439,2.57,2.57,0,0,0-1.791.615.787.787,0,0,0-.335.612,6.143,6.143,0,0,0,.488,2.153,1.658,1.658,0,0,1,.19.706c.067.944.107,1.89.157,2.835a1.3,1.3,0,0,0,.012.224,16.462,16.462,0,0,1,.3,2.877,7.176,7.176,0,0,0,.275,1.979,7,7,0,0,1,.468,2.691c-.033.5,0,1-.008,1.5a3.694,3.694,0,0,0,.692,2.589c.072.086.051.242.1.353a12.427,12.427,0,0,1,.7,3.847c.1.837.112,1.685.164,2.528a.354.354,0,0,0,.016.148,10,10,0,0,1,.547,1.912,30.261,30.261,0,0,1,.906,2.964,8.021,8.021,0,0,0,1.679,3.514,7.694,7.694,0,0,1,1.2,1.783,7.956,7.956,0,0,1,.921,3.175c0,.122.069.242.076.365a.84.84,0,0,0,.562.719,9.409,9.409,0,0,0,2.169.454c.085.022.191-.041.287-.061.844-.177,1.691-.337,2.529-.534a20.67,20.67,0,0,0,3.817-.87.939.939,0,0,1,.508-.1c1.131.211,2.2-.437,3.325-.233a.338.338,0,0,0,.216-.043,2.808,2.808,0,0,1,1.216-.315,9.488,9.488,0,0,0,1.658-.394,16.02,16.02,0,0,1,1.949-.434c.882-.133,1.773-.216,2.663-.291a1.285,1.285,0,0,1,.723.114,2.564,2.564,0,0,1,1.267,1.4,6.972,6.972,0,0,1,.293,2.2c0,.075-.015.149-.024.223a8.162,8.162,0,0,0-.116,1.107c.022.817.094,1.634.141,2.451.053.917.1,1.834.154,2.751,0,.074.035.145.045.219a18.784,18.784,0,0,1,.239,1.909,20.805,20.805,0,0,0,.413,2.859c.177,1.053.7,1.991.915,3.023.065.314.192.5.517.533.219.026.435.1.654.114a5.438,5.438,0,0,0,2.58-.4M26.931,21.643c-.012.266-.026.509-.032.753a1.521,1.521,0,0,1-1.711,1.439,2.958,2.958,0,0,1-2.035-1.6c-.111-.254-.234-.426-.414-.468-.439.5-.838.962-1.25,1.415-.184.2-.4.376-.584.579a.722.722,0,0,1-.509.259c-.485.047-.964.142-1.441.217a1.282,1.282,0,0,0-.011.259,15.123,15.123,0,0,1,.453,3.077,1.185,1.185,0,0,0,.159.479c.5,1.1,1.042,2.181,1.51,3.294a6.233,6.233,0,0,1,.4,2.483c-.01,1.012-.175,2.022-.277,3.033-.047.468-.09.936-.157,1.4-.081.558-.717.572-.978.963-.036.054-.124.073-.229.13-.4-.411-.863-.132-1.242.023-1.233.5-2.46.085-3.687.079-.621-.294-1.361-.3-1.9-.805a1.817,1.817,0,0,0-.54-.235,2.609,2.609,0,0,1-1.426-1.365,8.187,8.187,0,0,1-.653-3.4,1.257,1.257,0,0,0-.02-.52,1.428,1.428,0,0,1-.03-.857c.044-.284-.174-.6-.233-.914a.949.949,0,0,1,.1-.424,12.324,12.324,0,0,0,.453-1.335,3.816,3.816,0,0,1,.714-1.909.435.435,0,0,0,.055-.136,3.4,3.4,0,0,1,2.587-2.2.816.816,0,0,0,.7-1.079,5.669,5.669,0,0,0-.193-.594c-.628-.092-.886-.563-1.09-1.092-.089-.232-.186-.461-.294-.684a1.532,1.532,0,0,0-1.961-.77,1.348,1.348,0,0,1-.826,1.353,1.966,1.966,0,0,0-.329.305,1.641,1.641,0,0,1-2.6-.045c-.505-.543-.909-1.179-1.363-1.77-.291-.379-.443-.385-.762-.034-.1.11-.189.232-.279.351a3.46,3.46,0,0,1-.586.758c-.51.374-1.074.673-1.645,1.02-.1.267-.229.586-.347.908a3.331,3.331,0,0,0-.155.5c-.2,1.015-.423,2.025-.566,3.047-.155,1.1-.259,2.214-.328,3.325a9.83,9.83,0,0,0,.128,1.481c.062.691.11,1.383.187,2.072a4.906,4.906,0,0,0,.2,1.017A10.929,10.929,0,0,1,2.268,37.9c.017.174,0,.351.02.524.09.811.205,1.62.277,2.433.07.794.115,1.591.141,2.388.045,1.346-.014,2.692.146,4.036a15.219,15.219,0,0,1-.12,1.551c.009.767.076,1.534.143,2.3a16.378,16.378,0,0,0,.389,2.929,4.951,4.951,0,0,0,1.069,1.824c.715.888,1.818,1.39,2.381,2.424.033.06.116.092.172.142.5.449,1.033.868,1.492,1.355a5.738,5.738,0,0,0,2.263,1.5,6.794,6.794,0,0,1,1.666.791,1.268,1.268,0,0,0,.622.178,6.966,6.966,0,0,1,2.4.437,1.638,1.638,0,0,0,.441.052c.366.048.733.093,1.1.153a3.605,3.605,0,0,0,.65.141c1.118-.036,2.236-.1,3.353-.156.07,0,.134-.069.206-.08.171-.028.372-.106.51-.047a1.041,1.041,0,0,0,1.277-.261.3.3,0,0,1,.214-.043,9.524,9.524,0,0,0,2.1-.407c.707-.095,1.4-.27,2.113-.337a2.468,2.468,0,0,0,1.066-.267,1.765,1.765,0,0,1,.559-.189,5.9,5.9,0,0,0,1.764-.725,1.934,1.934,0,0,1,.8-.347.546.546,0,0,0,.517-.54,7.451,7.451,0,0,0-.183-2.369,1.19,1.19,0,0,0-.734-.86c-.477-.2-.985-.327-1.438-.534a9.172,9.172,0,0,0-3.025-.607,2.435,2.435,0,0,1-1.485-.737,4.879,4.879,0,0,1-.394-.449c-.314-.368-.337-.515-.028-.914a5.7,5.7,0,0,1,1.465-1.368,8.844,8.844,0,0,1,2.4-1.3,2.1,2.1,0,0,0,.452-.256,2.146,2.146,0,0,1,.91-.284,4.333,4.333,0,0,0,1.654-.55c-.057-.3-.107-.582-.167-.866a5.954,5.954,0,0,1-.494-2.293c.011-.063-.057-.137-.073-.209a1.634,1.634,0,0,1,.906-1.9c.161-.059.323-.118.48-.186.864-.367,1.736-.718,2.588-1.112a1.448,1.448,0,0,0,.948-1.708c-.173-.845-.322-1.693-.549-2.527-.234-.858-.742-1.6-.975-2.462a.7.7,0,0,0-.214-.3A11.657,11.657,0,0,1,32.691,34.1c-.5-.648-.967-1.342-1.882-1.466-.108-.015-.2-.121-.329-.2.034-.182.074-.349.095-.519a1.674,1.674,0,0,0,.048-.73,3.638,3.638,0,0,1-.121-1.181,15.019,15.019,0,0,0-.128-2.23,27.722,27.722,0,0,0-.691-3.425,1.66,1.66,0,0,1-.98-.81c-.3-.483-.61-.959-.894-1.451a.79.79,0,0,0-.878-.45M13.793,4.7c-.191-.3-.408-.5-.84-.265a.987.987,0,0,1-.661-.01,7.079,7.079,0,0,0-3.4.139,14.415,14.415,0,0,0-2.823.9,3.276,3.276,0,0,0-1.7,1.585A3.615,3.615,0,0,1,3.689,8.1,5.632,5.632,0,0,0,2.463,9.759a10.086,10.086,0,0,0-.947,3.56c-.075.638-.179,1.271-.255,1.908-.074.616-.156,1.233-.183,1.852a8.219,8.219,0,0,0,.135.948c.063.79.094,1.583.158,2.374a1.009,1.009,0,0,0,1.539.89,6.128,6.128,0,0,0,1.215-1.078c.282-.28.507-.615.783-.9a.839.839,0,0,1,1.148-.137,2.773,2.773,0,0,1,1.3,1.482,1.574,1.574,0,0,0,.173.408c.279.377.549.861,1.077.814a1.491,1.491,0,0,0,1.173-.939,2.968,2.968,0,0,0,.153-.49,3.629,3.629,0,0,1,.114-.431A.694.694,0,0,1,11,19.6a3.938,3.938,0,0,0,.939.192,2.069,2.069,0,0,1,2.046,1.434,2.075,2.075,0,0,0,.525.825c.079-.54.155-1,.21-1.468a2.022,2.022,0,0,0-.041-.443c-.031-.271-.066-.541-.093-.812-.044-.446-.056-.9-.129-1.338-.107-.658-.264-1.308-.382-1.964-.058-.316-.04-.649-.121-.957a15.63,15.63,0,0,1-.459-2.319,9.194,9.194,0,0,1-.124-1.73c.016-.188-.109-.388-.089-.574.064-.581.176-1.155.249-1.735a6.334,6.334,0,0,0,.008-.724,1.735,1.735,0,0,1,.017-.522,6.172,6.172,0,0,0,.13-1.71c.017-.317.064-.633.108-1.048M29.538,22.8c.185-.16.428-.268.484-.437a4.944,4.944,0,0,0,.313-1.445,12.965,12.965,0,0,0-.106-2.6c-.2-1.04-.2-2.119-.334-3.174a15.377,15.377,0,0,0-.52-2.907,11.672,11.672,0,0,0-1.973-3.8,5.959,5.959,0,0,0-2.476-2.1c-.6-.213-1.2-.454-1.807-.652a5.275,5.275,0,0,0-.869-.154c-.537-.078-1.079-.127-1.611-.228a4.713,4.713,0,0,0-1.632-.012c.174,1.048.064,2.058.2,3.072a21.949,21.949,0,0,1,.005,3.3,3.819,3.819,0,0,1-.123.884,7.064,7.064,0,0,0-.3,2.274,4.035,4.035,0,0,1-.066.438c-.035.665-.092,1.332-.081,2s.116,1.333.136,2c.025.8,0,1.6.005,2.4,0,.316.02.631.031.919a1.6,1.6,0,0,0,1.922-.583c.2-.281.416-.555.6-.847.144-.229.231-.494.379-.719a.81.81,0,0,1,1.1-.3,1.707,1.707,0,0,1,.9.861,4.645,4.645,0,0,0,1.14,1.364.476.476,0,0,0,.686.053c.049-.356.1-.724.151-1.092a1.015,1.015,0,0,1,1.251-.822,3.055,3.055,0,0,1,2.3,1.89,2.5,2.5,0,0,0,.288.426M17.946,113.781c-.146.545-.473.647-.921.677a2.57,2.57,0,0,0-1.541.666c-.649.58-1.276,1.187-1.925,1.766a2.114,2.114,0,0,0-.632,1.056,1.048,1.048,0,0,0,.755,1.441,13.947,13.947,0,0,0,1.526.31c.657.111,1.32.189,1.976.3a11.37,11.37,0,0,0,2.325.415c1.214-.049,2.419.348,3.63.035a.784.784,0,0,1,.516.019,1.069,1.069,0,0,0,.86-.026,2.12,2.12,0,0,1,1.385-.02,1.226,1.226,0,0,0,.593-.009c.752-.125,1.5-.281,2.252-.394.439-.065.916-.145,1.107.467.9-.215,1.747-.466,2.615-.618a14.394,14.394,0,0,0,3.917-1.474,1.825,1.825,0,0,0,.867-1.752,5.123,5.123,0,0,0-1.354-2.52,6.661,6.661,0,0,0-2.064-1.278c-.731-.327-1.607-.22-2.334-.643-.112-.065-.295-.016-.445-.012-.967.027-1.929-.009-2.9.112a16.476,16.476,0,0,0-2.177.385c-.662.175-1.346.26-2.015.407q-.9.2-1.792.45c-.843.239-1.629.757-2.569.485a.229.229,0,0,0-.146.025,1.041,1.041,0,0,1-.929-.1,5.274,5.274,0,0,0-.576-.177M11.387,32.289c.069.985.155,1.875.188,2.767a2.787,2.787,0,0,0,2.149,2.612c.528.121,1.044.291,1.573.41a5.7,5.7,0,0,0,2.628.195c.334-.081.656-.215.991-.29a1.16,1.16,0,0,0,1.075-1.266,5.55,5.55,0,0,1,.039-.6,15.439,15.439,0,0,0,.156-2.821,8.937,8.937,0,0,0-.607-3.022,7.764,7.764,0,0,0-1.62-2.288.6.6,0,0,0-.322-.181,1.579,1.579,0,0,1-.842-.447.894.894,0,0,0-.394-.192,15.358,15.358,0,0,1-2.1-.426c-.1-.039-.238.026-.358.048a1.945,1.945,0,0,0-1.1.852,7.53,7.53,0,0,0-1.237,2.669,10.013,10.013,0,0,0-.22,1.978M16.345,1.855a.9.9,0,0,0-.561.939A5.16,5.16,0,0,1,15.5,4.537a5.805,5.805,0,0,0-.319,1.823,4.882,4.882,0,0,1-.014.9,21.355,21.355,0,0,0-.243,3.782c0,1.01.1,2.033.109,3.052a.92.92,0,0,0,.022.222c.255.976.542,1.945.761,2.929a5.632,5.632,0,0,1,.211,1.825,20.78,20.78,0,0,0-.09,2.166c-.015,1.126-.016,2.253,0,3.379a1.225,1.225,0,0,0,.5,1.176c.486.278,1,.514,1.494.768.041-.07.09-.113.088-.154-.049-.943-.036-1.9-.178-2.826-.12-.788-.224-1.569-.27-2.365a13.248,13.248,0,0,1,.009-1.847,2,2,0,0,0-.021-.448c-.086-.587-.185-1.173-.269-1.76a1.259,1.259,0,0,1,.031-.3c.038-.344.078-.688.112-1.033.044-.445.088-.89.124-1.336a2.169,2.169,0,0,0,.016-.671,2.91,2.91,0,0,1,.153-1.661,7.046,7.046,0,0,0,.157-2.378c-.024-1.619-.052-3.241-.181-4.854-.034-.429-.3-.842-.128-1.308.021-.055-.024-.147-.06-.209-.24-.4-.471-.812-.737-1.2a2,2,0,0,0-.436-.359M32.178,130.2c.926-.008,1.76.088,2.6.013.473-.042.667-.246.677-.7a2.229,2.229,0,0,0-.058-.595c-.2-.779.186-1.576-.082-2.351-.014-.041.016-.1.022-.147.033-.268.083-.535.095-.8a20.659,20.659,0,0,0-.1-3.134,12.094,12.094,0,0,0-.382-2.011,3.6,3.6,0,0,0-.78.009c-.57.135-1.129.317-1.736.493a4.322,4.322,0,0,1,.117.529c.018.191.073.43-.014.571-.332.539-.137,1.179-.378,1.726.064,1.159-.328,2.289-.166,3.463.128.928.126,1.874.189,2.938m-12.734.712c-.06-1.013-.116-1.955-.169-2.9a2.1,2.1,0,0,1,.021-.293c.083-1.01.169-2.02.249-3.03a11.9,11.9,0,0,0-.381-3.1c-.625-.129-1.245-.27-1.872-.379-.271-.047-.415.1-.452.371a2.16,2.16,0,0,0,0,.3c.005,1.848.028,3.7.008,5.544a6.206,6.206,0,0,1-.255,2.5,1.847,1.847,0,0,0-.049.742c.009.345.1.443.451.447.624.009,1.248,0,1.872-.026a2.787,2.787,0,0,0,.581-.174m34.424-.994c.116-.012.179,0,.212-.026.641-.5,1.317-.97,1.9-1.532a.841.841,0,0,0-.185-1.465,1.923,1.923,0,0,0-1.28-.272c-.745.145-1.479.345-2.215.539a1.361,1.361,0,0,0-.45.24,1.1,1.1,0,0,1-1.079.323c-.074-.026-.18.028-.267.058-1.148.4-2.3.8-3.423,1.2.023.209.132.464.055.633-.282.617.048,1.1.234,1.6a1.626,1.626,0,0,0,1.179-.156,10.692,10.692,0,0,1,2.145-.541c.361-.073.733-.106,1.086-.207a3.173,3.173,0,0,0,1.432-.744c.075-.075.216-.082.338-.125l.315.476M25.86,121.441a1.845,1.845,0,0,0-1.054,1.642,10.264,10.264,0,0,0-.326,2.406c.008.09-.081.184-.09.28-.016.163,0,.329,0,.517.469.061.9.141,1.339.167.467.028.583-.081.562-.554q-.074-1.736-.2-3.47a6.924,6.924,0,0,0-.227-.988m20.113,7.86-1.541.313c-.475.1-.978-.131-1.524.13l.505.992c.26.509.576.873,1.221.543.119-.061.3,0,.443-.018.169-.024.332-.082.5-.117a.458.458,0,0,0,.4-.532c-.011-.395,0-.79,0-1.311M65.954,57.259a.994.994,0,0,1,.325,1.289,1.552,1.552,0,0,0-.025.816c.123.8.305,1.6.418,2.4.179,1.276.317,2.557.482,3.834.038.292.113.58.186.948a1.532,1.532,0,0,1,1.211-.022,4.864,4.864,0,0,0,1.619-.074c.512-.076,1.025-.15,1.536-.235.219-.036.434-.1.652-.144a2.179,2.179,0,0,1,1.159-.051,1.6,1.6,0,0,0,.984-.206,5.3,5.3,0,0,1,2.306-.5c.425.006.853.026,1.276-.008a3.418,3.418,0,0,0,1.161-.21,3.558,3.558,0,0,1,1.632-.419,7.58,7.58,0,0,1,.875-.009,1.706,1.706,0,0,0,1.226-.123.612.612,0,0,1,.553-.037,10.765,10.765,0,0,0,1.326.2.778.778,0,0,0,.7-.2.953.953,0,0,1,.829-.248,13.068,13.068,0,0,0,3.1-.316,1.174,1.174,0,0,0,.576-.315,1.143,1.143,0,0,1,.821-.278,6.671,6.671,0,0,0,1.477.009,7.9,7.9,0,0,0,.863-.2c.551-.209,1.083-.467,1.631-.685a1.48,1.48,0,0,1,1.872,1.573c-.069.665-.18,1.326-.269,1.989-.016.122-.016.246-.026.4a1.073,1.073,0,0,1,.615,1.086.53.53,0,0,0,.416.545,2.759,2.759,0,0,1,.527.344l-.646,1.119c.258,1.2.561,2.394.872,3.585a.753.753,0,0,1,.017.149c.051.967.087,1.934.157,2.9.054.743.194,1.482.216,2.225a17.808,17.808,0,0,0,.885,3.74,10.763,10.763,0,0,0,.383,1.269c.252.655.268.649-.274,1.224-.59.022-1.177.071-1.762.058a9.345,9.345,0,0,1-1.4-.154.951.951,0,0,1-.747-.9,9.571,9.571,0,0,0-.544-2.9c-.281-1.043-.484-2.108-.724-3.179-.367.248-.259.691-.365,1.031-.212.681-.315,1.4-.463,2.1a25.95,25.95,0,0,0-.582,2.9c-.084.919-.344,1.794-.474,2.7a1.028,1.028,0,0,0-.011.224,14.6,14.6,0,0,1-.631,3.947,9.042,9.042,0,0,0-.432,2.617,2.145,2.145,0,0,1-.16.65c-.47,0-.891.005-1.312,0-.307-.005-.474.13-.473.442a13.2,13.2,0,0,0,.025,1.647c.164,1.277.357,2.552.592,3.817a16.5,16.5,0,0,0,.645,2.581c.251.695.206,1.417.388,2.111s.177,1.413.395,2.114a8.966,8.966,0,0,1,.208,2.062c.025.4,0,.794,0,1.356a.923.923,0,0,1-.953.4c-.884-.065-1.771-.1-2.656-.158a2.008,2.008,0,0,1-1.445-.957,1.146,1.146,0,0,1-.183-.7,6.922,6.922,0,0,0-.609-2.963c-.347-.844-.68-1.7-.972-2.559a11.637,11.637,0,0,1-.371-1.579,25.214,25.214,0,0,1-.447-2.7,7.2,7.2,0,0,1-.039-2.894,1.169,1.169,0,0,0-.029-.359c-.533.106-1.03.2-1.526.3-.459.092-.914.2-1.376.277-.756.117-1.519.19-2.273.321-.283.049-.54.233-.822.307-.428.114-.867.188-1.3.277-.049.01-.108-.012-.149.008a5.605,5.605,0,0,1-2.194.311,19,19,0,0,1-1.973.313,16.736,16.736,0,0,0-2.769.433,7.306,7.306,0,0,1-2.408.184,4.108,4.108,0,0,0-1.307.183,7.617,7.617,0,0,1-1.856-.027,6.539,6.539,0,0,0-2.547.055,17.416,17.416,0,0,1-2.553.427,4.9,4.9,0,0,0,.108,1,29.488,29.488,0,0,1,.668,3.349c.259,1.356.342,2.739.7,4.081a12.755,12.755,0,0,1,.2,1.693c.076.614.161,1.226.245,1.839a9.211,9.211,0,0,1,.17,1.251,4.309,4.309,0,0,0,.369,1.505,1.19,1.19,0,0,1,.049.713,10.8,10.8,0,0,0-.124,1.329c-.556.192-.556.192-1.138-.785a3.174,3.174,0,0,0-.426.067c-.758.221-1.506.48-2.272.664a2.423,2.423,0,0,1-.872-.075c-.535-.079-1.056-.334-1.594-.106l-.607-2.1a2.4,2.4,0,0,1-.1-.36c-.059-.465-.089-.935-.163-1.4a30.718,30.718,0,0,0-.7-3.7,5.888,5.888,0,0,1-.192-1.392,11.924,11.924,0,0,0-.419-2.549,12.158,12.158,0,0,1-.192-1.841,5.675,5.675,0,0,1-.1-.882,5.5,5.5,0,0,0-.62-2.351c-.279-.011-.6-.048-.91-.031A9.416,9.416,0,0,1,47.486,98a2.653,2.653,0,0,0-.806-.085A.914.914,0,0,1,45.671,96.9c0-.643.029-1.287-.008-1.927a11.261,11.261,0,0,1,.352-2.864c.256-1.277.648-2.531.821-3.817a37.905,37.905,0,0,1,1.028-4.454,10.838,10.838,0,0,0,.208-1.461c.095-.813.177-1.628.265-2.443.008-.074.031-.148.033-.222a15.923,15.923,0,0,1,.823-3.735c.158-.568.26-1.152.381-1.731a20.875,20.875,0,0,1,.551-2.975,9.12,9.12,0,0,0,.346-1.583c.086-.5.253-.7.772-.725.749-.033,1.5-.018,2.25-.05a3.291,3.291,0,0,0,.785-.159,11.573,11.573,0,0,1,3.531-.738,21.026,21.026,0,0,0,3.407-.278c.32-.046.651,0,.974-.024.389-.03.775-.09,1.193-.142l-.423-2.255c-.658.077-1.236-.025-1.841.1a2.588,2.588,0,0,1-1.946-.249,2.128,2.128,0,0,0-1.28-.3,2.422,2.422,0,0,1-1.363-.286,5.591,5.591,0,0,0-1.123-.326,7.015,7.015,0,0,1-1.579-.944,1.037,1.037,0,0,1-.323-.4c-.291-.545-.564-1.1-.845-1.65a2.346,2.346,0,0,1-.246-1.491,5.735,5.735,0,0,0,.013-1.125,6.564,6.564,0,0,1,.317-2.268,8.331,8.331,0,0,0,.139-1.7,7.763,7.763,0,0,1,.148-.792,4.909,4.909,0,0,0,.262-1.149,5.689,5.689,0,0,1,.555-2.135c.242-.665.584-1.293.866-1.944.156-.359.277-.733.415-1.1.034-.093.046-.218.113-.269a5.834,5.834,0,0,0,1.021-1.36A1.645,1.645,0,0,1,57.4,45.15a1.769,1.769,0,0,0,.533-.258,8.526,8.526,0,0,1,3.032-.912c.24-.026.473-.111.712-.158a3.551,3.551,0,0,1,2.6.6A6.907,6.907,0,0,1,66.3,45.982a.881.881,0,0,0,.375.233,1.844,1.844,0,0,1,1.232,1.7,9.933,9.933,0,0,1,.228,1.905A6.357,6.357,0,0,1,67.8,52.3a17.7,17.7,0,0,0-.962,2.237c-.321.873-.58,1.77-.886,2.72m-2.5,11.307c-.389.071-.756.11-1.107.206a15.056,15.056,0,0,1-2.776.441c-.741.059-1.486.068-2.229.129a8.449,8.449,0,0,0-2.631.671,7.086,7.086,0,0,1-1.9.591,4.68,4.68,0,0,0-1.344.568.541.541,0,0,0-.225.278,15.909,15.909,0,0,0-.881,3.5,14.732,14.732,0,0,1-.455,2.092c-.184.612-.38,1.222-.522,1.845-.121.526-.18,1.067-.252,1.6a11.263,11.263,0,0,0-.144,1.4,8.184,8.184,0,0,1-.4,2.551,13.84,13.84,0,0,0-.372,1.5c-.111.528-.181,1.064-.3,1.591a6.985,6.985,0,0,0-.281.991,12.371,12.371,0,0,1-.471,2.614,7.171,7.171,0,0,0-.27,1.6,13.883,13.883,0,0,1-.3,2.357.828.828,0,0,0,.11.781,2.507,2.507,0,0,0,1.3.825c.547.143,1.094.289,1.647.4a7.8,7.8,0,0,0,2.636.34,3.365,3.365,0,0,1,1.113.08,3.085,3.085,0,0,0,2.106-.193,1.163,1.163,0,0,1,.563-.156c.694.048,1.385.139,2.078.209a6.3,6.3,0,0,0,.885.066c.721-.029,1.443-.081,2.162-.14.342-.028.679-.095,1.02-.141a6.862,6.862,0,0,1,1.176-.142,12.79,12.79,0,0,1,1.392.213c.557.084,1.12.248,1.633-.177.1-.081.284-.062.43-.082s.341.024.426-.056a.693.693,0,0,1,.887-.084,1.3,1.3,0,0,0,.514.033,9.075,9.075,0,0,0,1.894-.28A5.842,5.842,0,0,0,72.337,96a2.516,2.516,0,0,0,.792.243,8.452,8.452,0,0,0,1.753-.257,4.262,4.262,0,0,1,1.243-.181,1.815,1.815,0,0,0,.811-.055,3.769,3.769,0,0,1,1.943-.4,2.4,2.4,0,0,0,.643-.166c.547-.142,1.089-.3,1.642-.417.723-.147,1.466-.213,2.181-.39.955-.236,1.9-.534,2.837-.826a7.121,7.121,0,0,0,1.516-.563,3.161,3.161,0,0,1,1.826-.491c.864.041,1.08-.175,1.193-1.031a1.705,1.705,0,0,0,0-.375,2.23,2.23,0,0,1,.18-.935,15.9,15.9,0,0,0,.7-2.408,20.963,20.963,0,0,0,.17-2.68,3.3,3.3,0,0,1,.29-1.739,1.752,1.752,0,0,0,.157-.57c.192-.938.386-1.876.565-2.817.175-.918.325-1.84.5-2.758q.2-1.056.442-2.1a16.041,16.041,0,0,0,.585-3.054A13.727,13.727,0,0,1,94.7,69.47c.105-.48.149-.973.231-1.459a2.264,2.264,0,0,1,.142-.564,6.352,6.352,0,0,0,.425-3.255,1.011,1.011,0,0,0-1.016-.169,17.466,17.466,0,0,1-3.62.7,6.668,6.668,0,0,0-1.1.178c-.931.222-1.855.477-2.787.695a6,6,0,0,1-1.177.163,10.956,10.956,0,0,0-1.974.276,2.259,2.259,0,0,1-.666-.014c-.294-.028-.585-.1-.879-.113a11.2,11.2,0,0,0-3.529.437,9.593,9.593,0,0,1-1.375.28c-.932.124-1.867.247-2.805.311-.53.037-1.017.271-1.519.306-.744.052-1.466.212-2.2.292a23.96,23.96,0,0,0-2.616.5,2.925,2.925,0,0,0-.527.235c.153.785.3,1.51.432,2.238s.244,1.459.349,2.191c.053.371.35.748.733.7a3.8,3.8,0,0,1,2.658,1.058,13.328,13.328,0,0,0,2.728,1.814,1.1,1.1,0,0,1,.339.274,4.567,4.567,0,0,1,.649.7,5.893,5.893,0,0,1,1.022,1.7,10.119,10.119,0,0,1,.137,2.007,3.569,3.569,0,0,1-.481,1.778,12.773,12.773,0,0,1-2.586,3.149,1.073,1.073,0,0,1-.249.16,12.41,12.41,0,0,0-2.2,1.037.574.574,0,0,1-.362.054,6.991,6.991,0,0,0-2.5.294A3.634,3.634,0,0,1,66.2,87.3c-.944-.276-1.855-.666-2.778-1.012a.544.544,0,0,1-.247-.163,5.753,5.753,0,0,0-1.2-1.1c-.609-.472-1.189-.984-1.766-1.495-.532-.471-1.157-.874-1.235-1.692a1.615,1.615,0,0,0-.236-.767,5.514,5.514,0,0,1-.723-2.158,2.984,2.984,0,0,1,.278-2.1,5.9,5.9,0,0,1,2.2-2.448,4.937,4.937,0,0,1,1.812-.79,6.252,6.252,0,0,0,.913-.287.429.429,0,0,0,.341-.431c.006-.2-.009-.4-.009-.6a10.669,10.669,0,0,1,.034-1.872,3.485,3.485,0,0,0-.136-1.808m-2.734-3.84c.389-.146.729-.29,1.08-.4a.821.821,0,0,0,.614-.6,8.219,8.219,0,0,1,.564-1.516,10.288,10.288,0,0,1,.519-1.613c.6-1.246,1.093-2.532,1.571-3.826.119-.323.3-.623.421-.945.207-.554.376-1.122.585-1.675.261-.691.583-1.359.809-2.06a7.169,7.169,0,0,0,.408-2.851,2.324,2.324,0,0,0-.235-1,13.506,13.506,0,0,0-1.03-1.258,10.244,10.244,0,0,0-1.7-1.31,2.41,2.41,0,0,0-1-.465,15.645,15.645,0,0,0-1.693-.187,4.368,4.368,0,0,0-1.995.485c-.475.184-.865.584-1.338.774a1.96,1.96,0,0,0-1.15,1.049.474.474,0,0,1-.226.19,1.021,1.021,0,0,0-.451.558c-.136.291-.3.568-.464.847-.275.47-.581.924-.832,1.407A14.646,14.646,0,0,0,54,54.211a8.34,8.34,0,0,0-.215,1.084,9.262,9.262,0,0,1-.151,1.7,10.677,10.677,0,0,0-.292,1.75,2.009,2.009,0,0,0,.292,1.575c.111.135.086.375.151.557.1.272.144.659.343.778a1.535,1.535,0,0,1,.621.894c.562.242,1.123.5,1.693.724.39.155.8.255,1.188.419.166.071.272.3.438.349s.378-.043.571-.053c.065,0,.131.073.2.089a4.38,4.38,0,0,0,.87.178,1.142,1.142,0,0,1,1,.471m8.047,9.613c.1.618.189,1.169.272,1.722a5.515,5.515,0,0,1,.226,2.617,1.009,1.009,0,0,0,.125.565,1.06,1.06,0,0,1-.161,1.1,7.374,7.374,0,0,1-.645.726.888.888,0,0,1-1.217.186,3.369,3.369,0,0,1-1.23-.925,1.5,1.5,0,0,0-.527-.523c-.421-.176-.492-.515-.567-.884-.034-.168-.1-.33-.141-.5-.154-.571-.326-1.136-.452-1.713-.121-.552-.174-1.118-.291-1.671-.126-.595-.293-.678-.873-.531-.381.1-.766.174-1.146.271a1.389,1.389,0,0,0-.335.153,10.53,10.53,0,0,0-1.084.656c-.435.329-.835.7-1.235,1.075-.1.1-.236.278-.207.376a1.689,1.689,0,0,1-.177,1.283.382.382,0,0,0,.01.217,8.53,8.53,0,0,0,.577,2.063,11.42,11.42,0,0,0,.915,1.437A8.063,8.063,0,0,0,62.951,84.3a3.5,3.5,0,0,1,.472.361,3.412,3.412,0,0,0,1.89,1.117.676.676,0,0,1,.264.135,2.212,2.212,0,0,0,2,.445c.817-.256,1.748-.024,2.508-.573.1-.074.292-.017.44-.035a4.131,4.131,0,0,0,2.085-.617c.5-.371.984-.759,1.474-1.141a.69.69,0,0,0,.105-.106,6.176,6.176,0,0,0,1.572-2.737,3.317,3.317,0,0,0-1.319-3.657,16.927,16.927,0,0,1-1.577-1.25,1.472,1.472,0,0,0-.7-.374,1.025,1.025,0,0,1-.571-.309c-.195-.194-.393-.385-.6-.568a3.279,3.279,0,0,0-2.232-.646m-8.551,39.2a4.6,4.6,0,0,0-.015-1.11,15.889,15.889,0,0,1-.278-1.908,20.333,20.333,0,0,1-.136-2.678,1.643,1.643,0,0,0-.052-.291c-.25-1.23-.534-2.453-.7-3.7a19.944,19.944,0,0,0-.4-2.182c-.209-.834-.487-1.652-.744-2.474-.181-.577-.308-.654-.9-.683a18.741,18.741,0,0,0-2.9.154c-.36.038-.424.129-.462.538a17.256,17.256,0,0,0,.338,3.914c.086.636.183,1.272.262,1.909a22.963,22.963,0,0,0,.354,2.794,36.742,36.742,0,0,1,.714,4.224,7.523,7.523,0,0,0,.3,1.3.789.789,0,0,0,.737.636,8.715,8.715,0,0,0,2.893-.225,8.539,8.539,0,0,1,.984-.218M88.229,93.9c-.8.328-1.61.66-2.421,1a.324.324,0,0,0-.171.126A5.189,5.189,0,0,0,85,97.117a16.223,16.223,0,0,0,.811,5.04c.4,1.315.9,2.6,1.316,3.909.194.607.3,1.242.444,1.864a1.275,1.275,0,0,0,1.036,1.051,15.819,15.819,0,0,0,2.127.022,3.8,3.8,0,0,1,.024-1.174,1.6,1.6,0,0,0-.069-1.074,2.84,2.84,0,0,1-.115-.426,10.757,10.757,0,0,1-.309-2.64.406.406,0,0,0-.022-.146c-.277-1.1-.574-2.187-.825-3.288A6.418,6.418,0,0,1,89.066,98a1.111,1.111,0,0,0-.055-.362c-.129-.573-.271-1.143-.391-1.718-.14-.672-.262-1.348-.391-2.019M67.651,73.179c-.062-.42-.122-.834-.186-1.247-.106-.683-.207-1.367-.324-2.048-.137-.8-.3-1.6-.429-2.4a9.631,9.631,0,0,1-.489-2.685c.011-.09-.065-.187-.084-.284-.217-1.136-.507-2.265-.614-3.412a18.523,18.523,0,0,0-.453-1.8l-1.356,3.218a1.621,1.621,0,0,1,.151,1.257,1.237,1.237,0,0,0,.491,1.513c.076.042.107.164.176.277-.395.31-.262.736-.251,1.15a.848.848,0,0,0,.413.805,3.3,3.3,0,0,1,.838,1.052l-.945.119a4.52,4.52,0,0,1-.017,1.175,6.686,6.686,0,0,0-.116,2.081,1.878,1.878,0,0,0,.551,1.547,1.132,1.132,0,0,1,.345.947,6.3,6.3,0,0,0,.121,1.63,9.059,9.059,0,0,0,1.259,3.5,1.757,1.757,0,0,0,.842.663c.269.1.407.017.471-.261s.151-.57.208-.859a4.214,4.214,0,0,0,.18-1.157c-.087-.905-.278-1.8-.389-2.7a.62.62,0,0,0-.337-.532,2.4,2.4,0,0,1-.385-.218c-.479-.393-.451-.746.075-1.1.061-.041.112-.1.255-.219m28.22-4.064a6.221,6.221,0,0,0-.328,1.21,18.369,18.369,0,0,1-.45,2.7c-.251,1.134-.412,2.289-.606,3.435a.513.513,0,0,0,.048.2,3.619,3.619,0,0,1,.6-.063.787.787,0,0,1,.683.825,7.012,7.012,0,0,0,.255,2.634,31.249,31.249,0,0,0,.771,3.082c.393.081.825.167,1.255.262.282.062.546.094.7-.209-.092-.343-.181-.672-.268-1-.062-.235-.111-.474-.184-.705a20.331,20.331,0,0,1-.694-2.255,22.261,22.261,0,0,1-.176-2.38c-.034-.444-.076-.889-.154-1.326a1.536,1.536,0,0,1-.012-1,1.112,1.112,0,0,0-.038-.584c-.125-.705-.309-1.4-.381-2.115a7.87,7.87,0,0,0-1.02-2.7M47.038,51.785a4.438,4.438,0,0,0,.385.474c.317.3.644.2.77-.216a1.327,1.327,0,0,0,0-.331.855.855,0,0,0-1.16.072M24.3,25.108a15.626,15.626,0,0,0-1.755,1.363,1.413,1.413,0,0,0-.46,1.2,2.441,2.441,0,0,1-.058,1.034.93.93,0,0,0,.142.9.986.986,0,0,0,1,.456.785.785,0,0,0,.6-.767,1.163,1.163,0,0,0-.154-.608,1.132,1.132,0,0,1,.205-1.369,5.09,5.09,0,0,1,.471-.481c.877-.836.979-.658,1.888-.034a.9.9,0,0,1,.106.105l.955.928a5.993,5.993,0,0,1,1.414,1.9,1.377,1.377,0,0,0,.233.372c.316.351.654.3.912-.095s.041-.68-.183-.941a4.4,4.4,0,0,1-.831-1.136,1.153,1.153,0,0,0-.233-.378c-.763-.754-1.529-1.505-2.309-2.24a1.94,1.94,0,0,0-1.27-.431,2.136,2.136,0,0,0-.67.215M12.732,32.467a8.861,8.861,0,0,1,.25-1.382c.322-.938.849-1.222,2-1.379a1.679,1.679,0,0,1,1.01.168c.418.213.839.419,1.253.639a.763.763,0,0,1,.286.236,3.6,3.6,0,0,1,.749,2.847,3.142,3.142,0,0,0-.086.51,1.184,1.184,0,0,1-1.1,1.167c-.1.014-.216-.011-.294.035a1.476,1.476,0,0,1-1.6-.147,5.463,5.463,0,0,0-.969-.33.709.709,0,0,1-.268-.106c-.315-.311-.629-.625-.92-.959-.326-.373-.244-.845-.312-1.3m4.417.477c-.138-.5-.144-1.083-.589-1.459a3.481,3.481,0,0,0-.851-.43,1.656,1.656,0,0,0-1.836.7.537.537,0,0,0-.035.217,1.991,1.991,0,0,0,1.57,1.653,2.112,2.112,0,0,1,.57.112c.816.318.872.295,1.094-.557.018-.071.046-.14.078-.235M60.456,50.868a5.172,5.172,0,0,1,1.42.379,3.637,3.637,0,0,1,2.018,1.133c.222.3.528.209.746-.094a.743.743,0,0,0-.313-1.1c-.135-.057-.277-.1-.417-.146a2.16,2.16,0,0,1-.819-.454,4.693,4.693,0,0,0-1.284-.723,7.454,7.454,0,0,0-1.267-.382,1.347,1.347,0,0,0-.632.009c-.541.145-.429.577-.391,1.044a3.26,3.26,0,0,0,.939.333m.931,9.445c.154-.183-.011-.347-.128-.521-.283-.423-.531-.859-1.149-.8-.084.008-.173-.089-.266-.118q-1.192-.378-2.387-.747a.653.653,0,0,0-.221-.018.632.632,0,0,0-.6.629c-.013.421.242.636.763.724a6.287,6.287,0,0,1,2.155.445c.235.132.467.27.707.393.191.1.392.177.621.278a1.582,1.582,0,0,0,.508-.265m-1.678-6.265a1.1,1.1,0,0,0-.885-.31.473.473,0,0,0-.492.264.512.512,0,0,0,.1.621,4.721,4.721,0,0,0,.724.478c.214.121.5.154.661.319.555.58,1.387.636,2,1.114.253.2.512.064.67-.221a.876.876,0,0,0-.044-.849,6.487,6.487,0,0,1-2.731-1.417" transform="translate(0 0)"/>
      </g>
    </g>
    <rect id="Rectangle_182" data-name="Rectangle 182" class="cls-3" width="146" height="167" transform="translate(187 954)"/>
  </g>
</svg>
