<svg xmlns="http://www.w3.org/2000/svg" xmlns:xlink="http://www.w3.org/1999/xlink" width="122" height="145" viewBox="0 0 122 145">
  <defs>
    <style>
      .cls-1 {
        fill: none;
      }

      .cls-2 {
        clip-path: url(#clip-path);
      }
    </style>
    <clipPath id="clip-path">
      <rect id="Rectangle_42" data-name="Rectangle 42" class="cls-1" width="90.197" height="119.709"/>
    </clipPath>
  </defs>
  <g id="Group_255" data-name="Group 255" transform="translate(-755 -418)">
    <g id="Group_70" data-name="Group 70" transform="translate(775 434)">
      <g id="Group_69" data-name="Group 69" class="cls-2">
        <path id="Path_83" data-name="Path 83" d="M41.438,67.275a3.593,3.593,0,0,0,.525-.055,1.02,1.02,0,0,1,1.138.308,1.208,1.208,0,0,1-.118,1.26c-.353.378-.749.716-1.209,1.15.209.042.3.053.385.078.688.2.767.309.791,1.031.031.976.031.976-.834,1.627.089.121.186.239.268.366a.891.891,0,0,1-.484,1.434c-.187.065-.378.123-.552.18.14.329.259.638.4.937a1.4,1.4,0,0,1-.006,1.035,3.141,3.141,0,0,1-.8,1.221,1.124,1.124,0,0,1-1.017.417,2.162,2.162,0,0,0-.54,0,1.068,1.068,0,0,1-.91-.342c-.468-.486-.943-.967-1.384-1.477a.581.581,0,0,0-.663-.183,1.049,1.049,0,0,0-.347.207,9.792,9.792,0,0,1-2.063,1.1c-.26.12-.645.228-.719.433a2.671,2.671,0,0,0-.339,1.273c.059.445.033.9.1,1.345a17.282,17.282,0,0,1,.134,2.554,1.424,1.424,0,0,0,.093.319,3.883,3.883,0,0,1,.174,1.322,5.549,5.549,0,0,0,.374,2.025c.143.49.276.984.444,1.465a4.7,4.7,0,0,0,.456,1.033,5.207,5.207,0,0,0,1.631,1.91c.271.154.5.375.769.542a2.54,2.54,0,0,0,1.54.569,1.925,1.925,0,0,1,1.191.385,3.26,3.26,0,0,0,2.022.574,10.061,10.061,0,0,1,1.658.2,1.753,1.753,0,0,0,.328.052c1-.069,1.5.619,1.911,1.347a3.509,3.509,0,0,1,.415,1.6,14.8,14.8,0,0,0,.231,1.518c.059.4.118.8.156,1.2.057.6.063,1.209.151,1.8.262,1.773-.006,3.56.142,5.329.195,2.34.053,4.681.135,7.042a.691.691,0,0,0,.748-.053,2.858,2.858,0,0,1,2.4-.1,2.031,2.031,0,0,1,1.3,1.451,4.8,4.8,0,0,1,.12.519,1.157,1.157,0,0,1-.325,1.109,2.956,2.956,0,0,1-1.118.815,1.139,1.139,0,0,0-.874.844c-.035.154-.264.306-.437.379-.43.181-.878.318-1.321.466a.327.327,0,0,1-.195,0,5.455,5.455,0,0,0-3.13.282,10.653,10.653,0,0,0-1.456.467,1.045,1.045,0,0,1-1.369-.288c-.457.094-.888.2-1.326.266a1.2,1.2,0,0,1-1.292-.655,2.558,2.558,0,0,0-.939-1.027,2.416,2.416,0,0,1-.526-.52.732.732,0,0,1-.19-.773,1.651,1.651,0,0,0-.072-.847c-.186-.707-.374-1.416-.624-2.1a11.242,11.242,0,0,1-.35-1.9c-.163-.9-.292-1.8-.4-2.706a18.375,18.375,0,0,1-.139-2.006,6.544,6.544,0,0,0-.228-1.717,1.024,1.024,0,0,1-.046-.328c.068-1.12-.052-2.239-.007-3.359.006-.135,0-.271,0-.406-.03-1.091-.526-1.482-1.573-1.244a4.566,4.566,0,0,1-.59.1c-.579.054-1.16.088-1.738.153a1.649,1.649,0,0,0-.431.185c.651.617,1.275,1.22,1.913,1.806a3.647,3.647,0,0,1,1.351,2.03.484.484,0,0,0,.128.231,1.205,1.205,0,0,1,.252,1.075,3.471,3.471,0,0,1-.513,1.5,2.109,2.109,0,0,1-1.049.893.649.649,0,0,0-.5.826c.092.775.2,1.547.3,2.32.051.4.1.795.138,1.193a.618.618,0,0,1-.013.269c-.314.848.056,1.754-.227,2.6a13.309,13.309,0,0,1,.1,2.825c.033.842,0,.839-.808.646a2.055,2.055,0,0,0-.529-.063c-.7.019-1.4.05-2.092.083a1.157,1.157,0,0,1-.808-.263.46.46,0,0,1-.206-.527,1.494,1.494,0,0,0-.116-1.028,3.107,3.107,0,0,1-.18-1.048c0-.357-.106-.714-.1-1.071.019-1.077.067-2.154.116-3.229.007-.152.1-.3.121-.45a3.091,3.091,0,0,0-.063-1.592c-.408.161-.815.326-1.225.483-.445.169-.721.047-1.138-.531l-1.154.193a6.461,6.461,0,0,0-.1,2.111c0,1.015.026,2.03.024,3.045a.956.956,0,0,1-.15.435c-.265.464-.518.458-.814,0a1.9,1.9,0,0,0-.144-.174,4.773,4.773,0,0,0-1.519.086c-.472.163-.68-.2-.9-.563a1.656,1.656,0,0,0,.162-1.082,6.866,6.866,0,0,1,.355-3.043,2.448,2.448,0,0,0,.056-.8,30.547,30.547,0,0,1-3.062.116c-.024.424-.075.813-.062,1.2.02.6.084,1.206.129,1.809a4.609,4.609,0,0,1-.232,1.581,6.983,6.983,0,0,0,.009,3.337,4.508,4.508,0,0,0,.476.982c-.109.4-.389.545-.831.566-.825.039-1.645.165-2.47.21a4.7,4.7,0,0,1-1.123-.113.683.683,0,0,1-.421-.761c.157-.677.171-1.373.282-2.051a18.877,18.877,0,0,0,.106-2.759,11.231,11.231,0,0,0-.241-2.113,2.993,2.993,0,0,1,.049-.728,3.781,3.781,0,0,0,.053-.664c-.036-.374-.118-.744-.188-1.16a7.821,7.821,0,0,0-1.229-.154A1.924,1.924,0,0,1,11.232,108c-.226-.275-.382-.607-.606-.884a.809.809,0,0,1-.153-.825,2.927,2.927,0,0,1,.662-1.144c.309-.285.528-.665.823-.968a8.764,8.764,0,0,1,2.266-1.882,1.271,1.271,0,0,0,.248-.214,3.157,3.157,0,0,1-.1-.6,11.378,11.378,0,0,0-.342-2.379,3.593,3.593,0,0,0-.59-1.405c-.036-.054-.035-.151-.081-.178A3.5,3.5,0,0,1,12.3,96.166c-.322-.513-.655-1.021-.965-1.541a1.194,1.194,0,0,1-.17-.506,2.418,2.418,0,0,0-.322-.944,2.831,2.831,0,0,1-.159-.642c-.13-.538-.259-1.077-.394-1.614a1.242,1.242,0,0,0-.137-.376,2.952,2.952,0,0,1-.414-1.52C9.7,88.207,9.479,87.4,9.4,86.585a17.2,17.2,0,0,1-.077-1.733,2.527,2.527,0,0,0-.307-1.344,6.985,6.985,0,0,1-.594-1.84,9.452,9.452,0,0,1-.3-2.519,9.041,9.041,0,0,0-.443-2.612.94.94,0,0,1-.072-.389,1.822,1.822,0,0,0-.171-.843,2.662,2.662,0,0,1-.106-.518,3.35,3.35,0,0,0-.09-.522,1.362,1.362,0,0,1-.068-1.045.581.581,0,0,0,.01-.334,10.609,10.609,0,0,1-.249-2.673,4.73,4.73,0,0,0-.307-1.772A.8.8,0,0,1,6.59,67.8a.433.433,0,0,0-.029-.369c-.3-.389-.2-.865-.3-1.294-.184-.778.331-1.218.927-1.543A8.06,8.06,0,0,1,8.3,64.172c.584-.213,1.16-.453,1.755-.631a18.848,18.848,0,0,1,2.259-.568,3.078,3.078,0,0,0,1.316-.741,1.04,1.04,0,0,0,.284-.78,9.058,9.058,0,0,0-.244-1.365c-.013-.066-.061-.131-.055-.194a3.18,3.18,0,0,0-.583-1.678A.96.96,0,0,1,13,57.566c-.175-.057-.338-.118-.506-.162-.214-.056-.437-.081-.646-.151-.36-.119-.741-.183-1.09-.3a4.951,4.951,0,0,1-1.935-.8,7.683,7.683,0,0,0-1.295-.81,1.822,1.822,0,0,0-.445-.111c-.349-.09-.7-.169-.789-.611A3.584,3.584,0,0,0,5.093,52.8c-.5-.476-1.018-.94-1.528-1.408-.1-.091-.191-.221-.309-.257-.427-.13-.563-.46-.674-.84-.2-.681-.421-1.353-.625-2.032a2.469,2.469,0,0,1-.019-.334c-.052-.351-.117-.7-.167-1.053s-.1-.711-.127-1.068a6.394,6.394,0,0,0-.125-1.738.976.976,0,0,1,.023-.534,3.044,3.044,0,0,0-.005-1.658,1.228,1.228,0,0,1-.03-.335,19.614,19.614,0,0,0-.238-3.875c-.016-.077.065-.168.066-.253.006-.268,0-.537-.013-.805-.006-.11-.071-.216-.079-.326-.053-.737-.088-1.475-.147-2.212a8.817,8.817,0,0,0-.157-1.2c-.135-.608-.343-1.2-.464-1.81a9.57,9.57,0,0,1-.18-1.6C.267,28.4.257,27.342.3,26.282c.026-.688.206-1.371.217-2.058a5.7,5.7,0,0,0,.076-1.781c-.031-.106.059-.247.093-.372.048-.171.166-.356.133-.509a8.261,8.261,0,0,1,.02-1.5,1.286,1.286,0,0,1-.569-1.19,12.216,12.216,0,0,0-.2-1.592,5.782,5.782,0,0,1,.037-2.011A2.477,2.477,0,0,0,.148,14.6,24.391,24.391,0,0,1,.382,11.59,10,10,0,0,1,.836,9.37a11.186,11.186,0,0,1,.815-1.957,12.213,12.213,0,0,1,1.177-1.54c.223-.279.474-.535.7-.813A5.639,5.639,0,0,1,5.114,3.733a6.8,6.8,0,0,1,1.3-.5c.465-.152.937-.289,1.414-.4a8.582,8.582,0,0,1,1.124-.153c.576-.049,1.154-.092,1.732-.107.622-.017,1.245,0,1.92.005a1.452,1.452,0,0,1,0-1.236A9.1,9.1,0,0,1,13.18.293,1.867,1.867,0,0,1,14.432.019a3.259,3.259,0,0,1,2.2,2.1,1.833,1.833,0,0,0,1,1.079,3.931,3.931,0,0,0,1.939.394,4.116,4.116,0,0,1,1.612.372,7.4,7.4,0,0,1,1.9.826c.843.056,1.264.649,1.681,1.278.247.372.574.691.854,1.043A3.469,3.469,0,0,1,26,7.664a7.85,7.85,0,0,1,.713,1.5c.195.725.754,1.336.662,2.148a.691.691,0,0,0,.08.321,9.546,9.546,0,0,1,.478,2.214c.129.742.148,1.495.334,2.239a8.336,8.336,0,0,1,.036,2.157c-.007.334-.1.666-.108,1a8.48,8.48,0,0,0,.089.992,1.42,1.42,0,0,1-.076.919,1.547,1.547,0,0,0-.159.981c.062.529.154,1.055.233,1.582.016.111.037.222.043.333.043.829.077,1.659.127,2.489.034.56.083,1.118.141,1.676a.59.59,0,0,0,.149.285,3.032,3.032,0,0,0,.377.389,15.275,15.275,0,0,1,2.357,2.84,4.449,4.449,0,0,1,.914,1.914.48.48,0,0,0,.08.183,4.842,4.842,0,0,1,.59,2.376c.041.466.145.927.224,1.39a1.578,1.578,0,0,1-.8,1.692c-.4.248-.772.531-1.161.791a.847.847,0,0,1-.292.124c-.5.1-1,.169-1.492.3a1.419,1.419,0,0,0-.789,1.422,5.439,5.439,0,0,0,.624,1.822,2.259,2.259,0,0,1,.139,1.321.934.934,0,0,1-.88.686,6.854,6.854,0,0,0-2.023.4q-.244.09-.482.195c-.464.2-.873.5-1.358.69a3.219,3.219,0,0,0-1.424,1.2,1.065,1.065,0,0,0-.064.33,9.19,9.19,0,0,0,1.294.283,6.713,6.713,0,0,1,2.146.481c.243.1.517.131.768.218.438.153.88.3,1.3.5a1.4,1.4,0,0,1,.681.955,8.964,8.964,0,0,1,.316,1.78c.053.695.012,1.4.012,2.094a11.131,11.131,0,0,1-2.4,1.172c-.518.191-1.031.394-1.547.59a.773.773,0,0,1-.253.078,28.285,28.285,0,0,0-3.081.511,14.728,14.728,0,0,0-1.488.35,14.415,14.415,0,0,1-1.453.221,1.916,1.916,0,0,1-.532-.1c-.178.076-.217.234-.217.431a6.857,6.857,0,0,0,.529,2.67,1.087,1.087,0,0,0,1.234.629,11.72,11.72,0,0,1,2.944-.218,12.483,12.483,0,0,1,1.94.448c.833.232,1.649.531,2.486.746a3.109,3.109,0,0,1,1.777,1.259,5.324,5.324,0,0,1,1.145,1.874c.536.5.32,1.226.535,1.822q.136.374.253.755c.077.248-.067.543.179.814l4.925-1.255c.21-.667.407-1.3.611-1.934a1.016,1.016,0,0,1,.69-.678,18.111,18.111,0,0,1,1.779-.556,1.786,1.786,0,0,1,1.479.456,4.549,4.549,0,0,1,.484.473,1.035,1.035,0,0,1,0,1.494c-.119.124-.242.244-.363.366a.417.417,0,0,0-.048.03.1.1,0,0,0-.018.029l.048-.076m-.3,48.142c-.093-.695-.176-1.351-.269-2.007a27.952,27.952,0,0,1-.379-3.061c-.018-.561-.083-1.121-.151-1.679-.066-.531-.166-1.059-.248-1.589a15.876,15.876,0,0,0-.34-2.108,20.713,20.713,0,0,1-.317-2.718,12.659,12.659,0,0,1-.021-2.028,1.517,1.517,0,0,1,.014-.337.426.426,0,0,1,.723-.244.879.879,0,0,1,.322.958,3.5,3.5,0,0,0-.1.79c.025.787.1,1.573.122,2.36a11.844,11.844,0,0,0,.246,2.059,6.015,6.015,0,0,1,.155,1.4c-.051,1.4.274,2.764.31,4.153a1.56,1.56,0,0,0,.048.266c.157.762.286,1.532.485,2.283a2.928,2.928,0,0,0,.494.945c.23.31.408.325.76.128a3.807,3.807,0,0,1,1.257-.431,3.863,3.863,0,0,0,1.449-.672.476.476,0,0,0,.207-.254,8.887,8.887,0,0,0,.27-1.569c.035-1.646.016-3.293.011-4.94,0-.559-.021-1.118-.042-1.677-.013-.356-.065-.712-.059-1.067.006-.335.1-.671.094-1-.014-.538-.119-1.074-.118-1.611a13.622,13.622,0,0,0-.306-2.385,5.93,5.93,0,0,1-.225-1.306,6.651,6.651,0,0,0-.419-2.3,1.38,1.38,0,0,0-1.26-1c-.712.008-1.425-.074-2.136-.129a1.181,1.181,0,0,1-.38-.12c-.487-.22-.968-.453-1.455-.67a3.31,3.31,0,0,0-.744-.279,6.925,6.925,0,0,1-2.367-.852,5.733,5.733,0,0,1-1.805-1.486c-.356-.484-.665-1.007-1.054-1.461a2.339,2.339,0,0,1-.439-.892c-.148-.485-.21-1-.353-1.48a15.712,15.712,0,0,1-.477-2.072c-.059-.372-.121-.744-.211-1.11-.137-.557-.3-1.108-.448-1.664a.617.617,0,0,1-.005-.269,5.679,5.679,0,0,0-.069-1.713,2.577,2.577,0,0,1,.016-1.053.867.867,0,0,0-.343-1.126c-.516.138-1.031.272-1.544.415a12.919,12.919,0,0,1-1.876.442,6.064,6.064,0,0,0-2.289.689.846.846,0,0,1-.582.048c-.145-.039-.252-.217-.37-.328a1.859,1.859,0,0,1,1.16-.932,9.244,9.244,0,0,1,1.807-.449,16.692,16.692,0,0,0,2.261-.5c.948-.227,1.862-.589,2.808-.844a6.559,6.559,0,0,0,2.875-1.649.783.783,0,0,1,.659-.272c.309.037.619.076.925.138a.911.911,0,0,1,.352.177,1.277,1.277,0,0,1,.512.768,1.625,1.625,0,0,0,.7.957,1.139,1.139,0,0,0,1.661-.223,1.167,1.167,0,0,0-.357-1.8c-.289-.165-.581-.325-.856-.51a.68.68,0,0,1-.257-.777c.087-.218.315-.3.686-.232a2.4,2.4,0,0,1,.641.169c.374.189.656.04,1.044-.176a2.92,2.92,0,0,0-1.342-.377.978.978,0,0,1-.908-.548.546.546,0,0,1,.026-.153,1.083,1.083,0,0,1,1.08-.532,2.651,2.651,0,0,0,1.721-.542c-.115-.3-.331-.267-.531-.268-.541,0-1.082.006-1.622,0a.556.556,0,0,1-.533-.425.485.485,0,0,1,.252-.572c.287-.169.607-.284.886-.463.432-.276.847-.578,1.257-.885.143-.107.277-.253.1-.456-.466.124-.933.244-1.4.373-.23.063-.444.225-.688.008-.184-.164-.409-.285-.42-.64l1.525-1.643c.342-.368.292-.631-.169-.8a1.447,1.447,0,0,0-.464-.065,5.005,5.005,0,0,0-1.6.44,1.211,1.211,0,0,0-.448.4.615.615,0,0,0-.085.8,2.315,2.315,0,0,1,.26.61c.133.484-.018.766-.5.832a2.58,2.58,0,0,0-1.208.343c-.056.039-.164.018-.246.006a4.866,4.866,0,0,0-2.214.367c-.674.217-1.364.391-2.056.545a5.283,5.283,0,0,0-1.27.373,11.618,11.618,0,0,1-1.18.448,5.947,5.947,0,0,0-.868.335c-.619.352-1.22.737-1.823,1.119-.281.178-.529.492-.826.543-.361.061-.666.252-1.015.305-.591.09-1.187.153-1.779.244a.935.935,0,0,1-.981-.477c.17-.348.332-.79.751-.769s.785-.147,1.186-.087a.857.857,0,0,0,.465-.035,20.782,20.782,0,0,0,2.257-1.135,10.552,10.552,0,0,1,3.3-1.4,4.244,4.244,0,0,0,.611-.248,3.026,3.026,0,0,1-.59-1.327,4.22,4.22,0,0,0-.355-.926,1.875,1.875,0,0,1-.175-.5,4.521,4.521,0,0,0-.661-1.723,1.836,1.836,0,0,0-.957-.878c-.344-.144-.709-.237-1.065-.353-.86-.279-1.73-.531-2.574-.852-.366-.14-.685-.332-1.083-.135-.064.032-.168-.019-.254-.029a2.292,2.292,0,0,0-.662-.056,12.788,12.788,0,0,1-1.844.307c-.485.028-.963.173-1.449.216a.753.753,0,0,1-.931-.852,3.033,3.033,0,0,0-.248-1.1,6.446,6.446,0,0,1-.3-1.09c-.072-.391-.08-.793-.136-1.188a.81.81,0,0,0-1.041-.739,4.092,4.092,0,0,1-1.987-.027c-.241.333-.247.335-.191.52.139.466.29.928.425,1.395a1.31,1.31,0,0,1,.074.457,12.948,12.948,0,0,0,.38,2.516l-.243.413c.559.641.546.871-.069,1.339-.116-.083-.245-.165-.362-.262a1.037,1.037,0,0,1-.281-.289,1.51,1.51,0,0,1-.073-.423,3.716,3.716,0,0,0-.384.081c-.383.122-.762.254-1.144.379a4.606,4.606,0,0,1-1.071.328,2.544,2.544,0,0,0-1.459.458,1.74,1.74,0,0,1-1.167.4,2.317,2.317,0,0,0-1.615.555.71.71,0,0,0-.3.552,5.539,5.539,0,0,0,.44,1.941,1.5,1.5,0,0,1,.171.637c.06.851.1,1.7.142,2.556a1.174,1.174,0,0,0,.011.2,14.842,14.842,0,0,1,.273,2.594,6.47,6.47,0,0,0,.248,1.785,6.31,6.31,0,0,1,.422,2.426c-.03.449,0,.9-.007,1.354a3.331,3.331,0,0,0,.624,2.335c.065.078.046.218.092.318a11.2,11.2,0,0,1,.631,3.469c.093.755.1,1.519.148,2.279a.319.319,0,0,0,.015.133,9.016,9.016,0,0,1,.493,1.724,27.284,27.284,0,0,1,.817,2.673,7.232,7.232,0,0,0,1.514,3.168,6.937,6.937,0,0,1,1.081,1.608,7.174,7.174,0,0,1,.83,2.863c0,.11.062.218.069.329a.757.757,0,0,0,.507.648,8.484,8.484,0,0,0,1.955.409c.077.02.172-.037.259-.055.761-.16,1.524-.3,2.28-.482a18.636,18.636,0,0,0,3.441-.784.847.847,0,0,1,.458-.093c1.02.19,1.982-.394,3-.21a.305.305,0,0,0,.195-.039,2.532,2.532,0,0,1,1.1-.284,8.556,8.556,0,0,0,1.5-.355,14.446,14.446,0,0,1,1.757-.391c.8-.12,1.6-.195,2.4-.263a1.158,1.158,0,0,1,.652.1,2.311,2.311,0,0,1,1.142,1.262,6.286,6.286,0,0,1,.265,1.985c0,.067-.013.134-.021.2a7.359,7.359,0,0,0-.1,1c.02.737.084,1.473.127,2.21.048.826.091,1.654.139,2.481,0,.066.032.131.041.2a16.936,16.936,0,0,1,.216,1.722,18.758,18.758,0,0,0,.372,2.578c.16.949.631,1.795.825,2.726.059.283.173.447.466.48.2.023.392.088.59.1a4.9,4.9,0,0,0,2.326-.358m-16.861-95.9c-.011.24-.024.459-.029.679a1.371,1.371,0,0,1-1.542,1.3,2.667,2.667,0,0,1-1.835-1.446c-.1-.229-.211-.384-.373-.422-.4.449-.756.867-1.127,1.276-.166.183-.361.339-.527.522a.651.651,0,0,1-.459.234c-.437.042-.869.128-1.3.2a1.156,1.156,0,0,0-.01.233,13.635,13.635,0,0,1,.409,2.774,1.068,1.068,0,0,0,.143.432c.454.99.94,1.967,1.361,2.97a5.62,5.62,0,0,1,.361,2.238c-.009.912-.158,1.823-.249,2.735-.042.422-.081.844-.142,1.263-.073.5-.647.516-.882.868-.032.048-.112.065-.206.117-.365-.37-.778-.119-1.12.021-1.111.454-2.218.077-3.324.071-.56-.265-1.227-.27-1.714-.726a1.638,1.638,0,0,0-.487-.212A2.353,2.353,0,0,1,9.945,33.4a7.382,7.382,0,0,1-.589-3.062,1.133,1.133,0,0,0-.018-.469,1.288,1.288,0,0,1-.027-.773c.04-.256-.157-.543-.21-.824a.855.855,0,0,1,.094-.383,11.112,11.112,0,0,0,.409-1.2,3.44,3.44,0,0,1,.644-1.721.392.392,0,0,0,.05-.123,3.069,3.069,0,0,1,2.333-1.985.735.735,0,0,0,.63-.973,5.111,5.111,0,0,0-.174-.535c-.566-.083-.8-.507-.983-.985-.08-.209-.168-.415-.265-.617a1.382,1.382,0,0,0-1.768-.694,1.216,1.216,0,0,1-.744,1.22,1.772,1.772,0,0,0-.3.275,1.48,1.48,0,0,1-2.347-.041c-.455-.49-.82-1.063-1.229-1.6-.263-.342-.4-.347-.687-.031-.091.1-.17.209-.251.317a3.12,3.12,0,0,1-.528.684c-.46.337-.968.607-1.483.92-.093.241-.206.529-.313.819a3,3,0,0,0-.14.448c-.177.915-.381,1.826-.511,2.748-.14.994-.234,2-.3,3a8.863,8.863,0,0,0,.115,1.335c.056.623.1,1.247.169,1.868a4.424,4.424,0,0,0,.178.917,9.853,9.853,0,0,1,.337,2.232c.015.157,0,.316.018.472.081.732.185,1.461.249,2.194.063.716.1,1.435.127,2.153.041,1.213-.012,2.427.132,3.639a13.721,13.721,0,0,1-.108,1.4c.008.691.068,1.383.129,2.073a14.767,14.767,0,0,0,.35,2.641,4.464,4.464,0,0,0,.964,1.645c.644.8,1.639,1.253,2.147,2.185.03.054.1.083.155.128.451.4.932.782,1.345,1.222a5.173,5.173,0,0,0,2.041,1.354,6.126,6.126,0,0,1,1.5.713,1.143,1.143,0,0,0,.561.161,6.281,6.281,0,0,1,2.166.394,1.477,1.477,0,0,0,.4.047c.33.043.661.083.988.138a3.25,3.25,0,0,0,.586.127c1.008-.032,2.016-.088,3.023-.141.063,0,.121-.062.185-.072.154-.025.335-.1.46-.042a.939.939,0,0,0,1.151-.235.273.273,0,0,1,.193-.039,8.587,8.587,0,0,0,1.891-.367c.637-.085,1.266-.243,1.905-.3a2.225,2.225,0,0,0,.962-.241,1.591,1.591,0,0,1,.5-.171,5.321,5.321,0,0,0,1.59-.654,1.744,1.744,0,0,1,.724-.313.492.492,0,0,0,.466-.487,6.718,6.718,0,0,0-.165-2.136,1.073,1.073,0,0,0-.661-.776c-.431-.177-.888-.295-1.3-.482A8.27,8.27,0,0,0,24,49.847a2.2,2.2,0,0,1-1.339-.664,4.4,4.4,0,0,1-.355-.405c-.283-.331-.3-.465-.025-.824A5.138,5.138,0,0,1,23.6,46.72a7.974,7.974,0,0,1,2.163-1.17,1.889,1.889,0,0,0,.408-.23,1.935,1.935,0,0,1,.821-.256,3.907,3.907,0,0,0,1.492-.5c-.051-.267-.1-.525-.151-.781a5.368,5.368,0,0,1-.446-2.068c.01-.057-.052-.124-.066-.189a1.473,1.473,0,0,1,.817-1.716c.145-.053.291-.106.433-.167.779-.331,1.565-.647,2.333-1a1.306,1.306,0,0,0,.855-1.54c-.156-.761-.29-1.527-.495-2.278-.211-.773-.669-1.446-.879-2.219a.628.628,0,0,0-.193-.271,10.51,10.51,0,0,1-1.22-1.587c-.448-.584-.872-1.21-1.7-1.322-.1-.013-.183-.109-.3-.18.031-.164.067-.315.085-.468a1.509,1.509,0,0,0,.043-.658,3.28,3.28,0,0,1-.109-1.065,13.542,13.542,0,0,0-.116-2.011,24.994,24.994,0,0,0-.623-3.088,1.5,1.5,0,0,1-.884-.73c-.269-.436-.55-.865-.806-1.308a.712.712,0,0,0-.791-.406M12.436,4.241c-.172-.267-.368-.452-.757-.239a.89.89,0,0,1-.6-.009,6.383,6.383,0,0,0-3.062.125,13,13,0,0,0-2.545.81A2.954,2.954,0,0,0,3.945,6.357a3.259,3.259,0,0,1-.618.949A5.078,5.078,0,0,0,2.221,8.8a9.093,9.093,0,0,0-.854,3.209c-.067.575-.161,1.146-.23,1.72C1.071,14.284,1,14.84.973,15.4a7.411,7.411,0,0,0,.122.855c.057.713.085,1.428.143,2.14a.91.91,0,0,0,1.387.8,5.525,5.525,0,0,0,1.1-.972c.254-.252.457-.555.706-.812a.756.756,0,0,1,1.035-.124,2.5,2.5,0,0,1,1.17,1.336,1.419,1.419,0,0,0,.156.368c.252.34.5.776.971.734a1.344,1.344,0,0,0,1.058-.847,2.676,2.676,0,0,0,.138-.442,3.272,3.272,0,0,1,.1-.389.626.626,0,0,1,.859-.379,3.551,3.551,0,0,0,.847.173,1.865,1.865,0,0,1,1.845,1.293,1.871,1.871,0,0,0,.473.744c.071-.487.14-.9.189-1.323a1.823,1.823,0,0,0-.037-.4c-.028-.244-.059-.488-.083-.732-.04-.4-.051-.809-.116-1.207-.1-.593-.238-1.179-.345-1.771-.052-.285-.036-.585-.109-.863a14.093,14.093,0,0,1-.414-2.091,8.29,8.29,0,0,1-.112-1.56c.014-.169-.1-.35-.08-.517.058-.524.159-1.042.225-1.564a5.711,5.711,0,0,0,.007-.653,1.565,1.565,0,0,1,.015-.471,5.565,5.565,0,0,0,.118-1.542c.016-.286.058-.571.1-.945m14.2,16.314c.167-.144.386-.242.436-.394a4.458,4.458,0,0,0,.282-1.3,11.69,11.69,0,0,0-.1-2.346c-.181-.938-.177-1.91-.3-2.861a13.864,13.864,0,0,0-.469-2.621A10.524,10.524,0,0,0,24.705,7.6a5.373,5.373,0,0,0-2.232-1.891c-.544-.192-1.08-.409-1.629-.588a4.756,4.756,0,0,0-.784-.139c-.484-.07-.973-.114-1.453-.206a4.249,4.249,0,0,0-1.472-.011c.157.945.058,1.856.18,2.77a19.789,19.789,0,0,1,0,2.971,3.443,3.443,0,0,1-.111.8,6.369,6.369,0,0,0-.273,2.051,3.638,3.638,0,0,1-.059.4c-.031.6-.083,1.2-.073,1.8s.1,1.2.123,1.8c.023.721,0,1.443,0,2.164,0,.285.018.569.028.828a1.444,1.444,0,0,0,1.733-.525c.182-.254.375-.5.541-.764.13-.206.208-.446.342-.649a.731.731,0,0,1,1-.272,1.539,1.539,0,0,1,.813.776,4.188,4.188,0,0,0,1.028,1.23.429.429,0,0,0,.618.047c.044-.321.088-.653.136-.985a.915.915,0,0,1,1.128-.741,2.754,2.754,0,0,1,2.078,1.7,2.254,2.254,0,0,0,.26.384M16.18,102.587c-.131.492-.427.583-.83.61a2.317,2.317,0,0,0-1.389.6c-.585.523-1.15,1.07-1.736,1.593a1.906,1.906,0,0,0-.57.952.945.945,0,0,0,.68,1.3,12.571,12.571,0,0,0,1.375.279c.592.1,1.19.17,1.782.274a10.252,10.252,0,0,0,2.1.374c1.095-.044,2.181.314,3.273.031a.707.707,0,0,1,.465.017.964.964,0,0,0,.776-.024,1.911,1.911,0,0,1,1.249-.018,1.106,1.106,0,0,0,.534-.008c.678-.112,1.351-.254,2.03-.355.4-.059.826-.131,1,.421.808-.194,1.575-.42,2.358-.557a12.977,12.977,0,0,0,3.532-1.329,1.645,1.645,0,0,0,.781-1.58,4.619,4.619,0,0,0-1.221-2.272,6.006,6.006,0,0,0-1.861-1.152c-.659-.295-1.449-.2-2.1-.579-.1-.059-.266-.014-.4-.011-.872.024-1.739-.008-2.616.1a14.853,14.853,0,0,0-1.963.348c-.6.158-1.214.235-1.817.367q-.813.18-1.616.406c-.76.215-1.469.683-2.316.437a.206.206,0,0,0-.131.022.938.938,0,0,1-.838-.086,4.754,4.754,0,0,0-.519-.16M10.267,29.112c.062.888.14,1.691.17,2.5a2.513,2.513,0,0,0,1.937,2.355c.476.109.942.262,1.418.37a5.141,5.141,0,0,0,2.37.176c.3-.073.591-.194.894-.261a1.046,1.046,0,0,0,.969-1.142,5,5,0,0,1,.035-.54,13.92,13.92,0,0,0,.141-2.543,8.058,8.058,0,0,0-.548-2.725,7,7,0,0,0-1.46-2.063.545.545,0,0,0-.29-.163,1.423,1.423,0,0,1-.759-.4.806.806,0,0,0-.355-.173,13.848,13.848,0,0,1-1.891-.384c-.088-.035-.215.024-.323.043a1.753,1.753,0,0,0-.993.768,6.789,6.789,0,0,0-1.115,2.407,9.028,9.028,0,0,0-.2,1.783m4.471-27.44a.816.816,0,0,0-.506.847,4.652,4.652,0,0,1-.254,1.572,5.234,5.234,0,0,0-.288,1.643,4.4,4.4,0,0,1-.012.811,19.255,19.255,0,0,0-.219,3.41c0,.91.088,1.833.1,2.752a.83.83,0,0,0,.02.2c.23.88.489,1.754.686,2.641a5.078,5.078,0,0,1,.19,1.646,18.736,18.736,0,0,0-.081,1.953c-.013,1.015-.015,2.031,0,3.046a1.1,1.1,0,0,0,.45,1.06c.438.25.9.464,1.347.692.037-.063.082-.1.08-.139-.044-.85-.033-1.71-.161-2.548-.108-.711-.2-1.415-.243-2.133a11.944,11.944,0,0,1,.008-1.665,1.8,1.8,0,0,0-.019-.4c-.078-.53-.166-1.057-.243-1.587a1.135,1.135,0,0,1,.028-.267c.034-.31.071-.62.1-.931.04-.4.08-.8.112-1.2a1.956,1.956,0,0,0,.015-.605,2.623,2.623,0,0,1,.138-1.5,6.352,6.352,0,0,0,.142-2.144c-.022-1.46-.047-2.922-.163-4.376-.031-.387-.275-.759-.116-1.18.019-.049-.021-.133-.054-.188-.216-.363-.425-.732-.665-1.08a1.8,1.8,0,0,0-.393-.324M29.012,117.39c.835-.007,1.587.079,2.342.012.427-.038.6-.222.611-.632a2.01,2.01,0,0,0-.053-.536c-.178-.7.168-1.421-.074-2.119-.013-.037.014-.088.02-.132.029-.242.075-.482.085-.725a18.627,18.627,0,0,0-.092-2.826,10.9,10.9,0,0,0-.345-1.813,3.245,3.245,0,0,0-.7.008c-.514.122-1.018.286-1.565.444a3.9,3.9,0,0,1,.106.477c.016.172.065.388-.013.515-.3.486-.124,1.063-.341,1.557.058,1.045-.3,2.064-.15,3.122.115.837.113,1.69.17,2.649m-11.481.642c-.054-.914-.1-1.763-.152-2.612a1.9,1.9,0,0,1,.019-.265c.075-.911.153-1.821.225-2.732a10.73,10.73,0,0,0-.343-2.8c-.563-.116-1.123-.244-1.687-.342-.245-.042-.374.086-.408.334a1.947,1.947,0,0,0,0,.27c0,1.666.025,3.333.007,5a5.6,5.6,0,0,1-.23,2.252,1.666,1.666,0,0,0-.044.669c.008.311.088.4.407.4.562.008,1.125,0,1.687-.023a2.512,2.512,0,0,0,.524-.157m31.037-.9c.1-.011.161,0,.191-.023.578-.454,1.188-.874,1.715-1.381a.758.758,0,0,0-.166-1.321,1.734,1.734,0,0,0-1.154-.246c-.672.131-1.334.311-2,.486a1.227,1.227,0,0,0-.406.216.989.989,0,0,1-.973.291c-.067-.023-.163.025-.241.052-1.035.36-2.07.723-3.086,1.078.021.189.119.419.049.571-.254.556.043.988.211,1.446a1.467,1.467,0,0,0,1.063-.141,9.64,9.64,0,0,1,1.934-.488c.326-.065.661-.1.979-.186a2.861,2.861,0,0,0,1.291-.671c.067-.067.195-.074.305-.112l.284.429m-25.252-7.641a1.664,1.664,0,0,0-.95,1.48,9.254,9.254,0,0,0-.294,2.169c.007.081-.073.166-.082.252-.014.147,0,.3,0,.466.423.055.814.127,1.208.151.421.025.525-.073.507-.5q-.066-1.565-.18-3.128a6.242,6.242,0,0,0-.2-.891m18.134,7.087-1.389.283c-.428.087-.882-.118-1.375.117l.455.894c.235.459.519.787,1.1.49.107-.055.267,0,.4-.016.152-.022.3-.074.45-.106a.413.413,0,0,0,.36-.48c-.01-.356,0-.713,0-1.182M59.465,51.625a.9.9,0,0,1,.293,1.162,1.4,1.4,0,0,0-.022.736c.111.724.275,1.44.377,2.164.162,1.15.286,2.305.434,3.457.034.264.1.523.168.855a1.381,1.381,0,0,1,1.092-.02,4.386,4.386,0,0,0,1.46-.066c.462-.069.924-.136,1.385-.212.2-.033.391-.09.588-.13a1.965,1.965,0,0,1,1.045-.046,1.441,1.441,0,0,0,.887-.185,4.78,4.78,0,0,1,2.079-.451c.383.006.769.024,1.15-.007a3.082,3.082,0,0,0,1.047-.189,3.208,3.208,0,0,1,1.472-.378,6.834,6.834,0,0,1,.789-.008,1.539,1.539,0,0,0,1.105-.111.552.552,0,0,1,.5-.034,9.7,9.7,0,0,0,1.2.182.7.7,0,0,0,.627-.177.86.86,0,0,1,.748-.224,11.783,11.783,0,0,0,2.8-.285,1.058,1.058,0,0,0,.519-.284,1.031,1.031,0,0,1,.74-.251,6.015,6.015,0,0,0,1.332.008,7.122,7.122,0,0,0,.778-.182c.5-.188.976-.421,1.47-.618a1.335,1.335,0,0,1,1.688,1.418c-.062.6-.163,1.2-.243,1.794-.015.11-.015.222-.023.363a.968.968,0,0,1,.554.979.478.478,0,0,0,.375.491,2.488,2.488,0,0,1,.475.31L87.763,62.7c.232,1.083.506,2.158.786,3.232a.679.679,0,0,1,.016.134c.046.872.079,1.744.142,2.615.048.67.175,1.336.195,2.006a16.056,16.056,0,0,0,.8,3.372,9.7,9.7,0,0,0,.345,1.144c.227.591.242.585-.247,1.1-.532.02-1.061.064-1.588.052a8.423,8.423,0,0,1-1.262-.139.858.858,0,0,1-.674-.815,8.629,8.629,0,0,0-.49-2.618c-.254-.941-.436-1.9-.653-2.867-.331.224-.234.623-.329.929-.191.614-.284,1.258-.417,1.89a23.4,23.4,0,0,0-.525,2.613c-.076.829-.31,1.617-.427,2.432a.926.926,0,0,0-.01.2,13.161,13.161,0,0,1-.569,3.559,8.152,8.152,0,0,0-.389,2.36,1.934,1.934,0,0,1-.144.586c-.424,0-.8,0-1.183,0-.277,0-.427.118-.426.4a11.9,11.9,0,0,0,.022,1.485c.148,1.151.322,2.3.534,3.442a14.879,14.879,0,0,0,.582,2.327c.226.626.185,1.278.349,1.9s.16,1.274.356,1.906a8.084,8.084,0,0,1,.187,1.859c.023.357,0,.716,0,1.223a.832.832,0,0,1-.86.362c-.8-.059-1.6-.09-2.4-.142a1.811,1.811,0,0,1-1.3-.863,1.033,1.033,0,0,1-.165-.628,6.241,6.241,0,0,0-.549-2.671c-.313-.761-.613-1.528-.876-2.307a10.492,10.492,0,0,1-.334-1.424,22.732,22.732,0,0,1-.4-2.43,6.494,6.494,0,0,1-.035-2.609,1.053,1.053,0,0,0-.026-.324l-1.376.275c-.413.083-.824.184-1.241.249-.682.106-1.37.171-2.049.289-.255.044-.487.21-.741.277-.386.1-.782.169-1.174.249-.044.009-.1-.011-.134.007a5.054,5.054,0,0,1-1.978.28,17.135,17.135,0,0,1-1.779.283,15.088,15.088,0,0,0-2.5.39,6.587,6.587,0,0,1-2.171.166,3.7,3.7,0,0,0-1.179.165,6.867,6.867,0,0,1-1.673-.024,5.9,5.9,0,0,0-2.3.05,15.7,15.7,0,0,1-2.3.385,4.414,4.414,0,0,0,.1.9,26.587,26.587,0,0,1,.6,3.02c.233,1.222.308,2.47.628,3.68a11.5,11.5,0,0,1,.183,1.526c.068.554.145,1.106.221,1.658a8.305,8.305,0,0,1,.153,1.128,3.885,3.885,0,0,0,.333,1.357,1.073,1.073,0,0,1,.044.643,9.738,9.738,0,0,0-.112,1.2c-.5.173-.5.173-1.026-.708a2.862,2.862,0,0,0-.384.06c-.683.2-1.358.432-2.048.6a2.185,2.185,0,0,1-.786-.068c-.482-.071-.952-.3-1.437-.1l-.548-1.89a2.16,2.16,0,0,1-.089-.325c-.053-.419-.081-.843-.147-1.26a27.7,27.7,0,0,0-.628-3.337,5.309,5.309,0,0,1-.173-1.255,10.751,10.751,0,0,0-.378-2.3,10.961,10.961,0,0,1-.173-1.66,5.117,5.117,0,0,1-.088-.8,4.962,4.962,0,0,0-.559-2.119c-.251-.01-.537-.043-.82-.028a8.49,8.49,0,0,1-3.259-.606,2.392,2.392,0,0,0-.727-.077.824.824,0,0,1-.91-.913c0-.579.026-1.16-.007-1.738a10.153,10.153,0,0,1,.318-2.582c.23-1.151.584-2.282.74-3.441a34.177,34.177,0,0,1,.926-4.016,9.772,9.772,0,0,0,.188-1.317c.085-.733.159-1.468.239-2.2.007-.067.028-.133.029-.2a14.357,14.357,0,0,1,.742-3.367c.142-.513.234-1.039.344-1.56a18.821,18.821,0,0,1,.5-2.683,8.223,8.223,0,0,0,.312-1.427c.077-.452.228-.634.7-.654.676-.029,1.353-.016,2.029-.045a2.967,2.967,0,0,0,.708-.143,10.434,10.434,0,0,1,3.183-.666,18.958,18.958,0,0,0,3.072-.251c.288-.041.587,0,.879-.021.35-.027.7-.082,1.075-.128l-.382-2.033c-.594.07-1.115-.022-1.66.094a2.333,2.333,0,0,1-1.755-.224A1.919,1.919,0,0,0,52.2,58.5a2.184,2.184,0,0,1-1.229-.258,5.041,5.041,0,0,0-1.013-.294,6.325,6.325,0,0,1-1.423-.851.935.935,0,0,1-.291-.364c-.262-.491-.508-.991-.762-1.488a2.115,2.115,0,0,1-.222-1.345,5.17,5.17,0,0,0,.012-1.014,5.918,5.918,0,0,1,.286-2.045,7.511,7.511,0,0,0,.125-1.533,7,7,0,0,1,.134-.714,4.426,4.426,0,0,0,.236-1.036,5.129,5.129,0,0,1,.5-1.925c.218-.6.527-1.166.781-1.753.141-.324.25-.661.374-.991.031-.083.041-.2.1-.243a5.26,5.26,0,0,0,.921-1.227,1.483,1.483,0,0,1,1.022-.708,1.6,1.6,0,0,0,.48-.232,7.687,7.687,0,0,1,2.734-.822c.217-.024.427-.1.642-.142a3.2,3.2,0,0,1,2.342.539,6.227,6.227,0,0,1,1.825,1.408.794.794,0,0,0,.338.21A1.663,1.663,0,0,1,61.222,43.2a8.956,8.956,0,0,1,.206,1.718,5.731,5.731,0,0,1-.3,2.238,15.958,15.958,0,0,0-.867,2.017c-.289.787-.523,1.6-.8,2.452M57.208,61.82c-.351.064-.682.1-1,.186a13.574,13.574,0,0,1-2.5.4c-.668.053-1.339.061-2.01.116a7.618,7.618,0,0,0-2.372.6,6.389,6.389,0,0,1-1.713.533,4.22,4.22,0,0,0-1.212.512.488.488,0,0,0-.2.25,14.344,14.344,0,0,0-.795,3.158,13.282,13.282,0,0,1-.41,1.887c-.166.552-.342,1.1-.471,1.663-.109.474-.163.962-.227,1.446a10.154,10.154,0,0,0-.13,1.263,7.379,7.379,0,0,1-.358,2.3,12.48,12.48,0,0,0-.336,1.352c-.1.476-.164.96-.267,1.435a6.3,6.3,0,0,0-.254.894,11.154,11.154,0,0,1-.425,2.357,6.465,6.465,0,0,0-.243,1.444,12.517,12.517,0,0,1-.266,2.125.747.747,0,0,0,.1.7,2.26,2.26,0,0,0,1.174.743c.493.129.986.261,1.485.361a7.028,7.028,0,0,0,2.377.307,3.034,3.034,0,0,1,1,.072,2.782,2.782,0,0,0,1.9-.174,1.048,1.048,0,0,1,.507-.141c.626.043,1.249.125,1.873.189a5.679,5.679,0,0,0,.8.059c.65-.026,1.3-.073,1.95-.126.308-.025.613-.085.92-.127a6.186,6.186,0,0,1,1.06-.128,11.529,11.529,0,0,1,1.255.192c.5.076,1.009.224,1.472-.159.089-.073.256-.056.388-.074s.307.021.384-.05a.625.625,0,0,1,.8-.076,1.171,1.171,0,0,0,.464.03,8.182,8.182,0,0,0,1.708-.253,5.267,5.267,0,0,0,1.59-.534,2.268,2.268,0,0,0,.714.219,7.62,7.62,0,0,0,1.581-.231,3.843,3.843,0,0,1,1.121-.164,1.637,1.637,0,0,0,.732-.049,3.4,3.4,0,0,1,1.752-.365,2.167,2.167,0,0,0,.58-.15c.493-.128.982-.274,1.481-.376.652-.133,1.321-.192,1.966-.352.861-.212,1.71-.481,2.558-.744a6.42,6.42,0,0,0,1.367-.507,2.85,2.85,0,0,1,1.646-.442c.779.037.973-.158,1.075-.93a1.537,1.537,0,0,0,0-.338,2.01,2.01,0,0,1,.162-.843,14.336,14.336,0,0,0,.63-2.171A18.9,18.9,0,0,0,82.74,76.7,2.973,2.973,0,0,1,83,75.132a1.579,1.579,0,0,0,.142-.514c.173-.846.348-1.692.509-2.54.158-.827.293-1.659.451-2.487q.182-.952.4-1.9a14.464,14.464,0,0,0,.527-2.754,12.378,12.378,0,0,1,.353-2.3c.095-.433.135-.877.208-1.315a2.042,2.042,0,0,1,.128-.508,5.727,5.727,0,0,0,.383-2.935.911.911,0,0,0-.916-.153,15.748,15.748,0,0,1-3.264.631,6.013,6.013,0,0,0-.989.161c-.84.2-1.672.431-2.513.626a5.406,5.406,0,0,1-1.062.147,9.879,9.879,0,0,0-1.78.248,2.037,2.037,0,0,1-.6-.012c-.265-.025-.528-.092-.793-.1A10.1,10.1,0,0,0,71,59.818a8.648,8.648,0,0,1-1.239.252c-.841.112-1.683.223-2.529.281-.478.033-.917.244-1.37.276-.671.047-1.322.191-1.98.264a21.605,21.605,0,0,0-2.359.447,2.637,2.637,0,0,0-.475.212c.138.708.274,1.361.39,2.018s.22,1.315.314,1.975c.048.334.315.674.661.633a3.423,3.423,0,0,1,2.4.954,12.017,12.017,0,0,0,2.46,1.636.993.993,0,0,1,.306.247,4.119,4.119,0,0,1,.585.627,5.313,5.313,0,0,1,.922,1.536,9.122,9.122,0,0,1,.124,1.809,3.217,3.217,0,0,1-.433,1.6,11.517,11.517,0,0,1-2.331,2.839.968.968,0,0,1-.225.144,11.189,11.189,0,0,0-1.98.935.518.518,0,0,1-.327.049,6.3,6.3,0,0,0-2.257.265,3.276,3.276,0,0,1-1.966-.112c-.851-.249-1.672-.6-2.5-.913a.491.491,0,0,1-.223-.147,5.187,5.187,0,0,0-1.079-1c-.549-.425-1.072-.887-1.592-1.348-.48-.425-1.044-.788-1.114-1.525a1.456,1.456,0,0,0-.213-.691,4.971,4.971,0,0,1-.652-1.946,2.69,2.69,0,0,1,.251-1.9,5.316,5.316,0,0,1,1.981-2.207,4.451,4.451,0,0,1,1.634-.712A5.638,5.638,0,0,0,57,66.068a.387.387,0,0,0,.308-.389c.006-.18-.008-.36-.008-.541a9.62,9.62,0,0,1,.03-1.688,3.142,3.142,0,0,0-.123-1.63m-2.465-3.462c.35-.132.657-.261.973-.361a.74.74,0,0,0,.554-.54,7.41,7.41,0,0,1,.509-1.367,9.276,9.276,0,0,1,.468-1.454c.541-1.123.985-2.283,1.416-3.45.107-.291.271-.561.38-.852.187-.5.339-1.012.527-1.51.235-.623.526-1.226.729-1.858a6.464,6.464,0,0,0,.368-2.571,2.1,2.1,0,0,0-.212-.9,12.178,12.178,0,0,0-.929-1.134,9.236,9.236,0,0,0-1.534-1.181,2.172,2.172,0,0,0-.9-.419,14.106,14.106,0,0,0-1.527-.168,3.938,3.938,0,0,0-1.8.437c-.428.166-.78.526-1.207.7a1.767,1.767,0,0,0-1.037.945.427.427,0,0,1-.2.171.921.921,0,0,0-.407.5c-.123.262-.271.513-.418.763-.248.424-.524.833-.75,1.268a13.205,13.205,0,0,0-1.051,3.5,7.52,7.52,0,0,0-.194.977,8.351,8.351,0,0,1-.136,1.533,9.626,9.626,0,0,0-.264,1.578,1.811,1.811,0,0,0,.264,1.42c.1.122.078.338.136.5.087.246.13.595.309.7a1.384,1.384,0,0,1,.56.806c.507.218,1.012.447,1.527.653.351.14.723.23,1.071.378.15.064.246.271.4.314s.341-.039.515-.047c.059,0,.118.065.183.081a3.949,3.949,0,0,0,.784.16,1.03,1.03,0,0,1,.9.425M62,67.026c.089.557.171,1.054.246,1.552a4.973,4.973,0,0,1,.2,2.36.91.91,0,0,0,.113.51.956.956,0,0,1-.145,1,6.649,6.649,0,0,1-.582.655.8.8,0,0,1-1.1.168,3.038,3.038,0,0,1-1.109-.834,1.349,1.349,0,0,0-.475-.472c-.379-.159-.443-.465-.512-.8-.031-.151-.087-.3-.127-.447-.139-.514-.294-1.025-.408-1.545-.109-.5-.157-1.008-.262-1.506-.113-.536-.264-.611-.787-.478-.343.087-.69.157-1.033.245a1.252,1.252,0,0,0-.3.138,9.494,9.494,0,0,0-.977.592c-.392.3-.753.635-1.114.969-.093.086-.212.25-.186.339a1.523,1.523,0,0,1-.159,1.157.345.345,0,0,0,.009.2,7.691,7.691,0,0,0,.52,1.86,10.3,10.3,0,0,0,.825,1.3A7.27,7.27,0,0,0,56.758,76a3.15,3.15,0,0,1,.425.326,3.076,3.076,0,0,0,1.7,1.007.609.609,0,0,1,.238.122,2,2,0,0,0,1.8.4c.737-.23,1.576-.021,2.261-.517.092-.066.264-.016.4-.032a3.725,3.725,0,0,0,1.88-.556c.449-.335.887-.684,1.329-1.029a.622.622,0,0,0,.095-.1,5.568,5.568,0,0,0,1.417-2.468,2.99,2.99,0,0,0-1.19-3.3A15.262,15.262,0,0,1,65.7,68.737a1.327,1.327,0,0,0-.631-.337.924.924,0,0,1-.514-.279c-.176-.175-.354-.348-.539-.512A2.956,2.956,0,0,0,62,67.026m-7.71,35.345a4.144,4.144,0,0,0-.014-1,14.325,14.325,0,0,1-.251-1.72,18.331,18.331,0,0,1-.123-2.414,1.482,1.482,0,0,0-.047-.263c-.226-1.109-.481-2.212-.633-3.336a17.982,17.982,0,0,0-.361-1.967c-.189-.752-.439-1.49-.671-2.231-.163-.52-.277-.59-.809-.615a16.9,16.9,0,0,0-2.613.139c-.325.035-.383.117-.416.485a15.559,15.559,0,0,0,.305,3.529c.078.574.165,1.147.236,1.722a20.7,20.7,0,0,0,.319,2.519,33.127,33.127,0,0,1,.643,3.809,6.783,6.783,0,0,0,.274,1.171.712.712,0,0,0,.665.573,7.857,7.857,0,0,0,2.608-.2,7.7,7.7,0,0,1,.887-.2m25.26-17.707c-.719.3-1.452.6-2.183.9a.292.292,0,0,0-.154.113,4.678,4.678,0,0,0-.573,1.886,14.627,14.627,0,0,0,.731,4.544c.359,1.186.81,2.343,1.187,3.524.175.547.267,1.12.4,1.681a1.149,1.149,0,0,0,.934.947,14.26,14.26,0,0,0,1.918.02,3.428,3.428,0,0,1,.022-1.058,1.446,1.446,0,0,0-.062-.968,2.56,2.56,0,0,1-.1-.384,9.7,9.7,0,0,1-.279-2.38.366.366,0,0,0-.02-.132c-.249-.988-.518-1.971-.743-2.964A5.787,5.787,0,0,1,80.3,88.36a1,1,0,0,0-.049-.326c-.116-.517-.244-1.031-.352-1.549-.126-.606-.236-1.215-.353-1.82M61,65.98c-.056-.378-.11-.752-.167-1.125-.1-.616-.187-1.232-.292-1.846-.124-.723-.272-1.441-.387-2.165a8.684,8.684,0,0,1-.441-2.421c.01-.081-.059-.169-.076-.256-.2-1.024-.457-2.042-.554-3.076a16.7,16.7,0,0,0-.408-1.627l-1.222,2.9a1.461,1.461,0,0,1,.136,1.133,1.115,1.115,0,0,0,.443,1.364c.068.038.1.148.159.249-.356.279-.236.663-.226,1.037a.765.765,0,0,0,.372.726,2.976,2.976,0,0,1,.755.948l-.852.107a4.075,4.075,0,0,1-.016,1.059,6.029,6.029,0,0,0-.1,1.876,1.693,1.693,0,0,0,.5,1.395,1.021,1.021,0,0,1,.311.854,5.681,5.681,0,0,0,.109,1.47,8.168,8.168,0,0,0,1.135,3.158,1.584,1.584,0,0,0,.759.6c.243.089.367.015.425-.235s.136-.514.187-.774a3.8,3.8,0,0,0,.163-1.043c-.078-.816-.25-1.623-.35-2.438a.559.559,0,0,0-.3-.48,2.162,2.162,0,0,1-.347-.2c-.432-.354-.407-.673.067-.994.055-.037.1-.086.23-.2M86.44,62.316a5.61,5.61,0,0,0-.3,1.091,16.562,16.562,0,0,1-.406,2.433c-.226,1.023-.372,2.064-.547,3.1a.463.463,0,0,0,.043.177,3.262,3.262,0,0,1,.539-.057.71.71,0,0,1,.616.744,6.322,6.322,0,0,0,.23,2.375,28.174,28.174,0,0,0,.7,2.779c.354.073.744.15,1.132.236.254.056.492.084.634-.189-.083-.309-.163-.606-.242-.9-.056-.212-.1-.427-.165-.636a18.332,18.332,0,0,1-.625-2.033,20.071,20.071,0,0,1-.159-2.146c-.031-.4-.069-.8-.139-1.2a1.385,1.385,0,0,1-.011-.9,1,1,0,0,0-.035-.526c-.112-.636-.278-1.266-.344-1.907a7.1,7.1,0,0,0-.92-2.436M42.41,46.69a4,4,0,0,0,.348.428c.286.266.581.181.695-.195a1.2,1.2,0,0,0,0-.3.771.771,0,0,0-1.046.065m-20.5-24.053a14.088,14.088,0,0,0-1.582,1.229,1.274,1.274,0,0,0-.415,1.086,2.2,2.2,0,0,1-.052.932.839.839,0,0,0,.128.815.889.889,0,0,0,.9.411.708.708,0,0,0,.537-.692,1.049,1.049,0,0,0-.139-.548,1.021,1.021,0,0,1,.185-1.234,4.59,4.59,0,0,1,.425-.433c.791-.754.883-.594,1.7-.031a.81.81,0,0,1,.1.095l.861.837a5.4,5.4,0,0,1,1.275,1.71,1.241,1.241,0,0,0,.21.336c.285.317.59.272.822-.085s.037-.613-.165-.848a3.97,3.97,0,0,1-.749-1.024,1.039,1.039,0,0,0-.21-.341c-.688-.679-1.378-1.357-2.082-2.02a1.749,1.749,0,0,0-1.145-.389,1.926,1.926,0,0,0-.6.194M11.479,29.273a7.99,7.99,0,0,1,.225-1.246c.29-.845.766-1.1,1.8-1.244a1.514,1.514,0,0,1,.911.151c.377.192.756.378,1.13.576a.688.688,0,0,1,.258.213,3.243,3.243,0,0,1,.675,2.566,2.832,2.832,0,0,0-.078.46A1.068,1.068,0,0,1,15.41,31.8c-.088.013-.195-.01-.265.031a1.331,1.331,0,0,1-1.439-.133,4.926,4.926,0,0,0-.874-.3.639.639,0,0,1-.242-.1c-.284-.281-.567-.564-.83-.864-.294-.336-.22-.761-.281-1.17m3.982.431c-.124-.451-.13-.977-.531-1.315A3.139,3.139,0,0,0,14.163,28a1.493,1.493,0,0,0-1.656.63.484.484,0,0,0-.031.2,1.8,1.8,0,0,0,1.416,1.49,1.9,1.9,0,0,1,.513.1c.736.287.786.266.986-.5.017-.064.041-.126.07-.212m39.047,16.16a4.663,4.663,0,0,1,1.28.342,3.279,3.279,0,0,1,1.82,1.021c.2.267.476.189.673-.084A.67.67,0,0,0,58,46.152c-.122-.051-.25-.091-.376-.132a1.948,1.948,0,0,1-.738-.41,4.232,4.232,0,0,0-1.158-.652,6.721,6.721,0,0,0-1.143-.344,1.215,1.215,0,0,0-.57.008c-.488.131-.387.52-.353.941a2.939,2.939,0,0,0,.846.3m.84,8.516c.139-.165-.01-.313-.115-.47-.255-.381-.479-.775-1.036-.72-.076.007-.156-.08-.24-.106q-1.075-.341-2.153-.674a.589.589,0,0,0-.2-.016.57.57,0,0,0-.543.567c-.012.379.218.573.688.653a5.669,5.669,0,0,1,1.943.4c.212.119.421.243.637.354.172.088.353.159.56.251a1.426,1.426,0,0,0,.458-.239m-1.513-5.649a.993.993,0,0,0-.8-.28.426.426,0,0,0-.443.238.462.462,0,0,0,.092.56,4.257,4.257,0,0,0,.653.431c.193.109.453.139.6.288.5.523,1.251.574,1.8,1,.228.179.461.058.6-.2a.789.789,0,0,0-.04-.765,5.848,5.848,0,0,1-2.463-1.277" transform="translate(0 0)"/>
      </g>
    </g>
    <rect id="Rectangle_146" data-name="Rectangle 146" class="cls-1" width="122" height="145" transform="translate(755 418)"/>
  </g>
</svg>
