<svg xmlns="http://www.w3.org/2000/svg" xmlns:xlink="http://www.w3.org/1999/xlink" width="122" height="145" viewBox="0 0 122 145">
  <defs>
    <style>
      .cls-1 {
        fill: none;
      }

      .cls-2 {
        clip-path: url(#clip-path);
      }

      .cls-3 {
        fill: #121212;
        fill-rule: evenodd;
      }
    </style>
    <clipPath id="clip-path">
      <rect id="Rectangle_44" data-name="Rectangle 44" class="cls-1" width="44.243" height="35.068"/>
    </clipPath>
  </defs>
  <g id="Group_257" data-name="Group 257" transform="translate(-1019 -418)">
    <g id="Group_204" data-name="Group 204" transform="translate(0 -16.246)">
      <g id="Group_74" data-name="Group 74" transform="translate(1052 514.246)">
        <g id="Group_73" data-name="Group 73" class="cls-2" transform="translate(0 0)">
          <path id="Path_85" data-name="Path 85" class="cls-3" d="M20.6,13.822c-.253.512-.585.843-1.036.777-1.645-.238-.89-4.515-.3-5.556.533-.935,1.426-1.211,2.049-2,1.735-2.2,1.879-5.37-1.487-5.455a2.089,2.089,0,0,0-2.129,1.2,19.057,19.057,0,0,0-.33,2.089c-.165.687-.751,1.39-1.447,1.265-.751-.137-1.015-1.1-.928-1.855A4.718,4.718,0,0,1,19.571.258C22.259.284,24.82,3.015,23.5,5.6a44.406,44.406,0,0,0-1.931,4.383,26.577,26.577,0,0,1-.968,3.835" transform="translate(20.383 0.352)"/>
          <path id="Path_86" data-name="Path 86" class="cls-3" d="M16.139,8.974c.012-.427.387-.9,1.185-1.182a1.3,1.3,0,0,1,1.751.866,1.3,1.3,0,0,1-1.258,1.265c-1.09.094-1.692-.392-1.678-.949" transform="translate(21.953 10.492)"/>
          <path id="Path_87" data-name="Path 87" class="cls-3" d="M14.06,13.048a8.045,8.045,0,0,0-.67,1.537c-.7,2.294-1.241,4.636-1.947,6.932,1.237.191,1.645,2.124.231,2.365-2.485.422-1.638-4.159-1.331-5.159a25.644,25.644,0,0,1,3.285-7.591c1.315-1.926,1.662-4.982.125-6.9A5.691,5.691,0,0,0,9.795,2c-2.771-.354-4.18.991-6.2,2.667q-.825,1.717-1.65,3.429a2.032,2.032,0,0,1-1.057,1.2C-.852,9.828.455,6.1.722,5.5A9.238,9.238,0,0,1,10.88.151a8.456,8.456,0,0,1,3.2,1.289c3.182,2.145,2.875,5.549,1.56,8.721a28.162,28.162,0,0,1-1.581,2.887" transform="translate(0 0.001)"/>
          <path id="Path_88" data-name="Path 88" class="cls-3" d="M8.842,13.6a2.481,2.481,0,0,1-.81,3,2.577,2.577,0,0,1-1.883.692c-2.75-.264-.975-3.493.647-4.057,1.036-.361,1.714-.132,2.046.368" transform="translate(6.417 17.766)"/>
        </g>
      </g>
    </g>
    <rect id="Rectangle_151" data-name="Rectangle 151" class="cls-1" width="122" height="145" transform="translate(1019 418)"/>
  </g>
</svg>
