<svg xmlns="http://www.w3.org/2000/svg" width="146" height="167" viewBox="0 0 146 167">
  <defs>
    <style>
      .cls-1 {
        fill: #e6e6e6;
        fill-rule: evenodd;
      }

      .cls-2 {
        fill: none;
      }
    </style>
  </defs>
  <g id="Group_303" data-name="Group 303" transform="translate(-187 -1163)">
    <g id="Group_288" data-name="Group 288" transform="translate(-6210 3050.722)">
      <path id="Path_85" data-name="Path 85" class="cls-1" d="M22.869,19.289c-.354.719-.821,1.182-1.454,1.089-2.308-.334-1.248-6.335-.414-7.8.748-1.311,2-1.7,2.874-2.8,2.434-3.08,2.636-7.534-2.086-7.653A2.931,2.931,0,0,0,18.8,3.811a26.736,26.736,0,0,0-.464,2.931c-.232.964-1.053,1.95-2.03,1.775-1.053-.192-1.424-1.54-1.3-2.6A6.62,6.62,0,0,1,21.419.258c3.772.036,7.365,3.868,5.517,7.5a62.3,62.3,0,0,0-2.709,6.149c-.325.851-.56,3.765-1.358,5.381" transform="translate(6477.637 -1829.125)"/>
      <path id="Path_86" data-name="Path 86" class="cls-1" d="M16.139,9.482c.017-.6.543-1.262,1.662-1.659a1.824,1.824,0,0,1,2.457,1.215,1.827,1.827,0,0,1-1.765,1.775c-1.53.132-2.374-.55-2.354-1.331" transform="translate(6480.304 -1811.894)"/>
      <path id="Path_87" data-name="Path 87" class="cls-1" d="M19.726,18.306a11.287,11.287,0,0,0-.94,2.156c-.987,3.219-1.742,6.5-2.732,9.726,1.735.268,2.308,2.98.325,3.318-3.487.593-2.3-5.835-1.868-7.239,1.255-4.1,2.282-7.235,4.61-10.65,1.844-2.7,2.331-6.99.176-9.686A7.985,7.985,0,0,0,13.742,2.8c-3.888-.5-5.865,1.391-8.7,3.742Q3.889,8.953,2.731,11.355a2.85,2.85,0,0,1-1.484,1.686C-1.2,13.789.639,8.554,1.013,7.72A12.961,12.961,0,0,1,15.265.213a11.864,11.864,0,0,1,4.49,1.808c4.464,3.01,4.033,7.785,2.189,12.236a39.512,39.512,0,0,1-2.219,4.05" transform="translate(6443 -1829.722)"/>
      <path id="Path_88" data-name="Path 88" class="cls-1" d="M10.5,13.824c.7,1.05.3,2.947-1.136,4.206A3.615,3.615,0,0,1,6.726,19c-3.858-.371-1.368-4.9.907-5.692,1.454-.507,2.4-.185,2.871.517" transform="translate(6453.904 -1799.533)"/>
    </g>
    <g id="Group_301" data-name="Group 301">
      <rect id="Rectangle_183" data-name="Rectangle 183" class="cls-2" width="146" height="167" transform="translate(187 1163)"/>
    </g>
  </g>
</svg>
