<svg xmlns="http://www.w3.org/2000/svg" width="146" height="167" viewBox="0 0 146 167">
  <defs>
    <style>
      .cls-1 {
        fill: #e6e6e6;
        fill-rule: evenodd;
      }

      .cls-2 {
        fill: none;
      }
    </style>
  </defs>
  <g id="Group_302" data-name="Group 302" transform="translate(-34 -1163)">
    <g id="Group_289" data-name="Group 289" transform="translate(-6250 3055.723)">
      <path id="Path_84" data-name="Path 84" class="cls-1" d="M6.228.014c1.681-.026,3.243-.08,4.332.542,1.987,1.132,5.673,6.747,4.872,10.559a24.243,24.243,0,0,1-3.79,8.935c-1.447,2-4.177,2.638-4.332,5.957,2.156,2.4,1.913,8,1.9,12.454a3.667,3.667,0,0,1-2.708.812c-.513-.55-.776-.5-1.081-1.353-.924-1.571,1.1-3.635.54-6.227-.743-3.453-3.023-5.84-2.435-8.935C6.875,21.5,13.747,13.678,12.726,8.677c-.6-2.928-2.335-4.208-4.063-5.957h-1.9C4.88,4.47,2.99,5.255,2.438,8.407a3.806,3.806,0,0,1,1.353,3.249c-1.068.71-1.214,1.066-2.707.812A7.522,7.522,0,0,1,0,8.136a6.343,6.343,0,0,0,.54-2.978c1.284-.878,1.492-2.3,2.438-3.519L5.143.284c.63-.053.766-.052,1.085-.27m0,48.193H7.853c1.511,2.146,1.314,4.723-2.437,4.6-.7-1.045-1.273-1.166-1.355-2.978.574-.4.676-.77,1.355-1.083.206-.185.6-.356.812-.542" transform="translate(6335 -1831.723)"/>
    </g>
    <g id="Group_300" data-name="Group 300">
      <rect id="Rectangle_184" data-name="Rectangle 184" class="cls-2" width="146" height="167" transform="translate(34 1163)"/>
    </g>
  </g>
</svg>
