<svg xmlns="http://www.w3.org/2000/svg" xmlns:xlink="http://www.w3.org/1999/xlink" width="122" height="145" viewBox="0 0 122 145">
  <defs>
    <style>
      .cls-1 {
        fill: none;
      }

      .cls-2 {
        clip-path: url(#clip-path);
      }

      .cls-3 {
        fill: #121212;
        fill-rule: evenodd;
      }
    </style>
    <clipPath id="clip-path">
      <rect id="Rectangle_43" data-name="Rectangle 43" class="cls-1" width="11.451" height="38.905" transform="translate(0 -0.001)"/>
    </clipPath>
  </defs>
  <g id="Group_256" data-name="Group 256" transform="translate(-889 -418)">
    <g id="Group_72" data-name="Group 72" transform="translate(944 496)">
      <g id="Group_71" data-name="Group 71" class="cls-2">
        <path id="Path_84" data-name="Path 84" class="cls-3" d="M4.588.01a6.587,6.587,0,0,1,3.191.4c1.464.834,4.179,4.97,3.589,7.778a17.858,17.858,0,0,1-2.792,6.582C7.51,16.244,5.5,16.712,5.385,19.157c1.588,1.769,1.409,5.891,1.4,9.174a2.7,2.7,0,0,1-2,.6c-.378-.405-.572-.372-.8-1-.681-1.157.809-2.678.4-4.587-.547-2.544-2.227-4.3-1.794-6.582,2.471-.923,7.533-6.687,6.781-10.371C8.934,4.235,7.655,3.292,6.382,2h-1.4C3.6,3.293,2.2,3.871,1.8,6.193a2.8,2.8,0,0,1,1,2.393c-.787.523-.894.785-1.994.6A5.541,5.541,0,0,1,0,5.993,4.673,4.673,0,0,0,.4,3.8c.946-.647,1.1-1.7,1.8-2.592l1.594-1c.464-.039.564-.038.8-.2m0,35.5h1.2C6.9,37.092,6.753,38.99,3.99,38.9c-.519-.77-.938-.859-1-2.194.423-.291.5-.567,1-.8.152-.136.444-.262.6-.4"/>
      </g>
    </g>
    <rect id="Rectangle_150" data-name="Rectangle 150" class="cls-1" width="122" height="145" transform="translate(889 418)"/>
  </g>
</svg>
