<svg xmlns="http://www.w3.org/2000/svg" xmlns:xlink="http://www.w3.org/1999/xlink" width="122" height="145" viewBox="0 0 122 145">
  <defs>
    <style>
      .cls-1 {
        fill: none;
      }

      .cls-2 {
        clip-path: url(#clip-path);
      }

      .cls-3 {
        fill: #121212;
        fill-rule: evenodd;
      }
    </style>
    <clipPath id="clip-path">
      <rect id="Rectangle_45" data-name="Rectangle 45" class="cls-1" width="68.781" height="60.362"/>
    </clipPath>
  </defs>
  <g id="Group_253" data-name="Group 253" transform="translate(-482 -418)">
    <g id="Group_77" data-name="Group 77" transform="translate(-81 122)">
      <g id="Group_76" data-name="Group 76" transform="translate(589 356)">
        <g id="Group_75" data-name="Group 75" class="cls-2" transform="translate(0 0)">
          <path id="Path_89" data-name="Path 89" class="cls-3" d="M80.153,55.474c1.518.107,2.891.119,3.7,1.332.561.708-.187,4.6-.444,5.771-.2.906.285,2.3-.148,2.96a1.045,1.045,0,0,1-.74.74c-.931.581-3.517.047-4.439-.148a3.692,3.692,0,0,0-1.924.3c-1.112,1.744-.518,5.808-.3,8.582a7.88,7.88,0,0,1,1.184,1.036c2.658.105,10.155,1.716,12.43.444,1.572-.879,2.365-5.691,2.368-7.991h.3c.266.132.268.044.74,0a2.322,2.322,0,0,1,.148.74,19.713,19.713,0,0,1-.3,3.552v1.628c-.405,1.628-1.345,3.61-3.256,3.7-.9.64-2.158.184-3.552.444a7.23,7.23,0,0,1-2.811-.444,29.324,29.324,0,0,0-3.7-.444l-1.924.148a8.212,8.212,0,0,1-3.4-2.368c-.156-3.35-.563-6.816.148-9.619.518-.265,1-.86,1.48-1.036,1.721-.626,3.732.134,5.623.148a1.954,1.954,0,0,0,.3-1.183c.4-.645-.047-1.933.148-2.812a13.873,13.873,0,0,0,.444-3.107,1.642,1.642,0,0,0-1.183-.444c-1.118-.733-3.934.793-5.18.887a2.229,2.229,0,0,1-.3-.591,1.027,1.027,0,0,1,.148-1.184c1.091-.742,3.388-.349,4.439-1.036" transform="translate(-24.268 -18.234)"/>
          <path id="Path_90" data-name="Path 90" class="cls-3" d="M43.7,55.372a25.347,25.347,0,0,1,4.291.592c1.686.372,3.021-.291,4.588-.3a1.408,1.408,0,0,0,.592.444c-.093.26-.029.144-.148.3-.307,1.373-1.99,1.206-3.255,1.628-2.189.731-3.542,2.54-5.327,3.256-.181-.365-.262-.229-.444-.592a16.385,16.385,0,0,0,3.256-3.107l.148-.148h-.3c-.628.384-3.226-.352-3.7-.444a2.55,2.55,0,0,1-.444-1.332,3.755,3.755,0,0,0,.74-.3M54.205,73.277c.154-1.245.836-1.949,1.184-3.255a5.411,5.411,0,0,0-3.848-6.659v.3c1.257,1.7.889,9.409.888,12.874a.8.8,0,0,0-.592.444c-.4-.076-.434-.017-.592-.148l-.592-.592c-.1-2.963.731-10.887-1.183-13.17a2.344,2.344,0,0,0-1.184-.148c-.84.472-4.081.36-4.735,1.332v2.516c-.513.867-.164,2.56-.444,3.552a17.869,17.869,0,0,1-1.48,3.107c-.759.111-1.175.28-1.332-.592,1.452-1.457,1.15-4.178,1.628-6.659h-.3c-.294.56-.723.678-1.036,1.184l-.148-.148-.3-.148c.089-.279,0-.928.148-1.332.275-.763,1.18-1.4,1.48-2.22a6.741,6.741,0,0,1-.3-2.664l1.332-.148.148.148.3,1.776H43.4c.9-.827,2.337-.629,3.7-1.036,4.637-1.387,8.94,1.377,9.914,4.736.817,2.813.207,6.973-2.811,6.955M46.51,64.1H47.4c1.085,1.8,1.769,9.226-1.184,9.323v-.3a3.128,3.128,0,0,1-.148-1.332c.192-.86.976-2.59.74-4.143-.169-1.11-.781-2.586-.3-3.552" transform="translate(-13.197 -18.201)"/>
          <path id="Path_91" data-name="Path 91" class="cls-3" d="M31.46,18.629c1.719-.187,2.644-.256,4.291-.3Q35.678,17.667,35.6,17l-.444-.148c-1.4-.828-3.032.744-3.848-.74h-.148v1.036c-.207.357-.025.945-.148,1.48-.35,1.516-.494,4.138-1.776,4.735a6.578,6.578,0,0,1-1.036,0c-.1-1.743.621-3.334,1.036-4.883.828-3.093-.079-7.355-.592-9.767h-.3v.148c-.91.748-1.278,2.784-2.664,2.96-.151-.119-.04-.052-.3-.148a3.2,3.2,0,0,1-.148-1.036A9.652,9.652,0,0,0,26.429,8.27C26.833,7.5,27.637,7,28.056,6.2h-1.48a1.96,1.96,0,0,1-1.036.148A2.476,2.476,0,0,1,25.1,4.719l.444-.148c.78-.5,2.681-.313,3.847-.3a21.155,21.155,0,0,1,1.48-2.664c.25-.313.891-.448,1.183-.74l.74.148v.591A9.061,9.061,0,0,0,31.46,4.127H31.9c.7-.426,2.929-.215,4.143-.148a1.631,1.631,0,0,0,.3.444c-.093.259-.028.144-.148.3-.306,1.043-1.113,1.1-2.516,1.036-.546.338-2.968.306-3.7.444a1.419,1.419,0,0,1-.444.74L30.72,9.9h2.072c.724.49,1.845.512,2.368,1.184.971,1.25,1.1,2.681,1.627,4.439,1,3.3,2.817,8.082,2.072,11.987a6.158,6.158,0,0,1-1.48,0,9.451,9.451,0,0,1-.3-2.664c-.712-1.2-.028-3.918-.887-5.031-.175-.119-.249-.115-.592-.148-.528.665-2.664.634-3.552.444-.352-.526-.571-.531-.591-1.48m.148-3.4h-.444a3.781,3.781,0,0,0,0-1.628V11.673a3.219,3.219,0,0,1,2.515.444,4.473,4.473,0,0,1,1.184,2.96c-.968-.026-2.462-.365-3.256.148" transform="translate(-8.25 -0.286)"/>
          <path id="Path_92" data-name="Path 92" class="cls-3" d="M69.461,2.533l.74.148a1.544,1.544,0,0,1,.3.888c-.524.816-.022,4.03,0,5.179l.148.148a3.2,3.2,0,0,1,3.4,3.4c.806,1.273-.941,4.006-2.368,4-.281-.3-.425-.277-.592-.74.969-.665,1.347-2.514,1.036-4-.4-.28-1.032-.986-1.48-.74-.526.862.066,2.7-.148,3.848a43.334,43.334,0,0,0-.148,9.027,9.931,9.931,0,0,1,.148,2.811,8.97,8.97,0,0,1-1.48,0v-.3c-.671-.9-.158-2.519-.444-3.847a12.726,12.726,0,0,1-.148-4,1.953,1.953,0,0,0,.148-.888,12.286,12.286,0,0,1,0-4.143,6.44,6.44,0,0,0,0-2.664c-.26.093-.144.029-.3.148-.846.147-1.311.3-1.332,1.332a6.806,6.806,0,0,0-.444,2.516c-.413.272-.418.471-1.036.592-.151-.119-.04-.053-.3-.148a2.075,2.075,0,0,1-.148-.592c.21-.381.142-3.627.3-4.439a20.249,20.249,0,0,0,3.256-1.332c.419-.657.164-4.081.148-5.179a5.513,5.513,0,0,0,.3-.888c.307-.055.285-.036.444-.148M54.811,6.38a9.213,9.213,0,0,0,.74,2.368,6.582,6.582,0,0,1,4.588-.3c.657,1.3,2.087,4.715-.592,4.736-1.071.745-2.241,0-2.812-.444v1.036a4.024,4.024,0,0,1,.148,1.776,14.351,14.351,0,0,1,3.551,0C61.1,17,61.989,18.3,62.062,20.291c-.491.487-.549.94-1.48,1.036-1.239.864-3.485-.156-3.848-.888l-.148.148c-.539.826-.2,1.47-1.628,1.48l-.148-.444c-.4-.7.669-4.592.444-6.067a33.7,33.7,0,0,0-.74-5.18,23.917,23.917,0,0,1-1.48-4.735l.148-.148a9.032,9.032,0,0,0,3.7-.888c.8-.484.458-.991,1.924-1.036.151.119.04.052.3.148.093.26.029.144.148.3l-.3.888c-1.319.577-2.433,1.382-4.143,1.48m3.107,3.4a3.185,3.185,0,0,1,1.036.148,3.088,3.088,0,0,0,.444,1.183c-.059.3-.036.285-.148.444-.891.66-1.884-.1-2.516.74h-.148a9.493,9.493,0,0,1-.444-2.22,3.037,3.037,0,0,0,1.776-.3m-.3,7.251c2.214-.079,1.731.672,2.516,1.924a1.547,1.547,0,0,1-.3.887,3.724,3.724,0,0,0-1.184.148,2.518,2.518,0,0,1-.148-.888,3.479,3.479,0,0,0-1.48.74h-.3a23.7,23.7,0,0,1,.3-2.664c.343-.034.418-.029.592-.148" transform="translate(-17.433 -0.832)"/>
          <path id="Path_93" data-name="Path 93" class="cls-3" d="M5.031,0A2.285,2.285,0,0,1,6.659.445C7.925,1.71,9.221,9.316,8.731,11.4c-2.449.824-2.9.62-5.476,0l-.887.148c-.114-.045-.237-.566-.3-.592A5.2,5.2,0,0,1,.887,11.1,70.842,70.842,0,0,1,0,1.925a1.57,1.57,0,0,1,.74-.3.809.809,0,0,0,.592.444C2.166.881,3.842.855,5.031,0m.887,1.924c.326,1.38.7,3.015,1.036,4.439.256,1.087-.062,2.3.444,3.108a1.958,1.958,0,0,1-.3,1.183c-1.293.213-3.927-.983-4.588-.591a2.11,2.11,0,0,1-.592-.148c0-1.01-.052-4.771-.591-5.623C1.5,2.676,3.964,2.42,5.031,1.629l.887.3M5.031,15.539H6.067c.252.4.375.37.444,1.036-.788.976-.679,3.221-2.22,3.4-.151-.119-.04-.052-.3-.148a2.324,2.324,0,0,1-.148-.74,25.832,25.832,0,0,1,1.184-3.552m1.776,1.036c2.194.013,6.83,3.252,6.955,5.179-.119.152-.052.041-.148.3a3.182,3.182,0,0,1-1.036.148,12.712,12.712,0,0,0-3.255-2.96c-.891-.566-2.279-.722-2.664-1.776-.255-.417-.037-.544.148-.888" transform="translate(0 0)"/>
        </g>
      </g>
    </g>
    <rect id="Rectangle_148" data-name="Rectangle 148" class="cls-1" width="122" height="145" transform="translate(482 418)"/>
  </g>
</svg>
