<svg xmlns="http://www.w3.org/2000/svg" xmlns:xlink="http://www.w3.org/1999/xlink" width="146" height="167" viewBox="0 0 146 167">
  <defs>
    <style>
      .cls-1, .cls-3 {
        fill: #e6e6e6;
      }

      .cls-2 {
        clip-path: url(#clip-path);
      }

      .cls-3 {
        fill-rule: evenodd;
      }

      .cls-4 {
        fill: none;
      }
    </style>
    <clipPath id="clip-path">
      <rect id="Rectangle_82" data-name="Rectangle 82" class="cls-1" width="93.159" height="81.756"/>
    </clipPath>
  </defs>
  <g id="Group_296" data-name="Group 296" transform="translate(-187 -740)">
    <g id="Group_163" data-name="Group 163" transform="translate(213 798)">
      <g id="Group_162" data-name="Group 162" class="cls-2" transform="translate(0 0)">
        <path id="Path_121" data-name="Path 121" class="cls-3" d="M82.395,55.474c2.057.145,3.915.161,5.011,1.8.759.958-.253,6.236-.6,7.817-.271,1.227.386,3.116-.2,4.009a1.416,1.416,0,0,1-1,1c-1.261.787-4.763.064-6.013-.2a5,5,0,0,0-2.606.4c-1.506,2.362-.7,7.867-.4,11.624a10.673,10.673,0,0,1,1.6,1.4c3.6.143,13.755,2.324,16.836.6,2.129-1.19,3.2-7.708,3.207-10.823h.4c.36.178.363.06,1,0a3.145,3.145,0,0,1,.2,1,26.7,26.7,0,0,1-.4,4.811v2.2c-.549,2.2-1.822,4.889-4.41,5.011-1.224.867-2.923.249-4.811.6a9.793,9.793,0,0,1-3.808-.6,39.714,39.714,0,0,0-5.011-.6l-2.606.2a11.122,11.122,0,0,1-4.61-3.207c-.212-4.538-.762-9.232.2-13.028.7-.359,1.348-1.165,2-1.4,2.33-.847,5.055.181,7.616.2a2.647,2.647,0,0,0,.4-1.6c.544-.874-.064-2.619.2-3.809a18.791,18.791,0,0,0,.6-4.209,2.223,2.223,0,0,0-1.6-.6c-1.514-.993-5.328,1.074-7.015,1.2a3.019,3.019,0,0,1-.4-.8,1.391,1.391,0,0,1,.2-1.6c1.477-1,4.589-.473,6.013-1.4" transform="translate(-6.702 -5.036)"/>
        <path id="Path_122" data-name="Path 122" class="cls-3" d="M44.958,55.372a34.331,34.331,0,0,1,5.812.8c2.284.5,4.092-.395,6.214-.4a1.907,1.907,0,0,0,.8.6c-.126.352-.039.195-.2.4-.416,1.86-2.695,1.633-4.409,2.2-2.965.99-4.8,3.44-7.216,4.41-.245-.495-.355-.31-.6-.8.755-.443,4.146-3.46,4.41-4.209l.2-.2h-.4c-.85.52-4.37-.477-5.011-.6a3.454,3.454,0,0,1-.6-1.8,5.086,5.086,0,0,0,1-.4m14.23,24.251c.209-1.686,1.133-2.64,1.6-4.409A7.329,7.329,0,0,0,55.58,66.2v.4c1.7,2.3,1.2,12.744,1.2,17.437a1.086,1.086,0,0,0-.8.6c-.543-.1-.587-.024-.8-.2l-.8-.8c-.134-4.013.99-14.746-1.6-17.838a3.174,3.174,0,0,0-1.6-.2c-1.138.639-5.528.488-6.414,1.8v3.408c-.695,1.174-.223,3.468-.6,4.811a24.2,24.2,0,0,1-2,4.209c-1.027.15-1.591.379-1.8-.8,1.967-1.974,1.557-5.659,2.2-9.019h-.4c-.4.758-.979.918-1.4,1.6l-.2-.2-.4-.2c.12-.378,0-1.257.2-1.8.373-1.033,1.6-1.895,2-3.007-.451-.7-.406-2.62-.4-3.608l1.8-.2.2.2.4,2.406h.2c1.217-1.12,3.166-.852,5.011-1.4C55.848,61.911,61.676,65.655,63,70.2c1.107,3.811.281,9.444-3.808,9.419M48.765,67.2h1.2c1.469,2.438,2.4,12.5-1.6,12.627v-.4a4.236,4.236,0,0,1-.2-1.8c.26-1.165,1.322-3.508,1-5.612-.229-1.5-1.057-3.5-.4-4.811" transform="translate(-3.645 -5.027)"/>
        <path id="Path_123" data-name="Path 123" class="cls-3" d="M33.715,24.922c2.328-.253,3.581-.346,5.812-.4q-.1-.9-.2-1.8l-.6-.2c-1.9-1.121-4.106,1.007-5.212-1h-.2v1.4c-.281.484-.034,1.28-.2,2-.474,2.053-.669,5.6-2.4,6.414a8.91,8.91,0,0,1-1.4,0c-.138-2.361.841-4.516,1.4-6.614,1.121-4.189-.106-9.961-.8-13.228h-.4v.2c-1.232,1.014-1.731,3.771-3.608,4.009-.2-.161-.055-.071-.4-.2a4.337,4.337,0,0,1-.2-1.4c.866-.928.96-1.987,1.6-3.207.547-1.038,1.637-1.727,2.2-2.806h-2a2.655,2.655,0,0,1-1.4.2,3.354,3.354,0,0,1-.6-2.2l.6-.2c1.057-.677,3.631-.425,5.211-.4a28.653,28.653,0,0,1,2-3.608c.339-.425,1.207-.607,1.6-1l1,.2v.8a12.273,12.273,0,0,0-1.8,3.408h.6c.946-.577,3.967-.291,5.612-.2a2.209,2.209,0,0,0,.4.6c-.126.351-.038.195-.2.4-.415,1.412-1.507,1.491-3.408,1.4-.74.458-4.02.415-5.011.6a1.922,1.922,0,0,1-.6,1l1.6,4.009h2.807c.981.664,2.5.693,3.207,1.6,1.316,1.693,1.486,3.631,2.2,6.013,1.351,4.475,3.816,10.947,2.807,16.235a8.341,8.341,0,0,1-2,0,12.8,12.8,0,0,1-.4-3.608c-.964-1.631-.037-5.307-1.2-6.815-.236-.161-.337-.155-.8-.2-.715.9-3.609.859-4.811.6-.476-.712-.773-.719-.8-2m.2-4.61h-.6a5.121,5.121,0,0,0,0-2.2V15.5a4.36,4.36,0,0,1,3.407.6,6.058,6.058,0,0,1,1.6,4.009c-1.311-.035-3.335-.495-4.41.2" transform="translate(-2.278 -0.079)"/>
        <path id="Path_124" data-name="Path 124" class="cls-3" d="M75.283,2.533l1,.2a2.092,2.092,0,0,1,.4,1.2c-.71,1.1-.03,5.458,0,7.015l.2.2a4.334,4.334,0,0,1,4.61,4.61c1.091,1.725-1.275,5.426-3.207,5.412-.38-.407-.576-.375-.8-1,1.313-.9,1.824-3.405,1.4-5.412-.54-.379-1.4-1.336-2-1-.713,1.167.09,3.663-.2,5.212a58.692,58.692,0,0,0-.2,12.226,13.451,13.451,0,0,1,.2,3.808,12.149,12.149,0,0,1-2,0v-.4c-.909-1.219-.215-3.411-.6-5.211a17.237,17.237,0,0,1-.2-5.412,2.645,2.645,0,0,0,.2-1.2,16.64,16.64,0,0,1,0-5.612,8.723,8.723,0,0,0,0-3.608c-.352.126-.195.039-.4.2-1.146.2-1.776.41-1.8,1.8a9.218,9.218,0,0,0-.6,3.408c-.559.368-.566.638-1.4.8-.2-.162-.055-.072-.4-.2a2.81,2.81,0,0,1-.2-.8c.285-.516.193-4.912.4-6.013,1.187-.554,3.308-.986,4.41-1.8.567-.889.223-5.528.2-7.015a7.467,7.467,0,0,0,.4-1.2c.416-.075.386-.048.6-.2M55.441,7.744a12.479,12.479,0,0,0,1,3.207,8.915,8.915,0,0,1,6.214-.4c.889,1.76,2.827,6.386-.8,6.415-1.451,1.009-3.035,0-3.809-.6v1.4a5.451,5.451,0,0,1,.2,2.406,19.438,19.438,0,0,1,4.81,0c.9,1.956,2.107,3.717,2.2,6.414-.665.66-.744,1.274-2,1.4-1.678,1.17-4.72-.212-5.212-1.2l-.2.2c-.73,1.118-.27,1.991-2.2,2l-.2-.6c-.536-.954.906-6.219.6-8.217-.289-1.9-.306-4.868-1-7.016-.636-1.964-1.76-4.142-2-6.414l.2-.2a12.233,12.233,0,0,0,5.011-1.2c1.078-.656.621-1.343,2.606-1.4.2.161.055.071.4.2.126.352.039.195.2.4l-.4,1.2c-1.787.781-3.3,1.871-5.612,2m4.209,4.61a4.313,4.313,0,0,1,1.4.2,4.183,4.183,0,0,0,.6,1.6c-.08.412-.049.386-.2.6-1.207.894-2.551-.141-3.408,1h-.2a12.857,12.857,0,0,1-.6-3.007,4.113,4.113,0,0,0,2.4-.4m-.4,9.821c3-.106,2.345.91,3.408,2.606a2.1,2.1,0,0,1-.4,1.2,5.044,5.044,0,0,0-1.6.2,3.41,3.41,0,0,1-.2-1.2,4.712,4.712,0,0,0-2,1h-.4a32.094,32.094,0,0,1,.4-3.608c.465-.045.566-.039.8-.2" transform="translate(-4.815 -0.23)"/>
        <path id="Path_125" data-name="Path 125" class="cls-3" d="M6.815,0a3.1,3.1,0,0,1,2.2.6c1.714,1.713,3.47,12.014,2.806,14.832-3.317,1.117-3.924.839-7.416,0l-1.2.2c-.155-.061-.321-.766-.4-.8a7.05,7.05,0,0,1-1.6.2A95.951,95.951,0,0,1,0,2.607a2.126,2.126,0,0,1,1-.4,1.1,1.1,0,0,0,.8.6C2.933,1.193,5.2,1.158,6.815,0m1.2,2.606c.441,1.869.949,4.083,1.4,6.013.346,1.472-.084,3.111.6,4.21a2.653,2.653,0,0,1-.4,1.6c-1.751.288-5.319-1.332-6.214-.8a2.858,2.858,0,0,1-.8-.2c0-1.367-.071-6.462-.8-7.616.228-2.189,3.565-2.536,5.011-3.608l1.2.4m-1.2,18.44h1.4c.342.546.508.5.6,1.4-1.067,1.322-.919,4.362-3.007,4.61-.2-.161-.055-.071-.4-.2a3.147,3.147,0,0,1-.2-1,34.988,34.988,0,0,1,1.6-4.811m2.4,1.4c2.972.017,9.251,4.405,9.42,7.015-.161.205-.071.055-.2.4a4.309,4.309,0,0,1-1.4.2,17.217,17.217,0,0,0-4.409-4.009c-1.207-.766-3.087-.977-3.608-2.4-.346-.565-.05-.737.2-1.2" transform="translate(0 0)"/>
      </g>
    </g>
    <rect id="Rectangle_181" data-name="Rectangle 181" class="cls-4" width="146" height="167" transform="translate(187 740)"/>
  </g>
</svg>
