<svg xmlns="http://www.w3.org/2000/svg" xmlns:xlink="http://www.w3.org/1999/xlink" width="162" height="67" viewBox="0 0 162 67">
  <defs>
    <style>
      .cls-1 {
        fill: none;
      }

      .cls-2 {
        clip-path: url(#clip-path);
      }

      .cls-3 {
        fill: #121212;
        fill-rule: evenodd;
      }
    </style>
    <clipPath id="clip-path">
      <rect id="Rectangle_50" data-name="Rectangle 50" class="cls-1" width="104.474" height="59.15"/>
    </clipPath>
  </defs>
  <g id="Group_263" data-name="Group 263" transform="translate(-129 -599)">
    <g id="Group_87" data-name="Group 87" transform="translate(140 602)">
      <g id="Group_86" data-name="Group 86" class="cls-2" transform="translate(0 0)">
        <path id="Path_103" data-name="Path 103" class="cls-3" d="M31.964,0h.613a2.335,2.335,0,0,1,.459,1.684c-.707,1.067.15,5.486.46,6.277l.153-.154c1.119-1.7,1.93-6.068,4.439-6.123.181.123.257.119.613.153a6.049,6.049,0,0,1,.613,1.225c.282,1.1-.348,3.138.459,3.674V6.583c.878-1.121,1.17-2.8,2.144-3.827.53-.562,1.287-.981,1.837-1.531a8.6,8.6,0,0,1,1.837.153c.991,1.61.6,3.006,1.071,5.2V8.42a16.8,16.8,0,0,1,.613,3.521c-.352.246-.231.328-.766.46-.181.123-.257.118-.613.153-.426-1.673-.5-4.18-.918-6.123-.263-1.21.3-2.727-.306-3.521-.181-.123-.257-.119-.613-.153l-1.531,1.53a19.493,19.493,0,0,0-2.449,4.593c-.3.825-.153,2.4-.918,2.755-.186.114-.152.021-.613,0a6.935,6.935,0,0,1-.307-2.908,25.486,25.486,0,0,0-.459-5.817l-.153.153c-2.019,1.409-3.38,5.942-3.98,8.879a2.8,2.8,0,0,1-.918.154c-.156-.123-.042-.054-.306-.154v-.306c-.328-.528-.007-1.543-.154-2.3C31.885,7.356,31,2.5,31.964,0M58.142,1.225c.489-.039.488-.152.765,0,.5.159.6.273.765.765.282.646-.866,5.895-1.225,6.889-1.473,4.074-3.365,8.157-4.592,12.4-.265.916-.017,1.543-.307,2.449C52.92,25.7,52.541,28,51.865,29.852c-.2.555-.147,1.241-.459,1.684a2.42,2.42,0,0,1-1.225.154c-.131-.5-.307-.6-.459-1.072.44-.612.351-1.3.613-2.143.435-1.406.9-3.18,1.377-4.593q.229-1.53.46-3.061c.461-1.288,2.845-6.528,2.6-7.348C56.56,9.838,58.162,6.4,58.142,1.225M50.641,2.3c1.467.222,1.211.965,1.837,1.99C53.262,5.571,55.923,7.769,56,9.338a2.107,2.107,0,0,1-1.224.46c-1.381-1.949-4.368-4.369-4.439-7.348.269-.1.148-.03.306-.153" transform="translate(-10.829 0)"/>
        <path id="Path_104" data-name="Path 104" class="cls-3" d="M12.415,39.964c.6.134.929.3,1.072.918.6.985.148,2.6.459,3.827,1,3.956.978,9.695,1.071,13.625-.4.307-.278.475-.918.613-.118-.1-.341-.2-.459-.306-.976-1.157.158-4.947-.307-7.042a28.252,28.252,0,0,1-.459-5.358l-.306-.46V44.25a18.168,18.168,0,0,1-.46-4.133c.269-.1.149-.03.306-.153m8.573,14.7c-.044,1.636.506,3.417,1.684,3.827.536.314,1.146-.155,1.531,0,.449.226.494.166.613.765a4.577,4.577,0,0,1-2.755.765,8.354,8.354,0,0,1-1.531-1.377c-1.637-2.53-1.91-8.446,2.143-8.42.444.373,1.322.3,1.838.612l1.684,1.684v1.072c-.423.436-.814.938-1.225,1.377a15.084,15.084,0,0,1-3.98-.306M.475,50.68c.476.026.712.278.918.307.448.06.646-.478,1.378-.307a6.509,6.509,0,0,1,3.674,2.3,5.861,5.861,0,0,1-2.3,4.9c-.49.39-1.478.244-1.838.765Q2.006,63.768,1.7,68.9c-.007,1.574.45,3.68-.918,3.98-.156-.123-.042-.054-.307-.153C-.3,71.37,0,67.488.475,65.376v-1.99C1.382,59.239.19,54.752.169,50.833c.269-.1.148-.03.306-.153m22.963.765c.457.456.863.472,1.072,1.225.123.157.056.037.153.306a2.558,2.558,0,0,1-3.062.153l-.459-.153c.088-.976.486-.969.918-1.531Zm19.136,0h1.071a2.109,2.109,0,0,1,.46,1.225c-.87.841-2.718,2.908-2.909,4.286.767.464,4,2.093,4.286,2.755v1.224a1.1,1.1,0,0,0-.306.613c-.773.283-2.4,1.936-3.368,1.378a1.681,1.681,0,0,1-.613-.613c-.115-.164-.092-.145-.153-.46.8-.431,2.128-.913,2.449-1.837a13.813,13.813,0,0,1-3.827-2.449c-.287-3.376,1.788-3.833,2.909-6.123m-40.721,2.3V52.364c.264-.1.15-.03.306-.153a4,4,0,0,1,2.756.918A3.383,3.383,0,0,1,2.159,56.8c.024-1.216.179-2.312-.306-3.061m30-.46h1.531l.765.918c-.242.454-.471.511-.613,1.072,1.283.915,2.453,2.989,3.674,4.133q-.076.383-.153.765H35.685a8.094,8.094,0,0,0-2.3-2.449c-.345,1.656-1.044,1.756-2.144,2.6-2.463-.444-2.966-2.176-2.755-4.439.338-.259.326-.625.613-.918.6-.618,1.526-.927,2.143-1.531.356-.03.433-.03.613-.153m26.79,0c1.993.417,1.42,1.453,2.6,2.144a2.79,2.79,0,0,1,2.6-1.072c.242.454.471.511.612,1.072-1.26.288-3.182,1.5-3.061,2.6.169,1.539-.046,3.86-1.225,4.133-.336-.32-.565-.263-.765-.766-.786-1.22.318-3.389.306-4.439-.021-1.763-1.024-1.6-1.378-2.3-.277-.549.194-1.161.307-1.378m9.338.765a4.718,4.718,0,0,1,3.98,1.378c.555.67.343,1.377.153,2.143l-2.6,1.225a8.645,8.645,0,0,1-2.908,0,4.412,4.412,0,0,0-.153,1.377c.145.208.03.435.153.766a5.436,5.436,0,0,0,1.99,2.3c1.44.79,4.362.192,4.44,2.3l-.307.306-2.6-.306c-2.484-1-6.407-3.314-5.358-7.654.216-.9.54-2.08.766-2.909a15.585,15.585,0,0,0,2.449-.918M56.5,60.63c-.356-.03-.433-.03-.613-.153a1.724,1.724,0,0,1-1.071-1.072c-.269.1-.148.03-.306.154-.911.838-1.541,1.732-3.062,1.99-.462-.542-1.1-.452-1.377-1.225-.827-1.1-.624-4.714.153-5.664l.306-.307a1.259,1.259,0,0,1,.918.613c.44.786-.576,2.27-.459,3.368a4.123,4.123,0,0,0,.612,1.378c.269-.1.149-.03.307-.153,2.33-.806,1.838-4.161,3.521-4.286.156.123.042.054.306.153q.077.229.153.459c.36.571.6,3.7.613,4.746m39.343-6.277,1.531.154a5.286,5.286,0,0,0,1.378,1.071L99.828,56.8a11.726,11.726,0,0,0,4.592,1.991c.012.465.116.42,0,.612-.22.692-.662.882-1.53.918-1.116-.859-2.655-1.055-3.675-1.99-.847-.777-1.415-2.031-2.755-2.3-.762-.345-1.732.837-2.3,1.225-1.083.745-1.874,1.753-2.908,2.449a23.569,23.569,0,0,1-3.062,1.377c-.579.283-1.962,1.073-2.6.765-2.115-.517-2.662-2.1-3.98-3.368q.076-.536.153-1.071h.765a34.76,34.76,0,0,1,2.6,2.6c4.169.079,5.781-2.823,8.266-4.439.785-.51,1.718-.66,2.449-1.225M31.7,55.273l.153.153c.01,1.1.009,1.352,0,2.449l-.765.765c-.192.116-.146.011-.612,0a2.856,2.856,0,0,0-.46-.765c.028-1.534.621-1.75,1.224-2.6Zm34.9,1.224c.565-.427,2.124-1.777,3.368-.918.433.177.288.02.459.459.9.471-2.519,1.209-3.827,1.072Z" transform="translate(0 -13.727)"/>
      </g>
    </g>
    <rect id="Rectangle_157" data-name="Rectangle 157" class="cls-1" width="162" height="67" transform="translate(129 599)"/>
  </g>
</svg>
