<svg xmlns="http://www.w3.org/2000/svg" xmlns:xlink="http://www.w3.org/1999/xlink" width="110" height="113" viewBox="0 0 110 113">
  <defs>
    <style>
      .cls-1 {
        fill: none;
      }

      .cls-2 {
        clip-path: url(#clip-path);
      }

      .cls-3 {
        fill: #fff;
        fill-rule: evenodd;
      }
    </style>
    <clipPath id="clip-path">
      <rect id="Rectangle_56" data-name="Rectangle 56" class="cls-1" width="102.413" height="47.751"/>
    </clipPath>
  </defs>
  <g id="Group_293" data-name="Group 293" transform="translate(-201 -1041)">
    <g id="Group_269" data-name="Group 269" transform="translate(203 1106)">
      <g id="Group_111" data-name="Group 111" class="cls-2" transform="translate(0 0)">
        <path id="Path_105" data-name="Path 105" class="cls-3" d="M40.273,44.817q.229-2.476.457-4.953a16.386,16.386,0,0,0,.61-2.972l-3.048.152c-.266,1.278-.986,2.537-1.372,3.81q-.077.572-.153,1.143c-.259.922-.516,2-.762,2.9.28.137.356.2.381.61-.626.626-.846,1.888-1.829,2.134l-.686-.076a11.459,11.459,0,0,1-5.715-.458c-1.018-.288-2.26.017-2.591-.915a1.205,1.205,0,0,1-.076-.61c.289-.333.391-.735.838-.914s1.219-.242,1.448-.61c.63-.931.795-2.6,1.143-3.81.342-1.191.865-2.448,1.219-3.658l.076-.915c.346-1.289.5-2.454.839-3.734h-.305c-.628.377-1.477.1-2.286.305-.4.1-.937.279-1.372.381l-2.362.076c-.832.2-1.76.338-2.591.534-.576.135-1.3.034-1.829.153l-4.039-.077c-2.191.507-4.718.91-6.858,1.448-1.673.42-5.036.442-5.792-.61a2.373,2.373,0,0,1-.457-1.982c.984-.145,1.465-1.187,2.134-1.676a13.065,13.065,0,0,1,4.268-1.829c.653-.184,2.57-.218,2.819-.686h-2.21c-.6.408-2.358.1-3.2.3-1.927.475-4.962.672-5.868-.914l-.076-.458-.381-.3a3.439,3.439,0,0,1-.61-2.21c.07-.286.23-.582.305-.914.63-.312.978-.926,1.524-1.3,1.069-.723,2.538-.643,3.886-1.143a28.347,28.347,0,0,1,2.82-1.219,10.358,10.358,0,0,1,3.81.229l1.448-.305a10.622,10.622,0,0,0,3.658-1.219c.964-.7,1.131-2.962,1.143-4.572a7.344,7.344,0,0,1,0-1.905,23.047,23.047,0,0,1,2.134-5.411,6.227,6.227,0,0,1,.381-.915,3.806,3.806,0,0,1,3.81-1.448c1.215.275,2.294-.153,3.2.457a5.454,5.454,0,0,1,1.067,1.22c.367.56.275,1.265.534,1.981.636,1.765.751,4.215,1.524,5.944,1.178-.463,2.543.053,3.962-.076a11.71,11.71,0,0,1,3.124-.076,8.829,8.829,0,0,0,2.591.3c1.621-.233,3.213-.565,4.725-.915h1.448a20.9,20.9,0,0,1,4.954.534c1.235.3,2.726-.043,3.962.229l4.649.077,7.773.838a13.174,13.174,0,0,1,1.524.762A21.8,21.8,0,0,1,72.583,16.7a7.067,7.067,0,0,1,1.829,1.372,4.083,4.083,0,0,0,.762.991,11.607,11.607,0,0,1,2.591,2.362c.369.5.5,1.529.991,1.905,1.186.915,3.467,1.29,5.334,1.524a21.134,21.134,0,0,1,2.21,0,15.569,15.569,0,0,0,4.877,0,6.2,6.2,0,0,0,1.753-.991c.242-.186.386-.555.61-.762.4-.373.912-.6,1.3-.991a10.639,10.639,0,0,0,.991-1.524l.686-.686c.583-.986.072-2.684-.3-3.429a5.227,5.227,0,0,0-1.448-1.982,8.744,8.744,0,0,1-1.067-.762,12.52,12.52,0,0,1-.915-1.3c-.515-.683-1.258-1.086-1.6-1.981a17.168,17.168,0,0,1-.534-2.362l.076-2.439a5.479,5.479,0,0,1-.152-1.981,8.3,8.3,0,0,1,.686-1.829c.3-.58.346-1.3.991-1.524a6.175,6.175,0,0,1,2.9-.229c.331.126.432.51.686.686.6.416,1.428.477,2.057.838.488.28.683.907,1.067,1.3C98.563,4,96.6,4.451,96.207,5.419c-.364.6.55,3.139.686,3.658q.076.686.153,1.372a17.7,17.7,0,0,0,1.905,4.038l.381.229c.128.158.109.361.229.533a4.4,4.4,0,0,0,.991.839,5.208,5.208,0,0,1,1.677,5.334c-1.114,3.93-5.911,7.226-9.983,8.306l-2.057.076c-1.253.279-2.855.332-4.039.61l-3.124.077a8.29,8.29,0,0,1-1.829.229l-2.057-.076c-.931.246-1.926.61-2.743.914a7.894,7.894,0,0,0-1.372.381c-.821.5-1.654,1.164-2.439,1.753-.478.359-.735.923-1.3,1.219.141.659.341,1.627.458,2.286a31.558,31.558,0,0,1,0,3.658,1.142,1.142,0,0,1,.534.305c-.133.647-.226,1.261-.381,1.9a9.065,9.065,0,0,1-2.972.991c-.759.159-1.727-.275-2.667-.077-.993.21-3.689.146-4.268-.381-.125-.114-.18-.338-.305-.457a2.273,2.273,0,0,1,.153-.991,7.286,7.286,0,0,1,1.372-.762q.076-.572.153-1.143c-.118-.506-.53-.977-.686-1.524-.283-1-.32-2.174-.534-3.124h-.914c-.631.424-2.092.425-2.82.762a9.119,9.119,0,0,1-.153,4.572c-.184.784-.076,1.6-.229,2.286-.247,1.114.5,1.344,0,2.591a9.9,9.9,0,0,1-6.477.381c-.853-.321-1.747-.454-1.829-1.524a6.81,6.81,0,0,1,1.143-.991c.308-.163.81-.09.991-.381a3.4,3.4,0,0,1,0-2.058,17.027,17.027,0,0,0-.229-4.725H49.57c-.377-.241-1.45.054-1.981.076-.026.076-.051.153-.077.229a4.3,4.3,0,0,0-.457,1.6c-.163.646-.37,1.448-.534,2.057v.991c-.128.566-.178,1.423-.3,1.981a2.365,2.365,0,0,0,.3,1.524,3,3,0,0,1-.838,2.21,3.693,3.693,0,0,1-1.829.533,7.119,7.119,0,0,1-1.372-.3c-1.734-.4-4.109.624-4.268-1.372.558-.588.921-1.2,2.058-1.22m2.439-.3a2.909,2.909,0,0,1-1.3,0c-.154-.249.131-1.214.153-1.677a22.388,22.388,0,0,1,.686-4.725c.105-.4.583-1.236.381-1.6a.878.878,0,0,0-.153-.534c-.958-.01-4.177-.241-4.8.153l-.229.076v.838c-.1.319-.294.757-.457,1.143-.233.551-.626,1.278-.838,1.829v.762c-.118.39-.209,1-.381,1.448a19.483,19.483,0,0,0-.838,2.362c-2.083,0-4.841.284-6.1-.61a10.709,10.709,0,0,1,.762-2.667c.567-1.727,1.03-3.379,1.524-5.106q.114-.8.229-1.6a10.207,10.207,0,0,0,.534-2.743,1.371,1.371,0,0,0-.229-.381c-.157.031-.147.019-.229.076-.183-.113-.168-.4-.229-.61a11.991,11.991,0,0,0-3.81.61l-2.21.077c-.735.168-1.606.287-2.286.457a18.7,18.7,0,0,1-4.42.305l-1.829-.077c-2.63.592-5.444.792-7.849,1.524a17.4,17.4,0,0,1-3.429.229,3.137,3.137,0,0,1-.61-.381c-.28-.183-.823-.431-.533-.914.181-.458.811-.666,1.143-.991A7.538,7.538,0,0,1,7.657,30.11c1.605-.669,3.56-.644,5.258-1.219a16.391,16.391,0,0,0,1.753-.915,1.5,1.5,0,0,1,.153-.305c-.052-.415-.22-.4-.381-.686H10.248c-.383.089-.953.212-1.372.3l-1.829.077c-1.85.437-3.29.66-4.8-.229.181-.518.719-.705.915-1.143v-.762a11.587,11.587,0,0,1,.534-1.448c.228-.445.784-1.106.61-1.676,1.793-.364,2.959-1.06,4.649-1.448,1.307-.3,2.281.556,3.429.305,1.948-.426,5.277-.969,6.249-2.286,1.032-1.4.646-4.324,1.3-6.1l-.3-.229A12.6,12.6,0,0,1,21.983,6.41a2.424,2.424,0,0,1,2.667-1.3c1.007.214,2.114-.163,2.819.305.855.567.892,1.34,1.219,2.438.591,1.99.817,4.712,1.677,6.478.339.052.481-.159.838-.077l.153.153,1.753-.076c1.521.336,3.166-.03,5.03.076.859.049,2.148.554,3.048.381,2.979-.573,6.679-1.092,9.907-.381,1.04.229,2.143.016,3.124.229h3.353c.571.125,1.468-.069,2.134.077,2.047.447,4.3.241,6.249.686.68.155,1.213.042,1.829.229a19.44,19.44,0,0,1,5.182,2.439c.554.413.848,1.162,1.372,1.6.184.154.413.158.61.305.222.165.33.566.534.762l1.143.914c.681.9.948,2.194,1.905,2.82A19.39,19.39,0,0,0,81.8,25.537a16.8,16.8,0,0,0,3.962.305c1.755.1,4.294.6,5.944,0,2.3-.842,4.22-3.452,5.639-5.258.99-1.261-.134-4.54-.762-5.411a5.05,5.05,0,0,0-1.067-.915l-.534-.686a12.456,12.456,0,0,1-2.9-3.2,12.379,12.379,0,0,1-.533-2.21V5.8a7.066,7.066,0,0,1-.077-2.439,8.807,8.807,0,0,1,.991-2.286L94.759.847a10.7,10.7,0,0,1,1.829.991c.539.266,1.115.291,1.3.915h.077c-.35.917-2.407,1.462-2.743,2.667-.279,1,.456,2.872.686,3.505.28.773.16,1.656.457,2.362A22.611,22.611,0,0,0,99.1,16.164c.268.354.755.525,1.067.838a4.244,4.244,0,0,1,1.219,3.353c-.757,3.237-2.794,4.583-5.106,6.249a10.321,10.321,0,0,1-2.591,1.6c-2.658.921-6.051.817-8.916,1.448l-1.829-.076c-.173.016-.54.119-.686.153-1.445.328-2.754-.29-4.039.076a19.875,19.875,0,0,0-4.268,1.524c-.941.672-1.88,1.431-2.819,2.134-.407.3-.558.759-1.143.915a1.722,1.722,0,0,0,.229.991h.305a20.3,20.3,0,0,1,.152,4.953l-1.981.61h-2.21a7.7,7.7,0,0,1-2.058.153,5.138,5.138,0,0,0-.61-2.286c-.235-.723-.083-1.484-.3-2.286-.148-.535-.455-1.2-.61-1.677-1.766-.457-3.877.228-5.41.686q-.077.266-.153.533a6.7,6.7,0,0,1,.3,2.058q-.228,1.448-.457,2.9c-.141.607.067,1.5-.229,1.981a1.17,1.17,0,0,1-.153.686,8.7,8.7,0,0,1-3.886-.61c-.3-1.374.269-3.5-.076-5.106-.158-.732.146-1.708-.229-2.21l-.076-.153a18.676,18.676,0,0,0-4.344,0c-.316.067-.7-.059-.915.076-.907.021-.833,1.081-1.067,1.753-.275.789-.484,1.837-.686,2.667v1.067a12.794,12.794,0,0,0-.381,3.124c-.845.069-1.937.135-2.438.229M24.8,8.315a3.3,3.3,0,0,1,2.972,1.9c.253.9-.583,1.989-.229,2.82.114.268.563.371.458.686s-.2.373-.61.381a13.791,13.791,0,0,1-2.362.381c-.177.048-.433.257-.61.305a3.476,3.476,0,0,1-2.134-.61v-.838c-.176-.279.005-1.05.077-1.372l.076-1.372a4.242,4.242,0,0,1,1.22-1.9c.346-.2.817-.163,1.143-.381m.686.838a8.448,8.448,0,0,0,1.3,1.067,2.879,2.879,0,0,1-.229,1.6,2.585,2.585,0,0,1-.381,1.676c-.572.055-1.507.348-1.981,0-.7.009-.6.269-1.067.381-.025-2.06-.042-4.757,2.362-4.725M39.663,17c1.212-.047,3.571.669,3.581,1.677A9.972,9.972,0,0,1,41.8,20.2c-.547.365-1.512.583-1.677,1.3a.517.517,0,0,1,.153.533c-.146.788-.867,1.074-1.524,1.372-1.695.768-6.121,1.78-7.7.305-.12-2.768,1.057-4.615,3.124-5.411.439-.169,1.619.12,2.057,0,.658-.179,1.5-.68,2.21-.915.447-.147.914-.108,1.219-.381m24.309.686a5.729,5.729,0,0,1,1.448.153,9.443,9.443,0,0,0,2.667,2.515c.428.341.859,1.176,1.372,1.524,1,.678,2.743.636,3.2,1.829v.381a2.128,2.128,0,0,1,.3,1.067c-.569.737-.822,1.7-1.372,2.439a9.221,9.221,0,0,1-3.658,2.21c-1.071.4-2.973.015-3.277-.838-.423-.452-.1-1.257-.076-1.981l-.076-.077c-1.537-.1-3.882-1.48-4.268-2.667-.2-.615.1-1.433-.077-1.982-.228-.706-.748-1.081-.914-1.9a13.67,13.67,0,0,0,1.676-.762c.235-.189.367-.773.686-.991.634-.433,1.764-.477,2.362-.915M20.459,21.27a1.065,1.065,0,0,1,.534.153c.772.225.65.8.457,1.448a3.023,3.023,0,0,1-2.438.381c-.115-.241-.32-.715-.229-.915.251-.89.992-.623,1.677-1.067m31.777,2.515a2.082,2.082,0,0,1,1.6.61c.094.125.1.373.229.458.447.3,1.008.156,1.219.686a7.906,7.906,0,0,1,.229,3.582c-.138.368-.471.776-.61,1.143-.191.5-.116.97-.534,1.219-2.853,1.7-3.819.018-6.4-.61-1.194-.29-1.839.46-2.515.686a5.84,5.84,0,0,1-2.515-.229c-.2-.3-.892-.918-.61-1.6l.3-.305c.188-.431-.028-1.39.077-1.676l.3-.305c.659-1.1.65-1.433,2.058-1.829.906-.255,2.685.732,2.819.61a13.354,13.354,0,0,0,2.82-1.753c.509-.3,1.122-.3,1.524-.686m19.051,17.6a1.194,1.194,0,0,1-.229.991,15.166,15.166,0,0,1-6.02.457c-.7-.143-1.377.341-1.981-.076l-.076-.077h.076c.363-.452,1.1-.355,1.753-.533,1.282-.35,5.119,0,6.249-.839l.229.077M51.246,44.969H51.17a1.386,1.386,0,0,1,.229-.381c.444-.1.978-.373,1.372-.457.276-.058.693.177.915.229h1.143c.329.077.8.232,1.143.305l1.3-.153-.076.457c-1.85.1-4.38,1.153-5.944,0m-21.718.305c.516.17,1.187.194,1.676.3.932.21,2.705-.44,3.429,0h.381a1.246,1.246,0,0,1-.762.915c-.216.134-.6.008-.915.076a11.856,11.856,0,0,1-5.106-.381c-.518-.14-1.226-.021-1.6-.3H26.48c.163-.819,1.349-.617,1.981-.991a4.805,4.805,0,0,1,1.067.381m16-.153V45.2l.076.077h-.076c-.236,1.656-2.457,1.285-3.962.991-.612-.12-1.375.266-1.905-.077l-.077-.076h.077c.326-.377.712-.14,1.3-.3.345-.1.726-.358,1.143-.458,1-.238,2.371.249,3.124-.229Z" transform="translate(0 0)"/>
      </g>
    </g>
    <rect id="Rectangle_173" data-name="Rectangle 173" class="cls-1" width="110" height="113" transform="translate(201 1041)"/>
  </g>
</svg>
