<svg xmlns="http://www.w3.org/2000/svg" xmlns:xlink="http://www.w3.org/1999/xlink" width="146" height="113" viewBox="0 0 146 113">
  <defs>
    <style>
      .cls-1 {
        fill: none;
      }

      .cls-2 {
        clip-path: url(#clip-path);
      }

      .cls-3 {
        fill: #fff;
        fill-rule: evenodd;
      }
    </style>
    <clipPath id="clip-path">
      <rect id="Rectangle_146" data-name="Rectangle 146" class="cls-1" width="123" height="69.639"/>
    </clipPath>
  </defs>
  <g id="Group_292" data-name="Group 292" transform="translate(-49 -1041)">
    <g id="Group_270" data-name="Group 270" transform="translate(67 1058)">
      <g id="Group_248" data-name="Group 248" class="cls-2" transform="translate(0 0)">
        <path id="Path_171" data-name="Path 171" class="cls-3" d="M32.042,0h.721a2.749,2.749,0,0,1,.54,1.983c-.832,1.256.177,6.459.541,7.39l.18-.181c1.317-2,2.272-7.144,5.227-7.209.213.145.3.14.721.18A7.123,7.123,0,0,1,40.693,3.6c.332,1.289-.41,3.695.54,4.325V7.75c1.033-1.319,1.377-3.291,2.524-4.505.624-.662,1.516-1.155,2.163-1.8a10.12,10.12,0,0,1,2.163.18c1.166,1.9.7,3.539,1.261,6.128V9.913a19.784,19.784,0,0,1,.721,4.145c-.414.29-.272.386-.9.541-.213.145-.3.139-.721.18-.5-1.969-.584-4.921-1.081-7.209-.309-1.425.359-3.21-.36-4.145-.213-.145-.3-.14-.721-.18l-1.8,1.8a22.95,22.95,0,0,0-2.883,5.407c-.358.971-.18,2.826-1.081,3.244-.22.134-.179.025-.721,0a8.164,8.164,0,0,1-.361-3.424,30,30,0,0,0-.54-6.849l-.18.18c-2.378,1.659-3.979,7-4.686,10.453a3.3,3.3,0,0,1-1.081.181c-.184-.145-.049-.064-.36-.181V13.7c-.386-.622-.008-1.817-.181-2.7C31.948,8.661,30.9,2.948,32.042,0m30.82,1.442c.576-.046.575-.179.9,0,.587.187.706.322.9.9.332.761-1.019,6.94-1.442,8.11-1.734,4.8-3.962,9.6-5.407,14.6-.312,1.078-.02,1.816-.361,2.884-.741,2.323-1.186,5.033-1.983,7.209-.239.654-.173,1.461-.54,1.983a2.849,2.849,0,0,1-1.442.181c-.154-.591-.361-.712-.54-1.262.518-.72.413-1.529.721-2.523.512-1.656,1.065-3.743,1.622-5.407q.27-1.8.541-3.6C56.375,23,59.182,16.826,58.9,15.86c2.1-4.278,3.988-8.322,3.965-14.418M54.03,2.7c1.727.261,1.426,1.136,2.163,2.343.923,1.513,4.056,4.1,4.145,5.948a2.48,2.48,0,0,1-1.442.541C57.27,9.24,53.753,6.391,53.67,2.884c.316-.114.175-.035.36-.18" transform="translate(-7.159 0)"/>
        <path id="Path_172" data-name="Path 172" class="cls-3" d="M14.617,39.964c.706.158,1.094.351,1.262,1.081.709,1.159.175,3.057.54,4.505,1.176,4.658,1.152,11.414,1.261,16.041-.472.361-.327.56-1.081.721-.139-.123-.4-.237-.54-.36-1.149-1.363.186-5.824-.361-8.291a33.262,33.262,0,0,1-.54-6.308l-.36-.541v-1.8a21.39,21.39,0,0,1-.541-4.866c.316-.114.175-.035.36-.18m10.093,17.3c-.052,1.926.6,4.022,1.983,4.505.631.37,1.35-.182,1.8,0,.529.266.581.2.721.9a5.389,5.389,0,0,1-3.244.9,9.836,9.836,0,0,1-1.8-1.622c-1.927-2.978-2.249-9.944,2.523-9.913.523.439,1.557.35,2.163.72l1.983,1.983V56c-.5.513-.958,1.1-1.442,1.622a17.758,17.758,0,0,1-4.686-.36M.559,52.58c.56.031.839.328,1.081.361.528.071.761-.563,1.622-.361a7.663,7.663,0,0,1,4.325,2.7,6.9,6.9,0,0,1-2.7,5.768c-.577.459-1.741.288-2.163.9Q2.362,67.989,2,74.028c-.009,1.853.53,4.333-1.081,4.685-.184-.145-.049-.064-.361-.18-.907-1.594-.563-6.164,0-8.651V67.539C1.627,62.657.224,57.374.2,52.76c.316-.114.175-.035.36-.18m27.035.9c.538.537,1.016.556,1.262,1.442.145.185.066.044.18.36a3.011,3.011,0,0,1-3.6.18l-.54-.18c.1-1.149.573-1.141,1.081-1.8Zm22.529,0h1.261a2.483,2.483,0,0,1,.541,1.442c-1.024.99-3.2,3.423-3.425,5.046.9.546,4.71,2.464,5.046,3.244v1.442a1.29,1.29,0,0,0-.36.721c-.91.333-2.827,2.279-3.965,1.622a1.979,1.979,0,0,1-.721-.721c-.135-.193-.108-.171-.18-.541.948-.508,2.506-1.075,2.884-2.163A16.262,16.262,0,0,1,46.7,60.69c-.338-3.974,2.105-4.513,3.425-7.209m-47.942,2.7V54.562c.311-.116.176-.036.36-.18a4.71,4.71,0,0,1,3.245,1.081c.047,2.291-1.309,4.078-3.245,4.325.029-1.431.211-2.722-.36-3.6m35.325-.541h1.8l.9,1.081c-.284.535-.554.6-.721,1.262,1.51,1.077,2.888,3.519,4.325,4.866q-.089.451-.18.9H42.013a9.529,9.529,0,0,0-2.7-2.884c-.406,1.949-1.229,2.067-2.524,3.064-2.9-.522-3.492-2.562-3.244-5.227.4-.305.384-.736.721-1.081.709-.727,1.8-1.091,2.523-1.8.42-.035.509-.035.721-.18m31.541,0c2.347.491,1.672,1.71,3.064,2.524a3.284,3.284,0,0,1,3.064-1.262c.284.535.554.6.72,1.262-1.483.339-3.746,1.769-3.6,3.064.2,1.812-.054,4.544-1.442,4.866-.4-.376-.665-.309-.9-.9-.926-1.436.375-3.99.36-5.227-.025-2.076-1.2-1.879-1.622-2.7-.326-.646.228-1.367.361-1.622m10.994.9c2.131-.073,3.773.49,4.685,1.622.653.789.4,1.621.18,2.523l-3.064,1.442c-1.312.366-2.234.02-3.424,0a5.2,5.2,0,0,0-.18,1.622c.171.245.035.512.18.9a6.4,6.4,0,0,0,2.343,2.7c1.7.931,5.135.226,5.227,2.7l-.361.36-3.064-.36c-2.925-1.18-7.543-3.9-6.308-9.012.254-1.054.636-2.449.9-3.425a18.347,18.347,0,0,0,2.884-1.081M66.524,64.3c-.42-.036-.509-.035-.721-.18a2.03,2.03,0,0,1-1.261-1.262c-.316.114-.175.035-.36.181-1.073.986-1.814,2.039-3.6,2.343-.544-.638-1.292-.533-1.622-1.442-.974-1.29-.734-5.55.18-6.668l.36-.361a1.482,1.482,0,0,1,1.081.721c.518.925-.679,2.673-.54,3.965a4.854,4.854,0,0,0,.72,1.622c.316-.114.175-.035.361-.18,2.743-.948,2.163-4.9,4.145-5.046.184.145.049.063.36.18q.09.27.18.54c.424.672.7,4.356.721,5.588m46.319-7.39,1.8.181a6.224,6.224,0,0,0,1.622,1.261l1.261,1.442a13.8,13.8,0,0,0,5.407,2.344c.014.548.137.495,0,.72-.259.815-.779,1.039-1.8,1.081-1.314-1.011-3.126-1.242-4.326-2.343-1-.915-1.666-2.391-3.244-2.7-.9-.406-2.039.985-2.7,1.442-1.275.877-2.206,2.064-3.424,2.884a27.749,27.749,0,0,1-3.6,1.622c-.682.333-2.31,1.264-3.064.9-2.49-.609-3.133-2.475-4.686-3.965q.089-.631.18-1.261h.9a40.925,40.925,0,0,1,3.064,3.064c4.908.094,6.806-3.324,9.732-5.227.924-.6,2.023-.777,2.884-1.442M37.326,57.987l.18.18c.012,1.291.011,1.592,0,2.884l-.9.9c-.226.136-.172.013-.72,0a3.362,3.362,0,0,0-.541-.9c.032-1.806.731-2.06,1.442-3.064Zm41.093,1.442c.665-.5,2.5-2.092,3.965-1.081.509.209.339.023.54.54,1.057.554-2.966,1.423-4.505,1.262Z" transform="translate(0 -9.074)"/>
      </g>
    </g>
    <rect id="Rectangle_172" data-name="Rectangle 172" class="cls-1" width="146" height="113" transform="translate(49 1041)"/>
  </g>
</svg>
