<svg xmlns="http://www.w3.org/2000/svg" xmlns:xlink="http://www.w3.org/1999/xlink" width="162" height="67" viewBox="0 0 162 67">
  <defs>
    <style>
      .cls-1 {
        fill: none;
      }

      .cls-2 {
        clip-path: url(#clip-path);
      }

      .cls-3 {
        fill: #121212;
        fill-rule: evenodd;
      }
    </style>
    <clipPath id="clip-path">
      <rect id="Rectangle_48" data-name="Rectangle 48" class="cls-1" width="83.193" height="38.789"/>
    </clipPath>
  </defs>
  <g id="Group_264" data-name="Group 264" transform="translate(-129 -666)">
    <g id="Group_83" data-name="Group 83" transform="translate(195 671)">
      <g id="Group_82" data-name="Group 82" class="cls-2" transform="translate(0 0)">
        <path id="Path_98" data-name="Path 98" class="cls-3" d="M32.714,36.406q.186-2.012.371-4.023a13.312,13.312,0,0,0,.5-2.414l-2.476.123c-.216,1.038-.8,2.061-1.114,3.1q-.062.464-.124.929c-.21.749-.419,1.623-.619,2.352.228.111.289.166.31.5-.508.508-.688,1.533-1.486,1.733l-.557-.062a9.308,9.308,0,0,1-4.643-.372c-.827-.234-1.836.013-2.1-.743a.979.979,0,0,1-.062-.5c.235-.27.318-.6.681-.743s.99-.2,1.176-.5a12.268,12.268,0,0,0,.929-3.1c.278-.968.7-1.989.99-2.971l.062-.743c.281-1.047.409-1.994.681-3.033h-.248c-.51.307-1.2.081-1.857.248-.327.082-.761.227-1.114.31l-1.919.062c-.676.159-1.43.275-2.1.433-.468.11-1.055.027-1.486.124l-3.281-.062c-1.78.412-3.833.739-5.571,1.176-1.359.341-4.091.359-4.7-.5a1.928,1.928,0,0,1-.371-1.61c.8-.118,1.19-.964,1.733-1.362a10.613,10.613,0,0,1,3.467-1.486c.53-.15,2.088-.177,2.29-.557h-1.8c-.491.331-1.916.079-2.6.247C4.1,23.359,1.632,23.518.9,22.23l-.062-.372-.31-.247a2.794,2.794,0,0,1-.5-1.8c.057-.233.187-.472.248-.743.512-.254.795-.752,1.238-1.052.868-.588,2.061-.522,3.157-.929a23.028,23.028,0,0,1,2.291-.99,8.414,8.414,0,0,1,3.095.186l1.176-.248a8.629,8.629,0,0,0,2.971-.99c.783-.572.919-2.406.929-3.714a5.965,5.965,0,0,1,0-1.548,18.721,18.721,0,0,1,1.733-4.4,5.058,5.058,0,0,1,.31-.743,3.092,3.092,0,0,1,3.095-1.176c.987.223,1.863-.124,2.6.371a4.431,4.431,0,0,1,.866.991c.3.455.223,1.028.433,1.609.517,1.433.61,3.424,1.238,4.828.957-.376,2.066.043,3.219-.062a9.512,9.512,0,0,1,2.538-.062,7.172,7.172,0,0,0,2.1.247c1.317-.189,2.61-.459,3.838-.743h1.176a16.98,16.98,0,0,1,4.024.433c1,.241,2.215-.035,3.219.186l3.776.062,6.314.681a10.7,10.7,0,0,1,1.238.619,17.71,17.71,0,0,1,2.1.929,5.741,5.741,0,0,1,1.486,1.114,3.316,3.316,0,0,0,.619.8,9.428,9.428,0,0,1,2.1,1.919c.3.4.409,1.242.8,1.548a9.987,9.987,0,0,0,4.333,1.238,17.168,17.168,0,0,1,1.8,0,12.647,12.647,0,0,0,3.962,0,5.034,5.034,0,0,0,1.424-.8c.2-.151.313-.451.5-.619.328-.3.741-.488,1.052-.8a8.643,8.643,0,0,0,.8-1.238l.557-.557a3.431,3.431,0,0,0-.247-2.785,4.246,4.246,0,0,0-1.176-1.61,7.1,7.1,0,0,1-.866-.619,10.167,10.167,0,0,1-.743-1.052c-.418-.555-1.022-.882-1.3-1.609a13.948,13.948,0,0,1-.433-1.919l.062-1.981a4.451,4.451,0,0,1-.123-1.609,6.741,6.741,0,0,1,.557-1.486c.242-.471.281-1.053.8-1.238A5.016,5.016,0,0,1,77.284.069c.269.1.351.415.557.557.487.338,1.16.388,1.671.681.4.227.555.737.867,1.052-.315.887-1.906,1.256-2.228,2.043-.3.484.447,2.55.557,2.971q.062.557.124,1.114a14.379,14.379,0,0,0,1.548,3.281l.31.186c.1.129.089.293.186.433a3.576,3.576,0,0,0,.8.681A4.231,4.231,0,0,1,83.042,17.4c-.9,3.193-4.8,5.87-8.11,6.748l-1.671.062c-1.018.226-2.319.27-3.281.5l-2.538.062a6.734,6.734,0,0,1-1.486.186l-1.671-.062c-.756.2-1.565.5-2.228.743a6.413,6.413,0,0,0-1.114.31c-.667.407-1.344.946-1.981,1.424-.388.291-.6.75-1.052.99.115.535.277,1.321.372,1.857a25.635,25.635,0,0,1,0,2.971.927.927,0,0,1,.433.248c-.108.526-.184,1.024-.31,1.547a7.364,7.364,0,0,1-2.415.805c-.617.129-1.4-.223-2.166-.062-.807.171-3,.118-3.467-.31-.1-.092-.146-.274-.248-.371a1.846,1.846,0,0,1,.124-.8,5.918,5.918,0,0,1,1.114-.619q.062-.464.124-.929c-.1-.411-.431-.793-.557-1.238-.23-.809-.26-1.766-.433-2.538h-.743c-.513.344-1.7.345-2.291.619a7.407,7.407,0,0,1-.124,3.714c-.149.637-.062,1.3-.186,1.857-.2.9.407,1.092,0,2.1a8.043,8.043,0,0,1-5.262.309c-.693-.26-1.419-.369-1.486-1.238a5.532,5.532,0,0,1,.928-.8c.25-.133.658-.073.805-.31a2.758,2.758,0,0,1,0-1.672,13.831,13.831,0,0,0-.186-3.838H40.267c-.306-.2-1.178.044-1.609.062l-.062.186a3.5,3.5,0,0,0-.371,1.3c-.133.525-.3,1.176-.433,1.671v.8c-.1.46-.144,1.156-.247,1.609a1.921,1.921,0,0,0,.247,1.238,2.439,2.439,0,0,1-.681,1.8,3,3,0,0,1-1.486.433,5.783,5.783,0,0,1-1.114-.247c-1.409-.328-3.338.507-3.467-1.114.454-.478.748-.971,1.672-.991m1.981-.247a2.363,2.363,0,0,1-1.052,0c-.125-.2.106-.987.124-1.362a18.187,18.187,0,0,1,.557-3.838c.086-.324.474-1,.31-1.3a.713.713,0,0,0-.124-.433c-.778-.008-3.393-.2-3.9.124l-.186.062v.681c-.084.259-.239.615-.371.929-.189.447-.508,1.038-.681,1.486v.619c-.1.317-.17.809-.31,1.176a15.826,15.826,0,0,0-.681,1.919c-1.692,0-3.933.231-4.953-.5a8.7,8.7,0,0,1,.619-2.167c.461-1.4.837-2.745,1.238-4.147q.093-.65.186-1.3a8.292,8.292,0,0,0,.433-2.228,1.114,1.114,0,0,0-.186-.31c-.127.025-.119.015-.186.062-.148-.092-.136-.326-.186-.5a9.741,9.741,0,0,0-3.095.5l-1.8.062c-.6.136-1.3.234-1.857.371a15.2,15.2,0,0,1-3.59.248l-1.486-.062c-2.136.481-4.422.643-6.376,1.238a14.131,14.131,0,0,1-2.786.186,2.549,2.549,0,0,1-.5-.31c-.227-.148-.669-.35-.433-.743.147-.372.659-.541.928-.805A6.123,6.123,0,0,1,6.22,24.459c1.3-.543,2.892-.523,4.271-.99a13.315,13.315,0,0,0,1.424-.743,1.22,1.22,0,0,1,.124-.248c-.042-.337-.179-.321-.31-.557h-3.4c-.311.072-.774.172-1.115.247l-1.486.062c-1.5.355-2.673.536-3.9-.186.147-.421.584-.573.743-.928V20.5A9.412,9.412,0,0,1,3,19.32c.185-.361.637-.9.5-1.362,1.457-.3,2.4-.861,3.776-1.176,1.062-.244,1.853.451,2.785.248,1.583-.346,4.287-.787,5.076-1.857.838-1.136.525-3.513,1.052-4.952l-.247-.186a10.239,10.239,0,0,1,1.919-4.828,1.969,1.969,0,0,1,2.167-1.052c.818.174,1.717-.132,2.29.248.695.46.725,1.088.99,1.981.48,1.616.664,3.828,1.362,5.262.275.042.391-.129.681-.062l.124.124,1.424-.062a29.086,29.086,0,0,0,4.086.062,11.358,11.358,0,0,0,2.476.31,20.777,20.777,0,0,1,8.047-.31c.845.186,1.74.013,2.538.186h2.724c.464.1,1.193-.056,1.733.062,1.663.363,3.492.2,5.076.557.552.126.986.034,1.486.186a15.791,15.791,0,0,1,4.21,1.981c.45.335.689.944,1.114,1.3.149.125.335.129.5.248.181.134.268.459.433.619l.929.743c.554.727.77,1.782,1.548,2.291a15.75,15.75,0,0,0,2.662.866,13.651,13.651,0,0,0,3.219.248c1.426.079,3.488.491,4.829,0,1.868-.684,3.428-2.8,4.581-4.271.8-1.024-.109-3.688-.619-4.4a4.1,4.1,0,0,0-.867-.743l-.433-.557a10.118,10.118,0,0,1-2.352-2.6,10.055,10.055,0,0,1-.433-1.8V4.712a5.74,5.74,0,0,1-.062-1.981,7.154,7.154,0,0,1,.8-1.857L76.975.688a8.688,8.688,0,0,1,1.486.8c.438.216.906.236,1.052.743h.062c-.284.745-1.955,1.188-2.228,2.167A6.134,6.134,0,0,0,77.9,7.25c.228.628.13,1.345.371,1.919A18.367,18.367,0,0,0,80.5,13.13c.218.288.613.426.866.681a3.448,3.448,0,0,1,.99,2.724c-.615,2.63-2.27,3.723-4.147,5.076a8.384,8.384,0,0,1-2.1,1.3c-2.159.748-4.916.664-7.243,1.176l-1.486-.062c-.14.013-.439.1-.557.124-1.173.267-2.237-.235-3.281.062a16.145,16.145,0,0,0-3.467,1.238c-.765.546-1.527,1.163-2.29,1.733-.331.247-.453.617-.929.743a1.4,1.4,0,0,0,.186.8h.248a16.491,16.491,0,0,1,.123,4.023l-1.609.5h-1.8a6.252,6.252,0,0,1-1.672.124,4.174,4.174,0,0,0-.5-1.857c-.191-.587-.067-1.205-.247-1.857-.12-.434-.37-.971-.5-1.362a8.734,8.734,0,0,0-4.395.557q-.062.216-.124.433a5.442,5.442,0,0,1,.247,1.672q-.185,1.176-.371,2.352c-.114.493.054,1.218-.186,1.609a.95.95,0,0,1-.124.557,7.067,7.067,0,0,1-3.157-.5c-.244-1.116.219-2.845-.062-4.147-.128-.594.119-1.388-.186-1.8l-.062-.124a15.171,15.171,0,0,0-3.528,0c-.257.055-.569-.048-.743.062-.737.017-.677.878-.866,1.424-.223.641-.394,1.493-.557,2.167v.867a10.392,10.392,0,0,0-.31,2.538c-.687.056-1.573.11-1.981.186M20.148,6.754A2.678,2.678,0,0,1,22.562,8.3c.206.729-.473,1.616-.186,2.291.093.218.457.3.372.557s-.162.3-.5.309a11.2,11.2,0,0,1-1.919.31c-.144.039-.352.209-.5.248a2.823,2.823,0,0,1-1.733-.5V10.84c-.143-.226,0-.853.062-1.114l.062-1.115a3.446,3.446,0,0,1,.991-1.547c.281-.163.664-.133.928-.31m.557.681a6.863,6.863,0,0,0,1.052.866,2.339,2.339,0,0,1-.186,1.3,2.1,2.1,0,0,1-.31,1.362c-.465.045-1.224.283-1.609,0-.566.007-.484.218-.866.31-.02-1.673-.034-3.864,1.919-3.838m11.514,6.376c.984-.038,2.9.543,2.909,1.362a8.1,8.1,0,0,1-1.176,1.238c-.444.3-1.228.474-1.362,1.052a.42.42,0,0,1,.124.433c-.119.64-.7.873-1.238,1.114-1.377.624-4.972,1.446-6.252.248-.1-2.248.858-3.749,2.538-4.4.357-.137,1.315.1,1.671,0,.535-.146,1.216-.553,1.8-.743.363-.119.743-.088.99-.31m19.747.557a4.654,4.654,0,0,1,1.176.124,7.671,7.671,0,0,0,2.167,2.043c.348.277.7.955,1.114,1.238.812.551,2.228.517,2.6,1.486v.31a1.728,1.728,0,0,1,.247.866c-.462.6-.668,1.383-1.114,1.981a7.49,7.49,0,0,1-2.971,1.8c-.87.321-2.415.012-2.662-.681-.344-.367-.081-1.021-.062-1.609l-.062-.062c-1.248-.084-3.154-1.2-3.467-2.166-.162-.5.082-1.164-.062-1.61-.185-.574-.607-.878-.743-1.547a11.105,11.105,0,0,0,1.362-.619c.191-.154.3-.628.557-.8.515-.352,1.433-.388,1.919-.743M16.62,17.278a.865.865,0,0,1,.433.124c.627.183.528.649.371,1.176a2.455,2.455,0,0,1-1.981.31c-.094-.2-.26-.581-.186-.743.2-.723.806-.506,1.362-.867M42.433,19.32a1.692,1.692,0,0,1,1.3.5c.076.1.084.3.186.372.363.243.819.127.99.557a6.422,6.422,0,0,1,.186,2.91c-.112.3-.383.63-.5.929-.155.41-.094.788-.433.99-2.318,1.384-3.1.014-5.2-.5-.97-.236-1.494.374-2.043.557a4.744,4.744,0,0,1-2.043-.186c-.16-.244-.725-.745-.5-1.3l.247-.248c.152-.35-.023-1.129.062-1.362l.247-.248c.535-.894.528-1.164,1.672-1.486.736-.207,2.181.594,2.29.5A10.847,10.847,0,0,0,41.2,19.878c.414-.246.912-.24,1.238-.557m15.476,14.3a.97.97,0,0,1-.186.8,12.32,12.32,0,0,1-4.89.371c-.567-.116-1.118.277-1.609-.062l-.062-.062h.062c.295-.367.894-.289,1.424-.433,1.042-.284,4.158,0,5.076-.681l.186.062M41.628,36.53h-.062a1.126,1.126,0,0,1,.186-.31c.36-.083.795-.3,1.114-.371.224-.047.563.144.743.186h.929c.268.062.649.188.929.248l1.052-.124-.062.371c-1.5.081-3.558.937-4.829,0m-17.642.248c.419.138.964.158,1.362.247.757.171,2.2-.357,2.786,0h.31a1.012,1.012,0,0,1-.619.743c-.175.109-.486.006-.743.062a9.631,9.631,0,0,1-4.147-.31c-.421-.114-1-.017-1.3-.247H21.51c.133-.665,1.1-.5,1.609-.8a3.9,3.9,0,0,1,.867.31m13-.124v.062l.062.062h-.062c-.192,1.345-2,1.044-3.219.8-.5-.1-1.117.216-1.548-.062l-.062-.062h.062c.265-.306.579-.113,1.052-.247.281-.079.59-.291.929-.372.811-.194,1.926.2,2.538-.186Z" transform="translate(0 0)"/>
      </g>
    </g>
    <rect id="Rectangle_156" data-name="Rectangle 156" class="cls-1" width="162" height="67" transform="translate(129 666)"/>
  </g>
</svg>
