<svg id="Group_34" data-name="Group 34" xmlns="http://www.w3.org/2000/svg" xmlns:xlink="http://www.w3.org/1999/xlink" width="282.879" height="219.861" viewBox="0 0 282.879 219.861">
  <defs>
    <style>
      .cls-1 {
        fill: none;
      }

      .cls-2 {
        clip-path: url(#clip-path);
      }

      .cls-3 {
        fill: #414141;
      }

      .cls-4 {
        fill: #fff;
        stroke: #707070;
      }

      .cls-5 {
        stroke: none;
      }
    </style>
    <clipPath id="clip-path">
      <rect id="Rectangle_21" data-name="Rectangle 21" class="cls-1" width="282.879" height="219.861"/>
    </clipPath>
  </defs>
  <g id="Group_33" data-name="Group 33" class="cls-2" transform="translate(0 0)">
    <path id="Path_76" data-name="Path 76" class="cls-3" d="M123.993,64.55a7.716,7.716,0,0,0,.675-.841,53.656,53.656,0,0,1,5.172-6.866c1.089-1.3,2.09-2.68,3.127-4.026a10.141,10.141,0,0,1,.882-1.128c1.427-1.376,2.877-2.73,4.331-4.079.63-.584,1.335-1.093,1.924-1.714a26.866,26.866,0,0,0,2.5-2.9,34.007,34.007,0,0,1,6.058-6.819c1.118-.919,2.114-1.989,3.253-2.881,1.591-1.249,3.248-2.422,4.916-3.57.422-.291.993-.369,1.384-.66.849-.781,1.671-1.6,2.555-2.338q3.565-2.987,7.176-5.925c1.075-.878,2.172-1.729,3.267-2.58,1.134-.882,2.278-1.753,3.419-2.625,2.377-1.813,4.774-3.6,7.128-5.443,1.852-1.45,3.6-3.035,5.5-4.426,1.374-1.007,2.592-2.176,3.849-3.3A12.885,12.885,0,0,0,192.713.263c1.468-.656,2.426,1.105,3.579.761a12.326,12.326,0,0,0,1.848,1.013A14.984,14.984,0,0,1,202.208,4.5a79.067,79.067,0,0,1,7.627,6.083c2.065,1.977,4.436,3.529,6.571,5.4,2.846,2.5,5.974,4.67,8.966,7,1.054.82,2.1,1.657,3.082,2.561,2.09,1.928,4.132,3.907,6.2,5.853a9.42,9.42,0,0,0,1.13.9,58.041,58.041,0,0,1,6.3,5.234c.433.4.929.72,1.392,1.083a16.379,16.379,0,0,1,3.06,3.236,25.817,25.817,0,0,0,3.384,3.191c.812-1.138,1.561-2.188,2.313-3.238.738-1.032,1.481-2.059,2.287-3.181a6.638,6.638,0,0,1,1.431.552,16.66,16.66,0,0,0,7.354,2.846,10.019,10.019,0,0,1,2.3.666c1.47.6,2.928,1.235,4.344,1.946a2.259,2.259,0,0,1,1.027,1.126c1.068,2.916,2.859,5.461,4.149,8.256.824,1.782,1.479,3.64,2.254,5.445,1.052,2.444,2.114,4.885,3.232,7.3.623,1.347,1.374,2.635,2.059,3.954a4.277,4.277,0,0,1,.207.623,1.742,1.742,0,0,1-2.164.878,19.048,19.048,0,0,1-4.688-2.016c-.314-.178-.656-.31-.98-.459-.806,1.528-.507,3.1-.55,4.817l-1.1,1.011c-.841-.228-1.634-.445-2.516-.685a31.823,31.823,0,0,0,.8,7.7l-1.6,1.054A4.217,4.217,0,0,1,268,81.747a6.516,6.516,0,0,0-2.393-2.248c.582,2.4,1.218,4.78,1.725,7.194A4.451,4.451,0,0,0,268.8,89.38l-1,.814c-3.041-.88-4.912-3.449-7.53-4.918-.345.427-.664.839-1,1.235a2.964,2.964,0,0,1-.437.328l-6.819-.726c-1.337-.628-2.557-1.267-3.829-1.784a13.714,13.714,0,0,1-5.342-3.648c-1.165-1.331-2.442-2.57-3.718-3.8-1.817-1.749-1.9-2.965-.673-5.223a35.9,35.9,0,0,0,2.092-4.989c.429-1.181.671-2.432,1.027-3.765-1.425-1.271-2.834-2.559-4.278-3.81-2.59-2.246-5.217-4.452-7.8-6.71a28.193,28.193,0,0,0-4.3-3.318c-2.352-1.372-4.633-2.869-6.948-4.3a4.907,4.907,0,0,0-.993-.5,12.136,12.136,0,0,1-3.638-2.282,35.476,35.476,0,0,1-3.341-3.008,36.077,36.077,0,0,0-5.912-4.678,5,5,0,0,1-1.5-1.358,16.293,16.293,0,0,0-1.678-1.737c-.824-.915-1.616-1.86-2.406-2.807-.751-.9-1.483-1.811-2.3-2.812a35.835,35.835,0,0,0-3.437,2.787c-2.036,2.094-4.573,3.494-6.843,5.264a47.653,47.653,0,0,0-4.227,3.41,22.591,22.591,0,0,1-4.376,3.224,15.116,15.116,0,0,0-3.435,2.572A15.673,15.673,0,0,1,172,44.46c-.687.5-1.407.964-2.055,1.511-1.265,1.07-2.381,2.3-3.566,3.458a52.663,52.663,0,0,1-7.694,6.271c-1.333.878-2.518,1.983-3.771,2.986-2.838,2.272-5.195,5.113-8.308,7.069a6.644,6.644,0,0,0-1.165,1.116,9.725,9.725,0,0,1-3.41,2.627,1.075,1.075,0,0,0-.408.254c-1.481,1.653-3.544,2.565-5.147,4.065-2.317,2.164-4.75,4.208-6.958,6.476a23.66,23.66,0,0,0-3.64,5.806c1.4,4.7,1.93,9.6,3.843,14.421-.178.429-.457,1.1-.792,1.909.939.187,1.971.437,3.019.589,3.556.515,7.077,1.091,9.95,3.54.394.334.943.478,1.368.783,2.18,1.571,5.172,4.007,5.937,7.028a3.941,3.941,0,0,0,1.089,1.55,5.786,5.786,0,0,1,1.788,4.155c-.014,1.973-.072,3.948-.115,6.165l.923,1.288-3.726,2.922c-.041,0-.484.137-.656-.021-1.333-1.228-2.652-.318-3.9.049-1.829.539-3.513,1.61-5.43,1.794-2.291.221-4.446,1.007-6.767,1.208a34.171,34.171,0,0,0-10.99,2.508,3.728,3.728,0,0,1-1.071.287q-3.039.338-6.083.63a4.7,4.7,0,0,1-1.448,0c-3.511-.777-6.884.033-10.26.826-2.112.494-4.216,1.025-6.333,1.5a9.858,9.858,0,0,1-1.563.072c-1.339.074-2.678.139-4.015.24-.954.074-1.905.285-2.855.277-2.414-.016-4.825-.209-7.235-.164-2.233.041-4.462.3-6.694.459-.322.023-.644.039-.966.043a5.656,5.656,0,0,0-1.606.029c-1.5.5-2.955-.162-4.428-.031a1.239,1.239,0,0,1-.636-.055c-1.747-.884-3.728-.822-5.555-1.386a3.838,3.838,0,0,0-1.9-.076,10.552,10.552,0,0,1-3.8.027,42.486,42.486,0,0,0-5.1-.049c-.322.437-.7.945-1.124,1.516a25.707,25.707,0,0,0-3.892-.552c-1.4,0-2.412-1.134-3.794-1.032L39.2,139.3a7.761,7.761,0,0,0-4.938-.47,3.977,3.977,0,0,1-1.878-.195,9.874,9.874,0,0,0-3.347-.287,5.851,5.851,0,0,1-2.344-.248,7.892,7.892,0,0,0-2.676-.287,12.2,12.2,0,0,1-3.347-.345,33.081,33.081,0,0,0-5.147-1.056,37.035,37.035,0,0,1-4.149-1.116c-2.18-.49-3.73-1.987-5.642-2.873A11.91,11.91,0,0,1,1.953,129.8a6.338,6.338,0,0,1-1.583-6.741,11.766,11.766,0,0,0,.293-1.632c.654-1.109,1.323-2.139,1.883-3.222,1.2-2.311,3.316-3.769,5.088-5.545a3.091,3.091,0,0,1,1.13-.56c2.338-.867,4.735-1.534,7.046-2.522a19.469,19.469,0,0,1,5.223-1.788A7.966,7.966,0,0,0,23.3,106.6c1.3-.1,2.974.287,4.069-1.321a9.681,9.681,0,0,0-.488-2.145c-1.019-2.141-.775-4.4-.767-6.64a6.013,6.013,0,0,1,.306-1.392,22.844,22.844,0,0,0,.306-6.085c-.018-1.116-.246-2.227-.291-3.345-.053-1.276-.01-2.555-.01-3.833q0-1.289,0-2.58a34.529,34.529,0,0,0-.917-8.4,1.039,1.039,0,0,1-.043-.316c.082-1.688.213-3.378.246-5.067.053-2.728.125-5.459.033-8.185-.066-1.905-.375-3.806-.611-5.705-.2-1.634-.365-3.283-.724-4.887a10.672,10.672,0,0,0-1.189-2.346c.822-2.065,2.836-1.085,4.222-1.5.439-.939-.082-10.908-.392-12.108a4.7,4.7,0,0,1,.919-.677,15.059,15.059,0,0,1,2.522-.937c1.284-.306,2.6-.47,3.9-.705a12.038,12.038,0,0,0,1.23-.289A32.851,32.851,0,0,1,41.5,26.766c2.2-.224,4.368-.826,6.552-1.245,1.766-.336,3.55-.593,5.305-.976,2.172-.476,4.45-.166,6.579-1.114a10.239,10.239,0,0,1,3.31-.476,57.372,57.372,0,0,1,10.106-.242,3.494,3.494,0,0,0,.712-.086,12.43,12.43,0,0,0,.092-3.646A28.587,28.587,0,0,1,74,13.223a21.244,21.244,0,0,0-.246-6.692,21.027,21.027,0,0,1-.443-5.6,2.222,2.222,0,0,1,3-.584,6.138,6.138,0,0,0,3.62.2C80.2.513,80.48.3,80.7.361c1.628.47,3.285.129,4.924.213,1.384.07,2.771.072,4.157.086S92.586.55,93.97.689c3.16.316,6.359.287,9.436,1.347a19.2,19.2,0,0,0,6.638.908,7.49,7.49,0,0,1,3.376.24c.724,1.364.6,2.9.839,4.348a14.8,14.8,0,0,1,.074,2.416,26.99,26.99,0,0,0,1.091,7.727,39.154,39.154,0,0,1,.8,4.538c.082.466.187.929.308,1.386a5.308,5.308,0,0,1,.226,2.2,5.706,5.706,0,0,0,.664,3.078c.654,1.454,1.214,2.951,1.807,4.432a2.752,2.752,0,0,1,.213.763c.123,1.651.172,3.31.357,4.953a12.924,12.924,0,0,0,.644,2.215l1.772-.221c.26.527.494,1,.617,1.245-.066.658-.119,1.077-.148,1.5-.1,1.6.238,3.216-.3,4.793-.092.267.068.621.121.935s.135.621.168.935q.32,3.024.617,6.048c.045.48.01.968.035,1.452q.172,3.279.355,6.556l.314.074m4.3,37.543c-.314-.765-.619-1.372-.81-2.014-.209-.708-.3-1.448-.463-2.172-.486-2.168-.931-4.346-1.483-6.495s-.792-4.356-1.528-6.466a31.856,31.856,0,0,1-1.294-6.53c-.281-2.215-.254-4.469-.363-6.7-.053-1.054-.072-2.11-.166-3.16-.131-1.483-.379-2.955-.466-4.44-.109-1.87-.008-3.736-.293-5.615a57.558,57.558,0,0,1-.361-6.076,2.615,2.615,0,0,0-.861-2.131,3.145,3.145,0,0,1-.744-1.513c-.351-1.21-.621-2.444-.87-3.443-1.12-.4-2.034-.722-2.935-1.04l-1.208,1.064a6.405,6.405,0,0,0-6.1-1.153c-.39.1-.886-.174-1.325-.3-.248-.07-.48-.275-.72-.277-1.614-.018-3.23-.078-4.838.027-1.905.123-3.8.449-5.7.595-3.456.265-6.917.451-10.373.7a6.833,6.833,0,0,0-1.885.386,2.794,2.794,0,0,1-1.536.057,44.906,44.906,0,0,0-5.551-.646c-2.073-.074-4.155.117-6.234.15-1.989.031-3.98-.01-5.972.016a12.879,12.879,0,0,0-1.741.207c-2.621.392-5.223.837-7.881.152a12.59,12.59,0,0,0-3.015-.2,28.666,28.666,0,0,0-5.734.146,2.175,2.175,0,0,1-.476-.055c-1.114-.055-2.229-.115-3.343-.156-.685-.025-1.372-.025-2.059-.033a21.114,21.114,0,0,0-4.009,0A13.9,13.9,0,0,1,31.022,45a5.684,5.684,0,0,0-.954-.008q-.385.5-.654.853c-1.089.474-2.067-.988-3.205.051a3.824,3.824,0,0,0-.068.978c.416,2.578.8,5.147,1.011,7.764.185,2.309.221,4.6.242,6.909a30.91,30.91,0,0,0,.1,4.024,7.4,7.4,0,0,1,.016,2.541,4.962,4.962,0,0,0-.107,1.278c.074,1.114.232,2.221.3,3.332.127,1.979.238,3.958.312,5.939.131,3.54.318,7.083.312,10.623,0,2.19-.322,4.38-.5,6.569a9.416,9.416,0,0,0,.131,3.661c.422,1.37.708,2.783,1.05,4.177.156.642.308,1.286.461,1.93,2.19-.457,4.2-.941,6.232-1.28,1.36-.224,2.752-.234,4.13-.353a4.077,4.077,0,0,0,1.1-.193c1.39-.531,2.863-.771,4.272-1.191,3.55-1.06,7.139-.209,10.691-.5,1.973.736,3.923-.027,5.88-.117a20.918,20.918,0,0,0,2.926-.554c1.436.8,2.908-.1,4.409-.109.87.18,1.751.308,2.635.4.427.045.861.008,1.288.047a16.005,16.005,0,0,0,4.436-.246,30.163,30.163,0,0,1,3.739-.734,115.437,115.437,0,0,1,12.058.308,1.865,1.865,0,0,1,.322.037,11.942,11.942,0,0,0,5.258,0,26.082,26.082,0,0,1,3.486-.412c1.917-.129,3.841-.189,5.761-.291.32-.016.634-.107.954-.142a41.211,41.211,0,0,1,4.155-.4,30.417,30.417,0,0,1,3.659.4,30.114,30.114,0,0,0,3.974.435,15.669,15.669,0,0,1,4.725.654c.906.265,1.827.476,2.742.712m-2.883-19.5c.39-.6.65-.931.841-1.3a13.278,13.278,0,0,1,3.447-3.935c2.082-1.753,4.087-3.595,6.119-5.408.675-.6,1.284-1.29,2-1.831,2.418-1.825,5.217-3.146,7.258-5.473a2.7,2.7,0,0,1,.363-.32c1.31-1.007,2.664-1.961,3.923-3.027,1.963-1.663,3.847-3.419,5.8-5.1.724-.623,1.526-1.159,2.309-1.714,3.445-2.444,6.954-4.813,9.565-8.23a5.2,5.2,0,0,1,.95-.872c1.8-1.417,3.609-2.838,5.437-4.229,2.424-1.844,4.871-3.656,7.3-5.492,1.963-1.481,3.978-2.9,5.847-4.489a21.3,21.3,0,0,1,3.318-2.479,3.034,3.034,0,0,0,.533-.359c2.008-1.766,4.011-3.54,6.064-5.355h1.081c.728,1.233,1.3,2.311,1.983,3.308.353.509.972.824,1.38,1.3a27.791,27.791,0,0,0,6.132,5.841,21.771,21.771,0,0,1,4.481,3.866,27.768,27.768,0,0,0,6.035,4.711c1.651,1.052,3.376,1.983,5.057,2.988q1.227.732,2.414,1.536a46.222,46.222,0,0,1,3.8,2.672c1.183.988,2.174,2.2,3.314,3.248,1.544,1.409,3.136,2.766,4.735,4.11a31.978,31.978,0,0,1,2.883,2.291,15.965,15.965,0,0,0,3.724,3.021c.283.162.572.31.755.406-.392,1.245-.6,2.184-.98,3.052-.806,1.856-1.714,3.665-2.545,5.508a16.245,16.245,0,0,0-1,2.668A1.848,1.848,0,0,0,239.955,75a16.5,16.5,0,0,0,3.829,3.376,25.435,25.435,0,0,1,4.583,3.187c1.019.841,1.926,1.95,3.255,2.27,2.057.5,4.159.808,6.169,1.183.213-.3.4-.447.381-.558-.332-1.922-.691-3.841-1.077-5.949l1.165-.744a1.6,1.6,0,0,1,1,1.575,3.549,3.549,0,0,0,.919,2.516c1.487,1.612,3.1,3.107,4.665,4.641a4.043,4.043,0,0,0,.7.373c-.619-2.2-1.23-4.12-1.692-6.072-.451-1.9-.646-3.862-1.639-5.576.365-.615.73-1.142,1.634-.831.757.97,1.493,2.079,2.4,3.029s1.963,1.725,3.257,2.84c-.677-3.566-1.663-6.724-1.643-10.153.49-.6,1.218-.445,1.963-.269.707,1.177,1.105,2.586,2.643,3.179,1.1-2.19-.441-4.405.242-6.591.345-.162.722-.34,1.144-.541a26.657,26.657,0,0,0,2.924,2.5c1.017.656,2.02,1.593,3.579,1.306-.318-.617-.55-1.153-.853-1.643a63.686,63.686,0,0,1-3.88-7.7c-1.044-2.33-2.02-4.692-3.07-7.02-.833-1.842-1.714-3.663-2.615-5.473a2.384,2.384,0,0,0-.894-1.089c-1.571-.759-2.906-2.02-4.735-2.246a12.585,12.585,0,0,1-2.483-.468c-1.454-.494-2.846-1.167-4.3-1.655a16.3,16.3,0,0,0-2.406-.468,10.915,10.915,0,0,0-3.761,5.367c-.338.187-.619.338-1.046.572-1.259-1.116-2.6-2.192-3.8-3.4a51.948,51.948,0,0,0-5.147-5.086,8.137,8.137,0,0,1-1.952-1.655c-1.083-1.6-2.7-2.574-4.091-3.806-2.12-1.883-4.354-3.636-6.536-5.449-1.561-1.3-3.1-2.629-4.684-3.894-1.5-1.2-3.072-2.3-4.571-3.492-1.425-1.134-2.764-2.373-4.192-3.5-3.1-2.461-6.247-4.873-9.36-7.321-1.507-1.185-2.967-2.43-4.481-3.609a14.372,14.372,0,0,0-4.483-2.736c-1.157-.359-2.293-.79-3.572-1.237-.775.675-1.68,1.429-2.547,2.223-1.384,1.261-2.668,2.648-4.132,3.808-3.049,2.418-6.167,4.752-9.3,7.059a23.912,23.912,0,0,0-3.47,2.828,10.054,10.054,0,0,1-1.4,1.062c-1.2.9-2.418,1.766-3.576,2.707-2.2,1.782-4.428,3.513-6.544,5.41a61.694,61.694,0,0,1-9.536,7.032,6.915,6.915,0,0,0-2.057,1.714,9.229,9.229,0,0,1-2.816,2.578,4.131,4.131,0,0,0-1.032,1.013c-1.163,1.384-1.985,3.015-3.287,4.315-1.282,1.282-2.315,2.814-3.585,4.112-1.6,1.641-3.347,3.15-5.01,4.735A4.564,4.564,0,0,0,134,54.616a12.318,12.318,0,0,1-2.619,3.4,23.653,23.653,0,0,0-1.725,2.287,42.68,42.68,0,0,1-3.6,4.858,7.54,7.54,0,0,0-2.069,6.437q.36,3.91.613,7.83a8.167,8.167,0,0,0,.81,3.164M111.684,5.209a13.861,13.861,0,0,0-2.016-.279c-2.974.035-5.806-.777-8.675-1.372a16.759,16.759,0,0,0-1.981-.6c-2.348-.168-4.7-.246-7.055-.336-1.232-.049-2.465-.053-3.7-.076-.367-.008-.736,0-1.1-.014-1.71-.057-3.421-.121-5.129-.18-.537-.018-1.077-.064-1.61-.029-1.009.066-2.014.2-3.023.267-.683.043-1.37.008-2.188.008a12.956,12.956,0,0,0,.01,1.591c.279,2.057.63,4.106.872,6.169a18.159,18.159,0,0,1-.111,2.227c-.018,1.71-.027,3.423,0,5.133.033,1.821.191,3.642.148,5.461-.025,1.089-.9,1.647-2.008,1.583-1.124-.066-2.252-.121-3.376-.1-.855.012-1.706.193-2.561.211-1.766.035-3.533-.008-5.3.021a5,5,0,0,0-1.561.246A43.775,43.775,0,0,1,53.543,26.8c-2.256.371-4.528.64-6.784,1-.943.15-1.864.437-2.8.63-2.131.437-4.27.835-6.4,1.29a11.685,11.685,0,0,1-1.958.6,23.791,23.791,0,0,0-4.979,1,3.236,3.236,0,0,0-2,1.226c.357,3.369.726,6.85,1.1,10.336.379.039.589.072.8.082,3.64.183,7.3-.32,10.933.3a5.265,5.265,0,0,0,1.282-.1,14.48,14.48,0,0,1,1.755-.133c1.331.049,2.658.195,3.989.242,3.593.129,7.188.256,10.783.318a19.668,19.668,0,0,0,3.008-.31c2.6-.361,5.211.117,7.844-.236a62.29,62.29,0,0,1,8.213-.082H81a7.233,7.233,0,0,0-1.667-5.506,4.349,4.349,0,0,1,3.2-2.231c1.38-.324,2.777-.587,4.253-.892-.219-3.821-.433-7.543-.64-11.191-.445-.422-1-.714-1.157-1.148a3.763,3.763,0,0,0-2.022-1.94c-.584-.338-1.335-.71-1.579-1.259-1.009-2.282-2.034-4.616-.8-7.233a6.107,6.107,0,0,0,1.438-.886A5.464,5.464,0,0,1,85.3,9.22a5.31,5.31,0,0,1,5.594,1.833c.193.679.422,1.333.564,2.008a10.69,10.69,0,0,1-.027,5.074c-.5,1.817-1.343,3.462-3.23,4.179v1.938c.664-.057,1.237-.092,1.807-.158a33.585,33.585,0,0,1,4.122-.466,27.952,27.952,0,0,1,4.43.527,3.139,3.139,0,0,0,3.222-.884,13.25,13.25,0,0,1,1.251-1.155c1.45-.466,2.348.334,3.535.931.084.615.213,1.337.277,2.063.133,1.534.312,3.013,2.241,3.345.361.062.705.213,1.062.3,1.126.271,2.256.531,3.552.835-.642,4.282.855,8.228,1.433,12.43L118.1,41.5c-.172-2.092-.334-4.077-.5-6.062a29.179,29.179,0,0,0-.742-3.222,1.61,1.61,0,0,0-.226-.584,8.132,8.132,0,0,1-1.561-4.452c-.131-1.557-.558-3.027-.794-4.547a12.164,12.164,0,0,0-.453-2.98,13.923,13.923,0,0,1-.794-3.876c-.275-1.954-.273-3.95-.361-5.931a12.409,12.409,0,0,0-.984-4.637m-77.8,101.84c.634.8,1.036,1.282,1.415,1.784a53.907,53.907,0,0,1,3.706,5,29.482,29.482,0,0,1,3.142,7.643,3.109,3.109,0,0,1-.047,1.887,37.173,37.173,0,0,1-2.305,4.36c-.58.941-1.466,1.692-2.059,2.625-1.165,1.833-2.957,2.881-4.676,4.046-.738.5-1.419,1.081-2.19,1.673.267.141.355.2.449.238,1.062.427,2.129.039,3.175-.047,3.1-.262,6.187.65,9.288.088a1.917,1.917,0,0,1,.48.033c.958.076,1.915.164,2.875.226.751.047,1.505.035,2.254.1,1.866.154,3.73.34,5.594.5.154.012.316-.072.474-.076.632-.023,1.263-.035,1.895-.045q1.44-.025,2.881-.041a9.107,9.107,0,0,1,1.753,0q2.9.535,5.775,1.2a4.107,4.107,0,0,0,2.818.047,1.647,1.647,0,0,1,.937.086,6.992,6.992,0,0,0,2.994-.037A49.183,49.183,0,0,1,86.091,138a24.7,24.7,0,0,0,4.94.029,22.608,22.608,0,0,1,5.1-.472,4.36,4.36,0,0,0,1.31-.322,16.8,16.8,0,0,1-6.991-2.721,21.026,21.026,0,0,1-4.29-3.6,11.181,11.181,0,0,1-1.727-2.463c-1.1-2.3-2.084-4.647-3.093-6.987-.607-1.4-1.175-2.828-1.76-4.243a5.3,5.3,0,0,0,.441-2.129,5.689,5.689,0,0,1,.49-2.49,12.577,12.577,0,0,0,1.1-2.635c.439-2.289,2.377-3.46,3.605-5.154.08-.111.281-.133.425-.2,1.017-.445,2.034-.886,3.045-1.339.34-.154.666-.34,1.194-.613a5.165,5.165,0,0,0-.867-.242c-1.878-.072-3.759-.211-5.635-.162a39.4,39.4,0,0,0-4.62.492,14.841,14.841,0,0,1-2.143.562c-2.943-.053-5.9.361-8.826-.275a1.99,1.99,0,0,0-.964,0,20.3,20.3,0,0,1-4.149.336,5.885,5.885,0,0,0-2.984.79,18.135,18.135,0,0,1,5.619,2.594,9.739,9.739,0,0,1,1.534,1.382,17.232,17.232,0,0,1,1.612,2.2,19.154,19.154,0,0,1,1.489,2.8,15.856,15.856,0,0,1,.833,2.916c.33,1.657,1.107,3.234.872,5-.207,1.536-.359,3.08-.523,4.622a5.249,5.249,0,0,1-2.172,3.782c-2.709,2-5.482,3.907-8.226,5.853a3.582,3.582,0,0,1-4.075.059c-1.895-1.04-3.765-2.129-5.633-3.218a1.4,1.4,0,0,1-.525-.578c-.851-1.778-1.745-3.54-2.488-5.365a9.434,9.434,0,0,1-.867-3.363c-.018-3.373.164-6.751.3-10.125a3.861,3.861,0,0,1,.334-.888c.535-1.684,1.768-2.873,2.865-4.179a7.585,7.585,0,0,1,3.17-2.356c.642-.242,1.274-.511,2.084-.837a12.926,12.926,0,0,0-4.132-.644c-.751.068-1.5.146-2.25.172a16.2,16.2,0,0,0-6.411,1.2,4.791,4.791,0,0,1-1.232.349c-1.575.254-3.16.449-4.729.73-.98.174-1.942.459-3.255.781m113.341,9.122a7.629,7.629,0,0,0-2.8-5.471,36.813,36.813,0,0,0-6.936-4.532,2.634,2.634,0,0,0-2.223-.4c.033.232,0,.422.082.541,1.226,1.868,1.733,4.054,2.682,6.044a1.7,1.7,0,0,1,.139.617,22.5,22.5,0,0,1,.039,5.434,18.826,18.826,0,0,1-5.387,10.8c-2.164,2.055-4.3,2.256-6.876.933a23.3,23.3,0,0,1-7.59-6.042c-1.948-2.383-3.652-4.836-4.249-7.92a13.062,13.062,0,0,1-.033-5.775,14.007,14.007,0,0,1,4.026-5.283c1.034-.7,2.317-1.571,3.624-2.455-.252-.587-.767-.515-1.226-.537a82.185,82.185,0,0,1-8.777-.708,1.683,1.683,0,0,0-.64.033,43.731,43.731,0,0,1-9.708.929c-.976.012-1.952.09-2.931.139a10.9,10.9,0,0,0,2.52,2.291,9.292,9.292,0,0,1,4.128,5.1,2.238,2.238,0,0,1,1.472,1.883c.279,1.446.373,2.967,1.349,4.22a2.067,2.067,0,0,1,.215,1.233c-.088,2.994-.084,6-.365,8.976a13.734,13.734,0,0,1-1.3,4.544,9.992,9.992,0,0,1-3.78,4.643c-.252.148-.41.459-.765.874a10.807,10.807,0,0,0,1.118-.168,22.737,22.737,0,0,1,3.972-1.064,33.99,33.99,0,0,1,6.6.033,15.415,15.415,0,0,0,4.274-.244,17.337,17.337,0,0,0,6.1-1.694.953.953,0,0,1,.31-.076c1.721-.334,3.443-.648,5.158-1.007a9.42,9.42,0,0,1,2.155-.566,26.986,26.986,0,0,0,6.179-.751,14.969,14.969,0,0,0,4.737-1.378A11.792,11.792,0,0,1,147.2,127.8a13.557,13.557,0,0,0,2.229-.568,4.261,4.261,0,0,1,.094-1.116c.956-2.336.628-4.723.23-7.085a3.926,3.926,0,0,0-1.081-1.7,10.6,10.6,0,0,0-1.448-1.161m-40.492,4.261a24,24,0,0,0-1.12-6.452,16.82,16.82,0,0,0-7.071-8.636,9.1,9.1,0,0,0-4.834-1.388,11.292,11.292,0,0,0-5.059,1.257,7.4,7.4,0,0,0-2.192,1.261,34.939,34.939,0,0,0-3.031,3.687,9.217,9.217,0,0,0-1.073,9.257c.857,2.231,1.87,4.407,2.861,6.587a15.575,15.575,0,0,0,6.267,6.9,17.253,17.253,0,0,0,8.051,2.289.956.956,0,0,0,.611-.117c.976-.81,2.387-1.017,3.111-2.145,1.194-1.858,2.6-3.579,2.682-6,.078-2.172.517-4.333.8-6.5M27.37,108.1c-2.227.724-4.5,1.454-6.759,2.2a2.416,2.416,0,0,0-1.325,1.278,10.468,10.468,0,0,0-.753,3.392,8.534,8.534,0,0,0-.014,3c.146,1.019-.228,2.106-.121,3.138.156,1.472.537,2.922.829,4.38a14.28,14.28,0,0,0,.543,2.488,36.516,36.516,0,0,0,2.166,4.772A5.726,5.726,0,0,0,28.02,135.9c1.6-1.3,3.218-2.81,5.037-4.013a13.726,13.726,0,0,0,3.726-3.589,24.8,24.8,0,0,0,2.693-5.234,3.443,3.443,0,0,0-.1-2.793c-.746-1.643-1.433-3.31-2.157-4.963a3.5,3.5,0,0,0-.468-.822c-1.442-1.78-2.879-3.566-4.366-5.311a7.914,7.914,0,0,0-1.364-1.034c-.746.521-1.384.964-2.038,1.421l-1.61-1.46m31.473,25.749c1.716-1.1,3.415-2.161,5.09-3.261a8.655,8.655,0,0,0,1.5-1.2c1.112-1.161,2.184-2.36,3.248-3.566a4.63,4.63,0,0,0,1.1-2.237,10.286,10.286,0,0,0-.045-3.624,28.869,28.869,0,0,0-3.265-9.278c-1.1-2.145-3.326-2.9-5.385-3.769a5.074,5.074,0,0,0-4.45-.141,3.607,3.607,0,0,1-.939.131,3.479,3.479,0,0,0-2.1,1.083c-1.351,1.559-2.693,3.127-3.831,4.45-.164,1.524-.357,2.684-.4,3.851-.059,1.77-.018,3.544-.014,5.316a15,15,0,0,0,2.3,7.863,3.927,3.927,0,0,0,.8.991,20.388,20.388,0,0,0,6.382,3.388m56.469-20.989c.092.7.166,1.325.262,1.952a6.149,6.149,0,0,0,.273,1.4,32.624,32.624,0,0,0,1.926,4.348,19.3,19.3,0,0,0,9.425,8.086,4.188,4.188,0,0,0,4.019-.207,10.562,10.562,0,0,0,3.154-3.386,26.26,26.26,0,0,0,2.483-6.874,5.84,5.84,0,0,0,.191-2.188,28.69,28.69,0,0,0-2.032-7,6.537,6.537,0,0,0-4.423-4.03c-1.017-.289-2.014-.642-3.031-.925a9.156,9.156,0,0,0-4.138.008,1.985,1.985,0,0,0-1.007.689c-.507.589-.933,1.245-1.218,1.634-3.878.8-5.311,3.326-5.884,6.493m-94.743,22.2C19.64,133.4,18.9,132.109,18.2,130.8a11.811,11.811,0,0,1-1.105-2.289c-.365-1.269-.552-2.592-.812-3.892a21.557,21.557,0,0,1-.511-2.65,24.074,24.074,0,0,0-.08-3.535c-.293-1.263.207-2.422.076-3.634a4.292,4.292,0,0,1,.476-2.486,2.755,2.755,0,0,0,.084-.941,29.347,29.347,0,0,1-3.808,1.544,8.934,8.934,0,0,0-3.138,1.522c-1.5,1.114-2.994,2.235-4.4,3.458a6.022,6.022,0,0,0-1.07,1.751c-.15.273-.152.644-.338.878a2.777,2.777,0,0,0-.3,2.623,7.95,7.95,0,0,1,.162,2.529c-.01.3,0,.6-.018.9-.088,1.4.732,2.408,1.491,3.441.4.152.8.285,1.187.459,2.028.906,4.046,1.833,6.08,2.728a10.919,10.919,0,0,0,1.511.488c1.436.4,2.863.833,4.315,1.161a19.57,19.57,0,0,0,2.568.2m92.413-92.786a16.659,16.659,0,0,0-.021-2.6c-.453-2.664-.993-5.316-1.509-8.023-1.8-.705-3.675-1.452-5.562-2.159a1.872,1.872,0,0,0-.947-.016c-2.073.377-3.238-.158-4.175-1.952-.17-.324-.32-.656-.488-1a8.364,8.364,0,0,1-3.974-.611,1.188,1.188,0,0,0-.474-.053,25.925,25.925,0,0,0-6.374.373,5.811,5.811,0,0,0-1.21.519c.111,1.153.2,2.139.31,3.248l2.619.328c2.33.609,4.581.74,6.765-.6,1.653-1.015,2.307-.87,3.318.609.326.476.669.941.982,1.382,2.186-.115,4.257-.139,5.972,1.534a20.143,20.143,0,0,0,.437,8.611c.759.15,1.429.334,2.112.4s1.372.014,2.219.014M94.126,32.865c1.347,3.113,1.9,6.337,3.031,9.3l9.308-.244c-.123-2.385-.24-4.616-.357-6.891-.941-1.349-1.815-1.185-4.327-1.021a3.586,3.586,0,0,1-4.005,1.044c-.683-.705-1.495-1.55-2.387-2.475-.422.1-.861.195-1.263.285m-11.87,4.766c-.023,2.04.89,3.739,1.265,5.586.593.029,1.017.084,1.438.064,2.026-.1,4.052-.189,6.074-.34,1.159-.088,2.307-.293,3.556-.457A16.464,16.464,0,0,0,93.6,36.9a2.029,2.029,0,0,0-1.661-1.335,5.393,5.393,0,0,0-3.437.455,6.262,6.262,0,0,1-3.205.8,6.3,6.3,0,0,0-3.045.814M81.979,13.67a4.678,4.678,0,0,0,.012,1.025c.271,1.3.5,2.715,1.63,3.525,1.44,1.027,3.222,1.171,4.844,1.536,1.2-1.63,1.2-1.63,1.3-3.97.117-2.666-.457-3.611-2.769-4.684-2.065.131-3.944.476-5.018,2.568M92.887,33.15c0-.137.01-.275.016-.412-.494-.035-.988-.066-1.481-.1-.474-.035-.945-.066-1.417-.121-.494-.057-.988-.142-1.778-.258.306.656.47,1.007.615,1.317l4.044-.42M2.217,126.587a2.94,2.94,0,0,0-.228-2.9,4.888,4.888,0,0,0,.228,2.9M155.427,169.9c1.891-.472,3.736-.935,5.635-1.411.039-.632.074-1.208.117-1.942l1.427-.306c.082.595.144,1.054.219,1.6a9.885,9.885,0,0,0,3.777-.476c.58-.154,1.011-.876,1.6-1.421,1.481.254,2.947,1.278,4.907.386l1.372-1.232a3,3,0,0,1,2.871.486c2.535-.314,5-.621,7.582-.939.025.449.045.8.066,1.171l-.911.476c-2.045-.367-3.882.178-5.947.394a5.75,5.75,0,0,1,1.023,3.585,6.363,6.363,0,0,0,1.036,3.9c-.234.839-.7,1.1-1.559.769-.242-1.7-.431-3.439-.755-5.156a3.306,3.306,0,0,0-1.858-2.814,2.743,2.743,0,0,0-2.715,2.065,14.278,14.278,0,0,0-1.249,5.41,9.471,9.471,0,0,1-.449,2.184c-.053.248-.1.5-.17.88,2.635.148,5.176.291,7.885.445.418.3.336.818,0,1.284a1.173,1.173,0,0,1-1.429.314,22.806,22.806,0,0,0-7.128-.956c-2.2.023-4.4.1-6.593.228a49.887,49.887,0,0,1-5.43-.457c-2.159-.109-4.346-.617-6.474.406a9.078,9.078,0,0,1-5.072.383,3.02,3.02,0,0,1-2.512-2.01c-.125-.347-.287-.681-.474-1.116l-2.344-.773c.513-.888,1.284-.418,2.012-.451V173.42c-1.952.33-3.216,1.107-3.5,3.17-.308,2.252-2.03,3.246-3.981,3.919-.347.121-.71.193-.831.226-1.157-.593-2.139-1.105-3.129-1.6-.738-.369-1.392-.781-1.46-1.733a2.085,2.085,0,0,0-.336-.693c-3.739.96-7.413,1.9-11.088,2.844,1.622.57,3.086,1.661,4.944,1.032a6.556,6.556,0,0,1,1.963-.031,3.051,3.051,0,0,1,.379.685,1.467,1.467,0,0,1-.076.566c-.66.185-1.239.371-1.829.5a2.735,2.735,0,0,1-1.255.125c-1.78-.523-3.7-.558-5.355-1.548-.9-.535-.935-.472-2.775-.055a7.99,7.99,0,0,1-1.286-4.971,7.314,7.314,0,0,1,2.621-4.635,9.02,9.02,0,0,0-2.268-.628,11.355,11.355,0,0,1-3.076-.765c-.617-.148-1.282-.4-1.089-1.483,1.975-.675,3.56.3,5.137,1.45h4.442c-.021.078-.039.156-.057.234,1.191.371,2.371.8,3.581,1.1,1.7.429,3.421.783,5.141,1.134.822.166,1.661.254,2.66.4l1.054-1.333c2.463-1.034,4.514-.263,6.491,1.454l4.741-.445a6.445,6.445,0,0,0,.662-.993,5.877,5.877,0,0,1,7.405-3.193,31.966,31.966,0,0,1,3.164,1.47c.189.088.373.185.55.271m-24.271,3.765c-.808-.168-1.46-.342-2.125-.433-1.317-.18-2.662-.2-3.95-.492-1.581-.357-3.281-.394-4.606-1.442-3.529.913-4.706,2.494-4.518,6.263l1.678,1.325,12.922-3.628c.2-.543.363-.968.6-1.593m25.288-2.855c-.193,1.179-.291,2.133-.517,3.052-.236.966-.595,1.9-.954,3.017,1.353.059,2.623.035,3.87.191a14.132,14.132,0,0,0,4,.461,77.651,77.651,0,0,0-1.421-8.127l-4.975,1.407m13.933,6.733c-.082-1.185-.166-2.172-.215-3.16-.029-.589-.029-1.179,0-1.766.072-1.423-.572-2.678-.913-4-.045-.172-.262-.3-.383-.435-1.12.529-1.153.513-1.485,1.181-1.28,2.582-2.529,5.174-2.547,8.182Zm-16.463-6.083-8.187,1.8v1.729c2.4.6,4.754,1.189,6.958,1.741,1.38-1.011,1.612-2.358,1.944-3.632a1.387,1.387,0,0,0-.716-1.634m-18.371,7.5a3.6,3.6,0,0,0,3.265-2.137c.256-.8.291-1.587-.648-2.1a17.1,17.1,0,0,0-5.787,1.368c.437,1.716.531,1.786,2.42,1.874.111.127.258.279.386.447s.23.338.365.543m16.931-8.433c-2.373-1.963-5.635-1.337-6.491,1.261l6.491-1.261m11.4,3.121c.689-1.8,1.876-3.214,2.133-5.127-1.013.207-1.815.373-2.752.566.293,1.507-.2,3.021.619,4.561m-15.885,3.624c.818.57,1.636,1.091,2.814.057-1.5.045-2.57-1.05-4.013-.49.092.267.16.455.236.669.3-.072.552-.133.964-.236m23.992-9.522c-1.351.574-1.472.962-.689,2.065.431-.591.976-1.1.689-2.065m-36.526,4.827h-1.31c.4.7.859.4,1.31,0m-2.287,1.3c.006.039.01.078.016.115l.367-.064c-.025-.031-.047-.088-.07-.086-.1,0-.209.023-.314.035M204.1,217.837c.025-.662-.277-1.36.634-1.786.57,1.071,1.179,2.17,2.748,2.2a4.176,4.176,0,0,0,3.472-4.222c.107-2.2.2-4.4.183-6.593-.018-2.141-.2-4.28-.275-6.421-.037-1-.006-2.006-.006-3.267-1.208.976-2.188,1.774-3.175,2.563-.291.232-.6.437-.9.658a1.355,1.355,0,0,1-1.778-.051c-1.294-1.019-2.157-2.237-1.706-4.009a1.585,1.585,0,0,0,.072-.476c-.18-2.982,1.846-4.352,4.071-5.568a2.54,2.54,0,0,1,2.865.275,5.207,5.207,0,0,1,2.133,4.12c.146,2.246.021,4.51.021,6.765a16.281,16.281,0,0,0,.072,3.021,38.138,38.138,0,0,1,.2,8.66,6.47,6.47,0,0,1-2.34,4.924,5.3,5.3,0,0,1-3.074,1.23c-1.456.084-2.358-.847-3.209-2.02m2.471-18.5a8.26,8.26,0,0,0,1.518-1.085,13.115,13.115,0,0,0,2.246-2.867,2.11,2.11,0,0,0-2.143-3.191,3.793,3.793,0,0,0-3.154,2.594,24.235,24.235,0,0,0-.414,3.117c1.007,1.134,1.007,1.134,1.948,1.431m-38.007-2.053-2.4-.714a4.39,4.39,0,0,0-2.157,3.1,21.908,21.908,0,0,0-.195,6.325,1.938,1.938,0,0,1-1.415.984,13.344,13.344,0,0,1-.525-5.365c.187-.884.394-1.766.517-2.658.26-1.889-.363-2.752-2.457-3.525a2.843,2.843,0,0,0-2.426,2.235,19.646,19.646,0,0,0-1.224,7.565c-.406.256-.79.5-1.374.87a5.779,5.779,0,0,1-.34-1.462c.041-.792.332-1.581.316-2.367a18.927,18.927,0,0,0-.406-2.818c-.185-1.034-.72-2.024-.318-3.273h1.31c.094.808.176,1.522.258,2.235.074.016.15.033.224.047.195-.455.369-.919.587-1.362a7.922,7.922,0,0,1,.968-1.8c1.975-2.252,4.294-2,5.853.572.082.133.17.262.32.494,1.081-.621,1.958-1.77,3.361-1.54,1.345.219,2.7.613,3.173,2.073a37.994,37.994,0,0,1,.814,4.175c1.269,1.306-.236,3.216.137,5.108-.269.3-.545.6-.81.9-.312-.162-.537-.207-.566-.308a6.539,6.539,0,0,1-.269-1.368c-.1-1.975-.139-3.952-.256-5.925a13.472,13.472,0,0,0-.371-1.866l-.051.041.377-.057c.023.062.045.125.051.137l-.094-.1-.332-.351.045.049c-.129-.269-.258-.535-.39-.8-.09.047-.18.094-.271.139.1.224.2.445.3.666l.035-.053m1.3,1.924c.113.115.228.228.34.342l.068,1.021.226-.064-.338-.913c-.113-.115-.226-.23-.336-.347-.045-.141-.088-.283-.035-.111l.076.07m109.463-1.255c-.209-2.338-.328-4.692-.681-7.012a5.833,5.833,0,0,0-2.883-4.571,2.053,2.053,0,0,0-3.2.95c-.5.99-.884,2.043-1.3,3.076-.25.621-.457,1.261-.683,1.893-.076-.014-.152-.029-.228-.045-.182-1.142-.365-2.283-.56-3.511-.316-.029-.607-.057-.956-.09a10.2,10.2,0,0,0-.053,3.568,17.238,17.238,0,0,1,.006,2.059c-.01.373-.07.744-.117,1.116-.107.841-.187,1.686-.338,2.518a1.07,1.07,0,0,0,.765,1.378,2.612,2.612,0,0,0,1.829-2.059,18.243,18.243,0,0,1,.546-1.973c.437-1.312.9-2.619,1.366-3.923q.5-1.418,1.036-2.828c.033-.082.154-.131.281-.234l.962.086a4.659,4.659,0,0,1,1.36,2.744,16.114,16.114,0,0,1,.632,4.883,3.051,3.051,0,0,0,.355,1.06c-.277.738-.777,1.5.287,2.295.4-.133.923-.3,1.5-.49a6.413,6.413,0,0,0,.076-.89M133.6,195.82c-1.44.014-2.881.193-4.315.139a3.816,3.816,0,0,0-3.829,2.34,20.309,20.309,0,0,1-1.36,1.963,3.544,3.544,0,0,0-.726,1.218,34.457,34.457,0,0,0-.375,3.814,3.7,3.7,0,0,0,3.039,3.613c2.514.484,5.039.911,7.524,1.356.628-.316,1.187-.6,1.784-.9-.037-.353-.068-.65-.113-1.073-.443,0-.812-.021-1.179,0a24.962,24.962,0,0,1-7.089-.984,2.687,2.687,0,0,1-2.342-2.965c0-.472.043-.943.07-1.452,1.007-.068,1.55-.519,1.6-1.505a3.448,3.448,0,0,1,.283-1.073c.7-1.743,1.239-2.7,3.263-2.727a9.609,9.609,0,0,1,4.071.535c.336-.6.652-1.163,1.066-1.9a5.552,5.552,0,0,0-1.368-.406m12.153,11.25-1.036.874a6.758,6.758,0,0,1-3.39-9.023,13.53,13.53,0,0,1,1.587-2.572,2.7,2.7,0,0,1,2.656-1.071,6.024,6.024,0,0,1,4.864,3.47c1.052,1.944,1.124,5.406-.913,7.094a7.408,7.408,0,0,1-3.769,1.228m-.931-1.932a4.619,4.619,0,0,0,3.291-.1,1.932,1.932,0,0,0,1.347-1.651c.172-2.289-.226-4.38-2.375-5.73-.494-.312-.976-.646-1.446-.96a2.36,2.36,0,0,0-2.346,1.347,7.045,7.045,0,0,0-.923,4.452,4.122,4.122,0,0,0,1.581,3.257l.87-.615m42.325-10.2c.164.562.283,1.054.453,1.53a9.888,9.888,0,0,1,.632,1.6,28.444,28.444,0,0,1,.361,3.488c.025.628.006,1.183.818,1.46.351-.328.732-.685,1.109-1.04-.039-.437-.074-.808-.107-1.179a7,7,0,0,1,1.31-5.141,1.854,1.854,0,0,1,2.781-.543c.23.131.441.3.705.478a9.826,9.826,0,0,1,.447,1.343c.25,1.356.461,2.717.66,4.083a2.481,2.481,0,0,0,1.194,2.032c.4-.447.781-.872,1.175-1.312l-1.347-2.326a5.807,5.807,0,0,0-2.235-6.165c-3.062-.792-4.013,1.559-5.361,3.359-.972-.488-.859-2.262-2.6-1.667m66.957-2.6c1.148-2.432,3.006-2.723,5.289-2.365a5.005,5.005,0,0,1,2.2,1.989c1.2,2.6.993,5.648-1.9,6.962a3.072,3.072,0,0,1-3.611-.794,6.032,6.032,0,0,1-1.649-3.716,14.573,14.573,0,0,0-.326-2.077m1.7-.2c-.158,3.628.751,5,3.359,5.281,1.509-.679,1.579-2.047,1.4-3.384-.232-1.714-1.565-2.389-3.088-2.832l-1.667.935m-10.676,8.3c-.383.355-.648.6-.878.816-1.5-.332-1.87-.677-3.037-2.805a9.76,9.76,0,0,0-.01-1.335c-.258-2.01.73-3.14,2.463-4,2.106-1.04,5.439,1,5.307,3.218-.055.941-.01,1.887-.01,2.728-1.247.849-2.332,1.671-3.835,1.376m-.244-6.035a3.318,3.318,0,0,0-2.633,1.944c.738,2.149.738,2.149,1.312,2.539l.816-.623c1.384.894,1.507.888,2.892-.088.162-2.278-.31-3.039-2.387-3.771m-12.389-4.1c-.9,1.161-1.69,2.151-2.449,3.162-.8,1.06-1.565,2.143-2.356,3.232.546,1.114,1.624,1.1,2.609,1.241.954.139,1.913.236,2.906.355l1.025,1.3c-.293.74-.556,1.407-.822,2.079-.4-.207-.662-.342-1-.519-.238.952-1.038,1.739-.006,2.6a2.2,2.2,0,0,0,2.346-1.511,21.276,21.276,0,0,0,.886-2.721c.351-1.6-.191-2.4-2.008-2.83-.308-.074-.666.051-.962-.039-.822-.252-1.813-.1-2.518-.974,1.021-1.415,2.014-2.793,3.095-4.292-.205-.3-.418-.6-.742-1.077m-53.11,10.842c0,1.007-.525,2.036.275,3.2.562-.531,1.042-.986,1.335-1.265-.1-1.883-.187-3.509-.271-5.1-.515-.509-.97-.486-1.571.162.076.9.232,1.952.232,3m1.265-10.672c-.915-1.13-3.474-1.6-5.252-.913v1.446c3.41.4,4.177.312,5.252-.533m-11.812,7.178c0-.123,0-.246,0-.369l.045.049c-.121,0-.24,0-.361,0l.035-.053.33.33ZM57.153,38.083c.086.394.174.79.332,1.509.388-.933.09-1.241-.371-1.47Zm-.039.039-.271-.564-.191.144.5.381-.039.039m41.251,74.153c.078-.012.154-.035.232-.053l-.267-.029.035.082" transform="translate(0 0)"/>
    <g id="Rectangle_22" data-name="Rectangle 22" class="cls-4" transform="translate(-476.835 -1126.634)">
      <rect class="cls-5" width="1235" height="665"/>
      <rect class="cls-1" x="0.5" y="0.5" width="1234" height="664"/>
    </g>
  </g>
</svg>
