<svg xmlns="http://www.w3.org/2000/svg" xmlns:xlink="http://www.w3.org/1999/xlink" width="279.611" height="217.321" viewBox="0 0 279.611 217.321">
  <defs>
    <style>
      .cls-1 {
        fill: none;
      }

      .cls-2 {
        clip-path: url(#clip-path);
      }

      .cls-3 {
        fill: #e6e6e6;
      }
    </style>
    <clipPath id="clip-path">
      <rect id="Rectangle_49" data-name="Rectangle 49" class="cls-1" width="279.611" height="217.321"/>
    </clipPath>
  </defs>
  <g id="Group_82" data-name="Group 82" class="cls-2">
    <path id="Path_98" data-name="Path 98" class="cls-3" d="M122.56,63.8a7.626,7.626,0,0,0,.667-.831,53.037,53.037,0,0,1,5.112-6.787c1.076-1.287,2.066-2.649,3.091-3.979a10.023,10.023,0,0,1,.872-1.115c1.411-1.36,2.844-2.7,4.281-4.032.622-.578,1.32-1.08,1.9-1.695a26.556,26.556,0,0,0,2.473-2.868,33.614,33.614,0,0,1,5.988-6.74c1.1-.908,2.09-1.966,3.215-2.848,1.573-1.234,3.211-2.394,4.859-3.529.418-.288.981-.365,1.368-.653.839-.772,1.652-1.577,2.526-2.311q3.524-2.952,7.093-5.856c1.062-.868,2.147-1.709,3.229-2.55,1.121-.872,2.252-1.733,3.379-2.595,2.349-1.792,4.719-3.56,7.046-5.38,1.83-1.433,3.56-3,5.433-4.374,1.358-1,2.562-2.151,3.8-3.264A12.735,12.735,0,0,0,190.487.26c1.451-.649,2.4,1.093,3.537.752a12.183,12.183,0,0,0,1.826,1,14.811,14.811,0,0,1,4.022,2.432,78.151,78.151,0,0,1,7.539,6.012c2.041,1.954,4.385,3.489,6.495,5.337,2.814,2.467,5.9,4.616,8.862,6.92,1.042.811,2.078,1.638,3.047,2.532,2.066,1.905,4.085,3.862,6.132,5.785a9.311,9.311,0,0,0,1.117.89,57.369,57.369,0,0,1,6.227,5.173c.428.391.918.711,1.376,1.07a16.188,16.188,0,0,1,3.024,3.2,25.518,25.518,0,0,0,3.345,3.154c.8-1.125,1.543-2.163,2.287-3.2.73-1.02,1.464-2.035,2.26-3.144a6.561,6.561,0,0,1,1.415.545,16.467,16.467,0,0,0,7.269,2.814,9.9,9.9,0,0,1,2.27.659c1.453.594,2.895,1.22,4.293,1.924a2.233,2.233,0,0,1,1.016,1.113c1.056,2.882,2.826,5.4,4.1,8.161.815,1.762,1.462,3.6,2.228,5.382,1.04,2.416,2.09,4.828,3.195,7.214.616,1.332,1.358,2.6,2.035,3.908a4.225,4.225,0,0,1,.2.616,1.722,1.722,0,0,1-2.139.868,18.828,18.828,0,0,1-4.634-1.993c-.31-.176-.649-.306-.969-.454-.8,1.51-.5,3.065-.543,4.762l-1.089,1c-.831-.225-1.616-.44-2.487-.677a31.457,31.457,0,0,0,.789,7.61l-1.585,1.042a4.168,4.168,0,0,1-2.045-1.863,6.44,6.44,0,0,0-2.366-2.222c.576,2.368,1.2,4.725,1.7,7.111a4.4,4.4,0,0,0,1.449,2.655l-.989.8c-3.006-.87-4.855-3.41-7.443-4.861-.341.422-.657.829-.989,1.22a2.931,2.931,0,0,1-.432.324l-6.74-.718c-1.322-.62-2.528-1.253-3.785-1.764a13.556,13.556,0,0,1-5.281-3.606c-1.151-1.316-2.414-2.54-3.675-3.754-1.8-1.729-1.879-2.931-.665-5.163a35.486,35.486,0,0,0,2.068-4.932c.424-1.168.663-2.4,1.016-3.722-1.409-1.257-2.8-2.53-4.228-3.766-2.56-2.22-5.157-4.4-7.707-6.633a27.869,27.869,0,0,0-4.251-3.28c-2.325-1.356-4.579-2.836-6.868-4.255a4.85,4.85,0,0,0-.981-.5,12,12,0,0,1-3.6-2.256,35.067,35.067,0,0,1-3.3-2.974A35.66,35.66,0,0,0,202,33.895a4.946,4.946,0,0,1-1.486-1.342,16.105,16.105,0,0,0-1.658-1.717c-.815-.9-1.6-1.839-2.378-2.775-.742-.888-1.466-1.79-2.27-2.779a35.418,35.418,0,0,0-3.4,2.755c-2.013,2.07-4.52,3.454-6.764,5.2a47.1,47.1,0,0,0-4.178,3.371,22.33,22.33,0,0,1-4.326,3.187,14.941,14.941,0,0,0-3.4,2.542,15.494,15.494,0,0,1-2.137,1.607c-.679.5-1.391.953-2.031,1.494-1.251,1.058-2.353,2.276-3.525,3.418a52.056,52.056,0,0,1-7.606,6.2c-1.318.868-2.489,1.96-3.728,2.951-2.805,2.246-5.135,5.053-8.212,6.987a6.568,6.568,0,0,0-1.151,1.1,9.613,9.613,0,0,1-3.371,2.6,1.063,1.063,0,0,0-.4.251c-1.464,1.634-3.5,2.536-5.088,4.018-2.291,2.139-4.695,4.16-6.878,6.4a23.387,23.387,0,0,0-3.6,5.739c1.382,4.648,1.907,9.485,3.8,14.254-.176.424-.452,1.087-.782,1.887.928.184,1.948.432,2.984.582,3.515.509,7,1.078,9.835,3.5.389.33.932.472,1.352.774,2.155,1.553,5.112,3.961,5.868,6.947a3.9,3.9,0,0,0,1.076,1.532,5.719,5.719,0,0,1,1.768,4.107c-.014,1.95-.071,3.9-.114,6.093l.912,1.273-3.683,2.889c-.041,0-.478.136-.649-.02-1.318-1.214-2.621-.314-3.855.049-1.808.533-3.472,1.591-5.368,1.774-2.264.219-4.395,1-6.689,1.194a33.777,33.777,0,0,0-10.863,2.479,3.685,3.685,0,0,1-1.058.284q-3,.334-6.012.622a4.642,4.642,0,0,1-1.431,0c-3.47-.768-6.8.032-10.141.817-2.088.489-4.168,1.014-6.26,1.48a9.742,9.742,0,0,1-1.545.071c-1.324.073-2.647.138-3.969.237-.943.073-1.883.282-2.822.274-2.386-.016-4.77-.207-7.151-.162-2.207.041-4.411.3-6.616.454-.318.022-.636.039-.955.043a5.591,5.591,0,0,0-1.587.028c-1.48.491-2.921-.16-4.376-.03a1.225,1.225,0,0,1-.628-.055c-1.727-.874-3.685-.813-5.491-1.37a3.793,3.793,0,0,0-1.875-.075,10.43,10.43,0,0,1-3.754.026,42,42,0,0,0-5.043-.049c-.318.432-.691.934-1.111,1.5a25.411,25.411,0,0,0-3.847-.545c-1.38,0-2.384-1.121-3.75-1.02l-1.847.74a7.672,7.672,0,0,0-4.881-.464,3.931,3.931,0,0,1-1.857-.193,9.76,9.76,0,0,0-3.308-.284,5.784,5.784,0,0,1-2.317-.245,7.8,7.8,0,0,0-2.645-.284,12.057,12.057,0,0,1-3.308-.341,32.7,32.7,0,0,0-5.088-1.044,36.6,36.6,0,0,1-4.1-1.1c-2.155-.484-3.687-1.964-5.576-2.84A11.772,11.772,0,0,1,1.93,128.3a6.264,6.264,0,0,1-1.565-6.663,11.63,11.63,0,0,0,.29-1.614c.647-1.1,1.307-2.114,1.861-3.185,1.186-2.285,3.278-3.726,5.029-5.481a3.056,3.056,0,0,1,1.117-.553c2.311-.857,4.68-1.516,6.965-2.493a19.244,19.244,0,0,1,5.163-1.768,7.874,7.874,0,0,0,2.244-1.174c1.289-.1,2.939.284,4.022-1.305a9.569,9.569,0,0,0-.482-2.12c-1.007-2.116-.766-4.35-.758-6.564a5.943,5.943,0,0,1,.3-1.376,22.58,22.58,0,0,0,.3-6.014c-.018-1.1-.243-2.2-.288-3.306-.053-1.261-.01-2.526-.01-3.789q0-1.274,0-2.55a34.131,34.131,0,0,0-.906-8.3,1.027,1.027,0,0,1-.043-.312c.081-1.668.211-3.339.243-5.009.053-2.7.124-5.4.032-8.09-.065-1.883-.371-3.762-.6-5.639-.2-1.616-.361-3.245-.716-4.83a10.549,10.549,0,0,0-1.176-2.319c.813-2.041,2.8-1.072,4.174-1.482.434-.928-.081-10.782-.387-11.968a4.64,4.64,0,0,1,.908-.669,14.885,14.885,0,0,1,2.493-.926c1.269-.3,2.57-.464,3.857-.7a11.9,11.9,0,0,0,1.216-.286,32.471,32.471,0,0,1,5.808-1.358c2.177-.221,4.318-.817,6.476-1.23,1.745-.332,3.509-.586,5.244-.965,2.147-.47,4.4-.164,6.5-1.1a10.12,10.12,0,0,1,3.272-.47,56.71,56.71,0,0,1,9.989-.239,3.453,3.453,0,0,0,.7-.085,12.286,12.286,0,0,0,.091-3.6,28.257,28.257,0,0,1-.15-5.692,21,21,0,0,0-.243-6.614,20.784,20.784,0,0,1-.438-5.54,2.2,2.2,0,0,1,2.97-.578,6.068,6.068,0,0,0,3.578.2c.255-.028.535-.239.75-.178,1.609.464,3.247.128,4.867.211C86,.637,87.371.639,88.741.653s2.775-.109,4.143.028c3.124.312,6.286.284,9.327,1.332a18.976,18.976,0,0,0,6.562.9,7.4,7.4,0,0,1,3.337.237c.716,1.348.592,2.864.829,4.3a14.633,14.633,0,0,1,.073,2.388,26.678,26.678,0,0,0,1.078,7.638,38.7,38.7,0,0,1,.786,4.486c.081.46.184.918.3,1.37A5.246,5.246,0,0,1,115.4,25.5a5.64,5.64,0,0,0,.657,3.043c.647,1.437,1.2,2.917,1.786,4.38a2.721,2.721,0,0,1,.211.754c.122,1.632.17,3.272.353,4.9a12.776,12.776,0,0,0,.636,2.189l1.751-.219c.257.521.489.987.61,1.23-.065.651-.118,1.064-.146,1.48-.1,1.577.235,3.178-.292,4.737-.091.264.067.614.12.924s.134.614.166.924q.316,2.989.61,5.978c.045.474.01.957.034,1.435q.17,3.241.351,6.481l.31.073m4.253,37.109c-.31-.756-.612-1.356-.8-1.991-.207-.7-.3-1.431-.458-2.147-.48-2.143-.92-4.3-1.466-6.42s-.782-4.305-1.51-6.391a31.488,31.488,0,0,1-1.279-6.454c-.278-2.189-.251-4.417-.359-6.626-.053-1.042-.071-2.086-.164-3.124-.13-1.466-.375-2.921-.46-4.389-.107-1.849-.008-3.693-.29-5.55a56.892,56.892,0,0,1-.357-6.006,2.584,2.584,0,0,0-.851-2.106,3.109,3.109,0,0,1-.736-1.5c-.347-1.2-.614-2.416-.859-3.4-1.107-.393-2.011-.714-2.9-1.028l-1.194,1.052A6.331,6.331,0,0,0,107.1,43.7c-.385.1-.876-.172-1.309-.3-.245-.069-.474-.272-.712-.274-1.6-.018-3.193-.077-4.782.026-1.883.122-3.752.444-5.635.588-3.416.261-6.837.446-10.253.691a6.754,6.754,0,0,0-1.863.381,2.762,2.762,0,0,1-1.518.057,44.387,44.387,0,0,0-5.487-.639c-2.049-.073-4.107.116-6.162.148-1.966.03-3.935-.01-5.9.016a12.73,12.73,0,0,0-1.721.2c-2.591.387-5.163.827-7.79.15a12.444,12.444,0,0,0-2.98-.2,28.334,28.334,0,0,0-5.668.144,2.15,2.15,0,0,1-.47-.055c-1.1-.055-2.2-.114-3.3-.154-.677-.024-1.356-.024-2.035-.032a20.87,20.87,0,0,0-3.963,0,13.742,13.742,0,0,1-4.877.03,5.618,5.618,0,0,0-.943-.008q-.38.5-.647.843c-1.076.468-2.043-.977-3.168.051a3.78,3.78,0,0,0-.067.967c.411,2.548.793,5.088,1,7.674.182,2.282.219,4.551.239,6.829a30.553,30.553,0,0,0,.1,3.977,7.311,7.311,0,0,1,.016,2.512,4.905,4.905,0,0,0-.105,1.263c.073,1.1.229,2.2.3,3.294.126,1.956.235,3.912.308,5.87.13,3.5.314,7,.308,10.5,0,2.165-.318,4.33-.5,6.493a9.307,9.307,0,0,0,.13,3.618c.418,1.354.7,2.751,1.038,4.129.154.634.3,1.271.456,1.907,2.165-.452,4.151-.93,6.16-1.265,1.344-.221,2.72-.231,4.082-.349a4.03,4.03,0,0,0,1.084-.191c1.374-.525,2.83-.762,4.222-1.178,3.509-1.048,7.056-.207,10.567-.495,1.95.728,3.878-.026,5.812-.116a20.676,20.676,0,0,0,2.893-.547c1.419.791,2.874-.1,4.358-.107.859.178,1.731.3,2.6.4.422.045.851.008,1.273.047a15.82,15.82,0,0,0,4.385-.243,29.817,29.817,0,0,1,3.7-.726,114.1,114.1,0,0,1,11.919.3,1.843,1.843,0,0,1,.318.036,11.8,11.8,0,0,0,5.2,0,25.781,25.781,0,0,1,3.446-.407c1.9-.128,3.8-.186,5.694-.288.316-.016.626-.105.943-.14a40.737,40.737,0,0,1,4.107-.4,30.066,30.066,0,0,1,3.616.4,29.766,29.766,0,0,0,3.928.43,15.488,15.488,0,0,1,4.67.647c.9.261,1.806.47,2.71.7m-2.85-19.271c.385-.59.643-.92.831-1.283a13.125,13.125,0,0,1,3.407-3.89c2.057-1.733,4.04-3.553,6.049-5.345.667-.6,1.269-1.275,1.978-1.81,2.39-1.8,5.157-3.11,7.174-5.41a2.669,2.669,0,0,1,.359-.316c1.3-1,2.633-1.938,3.878-2.992,1.94-1.644,3.8-3.379,5.728-5.039.716-.616,1.508-1.145,2.282-1.695,3.405-2.416,6.874-4.758,9.454-8.135a5.137,5.137,0,0,1,.939-.862c1.784-1.4,3.568-2.805,5.374-4.18,2.4-1.822,4.814-3.614,7.218-5.428,1.94-1.464,3.932-2.864,5.779-4.437a21.058,21.058,0,0,1,3.28-2.451,3,3,0,0,0,.527-.355c1.984-1.745,3.965-3.5,5.994-5.293h1.068c.72,1.218,1.281,2.284,1.96,3.27.349.5.961.815,1.364,1.289a27.47,27.47,0,0,0,6.061,5.773,21.519,21.519,0,0,1,4.429,3.821,27.447,27.447,0,0,0,5.966,4.656c1.632,1.04,3.337,1.96,5,2.953q1.213.724,2.386,1.518a45.7,45.7,0,0,1,3.754,2.641c1.17.977,2.149,2.179,3.276,3.211,1.526,1.393,3.1,2.735,4.68,4.062a31.608,31.608,0,0,1,2.85,2.264,15.78,15.78,0,0,0,3.681,2.986c.28.16.566.306.746.4-.387,1.23-.6,2.159-.969,3.016-.8,1.834-1.695,3.622-2.516,5.445a16.055,16.055,0,0,0-.991,2.637,1.827,1.827,0,0,0,.223,1.472,16.31,16.31,0,0,0,3.785,3.337,25.14,25.14,0,0,1,4.53,3.15c1.007.831,1.9,1.928,3.217,2.244,2.033.491,4.111.8,6.1,1.17.211-.3.4-.442.377-.551-.328-1.9-.683-3.8-1.064-5.881l1.151-.736a1.579,1.579,0,0,1,.987,1.557,3.508,3.508,0,0,0,.908,2.487c1.47,1.593,3.061,3.071,4.612,4.587a4,4,0,0,0,.693.369c-.612-2.177-1.216-4.072-1.672-6-.446-1.877-.639-3.817-1.62-5.512.361-.608.722-1.129,1.616-.821.748.959,1.476,2.055,2.368,2.994s1.94,1.7,3.219,2.807c-.669-3.525-1.644-6.647-1.624-10.036.484-.6,1.2-.44,1.94-.266.7,1.164,1.093,2.556,2.613,3.142,1.087-2.165-.436-4.354.239-6.515.341-.16.714-.336,1.131-.535a26.351,26.351,0,0,0,2.891,2.475c1.005.649,2,1.575,3.537,1.291-.314-.61-.543-1.139-.843-1.624a62.95,62.95,0,0,1-3.835-7.614c-1.032-2.3-2-4.638-3.035-6.939-.823-1.82-1.695-3.62-2.585-5.41a2.356,2.356,0,0,0-.884-1.076c-1.553-.75-2.872-2-4.68-2.22a12.44,12.44,0,0,1-2.455-.462c-1.437-.489-2.814-1.153-4.251-1.636a16.113,16.113,0,0,0-2.378-.462,10.789,10.789,0,0,0-3.718,5.3c-.334.184-.612.334-1.034.566-1.245-1.1-2.566-2.167-3.76-3.357a51.347,51.347,0,0,0-5.088-5.027,8.043,8.043,0,0,1-1.93-1.636c-1.07-1.579-2.672-2.544-4.044-3.762-2.1-1.861-4.3-3.594-6.46-5.386-1.543-1.283-3.061-2.6-4.63-3.849-1.482-1.182-3.037-2.27-4.518-3.452-1.409-1.121-2.732-2.345-4.143-3.462-3.069-2.432-6.174-4.816-9.252-7.237-1.49-1.172-2.933-2.4-4.429-3.568a14.206,14.206,0,0,0-4.431-2.7c-1.143-.355-2.266-.78-3.531-1.222-.766.667-1.66,1.413-2.518,2.2-1.368,1.247-2.637,2.617-4.085,3.764-3.014,2.39-6.1,4.7-9.195,6.977a23.638,23.638,0,0,0-3.43,2.8,9.937,9.937,0,0,1-1.389,1.05c-1.182.888-2.39,1.745-3.535,2.676-2.171,1.762-4.376,3.472-6.468,5.347a60.983,60.983,0,0,1-9.426,6.951,6.834,6.834,0,0,0-2.033,1.695,9.122,9.122,0,0,1-2.783,2.548,4.083,4.083,0,0,0-1.02,1c-1.149,1.368-1.962,2.98-3.249,4.265-1.267,1.267-2.289,2.781-3.543,4.064-1.585,1.622-3.308,3.114-4.952,4.68a4.512,4.512,0,0,0-1.119,1.314,12.176,12.176,0,0,1-2.589,3.365,23.382,23.382,0,0,0-1.7,2.26,42.186,42.186,0,0,1-3.562,4.8,7.453,7.453,0,0,0-2.045,6.363q.356,3.865.606,7.739a8.072,8.072,0,0,0,.8,3.128M110.394,5.149a13.7,13.7,0,0,0-1.993-.276c-2.939.034-5.739-.768-8.574-1.356a16.565,16.565,0,0,0-1.958-.59c-2.321-.166-4.648-.243-6.973-.332-1.218-.049-2.437-.053-3.657-.075-.363-.008-.728,0-1.091-.014-1.691-.057-3.381-.12-5.07-.178-.531-.018-1.064-.063-1.591-.028-1,.065-1.991.2-2.988.264-.675.043-1.354.008-2.163.008a12.806,12.806,0,0,0,.01,1.573c.276,2.033.622,4.058.862,6.1a17.951,17.951,0,0,1-.109,2.2c-.018,1.691-.026,3.383,0,5.074.032,1.8.189,3.6.146,5.4-.024,1.076-.89,1.628-1.984,1.565-1.111-.065-2.226-.12-3.337-.1-.845.012-1.687.191-2.532.209-1.745.034-3.493-.008-5.238.02a4.941,4.941,0,0,0-1.543.243,43.269,43.269,0,0,1-7.691,1.642c-2.23.367-4.476.632-6.706.989-.932.148-1.843.432-2.769.622-2.106.432-4.22.825-6.322,1.275a11.55,11.55,0,0,1-1.936.594,23.516,23.516,0,0,0-4.922.987A3.2,3.2,0,0,0,28.3,32.17c.353,3.33.718,6.77,1.082,10.216.375.039.582.071.789.081,3.6.18,7.216-.316,10.806.294a5.2,5.2,0,0,0,1.267-.1,14.313,14.313,0,0,1,1.735-.132c1.316.049,2.627.193,3.943.239,3.551.128,7.1.253,10.658.314a19.44,19.44,0,0,0,2.974-.306c2.572-.357,5.151.116,7.754-.233a61.571,61.571,0,0,1,8.118-.081h2.645a7.149,7.149,0,0,0-1.648-5.443,4.3,4.3,0,0,1,3.164-2.205c1.364-.32,2.745-.58,4.2-.882-.217-3.776-.428-7.456-.632-11.062-.44-.418-.991-.705-1.143-1.135a3.719,3.719,0,0,0-2-1.918c-.578-.334-1.32-.7-1.561-1.245-1-2.256-2.011-4.563-.789-7.149a6.037,6.037,0,0,0,1.421-.876,5.4,5.4,0,0,1,3.229-1.439,5.249,5.249,0,0,1,5.53,1.812c.191.671.418,1.318.557,1.984a10.567,10.567,0,0,1-.026,5.015c-.5,1.8-1.328,3.422-3.193,4.131v1.916c.657-.057,1.222-.091,1.786-.156a33.2,33.2,0,0,1,4.074-.46,27.63,27.63,0,0,1,4.378.521A3.1,3.1,0,0,0,100.605,23a13.1,13.1,0,0,1,1.237-1.141c1.433-.46,2.321.33,3.495.92.083.608.211,1.322.274,2.039.132,1.516.308,2.978,2.216,3.306.357.061.7.211,1.05.3,1.113.268,2.23.525,3.511.825-.634,4.233.845,8.133,1.417,12.286l2.929-.515c-.17-2.068-.33-4.03-.493-5.992a28.839,28.839,0,0,0-.734-3.185,1.591,1.591,0,0,0-.223-.578,8.037,8.037,0,0,1-1.543-4.4c-.13-1.539-.551-2.992-.784-4.494a12.023,12.023,0,0,0-.448-2.945,13.762,13.762,0,0,1-.784-3.831c-.272-1.932-.27-3.9-.357-5.862a12.265,12.265,0,0,0-.973-4.583m-76.9,100.664c.626.786,1.024,1.267,1.4,1.764a53.285,53.285,0,0,1,3.663,4.942,29.142,29.142,0,0,1,3.105,7.555,3.073,3.073,0,0,1-.047,1.865,36.741,36.741,0,0,1-2.278,4.31c-.574.93-1.449,1.672-2.035,2.595-1.151,1.812-2.923,2.848-4.622,4-.73.495-1.4,1.068-2.165,1.654.264.14.351.2.444.235,1.05.422,2.1.039,3.138-.047,3.067-.259,6.116.643,9.181.087a1.9,1.9,0,0,1,.474.032c.947.075,1.893.162,2.842.223.742.047,1.488.034,2.228.1,1.845.152,3.687.336,5.53.5.152.012.312-.071.468-.075.624-.022,1.249-.034,1.873-.045q1.423-.024,2.848-.041a9,9,0,0,1,1.733,0q2.867.529,5.708,1.182a4.06,4.06,0,0,0,2.785.047,1.628,1.628,0,0,1,.926.085,6.912,6.912,0,0,0,2.96-.036A48.615,48.615,0,0,1,85.1,136.4a24.418,24.418,0,0,0,4.883.028,22.346,22.346,0,0,1,5.041-.466,4.309,4.309,0,0,0,1.3-.318,16.6,16.6,0,0,1-6.91-2.69,20.782,20.782,0,0,1-4.241-3.555,11.051,11.051,0,0,1-1.707-2.434c-1.087-2.27-2.06-4.593-3.057-6.906-.6-1.389-1.162-2.8-1.739-4.194a5.236,5.236,0,0,0,.436-2.1,5.623,5.623,0,0,1,.484-2.461,12.431,12.431,0,0,0,1.089-2.6c.434-2.262,2.349-3.42,3.564-5.094.079-.109.278-.132.42-.195,1.005-.44,2.011-.876,3.01-1.324.336-.152.659-.336,1.18-.606a5.107,5.107,0,0,0-.857-.239c-1.857-.071-3.716-.209-5.57-.16a38.948,38.948,0,0,0-4.567.486,14.67,14.67,0,0,1-2.118.555c-2.909-.053-5.834.357-8.724-.272a1.967,1.967,0,0,0-.953,0,20.062,20.062,0,0,1-4.1.332,5.817,5.817,0,0,0-2.949.78,17.926,17.926,0,0,1,5.554,2.564,9.627,9.627,0,0,1,1.516,1.366,17.032,17.032,0,0,1,1.593,2.173,18.934,18.934,0,0,1,1.472,2.765,15.674,15.674,0,0,1,.823,2.882c.326,1.638,1.095,3.2.861,4.94-.2,1.518-.355,3.045-.517,4.569a5.188,5.188,0,0,1-2.147,3.738c-2.678,1.972-5.418,3.862-8.131,5.785a3.541,3.541,0,0,1-4.028.059c-1.873-1.028-3.722-2.1-5.568-3.18a1.387,1.387,0,0,1-.519-.572c-.841-1.757-1.725-3.5-2.459-5.3a9.325,9.325,0,0,1-.857-3.324c-.018-3.335.162-6.673.292-10.008a3.816,3.816,0,0,1,.33-.878,12.624,12.624,0,0,1,2.832-4.131,7.5,7.5,0,0,1,3.134-2.329c.634-.239,1.259-.5,2.059-.827a12.776,12.776,0,0,0-4.085-.636c-.742.067-1.482.144-2.224.17a16.016,16.016,0,0,0-6.337,1.186,4.737,4.737,0,0,1-1.218.345c-1.557.251-3.124.444-4.674.722-.969.172-1.92.454-3.217.772m112.032,9.016a7.541,7.541,0,0,0-2.763-5.408,36.388,36.388,0,0,0-6.856-4.48,2.6,2.6,0,0,0-2.2-.393c.032.229,0,.418.081.535,1.212,1.847,1.713,4.007,2.651,5.974a1.685,1.685,0,0,1,.138.61,22.244,22.244,0,0,1,.039,5.372,18.608,18.608,0,0,1-5.325,10.677c-2.139,2.031-4.247,2.23-6.8.922a23.031,23.031,0,0,1-7.5-5.972c-1.926-2.355-3.61-4.78-4.2-7.829a12.911,12.911,0,0,1-.032-5.708,13.845,13.845,0,0,1,3.979-5.222c1.022-.693,2.291-1.553,3.582-2.426-.249-.58-.758-.509-1.212-.531a81.233,81.233,0,0,1-8.676-.7,1.664,1.664,0,0,0-.632.032,43.225,43.225,0,0,1-9.6.918c-.965.012-1.93.089-2.9.138A10.773,10.773,0,0,0,99.8,103.6a9.185,9.185,0,0,1,4.08,5.037,2.212,2.212,0,0,1,1.455,1.861c.276,1.429.369,2.933,1.334,4.172a2.043,2.043,0,0,1,.213,1.218c-.087,2.96-.083,5.929-.361,8.872a13.575,13.575,0,0,1-1.283,4.492,9.877,9.877,0,0,1-3.736,4.589c-.249.146-.405.454-.756.864a10.681,10.681,0,0,0,1.1-.166,22.475,22.475,0,0,1,3.926-1.052,33.6,33.6,0,0,1,6.527.032,15.236,15.236,0,0,0,4.224-.241,17.137,17.137,0,0,0,6.033-1.674.943.943,0,0,1,.306-.075c1.7-.33,3.4-.641,5.1-1a9.31,9.31,0,0,1,2.13-.559,26.674,26.674,0,0,0,6.108-.742,14.8,14.8,0,0,0,4.682-1.362,11.656,11.656,0,0,1,4.614-1.547,13.4,13.4,0,0,0,2.2-.561,4.212,4.212,0,0,1,.093-1.1c.945-2.309.62-4.668.227-7a3.881,3.881,0,0,0-1.068-1.682,10.472,10.472,0,0,0-1.431-1.147M105.5,119.041a23.72,23.72,0,0,0-1.107-6.377,16.626,16.626,0,0,0-6.989-8.536,9,9,0,0,0-4.778-1.372,11.162,11.162,0,0,0-5,1.243,7.315,7.315,0,0,0-2.167,1.247,34.535,34.535,0,0,0-3,3.645,9.111,9.111,0,0,0-1.06,9.15c.847,2.205,1.849,4.356,2.828,6.511a15.4,15.4,0,0,0,6.195,6.819,17.054,17.054,0,0,0,7.958,2.262.945.945,0,0,0,.6-.116c.965-.8,2.359-1.005,3.075-2.12,1.18-1.837,2.566-3.537,2.651-5.931.077-2.147.511-4.283.786-6.424M27.053,106.848c-2.2.716-4.443,1.437-6.681,2.177a2.388,2.388,0,0,0-1.309,1.263,10.347,10.347,0,0,0-.744,3.353,8.435,8.435,0,0,0-.014,2.968c.144,1.007-.225,2.082-.12,3.1.154,1.455.531,2.889.819,4.33a14.116,14.116,0,0,0,.537,2.459,36.1,36.1,0,0,0,2.141,4.717,5.66,5.66,0,0,0,6.014,3.109c1.585-1.283,3.18-2.777,4.978-3.967a13.568,13.568,0,0,0,3.683-3.547,24.508,24.508,0,0,0,2.662-5.173,3.4,3.4,0,0,0-.1-2.761c-.738-1.624-1.417-3.272-2.132-4.905a3.456,3.456,0,0,0-.462-.813c-1.425-1.759-2.846-3.525-4.316-5.25a7.823,7.823,0,0,0-1.348-1.022c-.738.515-1.368.953-2.015,1.4l-1.591-1.443M58.163,132.3c1.7-1.082,3.375-2.137,5.031-3.223A8.556,8.556,0,0,0,64.68,127.9c1.1-1.147,2.159-2.333,3.211-3.525a4.576,4.576,0,0,0,1.084-2.212,10.167,10.167,0,0,0-.045-3.582,28.536,28.536,0,0,0-3.227-9.17c-1.089-2.12-3.288-2.87-5.323-3.726a5.016,5.016,0,0,0-4.4-.14,3.565,3.565,0,0,1-.928.13,3.439,3.439,0,0,0-2.072,1.07c-1.336,1.541-2.662,3.091-3.787,4.4-.162,1.506-.353,2.653-.393,3.807-.059,1.749-.018,3.5-.014,5.254a14.83,14.83,0,0,0,2.272,7.772,3.881,3.881,0,0,0,.795.979,20.153,20.153,0,0,0,6.308,3.349m55.817-20.747c.091.687.164,1.309.259,1.93a6.078,6.078,0,0,0,.27,1.38,32.248,32.248,0,0,0,1.9,4.3,19.074,19.074,0,0,0,9.316,7.993,4.139,4.139,0,0,0,3.973-.2,10.44,10.44,0,0,0,3.118-3.347,25.957,25.957,0,0,0,2.455-6.795,5.772,5.772,0,0,0,.189-2.163,28.358,28.358,0,0,0-2.009-6.916,6.461,6.461,0,0,0-4.372-3.983c-1.005-.286-1.991-.634-3-.914a9.051,9.051,0,0,0-4.091.008,1.962,1.962,0,0,0-1,.681c-.5.582-.922,1.23-1.2,1.616-3.833.793-5.25,3.288-5.816,6.418M20.332,133.5c-.918-1.642-1.646-2.915-2.343-4.206A11.675,11.675,0,0,1,16.9,127.03c-.361-1.255-.545-2.562-.8-3.847a21.308,21.308,0,0,1-.5-2.619,23.8,23.8,0,0,0-.079-3.495c-.29-1.249.2-2.394.075-3.592a4.243,4.243,0,0,1,.47-2.457,2.724,2.724,0,0,0,.083-.93,29.009,29.009,0,0,1-3.764,1.526,8.831,8.831,0,0,0-3.1,1.5c-1.482,1.1-2.96,2.209-4.352,3.418a5.953,5.953,0,0,0-1.058,1.731c-.148.27-.15.636-.334.868a2.745,2.745,0,0,0-.292,2.593,7.858,7.858,0,0,1,.16,2.5c-.01.3,0,.6-.018.892-.087,1.387.724,2.38,1.474,3.4.391.15.791.282,1.174.454,2,.9,4,1.812,6.01,2.7a10.79,10.79,0,0,0,1.494.482c1.419.4,2.83.823,4.265,1.147a19.341,19.341,0,0,0,2.538.2m91.345-91.714a16.468,16.468,0,0,0-.02-2.57c-.448-2.633-.981-5.254-1.492-7.93-1.782-.7-3.632-1.435-5.5-2.134a1.851,1.851,0,0,0-.936-.016c-2.049.373-3.2-.156-4.127-1.93-.168-.32-.316-.649-.482-.991a8.267,8.267,0,0,1-3.928-.6,1.174,1.174,0,0,0-.468-.053,25.625,25.625,0,0,0-6.3.369,5.744,5.744,0,0,0-1.2.513c.109,1.139.2,2.114.306,3.211l2.589.324c2.3.6,4.528.732,6.687-.6,1.634-1,2.28-.859,3.28.6.322.47.661.93.971,1.366,2.161-.114,4.208-.138,5.9,1.516a19.911,19.911,0,0,0,.432,8.512c.75.148,1.413.33,2.088.4s1.356.014,2.193.014m-18.639-9.3c1.332,3.077,1.881,6.264,3,9.195l9.2-.241c-.122-2.357-.237-4.563-.353-6.811-.93-1.334-1.794-1.172-4.277-1.009a3.545,3.545,0,0,1-3.959,1.032c-.675-.7-1.478-1.532-2.359-2.447-.418.1-.851.193-1.249.282M81.306,37.2c-.022,2.017.88,3.7,1.251,5.522.586.028,1.005.083,1.421.063,2-.1,4.005-.186,6-.336,1.145-.087,2.28-.29,3.515-.452a16.274,16.274,0,0,0-.973-5.518,2.005,2.005,0,0,0-1.642-1.32,5.331,5.331,0,0,0-3.4.45,6.19,6.19,0,0,1-3.168.786,6.231,6.231,0,0,0-3.01.8m-.274-23.684a4.624,4.624,0,0,0,.012,1.014c.268,1.285.491,2.684,1.612,3.485,1.423,1.016,3.185,1.157,4.788,1.518,1.184-1.612,1.184-1.612,1.285-3.924.116-2.635-.452-3.57-2.737-4.63-2.041.13-3.9.47-4.96,2.538M91.814,32.768c0-.136.01-.272.016-.407-.489-.034-.977-.065-1.464-.1-.468-.034-.934-.065-1.4-.12-.489-.057-.977-.14-1.757-.255.3.649.464,1,.608,1.3l4-.416M2.192,125.124a2.906,2.906,0,0,0-.225-2.87,4.832,4.832,0,0,0,.225,2.87M95.086,167.94c1.869-.466,3.693-.924,5.57-1.395.039-.624.073-1.194.116-1.92l1.411-.3c.081.588.142,1.042.215,1.581a9.777,9.777,0,0,0,3.736-.47c.574-.152,1-.866,1.577-1.4,1.464.251,2.913,1.263,4.851.381.278-.251.829-.744,1.356-1.218a2.965,2.965,0,0,1,2.838.48c2.505-.31,4.946-.614,7.494-.928.024.444.045.793.065,1.157l-.9.47c-2.021-.363-3.837.176-5.878.389a5.684,5.684,0,0,1,1.011,3.543,6.29,6.29,0,0,0,1.024,3.851c-.233.829-.687,1.084-1.541.76-.239-1.68-.426-3.4-.746-5.1a3.272,3.272,0,0,0-1.837-2.781,2.711,2.711,0,0,0-2.684,2.041,14.113,14.113,0,0,0-1.234,5.347,9.363,9.363,0,0,1-.444,2.159c-.053.245-.1.491-.168.87,2.6.146,5.116.288,7.792.44.416.3.334.809,0,1.269a1.156,1.156,0,0,1-1.411.31,22.543,22.543,0,0,0-7.046-.945c-2.173.022-4.346.1-6.517.225a49.311,49.311,0,0,1-5.368-.452c-2.134-.107-4.3-.61-6.4.4a8.973,8.973,0,0,1-5.013.379,2.985,2.985,0,0,1-2.483-1.987c-.124-.343-.284-.673-.468-1.1l-2.319-.764c.509-.878,1.271-.414,1.991-.446v-1.368c-1.93.326-3.178,1.095-3.456,3.134-.3,2.226-2.007,3.209-3.935,3.874-.343.12-.7.191-.821.223-1.143-.586-2.114-1.093-3.093-1.581-.732-.365-1.376-.772-1.443-1.713a2.061,2.061,0,0,0-.332-.685c-3.7.949-7.328,1.881-10.96,2.812,1.6.564,3.051,1.642,4.887,1.02a6.48,6.48,0,0,1,1.94-.03,3.016,3.016,0,0,1,.375.677,1.414,1.414,0,0,1-.077.559c-.651.182-1.222.367-1.806.495a2.7,2.7,0,0,1-1.241.124c-1.759-.517-3.655-.551-5.293-1.53-.888-.529-.924-.466-2.743-.055a7.9,7.9,0,0,1-1.271-4.914,7.23,7.23,0,0,1,2.591-4.581,8.916,8.916,0,0,0-2.242-.62,11.224,11.224,0,0,1-3.041-.756c-.61-.146-1.267-.4-1.076-1.466,1.952-.667,3.519.294,5.078,1.433H60.1c-.02.077-.039.154-.057.231,1.178.367,2.343.791,3.539,1.091,1.68.424,3.381.774,5.082,1.121.813.164,1.642.251,2.627.4.284-.357.673-.849,1.044-1.318,2.435-1.022,4.462-.259,6.416,1.437l4.685-.44a6.219,6.219,0,0,0,.657-.981,5.81,5.81,0,0,1,7.32-3.156,31.6,31.6,0,0,1,3.128,1.453c.186.087.369.182.543.268M71.1,171.662c-.8-.166-1.443-.339-2.1-.428-1.3-.178-2.633-.2-3.9-.486-1.563-.353-3.243-.389-4.553-1.425-3.489.9-4.652,2.465-4.466,6.191l1.658,1.309L70.5,173.237c.2-.537.359-.957.592-1.575m25-2.822c-.191,1.166-.288,2.108-.511,3.016-.233.955-.588,1.877-.943,2.982,1.338.059,2.593.034,3.825.189a13.969,13.969,0,0,0,3.951.456,76.754,76.754,0,0,0-1.4-8.033l-4.918,1.391m13.772,6.655c-.081-1.172-.164-2.147-.213-3.124-.028-.582-.028-1.166,0-1.745a13.127,13.127,0,0,0-.9-3.957c-.043-.17-.257-.3-.377-.43-1.107.523-1.139.507-1.468,1.168-1.265,2.552-2.5,5.114-2.518,8.088ZM93.59,169.483,85.5,171.258v1.709c2.372.592,4.7,1.176,6.878,1.721,1.362-1,1.593-2.331,1.922-3.59a1.37,1.37,0,0,0-.707-1.616m-18.158,7.411a3.55,3.55,0,0,0,3.225-2.112c.255-.793.29-1.569-.639-2.072a16.892,16.892,0,0,0-5.72,1.352c.432,1.7.525,1.766,2.39,1.853.111.126.257.276.383.442s.227.334.361.537m16.735-8.335c-2.345-1.94-5.57-1.322-6.416,1.247l6.416-1.247m11.266,3.085c.683-1.78,1.855-3.176,2.11-5.068-1,.2-1.794.369-2.72.559.29,1.49-.2,2.986.61,4.508m-15.7,3.582c.811.564,1.62,1.078,2.783.057-1.48.045-2.54-1.038-3.967-.484.091.264.158.45.233.661.3-.071.545-.132.951-.233m23.717-9.412c-1.336.568-1.455.951-.681,2.041.426-.584.965-1.091.681-2.041m-36.1,4.772h-1.3c.4.687.849.4,1.3,0m-2.262,1.287.018.114.363-.063c-.024-.03-.047-.087-.069-.085-.105,0-.207.022-.312.034m70.112,43.448c.024-.655-.274-1.344.626-1.766.564,1.058,1.166,2.145,2.716,2.171a4.128,4.128,0,0,0,3.432-4.174c.105-2.171.2-4.346.18-6.517-.018-2.116-.195-4.23-.272-6.347-.036-.989-.006-1.982-.006-3.229-1.194.965-2.163,1.753-3.138,2.534-.288.229-.6.432-.894.651a1.34,1.34,0,0,1-1.757-.051c-1.279-1.007-2.132-2.212-1.687-3.963a1.566,1.566,0,0,0,.071-.47c-.178-2.947,1.824-4.3,4.024-5.5a2.511,2.511,0,0,1,2.832.272A5.153,5.153,0,0,1,151.43,193c.144,2.22.018,4.458.02,6.687a16.092,16.092,0,0,0,.069,2.986,37.582,37.582,0,0,1,.2,8.56A6.4,6.4,0,0,1,149.4,216.1a5.24,5.24,0,0,1-3.041,1.216c-1.437.083-2.329-.837-3.17-2m2.443-18.284a8.164,8.164,0,0,0,1.5-1.072,13.024,13.024,0,0,0,2.22-2.834,2.086,2.086,0,0,0-2.12-3.154,3.749,3.749,0,0,0-3.116,2.564,23.956,23.956,0,0,0-.409,3.081c1,1.121,1,1.121,1.926,1.415m-37.567-2.029-2.37-.705a4.339,4.339,0,0,0-2.132,3.065,21.654,21.654,0,0,0-.193,6.251,1.92,1.92,0,0,1-1.4.973,13.19,13.19,0,0,1-.519-5.3c.184-.874.389-1.745.511-2.627.257-1.867-.359-2.72-2.428-3.484a2.81,2.81,0,0,0-2.4,2.209,19.419,19.419,0,0,0-1.21,7.478l-1.36.859a5.787,5.787,0,0,1-.334-1.445c.041-.782.328-1.563.312-2.339a18.7,18.7,0,0,0-.4-2.785c-.182-1.022-.711-2-.314-3.235h1.3c.093.8.174,1.5.255,2.209.073.016.148.032.221.047.193-.45.365-.908.578-1.346a7.916,7.916,0,0,1,.959-1.784c1.952-2.226,4.245-1.978,5.785.566.081.132.168.259.316.489,1.066-.614,1.936-1.749,3.322-1.522,1.33.217,2.674.606,3.136,2.049a37.552,37.552,0,0,1,.8,4.127c1.255,1.291-.233,3.178.136,5.049-.266.292-.541.6-.8.888-.308-.16-.531-.2-.559-.3a6.463,6.463,0,0,1-.266-1.352c-.1-1.952-.138-3.906-.253-5.856a13.314,13.314,0,0,0-.367-1.845l-.051.041.373-.057c.022.061.045.124.051.136l-.093-.1-.328-.347.045.049c-.128-.266-.255-.529-.385-.795-.089.047-.178.093-.268.138.1.221.2.44.3.659l.034-.053m1.281,1.9c.111.114.223.225.336.339l.067,1.009.223-.063-.334-.9c-.111-.114-.223-.227-.332-.343-.045-.14-.087-.28-.034-.109l.075.069m108.2-1.241c-.207-2.311-.324-4.638-.673-6.931a5.763,5.763,0,0,0-2.852-4.518,2.028,2.028,0,0,0-3.16.939c-.5.979-.874,2.019-1.283,3.041-.247.614-.452,1.247-.677,1.871-.073-.014-.148-.028-.223-.045-.18-1.129-.361-2.256-.555-3.47l-.943-.089a10.082,10.082,0,0,0-.053,3.527,17.039,17.039,0,0,1,.006,2.035c-.01.369-.069.736-.116,1.1-.105.831-.184,1.666-.334,2.489a1.057,1.057,0,0,0,.756,1.362,2.582,2.582,0,0,0,1.808-2.035,17.576,17.576,0,0,1,.539-1.95c.432-1.3.892-2.589,1.35-3.878q.5-1.4,1.024-2.8c.032-.081.152-.13.278-.231l.951.085a4.605,4.605,0,0,1,1.344,2.712,15.928,15.928,0,0,1,.624,4.826,3.016,3.016,0,0,0,.351,1.048c-.274.73-.768,1.48.282,2.268l1.482-.484a6.687,6.687,0,0,0,.075-.88M73.51,193.558c-1.423.014-2.848.191-4.265.138a3.772,3.772,0,0,0-3.785,2.313,20.071,20.071,0,0,1-1.344,1.94,3.5,3.5,0,0,0-.718,1.2,34.058,34.058,0,0,0-.371,3.77,3.659,3.659,0,0,0,3,3.572c2.485.478,4.98.9,7.437,1.34.62-.312,1.174-.592,1.764-.888-.036-.349-.069-.643-.111-1.06-.438,0-.8-.02-1.166,0a24.673,24.673,0,0,1-7.008-.973,2.656,2.656,0,0,1-2.315-2.931c0-.466.043-.932.069-1.435,1-.067,1.532-.513,1.577-1.488a3.408,3.408,0,0,1,.28-1.06c.689-1.723,1.224-2.672,3.225-2.7a9.5,9.5,0,0,1,4.024.529c.332-.592.645-1.149,1.054-1.877a5.488,5.488,0,0,0-1.352-.4m12.012,11.12-1.024.864a6.68,6.68,0,0,1-3.351-8.919,13.374,13.374,0,0,1,1.569-2.542,2.67,2.67,0,0,1,2.625-1.058,5.954,5.954,0,0,1,4.808,3.43c1.04,1.922,1.111,5.343-.9,7.012a7.323,7.323,0,0,1-3.726,1.214m-.92-1.91a4.566,4.566,0,0,0,3.253-.1,1.91,1.91,0,0,0,1.332-1.632c.17-2.262-.223-4.33-2.347-5.664-.489-.308-.965-.639-1.429-.949a2.333,2.333,0,0,0-2.319,1.332,6.95,6.95,0,0,0-.912,4.4,4.074,4.074,0,0,0,1.563,3.219l.859-.608m41.836-10.081c.162.555.28,1.042.448,1.512a9.773,9.773,0,0,1,.624,1.581,28.115,28.115,0,0,1,.357,3.448c.024.62.006,1.17.809,1.443.347-.324.724-.677,1.1-1.028-.038-.432-.073-.8-.105-1.166a6.915,6.915,0,0,1,1.3-5.082,1.833,1.833,0,0,1,2.749-.537c.227.13.436.294.7.472a9.711,9.711,0,0,1,.442,1.328c.245,1.34.456,2.686.651,4.036a2.459,2.459,0,0,0,1.182,2.009c.4-.442.772-.862,1.161-1.3l-1.332-2.3a5.743,5.743,0,0,0-2.21-6.093c-3.026-.782-3.967,1.541-5.3,3.32-.961-.482-.849-2.236-2.566-1.648m66.183-2.566c1.135-2.4,2.972-2.692,5.228-2.337a4.947,4.947,0,0,1,2.171,1.966c1.184,2.568.979,5.583-1.877,6.882a3.037,3.037,0,0,1-3.57-.784,5.963,5.963,0,0,1-1.63-3.673,14.409,14.409,0,0,0-.322-2.053m1.684-.195c-.156,3.586.742,4.942,3.32,5.22,1.492-.671,1.561-2.023,1.38-3.345-.229-1.695-1.547-2.362-3.055-2.8-.555.312-1.1.618-1.646.924m-10.553,8.2c-.379.351-.641.594-.868.807-1.48-.328-1.849-.669-3-2.773a9.649,9.649,0,0,0-.01-1.32c-.255-1.987.72-3.1,2.434-3.951,2.082-1.028,5.376.993,5.246,3.18-.055.93-.01,1.865-.01,2.7-1.232.839-2.3,1.652-3.791,1.36m-.241-5.966a3.279,3.279,0,0,0-2.6,1.922c.73,2.124.73,2.124,1.3,2.51l.809-.616c1.368.884,1.49.878,2.858-.087.16-2.252-.306-3-2.36-3.728m-12.247-4.054c-.89,1.147-1.668,2.126-2.418,3.126-.789,1.048-1.547,2.118-2.329,3.195.539,1.1,1.605,1.084,2.578,1.226.943.138,1.891.233,2.87.351.343.43.661.833,1.016,1.281-.29.732-.549,1.391-.813,2.055-.391-.2-.655-.339-.991-.513-.235.941-1.026,1.719-.008,2.568a2.18,2.18,0,0,0,2.321-1.494,21.027,21.027,0,0,0,.876-2.69c.347-1.583-.189-2.376-1.987-2.8-.3-.073-.657.051-.949-.039-.813-.249-1.794-.1-2.489-.963,1.009-1.4,1.991-2.761,3.059-4.243l-.736-1.064M118.77,198.828c0,1-.521,2.013.27,3.16.557-.525,1.032-.975,1.322-1.251-.1-1.861-.184-3.468-.268-5.037-.509-.5-.959-.48-1.553.16.075.89.229,1.93.229,2.968m1.251-10.549c-.9-1.117-3.434-1.577-5.191-.9v1.429c3.369.391,4.127.308,5.191-.527m-11.676,7.095,0-.365.045.049-.357,0,.034-.053.326.326ZM56.492,37.643c.085.389.172.78.328,1.492.383-.922.089-1.226-.367-1.453Zm-.039.039-.268-.557L56,37.266l.495.377Zm40.774,73.3c.077-.012.152-.034.229-.053l-.264-.028.034.081" transform="translate(0 0)"/>
  </g>
</svg>
