<svg xmlns="http://www.w3.org/2000/svg" xmlns:xlink="http://www.w3.org/1999/xlink" width="37" height="108.07" viewBox="0 0 37 108.07">
  <defs>
    <style>
      .cls-1 {
        fill: none;
      }

      .cls-2 {
        clip-path: url(#clip-path);
      }

      .cls-3 {
        fill: #121212;
        fill-rule: evenodd;
      }
    </style>
    <clipPath id="clip-path">
      <rect id="Rectangle_56" data-name="Rectangle 56" class="cls-1" width="28.17" height="49.261"/>
    </clipPath>
  </defs>
  <g id="Group_251" data-name="Group 251" transform="translate(-1225 -97)">
    <g id="Group_99" data-name="Group 99" transform="translate(1228 102)">
      <g id="Group_98" data-name="Group 98" class="cls-2">
        <path id="Path_127" data-name="Path 127" class="cls-3" d="M8.708.021c.284-.1.828.208,1.074.315a3.092,3.092,0,0,1,1.58,1.29,3.156,3.156,0,0,1,.319,1.028,6.12,6.12,0,0,1,.058.637,1.938,1.938,0,0,1,.018.506c-.044.191-.264.216-.376.029-.242-.4-.029-.794-.218-1.309a1.892,1.892,0,0,0-.854-1.125A2.481,2.481,0,0,0,9.667,1.2c-.252-.049-.659.008-.873-.156a1.025,1.025,0,0,1-.263-.6C8.51.188,8.584.065,8.708.021M1.161,5.469a6.582,6.582,0,0,0,1.833.215A5.363,5.363,0,0,0,4.982,5.5c-.1.035-.214-1.1-.2-1.206.042-.412.38-1,.749-.476a.812.812,0,0,1,.109.446A4.7,4.7,0,0,1,5.709,5.5h.146c.244.166.748.041,1.018,0-.035-.506-.257-.982-.291-1.454a9.91,9.91,0,0,1,.024-1.238c.012-.231.026-.462.036-.693a1.107,1.107,0,0,1,.113-.554c.131-.176.472,0,.588.147.269.348-.011.783-.05,1.162a4.656,4.656,0,0,0,.036,1.085,5.64,5.64,0,0,0,.229.936,1.6,1.6,0,0,0,.218.514c.144.178.388.037.557-.015a4.729,4.729,0,0,1,.594-.12A7.556,7.556,0,0,1,10,5.135c.116,0,.391.279.441.381.155.31.038.514-.291.568a16.373,16.373,0,0,1-2.126.21A10.305,10.305,0,0,0,9.563,9.773a.738.738,0,0,0,.269-.557q.123-.781.246-1.561a2.579,2.579,0,0,1,.44-1.271.327.327,0,0,1,.167-.124c.2-.048.265.3.338.424a.743.743,0,0,1,.141.56,22.526,22.526,0,0,0-.873,3.636,1.975,1.975,0,0,0,.288.51c.116.144.376.266.45.41.149-.091.15-.25.206-.4.041-.108.12-.277.239-.319.3-.107.334.956.3,1.118a.56.56,0,0,1-.373.416,1,1,0,0,1-.39.088c-.179-.01-.227-.131-.348-.251-.068-.067-.867-.721-.812-.778l-.072.073c-.355.355-.626.788-1.005,1.12a1.965,1.965,0,0,1-.821.432,1.26,1.26,0,0,1-.464.031c-.217-.03-.262-.075-.328-.274h.072c.02,0,.2-.148.256-.167a2.989,2.989,0,0,0,1.78-2.161A13.753,13.753,0,0,1,7.6,7.535c-.195-.394-.194-.967-.582-1.163-.253-.14-.716-.016-1.163,0a8.471,8.471,0,0,0,.291,2.182c.068.1.289.14.394.2.152.08.418.338.268.493-.119.124-.439.111-.589.111-.031.621.01,1.243,0,1.864a6.324,6.324,0,0,1-.068.883,2.326,2.326,0,0,1-.121.56.347.347,0,0,1-.148.192c-.424.227-.888-.345-1.188-.591l-.727-.873v-.145c0-.131.242-.036.282,0,.1.088.186.25.29.35a1.811,1.811,0,0,0,.883.524c.076-1.064,0-1.9,0-2.909l-.072-.073L4.4,8.989c-.18.019-.536.24-.8.146-.132-.047-.246-.151-.38-.207-.091-.038-.1-.3-.085-.395.026-.153.111-.2.267-.2.231,0,.462.009.694.015a2.981,2.981,0,0,0,1.1-.011.965.965,0,0,0,.073-.509,4.773,4.773,0,0,0-.218-1.382,2.824,2.824,0,0,0-1.37-.124c-.3,0-.594.016-.89.028a1.936,1.936,0,0,1-.771-.03A3.729,3.729,0,0,0,.886,6.2.887.887,0,0,1,.11,5.79c-.317-.434.119-.631.426-.842q.54-.371,1.058-.772A12.052,12.052,0,0,0,3.658,2.245a3.119,3.119,0,0,0,.6-1.036c.057-.193-.118-.482.036-.651A.694.694,0,0,1,4.98.5c.123.092.329.661.22.786a8.771,8.771,0,0,0-.509.945l-.364.291a7.836,7.836,0,0,1-1.6,1.745c-.313.22-.678.356-1,.56a1.7,1.7,0,0,0-.456.383c-.036.047-.137.168-.128.232a.057.057,0,0,0,.017.031" transform="translate(0 0)"/>
        <path id="Path_128" data-name="Path 128" class="cls-3" d="M37.751,32.909c.005-.05,1.463-.049,1.572-.051.31-.007.619-.014.928-.018.272,0,.46.257.524.518a1.508,1.508,0,0,1,.03.351c0,.13-.235.337-.355.36-.157.029-.331-.123-.452-.215a.7.7,0,0,0-.581-.105l-1.012.106c-.423-.016-1.837.089-2.473.073a3.944,3.944,0,0,0-1.093.189c-.19.05-.38.1-.574.134-.242.042-.352.056-.486-.169a1.219,1.219,0,0,1-.145-.382c-.064-.318.161-.37.429-.426a8.225,8.225,0,0,1,.926-.115c.623-.058,1.272-.056,1.888-.176v-.145a2.215,2.215,0,0,0,.2-1.351c-.018-.28-.1-.554-.117-.836-.027-.388.038-.481.428-.544a.718.718,0,0,1,.268-.03c.464.178.268.857.236,1.213-.048.54-.089,1.081-.143,1.621m8.508-2.763c.17.014.206.014.291.073a15.419,15.419,0,0,1,1.891,1.236c.267.141.682.242.8.509a.561.561,0,0,1-.252.716c-.4.2-.62-.159-.911-.353-.623-.414-2.071-.983-2.181-1.818.058-.075.026-.02.072-.146a1.3,1.3,0,0,0,.291-.218m-.727,5.672A22.559,22.559,0,0,1,48,35.673a1.109,1.109,0,0,1,.218.727,1.8,1.8,0,0,0-.364.291,3.147,3.147,0,0,0-2.254.145,1.761,1.761,0,0,0-.073.8c.455-.029.637-.087.873.218.183.284.085.728.218,1.091.31.845,1.158,2.952,2.182,2.763a6.776,6.776,0,0,0,.727-1.382c.094-.391-.223-.765-.111-1.145a.48.48,0,0,1,.33.272c.873,1.033.156,3.313-1.018,3.418-.521.3-.917-.349-1.163-.582A7.866,7.866,0,0,1,45.6,38.363h-.146a14.538,14.538,0,0,1-.526,2.5,2.491,2.491,0,0,1-.607,1c-.209.177-.6.2-.674-.138-.081-.378.373-.983.5-1.328a10.316,10.316,0,0,0,.436-3.418c-.493.036-.673.2-1.236.218a1.22,1.22,0,0,1-.291-.8c.338-.18,1.139-.19,1.454-.436.265-.41.085-1.147.073-1.672l.073-.073c.3-.023.332-.1.509,0,.237.076.285.13.364.364.13.21.012.833,0,1.236m-9.269,7.009c-.055-.053-.022-.148,0-.274a2.535,2.535,0,0,1,.239-.659,1.245,1.245,0,0,1,.954-.767c.118.109.147.113.364.145a8.28,8.28,0,0,0-.364-1.89,2.4,2.4,0,0,1-1.454-2.618c.093-.343.287-.638.394-.974.089-.281-.057-.838.332-.961.305-.1.78.292,1.076.364.84.2,1.367.452,1.616,1.353a1.549,1.549,0,0,1,.073.727,4.04,4.04,0,0,1-.291.655c-.227.366-.9.664-1.018,1.018.338.307.157,1.087.436,1.454.141-.255.3-.325.655-.364.038,0,.216.154.259.179a3.4,3.4,0,0,0,.357.174c.256.11.518.2.775.309a2.365,2.365,0,0,1,.814.509,1.138,1.138,0,0,1,.361.732c-.024.271-.381.34-.6.351A9.934,9.934,0,0,0,38.7,40.836V42.1a3.967,3.967,0,0,1-.044.962,4.928,4.928,0,0,0-.01.96,2.133,2.133,0,0,1-.13.535,2.821,2.821,0,0,1-.18.568,1.141,1.141,0,0,1-.364.073c-.12.067-.228.034-.363-.073-.109-.118-.113-.147-.146-.364.319-.206.376-2.147.364-2.763h-.146c-.095,0-.439.4-.524.473-.271.236-.372.451-.772.4a.206.206,0,0,1-.12-.045m2.07-6.645c.166.075.158.125.291.218v.8c-.234.23-.381.617-.655.8-.118.079-.265.066-.363.146H37.46c0-.718-.059-1.407-.073-2.036.338-.051.711-.145.945.072M36.588,37.2v.436h-.146l-.072-.073a1.153,1.153,0,0,1,.072-.364Z" transform="translate(-21.967 -19.644)"/>
        <path id="Path_129" data-name="Path 129" class="cls-3" d="M36.308,102.878l-.006-.011c-.111-.223-.007-.3.141-.466a2.439,2.439,0,0,0,.757-1.667,3.568,3.568,0,0,0-1.089-.658c0,.049,0,.1,0,.146-.437.651-.2,2.449-1.243,2.469-.146,0,.13-1.331.14-1.446a10.466,10.466,0,0,0,.087-1.535,2.388,2.388,0,0,0-.727-.075c-.088,0-.168.063-.274.053-.308-.029-.411-.243-.466-.526a.412.412,0,0,1,.091-.389c.284-.288.728-.146,1.065-.052a9.547,9.547,0,0,1,1.186.264,5.839,5.839,0,0,1,1.232.694,2.958,2.958,0,0,1,.949.845,1.491,1.491,0,0,1-.06.928,1.641,1.641,0,0,1-.328.63c-.236.283-1.17,1.289-1.454.795M30,101.077c-.027-.6-.022-1.264.367-1.453.333-.162.532.085.621.4s-.154.6-.109.941a.058.058,0,0,0,.055.061.866.866,0,0,0,.618-.038.762.762,0,0,1,.484-.053c.281.088.655.629.288.792a7.28,7.28,0,0,0-1.165.369.79.79,0,0,0-.074.436l.072.073c1.319-.033,3.071.468,2.467,2.043a2.321,2.321,0,0,1-.57.8,3.866,3.866,0,0,1-.363.345.471.471,0,0,1-.565,0c-.114-.076-.414-.254-.4-.42.009-.1.114-.147.2-.189a1.541,1.541,0,0,0,.819-.993.467.467,0,0,0-.071-.458.529.529,0,0,0-.274-.111q-.484-.092-.975-.143a.077.077,0,0,0-.044,0,.078.078,0,0,0-.031.053,1.268,1.268,0,0,0-.042.482c.012.086.038.17.059.255.15.622-.009,1.272.14,1.9.139.584.061,1.522.14,2.036a10.532,10.532,0,0,1,.185,2.249c-.014.215,0,.814-.232.9-.165.059-.448-.084-.594-.157-.175-.087-.253-.064-.326-.251a1.451,1.451,0,0,1-.087-.3c-.032-.207.09-.251.174-.42a2.937,2.937,0,0,0,.079-1.364c-.085-.148-.042-.3-.071-.509-.059.074-.026.02-.073.145-.145.383-.514.918-.947.579-.31-.242.059-.741.163-.963s.171-.456.257-.684c.047-.124.174-.559.314-.606l.218-.072a12.711,12.711,0,0,0-.283-2.982h-.145c-.225.427-.345.938-1.02.942-.23,0-.447-.373-.479-.569-.055-.333.313-.514.337-.813.021-.261-.055-.719.083-.951.029-.05.444-.269.357-.357a.521.521,0,0,1,.439-.944m-3.992.66c.39-.208.684.262.7.591s-.016.66-.036.988a11.905,11.905,0,0,0-.069,2.191,1.528,1.528,0,0,0,.043.214c.481-.156,1.173.428,1.5.7a4.1,4.1,0,0,1,.7.713c.111.15.323.439.2.641-.083.14-.312.086-.467.065-.214-.029-.3-.24-.471-.382a3.022,3.022,0,0,0-.652-.408c-.072-.035-.751-.277-.751-.311,0,.048,0,.1,0,.145a4.765,4.765,0,0,0,0,.864c.064.381.164.755.249,1.132.094.41.41,1.4-.1,1.666-.681.351-1.07-3.537-1.093-3.918a16.21,16.21,0,0,1,.085-3.673c.044-.261.008-.525.03-.787.009-.105.017-.333.1-.411a.127.127,0,0,1,.029-.021m4.206.5c.047.126.014.071.072.146q0,.145,0,.291l-.073-.073c-.222-.123-.167-.189-.144-.364h.145m4.932,6.7.013.019a11.773,11.773,0,0,1,1.9-.152,1.325,1.325,0,0,1,1.208.509c.142.15.121.2.072.364-.2.665-.5.294-1.019.143a3.926,3.926,0,0,1-1.01,2.133c-.22.3-.4.638-.609.946-.139.2-.337.653-.618.682-.3.031-.456-.334-.441-.582.018-.315.367-.611.532-.866.241-.372.455-.761.659-1.154a7,7,0,0,1,.541-1.09h-.291a2.475,2.475,0,0,0-1.137.088c-.429.073-.448-.045-.7-.37a7.3,7.3,0,0,0-1.287-1.4,4.453,4.453,0,0,1-.974-.717c-.1-.128-.252-.427-.184-.595.05-.123.36-.226.488-.213a1.825,1.825,0,0,1,.368.176,1.832,1.832,0,0,1,.378.184c.438.318.689.868,1.16,1.167q0-.254,0-.509a3.434,3.434,0,0,0,.077-1.309,14.515,14.515,0,0,0-.089-1.488c-.025-.254-.054-.507-.079-.761a1.214,1.214,0,0,1-.036-.363c.036-.117.077-.107.211-.152.191-.151.224-.089.582-.071.115.227.128.372.435.438.226-.214.437-.185.8-.288,2.526-.717,2.46,1.5,3.045,3.353a6.272,6.272,0,0,1,.43,2.183c-.04.272-.081.339-.292.435-.416.189-.585-.135-.782-.462a.45.45,0,0,1-.012-.593.867.867,0,0,0,.023-.633l-.372-1.685a2.437,2.437,0,0,0-.748-1.523,1.663,1.663,0,0,0-2.066.335c-.157.158-.3.4-.189.591s.365.195.578.181l.962-.062a1.358,1.358,0,0,1,.656.066.467.467,0,0,1,.284.537c-.086.243-.4.3-.654.326l-1.416.119c-.166.014-.374.064-.4.228a.261.261,0,0,0,.179.265.762.762,0,0,0,.342.022l.678-.059a1.835,1.835,0,0,1,.78.044.627.627,0,0,1,.445.584.286.286,0,0,1-.137.239.407.407,0,0,1-.142.032l-1.556.16a.946.946,0,0,0-.469.134.333.333,0,0,0-.119.412m-10.822-4.8c.331-.08.625.338.647.634.1.2-.1.722-.148,1.018-.1.62.176,1.623.067,2.182-.046.223-.366.067-.482,0-.5-.28-.46-1.27-.471-1.762-.008-.355,0-.71,0-1.065,0-.236-.13-.728.1-.865l.171-.1a.4.4,0,0,1,.109-.045m13.5,6.185a1.47,1.47,0,0,1,.653.325,11.2,11.2,0,0,0,1.023,1,5.2,5.2,0,0,0,1.736.631,3.521,3.521,0,0,1,.9.247c.5.291.3.705-.021,1.02-.422.332-1.066-.04-1.454-.222a11.281,11.281,0,0,1-1.829-1.114,5.5,5.5,0,0,1-1.055-.906c-.114-.14-.356-.422-.348-.617.013-.317.188-.395.4-.365" transform="translate(-15.618 -64.418)"/>
      </g>
    </g>
    <rect id="Rectangle_145" data-name="Rectangle 145" class="cls-1" width="37" height="108.07" transform="translate(1225 97)"/>
  </g>
</svg>
