<svg id="Group_97" data-name="Group 97" xmlns="http://www.w3.org/2000/svg" xmlns:xlink="http://www.w3.org/1999/xlink" width="70.667" height="108.072" viewBox="0 0 70.667 108.072">
  <defs>
    <style>
      .cls-1 {
        fill: none;
      }

      .cls-2 {
        clip-path: url(#clip-path);
      }

      .cls-3 {
        fill: #121212;
        fill-rule: evenodd;
      }
    </style>
    <clipPath id="clip-path">
      <rect id="Rectangle_55" data-name="Rectangle 55" class="cls-1" width="70.667" height="108.072"/>
    </clipPath>
  </defs>
  <g id="Group_96" data-name="Group 96" class="cls-2">
    <path id="Path_126" data-name="Path 126" class="cls-3" d="M16.713,29.066a26.267,26.267,0,0,1-4.545-.158c-1.792-.111-3.354,1.134-4.285,1.676-1.44.839-4.2.541-4.715-.266-.551-.462-.171-1.092-.507-1.634s-.7-.092-.831-1.125c.179-.349.335-.784.479-1.125A1.587,1.587,0,0,1,1.06,25.4a4.424,4.424,0,0,0,.586-1.293C1.588,24.478-.042,23.8,0,23.1a1.751,1.751,0,0,1,.168-.565,1.942,1.942,0,0,1,1.06-1.245,14.469,14.469,0,0,1,1.531-.644,16.068,16.068,0,0,1,2.866-.914,25.679,25.679,0,0,1-.977-3.882,2.216,2.216,0,0,1,.389-1.531c1.977-2.462,3.693,3.071,3.995,4.368a1.876,1.876,0,0,0,1.171.031c.687-1.252,3.6-1.281,3.562-2.97-1.575-1.168-1.853-5.176-2.413-7.614-.279-1.218-.892-2.043-.953-2.99a2.239,2.239,0,0,1,.663-.292l.169.108A22.426,22.426,0,0,1,12.784,10a6.185,6.185,0,0,0,.275,2.558c1.191,2.32,2.333,4.812,3.523,7.368,1.138,2.444,1,7.6,1.009,9.816.013,3.243,2.619,8,3.69,10.1q.492,2.219.983,4.438c.336,1.432.862,3.273,1.044,4.716a9.882,9.882,0,0,1,.379,2.624c-.123.856-.429,1.535,0,2.384.487.961,1.9,3.758,1.969,4.948a15.5,15.5,0,0,0,.936,4.885c.414.841,1.023,2.419,1.461,3.314l.461,2.08a7.954,7.954,0,0,0,.616,1.322c.222.5.432,1,.626,1.511.218.577.409,1.164.582,1.757.095.323.183.647.27.972s.041.513.4.434c.76-1.18,2-1.929,2.976-2.986,1.138-1.239,2.074-2.788,3.177-4.05.606-.694,1.669-1.331,1.651-2.4a4.7,4.7,0,0,1-1.445-3.9c.156-.544.561-.657.556-1.433A18.128,18.128,0,0,1,34.427,58.3a14.381,14.381,0,0,1-1.993-1.575c-.213-.219-.61-.6-.569-.944a1.172,1.172,0,0,1,1.187-.683c.131.054.32.319.44.414.239.188.492.36.749.523.509.325,1.041.611,1.564.913.608.352,1.227.69,1.865.986a3.9,3.9,0,0,0,1.229.492c.52.041.473-.557.083-.756-.994-.508-1.522-1.421-2.434-2.021-.407-.267-.87-.427-1.272-.7s-.805-.337-1.205-.567c-.354-.2-.642-.5-1-.7-.205-.117.183-.626.283-.693a2.343,2.343,0,0,1,.875-.205,2.306,2.306,0,0,1,1.386.157,3.688,3.688,0,0,1,.792.407A12.31,12.31,0,0,1,37.824,54.5a8.093,8.093,0,0,0,1.452,1.105c.215.117,1.54.692,1.729.382.232-.382.446-.463.509-.986a9.035,9.035,0,0,1-3.8-1.952c-.6-.441-1.191-.9-1.8-1.34-.416-.3-1.632-.79-.846-1.357.223-.161.578-.436.885-.393.341.047.724.49.993.7a5.473,5.473,0,0,0,2.44,1.325l-.031-.139c.305-.845-.952-5.034-1.243-6.273l-.416.092c-.234.682-1.41,2.687-2.206,2.525-.489-.078-.392-.041-.569-.6a7.217,7.217,0,0,0,2.283-2.833,3.446,3.446,0,0,1-2.264-1.681c-.344-.583,0-.962-.553-1.187A27.648,27.648,0,0,1,32.247,46c-.106.178-.538-.26-.589-.359-.232-.451.157-.69.384-1.079.463-.8.69-1.7,1.07-2.535.271-.593.843-.939,1.245-1.427.545-.664.41-1.608,1.253-1.983.631-.281,1.116-.277,1-1.147-.559-.515-.347-1.467-.8-2.3C35.177,34,34.5,32.33,33.892,31.083l-.614-2.774c-1.048-2.3-1.27-7.952-1.271-10.34a24.933,24.933,0,0,0-1.612-6.627,11.9,11.9,0,0,1-.568-3.221c-.355-2.781-1.4-5.71-1.334-8L29.048,0q.031.139.062.277c.606.617.585,2.541.8,3.606.61,3.056,1.259,6.229,1.918,9.323a12.945,12.945,0,0,1,3.927,2.623l2.541,1.62c1.948,1.717,3.872,3.4,5.681,5.289a13.312,13.312,0,0,1,1.663,2.251c.258.452.16,1.067.446,1.356a1.535,1.535,0,0,0,.863-.046c.41-.087.733-.5,1.265-.535a7.5,7.5,0,0,1,1.667.223,3.037,3.037,0,0,0,1.558-.014c.554-.212.57-.76,1.028-1.041a14.48,14.48,0,0,1,1.464-.615l1.526-.338c2-.906,3.135-.11,4.469.466A12.4,12.4,0,0,1,65.9,30.4l.4,1.8a31.126,31.126,0,0,1,.424,8.49c-.019.559.372.686.492.909.707,1.315.513,2.5,1.137,3.822.538,1.143,1.631,3.364,1.583,5.179-.041,1.545.059,3.73,0,5.239a21.338,21.338,0,0,0,.689,4.041c.25,1.653-.492,2.845-1.019,4.326-.159.447.04.9-.034,1.349a12.429,12.429,0,0,1-.631,2.376c-.252.662-.681,1.253-.9,1.919a7.894,7.894,0,0,0-.287,1.751c-.039.462.183.956.157,1.433-.032.617-.569.883-.684,1.449q.092.416.184.832c-.317,1.853-1.373,3.634-1.7,5.468-.294,1.651-.1,3.021-.6,4.5-.619,1.83-2.287,3.149-2.993,4.882-.643,1.578-.911,3.527-1.992,4.806-.8.948-1.618,1.765-2.452,2.726-.852.98-1.36,2.367-2.329,3.28l-2.312,1.385a47.757,47.757,0,0,1-4.333,3.433c-1.021.665-3.593,2.453-5.611,2.26-.334-.032-.716-.442-.986-.509-1.987-.495-3.452.158-4.93-1.237-.827-.781-1.308-1.7-2.14-2.436L31.861,102.1c-.7-.651-1.17-1.3-1.878-1.912l-1.8-.911c-.824-.82-.878-2.508-1.631-3.422-.963-1.17-2.466-2.077-3.356-3.331-.435-.613-.425-1.149-.846-1.85-.54-.9-1.352-2.168-1.846-3.083q-.107-.485-.215-.971c-.5-.779-2.061-3.1-2.015-4.5.035-1.057.157-5.47.514-6.224l.848-.77q.525-.916,1.049-1.833c.714-.825,1.384-1.723,2.067-2.495a14.149,14.149,0,0,1,2.475-1.839,5.67,5.67,0,0,0,1.573-1.34c.4-.618-.2-1.152-.457-1.737a19.49,19.49,0,0,1-1.572-5.327,4.531,4.531,0,0,1-.037-.525c0-.136.092-.88.062-1.033a16.338,16.338,0,0,0-1.338-2.759c-.272-.546-.385-1.517-.569-1.911-.73-1.564-.111-3.022-.058-4.206q-.63-2.843-1.259-5.687c-.577-1.12-.613-3.4-1.352-4.793-.35-.662-1.056-1.739-1.416-2.451-.758-1.5-.967-3.317-1.629-4.732-.546-1.165-.193-2.161-.46-3.39M1.232,22.89a2.141,2.141,0,0,1,.155-.616c1.013-.293,2.719-.683,3.345-1.323a7.589,7.589,0,0,0,2.05-.6,20.547,20.547,0,0,0-.877-2.81c-.142-.532-.452-4.09.826-2.59a4.936,4.936,0,0,1,.451,1.5,6.811,6.811,0,0,0,1.45,3.05c.213.286.3.248.539.463A15.518,15.518,0,0,0,14.1,17.276c1.149.379.9,2.3,1.522,3.591a12.812,12.812,0,0,1,.842,7.089c-1.4.573-3.133.147-4.623.15-1.728,0-3.322,1.038-4.454,1.568a4.473,4.473,0,0,1-3.005.229c-.427-.074-.265.04-.508-.324-.144-.118-.059-.023-.2-.247A4.123,4.123,0,0,1,4.6,28.255c.807-.511,2.039-.552,2.481-1.277.081-.167.044-.045.078-.308-.144-.118-.059-.023-.2-.246-1.243.179-2.572,1.049-3.9,1.445-.04-.328-.059-.4.016-.586.217-.895,2.267-1.724,3.33-2.046l.108-.169a1.483,1.483,0,0,0-.462-.771c-.622.232-2.51.738-2.929,1.23a1.483,1.483,0,0,1-.893-.094,2.141,2.141,0,0,1,.155-.616,10.064,10.064,0,0,0,3.22-1.874c1.054-1.146-.9-.7-1.484-.535-.985.27-1.939.715-2.936.93-.008-.3-.025-.275.047-.447M38.894,19.5c1.079.957,2.5,1.828,3.542,2.853A16.635,16.635,0,0,1,44.7,25.345c.259.432.254.89.553,1.187.135,1.255-2.261,2.108-2.776,3.233a16.227,16.227,0,0,0-1.454,6.579q.169.763.338,1.526c-.034,1.2-.074,3.812.75,5.363a13.416,13.416,0,0,0,6.621,6.246c.648.3,1.232,1.065,2,1.157l1.664-.368c.875.045,1.944.483,2.742.557,1,.093,1.739-.675,2.266-.938l1.248-.276a9.587,9.587,0,0,0,1.095-.97c.771-.581,1.488-.4,2.127-.907a18.505,18.505,0,0,0,1.959-2.325c.94-1.055,2.051-1.564,2.561-2.9l.139-.031a10.109,10.109,0,0,0,1.092,2.959c.42.819.472,2.205.783,2.882a4.225,4.225,0,0,1,.2,1.556l.461,2.08c-.062,1.549.154,3.568.134,5.209-.019,1.594.744,2.83.505,4.253a15.555,15.555,0,0,1-.927,2.388c-.249.7-.05,1.373-.264,2.1-.365,1.234-.963,2.607-1.344,3.79-.478,1.484-.116,3.075-.774,4.391a23.154,23.154,0,0,1-2.468,3.31c-.516.442-.909.479-1.234,1-3.528.744-5.967-2.173-7.994-3.905-1.44-1.229-3.312-1.751-5.067-2.515-.928-.648-1.878-1.273-2.766-1.967-1.19-.93-2.523-1.082-3.857-1.659a8.851,8.851,0,0,1-2.145-1.578,10.14,10.14,0,0,1-2.087-2.289,3.46,3.46,0,0,1-.188-3.111,10.286,10.286,0,0,1,1.322-2.654A11.055,11.055,0,0,1,43.965,54.9a4.136,4.136,0,0,1,3.095.017,8.34,8.34,0,0,1,1.536.365,2.178,2.178,0,0,1,.972,1.275,12.965,12.965,0,0,1,.345,1.828c.229,1.266,3.125.632,3.956,1.161l2.88,1.836c.895.57,1.837,1.062,2.725,1.643.444.291.774.793,1.279,1,.893.359.8-.627.277-1.1a14.035,14.035,0,0,0-1.876-1.2c-2.245-1.452-5.023-4.009-7.918-3.594a.621.621,0,0,1-.238.006c-.4-.1-.583-1.463-.679-1.812a2.749,2.749,0,0,0-.866-1.619,8.542,8.542,0,0,0-3.728-1.066l-2.358.522a8.092,8.092,0,0,1-2.788-1.42c-.65-.979-.376-6.121-1.627-7.351.076-.829,1.082-1.241,1.3-2.033a4.416,4.416,0,0,0-2.584-5.1,27.958,27.958,0,0,0-2.676-6.828q-.446-2.011-.891-4.022a30.153,30.153,0,0,1-.934-7.505q-.276-1.248-.552-2.5a7.247,7.247,0,0,1-.07-2.546c2.47.61,4.525,3.024,6.355,4.647m26,10.977c1.227,2.515.748,5.351,1.1,7.613l-.139.031c-1.245-1.918-1.622-5.327-3.338-6.536-.584-.85-2.858-1.212-4.437-.327-1.216.681-2.137,1.73-3.546,2.386-2.219,1.033-3.886-.056-5.547-.081-1.189-.019-3.439,1.891-3.962,2.477-1.181,1.323-.244,5.4-1.5,7.025l-.108.169-.508-.324a10.957,10.957,0,0,1-.521-3.668l-.368-1.664c.088-4.645.041-6.85,3.6-9.381a7.539,7.539,0,0,1,5.935-1.326c.944.174,1.318-1.05,2.034-1.456.691-.392,1.843-.193,2.327-.661,3.855-.886,7.537,2.769,8.978,5.724M52.451,40.652l.139-.031c.029.426.034.484-.124.755.408,1.722-1.093,3.192-2.007,4.082.22.923,1.661.616,2.665.865a4.059,4.059,0,0,0,2.037.351,5.687,5.687,0,0,0,1.652-.752,5.754,5.754,0,0,0,2.306-2.091c.182-.442.267-.916.447-1.358.09-.218.207-.322.1-.539a.808.808,0,0,0-.357-.3,3.3,3.3,0,0,0-2.13.007l-.169-.108c-.231-.149.145-.708.129-.905a1.993,1.993,0,0,0-.506-.869c-.182-.221-.508-.624-.794-.69-.387-.089-1,.328-1.362.457a13.85,13.85,0,0,1-1.566.455,3.768,3.768,0,0,1,.343-1.637,1.541,1.541,0,0,0-.2-1.586,1.688,1.688,0,0,0-1.664-.1A12.482,12.482,0,0,0,44.9,41.648c-.322-1.178.572-2.42.305-3.612a1.561,1.561,0,0,1-.089-.651,1.066,1.066,0,0,1,.279-.463,13.219,13.219,0,0,1,2.148-1.959,3.207,3.207,0,0,1,1.282-.636,3.1,3.1,0,0,1,1.185.073,18.948,18.948,0,0,0,2.414.5,5.03,5.03,0,0,0,2.86-.639c1.455-.828,2.541-2.4,4.194-2.665a5.865,5.865,0,0,1,1.649.051,1.034,1.034,0,0,1,.437.123,1.015,1.015,0,0,1,.253.266,11.843,11.843,0,0,1,2.63,5.089.6.6,0,0,1-.37-.249,5.671,5.671,0,0,0-5.1-1.962c-.7.134-1.352.433-2.048.568a2.6,2.6,0,0,0-1.49.528,1.358,1.358,0,0,0-.2,1.356A2.984,2.984,0,0,0,56.428,38.9c1.957,1.017,5.349-.1,7.179.884a5.509,5.509,0,0,1,2.42-.245c.233,2.859-1.152,3.305-2.685,4.96l-1.08,1.694c-.7.692-1.722.778-2.59,1.446a18.634,18.634,0,0,1-1.866,1.432c-1.834,1.039-3.435.411-4.73.32l-1.942.43c-.938-.1-1.744-1.055-2.51-1.482-1.817-1.011-4.066-1.78-4.773-4.472,3.514-.742,7.033-.535,8.6-3.213M37.568,39.145a2.574,2.574,0,0,0,.647.293A10.666,10.666,0,0,1,39.4,42.813l-.324.508a3.507,3.507,0,0,1-2.25.353c-1-.478-1.019-1.725-1.292-3.206a8.183,8.183,0,0,0,.509-.985l1.526-.338M60.1,35.692c.256,0,.508,0,.747.015a2.665,2.665,0,0,1,1.523.654,13.564,13.564,0,0,1,1.158,1.168,6.419,6.419,0,0,0,.6.568c.239.191,1.071.484.4.764a2.967,2.967,0,0,1-1.278.034c-.7-.052-1.39-.245-2.092-.317-1.111-.113-2.338.438-3.2-.018a.16.16,0,0,1-.093.007c.26-.331.806-.434,1.17-.6.245-.113.49-.226.738-.333.686-.3.064-1.02-.391-1.174a3.854,3.854,0,0,0-2.131.221c-.086.024-.354.411-.416.5-.136.2-.108.384-.194.585-.042.1-.569.156-.593.052-.238-1.044-.015-1.088.356-1.679.665-.124,1.331-.242,2-.329a14.5,14.5,0,0,1,1.7-.119m-7.765,1.766a.464.464,0,0,1,.293.095c.355.452-.394,1.605-.558,2.02-1.114,2.81-3.816,2.848-7.26,3.353a49.51,49.51,0,0,1,3.239-3.773c.642-.575,1.6-.748,2.174-1.354a4.641,4.641,0,0,1,2.113-.341m-2.268.957a2.046,2.046,0,0,1,1.193.113c.385.2.876.965.456,1.356a4.976,4.976,0,0,1-.827.466,4.419,4.419,0,0,1-1.085.53,1.082,1.082,0,0,1-.925-.084,1.123,1.123,0,0,1-.5-.925,2.022,2.022,0,0,1,.645-.918,1.259,1.259,0,0,1,.456-.268,5.764,5.764,0,0,1,.589-.271m8.582-1.3a.183.183,0,0,1,.118.046c.451.518-1.477.623-.975.128a1.417,1.417,0,0,1,.628-.166,1.3,1.3,0,0,1,.228-.008M50.7,39.285a.947.947,0,0,1,.235.073c-.063.267-.409.465-.627.59a2.264,2.264,0,0,1-.434.205c-.249.08-.586.1-.535-.2.041-.243.355-.431.5-.613.106-.138.562-.116.864-.054m5.221.808a.438.438,0,0,1,.262.315,1.025,1.025,0,0,1,.059.525,2.825,2.825,0,0,1-.532-.138c-.2-.057-.429-.182-.6,0-.219.232-.071.5-.5.562-.223.03-.523-.065-.742.02-.4.153-.048.518-.164.781-.141.322-.315.015-.366-.174-.1-.388-.262-1.19.155-1.419a4.007,4.007,0,0,1,2.431-.472m-.51,2.087.169.108-.139.031c-.061.327-.075.228-.185.478l-.555.123.262-.786c.3-.008.275-.025.447.047M52.472,44a1.568,1.568,0,0,1,.455-.543c.272-.062.521.311.955.37l1.418-.168a5.31,5.31,0,0,1,1.45-1.34,1.315,1.315,0,0,1,1.145-.053c.19.123.135.112,0,.29a1.471,1.471,0,0,1-.235.254,3.448,3.448,0,0,1-.5.375,9.744,9.744,0,0,1-1.449.572c-.537.18-1.083.332-1.633.468-.316.078-.621.2-.94.264a.973.973,0,0,1-.455.052.525.525,0,0,1-.229-.474A.262.262,0,0,1,52.472,44m5.737-.655c.083.08.007.134-.012.255-.167,1.1-1.461,1.656-2.407,1.911a7.26,7.26,0,0,1-1.881.282c-.454,0-1.6.03-1.8-.5a1.545,1.545,0,0,1,.565-.145,5.256,5.256,0,0,1,.895-.084,5.617,5.617,0,0,0,1.786-.365,8.292,8.292,0,0,0,.986-.381c.32-.151.587-.4.92-.518.287-.106.439-.123.594-.412a.267.267,0,0,1,.32-.064.261.261,0,0,1,.031.026M37.95,51.98a.207.207,0,0,1,.18.27,1.126,1.126,0,0,1-.264.07c-.034,0-.161-.29-.184-.339a.607.607,0,0,1,.267,0m4.444,2.393c-.037.259,0,.141-.078.308-.118.143-.023.058-.246.2-.868-1.156-2.547-1.393-3.588-2.406,1.351.5,2.491,1.533,3.912,1.9m-7.488-.962,5.082,3.24a1.992,1.992,0,0,1-.016.585c-.627,0-5.061-3.147-5.621-3.7l.555-.123M38.538,59.3c-.037.259,0,.142-.078.308l.031.139c-1.865-.238-3.871-2.706-5.56-3.425l-.062-.277c2.018.781,3.73,2.353,5.668,3.256M27.22,68.644l.339.216c.188.12.373,1.071.465,1.306.157.4.335.794.5,1.192a20.287,20.287,0,0,1,1.219,3.485c.131.61-.125,2.252,1.051,1.854.908-.308,1.333-1.5,1.953-2.146C34.429,72.8,35.863,71.056,37.4,69.3A10.607,10.607,0,0,0,39.471,66.8l.277-.061c1.812,1.939,3.823,2.507,6.176,3.58,1.274.58,2.15,2.008,3.48,2.576,1.487.634,3.011.943,4.22,1.976,2.178,1.859,4.918,4.489,8.039,4.768,1.587.141,3.7-2.64,4.194-3.4l.277-.062c-.089,1.53-1.03,3.079-1.329,4.514-.308,1.479,0,2.883-.527,4.191-.645,1.594-2.1,2.985-2.777,4.543-.623,1.426-.951,2.932-1.668,4.3a16.237,16.237,0,0,1-2.668,3.065c-.75.823-1.1,2.085-1.836,2.88a24.758,24.758,0,0,1-3.762,2.724c-1.037.751-1.929,1.8-2.93,2.54l-2.759,1.339a6.575,6.575,0,0,1-2.713.891l-.677-.432c-1.645-.332-3.283-.028-4.453-1.051-.879-.77-1.444-1.746-2.309-2.545l-1.8-.911a34.511,34.511,0,0,1-3.742-3.1l-1.125-.479c-.875-.792-1.286-2.834-2.139-3.746a31.736,31.736,0,0,1-2.787-2.73c-.663-.912-.741-1.81-1.369-2.9-.994-1.719-2.173-3.827-3.154-5.7-.617-1.181-.334-5.1-.211-6.21.154-1.386,3.576-5.646,4.628-6.7.835-.836,2.082-1.059,2.775-1.924l.416-.092" transform="translate(0)"/>
  </g>
</svg>
