<svg xmlns="http://www.w3.org/2000/svg" width="30.037" height="30.034" viewBox="0 0 30.037 30.034">
  <path id="Icon_simple-applemusic" data-name="Icon simple-applemusic" d="M30.033,7.664a11.551,11.551,0,0,0-.3-2.741A6.153,6.153,0,0,0,27,1.115a6.285,6.285,0,0,0-2.349-.91A13.137,13.137,0,0,0,22.7.018c-.05,0-.1-.013-.155-.016H7.495c-.19.013-.379.021-.569.033a8.728,8.728,0,0,0-2.745.5A6.252,6.252,0,0,0,.595,4.015,7.035,7.035,0,0,0,.141,5.777,13.278,13.278,0,0,0,.016,7.254c0,.04-.009.078-.013.116v15.3c.013.175.021.354.034.531a8.236,8.236,0,0,0,.622,2.97,6.233,6.233,0,0,0,4.047,3.507,8.225,8.225,0,0,0,1.618.285c.695.066,1.389.075,2.086.075h13.8a15.644,15.644,0,0,0,1.965-.125A6.681,6.681,0,0,0,27.053,28.9a6.315,6.315,0,0,0,2.353-2.763,6.935,6.935,0,0,0,.463-1.657,15.3,15.3,0,0,0,.171-2.553q0-7.134,0-14.258Zm-8.038,4.993v7.149a3.371,3.371,0,0,1-.305,1.509,2.651,2.651,0,0,1-1.737,1.427,5.775,5.775,0,0,1-1.339.217,2.342,2.342,0,0,1-1.133-4.453,5.339,5.339,0,0,1,1.274-.405c.473-.1.949-.191,1.419-.3a.773.773,0,0,0,.638-.646,1.131,1.131,0,0,0,.025-.242q0-3.407,0-6.812A.907.907,0,0,0,20.8,9.87a.36.36,0,0,0-.38-.293,4.528,4.528,0,0,0-.594.083q-1.427.282-2.853.571l-2.911.588-1.72.348c-.02,0-.04.013-.06.016a.564.564,0,0,0-.488.613c0,.053,0,.108,0,.163q0,4.885,0,9.768a3.837,3.837,0,0,1-.269,1.536,2.665,2.665,0,0,1-1.795,1.543,5.56,5.56,0,0,1-1.345.215,2.3,2.3,0,0,1-2.4-1.932,2.335,2.335,0,0,1,1.444-2.6A7.381,7.381,0,0,1,8.81,20.1c.359-.075.72-.145,1.076-.222a.871.871,0,0,0,.751-.894V18.8q0-5.557,0-11.116a1.991,1.991,0,0,1,.053-.463.869.869,0,0,1,.683-.648c.319-.083.645-.14.969-.206.917-.188,1.835-.37,2.753-.556l2.841-.576c.839-.168,1.677-.338,2.516-.5a7.6,7.6,0,0,1,.831-.133.617.617,0,0,1,.693.6,2.572,2.572,0,0,1,.015.279q0,3.586,0,7.174Z" transform="translate(-0.003 -0.001)"/>
</svg>
