<svg xmlns="http://www.w3.org/2000/svg" width="38.975" height="38.97" viewBox="0 0 38.975 38.97">
    <defs>
        <clipPath id="be1fms38ma">
            <path data-name="Rectangle 65" style="fill:#fff" d="M0 0h38.974v38.967H0z"/>
        </clipPath>
    </defs>
    <g data-name="Group 130">
        <g data-name="Group 129">
            <g data-name="Group 128" style="clip-path:url(#be1fms38ma)">
                <path data-name="Path 113" d="M38.962 9.943a14.975 14.975 0 0 0-.389-3.556 7.983 7.983 0 0 0-3.54-4.941A8.15 8.15 0 0 0 31.986.264a17.023 17.023 0 0 0-2.54-.243c-.066 0-.132-.017-.2-.021H9.719c-.247.017-.492.028-.739.042a11.319 11.319 0 0 0-3.561.651A8.112 8.112 0 0 0 .768 5.207a9.125 9.125 0 0 0-.589 2.287A17.2 17.2 0 0 0 .017 9.41 1.422 1.422 0 0 1 0 9.561v19.847c.017.227.028.46.044.689a10.681 10.681 0 0 0 .807 3.853A8.089 8.089 0 0 0 6.1 38.5a10.647 10.647 0 0 0 2.1.37c.9.086 1.8.1 2.707.1h17.91a20.377 20.377 0 0 0 2.549-.162A8.668 8.668 0 0 0 35.1 37.49a8.2 8.2 0 0 0 3.05-3.582 8.983 8.983 0 0 0 .6-2.15 19.859 19.859 0 0 0 .223-3.311v-18.5z" style="fill:#fff"/>
            </g>
        </g>
        <g data-name="Group 120">
            <path data-name="Icon simple-applemusic" d="M38.965 9.944a14.987 14.987 0 0 0-.39-3.556 7.983 7.983 0 0 0-3.54-4.941A8.155 8.155 0 0 0 31.988.266a17.044 17.044 0 0 0-2.54-.244c-.065 0-.135-.016-.2-.021H9.723c-.247.016-.492.028-.739.042a11.324 11.324 0 0 0-3.561.652A8.111 8.111 0 0 0 .771 5.209 9.127 9.127 0 0 0 .182 7.5a17.227 17.227 0 0 0-.163 1.911c0 .052-.011.1-.016.151v19.847c.016.227.028.46.044.688a10.686 10.686 0 0 0 .807 3.853 8.087 8.087 0 0 0 5.251 4.55 10.671 10.671 0 0 0 2.1.37c.9.086 1.8.1 2.707.1h17.91a20.3 20.3 0 0 0 2.549-.162A8.668 8.668 0 0 0 35.1 37.49a8.193 8.193 0 0 0 3.053-3.585 9 9 0 0 0 .6-2.15 19.845 19.845 0 0 0 .222-3.312v-18.5zm-10.429 6.478V25.7a4.374 4.374 0 0 1-.4 1.958 3.439 3.439 0 0 1-2.254 1.851 7.493 7.493 0 0 1-1.737.281 3.038 3.038 0 0 1-1.469-5.777 6.927 6.927 0 0 1 1.653-.526c.614-.133 1.231-.248 1.841-.39a1 1 0 0 0 .83-.84 1.467 1.467 0 0 0 .032-.313v-8.838a1.177 1.177 0 0 0-.042-.3.467.467 0 0 0-.494-.38 5.874 5.874 0 0 0-.771.107q-1.851.365-3.7.74l-3.777.763-2.231.451c-.026 0-.052.016-.078.021a.732.732 0 0 0-.633.8v12.884a4.978 4.978 0 0 1-.349 1.992 3.458 3.458 0 0 1-2.328 2 7.213 7.213 0 0 1-1.746.279 2.988 2.988 0 0 1-3.118-2.507 3.029 3.029 0 0 1 1.865-3.371 9.577 9.577 0 0 1 1.8-.5c.466-.1.934-.188 1.4-.287a1.13 1.13 0 0 0 .974-1.159V9.973a2.583 2.583 0 0 1 .068-.6 1.127 1.127 0 0 1 .887-.841c.414-.107.836-.182 1.257-.268 1.19-.244 2.38-.481 3.572-.721l3.686-.747c1.088-.218 2.176-.438 3.264-.654a9.857 9.857 0 0 1 1.078-.172.8.8 0 0 1 .9.783 3.337 3.337 0 0 1 .019.362v9.307z" transform="translate(0 .002)" style="fill:#5eac3a"/>
        </g>
    </g>
</svg>
