<svg xmlns="http://www.w3.org/2000/svg" width="40.683" height="38.972" viewBox="0 0 40.683 38.972">
    <defs>
        <clipPath id="7g2al68wea">
            <path data-name="Rectangle 63" style="fill:#fff" d="M0 0h40.566v38.972H0z"/>
        </clipPath>
        <clipPath id="lz04uvancb">
            <path data-name="Rectangle 32" style="fill:none" d="M0 0h40.564v38.97H0z"/>
        </clipPath>
    </defs>
    <g data-name="Group 132">
        <g data-name="Group 125">
            <g data-name="Group 124" style="clip-path:url(#7g2al68wea)">
                <path data-name="Path 111" d="M32.635 38.972H7.933c-.048-.06-.1-.173-.146-.17a4.473 4.473 0 0 1-2.158-.566 10.154 10.154 0 0 1-4.065-3.356A7.945 7.945 0 0 1 0 30.191Q.013 19.432.006 8.676a4.46 4.46 0 0 1 .159-1.259 8.442 8.442 0 0 1 1.324-3.192 9.914 9.914 0 0 1 2.544-2.532A7.742 7.742 0 0 1 6.139.587 8.737 8.737 0 0 1 8.748.006Q20.041.01 31.331 0a9.193 9.193 0 0 1 3.775.876 9.245 9.245 0 0 1 3.981 3.4A4.829 4.829 0 0 1 39.8 5.5c.132.448.521.832.41 1.345.4.146-.087.657.354.783v23.728c-.062.046-.178.094-.177.138a4.27 4.27 0 0 1-.568 1.982 9.723 9.723 0 0 1-3.56 4.025 7.054 7.054 0 0 1-3.559 1.326c-.024 0-.043.094-.066.144" style="fill:#fff"/>
            </g>
        </g>
        <g data-name="Group 122">
            <g data-name="Group 55" transform="translate(.119)" style="clip-path:url(#lz04uvancb)">
                <path data-name="Path 77" d="M32.635 38.971H7.93c-.048-.06-.1-.173-.146-.17a4.473 4.473 0 0 1-2.154-.565 10.155 10.155 0 0 1-4.065-3.356A7.948 7.948 0 0 1 0 30.191Q.013 19.432.006 8.673a4.446 4.446 0 0 1 .159-1.261A8.449 8.449 0 0 1 1.488 4.22a9.9 9.9 0 0 1 2.545-2.526A7.744 7.744 0 0 1 6.139.587 8.738 8.738 0 0 1 8.748.006Q20.041.01 31.331 0a9.194 9.194 0 0 1 3.774.875 9.247 9.247 0 0 1 3.981 3.4A4.817 4.817 0 0 1 39.8 5.5c.134.448.52.832.41 1.345.4.146-.088.657.354.783v23.728c-.062.046-.178.094-.177.139a4.267 4.267 0 0 1-.568 1.982 9.722 9.722 0 0 1-3.56 4.025 7.052 7.052 0 0 1-3.559 1.325c-.024 0-.043.094-.065.144m-4.929-25.748c-.107-.056-.158-.106-.208-.106-1.289 0-2.579.007-3.869-.011a1.594 1.594 0 0 0-.791.311 1.843 1.843 0 0 0-.394.367Q20.228 16 18.008 18.213a2.686 2.686 0 0 1-.505.294v-5.393c-1.137 0-2.212-.009-3.284.007a2.192 2.192 0 0 0-.557.151v12.347c.1.093.19.173.227.208h3.628c0-.952-.007-1.865 0-2.779.01-.892-.042-1.788.045-2.787a2.94 2.94 0 0 1 .384.266c.529.553 1.075 1.088 1.589 1.656 1 1.111 2.151 2.1 3.233 3.151a1.273 1.273 0 0 0 .954.357c.859-.01 1.72 0 2.58 0h1.382c-.327-.4-.571-.764-.874-1.07-1.619-1.632-3.254-3.251-4.882-4.876-.14-.14-.269-.291-.4-.431l6.175-6.089m-8.535 22.027h1.809a1.436 1.436 0 0 0 .761-.161c.835-.47 1.73-.844 2.563-1.318 1.035-.591 2.059-1.2 3.116-1.755.575-.3 1.146-.62 1.715-.937 1.266-.707 2.5-1.459 3.762-2.182a5.784 5.784 0 0 0 1.638-1.542c.306-.387.2-.862.485-1.235.1-.134.016-.4.016-.608V13.378l-.107.1-.184-.453-1.369.842v11.99A3.792 3.792 0 0 1 31.15 28a8.775 8.775 0 0 0-1.113.628c-.933.541-1.858 1.1-2.8 1.622-.617.341-1.31.568-1.888.957-1.369.924-2.9 1.578-4.266 2.452h-.123a7.084 7.084 0 0 1-1.469-.024c-.372-.08-.676-.413-1.039-.573a20.255 20.255 0 0 1-1.941-1.042c-1.006-.587-2.042-1.128-3.044-1.722-.486-.288-1-.535-1.491-.814-.916-.517-1.831-1.032-2.735-1.568a1.648 1.648 0 0 0-1.286-.24l-.862.631c.129.206.192.444.34.515.773.371 1.479.845 2.222 1.261.938.523 1.938.951 2.842 1.521 1.3.817 2.7 1.461 4.006 2.255.826.5 1.708.9 2.664 1.394m-.075-31.526a1.06 1.06 0 0 1-.213.174 15.751 15.751 0 0 0-1.689.777c-1.329.82-2.705 1.556-4.076 2.3a18.406 18.406 0 0 0-1.641.887c-.892.615-1.889 1.05-2.809 1.614A10.755 10.755 0 0 0 6.6 10.911a3.343 3.343 0 0 0-1.054 2.415c-.031 4.071-.013 8.142-.01 12.213 0 .047.054.094.07.121h.727l.859-.57c0-3.8.021-7.572-.012-11.348a2.632 2.632 0 0 1 1.472-2.375c.953-.551 1.906-1.115 2.891-1.619a12 12 0 0 0 1.5-.774c.907-.644 1.959-1.05 2.875-1.674.562-.383 1.219-.608 1.785-1 .462-.314 1-.525 1.488-.813.568-.334 1.182-.1 1.769-.17.056-.007.116.014.064.007a6.877 6.877 0 0 1 .865.4c1.049.678 2.172 1.238 3.251 1.868.537.313 1.1.58 1.646.881.968.537 1.926 1.087 2.891 1.626a13.372 13.372 0 0 1 1.482.825 1.789 1.789 0 0 0 1.31.416 3.674 3.674 0 0 0 .52-.263 5.359 5.359 0 0 0 .48-.464c-.147-.2-.226-.414-.381-.5-1.11-.623-2.245-1.207-3.356-1.828-.865-.484-1.715-.99-2.6-1.452-1.054-.554-2.057-1.2-3.123-1.738a17.207 17.207 0 0 1-1.708-.945 2.407 2.407 0 0 0-1.387-.426h-1.831" transform="translate(0 -.001)" style="fill:#5eac3a"/>
            </g>
        </g>
    </g>
</svg>
