<svg xmlns="http://www.w3.org/2000/svg" xmlns:xlink="http://www.w3.org/1999/xlink" width="31.264" height="30.036" viewBox="0 0 31.264 30.036">
  <defs>
    <style>
      .cls-1 {
        fill: none;
      }

      .cls-2 {
        clip-path: url(#clip-path);
      }
    </style>
    <clipPath id="clip-path">
      <rect id="Rectangle_32" data-name="Rectangle 32" class="cls-1" width="31.265" height="30.036" transform="translate(0)"/>
    </clipPath>
  </defs>
  <g id="Group_55" data-name="Group 55" class="cls-2" transform="translate(0)">
    <path id="Path_77" data-name="Path 77" d="M25.153,30.037H6.112c-.037-.046-.078-.133-.112-.131a3.448,3.448,0,0,1-1.66-.436,7.827,7.827,0,0,1-3.133-2.586A6.126,6.126,0,0,1,0,23.27Q.01,14.977,0,6.685a3.427,3.427,0,0,1,.123-.972,6.512,6.512,0,0,1,1.02-2.461A7.634,7.634,0,0,1,3.108,1.305,5.969,5.969,0,0,1,4.732.452,6.735,6.735,0,0,1,6.742,0q8.7,0,17.406,0a7.086,7.086,0,0,1,2.909.675A7.127,7.127,0,0,1,30.126,3.3a3.713,3.713,0,0,1,.55.938c.1.346.4.642.316,1.037.3.112-.068.506.273.6V24.168c-.048.035-.137.073-.136.107a3.288,3.288,0,0,1-.438,1.528,7.493,7.493,0,0,1-2.744,3.1A5.435,5.435,0,0,1,25.2,29.926c-.018,0-.033.073-.05.111m-3.8-19.846c-.082-.043-.121-.081-.16-.081-.993,0-1.988.006-2.982-.009a1.229,1.229,0,0,0-.61.24,1.421,1.421,0,0,0-.3.283q-1.708,1.709-3.419,3.414a2.07,2.07,0,0,1-.39.227V10.108c-.876,0-1.7-.007-2.531.006a1.689,1.689,0,0,0-.43.117v9.516c.079.072.147.133.175.161h2.8c0-.734-.006-1.437,0-2.142.008-.688-.032-1.378.034-2.148a2.266,2.266,0,0,1,.3.2c.408.426.828.839,1.225,1.277.774.856,1.658,1.622,2.492,2.429a.981.981,0,0,0,.736.275c.662-.008,1.326,0,1.989,0h1.065c-.252-.31-.44-.589-.674-.824-1.248-1.258-2.508-2.506-3.762-3.759-.108-.108-.207-.225-.308-.332l4.759-4.693M14.774,27.17c.447,0,.92,0,1.394,0a1.107,1.107,0,0,0,.587-.124c.644-.362,1.334-.65,1.975-1.016.8-.456,1.587-.923,2.4-1.353.443-.234.883-.478,1.322-.722.976-.545,1.93-1.125,2.9-1.682a4.458,4.458,0,0,0,1.263-1.189c.236-.3.152-.665.373-.952.079-.1.013-.31.013-.469V10.311l-.082.077-.142-.349-1.055.649v9.241a2.922,2.922,0,0,1-1.713,1.651,6.764,6.764,0,0,0-.858.484c-.719.417-1.432.847-2.161,1.25-.475.263-1.009.438-1.455.737-1.055.712-2.234,1.216-3.288,1.89h-.092a5.46,5.46,0,0,1-1.132-.019c-.286-.062-.521-.318-.8-.441a15.612,15.612,0,0,1-1.5-.8c-.776-.452-1.574-.869-2.346-1.327-.375-.222-.77-.413-1.149-.627-.706-.4-1.411-.8-2.108-1.208a1.27,1.27,0,0,0-.991-.185l-.664.486c.1.158.148.342.262.4.6.286,1.14.652,1.713.972.723.4,1.494.733,2.191,1.172,1,.63,2.081,1.126,3.088,1.738.637.389,1.316.691,2.053,1.074m-.058-24.3a.817.817,0,0,1-.164.134,12.14,12.14,0,0,0-1.3.6c-1.024.632-2.085,1.2-3.141,1.775a14.187,14.187,0,0,0-1.265.683c-.687.474-1.456.809-2.165,1.244a8.289,8.289,0,0,0-1.59,1.1,2.577,2.577,0,0,0-.812,1.861c-.024,3.138-.01,6.276-.008,9.413,0,.036.041.073.054.094h.56l.662-.439c0-2.926.016-5.836-.009-8.746a2.028,2.028,0,0,1,1.134-1.83C7.4,8.337,8.138,7.9,8.9,7.514a9.251,9.251,0,0,0,1.159-.6c.7-.5,1.51-.809,2.216-1.29.433-.295.939-.469,1.376-.767.356-.242.772-.405,1.147-.626.438-.258.911-.076,1.363-.131.044-.006.089.011.049.006a5.3,5.3,0,0,1,.667.3c.809.523,1.674.954,2.506,1.44.414.241.849.447,1.268.679.746.414,1.485.838,2.228,1.254a10.307,10.307,0,0,1,1.142.636,1.379,1.379,0,0,0,1.009.32,2.832,2.832,0,0,0,.4-.2,4.131,4.131,0,0,0,.37-.358c-.113-.155-.174-.319-.293-.386-.856-.48-1.73-.93-2.587-1.409-.667-.373-1.322-.763-2-1.119-.812-.427-1.586-.923-2.407-1.339A13.262,13.262,0,0,1,17.2,3.2a1.855,1.855,0,0,0-1.069-.328c-.473,0-.946,0-1.411,0" transform="translate(0 -0.001)"/>
  </g>
</svg>
