<svg xmlns="http://www.w3.org/2000/svg" width="38.97" height="38.974" viewBox="0 0 38.97 38.974">
    <defs>
        <clipPath id="xqbod0awea">
            <path data-name="Rectangle 64" style="fill:#fff" d="M0 0h38.97v38.97H0z"/>
        </clipPath>
    </defs>
    <g data-name="Group 131">
        <g data-name="Group 127">
            <g data-name="Group 126" style="clip-path:url(#xqbod0awea)">
                <path data-name="Path 112" d="M19.485 0A19.485 19.485 0 1 0 38.97 19.485 19.485 19.485 0 0 0 19.485 0" style="fill:#fff"/>
            </g>
        </g>
        <g data-name="Group 121">
            <path data-name="Icon simple-spotify" d="M19.485 0A19.485 19.485 0 1 0 38.97 19.485 19.542 19.542 0 0 0 19.485 0zm8.965 28.156a1.161 1.161 0 0 1-1.658.39c-4.579-2.825-10.327-3.412-17.149-1.853a1.2 1.2 0 1 1-.583-2.337c7.4-1.658 13.835-.974 18.9 2.143a1.17 1.17 0 0 1 .489 1.656zm2.338-5.356a1.472 1.472 0 0 1-2.049.487 25.25 25.25 0 0 0-19.386-2.243 1.48 1.48 0 0 1-.877-2.827A28.515 28.515 0 0 1 30.4 20.849a1.376 1.376 0 0 1 .391 1.949zm.195-5.456c-6.237-3.7-16.661-4.092-22.6-2.239a1.789 1.789 0 0 1-1.072-3.413c6.917-2.046 18.316-1.656 25.527 2.632a1.884 1.884 0 0 1 .68 2.533 2.039 2.039 0 0 1-2.531.487z" style="fill:#5eac3a" transform="translate(0 .004)"/>
        </g>
    </g>
</svg>
