<svg xmlns="http://www.w3.org/2000/svg" width="30.036" height="30.036" viewBox="0 0 30.036 30.036">
  <path id="Icon_simple-spotify" data-name="Icon simple-spotify" d="M15.018,0A15.018,15.018,0,1,0,30.036,15.018,15.062,15.062,0,0,0,15.018,0Zm6.91,21.7a.9.9,0,0,1-1.278.3c-3.529-2.178-7.96-2.629-13.217-1.428a.928.928,0,1,1-.449-1.8c5.707-1.278,10.663-.751,14.568,1.652a.9.9,0,0,1,.377,1.277Zm1.8-4.13a1.134,1.134,0,0,1-1.579.375A19.461,19.461,0,0,0,7.209,16.219a1.141,1.141,0,0,1-.676-2.179,21.978,21.978,0,0,1,16.9,2.029,1.061,1.061,0,0,1,.3,1.5Zm.15-4.205c-4.807-2.853-12.842-3.154-17.422-1.726A1.379,1.379,0,0,1,5.632,9.01c5.331-1.577,14.117-1.277,19.675,2.029a1.452,1.452,0,0,1,.524,1.952,1.572,1.572,0,0,1-1.951.375Z"/>
</svg>
